<?xml version="1.0" encoding="UTF-8"?>
<!-- Created with EazyDraw for Mac ( http://www.eazydraw.com/ ) -->

<svg
    version="1.1"
    xmlns:dc="http://purl.org/dc/elements/1.1/"
    xmlns:cc="http://creativecommons.org/ns#"
    xmlns:rdf="http://www.w3.org/1999/02/22-rdf-syntax-ns#"
    xmlns:svg="http://www.w3.org/2000/svg"
    xmlns:xlink="http://www.w3.org/1999/xlink"
    xmlns="http://www.w3.org/2000/svg"
    width="613.744178143"
    height="267.586362267"
    viewBox="0, 0, 613.744178143, 267.586362267"
    preserveAspectRatio="none"
    id="svg2">
   <defs
       id="defs_2F0A947A">
      <marker
          orient="auto"
          refX="0.0"
          refY="0.0"
          id="2E9D373C_end_arrow"
          style="overflow:visible"
          markerUnits="userSpaceOnUse">
         <path
             id="2E9D373C_end_arrow_path"
             style="fill:#000000;fill-opacity:1;stroke:#000000;stroke-opacity:1;fill-rule:nonzero;stroke-linecap:square;stroke-linejoin:miter;stroke-width:1.031775878026;stroke-miterlimit:10"
             d="M9.630478986605,0 L-2.616502635815,4.457536770166 L2.061428076168,0 L-2.616502635815,-4.457536770166 z"/>
      </marker>
      <marker
          orient="auto"
          refX="0.0"
          refY="0.0"
          id="6138BD3C_end_arrow"
          style="overflow:visible"
          markerUnits="userSpaceOnUse">
         <path
             id="6138BD3C_end_arrow_path"
             style="fill:#FD8008;fill-opacity:1;stroke:#FD8008;stroke-opacity:1;fill-rule:nonzero;stroke-linecap:square;stroke-linejoin:miter;stroke-width:0.75;stroke-miterlimit:10"
             d="M12.2969816613,0 L-1.02149642862,4.847529590457 L-1.02149642862,-4.847529590457 z"/>
      </marker>
      <marker
          orient="auto"
          refX="0.0"
          refY="0.0"
          id="D759BC4C_end_arrow"
          style="overflow:visible"
          markerUnits="userSpaceOnUse">
         <path
             id="D759BC4C_end_arrow_path"
             style="fill:#000000;fill-opacity:1;stroke:#000000;stroke-opacity:1;fill-rule:nonzero;stroke-linecap:square;stroke-linejoin:miter;stroke-width:0.5;stroke-miterlimit:10"
             d="M4.682333375525,0 L-2.835207590762,2.736161146605 L0.036237541515,0 L-2.835207590762,-2.736161146605 z"/>
      </marker>
   </defs>
   <metadata
       id="metadata7">
      <rdf:RDF>
         <cc:Work
             rdf:about="">
            <dc:format>image/svg+xml</dc:format>
            <dc:type rdf:resource="http://purl.org/dc/dcmitype/StillImage"/>
            <dc:title></dc:title>
         </cc:Work>
      </rdf:RDF>
   </metadata>
   <g
       id="layer_Paper"
       style="fill:#000000;fill-opacity:1;stroke:#000000;stroke-opacity:1;fill-rule:nonzero;stroke-linecap:square;stroke-linejoin:miter;stroke-width:1;stroke-miterlimit:10">
      <rect
          style="fill:none;stroke:#7F7F7F;stroke-width:10.8762019231"
          id="8B54017A"
          x="249.030336126"
          y="111.715593606"
          width="326.176242526"
          height="150.432667699"/>
      <line
          style="fill:none;stroke-width:4.127103512104;marker-end:url(#2E9D373C_end_arrow)"
          id="2E9D373C"
          x1="90.064553685"
          y1="186.143674039"
          x2="260.143293842"
          y2="186.143674039"/>
      <circle
          id="8D1AFC6A"
          cx="90.0120082944"
          cy="101.040853915"
          r="4.056657447382"/>
      <g
          id="DA749FF9_arrowsAlong">
         <path
             style="fill:none;stroke:#000080;stroke-width:10"
             id="DA749FF9"
             d="M175.103923764,101.104303961 C175.110076832,89.9717019626 172.896634196,78.8439743856 168.630687159,68.5611459331 C164.376109509,58.273608126 158.072758177,48.8399761995 150.196468936,40.9723887105 C142.328881447,33.096099469 132.89524952,26.7927481377 122.607711713,22.5381704877
C112.324883261,18.27222345 101.197155684,16.0587808141 90.0645536854,16.0649338824 C78.9319516872,16.0587808141 67.8042241101,18.27222345 57.5213956576,22.5381704877 C47.2338578505,26.7927481377 37.800225924,33.096099469 29.9326384351,40.9723887105
C22.0563491936,48.8399761995 15.7529978623,58.273608126 11.4984202122,68.5611459331 C7.232473174559,78.8439743856 5.019030538655,89.9717019626 5.025183606916,101.104303961 C5.019030538654,112.236905959 7.232473174559,123.364633536 11.4984202122,133.647461989
C15.7529978623,143.934999796 22.0563491936,153.368631722 29.9326384351,161.236219211 C37.800225924,169.112508453 47.2338578505,175.415859784 57.5213956576,179.670437434 C67.8042241101,183.936384472 78.9319516872,186.149827108 90.0645536854,186.143674039
C101.197155684,186.149827108 112.324883261,183.936384472 122.607711713,179.670437434 C132.89524952,175.415859784 142.328881447,169.112508453 150.196468936,161.236219211 C158.072758177,153.368631722 164.376109509,143.934999796 168.630687159,133.647461989
C172.896634196,123.364633536 175.110076832,112.236905959 175.103923764,101.104303961 z"/>
         <path
             id="DA749FF9_endVertex_0"
             style="fill:#FFFFFF;stroke:none"
             d="M177.040480132,77.7286467465 L171.399266893,75.2346536484 L169.180206399,80.9895697115 M175.656190264,74.3918928888 L170.014977026,71.8978997907 L167.795916531,77.6528158538 M174.271900397,71.0551390311
L168.630687159,68.5611459331 L166.411626664,74.3160619962"/>
         <path
             id="DA749FF9_endVertex_1"
             style="fill:#FFFFFF;stroke:none"
             d="M161.474355214,46.223766636 L155.308143925,46.0784163031 L155.460310385,52.2444631519 M158.918517719,43.6707528397 L152.75230643,43.5254025068 L152.90447289,49.6914493556 M156.362680224,41.1177390434 L150.196468936,40.9723887105
L150.348635395,47.1384355593"/>
         <path
             id="DA749FF9_endVertex_2"
             style="fill:#FFFFFF;stroke:none"
             d="M135.036735344,23.0739508399 L129.284275778,25.2993715428 L131.784503227,30.9378244399 M131.698453312,21.6933503123 L125.945993745,23.9187710153 L128.446221195,29.5572239123 M128.36017128,20.3127497847
L122.607711713,22.5381704877 L125.107939163,28.1766233847"/>
         <path
             id="DA749FF9_endVertex_3"
             style="fill:#FFFFFF;stroke:none"
             d="M101.752508492,11.8035489595 L97.2895604693,16.0609405698 L101.757211945,20.3133961742 M98.1400050996,11.8055456158 L93.6770570774,16.0629372261 L98.1447085527,20.3153928305 M94.5275017077,11.8075422721
L90.0645536854,16.0649338824 L94.5322051607,20.3173894868"/>
         <path
             id="DA749FF9_endVertex_4"
             style="fill:#FFFFFF;stroke:none"
             d="M66.688896471,14.1283775148 L64.1949033729,19.769590753 L69.949819436,21.9886512477 M63.3521426133,15.5126673821 L60.8581495153,21.1538806203 L66.6130655784,23.372941115 M60.0153887557,16.8969572495 L57.5213956576,22.5381704877
L63.2763117207,24.7572309824"/>
         <path
             id="DA749FF9_endVertex_5"
             style="fill:#FFFFFF;stroke:none"
             d="M35.1840163605,29.6945024327 L35.0386660277,35.8607137211 L41.2047128764,35.7085472615 M32.6310025642,32.2503399274 L32.4856522314,38.4165512158 L38.6516990801,38.2643847562 M30.0779887679,34.8061774222
L29.9326384351,40.9723887105 L36.0986852838,40.820222251"/>
         <path
             id="DA749FF9_endVertex_6"
             style="fill:#FFFFFF;stroke:none"
             d="M12.0342005644,56.1321223018 L14.2596212674,61.8845818686 L19.8980741644,59.3843544189 M10.6536000368,59.4704043341 L12.8790207398,65.2228639008 L18.5174736368,62.7226364511 M9.272999509256,62.8086863663
L11.4984202122,68.5611459331 L17.1368731093,66.0609184833"/>
         <path
             id="DA749FF9_endVertex_7"
             style="fill:#FFFFFF;stroke:none"
             d="M0.763798684057,89.4163491547 L5.021190294308,93.879297177 L9.273645898735,89.4116457017 M0.76579534036,93.0288525467 L5.023186950612,97.4918005689 L9.275642555039,93.0241490936 M0.767791996664,96.6413559386
L5.025183606916,101.104303961 L9.277639211343,96.6366524856"/>
         <path
             id="DA749FF9_endVertex_8"
             style="fill:#FFFFFF;stroke:none"
             d="M3.08862723931,124.479961175 L8.729840477523,126.973954273 L10.9489009722,121.21903821 M4.472917106666,127.816715033 L10.1141303449,130.310708131 L12.3331908395,124.555792068 M5.857206974023,131.153468891
L11.4984202122,133.647461989 L13.7174807069,127.892545926"/>
         <path
             id="DA749FF9_endVertex_9"
             style="fill:#FFFFFF;stroke:none"
             d="M18.6547521572,155.984841286 L24.8209634456,156.130191619 L24.6687969861,149.96414477 M21.210589652,158.537855082 L27.3768009404,158.683205415 L27.2246344808,152.517158566 M23.7664271467,161.090868878 L29.9326384351,161.236219211
L29.7804719755,155.070172362"/>
         <path
             id="DA749FF9_endVertex_10"
             style="fill:#FFFFFF;stroke:none"
             d="M45.0923720264,179.134657082 L50.8448315931,176.909236379 L48.3446041434,171.270783482 M48.4306540586,180.515257609 L54.1831136254,178.289836906 L51.6828861756,172.651384009 M51.7689360909,181.895858137
L57.5213956576,179.670437434 L55.0211682079,174.031984537"/>
         <path
             id="DA749FF9_endVertex_11"
             style="fill:#FFFFFF;stroke:none"
             d="M78.3765988793,190.405058962 L82.8395469015,186.147667352 L78.3718954262,181.895211748 M81.9891022712,190.403062306 L86.4520502935,186.145670696 L81.9843988182,181.893215091 M85.6016056632,190.40106565
L90.0645536854,186.143674039 L85.5969022101,181.891218435"/>
         <path
             id="DA749FF9_endVertex_12"
             style="fill:#FFFFFF;stroke:none"
             d="M113.4402109,188.080230407 L115.934203998,182.439017169 L110.179287935,180.219956674 M116.776964757,186.69594054 L119.270957856,181.054727301 L113.516041792,178.835666807 M120.113718615,185.311650672 L122.607711713,179.670437434
L116.85279565,177.451376939"/>
         <path
             id="DA749FF9_endVertex_13"
             style="fill:#FFFFFF;stroke:none"
             d="M144.94509101,172.514105489 L145.090441343,166.347894201 L138.924394494,166.50006066 M147.498104807,169.958267994 L147.643455139,163.792056706 L141.477408291,163.944223166 M150.051118603,167.4024305 L150.196468936,161.236219211
L144.030422087,161.388385671"/>
         <path
             id="DA749FF9_endVertex_14"
             style="fill:#FFFFFF;stroke:none"
             d="M168.094906806,146.07648562 L165.869486103,140.324026053 L160.231033206,142.824253503 M169.475507334,142.738203588 L167.250086631,136.985744021 L161.611633734,139.485971471 M170.856107862,139.399921555
L168.630687159,133.647461989 L162.992234262,136.147689438"/>
         <path
             id="DA749FF9_endVertex_15"
             style="fill:#FFFFFF;stroke:none"
             d="M179.365308687,112.792258767 L175.107917077,108.329310745 L170.855461472,112.79696222 M179.36331203,109.179755375 L175.10592042,104.716807353 L170.853464816,109.184458828 M179.361315374,105.567251983 L175.103923764,101.104303961
L170.851468159,105.571955436"/>
         <path
             id="DA749FF9_endVertex_17"
             style="fill:#FFFFFF;stroke:none"
             d="M179.365308687,112.792258767 L175.107917077,108.329310745 L170.855461472,112.79696222 M179.36331203,109.179755375 L175.10592042,104.716807353 L170.853464816,109.184458828 M179.361315374,105.567251983 L175.103923764,101.104303961
L170.851468159,105.571955436"/>
         <path
             id="DA749FF9_endClosed"
             style="fill:#FFFFFF;stroke:none"
             d="M179.365308687,112.792258767 L175.107917077,108.329310745 L170.855461472,112.79696222 M179.36331203,109.179755375 L175.10592042,104.716807353 L170.853464816,109.184458828 M179.361315374,105.567251983 L175.103923764,101.104303961
L170.851468159,105.571955436"/>
      </g>
      <circle
          style="fill:#000080;stroke:#000080"
          id="AD53F73C"
          cx="288.489750534"
          cy="186.143674039"
          r="7.0866141732"/>
      <line
          style="fill:none;stroke-width:2"
          id="2D84393C"
          x1="299.957768019"
          y1="182.900132798"
          x2="483.830152722"
          y2="121.70431624"/>
      <line
          style="fill:none;stroke:#FD8008;stroke-width:3;stroke-dasharray:6,10;marker-end:url(#6138BD3C_end_arrow)"
          id="6138BD3C"
          x1="300.621334337"
          y1="186.38445538"
          x2="600.300774155"
          y2="186.143674039"/>
      <line
          style="fill:none;stroke-width:2;marker-end:url(#D759BC4C_end_arrow)"
          id="D759BC4C"
          x1="296.42341767"
          y1="176.67268871"
          x2="318.294854833"
          y2="155.218438661"/>
      <path
          style="fill:none;stroke-width:2"
          id="452AE95C"
          d="M299.055291005,179.797819022 C313.695072202,173.660294969 328.240895118,167.48727916 332.830795325,154.994795858 C337.962828687,142.808942513 332.158074256,129.43680366 322.866970897,126.326744804 C313.631697413,122.517350012 304.372465635,129.655422367 304.94642949,136.810348056
C304.833483017,144.256491838 313.332883336,147.491537818 316.68992119,144.097853268 C320.64427391,141.015973111 317.047608349,135.963802973 314.541482388,138.358465706 L314.541482388,138.358465706"/>
      <path
          style="fill:none;stroke-width:2"
          id="2070625C"
          d="M483.830152722,121.704316239 C499.829816014,116.465159359 519.732852803,108.311188012 534.180768848,92.1045050299 C548.740706683,76.4908428806 556.076547974,52.3200454229 548.629012373,31.809610252 C542.017078793,11.2054012382 519.972981194,-2.457804631612 500.235567532,1.84190741864
C480.241766241,5.07729123531 467.356710666,26.1389010793 473.082595916,42.7240983572 C477.664269522,59.8654900167 498.753625096,66.9233359296 511.004593554,58.2328577901 C524.150092088,50.4321712276 523.771708611,31.6278627638 513.687533379,25.2681785079
C503.984776937,17.8538537397 490.869694673,24.3496646814 489.860291814,32.5597744839 C487.957823713,40.9560572158 496.059759089,45.9668587249 499.815116714,43.4966198678 C502.277548565,42.3328033438 502.765058332,39.4504289863 501.184020954,37.9740904727
L501.184020954,37.9740904727"/>
      <line
          style="fill:none;stroke-width:2;marker-end:url(#D759BC4C_end_arrow)"
          id="D176AA5C"
          x1="299.664276834"
          y1="191.462166398"
          x2="333.614913531"
          y2="218.941309545"/>
      <path
          style="fill:none;stroke-width:2"
          id="1469AB5C"
          d="M300.947474549,189.384468191 C310.546261817,193.341988139 320.083443959,197.322393429 323.092879351,205.377637116 C326.457772297,213.235163586 322.651799915,221.85761554 316.559951723,223.86300401 C310.504709207,226.319329354 304.433758084,221.716648615 304.810085904,217.103100725
C304.736030892,212.3017733 310.308787374,210.215792228 312.509878482,212.404064598 C315.102607842,214.391283238 312.744401314,217.648959124 311.10122307,216.104863255 L311.10122307,216.104863255"/>
      <line
          style="fill:none;stroke-width:2;marker-end:url(#D759BC4C_end_arrow)"
          id="F7F21E5C"
          x1="296.901104569"
          y1="193.486199168"
          x2="342.989239194"
          y2="242.557929296"/>
      <text
          id="296B856C"
          style="stroke:none"
          font-family="Cambria Math"
          font-size="18"
          font-weight="normal"
          font-style="normal">
         <tspan x="166.851843576" y="172.391837168">proton</tspan>
      </text>
      <text
          id="2187F66C"
          style="stroke:none"
          font-family="Cambria Math"
          font-size="18"
          font-weight="normal"
          font-style="normal">
         <tspan x="29.6948495513" y="64.5797447917">accelerator</tspan>
      </text>
      <text
          id="6EF0776C"
          style="stroke:none"
          font-family="Cambria Math"
          font-size="18"
          font-weight="normal"
          font-style="normal">
         <tspan x="487.420767289" y="92.8798981727">p, e</tspan>
      </text>
      <text
          id="2363586C"
          style="stroke:none"
          font-family="Cambria Math"
          font-size="10"
          font-weight="normal"
          font-style="normal">
         <tspan x="514.550597243" y="84.2156651637">±</tspan>
      </text>
      <text
          id="6674496C"
          style="stroke:none"
          font-family="Cambria Math"
          font-size="18"
          font-weight="normal"
          font-style="normal">
         <tspan x="260.170878228" y="242.201944914">target</tspan>
      </text>
      <text
          id="BDAC1A6C"
          style="stroke:none"
          font-family="Cambria Math"
          font-size="18"
          font-weight="normal"
          font-style="normal">
         <tspan x="347.545951655" y="42.8859799625">magnetic fields</tspan>
      </text>
   </g>
</svg>
