<?xml version="1.0" encoding="UTF-8"?>
<!-- Created with EazyDraw for Mac ( http://www.eazydraw.com/ ) -->

<svg
    version="1.1"
    xmlns:dc="http://purl.org/dc/elements/1.1/"
    xmlns:cc="http://creativecommons.org/ns#"
    xmlns:rdf="http://www.w3.org/1999/02/22-rdf-syntax-ns#"
    xmlns:svg="http://www.w3.org/2000/svg"
    xmlns:xlink="http://www.w3.org/1999/xlink"
    xmlns="http://www.w3.org/2000/svg"
    width="394.774409449"
    height="423.84803365"
    viewBox="0, 0, 394.774409449, 423.84803365"
    preserveAspectRatio="none"
    id="svg2">
   <defs
       id="defs_85BDDB7D">
      <linearGradient id="linearStops_4868EE3D">
         <stop id="stop_4868EE3D_0" offset="0" style="stop-color:#E6E6E6;stop-opacity:1;"/>
         <stop id="stop_4868EE3D_1" offset="1" style="stop-color:#999999;stop-opacity:1;"/>
      </linearGradient>
      <linearGradient id="linearGradient_4868EE3D" x1="0.998135188246" y1="0.456856817101" x2="0.001864811754" y2="0.543143182899" gradientUnits="objectBoundingBox" xlink:href="#linearStops_4868EE3D"/>
      <marker
          orient="auto"
          refX="0.0"
          refY="0.0"
          id="4A588039_start_arrow"
          style="overflow:visible"
          markerUnits="userSpaceOnUse">
         <path
             id="4A588039_start_arrow_path"
             style="fill:#118002;fill-opacity:1;stroke:#118002;stroke-opacity:1;fill-rule:nonzero;stroke-linecap:square;stroke-linejoin:miter;stroke-width:0.3125;stroke-miterlimit:10"
             d="M-5.827746278658,0 L1.68979468763,-2.736161146605 L1.68979468763,2.736161146605 z"/>
      </marker>
      <marker
          orient="auto"
          refX="0.0"
          refY="0.0"
          id="D3FD420D_end_arrow"
          style="overflow:visible"
          markerUnits="userSpaceOnUse">
         <path
             id="D3FD420D_end_arrow_path"
             style="fill:#000000;fill-opacity:1;stroke:#000000;stroke-opacity:1;fill-rule:nonzero;stroke-linecap:square;stroke-linejoin:miter;stroke-width:0.5;stroke-miterlimit:10"
             d="M5.625,0 L-1.892540966287,2.736161146605 L-1.892540966287,-2.736161146605 z"/>
      </marker>
      <marker
          orient="auto"
          refX="0.0"
          refY="0.0"
          id="4DB50F2D_end_arrow"
          style="overflow:visible"
          markerUnits="userSpaceOnUse">
         <path
             id="4DB50F2D_end_arrow_path"
             style="fill:#2400FF;fill-opacity:1;stroke:#2400FF;stroke-opacity:1;fill-rule:nonzero;stroke-linecap:square;stroke-linejoin:miter;stroke-width:0.708661417323;stroke-miterlimit:10"
             d="M9.955318405872,0 L-3.745400005186,4.986653689688 L-3.745400005186,-4.986653689688 z"/>
      </marker>
      <marker
          orient="auto"
          refX="0.0"
          refY="0.0"
          id="1CF6A20D_end_arrow"
          style="overflow:visible"
          markerUnits="userSpaceOnUse">
         <path
             id="1CF6A20D_end_arrow_path"
             style="fill:#000000;fill-opacity:1;stroke:#000000;stroke-opacity:1;fill-rule:nonzero;stroke-linecap:square;stroke-linejoin:miter;stroke-width:0.531496062992;stroke-miterlimit:10"
             d="M6.328125,0 L-1.189415966287,2.736161146605 L-1.189415966287,-2.736161146605 z"/>
      </marker>
      <marker
          orient="auto"
          refX="0.0"
          refY="0.0"
          id="DA7D333D_end_arrow"
          style="overflow:visible"
          markerUnits="userSpaceOnUse">
         <path
             id="DA7D333D_end_arrow_path"
             style="fill:#2400FF;fill-opacity:1;stroke:#2400FF;stroke-opacity:1;fill-rule:nonzero;stroke-linecap:square;stroke-linejoin:miter;stroke-width:0.708661417323;stroke-miterlimit:10"
             d="M11.9090323561,0 L-1.791686054977,4.986653689688 L-1.791686054977,-4.986653689688 z"/>
      </marker>
      <marker
          orient="auto"
          refX="0.0"
          refY="0.0"
          id="2599C3CD_start_arrow"
          style="overflow:visible"
          markerUnits="userSpaceOnUse">
         <path
             id="2599C3CD_start_arrow_path"
             style="fill:#606060;fill-opacity:1;stroke:#606060;stroke-opacity:1;fill-rule:nonzero;stroke-linecap:square;stroke-linejoin:miter;stroke-width:0.531496062992;stroke-miterlimit:10"
             d="M2.828427124746,-2.828427124746 C4.390524291751,-1.266329957741 4.390524291751,1.266329957741 2.828427124746,2.828427124746 C1.266329957741,4.390524291751 -1.266329957741,4.390524291751 -2.828427124746,2.828427124746
C-4.390524291751,1.266329957741 -4.390524291751,-1.266329957741 -2.828427124746,-2.828427124746 C-1.266329957741,-4.390524291751 1.266329957741,-4.390524291751 2.828427124746,-2.828427124746"/>
      </marker>
   </defs>
   <metadata
       id="metadata7">
      <rdf:RDF>
         <cc:Work
             rdf:about="">
            <dc:format>image/svg+xml</dc:format>
            <dc:type rdf:resource="http://purl.org/dc/dcmitype/StillImage"/>
            <dc:title></dc:title>
         </cc:Work>
      </rdf:RDF>
   </metadata>
   <g
       id="layer_Paper"
       style="fill:#000000;fill-opacity:1;stroke:#000000;stroke-opacity:1;fill-rule:nonzero;stroke-linecap:square;stroke-linejoin:miter;stroke-width:1;stroke-miterlimit:10">
      <path
          style="fill:url(#linearGradient_4868EE3D);stroke:none"
          id="4868EE3D"
          d="M170.837401574,228.257482468 C197.943766778,244.842605015 225.050131982,261.427727561 252.156497186,278.012850108 C258.778862934,234.719045318 256.497111791,187.931182348 245.816646925,148.012676282 C220.823565142,174.760945011 195.830483358,201.50921374 170.837401574,228.257482468
z"/>
      <path
          style="fill:none;stroke:#606060;stroke-linecap:round;stroke-width:1.417322834646;stroke-miterlimit:9;stroke-dasharray:4,4"
          id="1F3FE29D"
          d="M0.758857044978,228.533970908 C0.901325286318,322.465757325 77.1635767277,398.497022108 171.095363145,398.354553867 C265.027149562,398.212085625 341.058414345,321.949834184 340.915946104,228.018047767 C340.773477862,134.08626135 264.511226421,58.0549965667 170.579440004,58.1974648081
C76.7483779542,58.3397802787 0.758661417342,134.444839361 0.758661417323,228.276009337"/>
      <path
          style="fill:none;stroke:#118002;stroke-width:1.25;marker-start:url(#4A588039_start_arrow)"
          id="4A588039"
          d="M178.953358759,182.90315176 C187.215487025,184.515627548 190.28417839,188.235286958 185.807472761,191.211243586 C181.330767132,194.187200213 171.003901859,195.292519825 162.741773593,193.680044037 C154.479645327,192.067568249 151.410953962,188.347908839 155.887659591,185.371952211
C157.436880836,184.342084354 159.77302423,183.493698646 162.619447304,182.927259605"/>
      <path
          style="fill:none;stroke:#808080;stroke-width:1.417322834646;stroke-dasharray:4,4"
          id="A8091AFC"
          d="M245.864252398,148.19955142 C231.082302875,92.7995546715 202.237443038,58.197210617 170.837401574,58.197210617"/>
      <line
          style="fill:none;stroke-width:2;stroke-dasharray:4,4;marker-end:url(#D3FD420D_end_arrow)"
          id="D3FD420D"
          x1="170.837401574"
          y1="228.257482468"
          x2="148.16023622"
          y2="335.974017901"/>
      <text
          id="A805B83D"
          style="fill:#202020;stroke:none"
          font-family="Avenir Next"
          font-size="12"
          font-weight="bold"
          font-style="normal"
          transform="matrix(1.152496564361,0,0,1.153095618237,-26.0521168044,-1.963361222799)">
         <tspan x="175.837401574" y="24.8244116024">Celestial </tspan>
         <tspan x="175.837401574" y="40.8244116024">North Pole</tspan>
      </text>
      <text
          id="32367B3D"
          style="stroke:none"
          font-family="Avenir Next"
          font-size="12"
          font-weight="bold"
          font-style="normal"
          transform="matrix(1.152496564361,0,0,1.153095618237,-10.4902626776,-46.2284880076)">
         <tspan x="73.7901574803" y="313.95826987">Vernal</tspan>
         <tspan x="73.7901574803" y="329.95826987">Equinox</tspan>
      </text>
      <text
          id="2A273C3D"
          style="stroke:none"
          font-family="Helvetica"
          font-size="12"
          font-weight="normal"
          font-style="normal">
         <tspan x="73.7901574803" y="352.64330924">(RA = 0°, δ = 0°)</tspan>
      </text>
      <text
          id="4ABB925D"
          style="stroke:none"
          font-family="Helvetica"
          font-size="12"
          font-weight="normal"
          font-style="normal">
         <tspan x="215.522440944" y="57.8401596334">(δ = 90°)</tspan>
      </text>
      <text
          id="5000124D"
          style="fill:#003CFF;stroke:none"
          font-family="Helvetica"
          font-size="18"
          font-weight="normal"
          font-style="normal">
         <tspan x="238.199606299" y="229.249608452">δ </tspan>
      </text>
      <ellipse
          style="fill:none;stroke:#606060"
          id="10534BFC"
          cx="170.837401575"
          cy="228.257482468"
          rx="170.078740157"
          ry="56.6929133855"/>
      <text
          id="7AFD046D"
          style="fill:#003CFF;stroke:none"
          font-family="Helvetica"
          font-size="18"
          font-weight="normal"
          font-style="normal"
          transform="matrix(0.999681832726,-0.025223665837,0.025223665837,0.999681832726,-6.952465090749,5.401430139539)">
         <tspan x="187.175984251" y="274.603939161">RA</tspan>
      </text>
      <g
          id="23F5A8FC_annotation">
         <path
             style="fill:none;stroke-linecap:butt;stroke-width:1.417322834646;stroke-miterlimit:9"
             id="23F5A8FC"
             d="M311.317390484,324.133186217 C364.268079544,246.548230686 344.298060854,140.728182618 266.713105323,87.7774935585 C189.128149791,34.8268044989 83.308101724,54.7968231886 30.3574126644,132.38177872 C11.0739246238,160.636530239 0.75866141733,194.04953172 0.758661417323,228.257482468"/>
         <text
             id="23F5A8FC_annotation_text"
             style="stroke:none"
             font-family="Helvetica"
             font-size="12"
             font-weight="normal"
             font-style="normal">
            <tspan rotate="315.451646175" x="60.2198801546" y="122.50842983">N</tspan>
            <tspan rotate="318.987236807" x="67.6277249675" y="115.254265012">o</tspan>
            <tspan rotate="321.734923476" x="74.145013289" y="109.625399422">r</tspan>
            <tspan rotate="323.915693178" x="78.951334237" y="105.863396579">t</tspan>
            <tspan rotate="326.549203527" x="83.2479267983" y="102.748989614">h</tspan>
            <tspan rotate="329.744445137" x="90.3342494462" y="98.0943236831">e</tspan>
            <tspan rotate="332.932580898" x="97.67082963" y="93.8408151393">n</tspan>
            <tspan rotate="335.550364717" x="105.387676337" y="89.9322030964">&#x20;</tspan>
            <tspan rotate="338.386437121" x="110.167890708" y="87.770384308">S</tspan>
            <tspan rotate="341.664109659" x="119.273405229" y="84.192304213">k</tspan>
            <tspan rotate="344.600339981" x="126.762167773" y="81.7342500598">y</tspan>
         </text>
      </g>
      <path
          style="fill:none;stroke:#2400FF;stroke-width:2.834645669291;marker-end:url(#4DB50F2D_end_arrow)"
          id="4DB50F2D"
          d="M161.524114268,285.16965266 C189.917121499,285.793379421 218.233628022,283.553853916 243.396218602,278.694465982"/>
      <line
          style="fill:none;stroke-width:2.125984251969;stroke-dasharray:4,4;marker-end:url(#1CF6A20D_end_arrow)"
          id="1CF6A20D"
          x1="170.837401574"
          y1="228.257482468"
          x2="170.837401574"
          y2="7.155120263823"/>
      <ellipse
          style="fill:none;stroke:#FF0000;stroke-width:2.834645669291"
          id="1FDB56AD"
          cx="245.320423815"
          cy="145.274862722"
          rx="170.078740157"
          ry="56.6929133855"
          transform="matrix(0.923518818027,0.383553115943,-0.383553115943,0.923518818027,0,0)"/>
      <path
          style="fill:none;stroke:#2400FF;stroke-width:2.834645669291;marker-end:url(#DA7D333D_end_arrow)"
          id="DA7D333D"
          d="M252.339769894,276.798534032 C258.056513328,238.403969927 256.81332266,197.205767506 248.829304866,160.464931719"/>
      <circle
          style="fill:#B3B3B3;stroke:none"
          id="ECAFE16D"
          cx="209.911565296"
          cy="218.918627605"
          r="6.198782414685"/>
      <g
          id="1342086D">
         <circle
             style="fill:#21FFFF;stroke:#191919;stroke-width:2"
             id="1BAFE16D"
             cx="170.837399349"
             cy="228.257482469"
             r="29.5900098649"/>
         <g
             id="73E8B76D">
            <path
                style="fill:#408002;stroke:none"
                id="5CAFE16D"
                d="M151.140154447,207.376360316 C151.863823793,206.047033967 154.251403388,211.651916179 151.460395951,214.989787136 C150.471392173,216.187759549 146.385847236,217.616156564 146.045025863,218.944382006 C144.815111197,219.021943929 143.716388162,218.811811303 143.417923882,218.352216615
C145.125876043,214.693597848 147.683230688,209.921828208 151.140154447,207.376360316 z"/>
            <path
                style="fill:#BCFFFF;stroke:none;fill-rule:evenodd"
                id="6CAFE16D"
                d="M197.847875171,216.270685867 C196.890007031,214.866463697 195.801499514,213.551364242 194.598781378,212.349974873 C192.072212857,209.820611903 189.042730503,207.79637651 185.73902791,206.430076869 C182.436837663,205.060126105 178.863319574,204.349309162 175.288236132,204.351285136
C171.713152689,204.349309162 168.1396346,205.060126105 164.837444353,206.430076869 C161.53374176,207.79637651 158.504259407,209.820611903 155.977690886,212.349974873 C153.448327915,214.876543395 151.424092522,217.906025748 150.057792882,221.209728341
C148.687842117,224.511918588 147.977025174,228.085436677 147.979001148,231.66052012 C147.977025174,235.235603562 148.687842117,238.809121651 150.057792882,242.111311898 C151.424092522,245.415014491 153.448327915,248.444496845 155.977690886,250.971065366
C158.504259407,253.500428336 161.53374176,255.524663729 164.837444353,256.89096337 C165.412449444,257.129510699 165.995681386,257.348072631 166.585715913,257.546365861 C168.00867631,257.746063887 169.422926981,257.848260771 170.837403801,257.847478979
C174.711064366,257.849619979 178.583028844,257.079438358 182.16100523,255.595074612 C185.740620266,254.114666917 189.023113252,251.921375225 191.760690989,249.180769657 C194.501296558,246.443191919 196.69458825,243.160698934 198.174995944,239.581083897
C199.659359691,236.003107511 200.429541311,232.131143033 200.427400312,228.257482469 C200.429541311,224.383821905 199.659359691,220.511857427 198.174995944,216.933881041 C198.081201747,216.707087355 197.984545956,216.48148635 197.885070677,216.257141044
z"/>
            <path
                style="fill:#408002;stroke:none"
                id="7CAFE16D"
                d="M179.428987519,199.959928293 C178.898913868,204.373319009 176.607487268,203.635041558 172.67238921,205.969826456 C170.723070714,205.939349815 169.538810289,206.482350472 168.223682263,207.235595721 C164.66599731,211.302348638 168.289897872,213.499929438 172.09170312,213.451860267
C173.888626021,213.123580276 174.522924046,211.336332819 175.986431406,210.067707068 C177.559136922,209.50648144 178.616605841,207.631854708 182.911211136,209.700716776 C184.151722651,209.938360958 190.252478958,217.435298006 180.121887274,216.878878245
C177.67932703,217.064945056 175.619611127,214.932184247 169.204428384,216.208243434 C164.513461073,216.825820996 167.232028554,216.115774061 162.263425144,219.015133121 C158.974846568,220.005828267 160.24820578,226.539254228 161.840468552,227.915308183
C163.94768574,229.956055146 168.657300792,231.959421669 171.272162117,231.613123507 C176.635487365,231.384954842 171.119562865,232.737800217 174.776000249,237.171250558 C175.998746082,239.499915741 173.113797184,237.28319879 176.273206456,244.672060164
C180.004623541,250.447430159 178.078638287,247.507128348 182.830013869,247.572323656 C190.774429191,245.673496199 185.337760528,240.284963521 187.408911617,235.95981075 C187.815873915,231.604288661 189.002478911,232.64887843 192.14429831,230.199812406
C194.493197109,228.549002082 194.739946565,227.009621573 194.37156339,226.131233591 C192.341774935,226.050852341 184.994231898,226.366713012 186.926595189,223.184869482 C188.74623763,221.063357366 187.949883567,222.044976905 194.383562977,221.455022749
C196.593258432,220.963272823 196.59048919,218.766845037 198.888065234,219.288704099 C194.418790914,205.910392455 186.07370751,202.101042842 179.428987519,199.959928293 z"/>
            <path
                style="fill:#408002;stroke:none"
                id="8CAFE16D"
                d="M141.247402839,228.257482469 C143.782924119,228.09368244 146.955346172,228.489100703 148.990707371,228.977747694 C150.919139632,229.073725038 150.998420781,230.887215186 152.552301282,231.287338761 C153.299302321,231.458600505 154.602672477,233.038950097 155.092580199,233.865925737
C156.452025567,235.280795403 159.147408537,234.888229133 160.291919529,236.536968331 C163.682474167,240.17068569 162.607138872,241.175014685 160.452281229,245.338835824 C158.848530671,246.764593586 163.70247704,248.418582291 155.550529991,253.223082795
C153.5803107,252.060191743 150.547587947,250.088165212 148.788325759,247.855002748 C147.738843242,242.268287999 147.133263759,237.421184563 145.818134411,235.091253237 C144.941740737,233.878205684 142.782413004,234.372606713 142.252279279,234.807418324
C141.320154732,231.74508072 141.301452882,230.196144643 141.247402839,228.257482469 z"/>
            <path
                style="fill:#80FF08;stroke:none;fill-rule:evenodd"
                id="9CAFE16D"
                d="M148.089315271,228.838069845 C147.990784601,229.779947902 147.941282165,230.726951491 147.941805641,231.674064941 C147.939829667,235.249148384 148.65064661,238.822666473 150.020597375,242.12485672 C151.386897016,245.428559312 153.411132409,248.458041666 155.940495379,250.984610187
C156.346167633,251.390731125 156.764805171,251.783829708 157.195461348,252.163273408 C162.91146509,248.134303123 158.987179925,246.641332365 160.45228123,245.338835823 C162.607138872,241.175014684 163.682474167,240.170685688 160.291919529,236.53696833
C159.147408538,234.888229132 156.452025567,235.280795402 155.092580199,233.865925736 C154.602672478,233.038950096 153.299302322,231.458600504 152.552301282,231.28733876 C150.998420781,230.887215185 150.919139632,229.073725037 148.990707371,228.977747693
C148.777791031,228.926631002 148.552431874,228.87653451 148.316660605,228.827991648 C148.240878827,228.831351047 148.165097049,228.834710446 148.089315271,228.838069845 z"/>
            <path
                style="fill:#80FF08;stroke:none;fill-rule:evenodd"
                id="ACAFE16D"
                d="M197.590407471,215.899840861 C197.551567437,215.842901879 197.512512609,215.78610943 197.473244082,215.729465153 C196.544077041,214.389155256 195.495263501,213.131804803 194.341313678,211.979129868 C191.814745157,209.449766898 188.785262803,207.425531505 185.481560211,206.059231864
C182.650731688,204.884830812 179.62050677,204.194821292 176.560833423,204.023008055 C175.527809649,204.603748021 174.228637464,205.046468291 172.67238921,205.969826456 C170.723070714,205.939349815 169.538810289,206.482350473 168.223682263,207.235595721
C164.66599731,211.302348638 168.289897872,213.499929438 172.09170312,213.451860268 C173.888626021,213.123580276 174.522924046,211.33633282 175.986431406,210.067707069 C177.559136922,209.50648144 178.616605841,207.631854709 182.911211136,209.700716777
C184.151722651,209.938360959 190.252478958,217.435298006 180.121887274,216.878878245 C177.67932703,217.064945056 175.619611127,214.932184248 169.204428384,216.208243434 C164.513461073,216.825820997 167.232028554,216.115774062 162.263425144,219.015133121
C158.974846568,220.005828268 160.24820578,226.539254228 161.840468552,227.915308184 C163.94768574,229.956055147 168.657300792,231.95942167 171.272162117,231.613123508 C176.635487365,231.384954842 171.119562865,232.737800217 174.776000249,237.171250558
C175.998746082,239.499915742 173.113797184,237.283198791 176.273206456,244.672060165 C180.004623541,250.44743016 178.078638287,247.507128349 182.830013869,247.572323656 C190.774429191,245.6734962 185.337760528,240.284963522 187.408911617,235.959810751
C187.815873915,231.604288662 189.002478911,232.648878431 192.14429831,230.199812406 C194.493197109,228.549002082 194.739946565,227.009621574 194.37156339,226.131233591 C192.341774935,226.050852342 184.994231898,226.366713012 186.926595189,223.184869483
C188.74623763,221.063357367 187.949883567,222.044976905 194.383562977,221.45502275 C196.535573823,220.976110068 196.589126017,218.880359836 198.712751632,219.253313059 C198.769675376,219.263310063 198.828086482,219.275080848 198.888065234,219.288704099
C198.712051829,218.761826129 198.530026966,218.249789812 198.342331259,217.752112542 C198.06892319,217.027167988 197.78348246,216.332691129 197.487061838,215.667190324 C197.521510383,215.744740503 197.555958927,215.822290682 197.590407471,215.899840861
z"/>
            <circle
                style="fill:none;stroke:#191919;stroke-width:2"
                id="BCAFE16D"
                cx="170.8374038"
                cy="228.257482469"
                r="29.5900098648"/>
         </g>
      </g>
      <line
          style="fill:none;stroke:#606060;stroke-width:2.125984251969;stroke-dasharray:4,4;marker-start:url(#2599C3CD_start_arrow)"
          id="2599C3CD"
          x1="170.837401574"
          y1="228.257482468"
          x2="170.837401575"
          y2="199.911025776"/>
      <line
          style="fill:none;stroke:#606060;stroke-width:2;stroke-dasharray:4,4"
          id="BE8A32CD"
          x1="170.837401574"
          y1="228.257482469"
          x2="165.377276934"
          y2="254.324541462"/>
      <line
          style="fill:none;stroke-width:0.250000000939"
          id="8814C3DD"
          x1="170.837401574"
          y1="228.257482468"
          x2="192.814885083"
          y2="241.782139818"/>
      <line
          style="fill:none;stroke-width:0.255118110236"
          id="56D0A9DD"
          x1="170.837401574"
          y1="228.257482468"
          x2="188.817745274"
          y2="209.321493641"/>
      <text
          id="9FD0477D"
          style="fill:#A9A9A9;stroke:none"
          font-family="Helvetica Neue"
          font-size="9"
          font-weight="normal"
          font-style="normal">
         <tspan x="255.207480315" y="390.32834861">J. A. Aguilar 2018</tspan>
      </text>
   </g>
</svg>
