<?xml version="1.0" encoding="UTF-8"?>
<!-- Created with EazyDraw for Mac ( http://www.eazydraw.com/ ) -->

<svg
    version="1.1"
    xmlns:dc="http://purl.org/dc/elements/1.1/"
    xmlns:cc="http://creativecommons.org/ns#"
    xmlns:rdf="http://www.w3.org/1999/02/22-rdf-syntax-ns#"
    xmlns:svg="http://www.w3.org/2000/svg"
    xmlns:xlink="http://www.w3.org/1999/xlink"
    xmlns="http://www.w3.org/2000/svg"
    width="782.511944254"
    height="241.177702411"
    viewBox="0, 0, 782.511944254, 241.177702411"
    preserveAspectRatio="none"
    id="svg2">
   <defs
       id="defs_B58D677A">
      <marker
          orient="auto"
          refX="0.0"
          refY="0.0"
          id="583FA61A_start_arrow"
          style="overflow:visible"
          markerUnits="userSpaceOnUse">
         <path
             id="583FA61A_start_arrow_path"
             style="fill:#000000;fill-opacity:1;stroke:#000000;stroke-opacity:1;fill-rule:nonzero;stroke-linecap:square;stroke-linejoin:miter;stroke-width:0.5;stroke-miterlimit:10"
             d="M0,0 L13.3184780899,-4.847529590457 C8.87809749474,-3.231363224999 8.87809749474,3.231363224999 13.3184780899,4.847529590457 z"/>
      </marker>
      <marker
          orient="auto"
          refX="0.0"
          refY="0.0"
          id="583FA61A_end_arrow"
          style="overflow:visible"
          markerUnits="userSpaceOnUse">
         <path
             id="583FA61A_end_arrow_path"
             style="fill:#000000;fill-opacity:1;stroke:#000000;stroke-opacity:1;fill-rule:nonzero;stroke-linecap:square;stroke-linejoin:miter;stroke-width:0.5;stroke-miterlimit:10"
             d="M0,0 L-13.3184780899,4.847529590457 C-8.87809749474,3.231363224999 -8.87809749474,-3.231363224999 -13.3184780899,-4.847529590457 z"/>
      </marker>
      <marker
          orient="auto"
          refX="0.0"
          refY="0.0"
          id="4B6B9F2A_end_arrow"
          style="overflow:visible"
          markerUnits="userSpaceOnUse">
         <path
             id="4B6B9F2A_end_arrow_path"
             style="fill:#000000;fill-opacity:1;stroke:#000000;stroke-opacity:1;fill-rule:nonzero;stroke-linecap:square;stroke-linejoin:miter;stroke-width:0.25;stroke-miterlimit:10"
             d="M0,0 L-7.517540966287,2.736161146605 L-7.517540966287,-2.736161146605 z"/>
      </marker>
      <marker
          orient="auto"
          refX="0.0"
          refY="0.0"
          id="EE1F9F6A_end_arrow"
          style="overflow:visible"
          markerUnits="userSpaceOnUse">
         <path
             id="EE1F9F6A_end_arrow_path"
             style="fill:#666666;fill-opacity:1;stroke:#666666;stroke-opacity:1;fill-rule:nonzero;stroke-linecap:square;stroke-linejoin:miter;stroke-width:0.25;stroke-miterlimit:10"
             d="M2.828427124746,-2.828427124746 C4.390524291751,-1.266329957741 4.390524291751,1.266329957741 2.828427124746,2.828427124746 C1.266329957741,4.390524291751 -1.266329957741,4.390524291751 -2.828427124746,2.828427124746
C-4.390524291751,1.266329957741 -4.390524291751,-1.266329957741 -2.828427124746,-2.828427124746 C-1.266329957741,-4.390524291751 1.266329957741,-4.390524291751 2.828427124746,-2.828427124746"/>
      </marker>
   </defs>
   <metadata
       id="metadata7">
      <rdf:RDF>
         <cc:Work
             rdf:about="">
            <dc:format>image/svg+xml</dc:format>
            <dc:type rdf:resource="http://purl.org/dc/dcmitype/StillImage"/>
            <dc:title></dc:title>
         </cc:Work>
      </rdf:RDF>
   </metadata>
   <g
       id="layer_Paper"
       style="fill:#000000;fill-opacity:1;stroke:#000000;stroke-opacity:1;fill-rule:nonzero;stroke-linecap:square;stroke-linejoin:miter;stroke-width:1;stroke-miterlimit:10">
      <line
          style="fill:none;stroke-linecap:butt;stroke-width:3;stroke-dasharray:4,4"
          id="6976F81A"
          x1="616.621899639"
          y1="71.9161417317"
          x2="616.621899639"
          y2="199.475196851"/>
      <path
          style="fill:none;stroke:#0F80FF;stroke-linecap:butt;stroke-width:3"
          id="4D70A60A"
          d="M503.236072867,100.262598426 C501.372728498,89.7256342571 499.342132242,78.2287244285 497.330561056,67.7194403976 C495.644671862,58.9116544685 493.601309428,48.8326654865 491.425049245,40.1306831749 C490.030440777,34.5542092256 487.94021138,26.9348610492 485.519537434,21.6964649518
C484.602323815,19.711592825 482.390009747,15.2232283463 479.614025623,15.2232283462 C476.838041499,15.2232283461 474.625727431,19.7115928245 473.708513812,21.6964649513 C471.287839866,26.9348610485 469.197610468,34.5542092248 467.803002001,40.1306831739
C465.626741818,48.8326654855 463.583379384,58.9116544674 461.89749019,67.7194403964 C459.885919004,78.2287244272 457.855322748,89.7256342558 455.991978379,100.262598424 C454.128634009,110.799562593 452.098037753,122.296472421 450.086466568,132.805756452
C448.400577374,141.613542381 446.35721494,151.692531363 444.180954757,160.394513675 C442.786346289,165.970987624 440.696116892,173.5903358 438.275442946,178.828731898 C437.358229327,180.813604025 435.145915258,185.301968503 432.369931135,185.301968503
C429.593947011,185.301968503 427.381632943,180.813604025 426.464419324,178.828731898 C424.043745378,173.590335801 421.95351598,165.970987624 420.558907513,160.394513675 C418.38264733,151.692531364 416.339284896,141.613542382 414.653395702,132.805756453
C412.641824516,122.296472422 410.61122826,110.799562593 408.747883891,100.262598425 C406.884539521,89.7256342566 404.853943265,78.2287244279 402.84237208,67.7194403971 C401.156482886,58.911654468 399.113120451,48.8326654861 396.936860269,40.1306831745
C395.542251801,34.5542092252 393.452022403,26.934861049 391.031348458,21.6964649516 C390.114134839,19.7115928248 387.90182077,15.2232283462 385.125836647,15.2232283462 C382.349852523,15.2232283462 380.137538455,19.7115928247 379.220324836,21.6964649515
C376.79965089,26.9348610488 374.709421492,34.5542092251 373.314813025,40.1306831743 C371.138552842,48.8326654859 369.095190408,58.9116544678 367.409301214,67.7194403969 C365.397730028,78.2287244277 363.367133772,89.7256342563 361.503789403,100.262598425
C359.640445033,110.799562593 357.609848777,122.296472422 355.598277592,132.805756453 C353.912388398,141.613542382 351.869025963,151.692531364 349.692765781,160.394513675 C348.298157313,165.970987624 346.207927915,173.590335801 343.78725397,178.828731898
C342.87004035,180.813604025 340.657726282,185.301968503 337.881742158,185.301968503 C335.105758035,185.301968503 332.893443967,180.813604025 331.976230347,178.828731898 C329.555556402,173.5903358 327.465327004,165.970987624 326.070718536,160.394513675
C323.894458354,151.692531363 321.851095919,141.613542381 320.165206725,132.805756452 C318.15363554,122.296472421 316.123039284,110.799562593 314.259694914,100.262598424 C312.396350545,89.7256342561 310.365754289,78.2287244274 308.354183103,67.7194403966
C306.668293909,58.9116544676 304.624931475,48.8326654857 302.448671292,40.1306831741 C301.054062825,34.5542092249 298.963833427,26.9348610487 296.543159481,21.6964649514 C295.625945862,19.7115928246 293.413631794,15.2232283461 290.63764767,15.2232283462
C287.861663547,15.2232283463 285.649349478,19.7115928249 284.732135859,21.6964649517 C282.311461914,26.9348610491 280.221232516,34.5542092254 278.826624048,40.1306831747 C276.650363866,48.8326654863 274.607001431,58.9116544683 272.921112237,67.7194403974
C270.909541052,78.2287244282 268.878944796,89.7256342569 267.015600426,100.262598425 C265.152256057,110.799562594 263.121659801,122.296472422 261.110088615,132.805756453 C259.424199421,141.613542382 257.380836987,151.692531364 255.204576804,160.394513675
C253.809968337,165.970987625 251.719738939,173.590335801 249.299064993,178.828731898 C248.381851374,180.813604025 246.169537306,185.301968503 243.393553182,185.301968503 C240.617569059,185.301968503 238.40525499,180.813604024 237.488041371,178.828731898
C235.067367425,173.5903358 232.977138028,165.970987624 231.58252956,160.394513675 C229.406269377,151.692531363 227.362906943,141.613542381 225.677017749,132.805756452 C223.665446564,122.296472421 221.634850308,110.799562592 219.771505938,100.262598424"/>
      <polyline
          style="fill:none;stroke-width:2;marker-start:url(#583FA61A_start_arrow);marker-end:url(#583FA61A_end_arrow)"
          id="583FA61A"
          points="531.58252956,1.05 531.58252956,199.475196851 744.180954757,199.475196851"/>
      <polyline
          style="fill:none;stroke-width:2;marker-start:url(#583FA61A_start_arrow);marker-end:url(#583FA61A_end_arrow)"
          id="C953902A"
          points="219.771505938,1.05 219.771505938,199.475196851 517.409301214,199.475196851"/>
      <text
          id="203AB72A"
          style="stroke:none"
          font-family="Cambria Math"
          font-size="18"
          font-weight="normal"
          font-style="normal">
         <tspan x="229.161805006" y="20.4068547591">E(t)</tspan>
      </text>
      <text
          id="25330A2A"
          style="stroke:none"
          font-family="Cambria Math"
          font-size="18"
          font-weight="normal"
          font-style="normal">
         <tspan x="544.802785578" y="20.8920761281">P(ω)</tspan>
      </text>
      <text
          id="E24F5B2A"
          style="stroke:none"
          font-family="Cambria Math"
          font-size="18"
          font-weight="normal"
          font-style="normal">
         <tspan x="720.834498064" y="216.475196851">ω</tspan>
      </text>
      <text
          id="F6FEEB2A"
          style="stroke:none"
          font-family="Cambria Math"
          font-size="18"
          font-weight="normal"
          font-style="normal">
         <tspan x="610.552783867" y="215.305818949">ω</tspan>
      </text>
      <text
          id="91FE2C2A"
          style="stroke:none"
          font-family="Cambria Math"
          font-size="18"
          font-weight="normal"
          font-style="normal">
         <tspan x="492.383063717" y="219.992848499">t</tspan>
      </text>
      <text
          id="16E15C2A"
          style="stroke:none"
          font-family="Cambria Math"
          font-size="12"
          font-weight="normal"
          font-style="normal">
         <tspan x="625.86046575" y="221.637393638">gyr</tspan>
      </text>
      <line
          style="fill:none;marker-end:url(#4B6B9F2A_end_arrow)"
          id="4B6B9F2A"
          x1="31.1035087631"
          y1="62.9177209727"
          x2="86.085887844"
          y2="90.9326423877"/>
      <text
          id="4B45613A"
          style="stroke:none"
          font-family="Cambria Math"
          font-size="18"
          font-weight="normal"
          font-style="normal">
         <tspan x="64.5294074762" y="77.1532333622">a</tspan>
      </text>
      <circle
          id="8D1AFC6A"
          cx="106.333133774"
          cy="100.199148379"
          r="4.056657447382"/>
      <line
          style="fill:#EBFFED;stroke:#666666;stroke-dasharray:10,10;marker-end:url(#EE1F9F6A_end_arrow)"
          id="EE1F9F6A"
          x1="172.624792986"
          y1="44.4488005518"
          x2="277.676867139"
          y2="44.9010830496"/>
      <line
          style="fill:#EBFFED;stroke:#666666;stroke-dasharray:10,10;marker-end:url(#EE1F9F6A_end_arrow)"
          id="2F36F17A"
          x1="187.390649865"
          y1="74.3812319729"
          x2="271.783234535"
          y2="74.3812319729"/>
      <line
          style="fill:#EBFFED;stroke:#666666;stroke-dasharray:10,10;marker-end:url(#EE1F9F6A_end_arrow)"
          id="6952B37A"
          x1="192.917735121"
          y1="108.12525035"
          x2="265.520504741"
          y2="108.12525035"/>
      <line
          style="fill:#EBFFED;stroke:#666666;stroke-dasharray:10,10;marker-end:url(#EE1F9F6A_end_arrow)"
          id="3B9B857A"
          x1="183.858345383"
          y1="139.849198246"
          x2="259.734009738"
          y2="139.849198246"/>
      <g
          id="DA749FF9_arrowsAlong">
         <path
             style="fill:none;stroke-width:3"
             id="DA749FF9"
             d="M191.425049244,100.262598425 C191.431202313,89.1299964266 189.217759677,78.0022688496 184.951812639,67.7194403971 C180.697234989,57.43190259 174.393883658,47.9982706635 166.517594416,40.1306831746 C158.650006927,32.254393933 149.216375001,25.9510426017 138.928837194,21.6964649517
C128.646008741,17.430517914 117.518281164,15.2170752781 106.385679166,15.2232283464 C95.2530771677,15.2170752781 84.1253495907,17.430517914 73.8425211382,21.6964649517 C63.5549833311,25.9510426017 54.1213514046,32.254393933 46.2537639156,40.1306831746
C38.3774746741,47.9982706635 32.0741233428,57.43190259 27.8195456928,67.7194403971 C23.5535986551,78.0022688496 21.3401560192,89.1299964266 21.3463090875,100.262598425 C21.3401560192,111.395200423 23.5535986551,122.522928 27.8195456928,132.805756453
C32.0741233428,143.09329426 38.3774746741,152.526926186 46.2537639156,160.394513675 C54.1213514046,168.270802917 63.5549833311,174.574154248 73.8425211382,178.828731898 C84.1253495907,183.094678936 95.2530771677,185.308121572 106.385679166,185.301968503
C117.518281164,185.308121572 128.646008741,183.094678936 138.928837194,178.828731898 C149.216375001,174.574154248 158.650006927,168.270802917 166.517594416,160.394513675 C174.393883658,152.526926186 180.697234989,143.09329426 184.951812639,132.805756453
C189.217759677,122.522928 191.431202313,111.395200423 191.425049244,100.262598425 z"/>
         <path
             id="DA749FF9_endVertex_0"
             style="stroke-width:0.75"
             d="M184.365525806,66.3062285413 L192.576960722,75.2574995796 L184.902083779,78.4415086011 z"/>
         <path
             id="DA749FF9_endVertex_1"
             style="stroke-width:0.75"
             d="M165.435123247,39.0494079236 L176.447003024,44.1769239273 L170.574808803,50.0556129452 z"/>
         <path
             id="DA749FF9_endVertex_2"
             style="stroke-width:0.75"
             d="M137.514978112,21.1117406607 L149.650843876,21.6348837994 L146.475320715,29.3132757011 z"/>
         <path
             id="DA749FF9_endVertex_3"
             style="stroke-width:0.75"
             d="M104.8556794,15.2240739881 L116.2679556,11.0632004612 L116.272548115,19.3723296844 z"/>
         <path
             id="DA749FF9_endVertex_4"
             style="stroke-width:0.75"
             d="M72.4293092824,22.2827517849 L81.3805803207,14.0713168684 L84.5645893422,21.7461938114 z"/>
         <path
             id="DA749FF9_endVertex_5"
             style="stroke-width:0.75"
             d="M45.1724886647,41.2131543435 L50.3000046684,30.2012745667 L56.1786936863,36.0734687878 z"/>
         <path
             id="DA749FF9_endVertex_6"
             style="stroke-width:0.75"
             d="M27.2348214018,69.133299479 L27.7579645405,56.9974337149 L35.4363564421,60.1729568756 z"/>
         <path
             id="DA749FF9_endVertex_7"
             style="stroke-width:0.75"
             d="M21.3471547292,101.792598191 L17.1862812023,90.3803219905 L25.4954104255,90.3757294757 z"/>
         <path
             id="DA749FF9_endVertex_8"
             style="stroke-width:0.75"
             d="M28.405832526,134.218968308 L20.1943976095,125.26769727 L27.8692745525,122.083688249 z"/>
         <path
             id="DA749FF9_endVertex_9"
             style="stroke-width:0.75"
             d="M47.3362350846,161.475788926 L36.3243553078,156.348272922 L42.1965495289,150.469583905 z"/>
         <path
             id="DA749FF9_endVertex_10"
             style="stroke-width:0.75"
             d="M75.2563802201,179.413456189 L63.120514456,178.89031305 L66.2960376167,171.211921149 z"/>
         <path
             id="DA749FF9_endVertex_11"
             style="stroke-width:0.75"
             d="M107.915678932,185.301122862 L96.5034027316,189.461996389 L96.4988102168,181.152867165 z"/>
         <path
             id="DA749FF9_endVertex_12"
             style="stroke-width:0.75"
             d="M140.34204905,178.242445065 L131.390778011,186.453879981 L128.20676899,178.779003038 z"/>
         <path
             id="DA749FF9_endVertex_13"
             style="stroke-width:0.75"
             d="M167.598869667,159.312042506 L162.471353664,170.323922283 L156.592664646,164.451728062 z"/>
         <path
             id="DA749FF9_endVertex_14"
             style="stroke-width:0.75"
             d="M185.53653693,131.391897371 L185.013393791,143.527763135 L177.33500189,140.352239974 z"/>
         <path
             id="DA749FF9_endVertex_15"
             style="stroke-width:0.75"
             d="M191.424203603,98.7325986586 L195.58507713,110.144874859 L187.275947906,110.149467374 z"/>
         <path
             id="DA749FF9_endVertex_17"
             style="stroke-width:0.75"
             d="M191.424203603,98.7325986586 L195.58507713,110.144874859 L187.275947906,110.149467374 z"/>
         <path
             id="DA749FF9_endClosed"
             style="stroke-width:0.75"
             d="M191.424203603,98.7325986586 L195.58507713,110.144874859 L187.275947906,110.149467374 z"/>
      </g>
      <path
          style="fill:#EBFFED;stroke-dasharray:4,4"
          id="27400F5A"
          d="M58.4063755885,27.9730979149 C40.1180801935,14.4170953424 20.4865776134,36.4658835791 31.5219468742,61.4122499597 C42.8193387563,86.9509401818 28.8426751804,109.981747335 6.997781926516,93.3565542512 C-8.208942909447,81.7833808951 4.724533669311,55.9158250824 31.5219468742,61.4122499597
C59.097104548,67.0681982214 77.3254103104,43.9764284418 58.4063755881,27.973097915"/>
      <circle
          id="A8A06E2A"
          cx="30.8719310897"
          cy="61.6885629178"
          r="8.3359025661"/>
      <text
          id="5A4CC67A"
          style="fill:#A9A9A9;stroke:none"
          font-family="Helvetica Neue"
          font-size="9"
          font-weight="normal"
          font-style="normal">
         <tspan x="25.1980367793" y="207.658017371">J. A. Aguilar 2018</tspan>
      </text>
   </g>
</svg>
