<?xml version="1.0" encoding="UTF-8"?>
<!-- Created with EazyDraw for Mac ( http://www.eazydraw.com/ ) -->

<svg
    version="1.1"
    xmlns:dc="http://purl.org/dc/elements/1.1/"
    xmlns:cc="http://creativecommons.org/ns#"
    xmlns:rdf="http://www.w3.org/1999/02/22-rdf-syntax-ns#"
    xmlns:svg="http://www.w3.org/2000/svg"
    xmlns:xlink="http://www.w3.org/1999/xlink"
    xmlns="http://www.w3.org/2000/svg"
    width="765.775485275"
    height="247.486588545"
    viewBox="0, 0, 765.775485275, 247.486588545"
    preserveAspectRatio="none"
    id="svg2">
   <defs
       id="defs_133D73B9">
      <marker
          orient="auto"
          refX="0.0"
          refY="0.0"
          id="583FA61A_start_arrow"
          style="overflow:visible"
          markerUnits="userSpaceOnUse">
         <path
             id="583FA61A_start_arrow_path"
             style="fill:#000000;fill-opacity:1;stroke:#000000;stroke-opacity:1;fill-rule:nonzero;stroke-linecap:square;stroke-linejoin:miter;stroke-width:0.5;stroke-miterlimit:10"
             d="M0,0 L13.3184780899,-4.847529590457 C8.87809749474,-3.231363224999 8.87809749474,3.231363224999 13.3184780899,4.847529590457 z"/>
      </marker>
      <marker
          orient="auto"
          refX="0.0"
          refY="0.0"
          id="583FA61A_end_arrow"
          style="overflow:visible"
          markerUnits="userSpaceOnUse">
         <path
             id="583FA61A_end_arrow_path"
             style="fill:#000000;fill-opacity:1;stroke:#000000;stroke-opacity:1;fill-rule:nonzero;stroke-linecap:square;stroke-linejoin:miter;stroke-width:0.5;stroke-miterlimit:10"
             d="M0,0 L-13.3184780899,4.847529590457 C-8.87809749474,3.231363224999 -8.87809749474,-3.231363224999 -13.3184780899,-4.847529590457 z"/>
      </marker>
      <marker
          orient="auto"
          refX="0.0"
          refY="0.0"
          id="4B6B9F2A_end_arrow"
          style="overflow:visible"
          markerUnits="userSpaceOnUse">
         <path
             id="4B6B9F2A_end_arrow_path"
             style="fill:#000000;fill-opacity:1;stroke:#000000;stroke-opacity:1;fill-rule:nonzero;stroke-linecap:square;stroke-linejoin:miter;stroke-width:0.25;stroke-miterlimit:10"
             d="M0,0 L-7.517540966287,2.736161146605 L-7.517540966287,-2.736161146605 z"/>
      </marker>
   </defs>
   <metadata
       id="metadata7">
      <rdf:RDF>
         <cc:Work
             rdf:about="">
            <dc:format>image/svg+xml</dc:format>
            <dc:type rdf:resource="http://purl.org/dc/dcmitype/StillImage"/>
            <dc:title></dc:title>
         </cc:Work>
      </rdf:RDF>
   </metadata>
   <g
       id="layer_Paper"
       style="fill:#000000;fill-opacity:1;stroke:#000000;stroke-opacity:1;fill-rule:nonzero;stroke-linecap:square;stroke-linejoin:miter;stroke-width:1;stroke-miterlimit:10">
      <line
          style="fill:none;stroke-linecap:butt;stroke-width:3;stroke-dasharray:4,4"
          id="6976F81A"
          x1="599.88544066"
          y1="71.9161417317"
          x2="599.88544066"
          y2="199.475196851"/>
      <path
          style="fill:none;stroke:#0F80FF;stroke-linecap:butt;stroke-width:3"
          id="4D70A60A"
          d="M486.499613889,100.262598426 C484.636269519,89.7256342571 482.605673263,78.2287244285 480.594102078,67.7194403976 C478.908212884,58.9116544685 476.864850449,48.8326654865 474.688590267,40.1306831749 C473.293981799,34.5542092256 471.203752401,26.9348610492 468.783078456,21.6964649518
C467.865864837,19.711592825 465.653550768,15.2232283463 462.877566645,15.2232283462 C460.101582521,15.2232283461 457.889268453,19.7115928245 456.972054834,21.6964649513 C454.551380888,26.9348610485 452.46115149,34.5542092248 451.066543023,40.1306831739
C448.89028284,48.8326654855 446.846920406,58.9116544674 445.161031212,67.7194403964 C443.149460026,78.2287244272 441.11886377,89.7256342558 439.255519401,100.262598424 C437.392175031,110.799562593 435.361578775,122.296472421 433.35000759,132.805756452
C431.664118396,141.613542381 429.620755961,151.692531363 427.444495779,160.394513675 C426.049887311,165.970987624 423.959657913,173.5903358 421.538983968,178.828731898 C420.621770348,180.813604025 418.40945628,185.301968503 415.633472156,185.301968503
C412.857488033,185.301968503 410.645173965,180.813604025 409.727960345,178.828731898 C407.3072864,173.590335801 405.217057002,165.970987624 403.822448534,160.394513675 C401.646188352,151.692531364 399.602825917,141.613542382 397.916936723,132.805756453
C395.905365538,122.296472422 393.874769282,110.799562593 392.011424912,100.262598425 C390.148080543,89.7256342566 388.117484287,78.2287244279 386.105913101,67.7194403971 C384.420023907,58.911654468 382.376661473,48.8326654861 380.20040129,40.1306831745
C378.805792823,34.5542092252 376.715563425,26.934861049 374.294889479,21.6964649516 C373.37767586,19.7115928248 371.165361792,15.2232283462 368.389377668,15.2232283462 C365.613393545,15.2232283462 363.401079476,19.7115928247 362.483865857,21.6964649515
C360.063191912,26.9348610488 357.972962514,34.5542092251 356.578354046,40.1306831743 C354.402093863,48.8326654859 352.358731429,58.9116544678 350.672842235,67.7194403969 C348.66127105,78.2287244277 346.630674794,89.7256342563 344.767330424,100.262598425
C342.903986055,110.799562593 340.873389799,122.296472422 338.861818613,132.805756453 C337.175929419,141.613542382 335.132566985,151.692531364 332.956306802,160.394513675 C331.561698335,165.970987624 329.471468937,173.590335801 327.050794991,178.828731898
C326.133581372,180.813604025 323.921267304,185.301968503 321.14528318,185.301968503 C318.369299057,185.301968503 316.156984988,180.813604025 315.239771369,178.828731898 C312.819097423,173.5903358 310.728868026,165.970987624 309.334259558,160.394513675
C307.157999375,151.692531363 305.114636941,141.613542381 303.428747747,132.805756452 C301.417176562,122.296472421 299.386580306,110.799562593 297.523235936,100.262598424 C295.659891567,89.7256342561 293.629295311,78.2287244274 291.617724125,67.7194403966
C289.931834931,58.9116544676 287.888472497,48.8326654857 285.712212314,40.1306831741 C284.317603846,34.5542092249 282.227374449,26.9348610487 279.806700503,21.6964649514 C278.889486884,19.7115928246 276.677172816,15.2232283461 273.901188692,15.2232283462
C271.125204568,15.2232283463 268.9128905,19.7115928249 267.995676881,21.6964649517 C265.575002935,26.9348610491 263.484773537,34.5542092254 262.09016507,40.1306831747 C259.913904887,48.8326654863 257.870542453,58.9116544683 256.184653259,67.7194403974
C254.173082073,78.2287244282 252.142485817,89.7256342569 250.279141448,100.262598425 C248.415797078,110.799562594 246.385200822,122.296472422 244.373629637,132.805756453 C242.687740443,141.613542382 240.644378009,151.692531364 238.468117826,160.394513675
C237.073509358,165.970987625 234.983279961,173.590335801 232.562606015,178.828731898 C231.645392396,180.813604025 229.433078327,185.301968503 226.657094204,185.301968503 C223.88111008,185.301968503 221.668796012,180.813604024 220.751582393,178.828731898
C218.330908447,173.5903358 216.240679049,165.970987624 214.846070582,160.394513675 C212.669810399,151.692531363 210.626447965,141.613542381 208.940558771,132.805756452 C206.928987585,122.296472421 204.898391329,110.799562592 203.03504696,100.262598424"/>
      <polyline
          style="fill:none;stroke-width:2;marker-start:url(#583FA61A_start_arrow);marker-end:url(#583FA61A_end_arrow)"
          id="583FA61A"
          points="514.846070581,1.05 514.846070581,199.475196851 727.444495778,199.475196851"/>
      <polyline
          style="fill:none;stroke-width:2;marker-start:url(#583FA61A_start_arrow);marker-end:url(#583FA61A_end_arrow)"
          id="C953902A"
          points="203.035046959,1.05 203.035046959,199.475196851 500.672842235,199.475196851"/>
      <text
          id="203AB72A"
          style="stroke:none"
          font-family="Cambria Math"
          font-size="18"
          font-weight="normal"
          font-style="normal">
         <tspan x="212.425346027" y="20.4068547591">E(t)</tspan>
      </text>
      <text
          id="25330A2A"
          style="stroke:none"
          font-family="Cambria Math"
          font-size="18"
          font-weight="normal"
          font-style="normal">
         <tspan x="528.066326599" y="20.8920761281">P(ω)</tspan>
      </text>
      <text
          id="E24F5B2A"
          style="stroke:none"
          font-family="Cambria Math"
          font-size="18"
          font-weight="normal"
          font-style="normal">
         <tspan x="704.098039085" y="216.475196851">ω</tspan>
      </text>
      <text
          id="F6FEEB2A"
          style="stroke:none"
          font-family="Cambria Math"
          font-size="18"
          font-weight="normal"
          font-style="normal">
         <tspan x="593.816324888" y="215.305818949">ω</tspan>
      </text>
      <text
          id="91FE2C2A"
          style="stroke:none"
          font-family="Cambria Math"
          font-size="18"
          font-weight="normal"
          font-style="normal">
         <tspan x="475.646604738" y="219.992848499">t</tspan>
      </text>
      <text
          id="16E15C2A"
          style="stroke:none"
          font-family="Cambria Math"
          font-size="12"
          font-weight="normal"
          font-style="normal">
         <tspan x="609.124006771" y="221.637393638">gyr</tspan>
      </text>
      <text
          id="4B45613A"
          style="stroke:none"
          font-family="Cambria Math"
          font-size="18"
          font-weight="normal"
          font-style="normal">
         <tspan x="51.7031574801" y="135.731077673">a</tspan>
      </text>
      <circle
          id="8D1AFC6A"
          cx="89.5966747966"
          cy="100.199148379"
          r="4.056657447382"/>
      <g
          id="DA749FF9_arrowsAlong">
         <path
             style="fill:none;stroke-width:3"
             id="DA749FF9"
             d="M174.688590266,100.262598425 C174.694743334,89.1299964266 172.481300698,78.0022688496 168.215353661,67.7194403971 C163.960776011,57.43190259 157.657424679,47.9982706635 149.781135438,40.1306831746 C141.913547949,32.254393933 132.479916023,25.9510426017 122.192378215,21.6964649517
C111.909549763,17.430517914 100.781822186,15.2170752781 89.6492201876,15.2232283464 C78.5166181894,15.2170752781 67.3888906123,17.430517914 57.1060621598,21.6964649517 C46.8185243528,25.9510426017 37.3848924262,32.254393933 29.5173049373,40.1306831746
C21.6410156958,47.9982706635 15.3376643645,57.43190259 11.0830867145,67.7194403971 C6.817139676779,78.0022688496 4.603697040874,89.1299964266 4.609850109136,100.262598425 C4.603697040874,111.395200423 6.817139676779,122.522928 11.0830867145,132.805756453
C15.3376643645,143.09329426 21.6410156958,152.526926186 29.5173049373,160.394513675 C37.3848924262,168.270802917 46.8185243528,174.574154248 57.1060621598,178.828731898 C67.3888906123,183.094678936 78.5166181894,185.308121572 89.6492201876,185.301968503
C100.781822186,185.308121572 111.909549763,183.094678936 122.192378215,178.828731898 C132.479916023,174.574154248 141.913547949,168.270802917 149.781135438,160.394513675 C157.657424679,152.526926186 163.960776011,143.09329426 168.215353661,132.805756453
C172.481300698,122.522928 174.694743334,111.395200423 174.688590266,100.262598425 z"/>
         <path
             id="DA749FF9_endVertex_0"
             style="stroke-width:0.75"
             d="M167.629066828,66.3062285413 L175.840501744,75.2574995796 L168.165624801,78.4415086011 z"/>
         <path
             id="DA749FF9_endVertex_1"
             style="stroke-width:0.75"
             d="M148.698664269,39.0494079236 L159.710544046,44.1769239273 L153.838349825,50.0556129452 z"/>
         <path
             id="DA749FF9_endVertex_2"
             style="stroke-width:0.75"
             d="M120.778519134,21.1117406607 L132.914384898,21.6348837994 L129.738861737,29.3132757011 z"/>
         <path
             id="DA749FF9_endVertex_3"
             style="stroke-width:0.75"
             d="M88.1192204213,15.2240739881 L99.531496622,11.0632004612 L99.5360891368,19.3723296844 z"/>
         <path
             id="DA749FF9_endVertex_4"
             style="stroke-width:0.75"
             d="M55.6928503041,22.2827517849 L64.6441213423,14.0713168684 L67.8281303639,21.7461938114 z"/>
         <path
             id="DA749FF9_endVertex_5"
             style="stroke-width:0.75"
             d="M28.4360296863,41.2131543435 L33.5635456901,30.2012745667 L39.4422347079,36.0734687878 z"/>
         <path
             id="DA749FF9_endVertex_6"
             style="stroke-width:0.75"
             d="M10.4983624235,69.133299479 L11.0215055621,56.9974337149 L18.6998974638,60.1729568756 z"/>
         <path
             id="DA749FF9_endVertex_7"
             style="stroke-width:0.75"
             d="M4.610695750882,101.792598191 L0.449822223926,90.3803219905 L8.758951447165,90.3757294757 z"/>
         <path
             id="DA749FF9_endVertex_8"
             style="stroke-width:0.75"
             d="M11.6693735476,134.218968308 L3.457938631139,125.26769727 L11.1328155742,122.083688249 z"/>
         <path
             id="DA749FF9_endVertex_9"
             style="stroke-width:0.75"
             d="M30.5997761063,161.475788926 L19.5878963294,156.348272922 L25.4600905506,150.469583905 z"/>
         <path
             id="DA749FF9_endVertex_10"
             style="stroke-width:0.75"
             d="M58.5199212418,179.413456189 L46.3840554776,178.89031305 L49.5595786383,171.211921149 z"/>
         <path
             id="DA749FF9_endVertex_11"
             style="stroke-width:0.75"
             d="M91.1792199539,185.301122862 L79.7669437532,189.461996389 L79.7623512385,181.152867165 z"/>
         <path
             id="DA749FF9_endVertex_12"
             style="stroke-width:0.75"
             d="M123.605590071,178.242445065 L114.654319033,186.453879981 L111.470310011,178.779003038 z"/>
         <path
             id="DA749FF9_endVertex_13"
             style="stroke-width:0.75"
             d="M150.862410689,159.312042506 L145.734894685,170.323922283 L139.856205667,164.451728062 z"/>
         <path
             id="DA749FF9_endVertex_14"
             style="stroke-width:0.75"
             d="M168.800077952,131.391897371 L168.276934813,143.527763135 L160.598542911,140.352239974 z"/>
         <path
             id="DA749FF9_endVertex_15"
             style="stroke-width:0.75"
             d="M174.687744624,98.7325986586 L178.848618151,110.144874859 L170.539488928,110.149467374 z"/>
         <path
             id="DA749FF9_endVertex_17"
             style="stroke-width:0.75"
             d="M174.687744624,98.7325986586 L178.848618151,110.144874859 L170.539488928,110.149467374 z"/>
         <path
             id="DA749FF9_endClosed"
             style="stroke-width:0.75"
             d="M174.687744624,98.7325986586 L178.848618151,110.144874859 L170.539488928,110.149467374 z"/>
      </g>
      <g
          id="97E0FBBE"
          transform="matrix(0.04178421782,-0.999126658208,0.999126658208,0.04178421782,-114.567154127,201.136844478)">
         <line
             style="fill:none;marker-end:url(#4B6B9F2A_end_arrow)"
             id="4B6B9F2A"
             x1="35.3795189566"
             y1="161.800521778"
             x2="90.3618980372"
             y2="189.815443193"/>
         <path
             style="fill:#EBFFED;stroke-dasharray:4,4"
             id="27400F5A"
             d="M62.6823857821,126.85589872 C44.394090387,113.299896147 24.762587807,135.348684384 35.7979570677,160.295050765 C47.0953489498,185.833740987 33.1186853739,208.864548141 11.27379212,192.239355057 C-3.932932715964,180.6661817 9.000543862836,154.798625888 35.7979570677,160.295050765
C63.3731147416,165.950999027 81.6014205042,142.859229247 62.6823857816,126.85589872"/>
         <circle
             id="A8A06E2A"
             cx="35.1479412832"
             cy="160.571363723"
             r="8.3359025661"/>
      </g>
      <text
          id="5A4CC67A"
          style="fill:#A9A9A9;stroke:none"
          font-family="Helvetica Neue"
          font-size="9"
          font-weight="normal"
          font-style="normal">
         <tspan x="211.504737198" y="213.966903506">J. A. Aguilar 2018</tspan>
      </text>
   </g>
</svg>
