<?xml version="1.0" encoding="UTF-8"?>
<!-- Created with EazyDraw for Mac ( http://www.eazydraw.com/ ) -->

<svg
    version="1.1"
    xmlns:dc="http://purl.org/dc/elements/1.1/"
    xmlns:cc="http://creativecommons.org/ns#"
    xmlns:rdf="http://www.w3.org/1999/02/22-rdf-syntax-ns#"
    xmlns:svg="http://www.w3.org/2000/svg"
    xmlns:xlink="http://www.w3.org/1999/xlink"
    xmlns="http://www.w3.org/2000/svg"
    width="273.759842522"
    height="251.433070866"
    viewBox="0, 0, 273.759842522, 251.433070866"
    preserveAspectRatio="none"
    id="svg2">
   <defs
       id="defs_EC6C4F9A">
      <marker
          orient="auto"
          refX="0.0"
          refY="0.0"
          id="83EA566A_end_arrow"
          style="overflow:visible"
          markerUnits="userSpaceOnUse">
         <path
             id="83EA566A_end_arrow_path"
             style="fill:#074080;fill-opacity:1;stroke:#074080;stroke-opacity:1;fill-rule:nonzero;stroke-linecap:round;stroke-linejoin:miter;stroke-width:0.496062992126;stroke-miterlimit:10"
             d="M0,0 L-12.2160040702,4.446261863234 C-8.143188313207,2.963878158032 -8.143188313207,-2.963878158032 -12.2160040702,-4.446261863234 z"/>
      </marker>
   </defs>
   <metadata
       id="metadata7">
      <rdf:RDF>
         <cc:Work
             rdf:about="">
            <dc:format>image/svg+xml</dc:format>
            <dc:type rdf:resource="http://purl.org/dc/dcmitype/StillImage"/>
            <dc:title></dc:title>
         </cc:Work>
      </rdf:RDF>
   </metadata>
   <g
       id="layer_Paper"
       style="fill:#000000;fill-opacity:1;stroke:#000000;stroke-opacity:1;fill-rule:nonzero;stroke-linecap:square;stroke-linejoin:miter;stroke-width:1;stroke-miterlimit:10">
      <line
          style="fill:none;stroke-dasharray:4,4"
          id="9E14FA8A"
          x1="0.5"
          y1="114.377952756"
          x2="261.287401575"
          y2="114.377952756"/>
      <line
          style="fill:none;stroke-dasharray:4,4"
          id="C8A5FC8A"
          x1="0.500000000154"
          y1="57.6850393701"
          x2="261.287401575"
          y2="57.6850393701"/>
      <line
          style="fill:none;stroke-dasharray:4,4"
          id="7DA80D8A"
          x1="0.5"
          y1="227.763779528"
          x2="261.287401575"
          y2="227.763779528"/>
      <line
          style="fill:none;stroke-dasharray:4,4"
          id="267D7D8A"
          x1="0.5"
          y1="171.070866142"
          x2="261.287401575"
          y2="171.070866142"/>
      <line
          style="fill:none;stroke:#074080;stroke-linecap:round;stroke-width:1.984251968504;marker-end:url(#83EA566A_end_arrow)"
          id="83EA566A"
          x1="113.885826772"
          y1="0.992125984252"
          x2="113.885826772"
          y2="57.6850393701"/>
      <path
          style="fill:none;stroke:#0F80FF;stroke-linecap:round;stroke-width:0.869471294673"
          id="3D5C3A6A"
          d="M112.623748601,57.6850393701 C112.669985508,58.0272041672 112.704172295,58.3941845622 112.695817886,58.7398463411 C112.688922157,59.0251555732 112.652685268,59.3239426449 112.552884745,59.5930842539 C112.465708091,59.8281818659 112.333558479,60.0317755658 112.141135374,60.1943015962
C111.940952013,60.3633821598 111.700005434,60.4672312828 111.448127469,60.5318334594 C111.146160044,60.6092826832 110.815375166,60.633271805 110.504705124,60.6345967972 C110.136400488,60.6361675982 109.746344917,60.6056505934 109.380251852,60.5676400334
C108.985525668,60.5266565659 108.565764781,60.4709871133 108.17201228,60.4221319449 C107.786342581,60.3742796568 107.378022502,60.3267461126 106.990125962,60.3013305562 C106.648130931,60.2789225347 106.282248285,60.2707921286 105.940676616,60.3046914681
C105.659036941,60.3326428464 105.367091762,60.3915133807 105.109365578,60.5125613893 C104.882807219,60.618970594 104.692997067,60.7683544021 104.548322146,60.9738125745 C104.396605081,61.1892715542 104.312766201,61.4406760016 104.268080747,61.6983212607
C104.214355921,62.008085301 104.214883246,62.3427816475 104.235959668,62.6554476895 C104.260867907,63.0249582554 104.318311805,63.4139953395 104.381090849,63.7787516432 C104.448627169,64.1711484824 104.531282715,64.5850412947 104.605326659,64.9762177626
C104.67735467,65.3567439961 104.749936562,65.7600608305 104.798345065,66.1444169436 C104.840850311,66.4819021101 104.869979867,66.8440625007 104.85462847,67.184424338 C104.841980417,67.4648492753 104.79829058,67.7562699446 104.689703142,68.0170441377
C104.593617277,68.247795637 104.452048414,68.4422770069 104.253139931,68.5949980105 C104.042886403,68.7564296868 103.792918283,68.8523471226 103.536315445,68.9102013544 C103.227035224,68.979932343 102.889809192,68.9980670894 102.573739211,68.9950075387
C102.201422719,68.991403523 101.807681793,68.95745896 101.437742571,68.9172286387 C101.04067268,68.8740478988 100.623788738,68.8181488911 100.22734671,68.7696989854 C99.8443284944,68.7228896284 99.4384039921,68.6775918566 99.0530230363,68.6559877271
C98.716005661,68.6370948189 98.3553787557,68.6338062372 98.0196913608,68.6744592758 C97.743254251,68.7079368763 97.4592567343,68.7738609331 97.2105724679,68.9031347749 C96.9890170057,69.0183062176 96.8089179485,69.1765590842 96.6743802275,69.3876844479
C96.5310439312,69.6126171099 96.4556106318,69.8724241262 96.4178244074,70.1343988357 C96.3721839702,70.4508273876 96.3788632312,70.7914629061 96.4045780223,71.1092206662 C96.4347666592,71.4822617529 96.4957444584,71.8746369651 96.5608681498,72.2429863546
C96.630608766,72.6374497651 96.7131665964,73.0483233807 96.7868297687,73.4420704543 C96.8575146388,73.8198977978 96.9275808216,74.2208448649 96.9718752395,74.6027948499 C97.0104566941,74.9354820538 97.0343035687,75.29259701 97.0117140209,75.6273850815
C96.9931153675,75.9030261606 96.9417771535,76.1868605758 96.824403249,76.4390180816 C96.7190986536,76.665246767 96.568001483,76.8506090259 96.3629589505,76.9936454392 C96.1427951658,77.1472303454 95.8839991175,77.2353867665 95.6225869958,77.2867725624
C95.30627694,77.3489496483 94.9628457176,77.3614264655 94.6414209269,77.3541504065 C94.2653898007,77.3456382297 93.8682170544,77.308498987 93.4946531098,77.2662733125 C93.0955189957,77.2211573225 92.6817946637,77.1652921971 92.282962438,77.117529749
C91.9028506426,77.0720091798 91.4995839247,77.0291906711 91.1170195971,77.0116756882 C90.7851018423,76.9964794626 90.4299694776,76.9982415127 90.1004545654,77.0458662994 C89.829126974,77.0850812733 89.5533073113,77.1582387813 89.3139076986,77.2957035226
C89.0975762023,77.4199224085 88.9271863994,77.5871432189 88.8026189747,77.8036007385 C88.6678289601,78.0378217823 88.60061645,78.3058419904 88.5694654472,78.572255242 C88.5317188328,78.8950762549 88.5443373528,79.2414281224 88.5745184591,79.5642331215
C88.6097003823,79.9405248519 88.6739618132,80.335999141 88.741188764,80.7077304331 C88.8128529108,81.1039971919 88.8950355098,81.5115900752 88.9680138056,81.9076240087 C89.0370964516,82.2825172804 89.1043882768,82.6808495248 89.144273061,83.0601111525
C89.1787446381,83.3878989711 89.1970867443,83.7397441523 89.1670282102,84.0686851384 C89.1422671787,84.3396537122 89.0830872862,84.6156859522 88.9569656031,84.8589878398 C88.842156275,85.080467014 88.6814435722,85.2567330058 88.4706028316,85.3902536326
C88.2407161396,85.5358356255 87.9732994559,85.6164046098 87.706980782,85.6615833287 C87.3839253878,85.716386954 87.0345252037,85.723405191 86.707811245,85.7120825627 C86.3283638301,85.6989323991 85.9280150778,85.6588342584 85.5510573656,85.6148433364
C85.1501409905,85.5680564412 84.739851293,85.5124818695 84.3389349178,85.4656949742 C83.9619772057,85.4217040522 83.5616284534,85.3816059115 83.1821810384,85.3684557479 C82.8554670797,85.3571331196 82.5060668956,85.3641513566 82.1830115014,85.418954982
C81.9166928276,85.4641337008 81.6492761439,85.5447026851 81.4193894518,85.690284678 C81.2085487112,85.8238053048 81.0478360084,86.0000712966 80.9330266803,86.2215504709 C80.8069049973,86.4648523584 80.7477251047,86.7408845984 80.7229640732,87.0118531722
C80.6929055391,87.3407941584 80.7112476453,87.6926393395 80.7457192224,88.0204271582 C80.7856040066,88.3996887858 80.8528958318,88.7980210303 80.9219784779,89.1729143019 C80.9952830814,89.5707190215 81.0768203672,89.9747771787 81.1488035194,90.3728078775
C81.2160304702,90.7445391697 81.2802919011,91.1400134587 81.3154738244,91.5163051891 C81.3456549307,91.8391101882 81.3582734506,92.1854620557 81.3205268362,92.5082830687 C81.2893758334,92.7746963202 81.2221633233,93.0427165283 81.0873733087,93.2769375721
C80.962805884,93.4933950918 80.7924160811,93.6606159021 80.5760845849,93.784834788 C80.3366849721,93.9222995294 80.0608653095,93.9954570374 79.789537718,94.0346720112 C79.4600228058,94.0822967979 79.1048904412,94.084058848 78.7729726863,94.0688626225
C78.3904083588,94.0513476396 77.9871416409,94.0085291308 77.6070298454,93.9630085617 C77.2046153101,93.9148171114 76.798026395,93.8597826124 76.3953391737,93.8142649981 C76.021775229,93.7720393236 75.6246024828,93.7349000809 75.2485713565,93.7263879041
C74.9271465658,93.7191118451 74.5837153434,93.7315886623 74.2674052877,93.7937657482 C74.0059931659,93.8451515442 73.7471971176,93.9333079652 73.5270333329,94.0868928714 C73.3219908005,94.2299292847 73.1708936298,94.4152915436 73.0655890344,94.6415202291
C72.94821513,94.8936777348 72.8968769159,95.17751215 72.8782782625,95.4531532291 C72.8556887148,95.7879413006 72.8795355893,96.1450562568 72.918117044,96.4777434608 C72.9624114618,96.8596934457 73.0324776447,97.2606405128 73.1031625147,97.6384678563
C73.1778225323,98.0375433037 73.258452355,98.4378217508 73.3291241337,98.837551956 C73.394247825,99.2059013455 73.4552256243,99.5982765578 73.4854142611,99.9713176444 C73.5111290522,100.289075404 73.5178083133,100.629710923 73.4721678761,100.946139475
C73.4343816516,101.208114184 73.3589483522,101.467921201 73.2156120559,101.692853863 C73.081074335,101.903979226 72.9009752777,102.062232093 72.6794198155,102.177403536 C72.4307355491,102.306677377 72.1467380324,102.372601434 71.8703009226,102.406079035
C71.5346135278,102.446732073 71.1739866224,102.443443492 70.8369692472,102.424550584 C70.4515882914,102.402946454 70.045663789,102.357648682 69.6626455737,102.310839325 C69.2590187771,102.261511356 68.8563876551,102.207259052 68.452249712,102.163309672
C68.0823104904,102.123079351 67.6885695645,102.089134788 67.3162530729,102.085530772 C67.0001830917,102.082471221 66.6629570598,102.100605968 66.3536768386,102.170336956 C66.0970740004,102.228191188 65.8471058804,102.324108624 65.6368523522,102.4855403
C65.4379438694,102.638261304 65.2963750064,102.832742674 65.2002891411,103.063494173 C65.0917017035,103.324268366 65.0480118662,103.615689035 65.0353638131,103.896113973 C65.020012416,104.23647581 65.049141972,104.598636201 65.0916472187,104.936121367
C65.1400557209,105.32047748 65.2126376132,105.723794314 65.2846656245,106.104320548 C65.3603943868,106.504397965 65.4398625617,106.900659757 65.5089014345,107.301786667 C65.5716804789,107.666542971 65.6291243766,108.055580055 65.6540326154,108.425090621
C65.6751090369,108.737756663 65.6756363626,109.07245301 65.6219115363,109.38221705 C65.5772260823,109.639862309 65.4933872029,109.891266756 65.3416701378,110.106725736 C65.1969952165,110.312183909 65.0071850646,110.461567717 64.7806267051,110.567976921
C64.5229005215,110.68902493 64.2309553429,110.747895464 63.9493156674,110.775846843 C63.6077439981,110.809746182 63.2418613521,110.801615776 62.8998663219,110.779207754 C62.5119697815,110.753792198 62.1036497027,110.706258654 61.7179800032,110.658406366
C61.3134282992,110.608211277 60.9150035342,110.554975768 60.5097404315,110.512898277 C60.1436473661,110.474887717 59.7535917951,110.444370712 59.3852871591,110.445941513 C59.0746171173,110.447266506 58.7438322396,110.471255627 58.4418648148,110.548704851
C58.1899868491,110.613307028 57.9490402707,110.717156151 57.7488569096,110.886236714 C57.5564338045,111.048762745 57.424284192,111.252356445 57.3371075387,111.487454057 C57.2373070153,111.756595666 57.2010701262,112.055382737 57.1941743973,112.340691969
C57.1858199887,112.686353748 57.2200067751,113.053334143 57.2662436826,113.395498941"/>
      <line
          style="fill:none;stroke:#074080;stroke-linecap:round;stroke-width:1.984251968504;marker-end:url(#83EA566A_end_arrow)"
          id="86D6DC6A"
          x1="59.4606299213"
          y1="116.645669291"
          x2="85.5393700787"
          y2="171.070866142"/>
      <line
          style="fill:none;stroke:#074080;stroke-linecap:round;stroke-width:1.984251968504;marker-end:url(#83EA566A_end_arrow)"
          id="1A321D6A"
          x1="54.9251968504"
          y1="116.645669291"
          x2="28.8464566929"
          y2="171.070866142"/>
      <line
          style="fill:none;stroke:#074080;stroke-linecap:round;stroke-width:1.984251968504;marker-end:url(#83EA566A_end_arrow)"
          id="B9EABD6A"
          x1="117.287401575"
          y1="58.8188976378"
          x2="170.578740157"
          y2="114.377952756"/>
      <line
          style="fill:none;stroke:#074080;stroke-linecap:round;stroke-width:1.984251968504;marker-end:url(#83EA566A_end_arrow)"
          id="86FE4F6A"
          x1="29.9803149606"
          y1="173.338582677"
          x2="49.2559055118"
          y2="227.763779528"/>
      <line
          style="fill:none;stroke:#074080;stroke-linecap:round;stroke-width:1.984251968504;marker-end:url(#83EA566A_end_arrow)"
          id="3A47007A"
          x1="172.846456693"
          y1="116.645669291"
          x2="198.92519685"
          y2="171.070866142"/>
      <path
          style="fill:none;stroke:#0F80FF;stroke-linecap:round;stroke-width:0.869471294673"
          id="CF42407A"
          d="M168.677273071,115.511811024 C168.858677612,115.760169165 169.047455179,116.039137479 169.18956261,116.312401524 C169.29889323,116.522637731 169.399865215,116.765672416 169.428421984,117.00302806 C169.451867263,117.197898466 169.426393369,117.385272772 169.325413282,117.556167317
C169.218754561,117.736672152 169.046189899,117.867411953 168.864712955,117.965455623 C168.628517066,118.093061429 168.344899324,118.181982311 168.085547099,118.246668329 C167.761888907,118.327393141 167.406051731,118.387243672 167.076154462,118.435291947
C166.714371632,118.487984231 166.322807109,118.534882934 165.960206277,118.581062682 C165.606760275,118.626076499 165.228431642,118.676770805 164.877772942,118.740311908 C164.578018185,118.794628964 164.251754696,118.866472485 163.963766839,118.967296624
C163.742831164,119.04464589 163.506463175,119.151911942 163.327178969,119.305849166 C163.178543165,119.433471023 163.073778437,119.588762745 163.034304969,119.782631299 C162.992139235,119.989722549 163.031775998,120.206051698 163.098542037,120.403030905
C163.185723554,120.660241702 163.332732946,120.922368985 163.478327079,121.150332772 C163.659110303,121.433393823 163.876740241,121.723862167 164.083533365,121.98829111 C164.309634657,122.277409646 164.558969429,122.581023682 164.789341268,122.866707869
C165.012065038,123.142907682 165.248510461,123.440849954 165.455448318,123.729158346 C165.631358474,123.974238559 165.813866653,124.250697587 165.947662103,124.521675087 C166.050050198,124.7290429 166.141580086,124.968064549 166.158552829,125.201053619
C166.172767484,125.396181729 166.134343901,125.577985053 166.02398703,125.741501725 C165.904761962,125.918158476 165.720665019,126.044748887 165.532997874,126.138608933 C165.287304403,126.261490326 164.995872357,126.347311129 164.729472984,126.410025295
C164.400376537,126.487499236 164.040011337,126.545507992 163.705400027,126.592745006 C163.340636578,126.64423859 162.952054222,126.690273802 162.586709571,126.737412897 C162.236369222,126.782616041 161.860997746,126.834515061 161.51389406,126.900530072
C161.220476248,126.956334665 160.900615569,127.030762926 160.620385665,127.135758243 C160.406391575,127.215936615 160.179780403,127.326888239 160.012020742,127.485661058 C159.870043384,127.620032725 159.778541157,127.7803506 159.75075134,127.975153446
C159.720385605,128.188013138 159.771049988,128.409243819 159.845110635,128.607667148 C159.942263454,128.867959039 160.096921812,129.133197106 160.248899641,129.364622562 C160.435670619,129.649029566 160.657689868,129.941242602 160.86829736,130.208288195
C161.097201974,130.498534128 161.344805879,130.799390467 161.576300068,131.087587627 C161.796483401,131.361703411 162.029799462,131.65840337 162.232267506,131.945960309 C162.402471123,132.187693424 162.578430372,132.461525807 162.703567778,132.730066373
C162.798963672,132.934782679 162.880749929,133.169623853 162.885989729,133.397995769 C162.890472167,133.593358725 162.83891178,133.769632856 162.719781311,133.92571833 C162.588119416,134.098222557 162.3928542,134.220764216 162.198845571,134.310782078
C161.943994419,134.429030198 161.645030206,134.511849342 161.371678988,134.572690585 C161.037516603,134.647066895 160.672930205,134.703357817 160.333907743,134.749901328 C159.966519111,134.800339156 159.581269041,134.845653764 159.213570608,134.893906983
C158.866674685,134.939430279 158.49458154,134.992664654 158.151413453,135.061310573 C157.864523554,135.118698836 157.551347619,135.195819513 157.279228102,135.30511412 C157.072048475,135.388326144 156.855533235,135.503051391 156.69956924,135.6665615
C156.564676273,135.807981085 156.486508714,135.973482154 156.469970982,136.168790904 C156.451484615,136.387112802 156.512845881,136.613062847 156.594092232,136.813273814 C156.700901566,137.076478253 156.862935687,137.344703044 157.021153566,137.579588538
C157.213536193,137.865193986 157.43963551,138.159028059 157.653752317,138.428563159 C157.885103188,138.719792891 158.130629154,139.017753353 158.362853085,139.308304193 C158.580164746,139.580197296 158.810030924,139.875527441 159.007646621,140.162183126
C159.171947326,140.400513037 159.341081091,140.671601002 159.457220717,140.937551689 C159.545572597,141.139870604 159.617305384,141.370356499 159.610707934,141.593844555 C159.604937856,141.789305445 159.540108188,141.960133837 159.412809352,142.10882245
C159.268888198,142.276926397 159.062818671,142.39551426 158.862305214,142.481994832 C158.598645704,142.595710019 158.292434966,142.67562842 158.012242651,142.734695384 C157.673388992,142.806128666 157.304892047,142.860827547 156.961771593,142.90679871
C156.592116363,142.956324993 156.210540575,143.001057248 155.840885345,143.050583531 C155.497764891,143.096554693 155.129267946,143.151253575 154.790414287,143.222686857 C154.510221972,143.28175382 154.204011234,143.361672221 153.940351724,143.475387408
C153.739838267,143.56186798 153.53376874,143.680455843 153.389847586,143.84855979 C153.26254875,143.997248403 153.197719082,144.168076795 153.191949004,144.363537685 C153.185351554,144.587025741 153.257084341,144.817511637 153.345436221,145.019830552
C153.461575847,145.285781238 153.630709612,145.556869203 153.795010317,145.795199114 C153.992626014,146.0818548 154.222492192,146.377184944 154.439803853,146.649078047 C154.673240981,146.941146798 154.916351396,147.236075798 155.148904621,147.528819081
C155.363021428,147.798354181 155.589120745,148.092188254 155.781503372,148.377793702 C155.939721251,148.612679196 156.101755372,148.880903988 156.208564706,149.144108426 C156.289811057,149.344319394 156.351172323,149.570269438 156.332685957,149.788591336
C156.316148224,149.983900086 156.237980665,150.149401155 156.103087698,150.29082074 C155.947123703,150.454330849 155.730608463,150.569056096 155.523428836,150.65226812 C155.251309319,150.761562727 154.938133384,150.838683404 154.651243485,150.896071668
C154.308075398,150.964717586 153.935982253,151.017951961 153.58908633,151.063475258 C153.217525809,151.1122353 152.839956551,151.156518821 152.468749195,151.207480912 C152.129726733,151.254024423 151.765140335,151.310315345 151.43097795,151.384691655
C151.157626732,151.445532898 150.858662519,151.528352042 150.603811367,151.646600162 C150.409802738,151.736618024 150.214537522,151.859159684 150.082875627,152.03166391 C149.963745158,152.187749384 149.912184771,152.364023515 149.916667209,152.559386472
C149.921907009,152.787758388 150.003693266,153.022599561 150.09908916,153.227315867 C150.224226566,153.495856433 150.400185815,153.769688816 150.570389432,154.011421931 C150.772857476,154.29897887 151.006173537,154.595678829 151.22635687,154.869794613
C151.461517751,155.162556597 151.701885822,155.454322519 151.934359578,155.749094046 C152.14496707,156.016139638 152.366986319,156.308352675 152.553757297,156.592759678 C152.705735126,156.824185135 152.860393484,157.089423202 152.957546304,157.349715092
C153.03160695,157.548138421 153.082271333,157.769369102 153.051905598,157.982228794 C153.024115781,158.17703164 152.932613554,158.337349516 152.790636196,158.471721182 C152.622876535,158.630494001 152.396265363,158.741445625 152.182271273,158.821623997
C151.902041369,158.926619314 151.58218069,159.001047575 151.288762878,159.056852168 C150.941659192,159.122867179 150.566287716,159.174766199 150.215947367,159.219969344 C149.842845148,159.268109369 149.469604548,159.312072992 149.097256911,159.364637235
C148.762645601,159.411874248 148.402280401,159.469883005 148.073183954,159.547356945 C147.806784581,159.610071111 147.515352535,159.695891914 147.269659064,159.818773308 C147.081991919,159.912633353 146.897894976,160.039223764 146.778669908,160.215880515
C146.668313037,160.379397187 146.629889454,160.561200511 146.644104109,160.756328621 C146.661076852,160.989317691 146.75260674,161.228339341 146.854994835,161.435707153 C146.988790285,161.706684653 147.171298464,161.983143681 147.34720862,162.228223894
C147.554146477,162.516532286 147.7905919,162.814474558 148.01331567,163.090674371 C148.249835731,163.383982969 148.487144891,163.672457101 148.719123573,163.96909113 C148.925916697,164.233520073 149.143546635,164.523988417 149.324329859,164.807049469
C149.469923992,165.035013255 149.616933384,165.297140538 149.704114901,165.554351336 C149.77088094,165.751330542 149.810517703,165.967659691 149.768351969,166.174750941 C149.728878501,166.368619495 149.624113773,166.523911217 149.475477969,166.651533074
C149.296193763,166.805470299 149.059825774,166.91273635 148.838890099,166.990085616 C148.550902242,167.090909755 148.224638753,167.162753277 147.924883996,167.217070332 C147.574225296,167.280611435 147.195896663,167.331305741 146.842450661,167.376319558
C146.468172188,167.423986535 146.099573078,167.467753988 145.726502476,167.522090293 C145.396605207,167.570138568 145.040768031,167.629989099 144.717109839,167.710713911 C144.457757614,167.775399929 144.174139872,167.864320811 143.937943983,167.991926617
C143.756467039,168.089970288 143.583902377,168.220710089 143.477243656,168.401214923 C143.376263569,168.572109468 143.350789675,168.759483774 143.374234954,168.95435418 C143.402791723,169.191709824 143.503763708,169.434744509 143.613094328,169.644980716
C143.755201759,169.918244761 143.943979326,170.197213076 144.125383867,170.445571217"/>
      <path
          style="fill:none;stroke:#0F80FF;stroke-linecap:round;stroke-width:0.869471294673"
          id="6E4DF27A"
          d="M28.1399582186,171.614091958 C27.7824763217,171.680713757 27.3956998109,171.742978517 27.0372021339,171.803549463 C26.6887176371,171.862428605 26.3153305529,171.928117337 25.970379737,172.005345768 C25.676820206,172.071068593 25.3568381654,172.15534345 25.076821162,172.26663688
C24.8637977929,172.35130353 24.6354890691,172.466429126 24.4671908028,172.625422403 C24.3281790798,172.756748351 24.2346397758,172.913262 24.2084557821,173.104697305 C24.1803443238,173.310224606 24.2349375564,173.52072265 24.3135795424,173.708912932
C24.4173154892,173.957153066 24.5807464622,174.207419805 24.7395267391,174.42329194 C24.9373374592,174.692228506 25.1720574794,174.96683339 25.3938864888,175.216102558 C25.6365718144,175.488807959 25.9026595297,175.77425324 26.1490946386,176.043542194
C26.3866659272,176.303145316 26.6394445999,176.583853293 26.8620662114,176.856478762 C27.050436274,177.087159317 27.2479082224,177.349124429 27.3962165462,177.608012236 C27.5087458581,177.804444007 27.6133063245,178.033760905 27.6424820231,178.260692678
C27.6668398395,178.450150437 27.6377898295,178.62864235 27.5361052301,178.792283886 C27.4256509312,178.970038544 27.2474615869,179.100836915 27.0666012929,179.199185596 C26.8274582049,179.329227445 26.5408502255,179.424973679 26.2793715234,179.496987571
C25.9553566552,179.586224558 25.5992129511,179.657928755 25.2687160432,179.718070302 C24.9082462157,179.783666114 24.5244861471,179.844971311 24.163320756,179.906621566 C23.8180190307,179.965563922 23.44768527,180.03231822 23.1064522613,180.111835812
C22.8193701856,180.178734602 22.5059293996,180.265271446 22.2339087627,180.380343017 C22.0279742739,180.467458486 21.8096124783,180.585771193 21.6531203806,180.749032211 C21.521021945,180.886844442 21.4411312841,181.047743973 21.4266153844,181.23937416
C21.4106611683,181.449992136 21.476478184,181.664796446 21.5623969343,181.854116967 C21.6762005008,182.104881211 21.8473624205,182.357824228 22.0127113743,182.576863125 C22.2164967415,182.846819003 22.4556347727,183.12291779 22.6813976408,183.374593139
C22.9268899119,183.648262381 23.1910076631,183.9310371 23.4386866934,184.202747309 C23.6735360621,184.460383052 23.9230869919,184.740000684 24.1411732989,185.012083581 C24.3236052164,185.23968432 24.5143850665,185.499365057 24.6538864594,185.756256022
C24.759305042,185.950383701 24.8539002204,186.176026081 24.8710617902,186.398947579 C24.8857127825,186.589257741 24.8431114113,186.762860531 24.7324189266,186.919459361 C24.6093155722,187.093616093 24.4198165901,187.220957153 24.232438824,187.315896257
C23.9839746393,187.441786152 23.6897643772,187.534937221 23.4212131535,187.605458593 C23.092047986,187.691897145 22.7316569517,187.762120285 22.3967350664,187.821794959 C22.0336401206,187.886489366 21.6532515799,187.946959003 21.2898178004,188.00982361
C20.9480441311,188.068941581 20.5810895917,188.136875047 20.2439621918,188.218819428 C19.96355251,188.286977631 19.6569375446,188.375869113 19.393271533,188.494830395 C19.1942943586,188.584605257 18.9862299631,188.706175806 18.8418127369,188.873590693
C18.7170959963,189.018167899 18.6509307036,189.183614405 18.6476001756,189.375021121 C18.64385226,189.590415258 18.7205427878,189.809352282 18.8136671218,190.000163235 C18.9372116804,190.253304966 19.1158283694,190.508817402 19.2875989203,190.73101905
C19.496975026,191.001867082 19.7402164609,191.279352845 19.9695997364,191.533320974 C20.2175345108,191.807828915 20.4793304668,192.087813609 20.7278513868,192.361805678 C20.9596412226,192.617351878 21.2056392211,192.895769135 21.418800492,193.167180238
C21.5950977188,193.391653589 21.7789053983,193.64894789 21.9092517046,193.903708439 C22.0075333252,194.095798882 22.0918379807,194.317603324 22.0968668101,194.536249695 C22.1012605571,194.727283581 22.0449802066,194.896096889 21.9259148371,195.045667274
C21.7903406712,195.215976073 21.5899124067,195.339935608 21.3958491949,195.431773488 C21.1384168091,195.553600002 20.836890222,195.6442424 20.5613917951,195.713358583 C20.2274585564,195.797134708 19.8631361052,195.865986494 19.5241112109,195.925298866
C19.1587571098,195.989217531 18.782086901,196.048971318 18.4167910169,196.113189161 C18.0788828131,196.172592338 17.7156299078,196.24181724 17.3829940609,196.326325643 C17.1094300031,196.395826455 16.8099238946,196.487162961 16.5549677781,196.610119035
C16.3627948144,196.702797074 16.1653911446,196.827696736 16.0332909766,196.999105784 C15.9165089304,197.150638516 15.8640705868,197.32078179 15.8713945043,197.511632813 C15.8798321101,197.731504989 15.9670537006,197.954401767 16.067338106,198.147033882
C16.2002845135,198.40240507 16.3860739799,198.660378425 16.5641090336,198.885732128 C16.7786895598,199.157344459 17.0257157174,199.436109108 17.2583964525,199.692252988 C17.5084063564,199.967473481 17.7675383914,200.244550815 18.0164912403,200.520683829
C18.2448922071,200.774021149 18.4870157849,201.051129115 18.6948641591,201.321740017 C18.8648512237,201.543056892 19.0414068759,201.797859975 19.1622553683,202.050349944 C19.2533660898,202.240708489 19.3270446461,202.458505033 19.3198756463,202.672591666
C19.3134627564,202.864098719 19.2434480208,203.028255284 19.1166103016,203.170913577 C18.9687838591,203.337178534 18.7577979019,203.457829055 18.556885853,203.54683564 C18.290842817,203.664696079 17.9822865819,203.75291855 17.6999887776,203.820715467
C17.3616719311,203.901965972 16.9937378244,203.96955764 16.6509411714,204.028615227 C16.2836965893,204.091884744 15.9110813035,204.151038222 15.5443375836,204.216751587 C15.2106235816,204.276546668 14.8513910114,204.347173822 14.5236305742,204.434382855
C14.2570489967,204.50531369 13.9649404081,204.599183332 13.7190530027,204.726227995 C13.5335183248,204.822089718 13.3471498091,204.950391724 13.2275748613,205.125584268 C13.1193419476,205.284159286 13.0805535091,205.459123651 13.0979793475,205.649202702
C13.1185214657,205.873273778 13.2159413833,206.099961954 13.3233550068,206.294710063 C13.4653595882,206.5521739 13.6580430035,206.812505004 13.8421594232,207.040974101 C14.061555953,207.3132221 14.3120442822,207.593156403 14.5476907523,207.851355861
C14.7994059215,208.127161903 15.0555429107,208.401217802 15.3045094055,208.679348507 C15.5292011427,208.930360882 15.7671327414,209.206051793 15.9692825452,209.475734843 C16.1328048927,209.693885961 16.3018283506,209.946089948 16.4128433713,210.196161966
C16.4967316586,210.385128405 16.5594392274,210.59874345 16.5400702183,210.807967284 C16.5223308187,210.999588094 16.4386047188,211.159242209 16.3045260207,211.29520538 C16.1446976149,211.45728017 15.9235137982,211.574692672 15.7156050946,211.661102045
C15.4413075232,211.775103435 15.1260050146,211.860997003 14.8370873286,211.927557825 C14.4947733632,212.006420075 14.123551015,212.072864278 13.7773222979,212.131777467 C13.4085581779,212.194525211 13.0403244368,212.25318951 12.6725539903,212.320544021
C12.3433533998,212.380834741 11.9884559707,212.452973405 11.6659525116,212.543018803 C11.4064756398,212.615466703 11.1220488376,212.711955333 10.8855798445,212.84317535 C10.7065166168,212.942540088 10.5315652635,213.074321523 10.424680785,213.253031776
C10.3256346652,213.418636336 10.3003503994,213.598510666 10.3273323326,213.787723108 C10.3598469466,214.015733809 10.467142899,214.246052125 10.5816601286,214.443171965 C10.7323729841,214.702595758 10.9316695201,214.965182765 11.1216659497,215.196716078
C11.3454882849,215.469470291 11.5991126075,215.750463914 11.8373850018,216.010596067 C12.0904335255,216.286859953 12.343254607,216.557782486 12.5918097799,216.837766712 C12.8124816304,217.086341853 13.0459078149,217.360509107 13.2419758698,217.629137324
C13.3988917424,217.844124059 13.5601068637,218.093621297 13.6609645334,218.341126931 C13.7375498714,218.529068044 13.7889345142,218.738328818 13.7574358232,218.9423715 C13.7279047256,219.133668476 13.6305646521,219.288982303 13.4896860317,219.418550936
C13.3181306406,219.576333554 13.0870957198,219.690578817 12.8720659974,219.774592989 C12.5898729765,219.884848504 12.268109339,219.968506448 11.9727724743,220.033914852 C11.626849667,220.11052655 11.252665906,220.175937242 10.9033524792,220.234819202
C10.5334415881,220.29717317 10.1699065332,220.35545471 9.801535923194,220.424599319 C9.477157512017,220.48548642 9.126906002285,220.559244182 8.810038630267,220.652260531 C8.557763702948,220.726315781 8.281303823397,220.825506935 8.054598010567,220.960978168
C7.881853689699,221.064203956 7.71870348768,221.199548138 7.624621754981,221.381452773 C7.535388451982,221.553983092 7.523403381707,221.738813223 7.559427765259,221.927185207 C7.603740248814,222.158895778 7.720600208791,222.392691334 7.842193029452,222.592398836
C8.00125850205,222.853652487 8.206884250483,223.118393984 8.402542726012,223.352928567 C8.630399215916,223.626058707 8.886830001278,223.908000277 9.127381086898,224.169939917 C9.38138945404,224.446533391 9.630584370232,224.714212827 9.878297122435,224.99590574
C10.0946488908,225.241935706 10.3232604943,225.514473849 10.5128664228,225.781920774 C10.6630532536,225.993765448 10.8161832619,226.240444855 10.9065706352,226.485228283 C10.9757312672,226.672526309 11.0154376944,226.877267032 10.9719611533,227.07580043
C10.9302471362,227.266285353 10.8194615815,227.417418661 10.6721176788,227.540959635"/>
      <line
          style="fill:none;stroke:#074080;stroke-linecap:round;stroke-width:1.984251968504;marker-end:url(#83EA566A_end_arrow)"
          id="F5A5B58A"
          x1="86.6732283465"
          y1="173.338582677"
          x2="105.948818897"
          y2="227.763779527"/>
      <path
          style="fill:none;stroke:#0F80FF;stroke-linecap:round;stroke-width:0.869471294673"
          id="06A5B58A"
          d="M84.832871604,171.614091957 C84.475389707,171.680713756 84.0886131963,171.742978516 83.7301155193,171.803549462 C83.3816310224,171.862428604 83.0082439383,171.928117336 82.6632931223,172.005345768 C82.3697335913,172.071068593 82.0497515508,172.15534345 81.7697345474,172.26663688
C81.5567111783,172.351303529 81.3284024544,172.466429126 81.1601041881,172.625422403 C81.0210924651,172.756748351 80.9275531612,172.913262 80.9013691674,173.104697304 C80.8732577092,173.310224605 80.9278509417,173.520722649 81.0064929277,173.708912931
C81.1102288745,173.957153065 81.2736598475,174.207419804 81.4324401244,174.423291939 C81.6302508445,174.692228505 81.8649708647,174.966833389 82.0867998741,175.216102557 C82.3294851997,175.488807959 82.595572915,175.77425324 82.8420080239,176.043542193
C83.0795793125,176.303145316 83.3323579852,176.583853292 83.5549795967,176.856478762 C83.7433496593,177.087159316 83.9408216077,177.349124429 84.0891299315,177.608012235 C84.2016592434,177.804444006 84.3062197098,178.033760905 84.3353954084,178.260692678
C84.3597532248,178.450150436 84.3307032148,178.628642349 84.2290186154,178.792283886 C84.1185643165,178.970038544 83.9403749723,179.100836915 83.7595146782,179.199185595 C83.5203715903,179.329227445 83.2337636109,179.424973679 82.9722849088,179.49698757
C82.6482700405,179.586224558 82.2921263365,179.657928755 81.9616294286,179.718070302 C81.6011596011,179.783666114 81.2173995325,179.84497131 80.8562341413,179.906621565 C80.5109324161,179.965563922 80.1405986553,180.03231822 79.7993656466,180.111835811
C79.512283571,180.178734601 79.198842785,180.265271445 78.9268221481,180.380343017 C78.7208876592,180.467458486 78.5025258637,180.585771192 78.3460337659,180.74903221 C78.2139353303,180.886844441 78.1340446694,181.047743973 78.1195287697,181.23937416
C78.1035745537,181.449992136 78.1693915694,181.664796446 78.2553103196,181.854116966 C78.3691138861,182.10488121 78.5402758058,182.357824227 78.7056247596,182.576863124 C78.9094101268,182.846819002 79.148548158,183.122917789 79.3743110261,183.374593138
C79.6198032972,183.64826238 79.8839210484,183.931037099 80.1316000787,184.202747308 C80.3664494474,184.460383052 80.6160003772,184.740000684 80.8340866842,185.012083581 C81.0165186017,185.239684319 81.2072984518,185.499365056 81.3467998447,185.756256022
C81.4522184273,185.9503837 81.5468136057,186.17602608 81.5639751756,186.398947578 C81.5786261679,186.589257741 81.5360247966,186.76286053 81.4253323119,186.919459361 C81.3022289575,187.093616093 81.1127299754,187.220957152 80.9253522094,187.315896257
C80.6768880247,187.441786151 80.3826777625,187.53493722 80.1141265389,187.605458592 C79.7849613713,187.691897145 79.4245703371,187.762120284 79.0896484517,187.821794959 C78.7265535059,187.886489366 78.3461649653,187.946959002 77.9827311858,188.00982361
C77.6409575164,188.06894158 77.274002977,188.136875046 76.9368755772,188.218819427 C76.6564658953,188.286977631 76.34985093,188.375869113 76.0861849183,188.494830395 C75.887207744,188.584605256 75.6791433485,188.706175805 75.5347261222,188.873590693
C75.4100093816,189.018167899 75.343844089,189.183614405 75.3405135609,189.375021121 C75.3367656453,189.590415257 75.4134561732,189.809352281 75.5065805071,190.000163235 C75.6301250657,190.253304965 75.8087417548,190.508817402 75.9805123057,190.73101905
C76.1898884113,191.001867081 76.4331298463,191.279352844 76.6625131217,191.533320973 C76.9104478961,191.807828915 77.1722438521,192.087813608 77.4207647721,192.361805678 C77.6525546079,192.617351878 77.8985526065,192.895769135 78.1117138773,193.167180238
C78.2880111041,193.391653589 78.4718187836,193.648947889 78.60216509,193.903708439 C78.7004467105,194.095798881 78.7847513661,194.317603323 78.7897801955,194.536249695 C78.7941739424,194.727283581 78.7378935919,194.896096888 78.6188282225,195.045667273
C78.4832540566,195.215976073 78.282825792,195.339935607 78.0887625803,195.431773487 C77.8313301944,195.553600001 77.5298036073,195.644242399 77.2543051804,195.713358582 C76.9203719418,195.797134707 76.5560494906,195.865986493 76.2170245962,195.925298866
C75.8516704952,195.989217531 75.4750002863,196.048971317 75.1097044023,196.11318916 C74.7717961985,196.172592338 74.4085432931,196.241817239 74.0759074462,196.326325642 C73.8023433884,196.395826454 73.50283728,196.48716296 73.2478811634,196.610119034
C73.0557081998,196.702797074 72.8583045299,196.827696735 72.726204362,196.999105783 C72.6094223157,197.150638515 72.5569839721,197.320781789 72.5643078897,197.511632812 C72.5727454955,197.731504988 72.659967086,197.954401766 72.7602514913,198.147033882
C72.8931978989,198.402405069 73.0789873653,198.660378425 73.257022419,198.885732127 C73.4716029451,199.157344459 73.7186291027,199.436109108 73.9513098379,199.692252987 C74.2013197418,199.967473481 74.4604517768,200.244550814 74.7094046257,200.520683829
C74.9378055924,200.774021149 75.1799291703,201.051129114 75.3877775445,201.321740016 C75.5577646091,201.543056892 75.7343202612,201.797859974 75.8551687537,202.050349943 C75.9462794752,202.240708488 76.0199580314,202.458505032 76.0127890317,202.672591666
C76.0063761418,202.864098719 75.9363614061,203.028255284 75.8095236869,203.170913577 C75.6616972444,203.337178533 75.4507112872,203.457829054 75.2497992383,203.54683564 C74.9837562023,203.664696079 74.6751999673,203.752918549 74.3929021629,203.820715466
C74.0545853164,203.901965972 73.6866512097,203.969557639 73.3438545568,204.028615226 C72.9766099746,204.091884743 72.6039946889,204.151038221 72.2372509689,204.216751587 C71.903536967,204.276546667 71.5443043967,204.347173822 71.2165439595,204.434382854
C70.949962382,204.505313689 70.6578537934,204.599183331 70.411966388,204.726227994 C70.2264317101,204.822089718 70.0400631944,204.950391723 69.9204882466,205.125584267 C69.8122553329,205.284159286 69.7734668945,205.45912365 69.7908927328,205.649202702
C69.811434851,205.873273778 69.9088547687,206.099961953 70.0162683922,206.294710062 C70.1582729735,206.552173899 70.3509563888,206.812505004 70.5350728086,207.0409741 C70.7544693383,207.3132221 71.0049576676,207.593156402 71.2406041377,207.85135586
C71.4923193069,208.127161902 71.7484562961,208.401217802 71.9974227909,208.679348506 C72.222114528,208.930360882 72.4600461268,209.206051792 72.6621959306,209.475734843 C72.8257182781,209.69388596 72.9947417359,209.946089948 73.1057567566,210.196161965
C73.1896450439,210.385128405 73.2523526127,210.59874345 73.2329836037,210.807967284 C73.2152442041,210.999588093 73.1315181041,211.159242209 72.9974394061,211.295205379 C72.8376110002,211.45728017 72.6164271835,211.574692672 72.4085184799,211.661102045
C72.1342209085,211.775103435 71.8189183999,211.860997003 71.530000714,211.927557824 C71.1876867486,212.006420074 70.8164644003,212.072864277 70.4702356833,212.131777467 C70.1014715632,212.19452521 69.7332378221,212.253189509 69.3654673756,212.320544021
C69.0362667852,212.38083474 68.681369356,212.452973404 68.3588658969,212.543018803 C68.0993890251,212.615466703 67.8149622229,212.711955333 67.5784932298,212.843175349 C67.3994300021,212.942540087 67.2244786488,213.074321522 67.1175941703,213.253031775
C67.0185480505,213.418636336 66.9932637847,213.598510666 67.020245718,213.787723107 C67.0527603319,214.015733808 67.1600562843,214.246052124 67.274573514,214.443171965 C67.4252863695,214.702595758 67.6245829055,214.965182764 67.8145793351,215.196716077
C68.0384016702,215.469470291 68.2920259929,215.750463913 68.5302983872,216.010596067 C68.7833469109,216.286859952 69.0361679924,216.557782485 69.2847231653,216.837766711 C69.5053950158,217.086341853 69.7388212003,217.360509107 69.9348892552,217.629137323
C70.0918051278,217.844124058 70.253020249,218.093621296 70.3538779188,218.341126931 C70.4304632567,218.529068043 70.4818478995,218.738328818 70.4503492085,218.942371499 C70.4208181109,219.133668475 70.3234780374,219.288982303 70.182599417,219.418550936
C70.0110440259,219.576333554 69.7800091051,219.690578817 69.5649793827,219.774592988 C69.2827863618,219.884848503 68.9610227243,219.968506447 68.6656858596,220.033914851 C68.3197630523,220.110526549 67.9455792913,220.175937241 67.5962658645,220.234819201
C67.2263549734,220.29717317 66.8628199185,220.355454709 66.4944493085,220.424599318 C66.1700708973,220.485486419 65.8198193876,220.559244181 65.5029520156,220.65226053 C65.2506770883,220.726315781 64.9742172087,220.825506934 64.7475113959,220.960978167
C64.574767075,221.064203955 64.411616873,221.199548137 64.3175351403,221.381452772 C64.2283018373,221.553983092 64.2163167671,221.738813222 64.2523411506,221.927185207 C64.2966536342,222.158895777 64.4135135942,222.392691333 64.5351064148,222.592398836
C64.6941718874,222.853652486 64.8997976359,223.118393984 65.0954561114,223.352928566 C65.3233126013,223.626058706 65.5797433867,223.908000276 65.8202944723,224.169939917 C66.0743028394,224.44653339 66.3234977556,224.714212826 66.5712105078,224.99590574
C66.7875622762,225.241935706 67.0161738797,225.514473848 67.2057798082,225.781920773 C67.3559666389,225.993765447 67.5090966472,226.240444854 67.5994840206,226.485228282 C67.6686446525,226.672526308 67.7083510798,226.877267031 67.6648745386,227.07580043
C67.6231605215,227.266285352 67.5123749668,227.41741866 67.3650310641,227.540959635"/>
      <line
          style="fill:none;stroke:#074080;stroke-linecap:round;stroke-width:1.984251968504;marker-end:url(#83EA566A_end_arrow)"
          id="2DEFF58A"
          x1="201.192913386"
          y1="173.338582677"
          x2="220.468503937"
          y2="227.763779527"/>
      <path
          style="fill:none;stroke:#0F80FF;stroke-linecap:round;stroke-width:0.869471294673"
          id="3DEFF58A"
          d="M199.352556643,171.614091957 C198.995074746,171.680713756 198.608298236,171.742978516 198.249800559,171.803549462 C197.901316062,171.862428604 197.527928978,171.928117336 197.182978162,172.005345768 C196.889418631,172.071068593 196.56943659,172.15534345 196.289419587,172.26663688
C196.076396218,172.351303529 195.848087494,172.466429126 195.679789228,172.625422403 C195.540777504,172.756748351 195.447238201,172.913262 195.421054207,173.104697304 C195.392942749,173.310224605 195.447535981,173.520722649 195.526177967,173.708912931
C195.629913914,173.957153065 195.793344887,174.207419804 195.952125164,174.423291939 C196.149935884,174.692228505 196.384655904,174.966833389 196.606484913,175.216102557 C196.849170239,175.488807959 197.115257954,175.77425324 197.361693063,176.043542193
C197.599264352,176.303145316 197.852043025,176.583853292 198.074664636,176.856478762 C198.263034699,177.087159316 198.460506647,177.349124429 198.608814971,177.608012235 C198.721344283,177.804444006 198.825904749,178.033760905 198.855080448,178.260692678
C198.879438264,178.450150436 198.850388254,178.628642349 198.748703655,178.792283886 C198.638249356,178.970038544 198.460060012,179.100836915 198.279199718,179.199185595 C198.04005663,179.329227445 197.75344865,179.424973679 197.491969948,179.49698757
C197.16795508,179.586224558 196.811811376,179.657928755 196.481314468,179.718070302 C196.12084464,179.783666114 195.737084572,179.84497131 195.375919181,179.906621565 C195.030617455,179.965563922 194.660283695,180.03231822 194.319050686,180.111835811
C194.03196861,180.178734601 193.718527824,180.265271445 193.446507187,180.380343017 C193.240572699,180.467458486 193.022210903,180.585771192 192.865718805,180.74903221 C192.73362037,180.886844441 192.653729709,181.047743973 192.639213809,181.23937416
C192.623259593,181.449992136 192.689076609,181.664796446 192.774995359,181.854116966 C192.888798925,182.10488121 193.059960845,182.357824227 193.225309799,182.576863124 C193.429095166,182.846819002 193.668233197,183.122917789 193.893996065,183.374593138
C194.139488337,183.64826238 194.403606088,183.931037099 194.651285118,184.202747308 C194.886134487,184.460383052 195.135685417,184.740000684 195.353771724,185.012083581 C195.536203641,185.239684319 195.726983491,185.499365056 195.866484884,185.756256022
C195.971903467,185.9503837 196.066498645,186.17602608 196.083660215,186.398947578 C196.098311207,186.589257741 196.055709836,186.76286053 195.945017351,186.919459361 C195.821913997,187.093616093 195.632415015,187.220957152 195.445037249,187.315896257
C195.196573064,187.441786151 194.902362802,187.53493722 194.633811578,187.605458592 C194.304646411,187.691897145 193.944255376,187.762120284 193.609333491,187.821794959 C193.246238545,187.886489366 192.865850005,187.946959002 192.502416225,188.00982361
C192.160642556,188.06894158 191.793688016,188.136875046 191.456560617,188.218819427 C191.176150935,188.286977631 190.869535969,188.375869113 190.605869958,188.494830395 C190.406892783,188.584605256 190.198828388,188.706175805 190.054411162,188.873590693
C189.929694421,189.018167899 189.863529128,189.183614405 189.8601986,189.375021121 C189.856450685,189.590415257 189.933141213,189.809352281 190.026265546,190.000163235 C190.149810105,190.253304965 190.328426794,190.508817402 190.500197345,190.73101905
C190.709573451,191.001867081 190.952814886,191.279352844 191.182198161,191.533320973 C191.430132935,191.807828915 191.691928891,192.087813608 191.940449811,192.361805678 C192.172239647,192.617351878 192.418237646,192.895769135 192.631398917,193.167180238
C192.807696143,193.391653589 192.991503823,193.648947889 193.121850129,193.903708439 C193.22013175,194.095798881 193.304436405,194.317603323 193.309465235,194.536249695 C193.313858982,194.727283581 193.257578631,194.896096888 193.138513262,195.045667273
C193.002939096,195.215976073 192.802510831,195.339935607 192.60844762,195.431773487 C192.351015234,195.553600001 192.049488647,195.644242399 191.77399022,195.713358582 C191.440056981,195.797134707 191.07573453,195.865986493 190.736709636,195.925298866
C190.371355535,195.989217531 189.994685326,196.048971317 189.629389442,196.11318916 C189.291481238,196.172592338 188.928228333,196.241817239 188.595592486,196.326325642 C188.322028428,196.395826454 188.022522319,196.48716296 187.767566203,196.610119034
C187.575393239,196.702797074 187.377989569,196.827696735 187.245889401,196.999105783 C187.129107355,197.150638515 187.076669011,197.320781789 187.083992929,197.511632812 C187.092430535,197.731504988 187.179652125,197.954401766 187.279936531,198.147033882
C187.412882938,198.402405069 187.598672405,198.660378425 187.776707458,198.885732127 C187.991287985,199.157344459 188.238314142,199.436109108 188.470994877,199.692252987 C188.721004781,199.967473481 188.980136816,200.244550814 189.229089665,200.520683829
C189.457490632,200.774021149 189.69961421,201.051129114 189.907462584,201.321740016 C190.077449648,201.543056892 190.254005301,201.797859974 190.374853793,202.050349943 C190.465964515,202.240708488 190.539643071,202.458505032 190.532474071,202.672591666
C190.526061181,202.864098719 190.456046445,203.028255284 190.329208726,203.170913577 C190.181382284,203.337178533 189.970396327,203.457829054 189.769484278,203.54683564 C189.503441242,203.664696079 189.194885007,203.752918549 188.912587202,203.820715466
C188.574270356,203.901965972 188.206336249,203.969557639 187.863539596,204.028615226 C187.496295014,204.091884743 187.123679728,204.151038221 186.756936008,204.216751587 C186.423222006,204.276546667 186.063989436,204.347173822 185.736228999,204.434382854
C185.469647421,204.505313689 185.177538833,204.599183331 184.931651427,204.726227994 C184.746116749,204.822089718 184.559748234,204.950391723 184.440173286,205.125584267 C184.331940372,205.284159286 184.293151934,205.45912365 184.310577772,205.649202702
C184.33111989,205.873273778 184.428539808,206.099961953 184.535953432,206.294710062 C184.677958013,206.552173899 184.870641428,206.812505004 185.054757848,207.0409741 C185.274154378,207.3132221 185.524642707,207.593156402 185.760289177,207.85135586
C186.012004346,208.127161902 186.268141335,208.401217802 186.51710783,208.679348506 C186.741799567,208.930360882 186.979731166,209.206051792 187.18188097,209.475734843 C187.345403317,209.69388596 187.514426775,209.946089948 187.625441796,210.196161965
C187.709330083,210.385128405 187.772037652,210.59874345 187.752668643,210.807967284 C187.734929243,210.999588093 187.651203144,211.159242209 187.517124445,211.295205379 C187.35729604,211.45728017 187.136112223,211.574692672 186.928203519,211.661102045
C186.653905948,211.775103435 186.338603439,211.860997003 186.049685753,211.927557824 C185.707371788,212.006420074 185.33614944,212.072864277 184.989920723,212.131777467 C184.621156603,212.19452521 184.252922862,212.253189509 183.885152415,212.320544021
C183.555951825,212.38083474 183.201054395,212.452973404 182.878550936,212.543018803 C182.619074064,212.615466703 182.334647262,212.711955333 182.098178269,212.843175349 C181.919115041,212.942540087 181.744163688,213.074321522 181.63727921,213.253031775
C181.53823309,213.418636336 181.512948824,213.598510666 181.539930757,213.787723107 C181.572445371,214.015733808 181.679741324,214.246052124 181.794258553,214.443171965 C181.944971409,214.702595758 182.144267945,214.965182764 182.334264374,215.196716077
C182.55808671,215.469470291 182.811711032,215.750463913 183.049983427,216.010596067 C183.30303195,216.286859952 183.555853032,216.557782485 183.804408205,216.837766711 C184.025080055,217.086341853 184.25850624,217.360509107 184.454574295,217.629137323
C184.611490167,217.844124058 184.772705288,218.093621296 184.873562958,218.341126931 C184.950148296,218.529068043 185.001532939,218.738328818 184.970034248,218.942371499 C184.94050315,219.133668475 184.843163077,219.288982303 184.702284456,219.418550936
C184.530729065,219.576333554 184.299694144,219.690578817 184.084664422,219.774592988 C183.802471401,219.884848503 183.480707764,219.968506447 183.185370899,220.033914851 C182.839448092,220.110526549 182.465264331,220.175937241 182.115950904,220.234819201
C181.746040013,220.29717317 181.382504958,220.355454709 181.014134348,220.424599318 C180.689755937,220.485486419 180.339504427,220.559244181 180.022637055,220.65226053 C179.770362128,220.726315781 179.493902248,220.825506934 179.267196435,220.960978167
C179.094452114,221.064203955 178.931301912,221.199548137 178.83722018,221.381452772 C178.747986877,221.553983092 178.736001806,221.738813222 178.77202619,221.927185207 C178.816338674,222.158895777 178.933198634,222.392691333 179.054791454,222.592398836
C179.213856927,222.853652486 179.419482675,223.118393984 179.615141151,223.352928566 C179.842997641,223.626058706 180.099428426,223.908000276 180.339979512,224.169939917 C180.593987879,224.44653339 180.843182795,224.714212826 181.090895547,224.99590574
C181.307247316,225.241935706 181.535858919,225.514473848 181.725464848,225.781920773 C181.875651678,225.993765447 182.028781687,226.240444854 182.11916906,226.485228282 C182.188329692,226.672526308 182.228036119,226.877267031 182.184559578,227.07580043
C182.142845561,227.266285352 182.032060006,227.41741866 181.884716103,227.540959635"/>
      <line
          style="fill:none;stroke:#074080;stroke-linecap:round;stroke-width:1.984251968504;marker-end:url(#83EA566A_end_arrow)"
          id="52EE468A"
          x1="145.633858268"
          y1="173.338582677"
          x2="164.909448819"
          y2="227.763779527"/>
      <line
          style="fill:none;stroke:#074080;stroke-linecap:round;stroke-width:1.984251968504;marker-end:url(#83EA566A_end_arrow)"
          id="3B5E478A"
          x1="143.366141732"
          y1="173.338582677"
          x2="124.090551181"
          y2="227.763779528"/>
      <text
          id="2358BF8A"
          style="stroke:none"
          font-family="Helvetica"
          font-size="12"
          font-weight="normal"
          font-style="normal">
         <tspan x="232.271653543" y="51.6771653543">n = 1</tspan>
      </text>
      <text
          id="2563119A"
          style="stroke:none"
          font-family="Helvetica"
          font-size="12"
          font-weight="normal"
          font-style="normal">
         <tspan x="232.271653543" y="108.37007874">n = 2</tspan>
      </text>
      <text
          id="4F34819A"
          style="stroke:none"
          font-family="Helvetica"
          font-size="12"
          font-weight="normal"
          font-style="normal">
         <tspan x="232.271653543" y="165.062992126">n = 3</tspan>
      </text>
      <text
          id="D758B39A"
          style="stroke:none"
          font-family="Helvetica"
          font-size="12"
          font-weight="normal"
          font-style="normal">
         <tspan x="232.271653543" y="221.755905512">n = 4</tspan>
      </text>
      <text
          id="6D11959A"
          style="fill:#074080;stroke:none"
          font-family="Helvetica"
          font-size="12"
          font-weight="normal"
          font-style="normal">
         <tspan x="118.885826772" y="32">e</tspan>
         <tspan>-</tspan>
      </text>
      <text
          id="5CF0779A"
          style="fill:#074080;stroke:none"
          font-family="Helvetica"
          font-size="12"
          font-weight="normal"
          font-style="normal">
         <tspan x="73.531496063" y="139.716535433">e</tspan>
         <tspan>-</tspan>
      </text>
      <text
          id="F3D9979A"
          style="fill:#074080;stroke:none"
          font-family="Helvetica"
          font-size="12"
          font-weight="normal"
          font-style="normal">
         <tspan x="28.1771653543" y="139.716535433">e</tspan>
         <tspan>+</tspan>
      </text>
      <text
          id="04FEC89A"
          style="fill:#0F80FF;stroke:none"
          font-family="Cambria Math"
          font-size="12"
          font-weight="normal"
          font-style="normal">
         <tspan x="73.531496063" y="80.0236220472"></tspan>
      </text>
      <text
          id="79980A9A"
          style="fill:#0F80FF;stroke:none"
          font-family="Cambria Math"
          font-size="12"
          font-weight="normal"
          font-style="normal">
         <tspan x="11.1692913386" y="187.74015748"></tspan>
      </text>
      <text
          id="B6CB2A9A"
          style="fill:#0F80FF;stroke:none"
          font-family="Cambria Math"
          font-size="12"
          font-weight="normal"
          font-style="normal">
         <tspan x="67.8622047244" y="187.74015748"></tspan>
      </text>
      <text
          id="2C919A9A"
          style="fill:#074080;stroke:none"
          font-family="Helvetica"
          font-size="12"
          font-weight="normal"
          font-style="normal">
         <tspan x="96.2086614173" y="190.74015748">e</tspan>
         <tspan>-</tspan>
      </text>
      <text
          id="41B4CA9A"
          style="fill:#074080;stroke:none"
          font-family="Helvetica"
          font-size="12"
          font-weight="normal"
          font-style="normal">
         <tspan x="39.5157480315" y="190.74015748">e</tspan>
         <tspan>+</tspan>
      </text>
      <text
          id="0B0CCD9A"
          style="fill:#4C4C4C;stroke:none"
          font-family="Avenir Next"
          font-size="9"
          font-weight="normal"
          font-style="normal">
         <tspan x="5.5" y="242.433070866"> J. A. Aguilar 2018</tspan>
      </text>
   </g>
</svg>
