<?xml version="1.0" encoding="UTF-8"?>
<!-- Created with EazyDraw for Mac ( http://www.eazydraw.com/ ) -->

<svg
    version="1.1"
    xmlns:dc="http://purl.org/dc/elements/1.1/"
    xmlns:cc="http://creativecommons.org/ns#"
    xmlns:rdf="http://www.w3.org/1999/02/22-rdf-syntax-ns#"
    xmlns:svg="http://www.w3.org/2000/svg"
    xmlns:xlink="http://www.w3.org/1999/xlink"
    xmlns="http://www.w3.org/2000/svg"
    width="340.226970203"
    height="276.002755905"
    viewBox="0, 0, 340.226970203, 276.002755905"
    preserveAspectRatio="none"
    id="svg2">
   <defs
       id="defs_A49ADD7B">
      <marker
          orient="auto"
          refX="0.0"
          refY="0.0"
          id="83EA566A_end_arrow"
          style="overflow:visible"
          markerUnits="userSpaceOnUse">
         <path
             id="83EA566A_end_arrow_path"
             style="fill:#074080;fill-opacity:1;stroke:#074080;stroke-opacity:1;fill-rule:nonzero;stroke-linecap:round;stroke-linejoin:miter;stroke-width:0.496062992126;stroke-miterlimit:10"
             d="M10,0 L-2.216004070217,4.446261863234 C1.855811686793,2.963878158032 1.855811686793,-2.963878158032 -2.216004070217,-4.446261863234 z"/>
      </marker>
      <marker
          orient="auto"
          refX="0.0"
          refY="0.0"
          id="9FB2567B_start_arrow"
          style="overflow:visible"
          markerUnits="userSpaceOnUse">
         <path
             id="9FB2567B_start_arrow_path"
             style="fill:#000000;fill-opacity:1;stroke:#000000;stroke-opacity:1;fill-rule:nonzero;stroke-linecap:square;stroke-linejoin:miter;stroke-width:0.25;stroke-miterlimit:10"
             d="M-6.358867254783,0 L1.158673711504,-2.736161146605 C-1.34703855993,-1.823925020327 -1.34703855993,1.823925020327 1.158673711504,2.736161146605 z"/>
      </marker>
      <marker
          orient="auto"
          refX="0.0"
          refY="0.0"
          id="9FB2567B_end_arrow"
          style="overflow:visible"
          markerUnits="userSpaceOnUse">
         <path
             id="9FB2567B_end_arrow_path"
             style="fill:#000000;fill-opacity:1;stroke:#000000;stroke-opacity:1;fill-rule:nonzero;stroke-linecap:square;stroke-linejoin:miter;stroke-width:0.25;stroke-miterlimit:10"
             d="M6.358867254783,0 L-1.158673711504,2.736161146605 C1.34703855993,1.823925020327 1.34703855993,-1.823925020327 -1.158673711504,-2.736161146605 z"/>
      </marker>
   </defs>
   <metadata
       id="metadata7">
      <rdf:RDF>
         <cc:Work
             rdf:about="">
            <dc:format>image/svg+xml</dc:format>
            <dc:type rdf:resource="http://purl.org/dc/dcmitype/StillImage"/>
            <dc:title></dc:title>
         </cc:Work>
      </rdf:RDF>
   </metadata>
   <g
       id="layer_Paper"
       style="fill:#000000;fill-opacity:1;stroke:#000000;stroke-opacity:1;fill-rule:nonzero;stroke-linecap:square;stroke-linejoin:miter;stroke-width:1;stroke-miterlimit:10">
      <line
          style="fill:none;stroke-dasharray:4,4"
          id="9E14FA8A"
          x1="2.904135557184"
          y1="114.427952755"
          x2="263.691537132"
          y2="114.427952755"/>
      <line
          style="fill:none;stroke-dasharray:4,4"
          id="C8A5FC8A"
          x1="2.904135557184"
          y1="57.7350393693"
          x2="263.691537132"
          y2="57.7350393693"/>
      <line
          style="fill:none;stroke-dasharray:4,4"
          id="7DA80D8A"
          x1="2.904135557184"
          y1="227.813779527"
          x2="263.691537132"
          y2="227.813779527"/>
      <line
          style="fill:none;stroke-dasharray:4,4"
          id="267D7D8A"
          x1="2.904135557184"
          y1="171.120866141"
          x2="263.691537132"
          y2="171.120866141"/>
      <line
          style="fill:none;stroke:#074080;stroke-linecap:round;stroke-width:1.984251968504;marker-end:url(#83EA566A_end_arrow)"
          id="83EA566A"
          x1="116.289962329"
          y1="1.042125984252"
          x2="116.289962329"
          y2="46.3964566923"/>
      <path
          style="fill:none;stroke:#0F80FF;stroke-linecap:round;stroke-width:0.869471294673"
          id="3D5C3A6A"
          d="M115.027884158,57.73503937 C115.074121066,58.0772041671 115.108307852,58.4441845622 115.099953444,58.7898463411 C115.093057715,59.0751555731 115.056820826,59.3739426449 114.957020302,59.6430842538 C114.869843649,59.8781818659 114.737694036,60.0817755657 114.545270931,60.2443015962
C114.34508757,60.4133821598 114.104140992,60.5172312828 113.852263026,60.5818334594 C113.550295601,60.6592826832 113.219510724,60.683271805 112.908840682,60.6845967972 C112.540536046,60.6861675981 112.150480475,60.6556505934 111.784387409,60.6176400334
C111.389661226,60.5766565659 110.969900338,60.5209871133 110.576147838,60.4721319449 C110.190478138,60.4242796568 109.782158059,60.3767461126 109.394261519,60.3513305561 C109.052266489,60.3289225347 108.686383843,60.3207921286 108.344812174,60.354691468
C108.063172498,60.3826428464 107.771227319,60.4415133807 107.513501136,60.5625613892 C107.286942776,60.668970594 107.097132624,60.818354402 106.952457703,61.0238125744 C106.800740638,61.2392715542 106.716901759,61.4906760015 106.672216305,61.7483212606
C106.618491478,62.058085301 106.619018804,62.3927816474 106.640095225,62.7054476894 C106.665003464,63.0749582553 106.722447362,63.4639953394 106.785226406,63.8287516431 C106.852762727,64.2211484823 106.935418273,64.6350412946 107.009462216,65.0262177625
C107.081490228,65.4067439961 107.15407212,65.8100608304 107.202480622,66.1944169435 C107.244985869,66.53190211 107.274115425,66.8940625006 107.258764028,67.2344243379 C107.246115975,67.5148492753 107.202426137,67.8062699445 107.0938387,68.0670441377
C106.997752834,68.2977956369 106.856183972,68.4922770069 106.657275489,68.6449980104 C106.447021961,68.8064296868 106.197053841,68.9023471226 105.940451002,68.9602013543 C105.631170781,69.029932343 105.293944749,69.0480670894 104.977874768,69.0450075387
C104.605558276,69.041403523 104.211817351,69.00745896 103.841878129,68.9672286387 C103.444808238,68.9240478988 103.027924296,68.868148891 102.631482267,68.8196989853 C102.248464052,68.7728896284 101.84253955,68.7275918565 101.457158594,68.7059877271
C101.120141219,68.6870948189 100.759514313,68.6838062372 100.423826918,68.7244592757 C100.147389808,68.7579368762 99.8633922918,68.8238609331 99.6147080254,68.9531347748 C99.3931525632,69.0683062175 99.2130535059,69.2265590841 99.078515785,69.4376844478
C98.9351794887,69.6626171098 98.8597461892,69.9224241261 98.8219599648,70.1843988357 C98.7763195276,70.5008273875 98.7829987887,70.8414629061 98.8087135798,71.1592206661 C98.8389022166,71.5322617528 98.8998800158,71.924636965 98.9650037072,72.2929863545
C99.0347443234,72.687449765 99.1173021538,73.0983233806 99.1909653262,73.4920704542 C99.2616501962,73.8698977978 99.3317163791,74.2708448649 99.3760107969,74.6527948498 C99.4145922516,74.9854820537 99.4384391261,75.34259701 99.4158495784,75.6773850814
C99.397250925,75.9530261606 99.3459127109,76.2368605757 99.2285388065,76.4890180815 C99.1232342111,76.715246767 98.9721370404,76.9006090259 98.767094508,77.0436454392 C98.5469307233,77.1972303454 98.288134675,77.2853867664 98.0267225532,77.3367725623
C97.7104124975,77.3989496483 97.3669812751,77.4114264655 97.0455564844,77.4041504065 C96.6695253582,77.3956382297 96.2723526119,77.358498987 95.8987886673,77.3162733125 C95.4996545532,77.2711573225 95.0859302212,77.2152921971 94.6870979955,77.1675297489
C94.3069862001,77.1220091798 93.9037194821,77.079190671 93.5211551546,77.0616756881 C93.1892373997,77.0464794626 92.8341050351,77.0482415127 92.5045901229,77.0958662994 C92.2332625314,77.1350812732 91.9574428688,77.2082387812 91.718043256,77.3457035226
C91.5017117598,77.4699224084 91.3313219569,77.6371432188 91.2067545322,77.8536007384 C91.0719645176,78.0878217823 91.0047520075,78.3558419903 90.9736010047,78.6222552419 C90.9358543903,78.9450762549 90.9484729102,79.2914281223 90.9786540165,79.6142331215
C91.0138359397,79.9905248518 91.0780973707,80.3859991409 91.1453243215,80.7577304331 C91.2169884682,81.1539971918 91.2991710673,81.5615900751 91.372149363,81.9576240086 C91.4412320091,82.3325172803 91.5085238343,82.7308495247 91.5484086185,83.1101111524
C91.5828801956,83.4378989711 91.6012223018,83.7897441522 91.5711637676,84.1186851384 C91.5464027362,84.3896537121 91.4872228436,84.6656859522 91.3611011606,84.9089878397 C91.2462918325,85.130467014 91.0855791297,85.3067330058 90.8747383891,85.4402536325
C90.644851697,85.5858356255 90.3774350133,85.6664046097 90.1111163395,85.7115833286 C89.7880609453,85.766386954 89.4386607612,85.7734051909 89.1119468025,85.7620825627 C88.7324993875,85.748932399 88.3321506352,85.7088342584 87.9551929231,85.6648433364
C87.5542765479,85.6180564411 87.1439868504,85.5624818694 86.7430704753,85.5156949741 C86.3661127631,85.4717040521 85.9657640108,85.4316059115 85.5863165959,85.4184557478 C85.2596026372,85.4071331196 84.9102024531,85.4141513565 84.5871470589,85.4689549819
C84.3208283851,85.5141337008 84.0534117013,85.594702685 83.8235250093,85.740284678 C83.6126842687,85.8738053047 83.4519715659,86.0500712965 83.3371622378,86.2715504708 C83.2110405547,86.5148523583 83.1518606622,86.7908845984 83.1270996307,87.0618531721
C83.0970410966,87.3907941583 83.1153832028,87.7426393394 83.1498547799,88.0704271581 C83.1897395641,88.4496887858 83.2570313893,88.8480210302 83.3261140354,89.2229143019 C83.3994186389,89.6207190215 83.4809559247,90.0247771786 83.5529390769,90.4228078774
C83.6201660277,90.7945391696 83.6844274586,91.1900134587 83.7196093819,91.566305189 C83.7497904881,91.8891101882 83.7624090081,92.2354620556 83.7246623937,92.5582830686 C83.6935113909,92.8246963202 83.6262988808,93.0927165282 83.4915088662,93.3269375721
C83.3669414415,93.5433950917 83.1965516386,93.7106159021 82.9802201423,93.8348347879 C82.7408205296,93.9722995293 82.4650008669,94.0454570373 82.1936732755,94.0846720112 C81.8641583633,94.1322967978 81.5090259986,94.1340588479 81.1771082438,94.1188626224
C80.7945439162,94.1013476395 80.3912771983,94.0585291308 80.0111654028,94.0130085616 C79.6087508675,93.9648171113 79.2021619525,93.9097826123 78.7994747311,93.864264998 C78.4259107865,93.8220393235 78.0287380402,93.7849000808 77.652706914,93.776387904
C77.3312821233,93.769111845 76.9878509009,93.7815886622 76.6715408451,93.8437657482 C76.4101287234,93.8951515441 76.1513326751,93.9833079651 75.9311688904,94.1368928713 C75.7261263579,94.2799292846 75.5750291873,94.4652915435 75.4697245919,94.691520229
C75.3523506875,94.9436777348 75.3010124734,95.2275121499 75.28241382,95.5031532291 C75.2598242723,95.8379413005 75.2836711468,96.1950562568 75.3222526015,96.5277434607 C75.3665470193,96.9096934456 75.4366132022,97.3106405127 75.5072980722,97.6884678563
C75.5819580898,98.0875433036 75.6625879125,98.4878217507 75.7332596912,98.887551956 C75.7983833825,99.2559013455 75.8593611818,99.6482765577 75.8895498186,100.021317644 C75.9152646097,100.339075404 75.9219438708,100.679710923 75.8763034336,100.996139475
C75.8385172091,101.258114184 75.7630839097,101.517921201 75.6197476134,101.742853863 C75.4852098924,101.953979226 75.3051108352,102.112232093 75.083555373,102.227403536 C74.8348711066,102.356677377 74.5508735899,102.422601434 74.2744364801,102.456079035
C73.9387490852,102.496732073 73.5781221798,102.493443492 73.2411048046,102.474550583 C72.8557238488,102.452946454 72.4497993465,102.407648682 72.0667811311,102.360839325 C71.6631543345,102.311511356 71.2605232125,102.257259051 70.8563852694,102.213309672
C70.4864460479,102.173079351 70.0927051219,102.139134788 69.7203886303,102.135530772 C69.4043186492,102.132471221 69.0670926172,102.150605968 68.757812396,102.220336956 C68.5012095578,102.278191188 68.2512414378,102.374108624 68.0409879097,102.5355403
C67.8420794268,102.688261304 67.7005105639,102.882742674 67.6044246986,103.113494173 C67.495837261,103.374268366 67.4521474237,103.665689035 67.4394993706,103.946113973 C67.4241479735,104.28647581 67.4532775295,104.6486362 67.4957827762,104.986121367
C67.5441912784,105.37047748 67.6167731707,105.773794314 67.688801182,106.154320548 C67.7645299443,106.554397965 67.8439981192,106.950659757 67.913036992,107.351786667 C67.9758160364,107.716542971 68.0332599341,108.105580055 68.0581681729,108.475090621
C68.0792445944,108.787756663 68.0797719201,109.12245301 68.0260470938,109.43221705 C67.9813616398,109.689862309 67.8975227604,109.941266756 67.7458056952,110.156725736 C67.601130774,110.362183908 67.4113206221,110.511567717 67.1847622626,110.617976921
C66.927036079,110.73902493 66.6350909003,110.797895464 66.3534512249,110.825846842 C66.0118795556,110.859746182 65.6459969095,110.851615776 65.3040018793,110.829207754 C64.916105339,110.803792198 64.5077852602,110.756258654 64.1221155607,110.708406366
C63.7175638566,110.658211277 63.3191390916,110.604975767 62.913875989,110.562898277 C62.5477829236,110.524887717 62.1577273525,110.494370712 61.7894227165,110.495941513 C61.4787526748,110.497266506 61.1479677971,110.521255627 60.8460003722,110.598704851
C60.5941224066,110.663307028 60.3531758282,110.767156151 60.152992467,110.936236714 C59.960569362,111.098762745 59.8284197495,111.302356445 59.7412430962,111.537454057 C59.6414425728,111.806595666 59.6052056837,112.105382737 59.5983099548,112.390691969
C59.5899555462,112.736353748 59.6241423326,113.103334143 59.6703792401,113.445498941"/>
      <line
          style="fill:none;stroke:#074080;stroke-linecap:round;stroke-width:1.984251968504;marker-end:url(#83EA566A_end_arrow)"
          id="86D6DC6A"
          x1="61.8647654782"
          y1="116.695669291"
          x2="82.2742142972"
          y2="159.782283464"/>
      <line
          style="fill:none;stroke:#074080;stroke-linecap:round;stroke-width:1.984251968504;marker-end:url(#83EA566A_end_arrow)"
          id="1A321D6A"
          x1="57.3293324082"
          y1="116.695669291"
          x2="36.9198835892"
          y2="159.782283464"/>
      <line
          style="fill:none;stroke:#074080;stroke-linecap:round;stroke-width:1.984251968504;marker-end:url(#83EA566A_end_arrow)"
          id="B9EABD6A"
          x1="119.691537132"
          y1="58.8688976373"
          x2="161.644293038"
          y2="103.089370078"/>
      <line
          style="fill:none;stroke:#074080;stroke-linecap:round;stroke-width:1.984251968504;marker-end:url(#83EA566A_end_arrow)"
          id="86FE4F6A"
          x1="32.3844505182"
          y1="173.388582677"
          x2="48.0892494242"
          y2="216.537163049"/>
      <line
          style="fill:none;stroke:#074080;stroke-linecap:round;stroke-width:1.984251968504;marker-end:url(#83EA566A_end_arrow)"
          id="3A47007A"
          x1="175.25059225"
          y1="116.695669291"
          x2="195.660041069"
          y2="159.782283464"/>
      <path
          style="fill:none;stroke:#0F80FF;stroke-linecap:round;stroke-width:0.869471294673"
          id="CF42407A"
          d="M171.081408629,115.561811024 C171.262813169,115.810169165 171.451590736,116.089137479 171.593698168,116.362401525 C171.703028787,116.572637732 171.804000772,116.815672417 171.832557542,117.05302806 C171.856002821,117.247898466 171.830528926,117.435272772 171.729548839,117.606167317
C171.622890118,117.786672152 171.450325456,117.917411953 171.268848512,118.015455623 C171.032652623,118.143061429 170.749034882,118.231982311 170.489682656,118.296668329 C170.166024464,118.377393142 169.810187289,118.437243672 169.48029002,118.485291947
C169.11850719,118.537984231 168.726942666,118.584882934 168.364341834,118.631062682 C168.010895832,118.676076499 167.6325672,118.726770805 167.2819085,118.790311909 C166.982153742,118.844628964 166.655890253,118.916472485 166.367902396,119.017296625
C166.146966721,119.09464589 165.910598733,119.201911942 165.731314527,119.355849166 C165.582678722,119.483471023 165.477913994,119.638762746 165.438440526,119.832631299 C165.396274792,120.039722549 165.435911556,120.256051698 165.502677594,120.453030905
C165.589859112,120.710241702 165.736868503,120.972368985 165.882462636,121.200332772 C166.06324586,121.483393823 166.280875798,121.773862167 166.487668922,122.03829111 C166.713770214,122.327409647 166.963104986,122.631023683 167.193476826,122.916707869
C167.416200595,123.192907682 167.652646018,123.490849954 167.859583875,123.779158346 C168.035494031,124.02423856 168.21800221,124.300697588 168.35179766,124.571675087 C168.454185755,124.7790429 168.545715643,125.018064549 168.562688386,125.251053619
C168.576903042,125.446181729 168.538479458,125.627985054 168.428122587,125.791501725 C168.30889752,125.968158476 168.124800576,126.094748888 167.937133431,126.188608933 C167.69143996,126.311490326 167.400007915,126.397311129 167.133608542,126.460025295
C166.804512095,126.537499236 166.444146894,126.595507992 166.109535584,126.642745006 C165.744772135,126.69423859 165.356189779,126.740273802 164.990845128,126.787412897 C164.640504779,126.832616041 164.265133303,126.884515061 163.918029617,126.950530072
C163.624611805,127.006334666 163.304751126,127.080762926 163.024521222,127.185758243 C162.810527132,127.265936615 162.58391596,127.37688824 162.416156299,127.535661058 C162.274178941,127.670032725 162.182676714,127.8303506 162.154886898,128.025153446
C162.124521162,128.238013138 162.175185545,128.45924382 162.249246192,128.657667148 C162.346399011,128.917959039 162.501057369,129.183197106 162.653035198,129.414622563 C162.839806176,129.699029566 163.061825426,129.991242602 163.272432918,130.258288195
C163.501337531,130.548534128 163.748941436,130.849390467 163.980435625,131.137587627 C164.200618959,131.411703412 164.433935019,131.70840337 164.636403064,131.99596031 C164.80660668,132.237693424 164.982565929,132.511525807 165.107703335,132.780066373
C165.20309923,132.984782679 165.284885486,133.219623853 165.290125286,133.447995769 C165.294607724,133.643358725 165.243047337,133.819632856 165.123916868,133.97571833 C164.992254973,134.148222557 164.796989757,134.270764216 164.602981128,134.360782078
C164.348129976,134.479030198 164.049165763,134.561849342 163.775814545,134.622690585 C163.44165216,134.697066895 163.077065762,134.753357817 162.7380433,134.799901328 C162.370654668,134.850339156 161.985404599,134.895653764 161.617706165,134.943906983
C161.270810242,134.989430279 160.898717097,135.042664654 160.55554901,135.111310573 C160.268659111,135.168698836 159.955483177,135.245819513 159.683363659,135.35511412 C159.476184032,135.438326144 159.259668792,135.553051392 159.103704797,135.7165615
C158.96881183,135.857981085 158.890644271,136.023482154 158.874106539,136.218790904 C158.855620172,136.437112802 158.916981438,136.663062847 158.998227789,136.863273814 C159.105037123,137.126478253 159.267071244,137.394703045 159.425289124,137.629588539
C159.61767175,137.915193986 159.843771068,138.209028059 160.057887874,138.47856316 C160.289238745,138.769792892 160.534764712,139.067753353 160.766988643,139.358304193 C160.984300303,139.630197296 161.214166481,139.925527441 161.411782178,140.212183126
C161.576082884,140.450513037 161.745216648,140.721601002 161.861356274,140.987551689 C161.949708154,141.189870604 162.021440941,141.420356499 162.014843491,141.643844555 C162.009073413,141.839305445 161.944243746,142.010133837 161.816944909,142.15882245
C161.673023755,142.326926397 161.466954228,142.44551426 161.266440771,142.531994832 C161.002781261,142.645710019 160.696570523,142.725628421 160.416378208,142.784695384 C160.077524549,142.856128666 159.709027604,142.910827547 159.36590715,142.95679871
C158.996251921,143.006324993 158.614676132,143.051057248 158.245020902,143.100583531 C157.901900449,143.146554693 157.533403503,143.201253575 157.194549844,143.272686857 C156.914357529,143.33175382 156.608146792,143.411672221 156.344487281,143.525387409
C156.143973824,143.61186798 155.937904297,143.730455844 155.793983143,143.89855979 C155.666684307,144.047248403 155.601854639,144.218076795 155.596084561,144.413537686 C155.589487111,144.637025741 155.661219899,144.867511637 155.749571778,145.069830552
C155.865711404,145.335781239 156.034845169,145.606869203 156.199145874,145.845199114 C156.396761571,146.1318548 156.62662775,146.427184944 156.84393941,146.699078047 C157.077376538,146.991146798 157.320486953,147.286075798 157.553040178,147.578819081
C157.767156985,147.848354181 157.993256302,148.142188254 158.185638929,148.427793702 C158.343856808,148.662679196 158.505890929,148.930903988 158.612700264,149.194108426 C158.693946614,149.394319394 158.75530788,149.620269439 158.736821514,149.838591337
C158.720283781,150.033900086 158.642116222,150.199401155 158.507223256,150.340820741 C158.351259261,150.504330849 158.13474402,150.619056096 157.927564393,150.702268121 C157.655444876,150.811562727 157.342268941,150.888683404 157.055379043,150.946071668
C156.712210955,151.014717586 156.34011781,151.067951961 155.993221887,151.113475258 C155.621661367,151.1622353 155.244092108,151.206518821 154.872884752,151.257480913 C154.533862291,151.304024423 154.169275893,151.360315345 153.835113507,151.434691655
C153.561762289,151.495532898 153.262798076,151.578352042 153.007946924,151.696600163 C152.813938295,151.786618024 152.61867308,151.909159684 152.487011184,152.08166391 C152.367880715,152.237749384 152.316320328,152.414023515 152.320802766,152.609386472
C152.326042566,152.837758388 152.407828823,153.072599561 152.503224717,153.277315867 C152.628362124,153.545856433 152.804321372,153.819688816 152.974524989,154.061421931 C153.176993033,154.34897887 153.410309094,154.645678829 153.630492427,154.919794614
C153.865653308,155.212556597 154.106021379,155.50432252 154.338495135,155.799094046 C154.549102627,156.066139638 154.771121876,156.358352675 154.957892854,156.642759678 C155.109870684,156.874185135 155.264529041,157.139423202 155.361681861,157.399715093
C155.435742508,157.598138421 155.486406891,157.819369102 155.456041155,158.032228794 C155.428251339,158.22703164 155.336749111,158.387349516 155.194771754,158.521721182 C155.027012092,158.680494001 154.80040092,158.791445625 154.58640683,158.871623997
C154.306176926,158.976619314 153.986316247,159.051047575 153.692898436,159.106852168 C153.345794749,159.17286718 152.970423274,159.224766199 152.620082924,159.269969344 C152.246980705,159.318109369 151.873740105,159.362072992 151.501392468,159.414637235
C151.166781158,159.461874248 150.806415958,159.519883005 150.477319511,159.597356945 C150.210920138,159.660071112 149.919488092,159.745891915 149.673794622,159.868773308 C149.486127477,159.962633353 149.302030533,160.089223764 149.182805465,160.265880515
C149.072448594,160.429397187 149.034025011,160.611200511 149.048239666,160.806328621 C149.065212409,161.039317691 149.156742297,161.278339341 149.259130392,161.485707153 C149.392925842,161.756684653 149.575434021,162.033143681 149.751344178,162.278223895
C149.958282035,162.566532286 150.194727457,162.864474558 150.417451227,163.140674371 C150.653971288,163.433982969 150.891280448,163.722457101 151.12325913,164.01909113 C151.330052255,164.283520073 151.547682192,164.573988417 151.728465417,164.857049469
C151.87405955,165.085013256 152.021068941,165.347140539 152.108250458,165.604351336 C152.175016497,165.801330542 152.21465326,166.017659692 152.172487526,166.224750941 C152.133014059,166.418619495 152.02824933,166.573911217 151.879613526,166.701533074
C151.70032932,166.855470299 151.463961331,166.96273635 151.243025656,167.040085616 C150.955037799,167.140909755 150.62877431,167.212753277 150.329019553,167.267070332 C149.978360853,167.330611435 149.60003222,167.381305741 149.246586218,167.426319558
C148.872307745,167.473986536 148.503708635,167.517753988 148.130638033,167.572090293 C147.800740764,167.620138568 147.444903589,167.679989099 147.121245396,167.760713911 C146.861893171,167.82539993 146.578275429,167.914320811 146.34207954,168.041926617
C146.160602596,168.139970288 145.988037934,168.270710089 145.881379213,168.451214923 C145.780399127,168.622109469 145.754925232,168.809483774 145.778370511,169.00435418 C145.80692728,169.241709824 145.907899265,169.484744509 146.017229885,169.694980716
C146.159337316,169.968244761 146.348114883,170.247213076 146.529519424,170.495571217"/>
      <path
          style="fill:none;stroke:#0F80FF;stroke-linecap:round;stroke-width:0.869471294673"
          id="6E4DF27A"
          d="M30.5440937757,171.664091957 C30.1866118788,171.730713756 29.799835368,171.792978516 29.441337691,171.853549462 C29.0928531942,171.912428604 28.71946611,171.978117336 28.3745152941,172.055345768 C28.0809557631,172.121068593 27.7609737225,172.20534345 27.4809567191,172.31663688
C27.26793335,172.401303529 27.0396246262,172.516429126 26.8713263599,172.675422403 C26.7323146369,172.806748351 26.6387753329,172.963262 26.6125913392,173.154697304 C26.5844798809,173.360224605 26.6390731134,173.570722649 26.7177150995,173.758912932
C26.8214510462,174.007153065 26.9848820193,174.257419804 27.1436622961,174.473291939 C27.3414730163,174.742228505 27.5761930364,175.016833389 27.7980220459,175.266102557 C28.0407073714,175.538807959 28.3067950868,175.82425324 28.5532301956,176.093542193
C28.7908014842,176.353145316 29.0435801569,176.633853292 29.2662017684,176.906478762 C29.4545718311,177.137159316 29.6520437794,177.399124429 29.8003521032,177.658012235 C29.9128814152,177.854444006 30.0174418815,178.083760905 30.0466175801,178.310692678
C30.0709753965,178.500150437 30.0419253865,178.67864235 29.9402407871,178.842283886 C29.8297864883,179.020038544 29.651597144,179.150836915 29.4707368499,179.249185595 C29.231593762,179.379227445 28.9449857826,179.474973679 28.6835070805,179.54698757
C28.3594922123,179.636224558 28.0033485082,179.707928755 27.6728516003,179.768070302 C27.3123817728,179.833666114 26.9286217042,179.89497131 26.567456313,179.956621565 C26.2221545878,180.015563922 25.8518208271,180.08231822 25.5105878184,180.161835812
C25.2235057427,180.228734601 24.9100649567,180.315271445 24.6380443198,180.430343017 C24.4321098309,180.517458486 24.2137480354,180.635771192 24.0572559376,180.79903221 C23.925157502,180.936844441 23.8452668412,181.097743973 23.8307509415,181.28937416
C23.8147967254,181.499992136 23.8806137411,181.714796446 23.9665324914,181.904116966 C24.0803360578,182.15488121 24.2514979775,182.407824227 24.4168469314,182.626863124 C24.6206322985,182.896819002 24.8597703298,183.172917789 25.0855331978,183.424593138
C25.3310254689,183.69826238 25.5951432201,183.9810371 25.8428222504,184.252747309 C26.0776716191,184.510383052 26.3272225489,184.790000684 26.5453088559,185.062083581 C26.7277407735,185.289684319 26.9185206235,185.549365056 27.0580220164,185.806256022
C27.163440599,186.0003837 27.2580357774,186.22602608 27.2751973473,186.448947578 C27.2898483396,186.639257741 27.2472469683,186.81286053 27.1365544837,186.969459361 C27.0134511292,187.143616093 26.8239521472,187.270957152 26.6365743811,187.365896257
C26.3881101964,187.491786151 26.0938999342,187.584937221 25.8253487106,187.655458592 C25.496183543,187.741897145 25.1357925088,187.812120284 24.8008706234,187.871794959 C24.4377756777,187.936489366 24.057387137,187.996959002 23.6939533575,188.05982361
C23.3521796882,188.11894158 22.9852251488,188.186875046 22.6480977489,188.268819427 C22.367688067,188.336977631 22.0610731017,188.425869113 21.7974070901,188.544830395 C21.5984299157,188.634605256 21.3903655202,188.756175806 21.2459482939,188.923590693
C21.1212315533,189.068167899 21.0550662607,189.233614405 21.0517357326,189.425021121 C21.047987817,189.640415257 21.1246783449,189.859352281 21.2178026788,190.050163235 C21.3413472374,190.303304965 21.5199639265,190.558817402 21.6917344774,190.78101905
C21.901110583,191.051867082 22.144352018,191.329352844 22.3737352934,191.583320973 C22.6216700678,191.857828915 22.8834660239,192.137813608 23.1319869438,192.411805678 C23.3637767797,192.667351878 23.6097747782,192.945769135 23.8229360491,193.217180238
C23.9992332759,193.441653589 24.1830409554,193.698947889 24.3133872617,193.953708439 C24.4116688822,194.145798882 24.4959735378,194.367603323 24.5010023672,194.586249695 C24.5053961141,194.777283581 24.4491157637,194.946096888 24.3300503942,195.095667273
C24.1944762283,195.265976073 23.9940479638,195.389935607 23.799984752,195.481773487 C23.5425523662,195.603600001 23.241025779,195.694242399 22.9655273522,195.763358582 C22.6315941135,195.847134707 22.2672716623,195.915986493 21.928246768,195.975298866
C21.5628926669,196.039217531 21.1862224581,196.098971317 20.820926574,196.163189161 C20.4830183702,196.222592338 20.1197654649,196.291817239 19.7871296179,196.376325642 C19.5135655601,196.445826454 19.2140594517,196.53716296 18.9591033351,196.660119034
C18.7669303715,196.752797074 18.5695267016,196.877696735 18.4374265337,197.049105783 C18.3206444874,197.200638515 18.2682061439,197.370781789 18.2755300614,197.561632812 C18.2839676672,197.781504988 18.3711892577,198.004401766 18.4714736631,198.197033882
C18.6044200706,198.452405069 18.790209537,198.710378425 18.9682445907,198.935732127 C19.1828251169,199.207344459 19.4298512744,199.486109108 19.6625320096,199.742252987 C19.9125419135,200.017473481 20.1716739485,200.294550814 20.4206267974,200.570683829
C20.6490277642,200.824021149 20.891151342,201.101129115 21.0989997162,201.371740016 C21.2689867808,201.593056892 21.4455424329,201.847859974 21.5663909254,202.100349943 C21.6575016469,202.290708489 21.7311802031,202.508505032 21.7240112034,202.722591666
C21.7175983135,202.914098719 21.6475835778,203.078255284 21.5207458586,203.220913577 C21.3729194161,203.387178534 21.161933459,203.507829054 20.9610214101,203.59683564 C20.6949783741,203.714696079 20.386422139,203.802918549 20.1041243346,203.870715467
C19.7658074881,203.951965972 19.3978733814,204.019557639 19.0550767285,204.078615226 C18.6878321463,204.141884743 18.3152168606,204.201038221 17.9484731406,204.266751587 C17.6147591387,204.326546667 17.2555265684,204.397173822 16.9277661312,204.484382854
C16.6611845538,204.55531369 16.3690759651,204.649183331 16.1231885598,204.776227994 C15.9376538818,204.872089718 15.7512853661,205.000391723 15.6317104183,205.175584268 C15.5234775046,205.334159286 15.4846890662,205.50912365 15.5021149045,205.699202702
C15.5226570228,205.923273778 15.6200769404,206.149961953 15.7274905639,206.344710062 C15.8694951453,206.602173899 16.0621785605,206.862505004 16.2462949803,207.0909741 C16.46569151,207.3632221 16.7161798393,207.643156402 16.9518263094,207.90135586
C17.2035414786,208.177161903 17.4596784678,208.451217802 17.7086449626,208.729348506 C17.9333366998,208.980360882 18.1712682985,209.256051792 18.3734181023,209.525734843 C18.5369404498,209.74388596 18.7059639076,209.996089948 18.8169789284,210.246161965
C18.9008672156,210.435128405 18.9635747845,210.64874345 18.9442057754,210.857967284 C18.9264663758,211.049588093 18.8427402759,211.209242209 18.7086615778,211.34520538 C18.548833172,211.50728017 18.3276493553,211.624692672 18.1197406517,211.711102045
C17.8454430802,211.825103435 17.5301405716,211.910997003 17.2412228857,211.977557824 C16.8989089203,212.056420074 16.527686572,212.122864277 16.181457855,212.181777467 C15.812693735,212.24452521 15.4444599939,212.303189509 15.0766895473,212.370544021
C14.7474889569,212.43083474 14.3925915277,212.502973404 14.0700880686,212.593018803 C13.8106111968,212.665466703 13.5261843947,212.761955333 13.2897154015,212.893175349 C13.1106521738,212.992540087 12.9357008205,213.124321522 12.828816342,213.303031775
C12.7297702223,213.468636336 12.7044859564,213.648510666 12.7314678897,213.837723107 C12.7639825037,214.065733808 12.871278456,214.296052124 12.9857956857,214.493171965 C13.1365085412,214.752595758 13.3358050772,215.015182765 13.5258015068,215.246716077
C13.749623842,215.519470291 14.0032481646,215.800463913 14.2415205589,216.060596067 C14.4945690826,216.336859952 14.7473901641,216.607782485 14.995945337,216.887766711 C15.2166171875,217.136341853 15.450043372,217.410509107 15.6461114269,217.679137323
C15.8030272995,217.894124058 15.9642424208,218.143621296 16.0651000905,218.391126931 C16.1416854284,218.579068043 16.1930700712,218.788328818 16.1615713803,218.992371499 C16.1320402827,219.183668475 16.0347002091,219.338982303 15.8938215888,219.468550936
C15.7222661977,219.626333554 15.4912312768,219.740578817 15.2762015544,219.824592988 C14.9940085335,219.934848503 14.672244896,220.018506447 14.3769080313,220.083914851 C14.030985224,220.160526549 13.656801463,220.225937241 13.3074880362,220.284819201
C12.9375771452,220.34717317 12.5740420902,220.405454709 12.2056714802,220.474599319 C11.881293069,220.535486419 11.5310415593,220.609244182 11.2141741873,220.70226053 C10.96189926,220.776315781 10.6854393804,220.875506934 10.4587335676,221.010978167
C10.2859892467,221.114203955 10.1228390447,221.249548137 10.028757312,221.431452772 C9.939524009048,221.603983092 9.927538938781,221.788813222 9.963563322338,221.977185207 C10.0078758059,222.208895777 10.1247357659,222.442691333 10.2463285865,222.642398836
C10.4053940591,222.903652486 10.6110198076,223.168393984 10.8066782831,223.402928567 C11.034534773,223.676058707 11.2909655584,223.958000276 11.531516644,224.219939917 C11.7855250112,224.49653339 12.0347199273,224.764212826 12.2824326795,225.04590574
C12.4987844479,225.291935706 12.7273960514,225.564473848 12.9170019799,225.831920773 C13.0671888107,226.043765447 13.220318819,226.290444854 13.3107061923,226.535228283 C13.3798668242,226.722526308 13.4195732515,226.927267031 13.3760967103,227.12580043
C13.3343826933,227.316285352 13.2235971386,227.46741866 13.0762532358,227.590959635"/>
      <line
          style="fill:none;stroke:#074080;stroke-linecap:round;stroke-width:1.984251968504;marker-end:url(#83EA566A_end_arrow)"
          id="F5A5B58A"
          x1="89.0773639042"
          y1="173.388582677"
          x2="104.78216281"
          y2="216.537163049"/>
      <path
          style="fill:none;stroke:#0F80FF;stroke-linecap:round;stroke-width:0.869471294673"
          id="06A5B58A"
          d="M87.2370071617,171.664091957 C86.8795252648,171.730713756 86.492748754,171.792978516 86.134251077,171.853549462 C85.7857665802,171.912428604 85.412379496,171.978117336 85.0674286801,172.055345768 C84.7738691491,172.121068593 84.4538871085,172.20534345 84.1738701051,172.31663688
C83.960846736,172.401303529 83.7325380122,172.516429126 83.5642397459,172.675422403 C83.4252280229,172.806748351 83.3316887189,172.963262 83.3055047252,173.154697304 C83.2773932669,173.360224605 83.3319864994,173.570722649 83.4106284855,173.758912932
C83.5143644322,174.007153065 83.6777954053,174.257419804 83.8365756821,174.473291939 C84.0343864023,174.742228505 84.2691064224,175.016833389 84.4909354319,175.266102557 C84.7336207574,175.538807959 84.9997084728,175.82425324 85.2461435816,176.093542193
C85.4837148702,176.353145316 85.7364935429,176.633853292 85.9591151544,176.906478762 C86.1474852171,177.137159316 86.3449571654,177.399124429 86.4932654892,177.658012235 C86.6057948012,177.854444006 86.7103552675,178.083760905 86.7395309661,178.310692678
C86.7638887825,178.500150437 86.7348387725,178.67864235 86.6331541731,178.842283886 C86.5226998743,179.020038544 86.34451053,179.150836915 86.1636502359,179.249185595 C85.924507148,179.379227445 85.6378991686,179.474973679 85.3764204665,179.54698757
C85.0524055983,179.636224558 84.6962618942,179.707928755 84.3657649863,179.768070302 C84.0052951588,179.833666114 83.6215350902,179.89497131 83.260369699,179.956621565 C82.9150679738,180.015563922 82.5447342131,180.08231822 82.2035012044,180.161835812
C81.9164191287,180.228734601 81.6029783427,180.315271445 81.3309577058,180.430343017 C81.1250232169,180.517458486 80.9066614214,180.635771192 80.7501693236,180.79903221 C80.618070888,180.936844441 80.5381802272,181.097743973 80.5236643275,181.28937416
C80.5077101114,181.499992136 80.5735271271,181.714796446 80.6594458774,181.904116966 C80.7732494438,182.15488121 80.9444113635,182.407824227 81.1097603174,182.626863124 C81.3135456845,182.896819002 81.5526837158,183.172917789 81.7784465838,183.424593138
C82.0239388549,183.69826238 82.2880566061,183.9810371 82.5357356364,184.252747309 C82.7705850051,184.510383052 83.0201359349,184.790000684 83.2382222419,185.062083581 C83.4206541595,185.289684319 83.6114340095,185.549365056 83.7509354024,185.806256022
C83.856353985,186.0003837 83.9509491634,186.22602608 83.9681107333,186.448947578 C83.9827617256,186.639257741 83.9401603543,186.81286053 83.8294678697,186.969459361 C83.7063645152,187.143616093 83.5168655332,187.270957152 83.3294877671,187.365896257
C83.0810235824,187.491786151 82.7868133202,187.584937221 82.5182620966,187.655458592 C82.189096929,187.741897145 81.8287058948,187.812120284 81.4937840094,187.871794959 C81.1306890637,187.936489366 80.750300523,187.996959002 80.3868667435,188.05982361
C80.0450930742,188.11894158 79.6781385348,188.186875046 79.3410111349,188.268819427 C79.060601453,188.336977631 78.7539864877,188.425869113 78.4903204761,188.544830395 C78.2913433017,188.634605256 78.0832789062,188.756175806 77.9388616799,188.923590693
C77.8141449393,189.068167899 77.7479796467,189.233614405 77.7446491186,189.425021121 C77.740901203,189.640415257 77.8175917309,189.859352281 77.9107160648,190.050163235 C78.0342606234,190.303304965 78.2128773125,190.558817402 78.3846478634,190.78101905
C78.594023969,191.051867082 78.837265404,191.329352844 79.0666486794,191.583320973 C79.3145834538,191.857828915 79.5763794099,192.137813608 79.8249003298,192.411805678 C80.0566901657,192.667351878 80.3026881642,192.945769135 80.5158494351,193.217180238
C80.6921466619,193.441653589 80.8759543414,193.698947889 81.0063006477,193.953708439 C81.1045822682,194.145798882 81.1888869238,194.367603323 81.1939157532,194.586249695 C81.1983095001,194.777283581 81.1420291497,194.946096888 81.0229637802,195.095667273
C80.8873896143,195.265976073 80.6869613498,195.389935607 80.492898138,195.481773487 C80.2354657522,195.603600001 79.933939165,195.694242399 79.6584407382,195.763358582 C79.3245074995,195.847134707 78.9601850483,195.915986493 78.621160154,195.975298866
C78.2558060529,196.039217531 77.8791358441,196.098971317 77.51383996,196.163189161 C77.1759317562,196.222592338 76.8126788509,196.291817239 76.4800430039,196.376325642 C76.2064789461,196.445826454 75.9069728377,196.53716296 75.6520167211,196.660119034
C75.4598437575,196.752797074 75.2624400876,196.877696735 75.1303399197,197.049105783 C75.0135578734,197.200638515 74.9611195299,197.370781789 74.9684434474,197.561632812 C74.9768810532,197.781504988 75.0641026437,198.004401766 75.1643870491,198.197033882
C75.2973334566,198.452405069 75.483122923,198.710378425 75.6611579767,198.935732127 C75.8757385029,199.207344459 76.1227646604,199.486109108 76.3554453956,199.742252987 C76.6054552995,200.017473481 76.8645873345,200.294550814 77.1135401834,200.570683829
C77.3419411502,200.824021149 77.584064728,201.101129115 77.7919131022,201.371740016 C77.9619001668,201.593056892 78.1384558189,201.847859974 78.2593043114,202.100349943 C78.3504150329,202.290708489 78.4240935891,202.508505032 78.4169245894,202.722591666
C78.4105116995,202.914098719 78.3404969638,203.078255284 78.2136592446,203.220913577 C78.0658328021,203.387178534 77.854846845,203.507829054 77.6539347961,203.59683564 C77.3878917601,203.714696079 77.079335525,203.802918549 76.7970377206,203.870715467
C76.4587208741,203.951965972 76.0907867674,204.019557639 75.7479901145,204.078615226 C75.3807455323,204.141884743 75.0081302466,204.201038221 74.6413865266,204.266751587 C74.3076725247,204.326546667 73.9484399544,204.397173822 73.6206795172,204.484382854
C73.3540979398,204.55531369 73.0619893511,204.649183331 72.8161019458,204.776227994 C72.6305672678,204.872089718 72.4441987521,205.000391723 72.3246238043,205.175584268 C72.2163908906,205.334159286 72.1776024522,205.50912365 72.1950282905,205.699202702
C72.2155704088,205.923273778 72.3129903264,206.149961953 72.4204039499,206.344710062 C72.5624085313,206.602173899 72.7550919465,206.862505004 72.9392083663,207.0909741 C73.158604896,207.3632221 73.4090932253,207.643156402 73.6447396954,207.90135586
C73.8964548646,208.177161903 74.1525918538,208.451217802 74.4015583486,208.729348506 C74.6262500858,208.980360882 74.8641816845,209.256051792 75.0663314883,209.525734843 C75.2298538358,209.74388596 75.3988772936,209.996089948 75.5098923144,210.246161965
C75.5937806016,210.435128405 75.6564881705,210.64874345 75.6371191614,210.857967284 C75.6193797618,211.049588093 75.5356536619,211.209242209 75.4015749638,211.34520538 C75.241746558,211.50728017 75.0205627413,211.624692672 74.8126540377,211.711102045
C74.5383564662,211.825103435 74.2230539576,211.910997003 73.9341362717,211.977557824 C73.5918223063,212.056420074 73.220599958,212.122864277 72.874371241,212.181777467 C72.505607121,212.24452521 72.1373733799,212.303189509 71.7696029333,212.370544021
C71.4404023429,212.43083474 71.0855049137,212.502973404 70.7630014546,212.593018803 C70.5035245828,212.665466703 70.2190977807,212.761955333 69.9826287875,212.893175349 C69.8035655598,212.992540087 69.6286142065,213.124321522 69.521729728,213.303031775
C69.4226836083,213.468636336 69.3973993424,213.648510666 69.4243812757,213.837723107 C69.4568958897,214.065733808 69.564191842,214.296052124 69.6787090717,214.493171965 C69.8294219272,214.752595758 70.0287184632,215.015182765 70.2187148928,215.246716077
C70.442537228,215.519470291 70.6961615506,215.800463913 70.9344339449,216.060596067 C71.1874824686,216.336859952 71.4403035501,216.607782485 71.688858723,216.887766711 C71.9095305735,217.136341853 72.142956758,217.410509107 72.3390248129,217.679137323
C72.4959406855,217.894124058 72.6571558068,218.143621296 72.7580134765,218.391126931 C72.8345988144,218.579068043 72.8859834572,218.788328818 72.8544847663,218.992371499 C72.8249536687,219.183668475 72.7276135951,219.338982303 72.5867349748,219.468550936
C72.4151795837,219.626333554 72.1841446628,219.740578817 71.9691149404,219.824592988 C71.6869219195,219.934848503 71.365158282,220.018506447 71.0698214173,220.083914851 C70.72389861,220.160526549 70.349714849,220.225937241 70.0004014222,220.284819201
C69.6304905312,220.34717317 69.2669554762,220.405454709 68.8985848662,220.474599319 C68.574206455,220.535486419 68.2239549453,220.609244182 67.9070875733,220.70226053 C67.654812646,220.776315781 67.3783527664,220.875506934 67.1516469536,221.010978167
C66.9789026327,221.114203955 66.8157524307,221.249548137 66.721670698,221.431452772 C66.632437395,221.603983092 66.6204523248,221.788813222 66.6564767083,221.977185207 C66.7007891919,222.208895777 66.8176491519,222.442691333 66.9392419725,222.642398836
C67.0983074451,222.903652486 67.3039331936,223.168393984 67.4995916691,223.402928567 C67.727448159,223.676058707 67.9838789444,223.958000276 68.22443003,224.219939917 C68.4784383972,224.49653339 68.7276333133,224.764212826 68.9753460655,225.04590574
C69.1916978339,225.291935706 69.4203094374,225.564473848 69.6099153659,225.831920773 C69.7601021967,226.043765447 69.913232205,226.290444854 70.0036195783,226.535228283 C70.0727802102,226.722526308 70.1124866375,226.927267031 70.0690100963,227.12580043
C70.0272960793,227.316285352 69.9165105246,227.46741866 69.7691666218,227.590959635"/>
      <line
          style="fill:none;stroke:#074080;stroke-linecap:round;stroke-width:1.984251968504;marker-end:url(#83EA566A_end_arrow)"
          id="2DEFF58A"
          x1="203.597048943"
          y1="173.388582677"
          x2="218.337206423"
          y2="216.47519685"/>
      <path
          style="fill:none;stroke:#0F80FF;stroke-linecap:round;stroke-width:0.869471294673"
          id="3DEFF58A"
          d="M201.756692201,171.664091957 C201.399210304,171.730713756 201.012433793,171.792978516 200.653936116,171.853549462 C200.305451619,171.912428604 199.932064535,171.978117336 199.587113719,172.055345768 C199.293554188,172.121068593 198.973572148,172.20534345 198.693555144,172.31663688
C198.480531775,172.401303529 198.252223051,172.516429126 198.083924785,172.675422403 C197.944913062,172.806748351 197.851373758,172.963262 197.825189764,173.154697304 C197.797078306,173.360224605 197.851671538,173.570722649 197.930313524,173.758912932
C198.034049471,174.007153065 198.197480444,174.257419804 198.356260721,174.473291939 C198.554071441,174.742228505 198.788791461,175.016833389 199.010620471,175.266102557 C199.253305796,175.538807959 199.519393512,175.82425324 199.765828621,176.093542193
C200.003399909,176.353145316 200.256178582,176.633853292 200.478800193,176.906478762 C200.667170256,177.137159316 200.864642204,177.399124429 201.012950528,177.658012235 C201.12547984,177.854444006 201.230040307,178.083760905 201.259216005,178.310692678
C201.283573822,178.500150437 201.254523812,178.67864235 201.152839212,178.842283886 C201.042384913,179.020038544 200.864195569,179.150836915 200.683335275,179.249185595 C200.444192187,179.379227445 200.157584208,179.474973679 199.896105506,179.54698757
C199.572090637,179.636224558 199.215946933,179.707928755 198.885450025,179.768070302 C198.524980198,179.833666114 198.141220129,179.89497131 197.780054738,179.956621565 C197.434753013,180.015563922 197.064419252,180.08231822 196.723186243,180.161835812
C196.436104168,180.228734601 196.122663382,180.315271445 195.850642745,180.430343017 C195.644708256,180.517458486 195.42634646,180.635771192 195.269854363,180.79903221 C195.137755927,180.936844441 195.057865266,181.097743973 195.043349366,181.28937416
C195.02739515,181.499992136 195.093212166,181.714796446 195.179130916,181.904116966 C195.292934483,182.15488121 195.464096403,182.407824227 195.629445356,182.626863124 C195.833230724,182.896819002 196.072368755,183.172917789 196.298131623,183.424593138
C196.543623894,183.69826238 196.807741645,183.9810371 197.055420675,184.252747309 C197.290270044,184.510383052 197.539820974,184.790000684 197.757907281,185.062083581 C197.940339198,185.289684319 198.131119049,185.549365056 198.270620441,185.806256022
C198.376039024,186.0003837 198.470634202,186.22602608 198.487795772,186.448947578 C198.502446765,186.639257741 198.459845393,186.81286053 198.349152909,186.969459361 C198.226049554,187.143616093 198.036550572,187.270957152 197.849172806,187.365896257
C197.600708621,187.491786151 197.306498359,187.584937221 197.037947136,187.655458592 C196.708781968,187.741897145 196.348390934,187.812120284 196.013469048,187.871794959 C195.650374103,187.936489366 195.269985562,187.996959002 194.906551783,188.05982361
C194.564778113,188.11894158 194.197823574,188.186875046 193.860696174,188.268819427 C193.580286492,188.336977631 193.273671527,188.425869113 193.010005515,188.544830395 C192.811028341,188.634605256 192.602963945,188.756175806 192.458546719,188.923590693
C192.333829978,189.068167899 192.267664686,189.233614405 192.264334158,189.425021121 C192.260586242,189.640415257 192.33727677,189.859352281 192.430401104,190.050163235 C192.553945662,190.303304965 192.732562351,190.558817402 192.904332902,190.78101905
C193.113709008,191.051867082 193.356950443,191.329352844 193.586333718,191.583320973 C193.834268493,191.857828915 194.096064449,192.137813608 194.344585369,192.411805678 C194.576375205,192.667351878 194.822373203,192.945769135 195.035534474,193.217180238
C195.211831701,193.441653589 195.39563938,193.698947889 195.525985687,193.953708439 C195.624267307,194.145798882 195.708571963,194.367603323 195.713600792,194.586249695 C195.717994539,194.777283581 195.661714189,194.946096888 195.542648819,195.095667273
C195.407074653,195.265976073 195.206646389,195.389935607 195.012583177,195.481773487 C194.755150791,195.603600001 194.453624204,195.694242399 194.178125777,195.763358582 C193.844192539,195.847134707 193.479870087,195.915986493 193.140845193,195.975298866
C192.775491092,196.039217531 192.398820883,196.098971317 192.033524999,196.163189161 C191.695616795,196.222592338 191.33236389,196.291817239 190.999728043,196.376325642 C190.726163985,196.445826454 190.426657877,196.53716296 190.17170176,196.660119034
C189.979528796,196.752797074 189.782125127,196.877696735 189.650024959,197.049105783 C189.533242912,197.200638515 189.480804569,197.370781789 189.488128486,197.561632812 C189.496566092,197.781504988 189.583787683,198.004401766 189.684072088,198.197033882
C189.817018496,198.452405069 190.002807962,198.710378425 190.180843016,198.935732127 C190.395423542,199.207344459 190.642449699,199.486109108 190.875130435,199.742252987 C191.125140338,200.017473481 191.384272374,200.294550814 191.633225222,200.570683829
C191.861626189,200.824021149 192.103749767,201.101129115 192.311598141,201.371740016 C192.481585206,201.593056892 192.658140858,201.847859974 192.77898935,202.100349943 C192.870100072,202.290708489 192.943778628,202.508505032 192.936609628,202.722591666
C192.930196738,202.914098719 192.860182003,203.078255284 192.733344284,203.220913577 C192.585517841,203.387178534 192.374531884,203.507829054 192.173619835,203.59683564 C191.907576799,203.714696079 191.599020564,203.802918549 191.31672276,203.870715467
C190.978405913,203.951965972 190.610471806,204.019557639 190.267675153,204.078615226 C189.900430571,204.141884743 189.527815286,204.201038221 189.161071566,204.266751587 C188.827357564,204.326546667 188.468124993,204.397173822 188.140364556,204.484382854
C187.873782979,204.55531369 187.58167439,204.649183331 187.335786985,204.776227994 C187.150252307,204.872089718 186.963883791,205.000391723 186.844308843,205.175584268 C186.73607593,205.334159286 186.697287491,205.50912365 186.71471333,205.699202702
C186.735255448,205.923273778 186.832675365,206.149961953 186.940088989,206.344710062 C187.08209357,206.602173899 187.274776986,206.862505004 187.458893405,207.0909741 C187.678289935,207.3632221 187.928778264,207.643156402 188.164424734,207.90135586
C188.416139904,208.177161903 188.672276893,208.451217802 188.921243388,208.729348506 C189.145935125,208.980360882 189.383866724,209.256051792 189.586016527,209.525734843 C189.749538875,209.74388596 189.918562333,209.996089948 190.029577353,210.246161965
C190.113465641,210.435128405 190.176173209,210.64874345 190.1568042,210.857967284 C190.139064801,211.049588093 190.055338701,211.209242209 189.921260003,211.34520538 C189.761431597,211.50728017 189.54024778,211.624692672 189.332339077,211.711102045
C189.058041505,211.825103435 188.742738997,211.910997003 188.453821311,211.977557824 C188.111507345,212.056420074 187.740284997,212.122864277 187.39405628,212.181777467 C187.02529216,212.24452521 186.657058419,212.303189509 186.289287972,212.370544021
C185.960087382,212.43083474 185.605189953,212.502973404 185.282686494,212.593018803 C185.023209622,212.665466703 184.73878282,212.761955333 184.502313827,212.893175349 C184.323250599,212.992540087 184.148299246,213.124321522 184.041414767,213.303031775
C183.942368647,213.468636336 183.917084381,213.648510666 183.944066315,213.837723107 C183.976580929,214.065733808 184.083876881,214.296052124 184.198394111,214.493171965 C184.349106966,214.752595758 184.548403502,215.015182765 184.738399932,215.246716077
C184.962222267,215.519470291 185.21584659,215.800463913 185.454118984,216.060596067 C185.707167508,216.336859952 185.959988589,216.607782485 186.208543762,216.887766711 C186.429215613,217.136341853 186.662641797,217.410509107 186.858709852,217.679137323
C187.015625725,217.894124058 187.176840846,218.143621296 187.277698515,218.391126931 C187.354283853,218.579068043 187.405668496,218.788328818 187.374169805,218.992371499 C187.344638708,219.183668475 187.247298634,219.338982303 187.106420014,219.468550936
C186.934864623,219.626333554 186.703829702,219.740578817 186.488799979,219.824592988 C186.206606959,219.934848503 185.884843321,220.018506447 185.589506456,220.083914851 C185.243583649,220.160526549 184.869399888,220.225937241 184.520086461,220.284819201
C184.15017557,220.34717317 183.786640515,220.405454709 183.418269905,220.474599319 C183.093891494,220.535486419 182.743639984,220.609244182 182.426772612,220.70226053 C182.174497685,220.776315781 181.898037805,220.875506934 181.671331993,221.010978167
C181.498587672,221.114203955 181.33543747,221.249548137 181.241355737,221.431452772 C181.152122434,221.603983092 181.140137364,221.788813222 181.176161747,221.977185207 C181.220474231,222.208895777 181.337334191,222.442691333 181.458927012,222.642398836
C181.617992484,222.903652486 181.823618233,223.168393984 182.019276708,223.402928567 C182.247133198,223.676058707 182.503563983,223.958000276 182.744115069,224.219939917 C182.998123436,224.49653339 183.247318352,224.764212826 183.495031105,225.04590574
C183.711382873,225.291935706 183.939994476,225.564473848 184.129600405,225.831920773 C184.279787236,226.043765447 184.432917244,226.290444854 184.523304617,226.535228283 C184.592465249,226.722526308 184.632171677,226.927267031 184.588695135,227.12580043
C184.546981118,227.316285352 184.436195564,227.46741866 184.288851661,227.590959635"/>
      <line
          style="fill:none;stroke:#074080;stroke-linecap:round;stroke-width:1.984251968504;marker-end:url(#83EA566A_end_arrow)"
          id="52EE468A"
          x1="148.037993825"
          y1="173.388582677"
          x2="161.644293037"
          y2="216.47519685"/>
      <line
          style="fill:none;stroke:#074080;stroke-linecap:round;stroke-width:1.984251968504;marker-end:url(#83EA566A_end_arrow)"
          id="3B5E478A"
          x1="145.770277289"
          y1="173.388582677"
          x2="133.297836345"
          y2="216.47519685"/>
      <text
          id="2358BF8A"
          style="stroke:none"
          font-family="Cambria Math"
          font-size="12"
          font-weight="normal"
          font-style="normal">
         <tspan x="234.6757891" y="51.7271653543">n = 1</tspan>
      </text>
      <text
          id="2563119A"
          style="stroke:none"
          font-family="Cambria Math"
          font-size="12"
          font-weight="normal"
          font-style="normal">
         <tspan x="234.6757891" y="108.42007874">n = 2</tspan>
      </text>
      <text
          id="4F34819A"
          style="stroke:none"
          font-family="Cambria Math"
          font-size="12"
          font-weight="normal"
          font-style="normal">
         <tspan x="234.6757891" y="165.112992125">n = 3</tspan>
      </text>
      <text
          id="D758B39A"
          style="stroke:none"
          font-family="Cambria Math"
          font-size="12"
          font-weight="normal"
          font-style="normal">
         <tspan x="234.6757891" y="221.805905511">n = 4</tspan>
      </text>
      <text
          id="04FEC89A"
          style="fill:#0096FF;stroke:none"
          font-family="Cambria Math"
          font-size="12"
          font-weight="normal"
          font-style="normal">
         <tspan x="75.9356316202" y="80.0736220473"></tspan>
      </text>
      <text
          id="79980A9A"
          style="fill:#0096FF;stroke:none"
          font-family="Cambria Math"
          font-size="12"
          font-weight="normal"
          font-style="normal">
         <tspan x="13.5734268962" y="187.79015748"></tspan>
      </text>
      <text
          id="B6CB2A9A"
          style="fill:#0096FF;stroke:none"
          font-family="Cambria Math"
          font-size="12"
          font-weight="normal"
          font-style="normal">
         <tspan x="70.2663402822" y="187.79015748"></tspan>
      </text>
      <text
          id="5DE963FA"
          style="fill:#005493;stroke:none"
          font-family="Times New Roman"
          font-size="14"
          font-weight="normal"
          font-style="normal">
         <tspan x="30.5813009122" y="137.766535433">e</tspan>
      </text>
      <text
          id="6DE963FA"
          style="fill:#005493;stroke:none"
          font-family="Times New Roman"
          font-size="18"
          font-weight="normal"
          font-style="normal"
          transform="matrix(0.439553244196,0,0,0.439553244196,19.7384281999,71.7563811468)">
         <tspan x="40.2190961862" y="144.034251967">+</tspan>
      </text>
      <text
          id="0FDE65FA"
          style="fill:#005493;stroke:none"
          font-family="Times New Roman"
          font-size="14"
          font-weight="normal"
          font-style="normal">
         <tspan x="75.9356316202" y="137.766535433">e</tspan>
      </text>
      <text
          id="1FDE65FA"
          style="fill:#005493;stroke:none"
          font-family="Times New Roman"
          font-size="18"
          font-weight="normal"
          font-style="normal"
          transform="matrix(0.439553244196,0,0,0.439553244196,45.1571157069,71.7563811468)">
         <tspan x="85.5734268942" y="144.034251967">-</tspan>
      </text>
      <text
          id="26C156FA"
          style="fill:#005493;stroke:none"
          font-family="Times New Roman"
          font-size="14"
          font-weight="normal"
          font-style="normal">
         <tspan x="41.9198835892" y="188.79015748">e</tspan>
      </text>
      <text
          id="36C156FA"
          style="fill:#005493;stroke:none"
          font-family="Times New Roman"
          font-size="18"
          font-weight="normal"
          font-style="normal"
          transform="matrix(0.439553244196,0,0,0.439553244196,26.0931000766,100.352404592)">
         <tspan x="51.5576788632" y="195.057874014">+</tspan>
      </text>
      <text
          id="8D5DD6FA"
          style="fill:#005493;stroke:none"
          font-family="Times New Roman"
          font-size="14"
          font-weight="normal"
          font-style="normal">
         <tspan x="98.6127969752" y="188.79015748">e</tspan>
      </text>
      <text
          id="9D5DD6FA"
          style="fill:#005493;stroke:none"
          font-family="Times New Roman"
          font-size="18"
          font-weight="normal"
          font-style="normal"
          transform="matrix(0.439553244196,0,0,0.439553244196,57.8664594609,100.352404592)">
         <tspan x="108.250592249" y="195.057874014">-</tspan>
      </text>
      <text
          id="FE32D57B"
          style="fill:#A9A9A9;stroke:none"
          font-family="Helvetica Neue"
          font-size="9"
          font-weight="normal"
          font-style="normal">
         <tspan x="200.660041069" y="242.483070866">J. A. Aguilar 2018</tspan>
      </text>
      <line
          style="fill:none;marker-start:url(#9FB2567B_start_arrow);marker-end:url(#9FB2567B_end_arrow)"
          id="9FB2567B"
          x1="2.904135557364"
          y1="69.0736220469"
          x2="2.904135557364"
          y2="103.089370078"/>
      <text
          id="A3BE2A7B"
          style="fill:#005493;stroke:none"
          font-family="Times New Roman"
          font-size="14"
          font-weight="normal"
          font-style="normal">
         <tspan x="121.289962329" y="30.0499999997">e</tspan>
      </text>
      <text
          id="C3BE2A7B"
          style="fill:#005493;stroke:none"
          font-family="Times New Roman"
          font-size="18"
          font-weight="normal"
          font-style="normal"
          transform="matrix(0.439553244196,0,0,0.439553244196,70.5758032143,11.3869983167)">
         <tspan x="130.927757603" y="36.3177165337">-</tspan>
      </text>
      <text
          id="EA6FDA7B"
          style="stroke:none"
          font-family="Cambria Math"
          font-size="12"
          font-weight="normal"
          font-style="normal">
         <tspan x="9.018530961144" y="86.3784692806">d</tspan>
      </text>
      <text
          id="B39CBB7B"
          style="stroke:none"
          font-family="Cambria Math"
          font-size="9"
          font-weight="normal"
          font-style="normal">
         <tspan x="16.862456207" y="88.4679554284">split</tspan>
      </text>
   </g>
</svg>
