<?xml version="1.0" encoding="UTF-8"?>
<!-- Created with EazyDraw for Mac ( http://www.eazydraw.com/ ) -->

<svg
    version="1.1"
    xmlns:dc="http://purl.org/dc/elements/1.1/"
    xmlns:cc="http://creativecommons.org/ns#"
    xmlns:rdf="http://www.w3.org/1999/02/22-rdf-syntax-ns#"
    xmlns:svg="http://www.w3.org/2000/svg"
    xmlns:xlink="http://www.w3.org/1999/xlink"
    xmlns="http://www.w3.org/2000/svg"
    width="273.759842521"
    height="251.433070866"
    viewBox="0, 0, 273.759842521, 251.433070866"
    preserveAspectRatio="none"
    id="svg2">
   <defs
       id="defs_19BA89FA">
      <marker
          orient="auto"
          refX="0.0"
          refY="0.0"
          id="83EA566A_end_arrow"
          style="overflow:visible"
          markerUnits="userSpaceOnUse">
         <path
             id="83EA566A_end_arrow_path"
             style="fill:#074080;fill-opacity:1;stroke:#074080;stroke-opacity:1;fill-rule:nonzero;stroke-linecap:round;stroke-linejoin:miter;stroke-width:0.496062992126;stroke-miterlimit:10"
             d="M10,0 L-2.216004070217,4.446261863234 C1.855811686793,2.963878158032 1.855811686793,-2.963878158032 -2.216004070217,-4.446261863234 z"/>
      </marker>
   </defs>
   <metadata
       id="metadata7">
      <rdf:RDF>
         <cc:Work
             rdf:about="">
            <dc:format>image/svg+xml</dc:format>
            <dc:type rdf:resource="http://purl.org/dc/dcmitype/StillImage"/>
            <dc:title></dc:title>
         </cc:Work>
      </rdf:RDF>
   </metadata>
   <g
       id="layer_Paper"
       style="fill:#000000;fill-opacity:1;stroke:#000000;stroke-opacity:1;fill-rule:nonzero;stroke-linecap:square;stroke-linejoin:miter;stroke-width:1;stroke-miterlimit:10">
      <line
          style="fill:none;stroke-dasharray:4,4"
          id="9E14FA8A"
          x1="0.5"
          y1="114.377952755"
          x2="261.287401575"
          y2="114.377952755"/>
      <line
          style="fill:none;stroke-dasharray:4,4"
          id="C8A5FC8A"
          x1="0.5"
          y1="57.6850393693"
          x2="261.287401575"
          y2="57.6850393693"/>
      <line
          style="fill:none;stroke-dasharray:4,4"
          id="7DA80D8A"
          x1="0.5"
          y1="227.763779527"
          x2="261.287401575"
          y2="227.763779527"/>
      <line
          style="fill:none;stroke-dasharray:4,4"
          id="267D7D8A"
          x1="0.5"
          y1="171.070866141"
          x2="261.287401575"
          y2="171.070866141"/>
      <line
          style="fill:none;stroke:#074080;stroke-linecap:round;stroke-width:1.984251968504;marker-end:url(#83EA566A_end_arrow)"
          id="83EA566A"
          x1="113.885826772"
          y1="0.992125984252"
          x2="113.885826772"
          y2="46.3464566926"/>
      <path
          style="fill:none;stroke:#0F80FF;stroke-linecap:round;stroke-width:0.869471294673"
          id="3D5C3A6A"
          d="M112.623748601,57.68503937 C112.669985509,58.0272041671 112.704172295,58.3941845622 112.695817886,58.7398463411 C112.688922158,59.0251555731 112.652685268,59.3239426449 112.552884745,59.5930842538 C112.465708092,59.8281818659 112.333558479,60.0317755657 112.141135374,60.1943015962
C111.940952013,60.3633821598 111.700005435,60.4672312828 111.448127469,60.5318334594 C111.146160044,60.6092826832 110.815375166,60.633271805 110.504705125,60.6345967972 C110.136400489,60.6361675981 109.746344918,60.6056505934 109.380251852,60.5676400334
C108.985525668,60.5266565659 108.565764781,60.4709871133 108.172012281,60.4221319449 C107.786342581,60.3742796568 107.378022502,60.3267461126 106.990125962,60.3013305561 C106.648130932,60.2789225347 106.282248286,60.2707921286 105.940676616,60.304691468
C105.659036941,60.3326428464 105.367091762,60.3915133807 105.109365579,60.5125613892 C104.882807219,60.618970594 104.692997067,60.768354402 104.548322146,60.9738125744 C104.396605081,61.1892715542 104.312766201,61.4406760015 104.268080747,61.6983212606
C104.214355921,62.008085301 104.214883247,62.3427816474 104.235959668,62.6554476894 C104.260867907,63.0249582553 104.318311805,63.4139953394 104.381090849,63.7787516431 C104.448627169,64.1711484823 104.531282715,64.5850412946 104.605326659,64.9762177625
C104.67735467,65.3567439961 104.749936563,65.7600608304 104.798345065,66.1444169435 C104.840850312,66.48190211 104.869979868,66.8440625006 104.854628471,67.1844243379 C104.841980418,67.4648492753 104.79829058,67.7562699445 104.689703143,68.0170441377
C104.593617277,68.2477956369 104.452048414,68.4422770069 104.253139932,68.5949980104 C104.042886403,68.7564296868 103.792918283,68.8523471226 103.536315445,68.9102013543 C103.227035224,68.979932343 102.889809192,68.9980670894 102.573739211,68.9950075387
C102.201422719,68.991403523 101.807681793,68.95745896 101.437742572,68.9172286387 C101.040672681,68.8740478988 100.623788738,68.818148891 100.22734671,68.7696989853 C99.8443284947,68.7228896284 99.4384039924,68.6775918565 99.0530230366,68.6559877271
C98.7160056613,68.6370948189 98.355378756,68.6338062372 98.0196913611,68.6744592757 C97.7432542513,68.7079368762 97.4592567346,68.7738609331 97.2105724682,68.9031347748 C96.989017006,69.0183062175 96.8089179487,69.1765590841 96.6743802278,69.3876844478
C96.5310439315,69.6126171098 96.4556106321,69.8724241261 96.4178244076,70.1343988357 C96.3721839704,70.4508273875 96.3788632315,70.7914629061 96.4045780226,71.1092206661 C96.4347666594,71.4822617528 96.4957444587,71.874636965 96.56086815,72.2429863545
C96.6306087662,72.637449765 96.7131665966,73.0483233806 96.786829769,73.4420704542 C96.857514639,73.8198977978 96.9275808219,74.2208448649 96.9718752397,74.6027948498 C97.0104566944,74.9354820537 97.0343035689,75.29259701 97.0117140212,75.6273850814
C96.9931153678,75.9030261606 96.9417771537,76.1868605757 96.8244032493,76.4390180815 C96.7190986539,76.665246767 96.5680014833,76.8506090259 96.3629589508,76.9936454392 C96.1427951661,77.1472303454 95.8839991178,77.2353867664 95.622586996,77.2867725623
C95.3062769403,77.3489496483 94.9628457179,77.3614264655 94.6414209272,77.3541504065 C94.265389801,77.3456382297 93.8682170547,77.308498987 93.4946531101,77.2662733125 C93.095518996,77.2211573225 92.681794664,77.1652921971 92.2829624383,77.1175297489
C91.9028506429,77.0720091798 91.499583925,77.029190671 91.1170195974,77.0116756881 C90.7851018426,76.9964794626 90.4299694779,76.9982415127 90.1004545657,77.0458662994 C89.8291269742,77.0850812732 89.5533073116,77.1582387812 89.3139076989,77.2957035226
C89.0975762026,77.4199224084 88.9271863997,77.5871432188 88.802618975,77.8036007384 C88.6678289604,78.0378217823 88.6006164503,78.3058419903 88.5694654475,78.5722552419 C88.5317188331,78.8950762549 88.5443373531,79.2414281223 88.5745184593,79.5642331215
C88.6097003826,79.9405248518 88.6739618135,80.3359991409 88.7411887643,80.7077304331 C88.8128529111,81.1039971918 88.8950355101,81.5115900751 88.9680138058,81.9076240086 C89.0370964519,82.2825172803 89.1043882771,82.6808495247 89.1442730613,83.0601111524
C89.1787446384,83.3878989711 89.1970867446,83.7397441522 89.1670282105,84.0686851384 C89.142267179,84.3396537121 89.0830872865,84.6156859522 88.9569656034,84.8589878397 C88.8421562753,85.080467014 88.6814435725,85.2567330058 88.4706028319,85.3902536325
C88.2407161398,85.5358356255 87.9732994561,85.6164046097 87.7069807823,85.6615833286 C87.3839253881,85.716386954 87.034525204,85.7234051909 86.7078112453,85.7120825627 C86.3283638304,85.698932399 85.928015078,85.6588342584 85.5510573659,85.6148433364
C85.1501409908,85.5680564411 84.7398512932,85.5124818694 84.3389349181,85.4656949741 C83.961977206,85.4217040521 83.5616284536,85.3816059115 83.1821810387,85.3684557478 C82.85546708,85.3571331196 82.5060668959,85.3641513565 82.1830115017,85.4189549819
C81.9166928279,85.4641337008 81.6492761442,85.544702685 81.4193894521,85.690284678 C81.2085487115,85.8238053047 81.0478360087,86.0000712965 80.9330266806,86.2215504708 C80.8069049975,86.4648523583 80.747725105,86.7408845984 80.7229640735,87.0118531721
C80.6929055394,87.3407941583 80.7112476456,87.6926393394 80.7457192227,88.0204271581 C80.7856040069,88.3996887858 80.8528958321,88.7980210302 80.9219784782,89.1729143019 C80.9952830817,89.5707190215 81.0768203675,89.9747771786 81.1488035197,90.3728078774
C81.2160304705,90.7445391696 81.2802919014,91.1400134587 81.3154738247,91.516305189 C81.3456549309,91.8391101882 81.3582734509,92.1854620556 81.3205268365,92.5082830686 C81.2893758337,92.7746963202 81.2221633236,93.0427165282 81.087373309,93.2769375721
C80.9628058843,93.4933950917 80.7924160814,93.6606159021 80.5760845851,93.7848347879 C80.3366849724,93.9222995293 80.0608653098,93.9954570373 79.7895377183,94.0346720112 C79.4600228061,94.0822967978 79.1048904414,94.0840588479 78.7729726866,94.0688626224
C78.390408359,94.0513476395 77.9871416411,94.0085291308 77.6070298457,93.9630085616 C77.2046153103,93.9148171113 76.7980263953,93.8597826123 76.3953391739,93.814264998 C76.0217752293,93.7720393235 75.624602483,93.7349000808 75.2485713568,93.726387904
C74.9271465661,93.719111845 74.5837153437,93.7315886622 74.267405288,93.7937657482 C74.0059931662,93.8451515441 73.7471971179,93.9333079651 73.5270333332,94.0868928713 C73.3219908007,94.2299292846 73.1708936301,94.4152915435 73.0655890347,94.641520229
C72.9482151303,94.8936777348 72.8968769162,95.1775121499 72.8782782628,95.4531532291 C72.8556887151,95.7879413005 72.8795355896,96.1450562568 72.9181170443,96.4777434607 C72.9624114621,96.8596934456 73.032477645,97.2606405127 73.103162515,97.6384678563
C73.1778225326,98.0375433036 73.2584523553,98.4378217507 73.329124134,98.837551956 C73.3942478253,99.2059013455 73.4552256246,99.5982765577 73.4854142614,99.9713176444 C73.5111290525,100.289075404 73.5178083136,100.629710923 73.4721678764,100.946139475
C73.4343816519,101.208114184 73.3589483525,101.467921201 73.2156120562,101.692853863 C73.0810743353,101.903979226 72.900975278,102.062232093 72.6794198158,102.177403536 C72.4307355494,102.306677377 72.1467380327,102.372601434 71.8703009229,102.406079035
C71.534613528,102.446732073 71.1739866227,102.443443492 70.8369692474,102.424550583 C70.4515882916,102.402946454 70.0456637893,102.357648682 69.6626455739,102.310839325 C69.2590187773,102.261511356 68.8563876553,102.207259051 68.4522497122,102.163309672
C68.0823104907,102.123079351 67.6885695647,102.089134788 67.3162530731,102.085530772 C67.000183092,102.082471221 66.66295706,102.100605968 66.3536768388,102.170336956 C66.0970740007,102.228191188 65.8471058806,102.324108624 65.6368523525,102.4855403
C65.4379438696,102.638261304 65.2963750067,102.832742674 65.2002891414,103.063494173 C65.0917017038,103.324268366 65.0480118665,103.615689035 65.0353638134,103.896113973 C65.0200124163,104.23647581 65.0491419723,104.5986362 65.0916472191,104.936121367
C65.1400557213,105.32047748 65.2126376135,105.723794314 65.2846656248,106.104320548 C65.3603943872,106.504397965 65.439862562,106.900659757 65.5089014349,107.301786667 C65.5716804792,107.666542971 65.6291243769,108.055580055 65.6540326157,108.425090621
C65.6751090373,108.737756663 65.6756363629,109.07245301 65.6219115366,109.38221705 C65.5772260826,109.639862309 65.4933872032,109.891266756 65.341670138,110.106725736 C65.1969952168,110.312183908 65.0071850649,110.461567717 64.7806267054,110.567976921
C64.5229005218,110.68902493 64.2309553431,110.747895464 63.9493156677,110.775846842 C63.6077439984,110.809746182 63.2418613523,110.801615776 62.8998663221,110.779207754 C62.5119697818,110.753792198 62.103649703,110.706258654 61.7179800035,110.658406366
C61.3134282994,110.608211277 60.9150035344,110.554975767 60.5097404318,110.512898277 C60.1436473664,110.474887717 59.7535917953,110.444370712 59.3852871593,110.445941513 C59.0746171176,110.447266506 58.7438322399,110.471255627 58.441864815,110.548704851
C58.1899868494,110.613307028 57.949040271,110.717156151 57.7488569099,110.886236714 C57.5564338048,111.048762745 57.4242841923,111.252356445 57.337107539,111.487454057 C57.2373070156,111.756595666 57.2010701265,112.055382737 57.1941743976,112.340691969
C57.1858199891,112.686353748 57.2200067755,113.053334143 57.266243683,113.395498941"/>
      <line
          style="fill:none;stroke:#074080;stroke-linecap:round;stroke-width:1.984251968504;marker-end:url(#83EA566A_end_arrow)"
          id="86D6DC6A"
          x1="59.460629921"
          y1="116.645669291"
          x2="79.8700787403"
          y2="159.732283464"/>
      <line
          style="fill:none;stroke:#074080;stroke-linecap:round;stroke-width:1.984251968504;marker-end:url(#83EA566A_end_arrow)"
          id="1A321D6A"
          x1="54.925196851"
          y1="116.645669291"
          x2="34.5157480317"
          y2="159.732283464"/>
      <line
          style="fill:none;stroke:#074080;stroke-linecap:round;stroke-width:1.984251968504;marker-end:url(#83EA566A_end_arrow)"
          id="B9EABD6A"
          x1="117.287401575"
          y1="58.8188976373"
          x2="159.240157481"
          y2="103.039370078"/>
      <line
          style="fill:none;stroke:#074080;stroke-linecap:round;stroke-width:1.984251968504;marker-end:url(#83EA566A_end_arrow)"
          id="86FE4F6A"
          x1="29.980314961"
          y1="173.338582677"
          x2="45.6851138674"
          y2="216.48716305"/>
      <line
          style="fill:none;stroke:#074080;stroke-linecap:round;stroke-width:1.984251968504;marker-end:url(#83EA566A_end_arrow)"
          id="3A47007A"
          x1="172.846456693"
          y1="116.645669291"
          x2="193.255905512"
          y2="159.732283464"/>
      <path
          style="fill:none;stroke:#0F80FF;stroke-linecap:round;stroke-width:0.869471294673"
          id="CF42407A"
          d="M168.677273071,115.511811024 C168.858677612,115.760169165 169.047455179,116.039137479 169.18956261,116.312401525 C169.29889323,116.522637732 169.399865215,116.765672417 169.428421984,117.00302806 C169.451867263,117.197898466 169.426393369,117.385272772 169.325413282,117.556167317
C169.218754561,117.736672152 169.046189899,117.867411953 168.864712955,117.965455623 C168.628517066,118.093061429 168.344899324,118.181982311 168.085547099,118.246668329 C167.761888907,118.327393142 167.406051731,118.387243672 167.076154462,118.435291947
C166.714371632,118.487984231 166.322807109,118.534882934 165.960206277,118.581062682 C165.606760275,118.626076499 165.228431642,118.676770805 164.877772942,118.740311909 C164.578018185,118.794628964 164.251754696,118.866472485 163.963766839,118.967296625
C163.742831164,119.04464589 163.506463175,119.151911942 163.327178969,119.305849166 C163.178543165,119.433471023 163.073778437,119.588762746 163.034304969,119.782631299 C162.992139235,119.989722549 163.031775998,120.206051698 163.098542037,120.403030905
C163.185723554,120.660241702 163.332732946,120.922368985 163.478327079,121.150332772 C163.659110303,121.433393823 163.876740241,121.723862167 164.083533365,121.98829111 C164.309634657,122.277409647 164.558969429,122.581023683 164.789341268,122.866707869
C165.012065038,123.142907682 165.248510461,123.440849954 165.455448318,123.729158346 C165.631358474,123.97423856 165.813866653,124.250697588 165.947662103,124.521675087 C166.050050198,124.7290429 166.141580086,124.968064549 166.158552829,125.201053619
C166.172767484,125.396181729 166.134343901,125.577985054 166.02398703,125.741501725 C165.904761962,125.918158476 165.720665019,126.044748888 165.532997874,126.138608933 C165.287304403,126.261490326 164.995872357,126.347311129 164.729472984,126.410025295
C164.400376537,126.487499236 164.040011337,126.545507992 163.705400027,126.592745006 C163.340636578,126.64423859 162.952054222,126.690273802 162.586709571,126.737412897 C162.236369222,126.782616041 161.860997746,126.834515061 161.51389406,126.900530072
C161.220476248,126.956334666 160.900615569,127.030762926 160.620385665,127.135758243 C160.406391575,127.215936615 160.179780403,127.32688824 160.012020742,127.485661058 C159.870043384,127.620032725 159.778541157,127.7803506 159.75075134,127.975153446
C159.720385605,128.188013138 159.771049988,128.40924382 159.845110635,128.607667148 C159.942263454,128.867959039 160.096921812,129.133197106 160.248899641,129.364622563 C160.435670619,129.649029566 160.657689868,129.941242602 160.86829736,130.208288195
C161.097201974,130.498534128 161.344805879,130.799390467 161.576300068,131.087587627 C161.796483401,131.361703412 162.029799462,131.65840337 162.232267506,131.94596031 C162.402471123,132.187693424 162.578430372,132.461525807 162.703567778,132.730066373
C162.798963672,132.934782679 162.880749929,133.169623853 162.885989729,133.397995769 C162.890472167,133.593358725 162.83891178,133.769632856 162.719781311,133.92571833 C162.588119416,134.098222557 162.3928542,134.220764216 162.198845571,134.310782078
C161.943994419,134.429030198 161.645030206,134.511849342 161.371678988,134.572690585 C161.037516603,134.647066895 160.672930205,134.703357817 160.333907743,134.749901328 C159.966519111,134.800339156 159.581269041,134.845653764 159.213570608,134.893906983
C158.866674685,134.939430279 158.49458154,134.992664654 158.151413453,135.061310573 C157.864523554,135.118698836 157.551347619,135.195819513 157.279228102,135.30511412 C157.072048475,135.388326144 156.855533235,135.503051392 156.69956924,135.6665615
C156.564676273,135.807981085 156.486508714,135.973482154 156.469970981,136.168790904 C156.451484615,136.387112802 156.512845881,136.613062847 156.594092232,136.813273814 C156.700901566,137.076478253 156.862935687,137.344703045 157.021153566,137.579588539
C157.213536193,137.865193986 157.43963551,138.159028059 157.653752317,138.42856316 C157.885103188,138.719792892 158.130629154,139.017753353 158.362853085,139.308304193 C158.580164746,139.580197296 158.810030924,139.875527441 159.007646621,140.162183126
C159.171947326,140.400513037 159.341081091,140.671601002 159.457220717,140.937551689 C159.545572597,141.139870604 159.617305384,141.370356499 159.610707934,141.593844555 C159.604937856,141.789305445 159.540108188,141.960133837 159.412809352,142.10882245
C159.268888198,142.276926397 159.062818671,142.39551426 158.862305214,142.481994832 C158.598645704,142.595710019 158.292434966,142.675628421 158.012242651,142.734695384 C157.673388992,142.806128666 157.304892047,142.860827547 156.961771593,142.90679871
C156.592116363,142.956324993 156.210540575,143.001057248 155.840885345,143.050583531 C155.497764891,143.096554693 155.129267946,143.151253575 154.790414287,143.222686857 C154.510221972,143.28175382 154.204011234,143.361672221 153.940351724,143.475387409
C153.739838267,143.56186798 153.53376874,143.680455844 153.389847586,143.84855979 C153.26254875,143.997248403 153.197719082,144.168076795 153.191949004,144.363537686 C153.185351554,144.587025741 153.257084341,144.817511637 153.345436221,145.019830552
C153.461575847,145.285781239 153.630709612,145.556869203 153.795010317,145.795199114 C153.992626014,146.0818548 154.222492192,146.377184944 154.439803853,146.649078047 C154.673240981,146.941146798 154.916351396,147.236075798 155.148904621,147.528819081
C155.363021428,147.798354181 155.589120745,148.092188254 155.781503372,148.377793702 C155.939721251,148.612679196 156.101755372,148.880903988 156.208564706,149.144108426 C156.289811057,149.344319394 156.351172323,149.570269439 156.332685957,149.788591337
C156.316148224,149.983900086 156.237980665,150.149401155 156.103087698,150.290820741 C155.947123703,150.454330849 155.730608463,150.569056096 155.523428836,150.652268121 C155.251309319,150.761562727 154.938133384,150.838683404 154.651243485,150.896071668
C154.308075398,150.964717586 153.935982253,151.017951961 153.58908633,151.063475258 C153.217525809,151.1122353 152.839956551,151.156518821 152.468749195,151.207480913 C152.129726733,151.254024423 151.765140335,151.310315345 151.43097795,151.384691655
C151.157626732,151.445532898 150.858662519,151.528352042 150.603811367,151.646600163 C150.409802738,151.736618024 150.214537522,151.859159684 150.082875627,152.03166391 C149.963745158,152.187749384 149.912184771,152.364023515 149.916667209,152.559386472
C149.921907009,152.787758388 150.003693266,153.022599561 150.09908916,153.227315867 C150.224226566,153.495856433 150.400185815,153.769688816 150.570389432,154.011421931 C150.772857476,154.29897887 151.006173537,154.595678829 151.22635687,154.869794614
C151.461517751,155.162556597 151.701885822,155.45432252 151.934359578,155.749094046 C152.14496707,156.016139638 152.366986319,156.308352675 152.553757297,156.592759678 C152.705735126,156.824185135 152.860393484,157.089423202 152.957546303,157.349715093
C153.03160695,157.548138421 153.082271333,157.769369102 153.051905598,157.982228794 C153.024115781,158.17703164 152.932613554,158.337349516 152.790636196,158.471721182 C152.622876535,158.630494001 152.396265363,158.741445625 152.182271273,158.821623997
C151.902041369,158.926619314 151.58218069,159.001047575 151.288762878,159.056852168 C150.941659192,159.12286718 150.566287716,159.174766199 150.215947367,159.219969344 C149.842845148,159.268109369 149.469604548,159.312072992 149.097256911,159.364637235
C148.762645601,159.411874248 148.402280401,159.469883005 148.073183954,159.547356945 C147.806784581,159.610071112 147.515352535,159.695891915 147.269659064,159.818773308 C147.081991919,159.912633353 146.897894976,160.039223764 146.778669908,160.215880515
C146.668313037,160.379397187 146.629889454,160.561200511 146.644104109,160.756328621 C146.661076852,160.989317691 146.75260674,161.228339341 146.854994835,161.435707153 C146.988790285,161.706684653 147.171298464,161.983143681 147.34720862,162.228223895
C147.554146477,162.516532286 147.7905919,162.814474558 148.01331567,163.090674371 C148.249835731,163.383982969 148.487144891,163.672457101 148.719123573,163.96909113 C148.925916697,164.233520073 149.143546635,164.523988417 149.324329859,164.807049469
C149.469923992,165.035013256 149.616933384,165.297140539 149.704114901,165.554351336 C149.77088094,165.751330542 149.810517703,165.967659692 149.768351969,166.174750941 C149.728878501,166.368619495 149.624113773,166.523911217 149.475477969,166.651533074
C149.296193763,166.805470299 149.059825774,166.91273635 148.838890099,166.990085616 C148.550902242,167.090909755 148.224638753,167.162753277 147.924883996,167.217070332 C147.574225296,167.280611435 147.195896663,167.331305741 146.842450661,167.376319558
C146.468172188,167.423986536 146.099573078,167.467753988 145.726502476,167.522090293 C145.396605207,167.570138568 145.040768031,167.629989099 144.717109839,167.710713911 C144.457757614,167.77539993 144.174139872,167.864320811 143.937943983,167.991926617
C143.756467039,168.089970288 143.583902377,168.220710089 143.477243656,168.401214923 C143.376263569,168.572109469 143.350789675,168.759483774 143.374234954,168.95435418 C143.402791723,169.191709824 143.503763708,169.434744509 143.613094328,169.644980716
C143.755201759,169.918244761 143.943979326,170.197213076 144.125383867,170.445571217"/>
      <path
          style="fill:none;stroke:#0F80FF;stroke-linecap:round;stroke-width:0.869471294673"
          id="6E4DF27A"
          d="M28.1399582185,171.614091957 C27.7824763216,171.680713756 27.3956998108,171.742978516 27.0372021338,171.803549462 C26.688717637,171.862428604 26.3153305528,171.928117336 25.9703797369,172.005345768 C25.6768202059,172.071068593 25.3568381654,172.15534345 25.0768211619,172.26663688
C24.8637977928,172.351303529 24.635489069,172.466429126 24.4671908027,172.625422403 C24.3281790797,172.756748351 24.2346397757,172.913262 24.208455782,173.104697304 C24.1803443237,173.310224605 24.2349375563,173.520722649 24.3135795423,173.708912932
C24.417315489,173.957153065 24.5807464621,174.207419804 24.7395267389,174.423291939 C24.9373374591,174.692228505 25.1720574792,174.966833389 25.3938864887,175.216102557 C25.6365718143,175.488807959 25.9026595296,175.77425324 26.1490946385,176.043542193
C26.386665927,176.303145316 26.6394445997,176.583853292 26.8620662112,176.856478762 C27.0504362739,177.087159316 27.2479082222,177.349124429 27.3962165461,177.608012235 C27.508745858,177.804444006 27.6133063243,178.033760905 27.6424820229,178.260692678
C27.6668398393,178.450150437 27.6377898293,178.62864235 27.5361052299,178.792283886 C27.4256509311,178.970038544 27.2474615868,179.100836915 27.0666012928,179.199185595 C26.8274582048,179.329227445 26.5408502254,179.424973679 26.2793715233,179.49698757
C25.9553566551,179.586224558 25.599212951,179.657928755 25.2687160431,179.718070302 C24.9082462156,179.783666114 24.524486147,179.84497131 24.1633207559,179.906621565 C23.8180190306,179.965563922 23.4476852699,180.03231822 23.1064522612,180.111835812
C22.8193701855,180.178734601 22.5059293995,180.265271445 22.2339087626,180.380343017 C22.0279742737,180.467458486 21.8096124782,180.585771192 21.6531203805,180.74903221 C21.5210219448,180.886844441 21.441131284,181.047743973 21.4266153843,181.23937416
C21.4106611682,181.449992136 21.4764781839,181.664796446 21.5623969342,181.854116966 C21.6762005007,182.10488121 21.8473624203,182.357824227 22.0127113742,182.576863124 C22.2164967414,182.846819002 22.4556347726,183.122917789 22.6813976406,183.374593138
C22.9268899117,183.64826238 23.1910076629,183.9310371 23.4386866932,184.202747309 C23.673536062,184.460383052 23.9230869917,184.740000684 24.1411732988,185.012083581 C24.3236052163,185.239684319 24.5143850663,185.499365056 24.6538864593,185.756256022
C24.7593050418,185.9503837 24.8539002203,186.17602608 24.8710617901,186.398947578 C24.8857127824,186.589257741 24.8431114111,186.76286053 24.7324189265,186.919459361 C24.6093155721,187.093616093 24.41981659,187.220957152 24.2324388239,187.315896257
C23.9839746392,187.441786151 23.689764377,187.534937221 23.4212131534,187.605458592 C23.0920479858,187.691897145 22.7316569516,187.762120284 22.3967350662,187.821794959 C22.0336401205,187.886489366 21.6532515798,187.946959002 21.2898178003,188.00982361
C20.948044131,188.06894158 20.5810895916,188.136875046 20.2439621917,188.218819427 C19.9635525099,188.286977631 19.6569375445,188.375869113 19.3932715329,188.494830395 C19.1942943585,188.584605256 18.986229963,188.706175806 18.8418127367,188.873590693
C18.7170959961,189.018167899 18.6509307035,189.183614405 18.6476001755,189.375021121 C18.6438522599,189.590415257 18.7205427877,189.809352281 18.8136671217,190.000163235 C18.9372116803,190.253304965 19.1158283693,190.508817402 19.2875989202,190.73101905
C19.4969750258,191.001867082 19.7402164608,191.279352844 19.9695997363,191.533320973 C20.2175345106,191.807828915 20.4793304667,192.087813608 20.7278513866,192.361805678 C20.9596412225,192.617351878 21.205639221,192.895769135 21.4188004919,193.167180238
C21.5950977187,193.391653589 21.7789053982,193.648947889 21.9092517045,193.903708439 C22.007533325,194.095798882 22.0918379806,194.317603323 22.09686681,194.536249695 C22.1012605569,194.727283581 22.0449802065,194.896096888 21.925914837,195.045667273
C21.7903406711,195.215976073 21.5899124066,195.339935607 21.3958491948,195.431773487 C21.138416809,195.553600001 20.8368902218,195.644242399 20.561391795,195.713358582 C20.2274585563,195.797134707 19.8631361051,195.865986493 19.5241112108,195.925298866
C19.1587571097,195.989217531 18.7820869009,196.048971317 18.4167910168,196.113189161 C18.078882813,196.172592338 17.7156299077,196.241817239 17.3829940607,196.326325642 C17.1094300029,196.395826454 16.8099238945,196.48716296 16.5549677779,196.610119034
C16.3627948143,196.702797074 16.1653911444,196.827696735 16.0332909765,196.999105783 C15.9165089302,197.150638515 15.8640705867,197.320781789 15.8713945042,197.511632812 C15.87983211,197.731504988 15.9670537005,197.954401766 16.0673381059,198.147033882
C16.2002845134,198.402405069 16.3860739798,198.660378425 16.5641090335,198.885732127 C16.7786895597,199.157344459 17.0257157173,199.436109108 17.2583964524,199.692252987 C17.5084063563,199.967473481 17.7675383913,200.244550814 18.0164912402,200.520683829
C18.244892207,200.774021149 18.4870157848,201.051129115 18.694864159,201.321740016 C18.8648512236,201.543056892 19.0414068757,201.797859974 19.1622553682,202.050349943 C19.2533660897,202.240708489 19.3270446459,202.458505032 19.3198756462,202.672591666
C19.3134627563,202.864098719 19.2434480206,203.028255284 19.1166103014,203.170913577 C18.9687838589,203.337178534 18.7577979018,203.457829054 18.5568858529,203.54683564 C18.2908428169,203.664696079 17.9822865818,203.752918549 17.6999887775,203.820715467
C17.3616719309,203.901965972 16.9937378243,203.969557639 16.6509411713,204.028615226 C16.2836965892,204.091884743 15.9110813034,204.151038221 15.5443375834,204.216751587 C15.2106235815,204.276546667 14.8513910113,204.347173822 14.523630574,204.434382854
C14.2570489966,204.50531369 13.9649404079,204.599183331 13.7190530026,204.726227994 C13.5335183246,204.822089718 13.3471498089,204.950391723 13.2275748611,205.125584268 C13.1193419474,205.284159286 13.080553509,205.45912365 13.0979793473,205.649202702
C13.1185214656,205.873273778 13.2159413832,206.099961953 13.3233550067,206.294710062 C13.4653595881,206.552173899 13.6580430033,206.812505004 13.8421594231,207.0409741 C14.0615559529,207.3132221 14.3120442821,207.593156402 14.5476907522,207.85135586
C14.7994059214,208.127161903 15.0555429106,208.401217802 15.3045094054,208.679348506 C15.5292011426,208.930360882 15.7671327413,209.206051792 15.9692825451,209.475734843 C16.1328048926,209.69388596 16.3018283505,209.946089948 16.4128433712,210.196161965
C16.4967316585,210.385128405 16.5594392273,210.59874345 16.5400702182,210.807967284 C16.5223308186,210.999588093 16.4386047187,211.159242209 16.3045260206,211.29520538 C16.1446976148,211.45728017 15.9235137981,211.574692672 15.7156050945,211.661102045
C15.441307523,211.775103435 15.1260050144,211.860997003 14.8370873285,211.927557824 C14.4947733631,212.006420074 14.1235510148,212.072864277 13.7773222978,212.131777467 C13.4085581778,212.19452521 13.0403244367,212.253189509 12.6725539901,212.320544021
C12.3433533997,212.38083474 11.9884559705,212.452973404 11.6659525115,212.543018803 C11.4064756396,212.615466703 11.1220488375,212.711955333 10.8855798443,212.843175349 C10.7065166166,212.942540087 10.5315652634,213.074321522 10.4246807848,213.253031775
C10.3256346651,213.418636336 10.3003503993,213.598510666 10.3273323325,213.787723107 C10.3598469465,214.015733808 10.4671428989,214.246052124 10.5816601285,214.443171965 C10.732372984,214.702595758 10.9316695201,214.965182765 11.1216659496,215.196716077
C11.3454882848,215.469470291 11.5991126075,215.750463913 11.8373850017,216.010596067 C12.0904335254,216.286859952 12.343254607,216.557782485 12.5918097798,216.837766711 C12.8124816303,217.086341853 13.0459078149,217.360509107 13.2419758697,217.629137323
C13.3988917423,217.844124058 13.5601068636,218.093621296 13.6609645333,218.341126931 C13.7375498712,218.529068043 13.7889345141,218.738328818 13.7574358231,218.942371499 C13.7279047255,219.133668475 13.6305646519,219.288982303 13.4896860316,219.418550936
C13.3181306405,219.576333554 13.0870957196,219.690578817 12.8720659972,219.774592988 C12.5898729764,219.884848503 12.2681093388,219.968506447 11.9727724741,220.033914851 C11.6268496668,220.110526549 11.2526659059,220.175937241 10.903352479,220.234819201
C10.533441588,220.29717317 10.169906533,220.355454709 9.801535923036,220.424599319 C9.477157511861,220.485486419 9.126906002131,220.559244182 8.810038630116,220.65226053 C8.5577637028,220.726315781 8.281303823253,220.825506934 8.054598010428,220.960978167
C7.881853689564,221.064203955 7.71870348755,221.199548137 7.624621754858,221.381452772 C7.535388451865,221.553983092 7.523403381597,221.738813222 7.559427765154,221.927185207 C7.603740248715,222.158895777 7.720600208698,222.392691333 7.842193029362,222.592398836
C8.001258501965,222.853652486 8.206884250402,223.118393984 8.402542725934,223.352928567 C8.63039921584,223.626058707 8.886830001205,223.908000276 9.127381086826,224.169939917 C9.381389453969,224.44653339 9.630584370158,224.714212826 9.878297122362,224.99590574
C10.0946488908,225.241935706 10.3232604942,225.514473848 10.5128664228,225.781920773 C10.6630532535,225.993765447 10.8161832618,226.240444854 10.9065706351,226.485228283 C10.9757312671,226.672526308 11.0154376943,226.877267031 10.9719611531,227.07580043
C10.9302471361,227.266285352 10.8194615814,227.41741866 10.6721176787,227.540959635"/>
      <line
          style="fill:none;stroke:#074080;stroke-linecap:round;stroke-width:1.984251968504;marker-end:url(#83EA566A_end_arrow)"
          id="F5A5B58A"
          x1="86.673228347"
          y1="173.338582677"
          x2="102.378027253"
          y2="216.48716305"/>
      <path
          style="fill:none;stroke:#0F80FF;stroke-linecap:round;stroke-width:0.869471294673"
          id="06A5B58A"
          d="M84.8328716045,171.614091957 C84.4753897076,171.680713756 84.0886131968,171.742978516 83.7301155198,171.803549462 C83.381631023,171.862428604 83.0082439388,171.928117336 82.6632931229,172.005345768 C82.3697335919,172.071068593 82.0497515514,172.15534345 81.7697345479,172.26663688
C81.5567111788,172.351303529 81.328402455,172.466429126 81.1601041887,172.625422403 C81.0210924657,172.756748351 80.9275531617,172.913262 80.901369168,173.104697304 C80.8732577097,173.310224605 80.9278509423,173.520722649 81.0064929283,173.708912932
C81.110228875,173.957153065 81.2736598481,174.207419804 81.4324401249,174.423291939 C81.6302508451,174.692228505 81.8649708652,174.966833389 82.0867998747,175.216102557 C82.3294852003,175.488807959 82.5955729156,175.77425324 82.8420080245,176.043542193
C83.079579313,176.303145316 83.3323579857,176.583853292 83.5549795972,176.856478762 C83.7433496599,177.087159316 83.9408216082,177.349124429 84.0891299321,177.608012235 C84.201659244,177.804444006 84.3062197103,178.033760905 84.3353954089,178.260692678
C84.3597532253,178.450150437 84.3307032153,178.62864235 84.2290186159,178.792283886 C84.1185643171,178.970038544 83.9403749728,179.100836915 83.7595146788,179.199185595 C83.5203715908,179.329227445 83.2337636114,179.424973679 82.9722849093,179.49698757
C82.6482700411,179.586224558 82.292126337,179.657928755 81.9616294291,179.718070302 C81.6011596016,179.783666114 81.217399533,179.84497131 80.8562341419,179.906621565 C80.5109324166,179.965563922 80.1405986559,180.03231822 79.7993656472,180.111835812
C79.5122835715,180.178734601 79.1988427855,180.265271445 78.9268221486,180.380343017 C78.7208876597,180.467458486 78.5025258642,180.585771192 78.3460337665,180.74903221 C78.2139353308,180.886844441 78.13404467,181.047743973 78.1195287703,181.23937416
C78.1035745542,181.449992136 78.1693915699,181.664796446 78.2553103202,181.854116966 C78.3691138867,182.10488121 78.5402758063,182.357824227 78.7056247602,182.576863124 C78.9094101274,182.846819002 79.1485481586,183.122917789 79.3743110266,183.374593138
C79.6198032977,183.64826238 79.8839210489,183.9310371 80.1316000792,184.202747309 C80.366449448,184.460383052 80.6160003777,184.740000684 80.8340866848,185.012083581 C81.0165186023,185.239684319 81.2072984523,185.499365056 81.3467998453,185.756256022
C81.4522184278,185.9503837 81.5468136063,186.17602608 81.5639751761,186.398947578 C81.5786261684,186.589257741 81.5360247971,186.76286053 81.4253323125,186.919459361 C81.3022289581,187.093616093 81.112729976,187.220957152 80.9253522099,187.315896257
C80.6768880252,187.441786151 80.382677763,187.534937221 80.1141265394,187.605458592 C79.7849613718,187.691897145 79.4245703376,187.762120284 79.0896484522,187.821794959 C78.7265535065,187.886489366 78.3461649658,187.946959002 77.9827311863,188.00982361
C77.640957517,188.06894158 77.2740029776,188.136875046 76.9368755777,188.218819427 C76.6564658959,188.286977631 76.3498509305,188.375869113 76.0861849189,188.494830395 C75.8872077445,188.584605256 75.679143349,188.706175806 75.5347261227,188.873590693
C75.4100093821,189.018167899 75.3438440895,189.183614405 75.3405135615,189.375021121 C75.3367656459,189.590415257 75.4134561737,189.809352281 75.5065805077,190.000163235 C75.6301250663,190.253304965 75.8087417553,190.508817402 75.9805123062,190.73101905
C76.1898884118,191.001867082 76.4331298468,191.279352844 76.6625131223,191.533320973 C76.9104478966,191.807828915 77.1722438527,192.087813608 77.4207647726,192.361805678 C77.6525546085,192.617351878 77.898552607,192.895769135 78.1117138779,193.167180238
C78.2880111047,193.391653589 78.4718187842,193.648947889 78.6021650905,193.903708439 C78.700446711,194.095798882 78.7847513666,194.317603323 78.789780196,194.536249695 C78.7941739429,194.727283581 78.7378935925,194.896096888 78.618828223,195.045667273
C78.4832540571,195.215976073 78.2828257926,195.339935607 78.0887625808,195.431773487 C77.831330195,195.553600001 77.5298036078,195.644242399 77.254305181,195.713358582 C76.9203719423,195.797134707 76.5560494911,195.865986493 76.2170245968,195.925298866
C75.8516704957,195.989217531 75.4750002869,196.048971317 75.1097044028,196.113189161 C74.771796199,196.172592338 74.4085432937,196.241817239 74.0759074467,196.326325642 C73.8023433889,196.395826454 73.5028372805,196.48716296 73.2478811639,196.610119034
C73.0557082003,196.702797074 72.8583045304,196.827696735 72.7262043625,196.999105783 C72.6094223162,197.150638515 72.5569839727,197.320781789 72.5643078902,197.511632812 C72.572745496,197.731504988 72.6599670865,197.954401766 72.7602514919,198.147033882
C72.8931978994,198.402405069 73.0789873658,198.660378425 73.2570224195,198.885732127 C73.4716029457,199.157344459 73.7186291033,199.436109108 73.9513098384,199.692252987 C74.2013197423,199.967473481 74.4604517773,200.244550814 74.7094046262,200.520683829
C74.937805593,200.774021149 75.1799291708,201.051129115 75.387777545,201.321740016 C75.5577646096,201.543056892 75.7343202617,201.797859974 75.8551687542,202.050349943 C75.9462794757,202.240708489 76.0199580319,202.458505032 76.0127890322,202.672591666
C76.0063761423,202.864098719 75.9363614066,203.028255284 75.8095236874,203.170913577 C75.6616972449,203.337178534 75.4507112878,203.457829054 75.2497992389,203.54683564 C74.9837562029,203.664696079 74.6751999678,203.752918549 74.3929021635,203.820715467
C74.0545853169,203.901965972 73.6866512103,203.969557639 73.3438545573,204.028615226 C72.9766099752,204.091884743 72.6039946894,204.151038221 72.2372509694,204.216751587 C71.9035369675,204.276546667 71.5443043973,204.347173822 71.21654396,204.434382854
C70.9499623826,204.50531369 70.6578537939,204.599183331 70.4119663886,204.726227994 C70.2264317106,204.822089718 70.0400631949,204.950391723 69.9204882471,205.125584268 C69.8122553334,205.284159286 69.773466895,205.45912365 69.7908927333,205.649202702
C69.8114348516,205.873273778 69.9088547692,206.099961953 70.0162683927,206.294710062 C70.1582729741,206.552173899 70.3509563893,206.812505004 70.5350728091,207.0409741 C70.7544693389,207.3132221 71.0049576681,207.593156402 71.2406041382,207.85135586
C71.4923193074,208.127161903 71.7484562966,208.401217802 71.9974227914,208.679348506 C72.2221145286,208.930360882 72.4600461273,209.206051792 72.6621959311,209.475734843 C72.8257182786,209.69388596 72.9947417365,209.946089948 73.1057567572,210.196161965
C73.1896450445,210.385128405 73.2523526133,210.59874345 73.2329836042,210.807967284 C73.2152442046,210.999588093 73.1315181047,211.159242209 72.9974394066,211.29520538 C72.8376110008,211.45728017 72.6164271841,211.574692672 72.4085184805,211.661102045
C72.134220909,211.775103435 71.8189184004,211.860997003 71.5300007145,211.927557824 C71.1876867491,212.006420074 70.8164644008,212.072864277 70.4702356838,212.131777467 C70.1014715638,212.19452521 69.7332378227,212.253189509 69.3654673761,212.320544021
C69.0362667857,212.38083474 68.6813693565,212.452973404 68.3588658975,212.543018803 C68.0993890256,212.615466703 67.8149622235,212.711955333 67.5784932303,212.843175349 C67.3994300026,212.942540087 67.2244786494,213.074321522 67.1175941708,213.253031775
C67.0185480511,213.418636336 66.9932637853,213.598510666 67.0202457185,213.787723107 C67.0527603325,214.015733808 67.1600562849,214.246052124 67.2745735145,214.443171965 C67.42528637,214.702595758 67.6245829061,214.965182765 67.8145793356,215.196716077
C68.0384016708,215.469470291 68.2920259935,215.750463913 68.5302983877,216.010596067 C68.7833469114,216.286859952 69.036167993,216.557782485 69.2847231658,216.837766711 C69.5053950163,217.086341853 69.7388212009,217.360509107 69.9348892557,217.629137323
C70.0918051283,217.844124058 70.2530202496,218.093621296 70.3538779193,218.341126931 C70.4304632572,218.529068043 70.4818479001,218.738328818 70.4503492091,218.942371499 C70.4208181115,219.133668475 70.3234780379,219.288982303 70.1825994176,219.418550936
C70.0110440265,219.576333554 69.7800091056,219.690578817 69.5649793832,219.774592988 C69.2827863624,219.884848503 68.9610227248,219.968506447 68.6656858601,220.033914851 C68.3197630528,220.110526549 67.9455792919,220.175937241 67.596265865,220.234819201
C67.226354974,220.29717317 66.862819919,220.355454709 66.494449309,220.424599319 C66.1700708979,220.485486419 65.8198193881,220.559244182 65.5029520161,220.65226053 C65.2506770888,220.726315781 64.9742172093,220.825506934 64.7475113964,220.960978167
C64.5747670756,221.064203955 64.4116168736,221.199548137 64.3175351409,221.381452772 C64.2283018379,221.553983092 64.2163167676,221.738813222 64.2523411512,221.927185207 C64.2966536347,222.158895777 64.4135135947,222.392691333 64.5351064154,222.592398836
C64.694171888,222.853652486 64.8997976364,223.118393984 65.0954561119,223.352928567 C65.3233126018,223.626058707 65.5797433872,223.908000276 65.8202944728,224.169939917 C66.07430284,224.44653339 66.3234977562,224.714212826 66.5712105084,224.99590574
C66.7875622768,225.241935706 67.0161738802,225.514473848 67.2057798088,225.781920773 C67.3559666395,225.993765447 67.5090966478,226.240444854 67.5994840211,226.485228283 C67.6686446531,226.672526308 67.7083510803,226.877267031 67.6648745391,227.07580043
C67.6231605221,227.266285352 67.5123749674,227.41741866 67.3650310647,227.540959635"/>
      <line
          style="fill:none;stroke:#074080;stroke-linecap:round;stroke-width:1.984251968504;marker-end:url(#83EA566A_end_arrow)"
          id="2DEFF58A"
          x1="201.192913386"
          y1="173.338582677"
          x2="215.933070866"
          y2="216.42519685"/>
      <path
          style="fill:none;stroke:#0F80FF;stroke-linecap:round;stroke-width:0.869471294673"
          id="3DEFF58A"
          d="M199.352556644,171.614091957 C198.995074747,171.680713756 198.608298236,171.742978516 198.249800559,171.803549462 C197.901316062,171.862428604 197.527928978,171.928117336 197.182978162,172.005345768 C196.889418631,172.071068593 196.56943659,172.15534345 196.289419587,172.26663688
C196.076396218,172.351303529 195.848087494,172.466429126 195.679789228,172.625422403 C195.540777505,172.756748351 195.447238201,172.913262 195.421054207,173.104697304 C195.392942749,173.310224605 195.447535981,173.520722649 195.526177967,173.708912932
C195.629913914,173.957153065 195.793344887,174.207419804 195.952125164,174.423291939 C196.149935884,174.692228505 196.384655904,174.966833389 196.606484914,175.216102557 C196.849170239,175.488807959 197.115257955,175.77425324 197.361693063,176.043542193
C197.599264352,176.303145316 197.852043025,176.583853292 198.074664636,176.856478762 C198.263034699,177.087159316 198.460506647,177.349124429 198.608814971,177.608012235 C198.721344283,177.804444006 198.825904749,178.033760905 198.855080448,178.260692678
C198.879438264,178.450150437 198.850388254,178.62864235 198.748703655,178.792283886 C198.638249356,178.970038544 198.460060012,179.100836915 198.279199718,179.199185595 C198.04005663,179.329227445 197.75344865,179.424973679 197.491969948,179.49698757
C197.16795508,179.586224558 196.811811376,179.657928755 196.481314468,179.718070302 C196.120844641,179.783666114 195.737084572,179.84497131 195.375919181,179.906621565 C195.030617456,179.965563922 194.660283695,180.03231822 194.319050686,180.111835812
C194.03196861,180.178734601 193.718527825,180.265271445 193.446507188,180.380343017 C193.240572699,180.467458486 193.022210903,180.585771192 192.865718805,180.74903221 C192.73362037,180.886844441 192.653729709,181.047743973 192.639213809,181.23937416
C192.623259593,181.449992136 192.689076609,181.664796446 192.774995359,181.854116966 C192.888798926,182.10488121 193.059960845,182.357824227 193.225309799,182.576863124 C193.429095166,182.846819002 193.668233198,183.122917789 193.893996066,183.374593138
C194.139488337,183.64826238 194.403606088,183.9310371 194.651285118,184.202747309 C194.886134487,184.460383052 195.135685417,184.740000684 195.353771724,185.012083581 C195.536203641,185.239684319 195.726983491,185.499365056 195.866484884,185.756256022
C195.971903467,185.9503837 196.066498645,186.17602608 196.083660215,186.398947578 C196.098311207,186.589257741 196.055709836,186.76286053 195.945017351,186.919459361 C195.821913997,187.093616093 195.632415015,187.220957152 195.445037249,187.315896257
C195.196573064,187.441786151 194.902362802,187.534937221 194.633811578,187.605458592 C194.304646411,187.691897145 193.944255377,187.762120284 193.609333491,187.821794959 C193.246238545,187.886489366 192.865850005,187.946959002 192.502416225,188.00982361
C192.160642556,188.06894158 191.793688017,188.136875046 191.456560617,188.218819427 C191.176150935,188.286977631 190.86953597,188.375869113 190.605869958,188.494830395 C190.406892784,188.584605256 190.198828388,188.706175806 190.054411162,188.873590693
C189.929694421,189.018167899 189.863529129,189.183614405 189.8601986,189.375021121 C189.856450685,189.590415257 189.933141213,189.809352281 190.026265547,190.000163235 C190.149810105,190.253304965 190.328426794,190.508817402 190.500197345,190.73101905
C190.709573451,191.001867082 190.952814886,191.279352844 191.182198161,191.533320973 C191.430132936,191.807828915 191.691928892,192.087813608 191.940449812,192.361805678 C192.172239647,192.617351878 192.418237646,192.895769135 192.631398917,193.167180238
C192.807696144,193.391653589 192.991503823,193.648947889 193.12185013,193.903708439 C193.22013175,194.095798882 193.304436406,194.317603323 193.309465235,194.536249695 C193.313858982,194.727283581 193.257578631,194.896096888 193.138513262,195.045667273
C193.002939096,195.215976073 192.802510832,195.339935607 192.60844762,195.431773487 C192.351015234,195.553600001 192.049488647,195.644242399 191.77399022,195.713358582 C191.440056981,195.797134707 191.07573453,195.865986493 190.736709636,195.925298866
C190.371355535,195.989217531 189.994685326,196.048971317 189.629389442,196.113189161 C189.291481238,196.172592338 188.928228333,196.241817239 188.595592486,196.326325642 C188.322028428,196.395826454 188.022522319,196.48716296 187.767566203,196.610119034
C187.575393239,196.702797074 187.377989569,196.827696735 187.245889402,196.999105783 C187.129107355,197.150638515 187.076669012,197.320781789 187.083992929,197.511632812 C187.092430535,197.731504988 187.179652126,197.954401766 187.279936531,198.147033882
C187.412882938,198.402405069 187.598672405,198.660378425 187.776707458,198.885732127 C187.991287985,199.157344459 188.238314142,199.436109108 188.470994877,199.692252987 C188.721004781,199.967473481 188.980136816,200.244550814 189.229089665,200.520683829
C189.457490632,200.774021149 189.69961421,201.051129115 189.907462584,201.321740016 C190.077449649,201.543056892 190.254005301,201.797859974 190.374853793,202.050349943 C190.465964515,202.240708489 190.539643071,202.458505032 190.532474071,202.672591666
C190.526061181,202.864098719 190.456046446,203.028255284 190.329208726,203.170913577 C190.181382284,203.337178534 189.970396327,203.457829054 189.769484278,203.54683564 C189.503441242,203.664696079 189.194885007,203.752918549 188.912587202,203.820715467
C188.574270356,203.901965972 188.206336249,203.969557639 187.863539596,204.028615226 C187.496295014,204.091884743 187.123679728,204.151038221 186.756936008,204.216751587 C186.423222006,204.276546667 186.063989436,204.347173822 185.736228999,204.434382854
C185.469647422,204.50531369 185.177538833,204.599183331 184.931651428,204.726227994 C184.74611675,204.822089718 184.559748234,204.950391723 184.440173286,205.125584268 C184.331940372,205.284159286 184.293151934,205.45912365 184.310577772,205.649202702
C184.331119891,205.873273778 184.428539808,206.099961953 184.535953432,206.294710062 C184.677958013,206.552173899 184.870641428,206.812505004 185.054757848,207.0409741 C185.274154378,207.3132221 185.524642707,207.593156402 185.760289177,207.85135586
C186.012004346,208.127161903 186.268141336,208.401217802 186.51710783,208.679348506 C186.741799568,208.930360882 186.979731166,209.206051792 187.18188097,209.475734843 C187.345403318,209.69388596 187.514426775,209.946089948 187.625441796,210.196161965
C187.709330083,210.385128405 187.772037652,210.59874345 187.752668643,210.807967284 C187.734929244,210.999588093 187.651203144,211.159242209 187.517124446,211.29520538 C187.35729604,211.45728017 187.136112223,211.574692672 186.928203519,211.661102045
C186.653905948,211.775103435 186.338603439,211.860997003 186.049685753,211.927557824 C185.707371788,212.006420074 185.33614944,212.072864277 184.989920723,212.131777467 C184.621156603,212.19452521 184.252922862,212.253189509 183.885152415,212.320544021
C183.555951825,212.38083474 183.201054396,212.452973404 182.878550936,212.543018803 C182.619074065,212.615466703 182.334647262,212.711955333 182.098178269,212.843175349 C181.919115042,212.942540087 181.744163688,213.074321522 181.63727921,213.253031775
C181.53823309,213.418636336 181.512948824,213.598510666 181.539930757,213.787723107 C181.572445371,214.015733808 181.679741324,214.246052124 181.794258554,214.443171965 C181.944971409,214.702595758 182.144267945,214.965182765 182.334264375,215.196716077
C182.55808671,215.469470291 182.811711032,215.750463913 183.049983427,216.010596067 C183.30303195,216.286859952 183.555853032,216.557782485 183.804408205,216.837766711 C184.025080055,217.086341853 184.25850624,217.360509107 184.454574295,217.629137323
C184.611490167,217.844124058 184.772705289,218.093621296 184.873562958,218.341126931 C184.950148296,218.529068043 185.001532939,218.738328818 184.970034248,218.942371499 C184.94050315,219.133668475 184.843163077,219.288982303 184.702284457,219.418550936
C184.530729065,219.576333554 184.299694145,219.690578817 184.084664422,219.774592988 C183.802471401,219.884848503 183.480707764,219.968506447 183.185370899,220.033914851 C182.839448092,220.110526549 182.465264331,220.175937241 182.115950904,220.234819201
C181.746040013,220.29717317 181.382504958,220.355454709 181.014134348,220.424599319 C180.689755937,220.485486419 180.339504427,220.559244182 180.022637055,220.65226053 C179.770362128,220.726315781 179.493902248,220.825506934 179.267196435,220.960978167
C179.094452115,221.064203955 178.931301913,221.199548137 178.83722018,221.381452772 C178.747986877,221.553983092 178.736001807,221.738813222 178.77202619,221.927185207 C178.816338674,222.158895777 178.933198634,222.392691333 179.054791454,222.592398836
C179.213856927,222.853652486 179.419482675,223.118393984 179.615141151,223.352928567 C179.842997641,223.626058707 180.099428426,223.908000276 180.339979512,224.169939917 C180.593987879,224.44653339 180.843182795,224.714212826 181.090895547,224.99590574
C181.307247316,225.241935706 181.535858919,225.514473848 181.725464848,225.781920773 C181.875651678,225.993765447 182.028781687,226.240444854 182.11916906,226.485228283 C182.188329692,226.672526308 182.228036119,226.877267031 182.184559578,227.07580043
C182.142845561,227.266285352 182.032060006,227.41741866 181.884716104,227.540959635"/>
      <line
          style="fill:none;stroke:#074080;stroke-linecap:round;stroke-width:1.984251968504;marker-end:url(#83EA566A_end_arrow)"
          id="52EE468A"
          x1="145.633858268"
          y1="173.338582677"
          x2="159.24015748"
          y2="216.42519685"/>
      <line
          style="fill:none;stroke:#074080;stroke-linecap:round;stroke-width:1.984251968504;marker-end:url(#83EA566A_end_arrow)"
          id="3B5E478A"
          x1="143.366141732"
          y1="173.338582677"
          x2="130.893700788"
          y2="216.42519685"/>
      <text
          id="2358BF8A"
          style="stroke:none"
          font-family="Helvetica"
          font-size="12"
          font-weight="normal"
          font-style="normal">
         <tspan x="232.271653543" y="51.6771653543">n = 1</tspan>
      </text>
      <text
          id="2563119A"
          style="stroke:none"
          font-family="Helvetica"
          font-size="12"
          font-weight="normal"
          font-style="normal">
         <tspan x="232.271653543" y="108.37007874">n = 2</tspan>
      </text>
      <text
          id="4F34819A"
          style="stroke:none"
          font-family="Helvetica"
          font-size="12"
          font-weight="normal"
          font-style="normal">
         <tspan x="232.271653543" y="165.062992125">n = 3</tspan>
      </text>
      <text
          id="D758B39A"
          style="stroke:none"
          font-family="Helvetica"
          font-size="12"
          font-weight="normal"
          font-style="normal">
         <tspan x="232.271653543" y="221.755905511">n = 4</tspan>
      </text>
      <text
          id="6D11959A"
          style="fill:#074080;stroke:none"
          font-family="Helvetica"
          font-size="12"
          font-weight="normal"
          font-style="normal">
         <tspan x="118.885826772" y="31.9999999993">e</tspan>
         <tspan>-</tspan>
      </text>
      <text
          id="04FEC89A"
          style="fill:#0F80FF;stroke:none"
          font-family="Cambria Math"
          font-size="12"
          font-weight="normal"
          font-style="normal">
         <tspan x="73.531496063" y="80.0236220473"></tspan>
      </text>
      <text
          id="79980A9A"
          style="fill:#0F80FF;stroke:none"
          font-family="Cambria Math"
          font-size="12"
          font-weight="normal"
          font-style="normal">
         <tspan x="11.169291339" y="187.74015748"></tspan>
      </text>
      <text
          id="B6CB2A9A"
          style="fill:#0F80FF;stroke:none"
          font-family="Cambria Math"
          font-size="12"
          font-weight="normal"
          font-style="normal">
         <tspan x="67.862204725" y="187.74015748"></tspan>
      </text>
      <text
          id="0B0CCD9A"
          style="fill:#4C4C4C;stroke:none"
          font-family="Avenir Next"
          font-size="9"
          font-weight="normal"
          font-style="normal">
         <tspan x="5.5" y="242.433070866"> J. A. Aguilar 2018</tspan>
      </text>
      <text
          id="5DE963FA"
          style="fill:#074080;stroke:none"
          font-family="Times New Roman"
          font-size="14"
          font-weight="normal"
          font-style="normal">
         <tspan x="28.1771653545" y="137.716535433">e</tspan>
      </text>
      <text
          id="6DE963FA"
          style="fill:#074080;stroke:none"
          font-family="Times New Roman"
          font-size="18"
          font-weight="normal"
          font-style="normal"
          transform="matrix(0.439553244196,0,0,0.439553244196,18.3910382262,71.7283588091)">
         <tspan x="37.8149606287" y="143.984251967">+</tspan>
      </text>
      <text
          id="0FDE65FA"
          style="fill:#074080;stroke:none"
          font-family="Times New Roman"
          font-size="14"
          font-weight="normal"
          font-style="normal">
         <tspan x="73.5314960632" y="137.716535433">e</tspan>
      </text>
      <text
          id="1FDE65FA"
          style="fill:#074080;stroke:none"
          font-family="Times New Roman"
          font-size="18"
          font-weight="normal"
          font-style="normal"
          transform="matrix(0.439553244196,0,0,0.439553244196,43.8097257334,71.7283588088)">
         <tspan x="83.1692913372" y="143.984251967">-</tspan>
      </text>
      <text
          id="26C156FA"
          style="fill:#074080;stroke:none"
          font-family="Times New Roman"
          font-size="14"
          font-weight="normal"
          font-style="normal">
         <tspan x="39.5157480317" y="188.74015748">e</tspan>
      </text>
      <text
          id="36C156FA"
          style="fill:#074080;stroke:none"
          font-family="Times New Roman"
          font-size="18"
          font-weight="normal"
          font-style="normal"
          transform="matrix(0.439553244196,0,0,0.439553244196,24.7457101029,100.324382255)">
         <tspan x="49.1535433057" y="195.007874014">+</tspan>
      </text>
      <text
          id="8D5DD6FA"
          style="fill:#074080;stroke:none"
          font-family="Times New Roman"
          font-size="14"
          font-weight="normal"
          font-style="normal">
         <tspan x="96.2086614175" y="188.74015748">e</tspan>
      </text>
      <text
          id="9D5DD6FA"
          style="fill:#074080;stroke:none"
          font-family="Times New Roman"
          font-size="18"
          font-weight="normal"
          font-style="normal"
          transform="matrix(0.439553244196,0,0,0.439553244196,56.5190694871,100.324382255)">
         <tspan x="105.846456692" y="195.007874014">-</tspan>
      </text>
   </g>
</svg>
