<?xml version="1.0" encoding="UTF-8"?>
<!-- Created with EazyDraw for Mac ( http://www.eazydraw.com/ ) -->

<svg
    version="1.1"
    xmlns:dc="http://purl.org/dc/elements/1.1/"
    xmlns:cc="http://creativecommons.org/ns#"
    xmlns:rdf="http://www.w3.org/1999/02/22-rdf-syntax-ns#"
    xmlns:svg="http://www.w3.org/2000/svg"
    xmlns:xlink="http://www.w3.org/1999/xlink"
    xmlns="http://www.w3.org/2000/svg"
    width="273.809842521"
    height="230.081496062"
    viewBox="0, 0, 273.809842521, 230.081496062"
    preserveAspectRatio="none"
    id="svg2">
   <defs
       id="defs_4AE3869B">
      <marker
          orient="auto"
          refX="0.0"
          refY="0.0"
          id="83EA566A_end_arrow"
          style="overflow:visible"
          markerUnits="userSpaceOnUse">
         <path
             id="83EA566A_end_arrow_path"
             style="fill:#074080;fill-opacity:1;stroke:#074080;stroke-opacity:1;fill-rule:nonzero;stroke-linecap:round;stroke-linejoin:miter;stroke-width:0.496062992126;stroke-miterlimit:10"
             d="M10,0 L-2.216004070217,4.446261863234 C1.855811686793,2.963878158032 1.855811686793,-2.963878158032 -2.216004070217,-4.446261863234 z"/>
      </marker>
   </defs>
   <metadata
       id="metadata7">
      <rdf:RDF>
         <cc:Work
             rdf:about="">
            <dc:format>image/svg+xml</dc:format>
            <dc:type rdf:resource="http://purl.org/dc/dcmitype/StillImage"/>
            <dc:title></dc:title>
         </cc:Work>
      </rdf:RDF>
   </metadata>
   <g
       id="layer_Paper"
       style="fill:#000000;fill-opacity:1;stroke:#000000;stroke-opacity:1;fill-rule:nonzero;stroke-linecap:square;stroke-linejoin:miter;stroke-width:1;stroke-miterlimit:10">
      <line
          style="fill:none;stroke-dasharray:4,4"
          id="9E14FA8A"
          x1="0.55"
          y1="114.427952755"
          x2="261.337401575"
          y2="114.427952755"/>
      <line
          style="fill:none;stroke-dasharray:4,4"
          id="C8A5FC8A"
          x1="0.55"
          y1="57.7350393693"
          x2="261.337401575"
          y2="57.7350393693"/>
      <line
          style="fill:none;stroke-dasharray:4,4"
          id="7DA80D8A"
          x1="0.55"
          y1="227.813779527"
          x2="261.337401575"
          y2="227.813779527"/>
      <line
          style="fill:none;stroke-dasharray:4,4"
          id="267D7D8A"
          x1="0.55"
          y1="171.120866141"
          x2="261.337401575"
          y2="171.120866141"/>
      <line
          style="fill:none;stroke:#074080;stroke-linecap:round;stroke-width:1.984251968504;marker-end:url(#83EA566A_end_arrow)"
          id="83EA566A"
          x1="113.935826772"
          y1="1.042125984252"
          x2="113.935826772"
          y2="46.3964566923"/>
      <path
          style="fill:none;stroke:#0F80FF;stroke-linecap:round;stroke-width:0.869471294673"
          id="3D5C3A6A"
          d="M112.673748601,57.73503937 C112.719985509,58.0772041671 112.754172295,58.4441845622 112.745817886,58.7898463411 C112.738922158,59.0751555731 112.702685268,59.3739426449 112.602884745,59.6430842538 C112.515708092,59.8781818659 112.383558479,60.0817755657 112.191135374,60.2443015962
C111.990952013,60.4133821598 111.750005435,60.5172312828 111.498127469,60.5818334594 C111.196160044,60.6592826832 110.865375166,60.683271805 110.554705125,60.6845967972 C110.186400489,60.6861675981 109.796344918,60.6556505934 109.430251852,60.6176400334
C109.035525668,60.5766565659 108.615764781,60.5209871133 108.222012281,60.4721319449 C107.836342581,60.4242796568 107.428022502,60.3767461126 107.040125962,60.3513305561 C106.698130932,60.3289225347 106.332248286,60.3207921286 105.990676616,60.354691468
C105.709036941,60.3826428464 105.417091762,60.4415133807 105.159365579,60.5625613892 C104.932807219,60.668970594 104.742997067,60.818354402 104.598322146,61.0238125744 C104.446605081,61.2392715542 104.362766201,61.4906760015 104.318080747,61.7483212606
C104.264355921,62.058085301 104.264883247,62.3927816474 104.285959668,62.7054476894 C104.310867907,63.0749582553 104.368311805,63.4639953394 104.431090849,63.8287516431 C104.498627169,64.2211484823 104.581282715,64.6350412946 104.655326659,65.0262177625
C104.72735467,65.4067439961 104.799936563,65.8100608304 104.848345065,66.1944169435 C104.890850312,66.53190211 104.919979868,66.8940625006 104.904628471,67.2344243379 C104.891980418,67.5148492753 104.84829058,67.8062699445 104.739703143,68.0670441377
C104.643617277,68.2977956369 104.502048414,68.4922770069 104.303139932,68.6449980104 C104.092886403,68.8064296868 103.842918283,68.9023471226 103.586315445,68.9602013543 C103.277035224,69.029932343 102.939809192,69.0480670894 102.623739211,69.0450075387
C102.251422719,69.041403523 101.857681793,69.00745896 101.487742572,68.9672286387 C101.090672681,68.9240478988 100.673788738,68.868148891 100.27734671,68.8196989853 C99.8943284947,68.7728896284 99.4884039924,68.7275918565 99.1030230366,68.7059877271
C98.7660056613,68.6870948189 98.405378756,68.6838062372 98.0696913611,68.7244592757 C97.7932542513,68.7579368762 97.5092567346,68.8238609331 97.2605724682,68.9531347748 C97.039017006,69.0683062175 96.8589179487,69.2265590841 96.7243802278,69.4376844478
C96.5810439315,69.6626171098 96.5056106321,69.9224241261 96.4678244076,70.1843988357 C96.4221839704,70.5008273875 96.4288632315,70.8414629061 96.4545780226,71.1592206661 C96.4847666594,71.5322617528 96.5457444587,71.924636965 96.61086815,72.2929863545
C96.6806087662,72.687449765 96.7631665966,73.0983233806 96.836829769,73.4920704542 C96.907514639,73.8698977978 96.9775808219,74.2708448649 97.0218752397,74.6527948498 C97.0604566944,74.9854820537 97.0843035689,75.34259701 97.0617140212,75.6773850814
C97.0431153678,75.9530261606 96.9917771537,76.2368605757 96.8744032493,76.4890180815 C96.7690986539,76.715246767 96.6180014833,76.9006090259 96.4129589508,77.0436454392 C96.1927951661,77.1972303454 95.9339991178,77.2853867664 95.672586996,77.3367725623
C95.3562769403,77.3989496483 95.0128457179,77.4114264655 94.6914209272,77.4041504065 C94.315389801,77.3956382297 93.9182170547,77.358498987 93.5446531101,77.3162733125 C93.145518996,77.2711573225 92.731794664,77.2152921971 92.3329624383,77.1675297489
C91.9528506429,77.1220091798 91.549583925,77.079190671 91.1670195974,77.0616756881 C90.8351018426,77.0464794626 90.4799694779,77.0482415127 90.1504545657,77.0958662994 C89.8791269742,77.1350812732 89.6033073116,77.2082387812 89.3639076989,77.3457035226
C89.1475762026,77.4699224084 88.9771863997,77.6371432188 88.852618975,77.8536007384 C88.7178289604,78.0878217823 88.6506164503,78.3558419903 88.6194654475,78.6222552419 C88.5817188331,78.9450762549 88.5943373531,79.2914281223 88.6245184593,79.6142331215
C88.6597003826,79.9905248518 88.7239618135,80.3859991409 88.7911887643,80.7577304331 C88.8628529111,81.1539971918 88.9450355101,81.5615900751 89.0180138058,81.9576240086 C89.0870964519,82.3325172803 89.1543882771,82.7308495247 89.1942730613,83.1101111524
C89.2287446384,83.4378989711 89.2470867446,83.7897441522 89.2170282105,84.1186851384 C89.192267179,84.3896537121 89.1330872865,84.6656859522 89.0069656034,84.9089878397 C88.8921562753,85.130467014 88.7314435725,85.3067330058 88.5206028319,85.4402536325
C88.2907161398,85.5858356255 88.0232994561,85.6664046097 87.7569807823,85.7115833286 C87.4339253881,85.766386954 87.084525204,85.7734051909 86.7578112453,85.7620825627 C86.3783638304,85.748932399 85.978015078,85.7088342584 85.6010573659,85.6648433364
C85.2001409908,85.6180564411 84.7898512932,85.5624818694 84.3889349181,85.5156949741 C84.011977206,85.4717040521 83.6116284536,85.4316059115 83.2321810387,85.4184557478 C82.90546708,85.4071331196 82.5560668959,85.4141513565 82.2330115017,85.4689549819
C81.9666928279,85.5141337008 81.6992761442,85.594702685 81.4693894521,85.740284678 C81.2585487115,85.8738053047 81.0978360087,86.0500712965 80.9830266806,86.2715504708 C80.8569049975,86.5148523583 80.797725105,86.7908845984 80.7729640735,87.0618531721
C80.7429055394,87.3907941583 80.7612476456,87.7426393394 80.7957192227,88.0704271581 C80.8356040069,88.4496887858 80.9028958321,88.8480210302 80.9719784782,89.2229143019 C81.0452830817,89.6207190215 81.1268203675,90.0247771786 81.1988035197,90.4228078774
C81.2660304705,90.7945391696 81.3302919014,91.1900134587 81.3654738247,91.566305189 C81.3956549309,91.8891101882 81.4082734509,92.2354620556 81.3705268365,92.5582830686 C81.3393758337,92.8246963202 81.2721633236,93.0927165282 81.137373309,93.3269375721
C81.0128058843,93.5433950917 80.8424160814,93.7106159021 80.6260845851,93.8348347879 C80.3866849724,93.9722995293 80.1108653098,94.0454570373 79.8395377183,94.0846720112 C79.5100228061,94.1322967978 79.1548904414,94.1340588479 78.8229726866,94.1188626224
C78.440408359,94.1013476395 78.0371416411,94.0585291308 77.6570298457,94.0130085616 C77.2546153103,93.9648171113 76.8480263953,93.9097826123 76.4453391739,93.864264998 C76.0717752293,93.8220393235 75.674602483,93.7849000808 75.2985713568,93.776387904
C74.9771465661,93.769111845 74.6337153437,93.7815886622 74.317405288,93.8437657482 C74.0559931662,93.8951515441 73.7971971179,93.9833079651 73.5770333332,94.1368928713 C73.3719908007,94.2799292846 73.2208936301,94.4652915435 73.1155890347,94.691520229
C72.9982151303,94.9436777348 72.9468769162,95.2275121499 72.9282782628,95.5031532291 C72.9056887151,95.8379413005 72.9295355896,96.1950562568 72.9681170443,96.5277434607 C73.0124114621,96.9096934456 73.082477645,97.3106405127 73.153162515,97.6884678563
C73.2278225326,98.0875433036 73.3084523553,98.4878217507 73.379124134,98.887551956 C73.4442478253,99.2559013455 73.5052256246,99.6482765577 73.5354142614,100.021317644 C73.5611290525,100.339075404 73.5678083136,100.679710923 73.5221678764,100.996139475
C73.4843816519,101.258114184 73.4089483525,101.517921201 73.2656120562,101.742853863 C73.1310743353,101.953979226 72.950975278,102.112232093 72.7294198158,102.227403536 C72.4807355494,102.356677377 72.1967380327,102.422601434 71.9203009229,102.456079035
C71.584613528,102.496732073 71.2239866227,102.493443492 70.8869692474,102.474550583 C70.5015882916,102.452946454 70.0956637893,102.407648682 69.7126455739,102.360839325 C69.3090187773,102.311511356 68.9063876553,102.257259051 68.5022497122,102.213309672
C68.1323104907,102.173079351 67.7385695647,102.139134788 67.3662530731,102.135530772 C67.050183092,102.132471221 66.71295706,102.150605968 66.4036768388,102.220336956 C66.1470740007,102.278191188 65.8971058806,102.374108624 65.6868523525,102.5355403
C65.4879438696,102.688261304 65.3463750067,102.882742674 65.2502891414,103.113494173 C65.1417017038,103.374268366 65.0980118665,103.665689035 65.0853638134,103.946113973 C65.0700124163,104.28647581 65.0991419723,104.6486362 65.1416472191,104.986121367
C65.1900557213,105.37047748 65.2626376135,105.773794314 65.3346656248,106.154320548 C65.4103943872,106.554397965 65.489862562,106.950659757 65.5589014349,107.351786667 C65.6216804792,107.716542971 65.6791243769,108.105580055 65.7040326157,108.475090621
C65.7251090373,108.787756663 65.7256363629,109.12245301 65.6719115366,109.43221705 C65.6272260826,109.689862309 65.5433872032,109.941266756 65.391670138,110.156725736 C65.2469952168,110.362183908 65.0571850649,110.511567717 64.8306267054,110.617976921
C64.5729005218,110.73902493 64.2809553431,110.797895464 63.9993156677,110.825846842 C63.6577439984,110.859746182 63.2918613523,110.851615776 62.9498663221,110.829207754 C62.5619697818,110.803792198 62.153649703,110.756258654 61.7679800035,110.708406366
C61.3634282994,110.658211277 60.9650035344,110.604975767 60.5597404318,110.562898277 C60.1936473664,110.524887717 59.8035917953,110.494370712 59.4352871593,110.495941513 C59.1246171176,110.497266506 58.7938322399,110.521255627 58.491864815,110.598704851
C58.2399868494,110.663307028 57.999040271,110.767156151 57.7988569099,110.936236714 C57.6064338048,111.098762745 57.4742841923,111.302356445 57.387107539,111.537454057 C57.2873070156,111.806595666 57.2510701265,112.105382737 57.2441743976,112.390691969
C57.2358199891,112.736353748 57.2700067755,113.103334143 57.316243683,113.445498941"/>
      <line
          style="fill:none;stroke:#074080;stroke-linecap:round;stroke-width:1.984251968504;marker-end:url(#83EA566A_end_arrow)"
          id="86D6DC6A"
          x1="59.510629921"
          y1="116.695669291"
          x2="79.92007874"
          y2="159.782283464"/>
      <line
          style="fill:none;stroke:#074080;stroke-linecap:round;stroke-width:1.984251968504;marker-end:url(#83EA566A_end_arrow)"
          id="1A321D6A"
          x1="54.975196851"
          y1="116.695669291"
          x2="34.565748032"
          y2="159.782283464"/>
      <line
          style="fill:none;stroke:#074080;stroke-linecap:round;stroke-width:1.984251968504;marker-end:url(#83EA566A_end_arrow)"
          id="B9EABD6A"
          x1="117.337401575"
          y1="58.8688976373"
          x2="159.290157481"
          y2="103.089370078"/>
      <line
          style="fill:none;stroke:#074080;stroke-linecap:round;stroke-width:1.984251968504;marker-end:url(#83EA566A_end_arrow)"
          id="86FE4F6A"
          x1="30.030314961"
          y1="173.388582677"
          x2="45.735113867"
          y2="216.537163049"/>
      <line
          style="fill:none;stroke:#074080;stroke-linecap:round;stroke-width:1.984251968504;marker-end:url(#83EA566A_end_arrow)"
          id="3A47007A"
          x1="172.896456693"
          y1="116.695669291"
          x2="193.305905512"
          y2="159.782283464"/>
      <path
          style="fill:none;stroke:#0F80FF;stroke-linecap:round;stroke-width:0.869471294673"
          id="CF42407A"
          d="M168.727273071,115.561811024 C168.908677612,115.810169165 169.097455179,116.089137479 169.23956261,116.362401525 C169.34889323,116.572637732 169.449865215,116.815672417 169.478421984,117.05302806 C169.501867263,117.247898466 169.476393369,117.435272772 169.375413282,117.606167317
C169.268754561,117.786672152 169.096189899,117.917411953 168.914712955,118.015455623 C168.678517066,118.143061429 168.394899324,118.231982311 168.135547099,118.296668329 C167.811888907,118.377393142 167.456051731,118.437243672 167.126154462,118.485291947
C166.764371632,118.537984231 166.372807109,118.584882934 166.010206277,118.631062682 C165.656760275,118.676076499 165.278431642,118.726770805 164.927772942,118.790311909 C164.628018185,118.844628964 164.301754696,118.916472485 164.013766839,119.017296625
C163.792831164,119.09464589 163.556463175,119.201911942 163.377178969,119.355849166 C163.228543165,119.483471023 163.123778437,119.638762746 163.084304969,119.832631299 C163.042139235,120.039722549 163.081775998,120.256051698 163.148542037,120.453030905
C163.235723554,120.710241702 163.382732946,120.972368985 163.528327079,121.200332772 C163.709110303,121.483393823 163.926740241,121.773862167 164.133533365,122.03829111 C164.359634657,122.327409647 164.608969429,122.631023683 164.839341268,122.916707869
C165.062065038,123.192907682 165.298510461,123.490849954 165.505448318,123.779158346 C165.681358474,124.02423856 165.863866653,124.300697588 165.997662103,124.571675087 C166.100050198,124.7790429 166.191580086,125.018064549 166.208552829,125.251053619
C166.222767484,125.446181729 166.184343901,125.627985054 166.07398703,125.791501725 C165.954761962,125.968158476 165.770665019,126.094748888 165.582997874,126.188608933 C165.337304403,126.311490326 165.045872357,126.397311129 164.779472984,126.460025295
C164.450376537,126.537499236 164.090011337,126.595507992 163.755400027,126.642745006 C163.390636578,126.69423859 163.002054222,126.740273802 162.636709571,126.787412897 C162.286369222,126.832616041 161.910997746,126.884515061 161.56389406,126.950530072
C161.270476248,127.006334666 160.950615569,127.080762926 160.670385665,127.185758243 C160.456391575,127.265936615 160.229780403,127.37688824 160.062020742,127.535661058 C159.920043384,127.670032725 159.828541157,127.8303506 159.80075134,128.025153446
C159.770385605,128.238013138 159.821049988,128.45924382 159.895110635,128.657667148 C159.992263454,128.917959039 160.146921812,129.183197106 160.298899641,129.414622563 C160.485670619,129.699029566 160.707689868,129.991242602 160.91829736,130.258288195
C161.147201974,130.548534128 161.394805879,130.849390467 161.626300068,131.137587627 C161.846483401,131.411703412 162.079799462,131.70840337 162.282267506,131.99596031 C162.452471123,132.237693424 162.628430372,132.511525807 162.753567778,132.780066373
C162.848963672,132.984782679 162.930749929,133.219623853 162.935989729,133.447995769 C162.940472167,133.643358725 162.88891178,133.819632856 162.769781311,133.97571833 C162.638119416,134.148222557 162.4428542,134.270764216 162.248845571,134.360782078
C161.993994419,134.479030198 161.695030206,134.561849342 161.421678988,134.622690585 C161.087516603,134.697066895 160.722930205,134.753357817 160.383907743,134.799901328 C160.016519111,134.850339156 159.631269041,134.895653764 159.263570608,134.943906983
C158.916674685,134.989430279 158.54458154,135.042664654 158.201413453,135.111310573 C157.914523554,135.168698836 157.601347619,135.245819513 157.329228102,135.35511412 C157.122048475,135.438326144 156.905533235,135.553051392 156.74956924,135.7165615
C156.614676273,135.857981085 156.536508714,136.023482154 156.519970981,136.218790904 C156.501484615,136.437112802 156.562845881,136.663062847 156.644092232,136.863273814 C156.750901566,137.126478253 156.912935687,137.394703045 157.071153566,137.629588539
C157.263536193,137.915193986 157.48963551,138.209028059 157.703752317,138.47856316 C157.935103188,138.769792892 158.180629154,139.067753353 158.412853085,139.358304193 C158.630164746,139.630197296 158.860030924,139.925527441 159.057646621,140.212183126
C159.221947326,140.450513037 159.391081091,140.721601002 159.507220717,140.987551689 C159.595572597,141.189870604 159.667305384,141.420356499 159.660707934,141.643844555 C159.654937856,141.839305445 159.590108188,142.010133837 159.462809352,142.15882245
C159.318888198,142.326926397 159.112818671,142.44551426 158.912305214,142.531994832 C158.648645704,142.645710019 158.342434966,142.725628421 158.062242651,142.784695384 C157.723388992,142.856128666 157.354892047,142.910827547 157.011771593,142.95679871
C156.642116363,143.006324993 156.260540575,143.051057248 155.890885345,143.100583531 C155.547764891,143.146554693 155.179267946,143.201253575 154.840414287,143.272686857 C154.560221972,143.33175382 154.254011234,143.411672221 153.990351724,143.525387409
C153.789838267,143.61186798 153.58376874,143.730455844 153.439847586,143.89855979 C153.31254875,144.047248403 153.247719082,144.218076795 153.241949004,144.413537686 C153.235351554,144.637025741 153.307084341,144.867511637 153.395436221,145.069830552
C153.511575847,145.335781239 153.680709612,145.606869203 153.845010317,145.845199114 C154.042626014,146.1318548 154.272492192,146.427184944 154.489803853,146.699078047 C154.723240981,146.991146798 154.966351396,147.286075798 155.198904621,147.578819081
C155.413021428,147.848354181 155.639120745,148.142188254 155.831503372,148.427793702 C155.989721251,148.662679196 156.151755372,148.930903988 156.258564706,149.194108426 C156.339811057,149.394319394 156.401172323,149.620269439 156.382685957,149.838591337
C156.366148224,150.033900086 156.287980665,150.199401155 156.153087698,150.340820741 C155.997123703,150.504330849 155.780608463,150.619056096 155.573428836,150.702268121 C155.301309319,150.811562727 154.988133384,150.888683404 154.701243485,150.946071668
C154.358075398,151.014717586 153.985982253,151.067951961 153.63908633,151.113475258 C153.267525809,151.1622353 152.889956551,151.206518821 152.518749195,151.257480913 C152.179726733,151.304024423 151.815140335,151.360315345 151.48097795,151.434691655
C151.207626732,151.495532898 150.908662519,151.578352042 150.653811367,151.696600163 C150.459802738,151.786618024 150.264537522,151.909159684 150.132875627,152.08166391 C150.013745158,152.237749384 149.962184771,152.414023515 149.966667209,152.609386472
C149.971907009,152.837758388 150.053693266,153.072599561 150.14908916,153.277315867 C150.274226566,153.545856433 150.450185815,153.819688816 150.620389432,154.061421931 C150.822857476,154.34897887 151.056173537,154.645678829 151.27635687,154.919794614
C151.511517751,155.212556597 151.751885822,155.50432252 151.984359578,155.799094046 C152.19496707,156.066139638 152.416986319,156.358352675 152.603757297,156.642759678 C152.755735126,156.874185135 152.910393484,157.139423202 153.007546303,157.399715093
C153.08160695,157.598138421 153.132271333,157.819369102 153.101905598,158.032228794 C153.074115781,158.22703164 152.982613554,158.387349516 152.840636196,158.521721182 C152.672876535,158.680494001 152.446265363,158.791445625 152.232271273,158.871623997
C151.952041369,158.976619314 151.63218069,159.051047575 151.338762878,159.106852168 C150.991659192,159.17286718 150.616287716,159.224766199 150.265947367,159.269969344 C149.892845148,159.318109369 149.519604548,159.362072992 149.147256911,159.414637235
C148.812645601,159.461874248 148.452280401,159.519883005 148.123183954,159.597356945 C147.856784581,159.660071112 147.565352535,159.745891915 147.319659064,159.868773308 C147.131991919,159.962633353 146.947894976,160.089223764 146.828669908,160.265880515
C146.718313037,160.429397187 146.679889454,160.611200511 146.694104109,160.806328621 C146.711076852,161.039317691 146.80260674,161.278339341 146.904994835,161.485707153 C147.038790285,161.756684653 147.221298464,162.033143681 147.39720862,162.278223895
C147.604146477,162.566532286 147.8405919,162.864474558 148.06331567,163.140674371 C148.299835731,163.433982969 148.537144891,163.722457101 148.769123573,164.01909113 C148.975916697,164.283520073 149.193546635,164.573988417 149.374329859,164.857049469
C149.519923992,165.085013256 149.666933384,165.347140539 149.754114901,165.604351336 C149.82088094,165.801330542 149.860517703,166.017659692 149.818351969,166.224750941 C149.778878501,166.418619495 149.674113773,166.573911217 149.525477969,166.701533074
C149.346193763,166.855470299 149.109825774,166.96273635 148.888890099,167.040085616 C148.600902242,167.140909755 148.274638753,167.212753277 147.974883996,167.267070332 C147.624225296,167.330611435 147.245896663,167.381305741 146.892450661,167.426319558
C146.518172188,167.473986536 146.149573078,167.517753988 145.776502476,167.572090293 C145.446605207,167.620138568 145.090768031,167.679989099 144.767109839,167.760713911 C144.507757614,167.82539993 144.224139872,167.914320811 143.987943983,168.041926617
C143.806467039,168.139970288 143.633902377,168.270710089 143.527243656,168.451214923 C143.426263569,168.622109469 143.400789675,168.809483774 143.424234954,169.00435418 C143.452791723,169.241709824 143.553763708,169.484744509 143.663094328,169.694980716
C143.805201759,169.968244761 143.993979326,170.247213076 144.175383867,170.495571217"/>
      <path
          style="fill:none;stroke:#0F80FF;stroke-linecap:round;stroke-width:0.869471294673"
          id="6E4DF27A"
          d="M28.1899582185,171.664091957 C27.8324763216,171.730713756 27.4456998108,171.792978516 27.0872021338,171.853549462 C26.738717637,171.912428604 26.3653305528,171.978117336 26.0203797369,172.055345768 C25.7268202059,172.121068593 25.4068381654,172.20534345 25.1268211619,172.31663688
C24.9137977928,172.401303529 24.685489069,172.516429126 24.5171908027,172.675422403 C24.3781790797,172.806748351 24.2846397757,172.963262 24.258455782,173.154697304 C24.2303443237,173.360224605 24.2849375563,173.570722649 24.3635795423,173.758912932
C24.467315489,174.007153065 24.6307464621,174.257419804 24.7895267389,174.473291939 C24.9873374591,174.742228505 25.2220574792,175.016833389 25.4438864887,175.266102557 C25.6865718143,175.538807959 25.9526595296,175.82425324 26.1990946385,176.093542193
C26.436665927,176.353145316 26.6894445997,176.633853292 26.9120662112,176.906478762 C27.1004362739,177.137159316 27.2979082222,177.399124429 27.4462165461,177.658012235 C27.558745858,177.854444006 27.6633063243,178.083760905 27.6924820229,178.310692678
C27.7168398393,178.500150437 27.6877898293,178.67864235 27.5861052299,178.842283886 C27.4756509311,179.020038544 27.2974615868,179.150836915 27.1166012928,179.249185595 C26.8774582048,179.379227445 26.5908502254,179.474973679 26.3293715233,179.54698757
C26.0053566551,179.636224558 25.649212951,179.707928755 25.3187160431,179.768070302 C24.9582462156,179.833666114 24.574486147,179.89497131 24.2133207559,179.956621565 C23.8680190306,180.015563922 23.4976852699,180.08231822 23.1564522612,180.161835812
C22.8693701855,180.228734601 22.5559293995,180.315271445 22.2839087626,180.430343017 C22.0779742737,180.517458486 21.8596124782,180.635771192 21.7031203805,180.79903221 C21.5710219448,180.936844441 21.491131284,181.097743973 21.4766153843,181.28937416
C21.4606611682,181.499992136 21.5264781839,181.714796446 21.6123969342,181.904116966 C21.7262005007,182.15488121 21.8973624203,182.407824227 22.0627113742,182.626863124 C22.2664967414,182.896819002 22.5056347726,183.172917789 22.7313976406,183.424593138
C22.9768899117,183.69826238 23.2410076629,183.9810371 23.4886866932,184.252747309 C23.723536062,184.510383052 23.9730869917,184.790000684 24.1911732988,185.062083581 C24.3736052163,185.289684319 24.5643850663,185.549365056 24.7038864593,185.806256022
C24.8093050418,186.0003837 24.9039002203,186.22602608 24.9210617901,186.448947578 C24.9357127824,186.639257741 24.8931114111,186.81286053 24.7824189265,186.969459361 C24.6593155721,187.143616093 24.46981659,187.270957152 24.2824388239,187.365896257
C24.0339746392,187.491786151 23.739764377,187.584937221 23.4712131534,187.655458592 C23.1420479858,187.741897145 22.7816569516,187.812120284 22.4467350662,187.871794959 C22.0836401205,187.936489366 21.7032515798,187.996959002 21.3398178003,188.05982361
C20.998044131,188.11894158 20.6310895916,188.186875046 20.2939621917,188.268819427 C20.0135525099,188.336977631 19.7069375445,188.425869113 19.4432715329,188.544830395 C19.2442943585,188.634605256 19.036229963,188.756175806 18.8918127367,188.923590693
C18.7670959961,189.068167899 18.7009307035,189.233614405 18.6976001755,189.425021121 C18.6938522599,189.640415257 18.7705427877,189.859352281 18.8636671217,190.050163235 C18.9872116803,190.303304965 19.1658283693,190.558817402 19.3375989202,190.78101905
C19.5469750258,191.051867082 19.7902164608,191.329352844 20.0195997363,191.583320973 C20.2675345106,191.857828915 20.5293304667,192.137813608 20.7778513866,192.411805678 C21.0096412225,192.667351878 21.255639221,192.945769135 21.4688004919,193.217180238
C21.6450977187,193.441653589 21.8289053982,193.698947889 21.9592517045,193.953708439 C22.057533325,194.145798882 22.1418379806,194.367603323 22.14686681,194.586249695 C22.1512605569,194.777283581 22.0949802065,194.946096888 21.975914837,195.095667273
C21.8403406711,195.265976073 21.6399124066,195.389935607 21.4458491948,195.481773487 C21.188416809,195.603600001 20.8868902218,195.694242399 20.611391795,195.763358582 C20.2774585563,195.847134707 19.9131361051,195.915986493 19.5741112108,195.975298866
C19.2087571097,196.039217531 18.8320869009,196.098971317 18.4667910168,196.163189161 C18.128882813,196.222592338 17.7656299077,196.291817239 17.4329940607,196.376325642 C17.1594300029,196.445826454 16.8599238945,196.53716296 16.6049677779,196.660119034
C16.4127948143,196.752797074 16.2153911444,196.877696735 16.0832909765,197.049105783 C15.9665089302,197.200638515 15.9140705867,197.370781789 15.9213945042,197.561632812 C15.92983211,197.781504988 16.0170537005,198.004401766 16.1173381059,198.197033882
C16.2502845134,198.452405069 16.4360739798,198.710378425 16.6141090335,198.935732127 C16.8286895597,199.207344459 17.0757157173,199.486109108 17.3083964524,199.742252987 C17.5584063563,200.017473481 17.8175383913,200.294550814 18.0664912402,200.570683829
C18.294892207,200.824021149 18.5370157848,201.101129115 18.744864159,201.371740016 C18.9148512236,201.593056892 19.0914068757,201.847859974 19.2122553682,202.100349943 C19.3033660897,202.290708489 19.3770446459,202.508505032 19.3698756462,202.722591666
C19.3634627563,202.914098719 19.2934480206,203.078255284 19.1666103014,203.220913577 C19.0187838589,203.387178534 18.8077979018,203.507829054 18.6068858529,203.59683564 C18.3408428169,203.714696079 18.0322865818,203.802918549 17.7499887775,203.870715467
C17.4116719309,203.951965972 17.0437378243,204.019557639 16.7009411713,204.078615226 C16.3336965892,204.141884743 15.9610813034,204.201038221 15.5943375834,204.266751587 C15.2606235815,204.326546667 14.9013910113,204.397173822 14.573630574,204.484382854
C14.3070489966,204.55531369 14.0149404079,204.649183331 13.7690530026,204.776227994 C13.5835183246,204.872089718 13.3971498089,205.000391723 13.2775748611,205.175584268 C13.1693419474,205.334159286 13.130553509,205.50912365 13.1479793473,205.699202702
C13.1685214656,205.923273778 13.2659413832,206.149961953 13.3733550067,206.344710062 C13.5153595881,206.602173899 13.7080430033,206.862505004 13.8921594231,207.0909741 C14.1115559529,207.3632221 14.3620442821,207.643156402 14.5976907522,207.90135586
C14.8494059214,208.177161903 15.1055429106,208.451217802 15.3545094054,208.729348506 C15.5792011426,208.980360882 15.8171327413,209.256051792 16.0192825451,209.525734843 C16.1828048926,209.74388596 16.3518283505,209.996089948 16.4628433712,210.246161965
C16.5467316585,210.435128405 16.6094392273,210.64874345 16.5900702182,210.857967284 C16.5723308186,211.049588093 16.4886047187,211.209242209 16.3545260206,211.34520538 C16.1946976148,211.50728017 15.9735137981,211.624692672 15.7656050945,211.711102045
C15.491307523,211.825103435 15.1760050144,211.910997003 14.8870873285,211.977557824 C14.5447733631,212.056420074 14.1735510148,212.122864277 13.8273222978,212.181777467 C13.4585581778,212.24452521 13.0903244367,212.303189509 12.7225539901,212.370544021
C12.3933533997,212.43083474 12.0384559705,212.502973404 11.7159525115,212.593018803 C11.4564756396,212.665466703 11.1720488375,212.761955333 10.9355798443,212.893175349 C10.7565166166,212.992540087 10.5815652634,213.124321522 10.4746807848,213.303031775
C10.3756346651,213.468636336 10.3503503993,213.648510666 10.3773323325,213.837723107 C10.4098469465,214.065733808 10.5171428989,214.296052124 10.6316601285,214.493171965 C10.782372984,214.752595758 10.9816695201,215.015182765 11.1716659496,215.246716077
C11.3954882848,215.519470291 11.6491126075,215.800463913 11.8873850017,216.060596067 C12.1404335254,216.336859952 12.393254607,216.607782485 12.6418097798,216.887766711 C12.8624816303,217.136341853 13.0959078149,217.410509107 13.2919758697,217.679137323
C13.4488917423,217.894124058 13.6101068636,218.143621296 13.7109645333,218.391126931 C13.7875498712,218.579068043 13.8389345141,218.788328818 13.8074358231,218.992371499 C13.7779047255,219.183668475 13.6805646519,219.338982303 13.5396860316,219.468550936
C13.3681306405,219.626333554 13.1370957196,219.740578817 12.9220659972,219.824592988 C12.6398729764,219.934848503 12.3181093388,220.018506447 12.0227724741,220.083914851 C11.6768496668,220.160526549 11.3026659059,220.225937241 10.953352479,220.284819201
C10.583441588,220.34717317 10.219906533,220.405454709 9.851535923036,220.474599319 C9.527157511861,220.535486419 9.176906002131,220.609244182 8.860038630116,220.70226053 C8.6077637028,220.776315781 8.331303823253,220.875506934 8.104598010428,221.010978167
C7.931853689564,221.114203955 7.768703487551,221.249548137 7.674621754858,221.431452772 C7.585388451865,221.603983092 7.573403381597,221.788813222 7.609427765154,221.977185207 C7.653740248715,222.208895777 7.770600208698,222.442691333 7.892193029362,222.642398836
C8.051258501965,222.903652486 8.256884250402,223.168393984 8.452542725934,223.402928567 C8.68039921584,223.676058707 8.936830001205,223.958000276 9.177381086826,224.219939917 C9.431389453969,224.49653339 9.680584370158,224.764212826 9.928297122362,225.04590574
C10.1446488908,225.291935706 10.3732604942,225.564473848 10.5628664228,225.831920773 C10.7130532535,226.043765447 10.8661832618,226.290444854 10.9565706351,226.535228283 C11.0257312671,226.722526308 11.0654376943,226.927267031 11.0219611531,227.12580043
C10.9802471361,227.316285352 10.8694615814,227.46741866 10.7221176787,227.590959635"/>
      <line
          style="fill:none;stroke:#074080;stroke-linecap:round;stroke-width:1.984251968504;marker-end:url(#83EA566A_end_arrow)"
          id="F5A5B58A"
          x1="86.723228347"
          y1="173.388582677"
          x2="102.428027253"
          y2="216.537163049"/>
      <path
          style="fill:none;stroke:#0F80FF;stroke-linecap:round;stroke-width:0.869471294673"
          id="06A5B58A"
          d="M84.8828716045,171.664091957 C84.5253897076,171.730713756 84.1386131968,171.792978516 83.7801155198,171.853549462 C83.431631023,171.912428604 83.0582439388,171.978117336 82.7132931229,172.055345768 C82.4197335919,172.121068593 82.0997515514,172.20534345 81.8197345479,172.31663688
C81.6067111788,172.401303529 81.378402455,172.516429126 81.2101041887,172.675422403 C81.0710924657,172.806748351 80.9775531617,172.963262 80.951369168,173.154697304 C80.9232577097,173.360224605 80.9778509423,173.570722649 81.0564929283,173.758912932
C81.160228875,174.007153065 81.3236598481,174.257419804 81.4824401249,174.473291939 C81.6802508451,174.742228505 81.9149708652,175.016833389 82.1367998747,175.266102557 C82.3794852003,175.538807959 82.6455729156,175.82425324 82.8920080245,176.093542193
C83.129579313,176.353145316 83.3823579857,176.633853292 83.6049795972,176.906478762 C83.7933496599,177.137159316 83.9908216082,177.399124429 84.1391299321,177.658012235 C84.251659244,177.854444006 84.3562197103,178.083760905 84.3853954089,178.310692678
C84.4097532253,178.500150437 84.3807032153,178.67864235 84.2790186159,178.842283886 C84.1685643171,179.020038544 83.9903749728,179.150836915 83.8095146788,179.249185595 C83.5703715908,179.379227445 83.2837636114,179.474973679 83.0222849093,179.54698757
C82.6982700411,179.636224558 82.342126337,179.707928755 82.0116294291,179.768070302 C81.6511596016,179.833666114 81.267399533,179.89497131 80.9062341419,179.956621565 C80.5609324166,180.015563922 80.1905986559,180.08231822 79.8493656472,180.161835812
C79.5622835715,180.228734601 79.2488427855,180.315271445 78.9768221486,180.430343017 C78.7708876597,180.517458486 78.5525258642,180.635771192 78.3960337665,180.79903221 C78.2639353308,180.936844441 78.18404467,181.097743973 78.1695287703,181.28937416
C78.1535745542,181.499992136 78.2193915699,181.714796446 78.3053103202,181.904116966 C78.4191138867,182.15488121 78.5902758063,182.407824227 78.7556247602,182.626863124 C78.9594101274,182.896819002 79.1985481586,183.172917789 79.4243110266,183.424593138
C79.6698032977,183.69826238 79.9339210489,183.9810371 80.1816000792,184.252747309 C80.416449448,184.510383052 80.6660003777,184.790000684 80.8840866848,185.062083581 C81.0665186023,185.289684319 81.2572984523,185.549365056 81.3967998453,185.806256022
C81.5022184278,186.0003837 81.5968136063,186.22602608 81.6139751761,186.448947578 C81.6286261684,186.639257741 81.5860247971,186.81286053 81.4753323125,186.969459361 C81.3522289581,187.143616093 81.162729976,187.270957152 80.9753522099,187.365896257
C80.7268880252,187.491786151 80.432677763,187.584937221 80.1641265394,187.655458592 C79.8349613718,187.741897145 79.4745703376,187.812120284 79.1396484522,187.871794959 C78.7765535065,187.936489366 78.3961649658,187.996959002 78.0327311863,188.05982361
C77.690957517,188.11894158 77.3240029776,188.186875046 76.9868755777,188.268819427 C76.7064658959,188.336977631 76.3998509305,188.425869113 76.1361849189,188.544830395 C75.9372077445,188.634605256 75.729143349,188.756175806 75.5847261227,188.923590693
C75.4600093821,189.068167899 75.3938440895,189.233614405 75.3905135615,189.425021121 C75.3867656459,189.640415257 75.4634561737,189.859352281 75.5565805077,190.050163235 C75.6801250663,190.303304965 75.8587417553,190.558817402 76.0305123062,190.78101905
C76.2398884118,191.051867082 76.4831298468,191.329352844 76.7125131223,191.583320973 C76.9604478966,191.857828915 77.2222438527,192.137813608 77.4707647726,192.411805678 C77.7025546085,192.667351878 77.948552607,192.945769135 78.1617138779,193.217180238
C78.3380111047,193.441653589 78.5218187842,193.698947889 78.6521650905,193.953708439 C78.750446711,194.145798882 78.8347513666,194.367603323 78.839780196,194.586249695 C78.8441739429,194.777283581 78.7878935925,194.946096888 78.668828223,195.095667273
C78.5332540571,195.265976073 78.3328257926,195.389935607 78.1387625808,195.481773487 C77.881330195,195.603600001 77.5798036078,195.694242399 77.304305181,195.763358582 C76.9703719423,195.847134707 76.6060494911,195.915986493 76.2670245968,195.975298866
C75.9016704957,196.039217531 75.5250002869,196.098971317 75.1597044028,196.163189161 C74.821796199,196.222592338 74.4585432937,196.291817239 74.1259074467,196.376325642 C73.8523433889,196.445826454 73.5528372805,196.53716296 73.2978811639,196.660119034
C73.1057082003,196.752797074 72.9083045304,196.877696735 72.7762043625,197.049105783 C72.6594223162,197.200638515 72.6069839727,197.370781789 72.6143078902,197.561632812 C72.622745496,197.781504988 72.7099670865,198.004401766 72.8102514919,198.197033882
C72.9431978994,198.452405069 73.1289873658,198.710378425 73.3070224195,198.935732127 C73.5216029457,199.207344459 73.7686291033,199.486109108 74.0013098384,199.742252987 C74.2513197423,200.017473481 74.5104517773,200.294550814 74.7594046262,200.570683829
C74.987805593,200.824021149 75.2299291708,201.101129115 75.437777545,201.371740016 C75.6077646096,201.593056892 75.7843202617,201.847859974 75.9051687542,202.100349943 C75.9962794757,202.290708489 76.0699580319,202.508505032 76.0627890322,202.722591666
C76.0563761423,202.914098719 75.9863614066,203.078255284 75.8595236874,203.220913577 C75.7116972449,203.387178534 75.5007112878,203.507829054 75.2997992389,203.59683564 C75.0337562029,203.714696079 74.7251999678,203.802918549 74.4429021635,203.870715467
C74.1045853169,203.951965972 73.7366512103,204.019557639 73.3938545573,204.078615226 C73.0266099752,204.141884743 72.6539946894,204.201038221 72.2872509694,204.266751587 C71.9535369675,204.326546667 71.5943043973,204.397173822 71.26654396,204.484382854
C70.9999623826,204.55531369 70.7078537939,204.649183331 70.4619663886,204.776227994 C70.2764317106,204.872089718 70.0900631949,205.000391723 69.9704882471,205.175584268 C69.8622553334,205.334159286 69.823466895,205.50912365 69.8408927333,205.699202702
C69.8614348516,205.923273778 69.9588547692,206.149961953 70.0662683927,206.344710062 C70.2082729741,206.602173899 70.4009563893,206.862505004 70.5850728091,207.0909741 C70.8044693389,207.3632221 71.0549576681,207.643156402 71.2906041382,207.90135586
C71.5423193074,208.177161903 71.7984562966,208.451217802 72.0474227914,208.729348506 C72.2721145286,208.980360882 72.5100461273,209.256051792 72.7121959311,209.525734843 C72.8757182786,209.74388596 73.0447417365,209.996089948 73.1557567572,210.246161965
C73.2396450445,210.435128405 73.3023526133,210.64874345 73.2829836042,210.857967284 C73.2652442046,211.049588093 73.1815181047,211.209242209 73.0474394066,211.34520538 C72.8876110008,211.50728017 72.6664271841,211.624692672 72.4585184805,211.711102045
C72.184220909,211.825103435 71.8689184004,211.910997003 71.5800007145,211.977557824 C71.2376867491,212.056420074 70.8664644008,212.122864277 70.5202356838,212.181777467 C70.1514715638,212.24452521 69.7832378227,212.303189509 69.4154673761,212.370544021
C69.0862667857,212.43083474 68.7313693565,212.502973404 68.4088658975,212.593018803 C68.1493890256,212.665466703 67.8649622235,212.761955333 67.6284932303,212.893175349 C67.4494300026,212.992540087 67.2744786494,213.124321522 67.1675941708,213.303031775
C67.0685480511,213.468636336 67.0432637853,213.648510666 67.0702457185,213.837723107 C67.1027603325,214.065733808 67.2100562849,214.296052124 67.3245735145,214.493171965 C67.47528637,214.752595758 67.6745829061,215.015182765 67.8645793356,215.246716077
C68.0884016708,215.519470291 68.3420259935,215.800463913 68.5802983877,216.060596067 C68.8333469114,216.336859952 69.086167993,216.607782485 69.3347231658,216.887766711 C69.5553950163,217.136341853 69.7888212009,217.410509107 69.9848892557,217.679137323
C70.1418051283,217.894124058 70.3030202496,218.143621296 70.4038779193,218.391126931 C70.4804632572,218.579068043 70.5318479001,218.788328818 70.5003492091,218.992371499 C70.4708181115,219.183668475 70.3734780379,219.338982303 70.2325994176,219.468550936
C70.0610440265,219.626333554 69.8300091056,219.740578817 69.6149793832,219.824592988 C69.3327863624,219.934848503 69.0110227248,220.018506447 68.7156858601,220.083914851 C68.3697630528,220.160526549 67.9955792919,220.225937241 67.646265865,220.284819201
C67.276354974,220.34717317 66.912819919,220.405454709 66.544449309,220.474599319 C66.2200708979,220.535486419 65.8698193881,220.609244182 65.5529520161,220.70226053 C65.3006770888,220.776315781 65.0242172093,220.875506934 64.7975113964,221.010978167
C64.6247670756,221.114203955 64.4616168736,221.249548137 64.3675351409,221.431452772 C64.2783018379,221.603983092 64.2663167676,221.788813222 64.3023411512,221.977185207 C64.3466536347,222.208895777 64.4635135947,222.442691333 64.5851064154,222.642398836
C64.744171888,222.903652486 64.9497976364,223.168393984 65.1454561119,223.402928567 C65.3733126018,223.676058707 65.6297433872,223.958000276 65.8702944728,224.219939917 C66.12430284,224.49653339 66.3734977562,224.764212826 66.6212105084,225.04590574
C66.8375622768,225.291935706 67.0661738802,225.564473848 67.2557798088,225.831920773 C67.4059666395,226.043765447 67.5590966478,226.290444854 67.6494840211,226.535228283 C67.7186446531,226.722526308 67.7583510803,226.927267031 67.7148745391,227.12580043
C67.6731605221,227.316285352 67.5623749674,227.46741866 67.4150310647,227.590959635"/>
      <line
          style="fill:none;stroke:#074080;stroke-linecap:round;stroke-width:1.984251968504;marker-end:url(#83EA566A_end_arrow)"
          id="2DEFF58A"
          x1="201.242913386"
          y1="173.388582677"
          x2="215.983070866"
          y2="216.47519685"/>
      <path
          style="fill:none;stroke:#0F80FF;stroke-linecap:round;stroke-width:0.869471294673"
          id="3DEFF58A"
          d="M199.402556644,171.664091957 C199.045074747,171.730713756 198.658298236,171.792978516 198.299800559,171.853549462 C197.951316062,171.912428604 197.577928978,171.978117336 197.232978162,172.055345768 C196.939418631,172.121068593 196.61943659,172.20534345 196.339419587,172.31663688
C196.126396218,172.401303529 195.898087494,172.516429126 195.729789228,172.675422403 C195.590777505,172.806748351 195.497238201,172.963262 195.471054207,173.154697304 C195.442942749,173.360224605 195.497535981,173.570722649 195.576177967,173.758912932
C195.679913914,174.007153065 195.843344887,174.257419804 196.002125164,174.473291939 C196.199935884,174.742228505 196.434655904,175.016833389 196.656484914,175.266102557 C196.899170239,175.538807959 197.165257955,175.82425324 197.411693063,176.093542193
C197.649264352,176.353145316 197.902043025,176.633853292 198.124664636,176.906478762 C198.313034699,177.137159316 198.510506647,177.399124429 198.658814971,177.658012235 C198.771344283,177.854444006 198.875904749,178.083760905 198.905080448,178.310692678
C198.929438264,178.500150437 198.900388254,178.67864235 198.798703655,178.842283886 C198.688249356,179.020038544 198.510060012,179.150836915 198.329199718,179.249185595 C198.09005663,179.379227445 197.80344865,179.474973679 197.541969948,179.54698757
C197.21795508,179.636224558 196.861811376,179.707928755 196.531314468,179.768070302 C196.170844641,179.833666114 195.787084572,179.89497131 195.425919181,179.956621565 C195.080617456,180.015563922 194.710283695,180.08231822 194.369050686,180.161835812
C194.08196861,180.228734601 193.768527825,180.315271445 193.496507188,180.430343017 C193.290572699,180.517458486 193.072210903,180.635771192 192.915718805,180.79903221 C192.78362037,180.936844441 192.703729709,181.097743973 192.689213809,181.28937416
C192.673259593,181.499992136 192.739076609,181.714796446 192.824995359,181.904116966 C192.938798926,182.15488121 193.109960845,182.407824227 193.275309799,182.626863124 C193.479095166,182.896819002 193.718233198,183.172917789 193.943996066,183.424593138
C194.189488337,183.69826238 194.453606088,183.9810371 194.701285118,184.252747309 C194.936134487,184.510383052 195.185685417,184.790000684 195.403771724,185.062083581 C195.586203641,185.289684319 195.776983491,185.549365056 195.916484884,185.806256022
C196.021903467,186.0003837 196.116498645,186.22602608 196.133660215,186.448947578 C196.148311207,186.639257741 196.105709836,186.81286053 195.995017351,186.969459361 C195.871913997,187.143616093 195.682415015,187.270957152 195.495037249,187.365896257
C195.246573064,187.491786151 194.952362802,187.584937221 194.683811578,187.655458592 C194.354646411,187.741897145 193.994255377,187.812120284 193.659333491,187.871794959 C193.296238545,187.936489366 192.915850005,187.996959002 192.552416225,188.05982361
C192.210642556,188.11894158 191.843688017,188.186875046 191.506560617,188.268819427 C191.226150935,188.336977631 190.91953597,188.425869113 190.655869958,188.544830395 C190.456892784,188.634605256 190.248828388,188.756175806 190.104411162,188.923590693
C189.979694421,189.068167899 189.913529129,189.233614405 189.9101986,189.425021121 C189.906450685,189.640415257 189.983141213,189.859352281 190.076265547,190.050163235 C190.199810105,190.303304965 190.378426794,190.558817402 190.550197345,190.78101905
C190.759573451,191.051867082 191.002814886,191.329352844 191.232198161,191.583320973 C191.480132936,191.857828915 191.741928892,192.137813608 191.990449812,192.411805678 C192.222239647,192.667351878 192.468237646,192.945769135 192.681398917,193.217180238
C192.857696144,193.441653589 193.041503823,193.698947889 193.17185013,193.953708439 C193.27013175,194.145798882 193.354436406,194.367603323 193.359465235,194.586249695 C193.363858982,194.777283581 193.307578631,194.946096888 193.188513262,195.095667273
C193.052939096,195.265976073 192.852510832,195.389935607 192.65844762,195.481773487 C192.401015234,195.603600001 192.099488647,195.694242399 191.82399022,195.763358582 C191.490056981,195.847134707 191.12573453,195.915986493 190.786709636,195.975298866
C190.421355535,196.039217531 190.044685326,196.098971317 189.679389442,196.163189161 C189.341481238,196.222592338 188.978228333,196.291817239 188.645592486,196.376325642 C188.372028428,196.445826454 188.072522319,196.53716296 187.817566203,196.660119034
C187.625393239,196.752797074 187.427989569,196.877696735 187.295889402,197.049105783 C187.179107355,197.200638515 187.126669012,197.370781789 187.133992929,197.561632812 C187.142430535,197.781504988 187.229652126,198.004401766 187.329936531,198.197033882
C187.462882938,198.452405069 187.648672405,198.710378425 187.826707458,198.935732127 C188.041287985,199.207344459 188.288314142,199.486109108 188.520994877,199.742252987 C188.771004781,200.017473481 189.030136816,200.294550814 189.279089665,200.570683829
C189.507490632,200.824021149 189.74961421,201.101129115 189.957462584,201.371740016 C190.127449649,201.593056892 190.304005301,201.847859974 190.424853793,202.100349943 C190.515964515,202.290708489 190.589643071,202.508505032 190.582474071,202.722591666
C190.576061181,202.914098719 190.506046446,203.078255284 190.379208726,203.220913577 C190.231382284,203.387178534 190.020396327,203.507829054 189.819484278,203.59683564 C189.553441242,203.714696079 189.244885007,203.802918549 188.962587202,203.870715467
C188.624270356,203.951965972 188.256336249,204.019557639 187.913539596,204.078615226 C187.546295014,204.141884743 187.173679728,204.201038221 186.806936008,204.266751587 C186.473222006,204.326546667 186.113989436,204.397173822 185.786228999,204.484382854
C185.519647422,204.55531369 185.227538833,204.649183331 184.981651428,204.776227994 C184.79611675,204.872089718 184.609748234,205.000391723 184.490173286,205.175584268 C184.381940372,205.334159286 184.343151934,205.50912365 184.360577772,205.699202702
C184.381119891,205.923273778 184.478539808,206.149961953 184.585953432,206.344710062 C184.727958013,206.602173899 184.920641428,206.862505004 185.104757848,207.0909741 C185.324154378,207.3632221 185.574642707,207.643156402 185.810289177,207.90135586
C186.062004346,208.177161903 186.318141336,208.451217802 186.56710783,208.729348506 C186.791799568,208.980360882 187.029731166,209.256051792 187.23188097,209.525734843 C187.395403318,209.74388596 187.564426775,209.996089948 187.675441796,210.246161965
C187.759330083,210.435128405 187.822037652,210.64874345 187.802668643,210.857967284 C187.784929244,211.049588093 187.701203144,211.209242209 187.567124446,211.34520538 C187.40729604,211.50728017 187.186112223,211.624692672 186.978203519,211.711102045
C186.703905948,211.825103435 186.388603439,211.910997003 186.099685753,211.977557824 C185.757371788,212.056420074 185.38614944,212.122864277 185.039920723,212.181777467 C184.671156603,212.24452521 184.302922862,212.303189509 183.935152415,212.370544021
C183.605951825,212.43083474 183.251054396,212.502973404 182.928550936,212.593018803 C182.669074065,212.665466703 182.384647262,212.761955333 182.148178269,212.893175349 C181.969115042,212.992540087 181.794163688,213.124321522 181.68727921,213.303031775
C181.58823309,213.468636336 181.562948824,213.648510666 181.589930757,213.837723107 C181.622445371,214.065733808 181.729741324,214.296052124 181.844258554,214.493171965 C181.994971409,214.752595758 182.194267945,215.015182765 182.384264375,215.246716077
C182.60808671,215.519470291 182.861711032,215.800463913 183.099983427,216.060596067 C183.35303195,216.336859952 183.605853032,216.607782485 183.854408205,216.887766711 C184.075080055,217.136341853 184.30850624,217.410509107 184.504574295,217.679137323
C184.661490167,217.894124058 184.822705289,218.143621296 184.923562958,218.391126931 C185.000148296,218.579068043 185.051532939,218.788328818 185.020034248,218.992371499 C184.99050315,219.183668475 184.893163077,219.338982303 184.752284457,219.468550936
C184.580729065,219.626333554 184.349694145,219.740578817 184.134664422,219.824592988 C183.852471401,219.934848503 183.530707764,220.018506447 183.235370899,220.083914851 C182.889448092,220.160526549 182.515264331,220.225937241 182.165950904,220.284819201
C181.796040013,220.34717317 181.432504958,220.405454709 181.064134348,220.474599319 C180.739755937,220.535486419 180.389504427,220.609244182 180.072637055,220.70226053 C179.820362128,220.776315781 179.543902248,220.875506934 179.317196435,221.010978167
C179.144452115,221.114203955 178.981301913,221.249548137 178.88722018,221.431452772 C178.797986877,221.603983092 178.786001807,221.788813222 178.82202619,221.977185207 C178.866338674,222.208895777 178.983198634,222.442691333 179.104791454,222.642398836
C179.263856927,222.903652486 179.469482675,223.168393984 179.665141151,223.402928567 C179.892997641,223.676058707 180.149428426,223.958000276 180.389979512,224.219939917 C180.643987879,224.49653339 180.893182795,224.764212826 181.140895547,225.04590574
C181.357247316,225.291935706 181.585858919,225.564473848 181.775464848,225.831920773 C181.925651678,226.043765447 182.078781687,226.290444854 182.16916906,226.535228283 C182.238329692,226.722526308 182.278036119,226.927267031 182.234559578,227.12580043
C182.192845561,227.316285352 182.082060006,227.46741866 181.934716104,227.590959635"/>
      <line
          style="fill:none;stroke:#074080;stroke-linecap:round;stroke-width:1.984251968504;marker-end:url(#83EA566A_end_arrow)"
          id="52EE468A"
          x1="145.683858268"
          y1="173.388582677"
          x2="159.29015748"
          y2="216.47519685"/>
      <line
          style="fill:none;stroke:#074080;stroke-linecap:round;stroke-width:1.984251968504;marker-end:url(#83EA566A_end_arrow)"
          id="3B5E478A"
          x1="143.416141732"
          y1="173.388582677"
          x2="130.943700788"
          y2="216.47519685"/>
      <text
          id="2358BF8A"
          style="stroke:none"
          font-family="Helvetica"
          font-size="12"
          font-weight="normal"
          font-style="normal">
         <tspan x="232.321653543" y="51.7271653543">n = 1</tspan>
      </text>
      <text
          id="2563119A"
          style="stroke:none"
          font-family="Helvetica"
          font-size="12"
          font-weight="normal"
          font-style="normal">
         <tspan x="232.321653543" y="108.42007874">n = 2</tspan>
      </text>
      <text
          id="4F34819A"
          style="stroke:none"
          font-family="Helvetica"
          font-size="12"
          font-weight="normal"
          font-style="normal">
         <tspan x="232.321653543" y="165.112992125">n = 3</tspan>
      </text>
      <text
          id="D758B39A"
          style="stroke:none"
          font-family="Helvetica"
          font-size="12"
          font-weight="normal"
          font-style="normal">
         <tspan x="232.321653543" y="221.805905511">n = 4</tspan>
      </text>
      <text
          id="6D11959A"
          style="fill:#005493;stroke:none"
          font-family="Helvetica"
          font-size="12"
          font-weight="normal"
          font-style="normal">
         <tspan x="118.935826772" y="32.0499999993">e</tspan>
         <tspan>-</tspan>
      </text>
      <text
          id="04FEC89A"
          style="fill:#0096FF;stroke:none"
          font-family="Cambria Math"
          font-size="12"
          font-weight="normal"
          font-style="normal">
         <tspan x="73.581496063" y="80.0736220473"></tspan>
      </text>
      <text
          id="79980A9A"
          style="fill:#0096FF;stroke:none"
          font-family="Cambria Math"
          font-size="12"
          font-weight="normal"
          font-style="normal">
         <tspan x="11.219291339" y="187.79015748"></tspan>
      </text>
      <text
          id="B6CB2A9A"
          style="fill:#0096FF;stroke:none"
          font-family="Cambria Math"
          font-size="12"
          font-weight="normal"
          font-style="normal">
         <tspan x="67.912204725" y="187.79015748"></tspan>
      </text>
      <text
          id="5DE963FA"
          style="fill:#005493;stroke:none"
          font-family="Times New Roman"
          font-size="14"
          font-weight="normal"
          font-style="normal">
         <tspan x="28.227165355" y="137.766535433">e</tspan>
      </text>
      <text
          id="6DE963FA"
          style="fill:#005493;stroke:none"
          font-family="Times New Roman"
          font-size="18"
          font-weight="normal"
          font-style="normal"
          transform="matrix(0.439553244196,0,0,0.439553244196,18.4190605641,71.7563811468)">
         <tspan x="37.864960629" y="144.034251967">+</tspan>
      </text>
      <text
          id="0FDE65FA"
          style="fill:#005493;stroke:none"
          font-family="Times New Roman"
          font-size="14"
          font-weight="normal"
          font-style="normal">
         <tspan x="73.581496063" y="137.766535433">e</tspan>
      </text>
      <text
          id="1FDE65FA"
          style="fill:#005493;stroke:none"
          font-family="Times New Roman"
          font-size="18"
          font-weight="normal"
          font-style="normal"
          transform="matrix(0.439553244196,0,0,0.439553244196,43.8377480711,71.7563811468)">
         <tspan x="83.219291337" y="144.034251967">-</tspan>
      </text>
      <text
          id="26C156FA"
          style="fill:#005493;stroke:none"
          font-family="Times New Roman"
          font-size="14"
          font-weight="normal"
          font-style="normal">
         <tspan x="39.565748032" y="188.79015748">e</tspan>
      </text>
      <text
          id="36C156FA"
          style="fill:#005493;stroke:none"
          font-family="Times New Roman"
          font-size="18"
          font-weight="normal"
          font-style="normal"
          transform="matrix(0.439553244196,0,0,0.439553244196,24.7737324409,100.352404592)">
         <tspan x="49.203543306" y="195.057874014">+</tspan>
      </text>
      <text
          id="8D5DD6FA"
          style="fill:#005493;stroke:none"
          font-family="Times New Roman"
          font-size="14"
          font-weight="normal"
          font-style="normal">
         <tspan x="96.258661418" y="188.79015748">e</tspan>
      </text>
      <text
          id="9D5DD6FA"
          style="fill:#005493;stroke:none"
          font-family="Times New Roman"
          font-size="18"
          font-weight="normal"
          font-style="normal"
          transform="matrix(0.439553244196,0,0,0.439553244196,56.5470918252,100.352404592)">
         <tspan x="105.896456692" y="195.057874014">-</tspan>
      </text>
   </g>
</svg>
