<?xml version="1.0" encoding="UTF-8"?>
<!-- Created with EazyDraw for Mac ( http://www.eazydraw.com/ ) -->

<svg
    version="1.1"
    xmlns:dc="http://purl.org/dc/elements/1.1/"
    xmlns:cc="http://creativecommons.org/ns#"
    xmlns:rdf="http://www.w3.org/1999/02/22-rdf-syntax-ns#"
    xmlns:svg="http://www.w3.org/2000/svg"
    xmlns:xlink="http://www.w3.org/1999/xlink"
    xmlns="http://www.w3.org/2000/svg"
    width="317.48031496"
    height="216.425196851"
    viewBox="0, 0, 317.48031496, 216.425196851"
    preserveAspectRatio="none"
    id="svg2">
   <defs
       id="defs_38D64C3E">
      <marker
          orient="auto"
          refX="0.0"
          refY="0.0"
          id="2E2418ED_end_arrow"
          style="overflow:visible"
          markerUnits="userSpaceOnUse">
         <path
             id="2E2418ED_end_arrow_path"
             style="fill:#000000;fill-opacity:1;stroke:#000000;stroke-opacity:1;fill-rule:nonzero;stroke-linecap:round;stroke-linejoin:miter;stroke-width:0.531496062992;stroke-miterlimit:10"
             d="M-45.3986244202,0 L-59.494013732,5.130302149885 L-59.494013732,5.130302149885 C-60.7001613163,1.816438897541 -60.7001613163,-1.816438897541 -59.494013732,-5.130302149885 z"/>
      </marker>
   </defs>
   <metadata
       id="metadata7">
      <rdf:RDF>
         <cc:Work
             rdf:about="">
            <dc:format>image/svg+xml</dc:format>
            <dc:type rdf:resource="http://purl.org/dc/dcmitype/StillImage"/>
            <dc:title></dc:title>
         </cc:Work>
      </rdf:RDF>
   </metadata>
   <g
       id="layer_Paper"
       style="fill:#000000;fill-opacity:1;stroke:#000000;stroke-opacity:1;fill-rule:nonzero;stroke-linecap:square;stroke-linejoin:miter;stroke-width:1;stroke-miterlimit:10">
      <path
          style="fill:none;stroke:#0F80FF"
          id="1F642BED"
          d="M147.401574803,141.732283465 C148.114844096,141.467402686 148.886921712,141.18101239 149.592751196,140.896808952 C150.196606018,140.653665784 150.867661611,140.3662206 151.44337388,140.061334439 C151.851769955,139.845055721 152.336541019,139.55528281 152.665818171,139.225859926
C152.88756455,139.004015406 153.084772212,138.720129544 153.070091178,138.390385413 C153.055219024,138.056348619 152.826918146,137.770831436 152.593360592,137.5549109 C152.239295683,137.227583079 151.736103118,136.938012777 151.309720114,136.719436387
C150.718609522,136.41641582 150.035612236,136.129110519 149.418673778,135.883961874 C148.707505798,135.601369883 147.931439999,135.315014822 147.21412893,135.04848736 C146.505725302,134.785269591 145.73834786,134.498836959 145.038717011,134.213012847
C144.44857865,133.971920316 143.790051348,133.684324173 143.230541609,133.377538334 C142.840147212,133.163480448 142.374363378,132.873527444 142.070630229,132.542063821 C141.860407151,132.312647628 141.696002648,132.030545278 141.739256868,131.706589308
C141.784251937,131.369595104 142.041949516,131.082682698 142.287923735,130.871114795 C142.666014894,130.545910169 143.187089494,130.256554888 143.631356756,130.035640282 C144.237055717,129.73445278 144.931394547,129.447276634 145.560758915,129.200165769
C146.276403586,128.919178184 147.055740362,128.632851419 147.77626158,128.364691256 C148.478984427,128.103155207 149.240955847,127.81667294 149.933530244,127.529216743 C150.509347712,127.290221047 151.154773131,127.002462742 151.697281151,126.69374223
C152.069757249,126.481780365 152.515949923,126.191683183 152.793391273,125.858267717 C152.991931835,125.619671365 153.121898751,125.339366415 153.051502637,125.022793204 C152.976162863,124.683988217 152.690683844,124.395951959 152.431499449,124.187318691
C152.030147088,123.864245789 151.491713372,123.575110462 151.029742907,123.351844178 C150.410271356,123.052458997 149.705204463,122.765401667 149.0640947,122.516369665 C148.344836115,122.236981616 147.562949835,121.950676345 146.840056836,121.680895152
C146.143820037,121.421061961 145.387953428,121.134522528 144.70329037,120.845420639 C144.142323369,120.608549935 143.510583019,120.320624037 142.985892593,120.009946125 C142.631142912,119.79989295 142.205197848,119.509704935 141.954782308,119.174471612
C141.76859735,118.925224292 141.674573234,118.646550916 141.770215183,118.338997099 C141.875841984,117.9993352 142.187612468,117.710445449 142.460876729,117.503522586 C142.884722452,117.182575493 143.440001135,116.893659615 143.919423991,116.668048073
C144.551846552,116.370436419 145.267015071,116.083487969 145.919168839,115.83257356 C146.642998468,115.554082056 147.423020023,115.269192174 148.149309948,114.997099047 C148.838266402,114.738992319 149.587337359,114.452387929 150.263237694,114.161624534
C150.808815794,113.926924043 151.426321302,113.638819605 151.932404392,113.326150021 C152.269737668,113.11773789 152.674709432,112.827534556 152.897387334,112.490675508 C153.06990481,112.229697334 153.126812632,111.952273474 153.0082084,111.655200995
C152.872566965,111.315454792 152.535847818,111.02595806 152.247643725,110.819726482 C151.802075133,110.500888839 151.230462982,110.212188036 150.733900643,109.984251969 C150.089354342,109.688387105 149.36472309,109.401538005 148.702245846,109.148777456
C147.972328599,108.870285951 147.199639412,108.588596885 146.468440118,108.313302943 C145.787546168,108.056948785 145.045952885,107.770271351 144.37966264,107.47782843 C143.8499757,107.245342366 143.247243085,106.957048748 142.760552232,106.642353917
C142.440199882,106.435213741 142.057015095,106.14509802 141.862751825,105.806879404 C141.705805879,105.53363145 141.686747226,105.256886737 141.825798001,104.97140489 C141.991022817,104.632185739 142.351499097,104.342293232 142.655434139,104.135930377
C143.121952214,103.819178478 143.709384244,103.530685693 144.222717785,103.300455864 C144.878555056,103.006313186 145.61199829,102.7195543 146.284060947,102.464981351 C147.019267657,102.186489847 147.783881949,101.907998343 148.519088659,101.629506838
C149.191151316,101.374933889 149.92459455,101.088175003 150.580431821,100.794032325 C151.093765362,100.563802497 151.681197392,100.275309711 152.147715467,99.9585578122 C152.451650509,99.7521949572 152.812126789,99.4623024505 152.977351605,99.1230832991
C153.11640238,98.8376014524 153.097343727,98.5608567394 152.940397781,98.2876087861 C152.746134511,97.9493901698 152.362949724,97.6592744486 152.042597374,97.452134273 C151.555906521,97.1374394414 150.953173906,96.8491458234 150.423486966,96.61665976
C149.757196721,96.3242168384 149.015603438,96.0375394051 148.334709488,95.7811852469 C147.595017252,95.5026937425 146.839201714,95.2273998004 146.10090376,94.9457107338 C145.438426516,94.6929501844 144.713795264,94.4061010846 144.069248963,94.1102362208
C143.572686624,93.8823001534 143.001074473,93.5935993504 142.555505881,93.2747617077 C142.267301788,93.0685301295 141.930582641,92.7790333979 141.794941206,92.4392871947 C141.676336974,92.1422147157 141.733244796,91.8647908558 141.905762272,91.6038126816
C142.128440174,91.2669536334 142.533411938,90.9767502997 142.870745214,90.7683381686 C143.376828304,90.4556685841 143.994333812,90.1675641465 144.539911912,89.9328636555 C145.215812247,89.6421002604 145.964883204,89.3554958705 146.653839658,89.0973891425
C147.397208577,88.8188976381 148.143521061,88.546804511 148.883980767,88.2619146294 C149.536134535,88.0110002202 150.251303054,87.7240517706 150.883725615,87.4264401164 C151.363148471,87.2008285743 151.918427154,86.9119126965 152.342272877,86.5909656033
C152.615537138,86.3840427408 152.927307622,86.0951529894 153.032934423,85.7554910902 C153.128576372,85.4479372736 153.034552256,85.1692638975 152.848367298,84.9200165772 C152.597951758,84.5847832545 152.172006694,84.2945952395 151.817257013,84.0845420641
C151.292566587,83.7738641522 150.660826237,83.4859382543 150.099859236,83.2490675511 C149.415196178,82.9599656612 148.659329569,82.6734262289 147.96309277,82.413593038 C147.240199771,82.1438118449 146.458313491,81.8575065736 145.739054906,81.578118525
C145.097945143,81.3290865225 144.39287825,81.0420291925 143.773406699,80.7426440119 C143.311436234,80.5193777278 142.773002518,80.2302424008 142.371650157,79.9071694989 C142.112465762,79.6985362304 141.826986743,79.410499973 141.751646969,79.0716949858
C141.681250855,78.7551217743 141.811217771,78.4748168242 142.009758333,78.2362204727 C142.287199683,77.9028050063 142.733392357,77.6127078243 143.105868455,77.4007459597 C143.648376475,77.0920254476 144.293801894,76.8042671421 144.869619362,76.5652714466
C145.562193759,76.2778152499 146.324165179,75.991332983 147.026888026,75.7297969336 C147.747409244,75.4616367707 148.52674602,75.1753100059 149.242390691,74.8943224205 C149.871755059,74.6472115552 150.566093889,74.3600354095 151.17179285,74.0588479075
C151.616060112,73.8379333017 152.137134712,73.5485780206 152.515225871,73.2233733944 C152.76120009,73.0118054914 153.018897669,72.724893086 153.063892738,72.3878988814 C153.107146958,72.0639429119 152.942742455,71.7818405613 152.732519377,71.5524243683
C152.428786228,71.220960746 151.963002394,70.931007742 151.572607997,70.7169498553 C151.013098258,70.4101640163 150.354570956,70.1225678738 149.764432595,69.8814753422 C149.064801746,69.5956512306 148.297424304,69.3092185991 147.589020676,69.0460008291
C146.871709607,68.7794733681 146.095643808,68.4931183061 145.384475828,68.2105263161 C144.76753737,67.9653776711 144.084540084,67.67807237 143.493429492,67.375051803 C143.067046488,67.1564754129 142.563853923,66.8669051102 142.209789014,66.53957729
C141.97623146,66.3236567535 141.747930582,66.0381395706 141.733058428,65.7041027769 C141.718377394,65.3743586456 141.915585056,65.0904727835 142.137331435,64.8686282639 C142.466608587,64.5392053799 142.951379651,64.2494324687 143.359775726,64.0331537508
C143.935487995,63.7282675897 144.606543588,63.4408224059 145.21039841,63.1976792378 C145.916227894,62.9134757991 146.68830551,62.6270855034 147.401574803,62.3622047247"/>
      <line
          style="fill:none;stroke-linecap:round;stroke-width:2.125984251969;marker-end:url(#2E2418ED_end_arrow)"
          id="2E2418ED"
          x1="147.401574803"
          y1="62.3622047248"
          x2="260.787401575"
          y2="34.0157480318"/>
      <line
          style="fill:none;stroke-linecap:round;stroke-linejoin:round;stroke-width:1.417322834646"
          id="AC2CB8ED"
          x1="34.015748031"
          y1="170.078740158"
          x2="147.401574803"
          y2="141.732283465"/>
      <line
          style="fill:none;stroke-linecap:round;stroke-linejoin:bevel;stroke-width:1.417322834646"
          id="DF6619ED"
          x1="147.401574803"
          y1="141.732283465"
          x2="260.787401575"
          y2="170.078740158"/>
      <text
          id="2F5BA32E"
          style="stroke:none"
          font-family="Cambria Math"
          font-size="24"
          font-weight="normal"
          font-style="normal">
         <tspan x="56.0236220471" y="23">ğ</tspan>
      </text>
      <text
          id="A323762E"
          style="stroke:none"
          font-family="Cambria Math"
          font-size="24"
          font-weight="normal"
          font-style="normal">
         <tspan x="203.42519685" y="30">ğ</tspan>
         <tspan font-family="Helvetica">	</tspan>
      </text>
      <text
          id="1CFBB62E"
          style="stroke:none"
          font-family="Helvetica"
          font-size="24"
          font-weight="normal"
          font-style="normal">
         <tspan x="5" y="181.74015748">n</tspan>
      </text>
      <text
          id="416EE72E"
          style="stroke:none"
          font-family="Avenir Next"
          font-size="24"
          font-weight="normal"
          font-style="normal">
         <tspan x="271.456692913" y="182.74015748">n&apos;</tspan>
      </text>
      <text
          id="2B09F92E"
          style="fill:#4C4C4C;stroke:none"
          font-family="Avenir Next"
          font-size="9"
          font-weight="normal"
          font-style="normal">
         <tspan x="175.078740157" y="207.425196851">Â© J. A. Aguilar 2018</tspan>
      </text>
      <line
          style="fill:none;stroke-linecap:round;stroke-linejoin:round;stroke-width:1.417322834646"
          id="56C61A5E"
          x1="34.015748031"
          y1="175.748031496"
          x2="147.401574803"
          y2="147.401574803"/>
      <line
          style="fill:none;stroke-linecap:round;stroke-linejoin:bevel;stroke-width:1.417322834646"
          id="76C61A5E"
          x1="147.401574803"
          y1="147.401574803"
          x2="260.787401575"
          y2="175.748031496"/>
      <line
          style="fill:none;stroke-linecap:round;stroke-linejoin:round;stroke-width:1.417322834646"
          id="3DF84A5E"
          x1="34.015748031"
          y1="181.417322835"
          x2="147.401574803"
          y2="153.070866142"/>
      <line
          style="fill:none;stroke-linecap:round;stroke-linejoin:bevel;stroke-width:1.417322834646"
          id="4DF84A5E"
          x1="147.401574803"
          y1="153.070866142"
          x2="260.787401575"
          y2="181.417322835"/>
      <path
          style="fill:none;stroke:#0000FF;stroke-linecap:round"
          id="5456636E"
          d="M260.787401575,164.409448819 C262.07318966,164.409448819 263.358977745,164.409448819 264.64476583,164.409448819 C265.039370079,164.409448819 265.039370079,164.804053067 265.039370079,164.804053067 C265.039370079,167.034723042 265.039370079,167.034723042 265.039370079,171.496062992
C265.039370079,171.496062992 265.039370079,175.748031496 269.291338583,175.748031496 C265.039370079,175.748031496 265.039370079,180 265.039370079,180 C265.039370079,182.230669975 265.039370079,182.230669975 265.039370079,186.692009925
C265.039370079,186.692009925 265.039370079,187.086614173 264.64476583,187.086614173 C263.358977745,187.086614173 262.07318966,187.086614173 260.787401575,187.086614173"/>
      <path
          style="fill:none;stroke:#0000FF;stroke-linecap:round"
          id="FE79F56E"
          d="M31.1811023619,164.409448819 C30.0472440942,164.409448819 28.9133858264,164.409448819 27.7795275587,164.409448819 C26.9291338579,164.409448819 26.9291338579,165.25984252 26.9291338579,165.25984252 C26.9291338579,167.338582677 26.9291338579,167.338582677 26.9291338579,171.496062992
C26.9291338579,171.496062992 26.9291338579,175.748031496 22.677165354,175.748031496 C26.9291338579,175.748031496 26.9291338579,180 26.9291338579,180 C26.9291338579,182.078740157 26.9291338579,182.078740157 26.9291338579,186.236220472
C26.9291338579,186.236220472 26.9291338579,187.086614173 27.7795275587,187.086614173 C28.9133858264,187.086614173 30.0472440942,187.086614173 31.1811023619,187.086614173"/>
      <line
          style="fill:none;stroke-linecap:round;stroke-width:2.125984251969;marker-end:url(#2E2418ED_end_arrow)"
          id="AACDEA3E"
          x1="34.0157480314"
          y1="34.0157480315"
          x2="147.401574803"
          y2="62.3622047244"/>
   </g>
</svg>
