<?xml version="1.0" encoding="UTF-8"?>
<!-- Created with EazyDraw for Mac ( http://www.eazydraw.com/ ) -->

<svg
    version="1.1"
    xmlns:dc="http://purl.org/dc/elements/1.1/"
    xmlns:cc="http://creativecommons.org/ns#"
    xmlns:rdf="http://www.w3.org/1999/02/22-rdf-syntax-ns#"
    xmlns:svg="http://www.w3.org/2000/svg"
    xmlns:xlink="http://www.w3.org/1999/xlink"
    xmlns="http://www.w3.org/2000/svg"
    width="328.818897639"
    height="223.937007874"
    viewBox="0, 0, 328.818897639, 223.937007874"
    preserveAspectRatio="none"
    id="svg2">
   <defs
       id="defs_CC668D8C">
      <marker
          orient="auto"
          refX="0.0"
          refY="0.0"
          id="2E2418ED_end_arrow"
          style="overflow:visible"
          markerUnits="userSpaceOnUse">
         <path
             id="2E2418ED_end_arrow_path"
             style="fill:#000000;fill-opacity:1;stroke:#000000;stroke-opacity:1;fill-rule:nonzero;stroke-linecap:round;stroke-linejoin:miter;stroke-width:0.531496062992;stroke-miterlimit:10"
             d="M-45.3986244202,0 L-59.494013732,5.130302149885 L-59.494013732,5.130302149885 C-60.7001613163,1.816438897541 -60.7001613163,-1.816438897541 -59.494013732,-5.130302149885 z"/>
      </marker>
      <marker
          orient="auto"
          refX="0.0"
          refY="0.0"
          id="A466928C_end_arrow"
          style="overflow:visible"
          markerUnits="userSpaceOnUse">
         <path
             id="A466928C_end_arrow_path"
             style="fill:#118002;fill-opacity:1;stroke:#118002;stroke-opacity:1;fill-rule:nonzero;stroke-linecap:round;stroke-linejoin:bevel;stroke-width:0.75"
             d="M5.729166691697,0 L-1.78837427459,2.736161146605 L-1.78837427459,-2.736161146605 z"/>
      </marker>
      <marker
          orient="auto"
          refX="0.0"
          refY="0.0"
          id="D466928C_end_arrow"
          style="overflow:visible"
          markerUnits="userSpaceOnUse">
         <path
             id="D466928C_end_arrow_path"
             style="fill:#FB0207;fill-opacity:1;stroke:#FB0207;stroke-opacity:1;fill-rule:nonzero;stroke-linecap:round;stroke-linejoin:bevel;stroke-width:0.75"
             d="M7.230902994712,0 L-0.286637971576,2.736161146605 L-0.286637971576,-2.736161146605 z"/>
      </marker>
      <marker
          orient="auto"
          refX="0.0"
          refY="0.0"
          id="F466928C_end_arrow"
          style="overflow:visible"
          markerUnits="userSpaceOnUse">
         <path
             id="F466928C_end_arrow_path"
             style="fill:#0F80FF;fill-opacity:1;stroke:#0F80FF;stroke-opacity:1;fill-rule:nonzero;stroke-linecap:round;stroke-linejoin:bevel;stroke-width:0.75"
             d="M7.230902994712,0 L-0.286637971576,2.736161146605 L-0.286637971576,-2.736161146605 z"/>
      </marker>
   </defs>
   <metadata
       id="metadata7">
      <rdf:RDF>
         <cc:Work
             rdf:about="">
            <dc:format>image/svg+xml</dc:format>
            <dc:type rdf:resource="http://purl.org/dc/dcmitype/StillImage"/>
            <dc:title></dc:title>
         </cc:Work>
      </rdf:RDF>
   </metadata>
   <g
       id="layer_Paper"
       style="fill:#000000;fill-opacity:1;stroke:#000000;stroke-opacity:1;fill-rule:nonzero;stroke-linecap:square;stroke-linejoin:miter;stroke-width:1;stroke-miterlimit:10">
      <path
          style="fill:none;stroke:#0F80FF;stroke-width:2"
          id="1F642BED"
          d="M143.149606299,141.732283465 C143.862875592,141.467402686 144.634953208,141.18101239 145.340782692,140.896808952 C145.944637514,140.653665784 146.615693107,140.3662206 147.191405376,140.061334439 C147.59980145,139.845055721 148.084572515,139.55528281 148.413849667,139.225859926
C148.635596045,139.004015406 148.832803707,138.720129544 148.818122673,138.390385413 C148.803250519,138.056348619 148.574949642,137.770831436 148.341392087,137.5549109 C147.987327178,137.227583079 147.484134614,136.938012777 147.05775161,136.719436387
C146.466641018,136.41641582 145.783643731,136.129110519 145.166705273,135.883961874 C144.455537293,135.601369883 143.679471495,135.315014822 142.962160425,135.04848736 C142.253756798,134.785269591 141.486379356,134.498836959 140.786748507,134.213012847
C140.196610146,133.971920316 139.538082844,133.684324173 138.978573104,133.377538334 C138.588178708,133.163480448 138.122394874,132.873527444 137.818661725,132.542063821 C137.608438647,132.312647628 137.444034144,132.030545278 137.487288363,131.706589308
C137.532283433,131.369595104 137.789981012,131.082682698 138.03595523,130.871114795 C138.414046389,130.545910169 138.935120989,130.256554888 139.379388252,130.035640282 C139.985087213,129.73445278 140.679426042,129.447276634 141.30879041,129.200165769
C142.024435082,128.919178184 142.803771858,128.632851419 143.524293076,128.364691256 C144.227015922,128.103155207 144.988987343,127.81667294 145.681561739,127.529216743 C146.257379208,127.290221047 146.902804627,127.002462742 147.445312647,126.69374223
C147.817788744,126.481780365 148.263981419,126.191683183 148.541422769,125.858267717 C148.73996333,125.619671365 148.869930246,125.339366415 148.799534133,125.022793204 C148.724194359,124.683988217 148.43871534,124.395951959 148.179530944,124.187318691
C147.778178584,123.864245789 147.239744868,123.575110462 146.777774402,123.351844178 C146.158302851,123.052458997 145.453235959,122.765401667 144.812126196,122.516369665 C144.09286761,122.236981616 143.31098133,121.950676345 142.588088332,121.680895152
C141.891851532,121.421061961 141.135984924,121.134522528 140.451321866,120.845420639 C139.890354865,120.608549935 139.258614514,120.320624037 138.733924088,120.009946125 C138.379174408,119.79989295 137.953229343,119.509704935 137.702813804,119.174471612
C137.516628846,118.925224292 137.422604729,118.646550916 137.518246678,118.338997099 C137.62387348,117.9993352 137.935643963,117.710445449 138.208908225,117.503522586 C138.632753948,117.182575493 139.18803263,116.893659615 139.667455487,116.668048073
C140.299878048,116.370436419 141.015046567,116.083487969 141.667200334,115.83257356 C142.391029964,115.554082056 143.171051519,115.269192174 143.897341443,114.997099047 C144.586297897,114.738992319 145.335368855,114.452387929 146.01126919,114.161624534
C146.55684729,113.926924043 147.174352798,113.638819605 147.680435887,113.326150021 C148.017769164,113.11773789 148.422740927,112.827534556 148.64541883,112.490675508 C148.817936305,112.229697334 148.874844127,111.952273474 148.756239896,111.655200995
C148.620598461,111.315454792 148.283879314,111.02595806 147.99567522,110.819726482 C147.550106629,110.500888839 146.978494478,110.212188036 146.481932138,109.984251969 C145.837385838,109.688387105 145.112754585,109.401538005 144.450277341,109.148777456
C143.720360095,108.870285951 142.947670908,108.588596885 142.216471614,108.313302943 C141.535577664,108.056948785 140.793984381,107.770271351 140.127694136,107.47782843 C139.598007196,107.245342366 138.99527458,106.957048748 138.508583727,106.642353917
C138.188231377,106.435213741 137.805046591,106.14509802 137.610783321,105.806879404 C137.453837374,105.53363145 137.434778722,105.256886737 137.573829496,104.97140489 C137.739054313,104.632185739 138.099530592,104.342293232 138.403465634,104.135930377
C138.869983709,103.819178478 139.457415739,103.530685693 139.970749281,103.300455864 C140.626586552,103.006313186 141.360029786,102.7195543 142.032092442,102.464981351 C142.767299152,102.186489847 143.531913445,101.907998343 144.267120155,101.629506838
C144.939182811,101.374933889 145.672626045,101.088175003 146.328463317,100.794032325 C146.841796858,100.563802497 147.429228888,100.275309711 147.895746963,99.9585578122 C148.199682005,99.7521949572 148.560158284,99.4623024505 148.725383101,99.1230832991
C148.864433876,98.8376014524 148.845375223,98.5608567394 148.688429276,98.2876087861 C148.494166006,97.9493901698 148.11098122,97.6592744486 147.79062887,97.452134273 C147.303938017,97.1374394414 146.701205402,96.8491458234 146.171518462,96.6166597599
C145.505228216,96.3242168384 144.763634934,96.0375394051 144.082740984,95.7811852469 C143.343048748,95.5026937425 142.58723321,95.2273998004 141.848935256,94.9457107338 C141.186458012,94.6929501844 140.46182676,94.4061010846 139.817280459,94.1102362208
C139.320718119,93.8823001534 138.749105968,93.5935993504 138.303537377,93.2747617077 C138.015333283,93.0685301295 137.678614137,92.7790333979 137.542972702,92.4392871947 C137.42436847,92.1422147157 137.481276292,91.8647908558 137.653793767,91.6038126816
C137.87647167,91.2669536334 138.281443434,90.9767502997 138.61877671,90.7683381686 C139.1248598,90.4556685841 139.742365308,90.1675641465 140.287943407,89.9328636555 C140.963843743,89.6421002604 141.7129147,89.3554958705 142.401871154,89.0973891425
C143.145240073,88.8188976381 143.891552557,88.546804511 144.632012263,88.2619146294 C145.284166031,88.0110002202 145.999334549,87.7240517706 146.631757111,87.4264401163 C147.111179967,87.2008285743 147.666458649,86.9119126965 148.090304373,86.5909656033
C148.363568634,86.3840427408 148.675339117,86.0951529894 148.780965919,85.7554910902 C148.876607868,85.4479372736 148.782583751,85.1692638974 148.596398793,84.9200165772 C148.345983254,84.5847832545 147.92003819,84.2945952394 147.565288509,84.0845420641
C147.040598083,83.7738641522 146.408857733,83.4859382543 145.847890732,83.2490675511 C145.163227673,82.9599656612 144.407361065,82.6734262289 143.711124266,82.413593038 C142.988231267,82.1438118448 142.206344987,81.8575065736 141.487086402,81.578118525
C140.845976638,81.3290865225 140.140909746,81.0420291925 139.521438195,80.7426440119 C139.059467729,80.5193777278 138.521034014,80.2302424007 138.119681653,79.9071694988 C137.860497257,79.6985362304 137.575018238,79.410499973 137.499678464,79.0716949858
C137.429282351,78.7551217743 137.559249267,78.4748168242 137.757789828,78.2362204727 C138.035231178,77.9028050063 138.481423853,77.6127078243 138.85389995,77.4007459597 C139.39640797,77.0920254476 140.041833389,76.8042671421 140.617650858,76.5652714466
C141.310225255,76.2778152499 142.072196675,75.991332983 142.774919521,75.7297969336 C143.495440739,75.4616367707 144.274777515,75.1753100059 144.990422187,74.8943224205 C145.619786555,74.6472115552 146.314125384,74.3600354095 146.919824345,74.0588479075
C147.364091608,73.8379333017 147.885166208,73.5485780206 148.263257367,73.2233733944 C148.509231585,73.0118054914 148.766929165,72.724893086 148.811924234,72.3878988814 C148.855178454,72.0639429119 148.69077395,71.7818405613 148.480550873,71.5524243683
C148.176817723,71.220960746 147.71103389,70.931007742 147.320639493,70.7169498552 C146.761129754,70.4101640163 146.102602451,70.1225678738 145.512464091,69.8814753422 C144.812833241,69.5956512305 144.045455799,69.3092185991 143.337052172,69.0460008291
C142.619741102,68.7794733681 141.843675304,68.4931183061 141.132507324,68.2105263161 C140.515568866,67.9653776711 139.83257158,67.67807237 139.241460987,67.375051803 C138.815077984,67.1564754129 138.311885419,66.8669051102 137.95782051,66.53957729
C137.724262956,66.3236567535 137.495962078,66.0381395706 137.481089924,65.7041027769 C137.46640889,65.3743586456 137.663616552,65.0904727834 137.885362931,64.8686282639 C138.214640083,64.5392053799 138.699411147,64.2494324687 139.107807222,64.0331537508
C139.68351949,63.7282675897 140.354575084,63.4408224059 140.958429906,63.1976792378 C141.664259389,62.9134757991 142.436337006,62.6270855034 143.149606298,62.3622047247"/>
      <line
          style="fill:none;stroke-linecap:round;stroke-width:2.125984251969;marker-end:url(#2E2418ED_end_arrow)"
          id="2E2418ED"
          x1="143.149606299"
          y1="62.3622047248"
          x2="256.535433071"
          y2="34.0157480318"/>
      <text
          id="2F5BA32E"
          style="stroke:none"
          font-family="Cambria Math"
          font-size="24"
          font-weight="normal"
          font-style="normal">
         <tspan x="51.7716535427" y="23">𝝁</tspan>
      </text>
      <text
          id="A323762E"
          style="stroke:none"
          font-family="Cambria Math"
          font-size="24"
          font-weight="normal"
          font-style="normal">
         <tspan x="199.173228346" y="30">𝝁</tspan>
         <tspan font-family="Helvetica">	</tspan>
      </text>
      <line
          style="fill:none;stroke-linecap:round;stroke-width:2.125984251969;marker-end:url(#2E2418ED_end_arrow)"
          id="AACDEA3E"
          x1="29.7637795267"
          y1="34.0157480318"
          x2="143.149606299"
          y2="62.3622047248"/>
      <line
          style="fill:none;stroke:#118002;stroke-linecap:round;stroke-linejoin:round;stroke-width:3"
          id="8466928C"
          x1="29.763779527"
          y1="170.078740158"
          x2="143.149606299"
          y2="141.732283465"/>
      <line
          style="fill:none;stroke:#118002;stroke-linecap:round;stroke-linejoin:bevel;stroke-width:3;marker-end:url(#A466928C_end_arrow)"
          id="A466928C"
          x1="143.149606299"
          y1="141.732283465"
          x2="256.53543307"
          y2="192.755905512"/>
      <text
          id="B466928C"
          style="stroke:none"
          font-family="Cambria Math"
          font-size="36"
          font-weight="normal"
          font-style="normal">
         <tspan x="5" y="198.409448819">N</tspan>
      </text>
      <line
          style="fill:none;stroke:#FB0207;stroke-linecap:round;stroke-linejoin:round;stroke-width:3"
          id="C466928C"
          x1="29.763779527"
          y1="175.748031496"
          x2="143.149606299"
          y2="147.401574803"/>
      <line
          style="fill:none;stroke:#FB0207;stroke-linecap:round;stroke-linejoin:bevel;stroke-width:3;marker-end:url(#D466928C_end_arrow)"
          id="D466928C"
          x1="143.149606299"
          y1="147.401574803"
          x2="256.53543307"
          y2="141.732283465"/>
      <line
          style="fill:none;stroke:#0F80FF;stroke-linecap:round;stroke-linejoin:round;stroke-width:3"
          id="E466928C"
          x1="29.763779527"
          y1="181.417322835"
          x2="143.149606299"
          y2="153.070866142"/>
      <line
          style="fill:none;stroke:#0F80FF;stroke-linecap:round;stroke-linejoin:bevel;stroke-width:3;marker-end:url(#F466928C_end_arrow)"
          id="F466928C"
          x1="143.149606299"
          y1="153.070866142"
          x2="256.53543307"
          y2="158.74015748"/>
      <text
          id="0566928C"
          style="fill:#A9A9A9;stroke:none"
          font-family="Helvetica Neue"
          font-size="9"
          font-weight="normal"
          font-style="normal">
         <tspan x="46.1023622042" y="190.417322835">J. A. Aguilar 2018</tspan>
      </text>
      <text
          id="522F578C"
          style="stroke:none"
          font-family="Helvetica"
          font-size="13"
          font-weight="bold"
          font-style="normal">
         <tspan x="267.340912586" y="160.401574803">Hadronic</tspan>
         <tspan x="272.755463367" y="176.401574803">shower</tspan>
      </text>
   </g>
</svg>
