<?xml version="1.0" encoding="UTF-8"?>
<!-- Created with EazyDraw for Mac ( http://www.eazydraw.com/ ) -->

<svg
    version="1.1"
    xmlns:dc="http://purl.org/dc/elements/1.1/"
    xmlns:cc="http://creativecommons.org/ns#"
    xmlns:rdf="http://www.w3.org/1999/02/22-rdf-syntax-ns#"
    xmlns:svg="http://www.w3.org/2000/svg"
    xmlns:xlink="http://www.w3.org/1999/xlink"
    xmlns="http://www.w3.org/2000/svg"
    width="335.601181102"
    height="248.433070866"
    viewBox="0, 0, 335.601181102, 248.433070866"
    preserveAspectRatio="none"
    id="svg2">
   <defs
       id="defs_1862C1BB">
      <marker
          orient="auto"
          refX="0.0"
          refY="0.0"
          id="2E2418ED_start_arrow"
          style="overflow:visible"
          markerUnits="userSpaceOnUse">
         <path
             id="2E2418ED_start_arrow_path"
             style="fill:#000000;fill-opacity:1;stroke:#000000;stroke-opacity:1;fill-rule:nonzero;stroke-linecap:round;stroke-linejoin:miter;stroke-width:0.531496062992;stroke-miterlimit:10"
             d="M45.3986244202,-0 L59.494013732,-5.130302149885 L59.494013732,-5.130302149885 C60.7001613163,-1.816438897541 60.7001613163,1.816438897541 59.494013732,5.130302149885 z"/>
      </marker>
      <marker
          orient="auto"
          refX="0.0"
          refY="0.0"
          id="4CC5C51F_end_arrow"
          style="overflow:visible"
          markerUnits="userSpaceOnUse">
         <path
             id="4CC5C51F_end_arrow_path"
             style="fill:#000000;fill-opacity:1;stroke:#000000;stroke-opacity:1;fill-rule:nonzero;stroke-linecap:round;stroke-linejoin:miter;stroke-width:0.531496062992;stroke-miterlimit:10"
             d="M-45.3986244202,0 L-59.494013732,5.130302149885 L-59.494013732,5.130302149885 C-60.7001613163,1.816438897541 -60.7001613163,-1.816438897541 -59.494013732,-5.130302149885 z"/>
      </marker>
      <marker
          orient="auto"
          refX="0.0"
          refY="0.0"
          id="E1FF471F_end_arrow"
          style="overflow:visible"
          markerUnits="userSpaceOnUse">
         <path
             id="E1FF471F_end_arrow_path"
             style="fill:#000000;fill-opacity:1;stroke:#000000;stroke-opacity:1;fill-rule:nonzero;stroke-linecap:round;stroke-linejoin:miter;stroke-width:0.531496062992;stroke-miterlimit:10"
             d="M-38.5777587891,0 L-52.6731481009,5.130302149885 L-52.6731481009,5.130302149885 C-53.8792956852,1.816438897541 -53.8792956852,-1.816438897541 -52.6731481009,-5.130302149885 z"/>
      </marker>
      <marker
          orient="auto"
          refX="0.0"
          refY="0.0"
          id="3F30A71F_end_arrow"
          style="overflow:visible"
          markerUnits="userSpaceOnUse">
         <path
             id="3F30A71F_end_arrow_path"
             style="fill:#000000;fill-opacity:1;stroke:#000000;stroke-opacity:1;fill-rule:nonzero;stroke-linecap:round;stroke-linejoin:miter;stroke-width:0.531496062992;stroke-miterlimit:10"
             d="M-23.1422252655,0 L-37.2376145773,5.130302149885 L-37.2376145773,5.130302149885 C-38.4437621616,1.816438897541 -38.4437621616,-1.816438897541 -37.2376145773,-5.130302149885 z"/>
      </marker>
   </defs>
   <metadata
       id="metadata7">
      <rdf:RDF>
         <cc:Work
             rdf:about="">
            <dc:format>image/svg+xml</dc:format>
            <dc:type rdf:resource="http://purl.org/dc/dcmitype/StillImage"/>
            <dc:title></dc:title>
         </cc:Work>
      </rdf:RDF>
   </metadata>
   <g
       id="layer_Paper"
       style="fill:#000000;fill-opacity:1;stroke:#000000;stroke-opacity:1;fill-rule:nonzero;stroke-linecap:square;stroke-linejoin:miter;stroke-width:1;stroke-miterlimit:10">
      <path
          style="fill:none;stroke:#0F80FF"
          id="1F642BED"
          d="M165.522440945,198.425196851 C166.235710238,198.160316072 167.007787854,197.873925776 167.713617338,197.589722338 C168.31747216,197.34657917 168.988527753,197.059133986 169.564240022,196.754247825 C169.972636096,196.537969107 170.457407161,196.248196196 170.786684313,195.918773312
C171.008430692,195.696928792 171.205638354,195.41304293 171.19095732,195.083298799 C171.176085166,194.749262005 170.947784288,194.463744822 170.714226734,194.247824286 C170.360161825,193.920496465 169.85696926,193.630926163 169.430586256,193.412349772
C168.839475664,193.109329205 168.156478378,192.822023904 167.539539919,192.576875259 C166.82837194,192.294283269 166.052306141,192.007928207 165.334995072,191.741400746 C164.626591444,191.478182976 163.859214002,191.191750345 163.159583153,190.905926233
C162.569444792,190.664833702 161.91091749,190.377237559 161.35140775,190.07045172 C160.961013354,189.856393834 160.49522952,189.56644083 160.191496371,189.234977207 C159.981273293,189.005561014 159.81686879,188.723458664 159.86012301,188.399502694
C159.905118079,188.06250849 160.162815658,187.775596084 160.408789877,187.564028181 C160.786881036,187.238823555 161.307955636,186.949468274 161.752222898,186.728553668 C162.357921859,186.427366166 163.052260689,186.14019002 163.681625057,185.893079155
C164.397269728,185.61209157 165.176606504,185.325764805 165.897127722,185.057604642 C166.599850569,184.796068593 167.361821989,184.509586326 168.054396386,184.222130129 C168.630213854,183.983134433 169.275639273,183.695376128 169.818147293,183.386655616
C170.190623391,183.174693751 170.636816065,182.884596569 170.914257415,182.551181103 C171.112797977,182.312584751 171.242764893,182.032279801 171.172368779,181.71570659 C171.097029005,181.376901602 170.811549986,181.088865345 170.552365591,180.880232077
C170.15101323,180.557159175 169.612579514,180.268023848 169.150609049,180.044757564 C168.531137498,179.745372383 167.826070605,179.458315053 167.184960842,179.209283051 C166.465702257,178.929895002 165.683815977,178.643589731 164.960922978,178.373808537
C164.264686179,178.113975347 163.50881957,177.827435914 162.824156512,177.538334024 C162.263189511,177.301463321 161.631449161,177.013537423 161.106758735,176.702859511 C160.752009054,176.492806336 160.32606399,176.202618321 160.07564845,175.867384998
C159.889463492,175.618137678 159.795439376,175.339464302 159.891081325,175.031910485 C159.996708126,174.692248586 160.30847861,174.403358835 160.581742871,174.196435972 C161.005588594,173.875488879 161.560867277,173.586573001 162.040290133,173.360961459
C162.672712694,173.063349805 163.387881213,172.776401355 164.040034981,172.525486946 C164.76386461,172.246995442 165.543886165,171.96210556 166.27017609,171.690012433 C166.959132544,171.431905705 167.708203501,171.145301315 168.384103836,170.85453792
C168.929681936,170.619837429 169.547187444,170.331732991 170.053270534,170.019063407 C170.39060381,169.810651276 170.795575574,169.520447942 171.018253476,169.183588894 C171.190770952,168.92261072 171.247678774,168.64518686 171.129074542,168.348114381
C170.993433107,168.008368178 170.65671396,167.718871446 170.368509867,167.512639868 C169.922941275,167.193802225 169.351329124,166.905101422 168.854766785,166.677165355 C168.210220484,166.381300491 167.485589232,166.094451391 166.823111988,165.841690842
C166.093194741,165.563199337 165.320505554,165.281510271 164.58930626,165.006216329 C163.90841231,164.74986217 163.166819027,164.463184737 162.500528782,164.170741816 C161.970841842,163.938255752 161.368109227,163.649962134 160.881418374,163.335267303
C160.561066024,163.128127127 160.177881237,162.838011406 159.983617967,162.499792789 C159.82667202,162.226544836 159.807613368,161.949800123 159.946664143,161.664318276 C160.111888959,161.325099125 160.472365239,161.035206618 160.776300281,160.828843763
C161.242818356,160.512091864 161.830250386,160.223599079 162.343583927,159.99336925 C162.999421198,159.699226572 163.732864432,159.412467686 164.404927089,159.157894737 C165.140133799,158.879403233 165.904748091,158.600911729 166.639954801,158.322420224
C167.312017458,158.067847275 168.045460692,157.781088389 168.701297963,157.486945711 C169.214631504,157.256715883 169.802063534,156.968223097 170.268581609,156.651471198 C170.572516651,156.445108343 170.932992931,156.155215836 171.098217747,155.815996685
C171.237268522,155.530514838 171.218209869,155.253770125 171.061263923,154.980522172 C170.867000653,154.642303556 170.483815866,154.352187834 170.163463516,154.145047659 C169.676772663,153.830352827 169.074040048,153.542059209 168.544353108,153.309573146
C167.878062862,153.017130224 167.13646958,152.730452791 166.45557563,152.474098633 C165.715883394,152.195607128 164.960067856,151.920313186 164.221769902,151.63862412 C163.559292658,151.38586357 162.834661406,151.099014471 162.190115105,150.803149607
C161.693552766,150.575213539 161.121940615,150.286512736 160.676372023,149.967675094 C160.38816793,149.761443515 160.051448783,149.471946784 159.915807348,149.132200581 C159.797203116,148.835128102 159.854110938,148.557704242 160.026628414,148.296726068
C160.249306316,147.959867019 160.65427808,147.669663686 160.991611356,147.461251554 C161.497694446,147.14858197 162.115199954,146.860477532 162.660778054,146.625777041 C163.336678389,146.335013646 164.085749346,146.048409256 164.7747058,145.790302528
C165.518074719,145.511811024 166.264387203,145.239717897 167.004846909,144.954828015 C167.657000677,144.703913606 168.372169196,144.416965156 169.004591757,144.119353502 C169.484014613,143.89374196 170.039293296,143.604826082 170.463139019,143.283878989
C170.73640328,143.076956127 171.048173764,142.788066375 171.153800565,142.448404476 C171.249442514,142.14085066 171.155418398,141.862177283 170.96923344,141.612929963 C170.7188179,141.27769664 170.292872836,140.987508625 169.938123155,140.77745545
C169.413432729,140.466777538 168.781692379,140.17885164 168.220725378,139.941980937 C167.53606232,139.652879047 166.780195711,139.366339615 166.083958912,139.106506424 C165.361065913,138.836725231 164.579179633,138.55041996 163.859921048,138.271031911
C163.218811285,138.021999908 162.513744392,137.734942578 161.894272841,137.435557398 C161.432302376,137.212291114 160.89386866,136.923155787 160.492516299,136.600082885 C160.233331904,136.391449616 159.947852885,136.103413359 159.872513111,135.764608372
C159.802116997,135.44803516 159.932083913,135.16773021 160.130624475,134.929133859 C160.408065825,134.595718392 160.854258499,134.30562121 161.226734597,134.093659346 C161.769242617,133.784938834 162.414668036,133.497180528 162.990485504,133.258184833
C163.683059901,132.970728636 164.445031321,132.684246369 165.147754168,132.422710319 C165.868275386,132.154550157 166.647612162,131.868223392 167.363256833,131.587235806 C167.992621201,131.340124941 168.686960031,131.052948795 169.292658992,130.751761293
C169.736926254,130.530846688 170.258000854,130.241491407 170.636092013,129.91628678 C170.882066232,129.704718877 171.139763811,129.417806472 171.18475888,129.080812267 C171.2280131,128.756856298 171.063608597,128.474753947 170.853385519,128.245337754
C170.54965237,127.913874132 170.083868536,127.623921128 169.693474139,127.409863241 C169.1339644,127.103077402 168.475437098,126.81548126 167.885298737,126.574388728 C167.185667888,126.288564616 166.418290446,126.002131985 165.709886818,125.738914215
C164.992575749,125.472386754 164.21650995,125.186031692 163.50534197,124.903439702 C162.888403512,124.658291057 162.205406226,124.370985756 161.614295634,124.067965189 C161.18791263,123.849388799 160.684720065,123.559818496 160.330655156,123.232490676
C160.097097602,123.016570139 159.868796724,122.731052956 159.85392457,122.397016163 C159.839243536,122.067272031 160.036451198,121.783386169 160.258197577,121.56154165 C160.587474729,121.232118766 161.072245793,120.942345855 161.480641868,120.726067137
C162.056354137,120.421180976 162.72740973,120.133735792 163.331264552,119.890592624 C164.037094036,119.606389185 164.809171652,119.319998889 165.522440945,119.055118111"/>
      <line
          style="fill:none;stroke-linecap:round;stroke-width:2.125984251969"
          id="4217A3ED"
          x1="142.845275591"
          y1="79.3700787397"
          x2="165.522440945"
          y2="119.055118111"/>
      <line
          style="fill:none;stroke-linecap:round;stroke-width:2.125984251969;marker-start:url(#2E2418ED_start_arrow)"
          id="2E2418ED"
          x1="165.522440945"
          y1="119.055118111"
          x2="278.908267717"
          y2="90.7086614177"/>
      <line
          style="fill:none;stroke-linecap:round;stroke-linejoin:round;stroke-width:1.417322834646"
          id="AC2CB8ED"
          x1="52.136614173"
          y1="226.771653544"
          x2="165.522440945"
          y2="198.425196851"/>
      <line
          style="fill:none;stroke-linecap:round;stroke-linejoin:bevel;stroke-width:1.417322834646"
          id="DF6619ED"
          x1="165.522440945"
          y1="198.425196851"
          x2="278.908267717"
          y2="226.771653544"/>
      <text
          id="2F5BA32E"
          style="stroke:none"
          font-family="Cambria Math"
          font-size="24"
          font-weight="normal"
          font-style="normal">
         <tspan x="11.782283465" y="68.3543307087">𝝁</tspan>
      </text>
      <text
          id="A323762E"
          style="stroke:none"
          font-family="Cambria Math"
          font-size="24"
          font-weight="normal"
          font-style="normal">
         <tspan x="96.821653543" y="30">𝝁</tspan>
         <tspan font-family="Helvetica">	</tspan>
      </text>
      <text
          id="1CFBB62E"
          style="stroke:none"
          font-family="Helvetica"
          font-size="24"
          font-weight="normal"
          font-style="normal">
         <tspan x="23.120866142" y="238.433070866">n</tspan>
      </text>
      <text
          id="416EE72E"
          style="stroke:none"
          font-family="Avenir Next"
          font-size="24"
          font-weight="normal"
          font-style="normal">
         <tspan x="289.577559055" y="239.433070866">n&apos;</tspan>
      </text>
      <line
          style="fill:none;stroke-linecap:round;stroke-linejoin:round;stroke-width:1.417322834646"
          id="56C61A5E"
          x1="52.136614173"
          y1="232.440944882"
          x2="165.522440945"
          y2="204.094488189"/>
      <line
          style="fill:none;stroke-linecap:round;stroke-linejoin:bevel;stroke-width:1.417322834646"
          id="76C61A5E"
          x1="165.522440945"
          y1="204.094488189"
          x2="278.908267717"
          y2="232.440944882"/>
      <line
          style="fill:none;stroke-linecap:round;stroke-linejoin:round;stroke-width:1.417322834646"
          id="3DF84A5E"
          x1="52.136614173"
          y1="238.110236221"
          x2="165.522440945"
          y2="209.763779528"/>
      <line
          style="fill:none;stroke-linecap:round;stroke-linejoin:bevel;stroke-width:1.417322834646"
          id="4DF84A5E"
          x1="165.522440945"
          y1="209.763779528"
          x2="278.908267717"
          y2="238.110236221"/>
      <path
          style="fill:none;stroke:#0000FF;stroke-linecap:round"
          id="5456636E"
          d="M278.908267717,221.102362205 C280.194055802,221.102362205 281.479843887,221.102362205 282.765631972,221.102362205 C283.160236221,221.102362205 283.160236221,221.496966453 283.160236221,221.496966453 C283.160236221,223.727636428 283.160236221,223.727636428 283.160236221,228.188976378
C283.160236221,228.188976378 283.160236221,232.440944882 287.412204725,232.440944882 C283.160236221,232.440944882 283.160236221,236.692913386 283.160236221,236.692913386 C283.160236221,238.923583361 283.160236221,238.923583361 283.160236221,243.38492331
C283.160236221,243.38492331 283.160236221,243.779527559 282.765631972,243.779527559 C281.479843887,243.779527559 280.194055802,243.779527559 278.908267717,243.779527559"/>
      <path
          style="fill:none;stroke:#0000FF;stroke-linecap:round"
          id="FE79F56E"
          d="M49.3019685039,221.102362205 C48.1681102361,221.102362205 47.0342519684,221.102362205 45.9003937007,221.102362205 C45.0499999999,221.102362205 45.0499999999,221.952755905 45.0499999999,221.952755905 C45.0499999999,224.031496063 45.0499999999,224.031496063 45.0499999999,228.188976378
C45.0499999999,228.188976378 45.0499999999,232.440944882 40.798031496,232.440944882 C45.0499999999,232.440944882 45.0499999999,236.692913386 45.0499999999,236.692913386 C45.0499999999,238.771653543 45.0499999999,238.771653543 45.0499999999,242.929133858
C45.0499999999,242.929133858 45.0499999999,243.779527559 45.9003937007,243.779527559 C47.0342519684,243.779527559 48.1681102361,243.779527559 49.3019685039,243.779527559"/>
      <line
          style="fill:none;stroke-linecap:round;stroke-width:2.125984251969;marker-end:url(#4CC5C51F_end_arrow)"
          id="4CC5C51F"
          x1="142.845275591"
          y1="79.3700787407"
          x2="216.546062992"
          y2="17.0078740158"/>
      <path
          style="fill:none;stroke:#0F80FF"
          id="8799361F"
          d="M63.4751968509,79.3700776289 C63.7400776296,80.0833469218 64.0264679253,80.8554245379 64.3106713639,81.5612540217 C64.5538145321,82.1651088438 64.8412597158,82.836164437 65.146145877,83.4118767058 C65.3624245949,83.8202727802 65.6521975061,84.3050438446 65.98162039,84.6343209966
C66.2034649096,84.8560673754 66.4873507718,85.0532750374 66.8170949031,85.0385940035 C67.1511316968,85.0237218495 67.4366488797,84.7954209718 67.6525694162,84.5618634175 C67.9798972364,84.2077985084 68.2694675391,83.7046059436 68.4880439292,83.2782229401
C68.7910644962,82.6871123477 69.0783697973,82.0041150615 69.3235184423,81.3871766032 C69.6061104323,80.6760086233 69.8924654943,79.8999428249 70.1589929553,79.1826317552 C70.4222107253,78.4742281282 70.7086433567,77.7068506861 70.9944674684,77.0072198368
C71.23556,76.4170814761 71.5231561425,75.7585541738 71.8299419814,75.1990444342 C72.0439998682,74.8086500376 72.3339528722,74.3428662041 72.6654164945,74.0391330547 C72.8948326875,73.8289099771 73.176935038,73.6645054738 73.5008910075,73.7077596934
C73.8378852121,73.7527547627 74.1247976175,74.0104523421 74.3363655206,74.2564265603 C74.6615701468,74.6345177193 74.9509254279,75.1555923194 75.1718400337,75.5998595822 C75.4730275357,76.205558543 75.7602036814,76.8998973725 76.0073145467,77.5292617404
C76.2883021321,78.244906412 76.5746288969,79.0242431879 76.8427890598,79.7447644061 C77.1043251092,80.4474872525 77.3908073761,81.2094586727 77.6782635728,81.9020330693 C77.9172592683,82.477850538 78.2050175738,83.123275957 78.5137380859,83.665783977
C78.7256999505,84.0382600744 79.0157971325,84.4844527491 79.3492125989,84.7618940991 C79.5878089504,84.9604346604 79.8681139005,85.0904015764 80.184687112,85.0200054631 C80.5234920992,84.9446656889 80.8115283566,84.6591866699 81.020161625,84.4000022743
C81.3432345269,83.9986499136 81.632369854,83.4602161979 81.8556361381,82.9982457323 C82.1550213187,82.3787741813 82.4420786487,81.673707289 82.6911106511,81.0325975256 C82.9704986998,80.3133389404 83.256803971,79.5314526603 83.5265851642,78.8085596618
C83.7864183551,78.1123228625 84.0729577874,77.356456254 84.3620596773,76.6717931956 C84.5989303805,76.1108261947 84.8868562784,75.4790858444 85.1975341903,74.9543954183 C85.4075873656,74.5996457376 85.6977753807,74.1737006734 86.0330087034,73.923285134
C86.2822560236,73.7371001759 86.5609293998,73.6430760595 86.8684832164,73.7387180084 C87.2081451156,73.8443448102 87.497034867,74.1561152933 87.7039577295,74.4293795546 C88.0249048227,74.8532252781 88.3138207005,75.4085039605 88.5394322425,75.8879268167
C88.8370438968,76.520349378 89.1239923464,77.2355178967 89.3749067556,77.8876716643 C89.6533982599,78.6115012937 89.9382881415,79.3915228489 90.2103812686,80.1178127734 C90.4684879967,80.8067692275 90.7550923866,81.5558401846 91.0458557817,82.2317405199
C91.2805562727,82.7773186196 91.5686607103,83.3948241276 91.8813302947,83.9009072174 C92.0897424259,84.2382404936 92.3799457596,84.6432122572 92.7168048078,84.86589016 C92.9777829819,85.0384076352 93.2552068419,85.0953154574 93.5522793209,84.9767112258
C93.8920255241,84.8410697907 94.1815222557,84.504350644 94.3877538339,84.2161465504 C94.7065914766,83.770577959 94.9952922796,83.1989658081 95.223228347,82.7024034684 C95.5190932108,82.0578571677 95.8059423106,81.3332259155 96.05870286,80.6707486715
C96.3371943644,79.9408314249 96.6188834309,79.1681422381 96.8941773731,78.4369429436 C97.1505315313,77.7560489938 97.4372089646,77.0144557112 97.7296518861,76.3481654658 C97.9621379495,75.8184785258 98.2504315676,75.2157459104 98.5651263992,74.7290550572
C98.7722665747,74.4087027074 99.062382296,74.0255179211 99.4006009122,73.831254651 C99.6738488655,73.6743087042 99.9505935785,73.6552500516 100.236075425,73.7943008263 C100.575294577,73.959525643 100.865187083,74.3200019225 101.071549938,74.6239369645
C101.388301838,75.0904550395 101.676794623,75.6778870694 101.907024451,76.1912206106 C102.20116713,76.847057882 102.487926016,77.580501116 102.742498964,78.2525637723 C103.020990469,78.9877704822 103.299481973,79.7523847752 103.577973478,80.4875914851
C103.832546426,81.1596541414 104.119305312,81.8930973754 104.413447991,82.5489346468 C104.643677819,83.062268188 104.932170604,83.6497002179 105.248922504,84.1162182929 C105.455285359,84.4201533349 105.745177865,84.7806296144 106.084397017,84.9458544311
C106.369878863,85.0849052058 106.646623576,85.0658465532 106.91987153,84.9089006064 C107.258090146,84.7146373363 107.548205867,84.33145255 107.755346043,84.0111002002 C108.070040874,83.524409347 108.358334492,82.9216767316 108.590820556,82.3919897916
C108.883263477,81.7256995462 109.169940911,80.9841062636 109.426295069,80.3032123138 C109.704786573,79.5635200782 109.980080515,78.8077045399 110.261769582,78.0694065859 C110.514530131,77.4069293419 110.801379231,76.6822980897 111.097244095,76.037751789
C111.325180162,75.5411894493 111.613880965,74.9695772984 111.932718608,74.524008707 C112.138950186,74.2358046134 112.428446918,73.8990854667 112.768193121,73.7634440316 C113.0652656,73.6448398 113.34268946,73.7017476222 113.603667634,73.8742650974
C113.940526682,74.0969430002 114.230730016,74.5019147638 114.439142147,74.83924804 C114.751811732,75.3453311298 115.039916169,75.9628366378 115.27461666,76.5084147375 C115.565380055,77.1843150728 115.851984445,77.9333860299 116.110091173,78.622342484
C116.388582678,79.3657114027 116.660675805,80.1120238871 116.945565686,80.8524835931 C117.196480096,81.5046373607 117.483428545,82.2198058794 117.781040199,82.8522284407 C118.006651741,83.3316512969 118.295567619,83.8869299793 118.616514712,84.3107757028
C118.823437575,84.5840399641 119.112327326,84.8958104472 119.451989226,85.001437249 C119.759543042,85.0970791979 120.038216418,85.0030550815 120.287463739,84.8168701234 C120.622697061,84.566454584 120.912885076,84.1405095198 121.122938252,83.7857598391
C121.433616164,83.261069413 121.721542061,82.6293290627 121.958412765,82.0683620618 C122.247514655,81.3836990034 122.534054087,80.6278323949 122.793887278,79.9315955956 C123.063668471,79.2087025971 123.349973742,78.426816317 123.629361791,77.7075577318
C123.878393793,77.0664479684 124.165451123,76.3613810761 124.464836304,75.7419095251 C124.688102588,75.2799390595 124.977237915,74.7415053438 125.300310817,74.3401529831 C125.508944085,74.0809685875 125.796980343,73.7954895685 126.13578533,73.7201497943
C126.452358541,73.649753681 126.732663492,73.779720597 126.971259843,73.9782611583 C127.304675309,74.2557025083 127.594772491,74.701895183 127.806734356,75.0743712804 C128.115454868,75.6168793004 128.403213174,76.2623047194 128.642208869,76.8381221881
C128.929665066,77.5306965847 129.216147333,78.2926680049 129.477683382,78.9953908513 C129.745843545,79.7159120695 130.03217031,80.4952488454 130.313157895,81.210893517 C130.560268761,81.8402578849 130.847444906,82.5345967144 131.148632408,83.1402956752
C131.369547014,83.584562938 131.658902295,84.1056375381 131.984106921,84.4837286971 C132.195674824,84.7297029153 132.48258723,84.9874004947 132.819581434,85.032395564 C133.143537404,85.0756497836 133.425639754,84.9112452803 133.655055947,84.7010222027
C133.98651957,84.3972890533 134.276472574,83.9315052198 134.490530461,83.5411108232 C134.797316299,82.9816010836 135.084912442,82.3230737813 135.326004974,81.7329354206 C135.611829085,81.0333045713 135.898261717,80.2659271292 136.161479487,79.5575235022
C136.428006948,78.8402124325 136.71436201,78.0641466341 136.996954,77.3529786542 C137.242102645,76.7360401959 137.529407946,76.0530429097 137.832428513,75.4619323173 C138.051004903,75.0355493138 138.340575206,74.532356749 138.667903026,74.1782918399
C138.883823562,73.9447342856 139.169340745,73.7164334079 139.503377539,73.7015612539 C139.83312167,73.68688022 140.117007532,73.884087882 140.338852052,74.1058342608 C140.668274936,74.4351114128 140.958047847,74.9198824772 141.174326565,75.3282785516
C141.479212726,75.9039908204 141.76665791,76.5750464136 142.009801078,77.1789012357 C142.294004517,77.8847307195 142.580394812,78.6568083356 142.845275591,79.3700776285"/>
      <line
          style="fill:none;stroke-linecap:round;stroke-width:2.125984251969;marker-end:url(#E1FF471F_end_arrow)"
          id="E1FF471F"
          x1="63.47519685"
          y1="79.3700787407"
          x2="137.175984251"
          y2="17.0078740158"/>
      <line
          style="fill:none;stroke-linecap:round;stroke-width:2.125984251969;marker-end:url(#3F30A71F_end_arrow)"
          id="3F30A71F"
          x1="1.112992125985"
          y1="79.3700787397"
          x2="63.47519685"
          y2="79.3700787397"/>
      <text
          id="D2325FAB"
          style="stroke:none"
          font-family="Times New Roman"
          font-size="24"
          font-weight="normal"
          font-style="normal">
         <tspan x="198.868897638" y="49.346456693">e</tspan>
      </text>
      <text
          id="F2325FAB"
          style="stroke:none"
          font-family="Times New Roman"
          font-size="12"
          font-weight="bold"
          font-style="normal">
         <tspan x="211.62480315" y="36.511811024">_</tspan>
      </text>
      <text
          id="A2297FAB"
          style="stroke:none"
          font-family="Times New Roman"
          font-size="24"
          font-weight="normal"
          font-style="normal">
         <tspan x="227.215354331" y="123.047244095">e</tspan>
      </text>
      <text
          id="B2297FAB"
          style="stroke:none"
          font-family="Times New Roman"
          font-size="12"
          font-weight="bold"
          font-style="normal">
         <tspan x="239.971259842" y="117.299212598">+</tspan>
      </text>
   </g>
</svg>
