<?xml version="1.0" encoding="UTF-8"?>
<!-- Created with EazyDraw for Mac ( http://www.eazydraw.com/ ) -->

<svg
    version="1.1"
    xmlns:dc="http://purl.org/dc/elements/1.1/"
    xmlns:cc="http://creativecommons.org/ns#"
    xmlns:rdf="http://www.w3.org/1999/02/22-rdf-syntax-ns#"
    xmlns:svg="http://www.w3.org/2000/svg"
    xmlns:xlink="http://www.w3.org/1999/xlink"
    xmlns="http://www.w3.org/2000/svg"
    width="338.435826772"
    height="289.133858268"
    viewBox="0, 0, 338.435826772, 289.133858268"
    preserveAspectRatio="none"
    id="svg2">
   <defs
       id="defs_9864377C">
      <marker
          orient="auto"
          refX="0.0"
          refY="0.0"
          id="2E2418ED_start_arrow"
          style="overflow:visible"
          markerUnits="userSpaceOnUse">
         <path
             id="2E2418ED_start_arrow_path"
             style="fill:#000000;fill-opacity:1;stroke:#000000;stroke-opacity:1;fill-rule:nonzero;stroke-linecap:round;stroke-linejoin:miter;stroke-width:0.531496062992;stroke-miterlimit:10"
             d="M45.3986244202,-0 L59.494013732,-5.130302149885 L59.494013732,-5.130302149885 C60.7001613163,-1.816438897541 60.7001613163,1.816438897541 59.494013732,5.130302149885 z"/>
      </marker>
      <marker
          orient="auto"
          refX="0.0"
          refY="0.0"
          id="4CC5C51F_end_arrow"
          style="overflow:visible"
          markerUnits="userSpaceOnUse">
         <path
             id="4CC5C51F_end_arrow_path"
             style="fill:#000000;fill-opacity:1;stroke:#000000;stroke-opacity:1;fill-rule:nonzero;stroke-linecap:round;stroke-linejoin:miter;stroke-width:0.531496062992;stroke-miterlimit:10"
             d="M-45.3986244202,0 L-59.494013732,5.130302149885 L-59.494013732,5.130302149885 C-60.7001613163,1.816438897541 -60.7001613163,-1.816438897541 -59.494013732,-5.130302149885 z"/>
      </marker>
      <marker
          orient="auto"
          refX="0.0"
          refY="0.0"
          id="E1FF471F_end_arrow"
          style="overflow:visible"
          markerUnits="userSpaceOnUse">
         <path
             id="E1FF471F_end_arrow_path"
             style="fill:#000000;fill-opacity:1;stroke:#000000;stroke-opacity:1;fill-rule:nonzero;stroke-linecap:round;stroke-linejoin:miter;stroke-width:0.531496062992;stroke-miterlimit:10"
             d="M-38.5777587891,0 L-52.6731481009,5.130302149885 L-52.6731481009,5.130302149885 C-53.8792956852,1.816438897541 -53.8792956852,-1.816438897541 -52.6731481009,-5.130302149885 z"/>
      </marker>
      <marker
          orient="auto"
          refX="0.0"
          refY="0.0"
          id="3F30A71F_end_arrow"
          style="overflow:visible"
          markerUnits="userSpaceOnUse">
         <path
             id="3F30A71F_end_arrow_path"
             style="fill:#000000;fill-opacity:1;stroke:#000000;stroke-opacity:1;fill-rule:nonzero;stroke-linecap:round;stroke-linejoin:miter;stroke-width:0.531496062992;stroke-miterlimit:10"
             d="M-23.1422252655,0 L-37.2376145773,5.130302149885 L-37.2376145773,5.130302149885 C-38.4437621616,1.816438897541 -38.4437621616,-1.816438897541 -37.2376145773,-5.130302149885 z"/>
      </marker>
   </defs>
   <metadata
       id="metadata7">
      <rdf:RDF>
         <cc:Work
             rdf:about="">
            <dc:format>image/svg+xml</dc:format>
            <dc:type rdf:resource="http://purl.org/dc/dcmitype/StillImage"/>
            <dc:title></dc:title>
         </cc:Work>
      </rdf:RDF>
   </metadata>
   <g
       id="layer_Paper"
       style="fill:#000000;fill-opacity:1;stroke:#000000;stroke-opacity:1;fill-rule:nonzero;stroke-linecap:square;stroke-linejoin:miter;stroke-width:1;stroke-miterlimit:10">
      <path
          style="fill:none;stroke:#0F80FF;stroke-width:2"
          id="8799361F"
          d="M63.4751968509,86.4566918021 C63.7400776296,87.169961095 64.0264679253,87.9420387111 64.3106713639,88.6478681949 C64.5538145321,89.251723017 64.8412597158,89.9227786102 65.146145877,90.498490879 C65.3624245949,90.9068869534 65.6521975061,91.3916580178 65.98162039,91.7209351698
C66.2034649096,91.9426815486 66.4873507718,92.1398892106 66.8170949031,92.1252081767 C67.1511316968,92.1103360227 67.4366488797,91.882035145 67.6525694162,91.6484775908 C67.9798972364,91.2944126816 68.2694675391,90.7912201168 68.4880439292,90.3648371133
C68.7910644962,89.7737265209 69.0783697973,89.0907292347 69.3235184423,88.4737907764 C69.6061104323,87.7626227965 69.8924654943,86.9865569981 70.1589929553,86.2692459284 C70.4222107253,85.5608423014 70.7086433567,84.7934648593 70.9944674684,84.09383401
C71.23556,83.5036956493 71.5231561425,82.8451683471 71.8299419814,82.2856586074 C72.0439998682,81.8952642108 72.3339528722,81.4294803773 72.6654164945,81.1257472279 C72.8948326875,80.9155241503 73.176935038,80.751119647 73.5008910075,80.7943738666
C73.8378852121,80.8393689359 74.1247976175,81.0970665153 74.3363655206,81.3430407335 C74.6615701468,81.7211318925 74.9509254279,82.2422064926 75.1718400337,82.6864737554 C75.4730275357,83.2921727162 75.7602036814,83.9865115457 76.0073145467,84.6158759136
C76.2883021321,85.3315205852 76.5746288969,86.1108573611 76.8427890598,86.8313785793 C77.1043251092,87.5341014257 77.3908073761,88.2960728459 77.6782635728,88.9886472425 C77.9172592683,89.5644647113 78.2050175738,90.2098901302 78.5137380859,90.7523981503
C78.7256999505,91.1248742476 79.0157971325,91.5710669223 79.3492125989,91.8485082723 C79.5878089504,92.0470488336 79.8681139005,92.1770157496 80.184687112,92.1066196363 C80.5234920992,92.0312798621 80.8115283566,91.7458008431 81.020161625,91.4866164475
C81.3432345269,91.0852640868 81.632369854,90.5468303711 81.8556361381,90.0848599055 C82.1550213187,89.4653883545 82.4420786487,88.7603214622 82.6911106511,88.1192116988 C82.9704986998,87.3999531136 83.256803971,86.6180668335 83.5265851642,85.895173835
C83.7864183551,85.1989370357 84.0729577874,84.4430704273 84.3620596773,83.7584073688 C84.5989303805,83.1974403679 84.8868562784,82.5657000176 85.1975341903,82.0410095915 C85.4075873656,81.6862599108 85.6977753807,81.2603148466 86.0330087034,81.0098993072
C86.2822560236,80.8237143491 86.5609293998,80.7296902327 86.8684832164,80.8253321816 C87.2081451156,80.9309589834 87.497034867,81.2427294665 87.7039577295,81.5159937278 C88.0249048227,81.9398394513 88.3138207005,82.4951181337 88.5394322425,82.9745409899
C88.8370438968,83.6069635512 89.1239923464,84.3221320699 89.3749067556,84.9742858375 C89.6533982599,85.6981154669 89.9382881415,86.4781370221 90.2103812686,87.2044269466 C90.4684879967,87.8933834007 90.7550923866,88.6424543578 91.0458557817,89.3183546931
C91.2805562727,89.8639327928 91.5686607103,90.4814383008 91.8813302947,90.9875213907 C92.0897424259,91.3248546668 92.3799457596,91.7298264304 92.7168048078,91.9525043332 C92.9777829819,92.1250218084 93.2552068419,92.1819296306 93.5522793209,92.063325399
C93.8920255241,91.9276839639 94.1815222557,91.5909648172 94.3877538339,91.3027607236 C94.7065914766,90.8571921322 94.9952922796,90.2855799813 95.223228347,89.7890176416 C95.5190932108,89.1444713409 95.8059423106,88.4198400887 96.05870286,87.7573628447
C96.3371943644,87.0274455981 96.6188834309,86.2547564114 96.8941773731,85.5235571168 C97.1505315313,84.842663167 97.4372089646,84.1010698844 97.7296518861,83.434779639 C97.9621379495,82.905092699 98.2504315676,82.3023600836 98.5651263992,81.8156692304
C98.7722665747,81.4953168806 99.062382296,81.1121320943 99.4006009122,80.9178688242 C99.6738488655,80.7609228774 99.9505935785,80.7418642248 100.236075425,80.8809149995 C100.575294577,81.0461398162 100.865187083,81.4066160957 101.071549938,81.7105511377
C101.388301838,82.1770692127 101.676794623,82.7645012426 101.907024451,83.2778347838 C102.20116713,83.9336720553 102.487926016,84.6671152892 102.742498964,85.3391779455 C103.020990469,86.0743846555 103.299481973,86.8389989484 103.577973478,87.5742056583
C103.832546426,88.2462683146 104.119305312,88.9797115486 104.413447991,89.63554882 C104.643677819,90.1488823612 104.932170604,90.7363143911 105.248922504,91.2028324661 C105.455285359,91.5067675081 105.745177865,91.8672437877 106.084397017,92.0324686043
C106.369878863,92.1715193791 106.646623576,92.1524607264 106.91987153,91.9955147796 C107.258090146,91.8012515095 107.548205867,91.4180667232 107.755346043,91.0977143734 C108.070040874,90.6110235202 108.358334492,90.0082909048 108.590820556,89.4786039648
C108.883263477,88.8123137194 109.169940911,88.0707204368 109.426295069,87.389826487 C109.704786573,86.6501342514 109.980080515,85.8943187131 110.261769582,85.1560207592 C110.514530131,84.4935435151 110.801379231,83.7689122629 111.097244095,83.1243659622
C111.325180162,82.6278036225 111.613880965,82.0561914716 111.932718608,81.6106228802 C112.138950186,81.3224187866 112.428446918,80.9856996399 112.768193121,80.8500582048 C113.0652656,80.7314539732 113.34268946,80.7883617954 113.603667634,80.9608792706
C113.940526682,81.1835571734 114.230730016,81.588528937 114.439142147,81.9258622132 C114.751811732,82.4319453031 115.039916169,83.049450811 115.27461666,83.5950289107 C115.565380055,84.270929246 115.851984445,85.0200002031 116.110091173,85.7089566572
C116.388582678,86.4523255759 116.660675805,87.1986380603 116.945565686,87.9390977663 C117.196480096,88.5912515339 117.483428545,89.3064200526 117.781040199,89.938842614 C118.006651741,90.4182654701 118.295567619,90.9735441525 118.616514712,91.397389876
C118.823437575,91.6706541373 119.112327326,91.9824246204 119.451989226,92.0880514222 C119.759543042,92.1836933711 120.038216418,92.0896692547 120.287463739,91.9034842966 C120.622697061,91.6530687572 120.912885076,91.227123693 121.122938252,90.8723740123
C121.433616164,90.3476835862 121.721542061,89.7159432359 121.958412765,89.154976235 C122.247514655,88.4703131766 122.534054087,87.7144465681 122.793887278,87.0182097688 C123.063668471,86.2953167703 123.349973742,85.5134304902 123.629361791,84.794171905
C123.878393793,84.1530621416 124.165451123,83.4479952493 124.464836304,82.8285236983 C124.688102588,82.3665532327 124.977237915,81.828119517 125.300310817,81.4267671563 C125.508944085,81.1675827607 125.796980343,80.8821037417 126.13578533,80.8067639675
C126.452358541,80.7363678543 126.732663492,80.8663347702 126.971259843,81.0648753315 C127.304675309,81.3423166815 127.594772491,81.7885093563 127.806734356,82.1609854536 C128.115454868,82.7034934736 128.403213174,83.3489188926 128.642208869,83.9247363613
C128.929665066,84.6173107579 129.216147333,85.3792821782 129.477683382,86.0820050245 C129.745843545,86.8025262427 130.03217031,87.5818630186 130.313157895,88.2975076902 C130.560268761,88.9268720581 130.847444906,89.6212108876 131.148632408,90.2269098484
C131.369547014,90.6711771112 131.658902295,91.1922517113 131.984106921,91.5703428703 C132.195674824,91.8163170885 132.48258723,92.0740146679 132.819581434,92.1190097372 C133.143537404,92.1622639568 133.425639754,91.9978594535 133.655055947,91.7876363759
C133.98651957,91.4839032265 134.276472574,91.018119393 134.490530461,90.6277249964 C134.797316299,90.0682152568 135.084912442,89.4096879545 135.326004974,88.8195495939 C135.611829085,88.1199187445 135.898261717,87.3525413024 136.161479487,86.6441376754
C136.428006948,85.9268266057 136.71436201,85.1507608073 136.996954,84.4395928274 C137.242102645,83.8226543691 137.529407946,83.1396570829 137.832428513,82.5485464905 C138.051004903,82.122163487 138.340575206,81.6189709222 138.667903026,81.2649060131
C138.883823562,81.0313484588 139.169340745,80.8030475811 139.503377539,80.7881754271 C139.83312167,80.7734943932 140.117007532,80.9707020552 140.338852052,81.192448434 C140.668274936,81.521725586 140.958047847,82.0064966504 141.174326565,82.4148927248
C141.479212726,82.9906049936 141.76665791,83.6616605869 142.009801078,84.2655154089 C142.294004517,84.9713448927 142.580394812,85.7434225088 142.845275591,86.4566918017"/>
      <path
          style="fill:none;stroke:#0F80FF;stroke-width:2"
          id="1F642BED"
          d="M165.522440945,205.511811024 C166.235710238,205.246930245 167.007787854,204.96053995 167.713617338,204.676336511 C168.31747216,204.433193343 168.988527753,204.145748159 169.564240022,203.840861998 C169.972636096,203.62458328 170.457407161,203.334810369 170.786684313,203.005387485
C171.008430692,202.783542965 171.205638354,202.499657103 171.19095732,202.169912972 C171.176085166,201.835876178 170.947784288,201.550358995 170.714226734,201.334438459 C170.360161825,201.007110639 169.85696926,200.717540336 169.430586256,200.498963946
C168.839475664,200.195943379 168.156478378,199.908638078 167.539539919,199.663489433 C166.82837194,199.380897443 166.052306141,199.094542381 165.334995072,198.82801492 C164.626591444,198.56479715 163.859214002,198.278364518 163.159583153,197.992540407
C162.569444792,197.751447875 161.91091749,197.463851732 161.35140775,197.157065893 C160.961013354,196.943008007 160.49522952,196.653055003 160.191496371,196.32159138 C159.981273293,196.092175187 159.81686879,195.810072837 159.86012301,195.486116867
C159.905118079,195.149122663 160.162815658,194.862210257 160.408789877,194.650642354 C160.786881036,194.325437728 161.307955636,194.036082447 161.752222898,193.815167841 C162.357921859,193.513980339 163.052260689,193.226804193 163.681625057,192.979693328
C164.397269728,192.698705743 165.176606504,192.412378978 165.897127722,192.144218815 C166.599850569,191.882682766 167.361821989,191.596200499 168.054396386,191.308744302 C168.630213854,191.069748607 169.275639273,190.781990301 169.818147293,190.473269789
C170.190623391,190.261307924 170.636816065,189.971210742 170.914257415,189.637795276 C171.112797977,189.399198924 171.242764893,189.118893974 171.172368779,188.802320763 C171.097029005,188.463515776 170.811549986,188.175479518 170.552365591,187.96684625
C170.15101323,187.643773348 169.612579514,187.354638021 169.150609049,187.131371737 C168.531137498,186.831986556 167.826070605,186.544929226 167.184960842,186.295897224 C166.465702257,186.016509175 165.683815977,185.730203904 164.960922978,185.460422711
C164.264686179,185.20058952 163.50881957,184.914050088 162.824156512,184.624948198 C162.263189511,184.388077494 161.631449161,184.100151596 161.106758735,183.789473685 C160.752009054,183.579420509 160.32606399,183.289232494 160.07564845,182.953999172
C159.889463492,182.704751851 159.795439376,182.426078475 159.891081325,182.118524658 C159.996708126,181.778862759 160.30847861,181.489973008 160.581742871,181.283050145 C161.005588594,180.962103052 161.560867277,180.673187174 162.040290133,180.447575632
C162.672712694,180.149963978 163.387881213,179.863015528 164.040034981,179.612101119 C164.76386461,179.333609615 165.543886165,179.048719733 166.27017609,178.776626606 C166.959132544,178.518519878 167.708203501,178.231915488 168.384103836,177.941152093
C168.929681936,177.706451602 169.547187444,177.418347165 170.053270534,177.10567758 C170.39060381,176.897265449 170.795575574,176.607062115 171.018253476,176.270203067 C171.190770952,176.009224893 171.247678774,175.731801033 171.129074542,175.434728554
C170.993433107,175.094982351 170.65671396,174.805485619 170.368509867,174.599254041 C169.922941275,174.280416398 169.351329124,173.991715595 168.854766785,173.763779528 C168.210220484,173.467914664 167.485589232,173.181065564 166.823111988,172.928305015
C166.093194741,172.649813511 165.320505554,172.368124444 164.58930626,172.092830502 C163.90841231,171.836476344 163.166819027,171.54979891 162.500528782,171.257355989 C161.970841842,171.024869925 161.368109227,170.736576307 160.881418374,170.421881476
C160.561066024,170.2147413 160.177881237,169.924625579 159.983617967,169.586406963 C159.82667202,169.313159009 159.807613368,169.036414296 159.946664143,168.75093245 C160.111888959,168.411713298 160.472365239,168.121820791 160.776300281,167.915457937
C161.242818356,167.598706037 161.830250386,167.310213252 162.343583927,167.079983423 C162.999421198,166.785840745 163.732864432,166.499081859 164.404927089,166.24450891 C165.140133799,165.966017406 165.904748091,165.687525902 166.639954801,165.409034397
C167.312017458,165.154461449 168.045460692,164.867702562 168.701297963,164.573559884 C169.214631504,164.343330056 169.802063534,164.054837271 170.268581609,163.738085371 C170.572516651,163.531722516 170.932992931,163.24183001 171.098217747,162.902610858
C171.237268522,162.617129011 171.218209869,162.340384298 171.061263923,162.067136345 C170.867000653,161.728917729 170.483815866,161.438802008 170.163463516,161.231661832 C169.676772663,160.916967001 169.074040048,160.628673382 168.544353108,160.396187319
C167.878062862,160.103744397 167.13646958,159.817066964 166.45557563,159.560712806 C165.715883394,159.282221302 164.960067856,159.006927359 164.221769902,158.725238293 C163.559292658,158.472477743 162.834661406,158.185628644 162.190115105,157.88976378
C161.693552766,157.661827713 161.121940615,157.37312691 160.676372023,157.054289267 C160.38816793,156.848057689 160.051448783,156.558560957 159.915807348,156.218814754 C159.797203116,155.921742275 159.854110938,155.644318415 160.026628414,155.383340241
C160.249306316,155.046481192 160.65427808,154.756277859 160.991611356,154.547865728 C161.497694446,154.235196143 162.115199954,153.947091706 162.660778054,153.712391215 C163.336678389,153.42162782 164.085749346,153.13502343 164.7747058,152.876916702
C165.518074719,152.598425197 166.264387203,152.32633207 167.004846909,152.041442189 C167.657000677,151.790527779 168.372169196,151.50357933 169.004591757,151.205967675 C169.484014613,150.980356133 170.039293296,150.691440256 170.463139019,150.370493162
C170.73640328,150.1635703 171.048173764,149.874680548 171.153800565,149.535018649 C171.249442514,149.227464833 171.155418398,148.948791457 170.96923344,148.699544136 C170.7188179,148.364310814 170.292872836,148.074122799 169.938123155,147.864069623
C169.413432729,147.553391711 168.781692379,147.265465813 168.220725378,147.02859511 C167.53606232,146.73949322 166.780195711,146.452953788 166.083958912,146.193120597 C165.361065913,145.923339404 164.579179633,145.637034133 163.859921048,145.357646084
C163.218811285,145.108614082 162.513744392,144.821556752 161.894272841,144.522171571 C161.432302376,144.298905287 160.89386866,144.00976996 160.492516299,143.686697058 C160.233331904,143.47806379 159.947852885,143.190027532 159.872513111,142.851222545
C159.802116997,142.534649333 159.932083913,142.254344383 160.130624475,142.015748032 C160.408065825,141.682332565 160.854258499,141.392235383 161.226734597,141.180273519 C161.769242617,140.871553007 162.414668036,140.583794701 162.990485504,140.344799006
C163.683059901,140.057342809 164.445031321,139.770860542 165.147754168,139.509324493 C165.868275386,139.24116433 166.647612162,138.954837565 167.363256833,138.67384998 C167.992621201,138.426739114 168.686960031,138.139562969 169.292658992,137.838375467
C169.736926254,137.617460861 170.258000854,137.32810558 170.636092013,137.002900954 C170.882066232,136.79133305 171.139763811,136.504420645 171.18475888,136.16742644 C171.2280131,135.843470471 171.063608597,135.56136812 170.853385519,135.331951927
C170.54965237,135.000488305 170.083868536,134.710535301 169.693474139,134.496477414 C169.1339644,134.189691575 168.475437098,133.902095433 167.885298737,133.661002901 C167.185667888,133.37517879 166.418290446,133.088746158 165.709886818,132.825528388
C164.992575749,132.559000927 164.21650995,132.272645865 163.50534197,131.990053875 C162.888403512,131.74490523 162.205406226,131.457599929 161.614295634,131.154579362 C161.18791263,130.936002972 160.684720065,130.646432669 160.330655156,130.319104849
C160.097097602,130.103184313 159.868796724,129.81766713 159.85392457,129.483630336 C159.839243536,129.153886205 160.036451198,128.870000343 160.258197577,128.648155823 C160.587474729,128.318732939 161.072245793,128.028960028 161.480641868,127.81268131
C162.056354137,127.507795149 162.72740973,127.220349965 163.331264552,126.977206797 C164.037094036,126.693003358 164.809171652,126.406613062 165.522440945,126.141732284"/>
      <line
          style="fill:none;stroke-linecap:round;stroke-width:2.125984251969"
          id="4217A3ED"
          x1="142.845275591"
          y1="86.4566929129"
          x2="165.522440945"
          y2="126.141732284"/>
      <line
          style="fill:none;stroke-linecap:round;stroke-width:2.125984251969;marker-start:url(#2E2418ED_start_arrow)"
          id="2E2418ED"
          x1="165.522440945"
          y1="126.141732284"
          x2="247.727165354"
          y2="97.7952755905"/>
      <line
          style="fill:none;stroke:#118002;stroke-linecap:round;stroke-linejoin:round;stroke-width:3"
          id="AC2CB8ED"
          x1="52.136614173"
          y1="233.858267717"
          x2="165.522440945"
          y2="205.511811024"/>
      <line
          style="fill:none;stroke:#118002;stroke-linecap:round;stroke-linejoin:bevel;stroke-width:3"
          id="DF6619ED"
          x1="165.522440945"
          y1="205.511811024"
          x2="278.908267717"
          y2="233.858267717"/>
      <text
          id="2F5BA32E"
          style="stroke:none"
          font-family="Cambria Math"
          font-size="24"
          font-weight="normal"
          font-style="normal">
         <tspan x="11.782283465" y="75.4409448819">𝝁</tspan>
      </text>
      <text
          id="A323762E"
          style="stroke:none"
          font-family="Cambria Math"
          font-size="24"
          font-weight="normal"
          font-style="normal">
         <tspan x="82.6484251968" y="30">𝝁</tspan>
         <tspan font-family="Helvetica">	</tspan>
      </text>
      <text
          id="1CFBB62E"
          style="stroke:none"
          font-family="Cambria Math"
          font-size="36"
          font-weight="normal"
          font-style="normal">
         <tspan x="27.3728346456" y="262.188976378">N</tspan>
      </text>
      <line
          style="fill:none;stroke:#FB0207;stroke-linecap:round;stroke-linejoin:round;stroke-width:3"
          id="56C61A5E"
          x1="52.136614173"
          y1="239.527559055"
          x2="165.522440945"
          y2="211.181102362"/>
      <line
          style="fill:none;stroke:#FB0207;stroke-linecap:round;stroke-linejoin:bevel;stroke-width:3"
          id="76C61A5E"
          x1="165.522440945"
          y1="211.181102362"
          x2="278.908267717"
          y2="239.527559055"/>
      <line
          style="fill:none;stroke:#0F80FF;stroke-linecap:round;stroke-linejoin:round;stroke-width:3"
          id="3DF84A5E"
          x1="52.136614173"
          y1="245.196850394"
          x2="165.522440945"
          y2="216.850393701"/>
      <line
          style="fill:none;stroke:#0F80FF;stroke-linecap:round;stroke-linejoin:bevel;stroke-width:3"
          id="4DF84A5E"
          x1="165.522440945"
          y1="216.850393701"
          x2="278.908267717"
          y2="245.196850394"/>
      <line
          style="fill:none;stroke-linecap:round;stroke-width:2.125984251969;marker-end:url(#4CC5C51F_end_arrow)"
          id="4CC5C51F"
          x1="142.845275591"
          y1="86.4566929139"
          x2="216.546062992"
          y2="24.094488189"/>
      <line
          style="fill:none;stroke-linecap:round;stroke-width:2.125984251969;marker-end:url(#E1FF471F_end_arrow)"
          id="E1FF471F"
          x1="63.47519685"
          y1="86.4566929139"
          x2="121.585433071"
          y2="12.7559055118"/>
      <line
          style="fill:none;stroke-linecap:round;stroke-width:2.125984251969;marker-end:url(#3F30A71F_end_arrow)"
          id="3F30A71F"
          x1="1.112992125985"
          y1="86.4566929129"
          x2="63.47519685"
          y2="86.4566929129"/>
      <text
          id="D2325FAB"
          style="stroke:none"
          font-family="Times New Roman"
          font-size="24"
          font-weight="normal"
          font-style="normal">
         <tspan x="198.868897638" y="56.4330708662">e</tspan>
      </text>
      <text
          id="F2325FAB"
          style="stroke:none"
          font-family="Times New Roman"
          font-size="12"
          font-weight="bold"
          font-style="normal">
         <tspan x="211.62480315" y="43.5984251972">_</tspan>
      </text>
      <text
          id="A2297FAB"
          style="stroke:none"
          font-family="Times New Roman"
          font-size="24"
          font-weight="normal"
          font-style="normal">
         <tspan x="227.215354331" y="130.133858268">e</tspan>
      </text>
      <text
          id="B2297FAB"
          style="stroke:none"
          font-family="Times New Roman"
          font-size="12"
          font-weight="bold"
          font-style="normal">
         <tspan x="239.971259842" y="124.385826772">+</tspan>
      </text>
      <text
          id="F981006C"
          style="stroke:none"
          font-family="Helvetica"
          font-size="13"
          font-weight="bold"
          font-style="normal">
         <tspan x="247.18976378" y="54.1023622047">EM </tspan>
         <tspan x="234.183416124" y="70.1023622047">shower</tspan>
      </text>
      <text
          id="281CA67C"
          style="fill:#A9A9A9;stroke:none"
          font-family="Helvetica Neue"
          font-size="9"
          font-weight="normal"
          font-style="normal">
         <tspan x="198.868897638" y="255.614173228">J. A. Aguilar 2018</tspan>
      </text>
   </g>
</svg>
