<?xml version="1.0" encoding="UTF-8"?>
<!-- Created with EazyDraw for Mac ( http://www.eazydraw.com/ ) -->

<svg
    version="1.1"
    xmlns:dc="http://purl.org/dc/elements/1.1/"
    xmlns:cc="http://creativecommons.org/ns#"
    xmlns:rdf="http://www.w3.org/1999/02/22-rdf-syntax-ns#"
    xmlns:svg="http://www.w3.org/2000/svg"
    xmlns:xlink="http://www.w3.org/1999/xlink"
    xmlns="http://www.w3.org/2000/svg"
    width="263.125984252"
    height="205.086614173"
    viewBox="0, 0, 263.125984252, 205.086614173"
    preserveAspectRatio="none"
    id="svg2">
   <defs
       id="defs_9C57A8AD">
      <marker
          orient="auto"
          refX="0.0"
          refY="0.0"
          id="4217A3ED_end_arrow"
          style="overflow:visible"
          markerUnits="userSpaceOnUse">
         <path
             id="4217A3ED_end_arrow_path"
             style="fill:#000000;fill-opacity:1;stroke:#000000;stroke-opacity:1;fill-rule:nonzero;stroke-linecap:round;stroke-linejoin:miter;stroke-width:0.531496062992;stroke-miterlimit:10"
             d="M-45.3986244202,0 L-59.494013732,5.130302149885 L-59.494013732,5.130302149885 C-60.7001613163,1.816438897541 -60.7001613163,-1.816438897541 -59.494013732,-5.130302149885 z"/>
      </marker>
      <marker
          orient="auto"
          refX="0.0"
          refY="0.0"
          id="AC2CB8ED_end_arrow"
          style="overflow:visible"
          markerUnits="userSpaceOnUse">
         <path
             id="AC2CB8ED_end_arrow_path"
             style="fill:#000000;fill-opacity:1;stroke:#000000;stroke-opacity:1;fill-rule:nonzero;stroke-linecap:round;stroke-linejoin:round;stroke-width:0.531496062992"
             d="M-45.3986244202,0 L-59.494013732,5.130302149885 L-59.494013732,5.130302149885 C-60.7001613163,1.816438897541 -60.7001613163,-1.816438897541 -59.494013732,-5.130302149885 z"/>
      </marker>
      <marker
          orient="auto"
          refX="0.0"
          refY="0.0"
          id="DF6619ED_end_arrow"
          style="overflow:visible"
          markerUnits="userSpaceOnUse">
         <path
             id="DF6619ED_end_arrow_path"
             style="fill:#000000;fill-opacity:1;stroke:#000000;stroke-opacity:1;fill-rule:nonzero;stroke-linecap:round;stroke-linejoin:bevel;stroke-width:0.531496062992"
             d="M-45.3986244202,0 L-59.494013732,5.130302149885 L-59.494013732,5.130302149885 C-60.7001613163,1.816438897541 -60.7001613163,-1.816438897541 -59.494013732,-5.130302149885 z"/>
      </marker>
   </defs>
   <metadata
       id="metadata7">
      <rdf:RDF>
         <cc:Work
             rdf:about="">
            <dc:format>image/svg+xml</dc:format>
            <dc:type rdf:resource="http://purl.org/dc/dcmitype/StillImage"/>
            <dc:title></dc:title>
         </cc:Work>
      </rdf:RDF>
   </metadata>
   <g
       id="layer_Paper"
       style="fill:#000000;fill-opacity:1;stroke:#000000;stroke-opacity:1;fill-rule:nonzero;stroke-linecap:square;stroke-linejoin:miter;stroke-width:1;stroke-miterlimit:10">
      <path
          style="fill:none;stroke:#0F80FF"
          id="1F642BED"
          d="M114.448818898,141.732283465 C115.162088191,141.467402686 115.934165807,141.18101239 116.639995291,140.896808952 C117.243850113,140.653665784 117.914905706,140.3662206 118.490617975,140.061334439 C118.899014049,139.845055721 119.383785114,139.55528281 119.713062266,139.225859926
C119.934808645,139.004015406 120.132016307,138.720129544 120.117335273,138.390385413 C120.102463119,138.056348619 119.874162241,137.770831436 119.640604687,137.5549109 C119.286539778,137.227583079 118.783347213,136.938012777 118.356964209,136.719436387
C117.765853617,136.41641582 117.082856331,136.129110519 116.465917872,135.883961874 C115.754749893,135.601369883 114.978684094,135.315014822 114.261373025,135.04848736 C113.552969397,134.785269591 112.785591955,134.498836959 112.085961106,134.213012847
C111.495822745,133.971920316 110.837295443,133.684324173 110.277785703,133.377538334 C109.887391307,133.163480448 109.421607473,132.873527444 109.117874324,132.542063821 C108.907651246,132.312647628 108.743246743,132.030545278 108.786500963,131.706589308
C108.831496032,131.369595104 109.089193611,131.082682698 109.33516783,130.871114795 C109.713258989,130.545910169 110.234333589,130.256554888 110.678600851,130.035640282 C111.284299812,129.73445278 111.978638642,129.447276634 112.60800301,129.200165769
C113.323647681,128.919178184 114.102984457,128.632851419 114.823505675,128.364691256 C115.526228522,128.103155207 116.288199942,127.81667294 116.980774339,127.529216743 C117.556591807,127.290221047 118.202017226,127.002462742 118.744525246,126.69374223
C119.117001344,126.481780365 119.563194018,126.191683183 119.840635368,125.858267717 C120.03917593,125.619671365 120.169142846,125.339366415 120.098746732,125.022793204 C120.023406958,124.683988217 119.737927939,124.395951959 119.478743544,124.187318691
C119.077391183,123.864245789 118.538957467,123.575110462 118.076987002,123.351844178 C117.457515451,123.052458997 116.752448558,122.765401667 116.111338795,122.516369665 C115.39208021,122.236981616 114.61019393,121.950676345 113.887300931,121.680895152
C113.191064132,121.421061961 112.435197523,121.134522528 111.750534465,120.845420639 C111.189567464,120.608549935 110.557827114,120.320624037 110.033136688,120.009946125 C109.678387007,119.79989295 109.252441943,119.509704935 109.002026403,119.174471612
C108.815841445,118.925224292 108.721817329,118.646550916 108.817459278,118.338997099 C108.923086079,117.9993352 109.234856563,117.710445449 109.508120824,117.503522586 C109.931966547,117.182575493 110.48724523,116.893659615 110.966668086,116.668048073
C111.599090647,116.370436419 112.314259166,116.083487969 112.966412934,115.83257356 C113.690242563,115.554082056 114.470264118,115.269192174 115.196554043,114.997099047 C115.885510497,114.738992319 116.634581454,114.452387929 117.310481789,114.161624534
C117.856059889,113.926924043 118.473565397,113.638819605 118.979648487,113.326150021 C119.316981763,113.11773789 119.721953527,112.827534556 119.944631429,112.490675508 C120.117148905,112.229697334 120.174056727,111.952273474 120.055452495,111.655200995
C119.91981106,111.315454792 119.583091913,111.02595806 119.29488782,110.819726482 C118.849319228,110.500888839 118.277707077,110.212188036 117.781144738,109.984251969 C117.136598437,109.688387105 116.411967185,109.401538005 115.749489941,109.148777456
C115.019572694,108.870285951 114.246883507,108.588596885 113.515684213,108.313302943 C112.834790263,108.056948785 112.09319698,107.770271351 111.426906735,107.47782843 C110.897219795,107.245342366 110.29448718,106.957048748 109.807796327,106.642353917
C109.487443977,106.435213741 109.10425919,106.14509802 108.90999592,105.806879404 C108.753049973,105.53363145 108.733991321,105.256886737 108.873042096,104.97140489 C109.038266912,104.632185739 109.398743192,104.342293232 109.702678234,104.135930377
C110.169196309,103.819178478 110.756628339,103.530685693 111.26996188,103.300455864 C111.925799151,103.006313186 112.659242385,102.7195543 113.331305042,102.464981351 C114.066511752,102.186489847 114.831126044,101.907998343 115.566332754,101.629506838
C116.238395411,101.374933889 116.971838645,101.088175003 117.627675916,100.794032325 C118.141009457,100.563802497 118.728441487,100.275309711 119.194959562,99.9585578122 C119.498894604,99.7521949572 119.859370884,99.4623024505 120.0245957,99.1230832991
C120.163646475,98.8376014524 120.144587822,98.5608567394 119.987641876,98.2876087861 C119.793378606,97.9493901698 119.410193819,97.6592744486 119.089841469,97.452134273 C118.603150616,97.1374394414 118.000418001,96.8491458234 117.470731061,96.6166597599
C116.804440815,96.3242168384 116.062847533,96.0375394051 115.381953583,95.7811852469 C114.642261347,95.5026937425 113.886445809,95.2273998004 113.148147855,94.9457107338 C112.485670611,94.6929501844 111.761039359,94.4061010846 111.116493058,94.1102362208
C110.619930719,93.8823001534 110.048318568,93.5935993504 109.602749976,93.2747617077 C109.314545883,93.0685301295 108.977826736,92.7790333979 108.842185301,92.4392871947 C108.723581069,92.1422147157 108.780488891,91.8647908558 108.953006367,91.6038126816
C109.175684269,91.2669536334 109.580656033,90.9767502997 109.917989309,90.7683381686 C110.424072399,90.4556685841 111.041577907,90.1675641465 111.587156007,89.9328636555 C112.263056342,89.6421002604 113.012127299,89.3554958705 113.701083753,89.0973891425
C114.444452672,88.8188976381 115.190765156,88.546804511 115.931224862,88.2619146294 C116.58337863,88.0110002202 117.298547149,87.7240517706 117.93096971,87.4264401163 C118.410392566,87.2008285743 118.965671249,86.9119126965 119.389516972,86.5909656033
C119.662781233,86.3840427408 119.974551717,86.0951529894 120.080178518,85.7554910902 C120.175820467,85.4479372736 120.081796351,85.1692638974 119.895611393,84.9200165772 C119.645195853,84.5847832545 119.219250789,84.2945952394 118.864501108,84.0845420641
C118.339810682,83.7738641522 117.708070332,83.4859382543 117.147103331,83.2490675511 C116.462440273,82.9599656612 115.706573664,82.6734262289 115.010336865,82.413593038 C114.287443866,82.1438118448 113.505557586,81.8575065736 112.786299001,81.578118525
C112.145189238,81.3290865225 111.440122345,81.0420291925 110.820650794,80.7426440119 C110.358680329,80.5193777278 109.820246613,80.2302424007 109.418894252,79.9071694988 C109.159709857,79.6985362304 108.874230838,79.410499973 108.798891064,79.0716949858
C108.72849495,78.7551217743 108.858461866,78.4748168242 109.057002428,78.2362204727 C109.334443778,77.9028050063 109.780636452,77.6127078243 110.15311255,77.4007459597 C110.69562057,77.0920254476 111.341045989,76.8042671421 111.916863457,76.5652714466
C112.609437854,76.2778152499 113.371409274,75.991332983 114.074132121,75.7297969336 C114.794653339,75.4616367707 115.573990115,75.1753100059 116.289634786,74.8943224205 C116.918999154,74.6472115552 117.613337984,74.3600354095 118.219036945,74.0588479075
C118.663304207,73.8379333017 119.184378807,73.5485780206 119.562469966,73.2233733944 C119.808444185,73.0118054914 120.066141764,72.724893086 120.111136833,72.3878988814 C120.154391053,72.0639429119 119.98998655,71.7818405613 119.779763472,71.5524243683
C119.476030323,71.220960746 119.010246489,70.931007742 118.619852092,70.7169498552 C118.060342353,70.4101640163 117.401815051,70.1225678738 116.81167669,69.8814753422 C116.112045841,69.5956512305 115.344668399,69.3092185991 114.636264771,69.0460008291
C113.918953702,68.7794733681 113.142887903,68.4931183061 112.431719923,68.2105263161 C111.814781465,67.9653776711 111.131784179,67.67807237 110.540673587,67.375051803 C110.114290583,67.1564754129 109.611098018,66.8669051102 109.257033109,66.53957729
C109.023475555,66.3236567535 108.795174677,66.0381395706 108.780302523,65.7041027769 C108.765621489,65.3743586456 108.962829151,65.0904727834 109.18457553,64.8686282639 C109.513852682,64.5392053799 109.998623746,64.2494324687 110.407019821,64.0331537508
C110.98273209,63.7282675897 111.653787683,63.4408224059 112.257642505,63.1976792378 C112.963471989,62.9134757991 113.735549605,62.6270855034 114.448818898,62.3622047247"/>
      <line
          style="fill:none;stroke-linecap:round;stroke-width:2.125984251969;marker-end:url(#4217A3ED_end_arrow)"
          id="4217A3ED"
          x1="1.062992125984"
          y1="34.0157480318"
          x2="114.448818898"
          y2="62.3622047248"/>
      <line
          style="fill:none;stroke-linecap:round;stroke-width:2.125984251969;marker-end:url(#4217A3ED_end_arrow)"
          id="2E2418ED"
          x1="114.448818898"
          y1="62.3622047248"
          x2="227.83464567"
          y2="34.0157480318"/>
      <line
          style="fill:none;stroke-linecap:round;stroke-linejoin:round;stroke-width:2.125984251969;marker-end:url(#AC2CB8ED_end_arrow)"
          id="AC2CB8ED"
          x1="1.062992125984"
          y1="170.078740158"
          x2="114.448818898"
          y2="141.732283465"/>
      <line
          style="fill:none;stroke-linecap:round;stroke-linejoin:bevel;stroke-width:2.125984251969;marker-end:url(#DF6619ED_end_arrow)"
          id="DF6619ED"
          x1="114.448818898"
          y1="141.732283465"
          x2="227.83464567"
          y2="170.078740158"/>
      <text
          id="2F5BA32E"
          style="stroke:none"
          font-family="Cambria Math"
          font-size="24"
          font-weight="normal"
          font-style="normal">
         <tspan x="40.078740158" y="30">ğ</tspan>
         <tspan font-family="Helvetica">-</tspan>
      </text>
      <text
          id="A323762E"
          style="stroke:none"
          font-family="Cambria Math"
          font-size="24"
          font-weight="normal"
          font-style="normal">
         <tspan x="181.811023622" y="30">ğ</tspan>
         <tspan font-family="Helvetica">-</tspan>
      </text>
      <text
          id="1CFBB62E"
          style="stroke:none"
          font-family="Avenir Next"
          font-size="24"
          font-weight="normal"
          font-style="normal">
         <tspan x="34.409448819" y="142.385826772">e</tspan>
         <tspan font-family="Helvetica">-</tspan>
      </text>
      <text
          id="416EE72E"
          style="stroke:none"
          font-family="Avenir Next"
          font-size="24"
          font-weight="normal"
          font-style="normal">
         <tspan x="176.141732284" y="142.385826772">e</tspan>
         <tspan font-family="Helvetica">-</tspan>
      </text>
      <text
          id="2B09F92E"
          style="fill:#4C4C4C;stroke:none"
          font-family="Avenir Next"
          font-size="9"
          font-weight="normal"
          font-style="normal">
         <tspan x="142.125984252" y="196.086614173">Â© J. A. Aguilar 2018</tspan>
      </text>
   </g>
</svg>
