<?xml version="1.0" encoding="UTF-8"?>
<!-- Created with EazyDraw for Mac ( http://www.eazydraw.com/ ) -->

<svg
    version="1.1"
    xmlns:dc="http://purl.org/dc/elements/1.1/"
    xmlns:cc="http://creativecommons.org/ns#"
    xmlns:rdf="http://www.w3.org/1999/02/22-rdf-syntax-ns#"
    xmlns:svg="http://www.w3.org/2000/svg"
    xmlns:xlink="http://www.w3.org/1999/xlink"
    xmlns="http://www.w3.org/2000/svg"
    width="228.997637796"
    height="211.442799398"
    viewBox="0, 0, 228.997637796, 211.442799398"
    preserveAspectRatio="none"
    id="svg2">
   <defs
       id="defs_1050F7AB">
      <marker
          orient="auto"
          refX="0.0"
          refY="0.0"
          id="4217A3ED_end_arrow"
          style="overflow:visible"
          markerUnits="userSpaceOnUse">
         <path
             id="4217A3ED_end_arrow_path"
             style="fill:#000000;fill-opacity:1;stroke:#000000;stroke-opacity:1;fill-rule:nonzero;stroke-linecap:round;stroke-linejoin:miter;stroke-width:0.531496062992;stroke-miterlimit:10"
             d="M-45.3986244202,0 L-59.494013732,5.130302149885 L-59.494013732,5.130302149885 C-60.7001613163,1.816438897541 -60.7001613163,-1.816438897541 -59.494013732,-5.130302149885 z"/>
      </marker>
      <marker
          orient="auto"
          refX="0.0"
          refY="0.0"
          id="34F5572E_start_arrow"
          style="overflow:visible"
          markerUnits="userSpaceOnUse">
         <path
             id="34F5572E_start_arrow_path"
             style="fill:#0F80FF;fill-opacity:1;stroke:#0F80FF;stroke-opacity:1;fill-rule:nonzero;stroke-linecap:round;stroke-linejoin:miter;stroke-width:0.25;stroke-miterlimit:10"
             d="M0,0 L7.833574261586,-1.623303510812 L7.833574261586,-1.623303510812 C8.055475246138,-0.552476133413 8.055475246138,0.552476133413 7.833574261586,1.623303510812 z"/>
      </marker>
   </defs>
   <metadata
       id="metadata7">
      <rdf:RDF>
         <cc:Work
             rdf:about="">
            <dc:format>image/svg+xml</dc:format>
            <dc:type rdf:resource="http://purl.org/dc/dcmitype/StillImage"/>
            <dc:title></dc:title>
         </cc:Work>
      </rdf:RDF>
   </metadata>
   <g
       id="layer_Paper"
       style="fill:#000000;fill-opacity:1;stroke:#000000;stroke-opacity:1;fill-rule:nonzero;stroke-linecap:square;stroke-linejoin:miter;stroke-width:1;stroke-miterlimit:10">
      <path
          style="fill:none;stroke:#0F80FF;stroke-linecap:round"
          id="462E442E"
          d="M159.853148495,91.3746891617 C160.566417788,91.109808383 161.338495404,90.8234180872 162.044324888,90.5392146486 C162.64817971,90.2960714805 163.319235303,90.0086262967 163.894947572,89.7037401355 C164.303343646,89.4874614177 164.788114711,89.1976885064 165.117391863,88.8682656225
C165.339138242,88.6464211029 165.536345904,88.3625352408 165.52166487,88.0327911094 C165.506792716,87.6987543158 165.278491838,87.4132371328 165.044934284,87.1973165964 C164.690869375,86.8699887762 164.18767681,86.5804184735 163.761293806,86.3618420833
C163.170183214,86.0588215163 162.487185928,85.7715162153 161.870247469,85.5263675703 C161.15907949,85.2437755802 160.383013691,84.9574205183 159.665702622,84.6908930572 C158.957298994,84.4276752873 158.189921552,84.1412426558 157.490290703,83.8554185442
C156.900152342,83.6143260125 156.24162504,83.32672987 155.6821153,83.0199440311 C155.291720904,82.8058861444 154.82593707,82.5159331404 154.522203921,82.184469518 C154.311980843,81.955053325 154.14757634,81.6729509745 154.19083056,81.348995005
C154.235825629,81.0120008004 154.493523208,80.725088395 154.739497427,80.5135204919 C155.117588586,80.1883158657 155.638663186,79.8989605846 156.082930448,79.6780459789 C156.688629409,79.3768584768 157.382968239,79.0896823311 158.012332607,78.8425714658
C158.727977278,78.5615838805 159.507314054,78.2752571157 160.227835272,78.0070969528 C160.930558119,77.7455609034 161.692529539,77.4590786364 162.385103936,77.1716224397 C162.960921404,76.9326267442 163.606346823,76.6448684387 164.148854843,76.3361479267
C164.521330941,76.1241860621 164.967523615,75.83408888 165.244964965,75.5006734136 C165.443505527,75.2620770621 165.573472443,74.981772112 165.503076329,74.6651989006 C165.427736555,74.3263939133 165.142257536,74.0383576559 164.883073141,73.8297243875
C164.48172078,73.5066514856 163.943287064,73.2175161586 163.481316599,72.9942498744 C162.861845048,72.6948646938 162.156778155,72.4078073639 161.515668392,72.1587753614 C160.796409807,71.8793873127 160.014523527,71.5930820415 159.291630528,71.3233008483
C158.595393729,71.0634676575 157.83952712,70.7769282252 157.154864062,70.4878263353 C156.593897061,70.2509556321 155.962156711,69.9630297341 155.437466285,69.6523518222 C155.082716604,69.4422986469 154.65677154,69.1521106318 154.406356,68.8168773092
C154.220171042,68.5676299889 154.126146926,68.2889566127 154.221788875,67.9814027961 C154.327415676,67.641740897 154.63918616,67.3528511455 154.912450421,67.1459282831 C155.336296144,66.8249811899 155.891574827,66.5360653121 156.370997683,66.31045377
C157.003420244,66.0128421158 157.718588763,65.7258936661 158.370742531,65.474979257 C159.09457216,65.1964877526 159.874593715,64.911597871 160.60088364,64.6395047439 C161.289840094,64.3813980158 162.038911051,64.0947936259 162.714811386,63.8040302308
C163.260389486,63.5693297398 163.877894994,63.2812253022 164.383978084,62.9685557178 C164.72131136,62.7601435867 165.126283124,62.469940253 165.348961026,62.1330812047 C165.521478502,61.8721030306 165.578386324,61.5946791706 165.459782092,61.2976066917
C165.324140657,60.9578604884 164.98742151,60.6683637569 164.699217417,60.4621321786 C164.253648825,60.1432945359 163.682036674,59.8545937329 163.185474335,59.6266576656 C162.540928034,59.3307928017 161.816296782,59.043943702 161.153819538,58.7911831525
C160.423902291,58.5126916482 159.651213104,58.2310025816 158.92001381,57.9557086395 C158.23911986,57.6993544813 157.497526577,57.412677048 156.831236332,57.1202341264 C156.301549392,56.887748063 155.698816777,56.5994544449 155.212125924,56.2847596134
C154.891773574,56.0776194378 154.508588787,55.7875037165 154.314325517,55.4492851003 C154.15737957,55.176037147 154.138320918,54.899292434 154.277371693,54.6138105872 C154.442596509,54.2745914358 154.803072789,53.9846989291 155.107007831,53.7783360742
C155.573525906,53.4615841749 156.160957936,53.1730913897 156.674291477,52.9428615611 C157.330128748,52.648718883 158.063571982,52.3619599969 158.735634639,52.1073870481 C159.470841349,51.8288955437 160.235455641,51.5504040394 160.970662351,51.271912535
C161.642725008,51.0173395862 162.376168242,50.7305807001 163.032005513,50.436438022 C163.545339054,50.2062081934 164.132771084,49.9177154082 164.599289159,49.6009635089 C164.903224201,49.394600654 165.263700481,49.1047081473 165.428925297,48.7654889959
C165.567976072,48.4800071491 165.548917419,48.2032624361 165.391971473,47.9300144828 C165.197708203,47.5917958666 164.814523416,47.3016801453 164.494171066,47.0945399697 C164.007480213,46.7798451382 163.404747598,46.4915515201 162.875060658,46.2590654567
C162.208770412,45.9666225351 161.46717713,45.6799451018 160.78628318,45.4235909436 C160.046590944,45.1450994393 159.290775406,44.8698054971 158.552477452,44.5881164306 C157.890000208,44.3353558811 157.165368956,44.0485067814 156.520822655,43.7526419175
C156.024260316,43.5247058502 155.452648165,43.2360050472 155.007079573,42.9171674045 C154.71887548,42.7109358262 154.382156333,42.4214390947 154.246514898,42.0816928914 C154.127910666,41.7846204125 154.184818488,41.5071965525 154.357335964,41.2462183784
C154.580013866,40.9093593301 154.98498563,40.6191559964 155.322318906,40.4107438653 C155.828401996,40.0980742809 156.445907504,39.8099698433 156.991485604,39.5752693523 C157.667385939,39.2845059572 158.416456896,38.9979015673 159.10541335,38.7397948392
C159.848782269,38.4613033349 160.595094753,38.1892102078 161.335554459,37.9043203261 C161.987708227,37.653405917 162.702876746,37.3664574673 163.335299307,37.0688458131 C163.814722163,36.843234271 164.370000846,36.5543183932 164.793846569,36.2333713
C165.06711083,36.0264484376 165.378881314,35.7375586861 165.484508115,35.397896787 C165.580150064,35.0903429704 165.486125948,34.8116695942 165.29994099,34.5624222739 C165.04952545,34.2271889513 164.623580386,33.9370009362 164.268830705,33.7269477609
C163.744140279,33.416269849 163.112399929,33.128343951 162.551432928,32.8914732478 C161.86676987,32.6023713579 161.110903261,32.3158319256 160.414666462,32.0559987348 C159.691773463,31.7862175416 158.909887183,31.4999122704 158.190628598,31.2205242217
C157.549518835,30.9714922192 156.844451942,30.6844348893 156.224980391,30.3850497087 C155.763009926,30.1617834245 155.22457621,29.8726480975 154.823223849,29.5495751956 C154.564039454,29.3409419272 154.278560435,29.0529056698 154.203220661,28.7141006825
C154.132824547,28.3975274711 154.262791463,28.117222521 154.461332025,27.8786261695 C154.738773375,27.5452107031 155.184966049,27.2551135211 155.557442147,27.0431516564 C156.099950167,26.7344311444 156.745375586,26.4466728389 157.321193054,26.2076771434
C158.013767451,25.9202209467 158.775738871,25.6337386797 159.478461718,25.3722026303 C160.198982936,25.1040424674 160.978319712,24.8177157026 161.693964383,24.5367281173 C162.323328751,24.289617252 163.017667581,24.0024411063 163.623366542,23.7012536042
C164.067633804,23.4803389985 164.588708404,23.1909837174 164.966799563,22.8657790912 C165.212773782,22.6542111881 165.470471361,22.3672987827 165.51546643,22.0303045781 C165.55872065,21.7063486086 165.394316147,21.4242462581 165.184093069,21.1948300651
C164.88035992,20.8633664427 164.414576086,20.5734134387 164.024181689,20.359355552 C163.46467195,20.0525697131 162.806144648,19.7649735706 162.216006287,19.5238810389 C161.516375438,19.2380569273 160.748997996,18.9516242958 160.040594368,18.6884065259
C159.323283299,18.4218790648 158.5472175,18.1355240029 157.83604952,17.8529320128 C157.219111062,17.6077833678 156.536113776,17.3204780668 155.945003184,17.0174574998 C155.51862018,16.7988811096 155.015427615,16.5093108069 154.661362706,16.1819829867
C154.427805152,15.9660624503 154.199504274,15.6805452673 154.18463212,15.3465084737 C154.169951086,15.0167643423 154.367158748,14.7328784802 154.588905127,14.5110339606 C154.918182279,14.1816110767 155.402953343,13.8918381654 155.811349418,13.6755594476
C156.387061687,13.3706732864 157.05811728,13.0832281026 157.661972102,12.8400849345 C158.367801586,12.5558814959 159.139879202,12.2694912001 159.853148495,12.0046104215"/>
      <path
          style="fill:none;stroke:#0F80FF"
          id="1F642BED"
          d="M114.498818898,182.083350579 C115.212088191,181.818469801 115.984165807,181.532079505 116.689995291,181.247876066 C117.293850113,181.004732898 117.964905706,180.717287714 118.540617975,180.412401553 C118.949014049,180.196122835 119.433785114,179.906349924 119.763062266,179.57692704
C119.984808645,179.355082521 120.182016307,179.071196658 120.167335273,178.741452527 C120.152463119,178.407415733 119.924162241,178.12189855 119.690604687,177.905978014 C119.336539778,177.578650194 118.833347213,177.289079891 118.406964209,177.070503501
C117.815853617,176.767482934 117.132856331,176.480177633 116.515917872,176.235028988 C115.804749893,175.952436998 115.028684094,175.666081936 114.311373025,175.399554475 C113.602969397,175.136336705 112.835591955,174.849904073 112.135961106,174.564079962
C111.545822745,174.32298743 110.887295443,174.035391288 110.327785703,173.728605449 C109.937391307,173.514547562 109.471607473,173.224594558 109.167874324,172.893130936 C108.957651246,172.663714743 108.793246743,172.381612392 108.836500963,172.057656423
C108.881496032,171.720662218 109.139193611,171.433749813 109.38516783,171.22218191 C109.763258989,170.896977283 110.284333589,170.607622002 110.728600851,170.386707396 C111.334299812,170.085519894 112.028638642,169.798343749 112.65800301,169.551232883
C113.373647681,169.270245298 114.152984457,168.983918533 114.873505675,168.71575837 C115.576228522,168.454222321 116.338199942,168.167740054 117.030774339,167.880283857 C117.606591807,167.641288162 118.252017226,167.353529856 118.794525246,167.044809344
C119.167001344,166.83284748 119.613194018,166.542750298 119.890635368,166.209334831 C120.08917593,165.97073848 120.219142846,165.69043353 120.148746732,165.373860318 C120.073406958,165.035055331 119.787927939,164.747019074 119.528743544,164.538385805
C119.127391183,164.215312903 118.588957467,163.926177576 118.126987002,163.702911292 C117.507515451,163.403526111 116.802448558,163.116468781 116.161338795,162.867436779 C115.44208021,162.58804873 114.66019393,162.301743459 113.937300931,162.031962266
C113.241064132,161.772129075 112.485197523,161.485589643 111.800534465,161.196487753 C111.239567464,160.95961705 110.607827114,160.671691152 110.083136688,160.36101324 C109.728387007,160.150960065 109.302441943,159.860772049 109.052026403,159.525538727
C108.865841445,159.276291407 108.771817329,158.99761803 108.867459278,158.690064214 C108.973086079,158.350402315 109.284856563,158.061512563 109.558120824,157.854589701 C109.981966547,157.533642607 110.53724523,157.24472673 111.016668086,157.019115188
C111.649090647,156.721503533 112.364259166,156.434555084 113.016412934,156.183640675 C113.740242563,155.90514917 114.520264118,155.620259289 115.246554043,155.348166161 C115.935510497,155.090059433 116.684581454,154.803455044 117.360481789,154.512691648
C117.906059889,154.277991157 118.523565397,153.98988672 119.029648487,153.677217135 C119.366981763,153.468805004 119.771953527,153.178601671 119.994631429,152.841742622 C120.167148905,152.580764448 120.224056727,152.303340588 120.105452495,152.006268109
C119.96981106,151.666521906 119.633091913,151.377025174 119.34488782,151.170793596 C118.899319228,150.851955954 118.327707077,150.563255151 117.831144738,150.335319083 C117.186598437,150.039454219 116.461967185,149.75260512 115.799489941,149.49984457
C115.069572694,149.221353066 114.296883507,148.939663999 113.565684213,148.664370057 C112.884790263,148.408015899 112.14319698,148.121338466 111.476906735,147.828895544 C110.947219795,147.596409481 110.34448718,147.308115863 109.857796327,146.993421031
C109.537443977,146.786280855 109.15425919,146.496165134 108.95999592,146.157946518 C108.803049973,145.884698565 108.783991321,145.607953852 108.923042096,145.322472005 C109.088266912,144.983252853 109.448743192,144.693360347 109.752678234,144.486997492
C110.219196309,144.170245592 110.806628339,143.881752807 111.31996188,143.651522979 C111.975799151,143.357380301 112.709242385,143.070621415 113.381305042,142.816048466 C114.116511752,142.537556961 114.881126044,142.259065457 115.616332754,141.980573953
C116.288395411,141.726001004 117.021838645,141.439242118 117.677675916,141.14509944 C118.191009457,140.914869611 118.778441487,140.626376826 119.244959562,140.309624927 C119.548894604,140.103262072 119.909370884,139.813369565 120.0745957,139.474150413
C120.213646475,139.188668567 120.194587822,138.911923854 120.037641876,138.6386759 C119.843378606,138.300457284 119.460193819,138.010341563 119.139841469,137.803201387 C118.653150616,137.488506556 118.050418001,137.200212938 117.520731061,136.967726874
C116.854440815,136.675283953 116.112847533,136.388606519 115.431953583,136.132252361 C114.692261347,135.853760857 113.936445809,135.578466915 113.198147855,135.296777848 C112.535670611,135.044017299 111.811039359,134.757168199 111.166493058,134.461303335
C110.669930719,134.233367268 110.098318568,133.944666465 109.652749976,133.625828822 C109.364545883,133.419597244 109.027826736,133.130100512 108.892185301,132.790354309 C108.773581069,132.49328183 108.830488891,132.21585797 109.003006367,131.954879796
C109.225684269,131.618020748 109.630656033,131.327817414 109.967989309,131.119405283 C110.474072399,130.806735698 111.091577907,130.518631261 111.637156007,130.28393077 C112.313056342,129.993167375 113.062127299,129.706562985 113.751083753,129.448456257
C114.494452672,129.169964752 115.240765156,128.897871625 115.981224862,128.612981744 C116.63337863,128.362067335 117.348547149,128.075118885 117.98096971,127.777507231 C118.460392566,127.551895689 119.015671249,127.262979811 119.439516972,126.942032718
C119.712781233,126.735109855 120.024551717,126.446220104 120.130178518,126.106558205 C120.225820467,125.799004388 120.131796351,125.520331012 119.945611393,125.271083692 C119.695195853,124.935850369 119.269250789,124.645662354 118.914501108,124.435609178
C118.389810682,124.124931267 117.758070332,123.837005369 117.197103331,123.600134665 C116.512440273,123.311032776 115.756573664,123.024493343 115.060336865,122.764660152 C114.337443866,122.494878959 113.555557586,122.208573688 112.836299001,121.929185639
C112.195189238,121.680153637 111.490122345,121.393096307 110.870650794,121.093711126 C110.408680329,120.870444842 109.870246613,120.581309515 109.468894252,120.258236613 C109.209709857,120.049603345 108.924230838,119.761567087 108.848891064,119.4227621
C108.77849495,119.106188889 108.908461866,118.825883939 109.107002428,118.587287587 C109.384443778,118.253872121 109.830636452,117.963774939 110.20311255,117.751813074 C110.74562057,117.443092562 111.391045989,117.155334256 111.966863457,116.916338561
C112.659437854,116.628882364 113.421409274,116.342400097 114.124132121,116.080864048 C114.844653339,115.812703885 115.623990115,115.52637712 116.339634786,115.245389535 C116.968999154,114.99827867 117.663337984,114.711102524 118.269036945,114.409915022
C118.713304207,114.189000416 119.234378807,113.899645135 119.612469966,113.574440509 C119.858444185,113.362872606 120.116141764,113.0759602 120.161136833,112.738965996 C120.204391053,112.415010026 120.03998655,112.132907676 119.829763472,111.903491483
C119.526030323,111.57202786 119.060246489,111.282074856 118.669852092,111.06801697 C118.110342353,110.761231131 117.451815051,110.473634988 116.86167669,110.232542457 C116.162045841,109.946718345 115.394668399,109.660285713 114.686264771,109.397067943
C113.968953702,109.130540482 113.192887903,108.84418542 112.481719923,108.56159343 C111.864781465,108.316444785 111.181784179,108.029139484 110.590673587,107.726118917 C110.164290583,107.507542527 109.661098018,107.217972225 109.307033109,106.890644404
C109.073475555,106.674723868 108.845174677,106.389206685 108.830302523,106.055169891 C108.815621489,105.72542576 109.012829151,105.441539898 109.23457553,105.219695378 C109.563852682,104.890272494 110.048623746,104.600499583 110.457019821,104.384220865
C111.03273209,104.079334704 111.703787683,103.79188952 112.307642505,103.548746352 C113.013471989,103.264542913 113.785549605,102.978152618 114.498818898,102.713271839"/>
      <line
          style="fill:none;stroke-linecap:round;stroke-width:2.125984251969;marker-end:url(#4217A3ED_end_arrow)"
          id="4217A3ED"
          x1="1.112992125985"
          y1="74.3668151462"
          x2="114.498818898"
          y2="102.713271839"/>
      <line
          style="fill:none;stroke-linecap:round;stroke-width:2.125984251969;marker-end:url(#4217A3ED_end_arrow)"
          id="2E2418ED"
          x1="114.498818898"
          y1="102.713271839"
          x2="227.88464567"
          y2="74.3668151462"/>
      <text
          id="2F5BA32E"
          style="stroke:none"
          font-family="Cambria Math"
          font-size="24"
          font-weight="normal"
          font-style="normal">
         <tspan x="40.1287401578" y="69.0203584529">𝝁</tspan>
      </text>
      <text
          id="A323762E"
          style="stroke:none"
          font-family="Cambria Math"
          font-size="24"
          font-weight="normal"
          font-style="normal">
         <tspan x="181.861023622" y="69.0203584529">𝝁</tspan>
      </text>
      <line
          style="fill:none;stroke:#0F80FF;stroke-linecap:round;marker-start:url(#34F5572E_start_arrow)"
          id="34F5572E"
          x1="159.853149607"
          y1="0.666027744251"
          x2="159.853149607"
          y2="12.0046104215"/>
      <line
          style="fill:none;stroke-linecap:round;stroke-width:2.125984251969;marker-end:url(#4217A3ED_end_arrow)"
          id="1BF7523E"
          x1="114.498818898"
          y1="182.083350579"
          x2="227.88464567"
          y2="210.429807272"/>
      <line
          style="fill:none;stroke-linecap:round;stroke-width:2.125984251969;marker-end:url(#4217A3ED_end_arrow)"
          id="8AC5823E"
          x1="1.112992125985"
          y1="210.429807272"
          x2="114.498818898"
          y2="182.083350579"/>
      <text
          id="90B8F23E"
          style="stroke:none"
          font-family="Times New Roman"
          font-size="24"
          font-weight="normal"
          font-style="normal">
         <tspan x="45.7980314964" y="186.075476563">e</tspan>
      </text>
      <text
          id="1F04643E"
          style="fill:#0F80FF;stroke:none"
          font-family="Cambria Math"
          font-size="24"
          font-weight="normal"
          font-style="normal">
         <tspan x="130.837401575" y="52.0124844372">𝜸</tspan>
      </text>
      <text
          id="4F3D4E9B"
          style="stroke:none"
          font-family="Times New Roman"
          font-size="12"
          font-weight="bold"
          font-style="normal">
         <tspan x="58.553937008" y="173.240830894">_</tspan>
      </text>
      <text
          id="6593E6AB"
          style="stroke:none"
          font-family="Times New Roman"
          font-size="24"
          font-weight="normal"
          font-style="normal">
         <tspan x="170.522440945" y="187.492799398">e</tspan>
      </text>
      <text
          id="8593E6AB"
          style="stroke:none"
          font-family="Times New Roman"
          font-size="12"
          font-weight="bold"
          font-style="normal">
         <tspan x="183.278346457" y="174.658153729">_</tspan>
      </text>
   </g>
</svg>
