<?xml version="1.0" encoding="UTF-8"?>
<!-- Created with EazyDraw for Mac ( http://www.eazydraw.com/ ) -->

<svg
    version="1.1"
    xmlns:dc="http://purl.org/dc/elements/1.1/"
    xmlns:cc="http://creativecommons.org/ns#"
    xmlns:rdf="http://www.w3.org/1999/02/22-rdf-syntax-ns#"
    xmlns:svg="http://www.w3.org/2000/svg"
    xmlns:xlink="http://www.w3.org/1999/xlink"
    xmlns="http://www.w3.org/2000/svg"
    width="335.601181104"
    height="208.346456693"
    viewBox="0, 0, 335.601181104, 208.346456693"
    preserveAspectRatio="none"
    id="svg2">
   <defs
       id="defs_D7A36D7C">
      <marker
          orient="auto"
          refX="0.0"
          refY="0.0"
          id="4217A3ED_end_arrow"
          style="overflow:visible"
          markerUnits="userSpaceOnUse">
         <path
             id="4217A3ED_end_arrow_path"
             style="fill:#000000;fill-opacity:1;stroke:#000000;stroke-opacity:1;fill-rule:nonzero;stroke-linecap:round;stroke-linejoin:miter;stroke-width:0.531496062992;stroke-miterlimit:10"
             d="M-45.3986244202,0 L-59.494013732,5.130302149885 L-59.494013732,5.130302149885 C-60.7001613163,1.816438897541 -60.7001613163,-1.816438897541 -59.494013732,-5.130302149885 z"/>
      </marker>
      <marker
          orient="auto"
          refX="0.0"
          refY="0.0"
          id="34F5572E_start_arrow"
          style="overflow:visible"
          markerUnits="userSpaceOnUse">
         <path
             id="34F5572E_start_arrow_path"
             style="fill:#0F80FF;fill-opacity:1;stroke:#0F80FF;stroke-opacity:1;fill-rule:nonzero;stroke-linecap:round;stroke-linejoin:miter;stroke-width:0.5;stroke-miterlimit:10"
             d="M0,0 L7.833574261586,-1.623303510812 L7.833574261586,-1.623303510812 C8.055475246138,-0.552476133413 8.055475246138,0.552476133413 7.833574261586,1.623303510812 z"/>
      </marker>
   </defs>
   <metadata
       id="metadata7">
      <rdf:RDF>
         <cc:Work
             rdf:about="">
            <dc:format>image/svg+xml</dc:format>
            <dc:type rdf:resource="http://purl.org/dc/dcmitype/StillImage"/>
            <dc:title></dc:title>
         </cc:Work>
      </rdf:RDF>
   </metadata>
   <g
       id="layer_Paper"
       style="fill:#000000;fill-opacity:1;stroke:#000000;stroke-opacity:1;fill-rule:nonzero;stroke-linecap:square;stroke-linejoin:miter;stroke-width:1;stroke-miterlimit:10">
      <path
          style="fill:none;stroke:#0F80FF;stroke-width:2"
          id="1F642BED"
          d="M114.498818898,136.062992126 C115.212088191,135.798111348 115.984165807,135.511721052 116.689995291,135.227517613 C117.293850113,134.984374445 117.964905706,134.696929261 118.540617975,134.3920431 C118.949014049,134.175764382 119.433785114,133.885991471 119.763062266,133.556568587
C119.984808645,133.334724068 120.182016307,133.050838205 120.167335273,132.721094074 C120.152463119,132.38705728 119.924162241,132.101540097 119.690604687,131.885619561 C119.336539778,131.558291741 118.833347213,131.268721438 118.406964209,131.050145048
C117.815853617,130.747124481 117.132856331,130.45981918 116.515917872,130.214670535 C115.804749893,129.932078545 115.028684094,129.645723483 114.311373025,129.379196022 C113.602969397,129.115978252 112.835591955,128.82954562 112.135961106,128.543721509
C111.545822745,128.302628977 110.887295443,128.015032835 110.327785703,127.708246996 C109.937391307,127.494189109 109.471607473,127.204236105 109.167874324,126.872772483 C108.957651246,126.64335629 108.793246743,126.361253939 108.836500963,126.03729797
C108.881496032,125.700303765 109.139193611,125.41339136 109.38516783,125.201823457 C109.763258989,124.87661883 110.284333589,124.587263549 110.728600851,124.366348944 C111.334299812,124.065161441 112.028638642,123.777985296 112.65800301,123.53087443
C113.373647681,123.249886845 114.152984457,122.96356008 114.873505675,122.695399917 C115.576228522,122.433863868 116.338199942,122.147381601 117.030774339,121.859925404 C117.606591807,121.620929709 118.252017226,121.333171403 118.794525246,121.024450891
C119.167001344,120.812489027 119.613194018,120.522391845 119.890635368,120.188976378 C120.08917593,119.950380027 120.219142846,119.670075077 120.148746732,119.353501865 C120.073406958,119.014696878 119.787927939,118.726660621 119.528743544,118.518027352
C119.127391183,118.19495445 118.588957467,117.905819123 118.126987002,117.682552839 C117.507515451,117.383167658 116.802448558,117.096110329 116.161338795,116.847078326 C115.44208021,116.567690277 114.66019393,116.281385006 113.937300931,116.011603813
C113.241064132,115.751770622 112.485197523,115.46523119 111.800534465,115.1761293 C111.239567464,114.939258597 110.607827114,114.651332699 110.083136688,114.340654787 C109.728387007,114.130601612 109.302441943,113.840413596 109.052026403,113.505180274
C108.865841445,113.255932954 108.771817329,112.977259577 108.867459278,112.669705761 C108.973086079,112.330043862 109.284856563,112.04115411 109.558120824,111.834231248 C109.981966547,111.513284155 110.53724523,111.224368277 111.016668086,110.998756735
C111.649090647,110.70114508 112.364259166,110.414196631 113.016412934,110.163282222 C113.740242563,109.884790717 114.520264118,109.599900836 115.246554043,109.327807709 C115.935510497,109.06970098 116.684581454,108.783096591 117.360481789,108.492333195
C117.906059889,108.257632704 118.523565397,107.969528267 119.029648487,107.656858682 C119.366981763,107.448446551 119.771953527,107.158243218 119.994631429,106.821384169 C120.167148905,106.560405995 120.224056727,106.282982135 120.105452495,105.985909656
C119.96981106,105.646163453 119.633091913,105.356666722 119.34488782,105.150435143 C118.899319228,104.831597501 118.327707077,104.542896698 117.831144738,104.31496063 C117.186598437,104.019095766 116.461967185,103.732246667 115.799489941,103.479486117
C115.069572694,103.200994613 114.296883507,102.919305546 113.565684213,102.644011604 C112.884790263,102.387657446 112.14319698,102.100980013 111.476906735,101.808537091 C110.947219795,101.576051028 110.34448718,101.28775741 109.857796327,100.973062578
C109.537443977,100.765922402 109.15425919,100.475806681 108.95999592,100.137588065 C108.803049973,99.8643401116 108.783991321,99.5875953986 108.923042096,99.3021135519 C109.088266912,98.9628944005 109.448743192,98.6730018938 109.752678234,98.4666390388
C110.219196309,98.1498871395 110.806628339,97.8613943544 111.31996188,97.6311645258 C111.975799151,97.3370218477 112.709242385,97.0502629616 113.381305042,96.7956900127 C114.116511752,96.5171985084 114.881126044,96.238707004 115.616332754,95.9602154997
C116.288395411,95.7056425508 117.021838645,95.4188836647 117.677675916,95.1247409866 C118.191009457,94.894511158 118.778441487,94.6060183729 119.244959562,94.2892664736 C119.548894604,94.0829036186 119.909370884,93.7930111119 120.0745957,93.4537919605
C120.213646475,93.1683101138 120.194587822,92.8915654008 120.037641876,92.6183174475 C119.843378606,92.2800988312 119.460193819,91.98998311 119.139841469,91.7828429344 C118.653150616,91.4681481028 118.050418001,91.1798544848 117.520731061,90.9473684213
C116.854440815,90.6549254998 116.112847533,90.3682480665 115.431953583,90.1118939083 C114.692261347,89.8334024039 113.936445809,89.5581084618 113.198147855,89.2764193952 C112.535670611,89.0236588458 111.811039359,88.736809746 111.166493058,88.4409448822
C110.669930719,88.2130088148 110.098318568,87.9243080118 109.652749976,87.6054703691 C109.364545883,87.3992387909 109.027826736,87.1097420593 108.892185301,86.7699958561 C108.773581069,86.4729233771 108.830488891,86.1954995172 109.003006367,85.934521343
C109.225684269,85.5976622948 109.630656033,85.3074589611 109.967989309,85.09904683 C110.474072399,84.7863772455 111.091577907,84.4982728079 111.637156007,84.2635723169 C112.313056342,83.9728089218 113.062127299,83.6862045319 113.751083753,83.4280978039
C114.494452672,83.1496062995 115.240765156,82.8775131724 115.981224862,82.5926232908 C116.63337863,82.3417088816 117.348547149,82.054760432 117.98096971,81.7571487777 C118.460392566,81.5315372357 119.015671249,81.2426213579 119.439516972,80.9216742647
C119.712781233,80.7147514022 120.024551717,80.4258616508 120.130178518,80.0861997516 C120.225820467,79.778645935 120.131796351,79.4999725588 119.945611393,79.2507252386 C119.695195853,78.9154919159 119.269250789,78.6253039008 118.914501108,78.4152507255
C118.389810682,78.1045728136 117.758070332,77.8166469157 117.197103331,77.5797762125 C116.512440273,77.2906743226 115.756573664,77.0041348903 115.060336865,76.7443016994 C114.337443866,76.4745205062 113.555557586,76.188215235 112.836299001,75.9088271864
C112.195189238,75.6597951839 111.490122345,75.3727378539 110.870650794,75.0733526733 C110.408680329,74.8500863892 109.870246613,74.5609510621 109.468894252,74.2378781602 C109.209709857,74.0292448918 108.924230838,73.7412086344 108.848891064,73.4024036472
C108.77849495,73.0858304357 108.908461866,72.8055254856 109.107002428,72.5669291341 C109.384443778,72.2335136677 109.830636452,71.9434164857 110.20311255,71.7314546211 C110.74562057,71.422734109 111.391045989,71.1349758035 111.966863457,70.895980108
C112.659437854,70.6085239113 113.421409274,70.3220416444 114.124132121,70.060505595 C114.844653339,69.7923454321 115.623990115,69.5060186673 116.339634786,69.2250310819 C116.968999154,68.9779202166 117.663337984,68.6907440709 118.269036945,68.3895565689
C118.713304207,68.1686419631 119.234378807,67.879286682 119.612469966,67.5540820558 C119.858444185,67.3425141528 120.116141764,67.0556017474 120.161136833,66.7186075428 C120.204391053,66.3946515733 120.03998655,66.1125492227 119.829763472,65.8831330297
C119.526030323,65.5516694074 119.060246489,65.2617164034 118.669852092,65.0476585166 C118.110342353,64.7408726777 117.451815051,64.4532765352 116.86167669,64.2121840036 C116.162045841,63.9263598919 115.394668399,63.6399272605 114.686264771,63.3767094905
C113.968953702,63.1101820295 113.192887903,62.8238269675 112.481719923,62.5412349775 C111.864781465,62.2960863325 111.181784179,62.0087810314 110.590673587,61.7057604644 C110.164290583,61.4871840743 109.661098018,61.1976137716 109.307033109,60.8702859514
C109.073475555,60.6543654149 108.845174677,60.368848232 108.830302523,60.0348114383 C108.815621489,59.705067307 109.012829151,59.4211814448 109.23457553,59.1993369253 C109.563852682,58.8699140413 110.048623746,58.5801411301 110.457019821,58.3638624122
C111.03273209,58.0589762511 111.703787683,57.7715310673 112.307642505,57.5283878992 C113.013471989,57.2441844605 113.785549605,56.9577941648 114.498818898,56.6929133861"/>
      <line
          style="fill:none;stroke-linecap:round;stroke-width:2.125984251969;marker-end:url(#4217A3ED_end_arrow)"
          id="4217A3ED"
          x1="1.112992125985"
          y1="28.3464566932"
          x2="114.498818898"
          y2="56.6929133862"/>
      <text
          id="2F5BA32E"
          style="stroke:none"
          font-family="Cambria Math"
          font-size="24"
          font-weight="normal"
          font-style="normal">
         <tspan x="40.128740158" y="23">𝝁</tspan>
      </text>
      <text
          id="A323762E"
          style="stroke:none"
          font-family="Cambria Math"
          font-size="24"
          font-weight="normal"
          font-style="normal">
         <tspan x="181.861023622" y="23">𝝁</tspan>
      </text>
      <g
          id="0EDF4A7C"
          transform="matrix(-0.52582553454,0.850592444844,-0.850592444844,-0.52582553454,411.958754994,-104.132728155)">
         <path
             style="fill:none;stroke:#0F80FF;stroke-linecap:round;stroke-width:2"
             id="462E442E"
             d="M235.004488765,110.948651272 C235.717758058,110.683770493 236.489835674,110.397380198 237.195665157,110.113176759 C237.79951998,109.870033591 238.470575573,109.582588407 239.046287842,109.277702246 C239.454683916,109.061423528 239.93945498,108.771650617 240.268732132,108.442227733
C240.490478511,108.220383213 240.687686173,107.936497351 240.673005139,107.60675322 C240.658132985,107.272716426 240.429832108,106.987199243 240.196274553,106.771278707 C239.842209644,106.443950887 239.339017079,106.154380584 238.912634076,105.935804194
C238.321523483,105.632783627 237.638526197,105.345478326 237.021587739,105.100329681 C236.310419759,104.817737691 235.534353961,104.531382629 234.817042891,104.264855168 C234.108639264,104.001637398 233.341261822,103.715204766 232.641630973,103.429380655
C232.051492612,103.188288123 231.39296531,102.900691981 230.83345557,102.593906142 C230.443061173,102.379848255 229.97727734,102.089895251 229.67354419,101.758431629 C229.463321113,101.529015436 229.29891661,101.246913085 229.342170829,100.922957115
C229.387165898,100.585962911 229.644863478,100.299050505 229.890837696,100.087482602 C230.268928855,99.7622779762 230.790003455,99.4729226951 231.234270718,99.2520080894 C231.839969679,98.9508205873 232.534308508,98.6636444416 233.163672876,98.4165335763
C233.879317548,98.135545991 234.658654324,97.8492192261 235.379175542,97.5810590633 C236.081898388,97.3195230139 236.843869808,97.0330407469 237.536444205,96.7455845502 C238.112261674,96.5065888547 238.757687093,96.2188305492 239.300195113,95.9101100371
C239.67267121,95.6981481725 240.118863885,95.4080509905 240.396305235,95.0746355241 C240.594845796,94.8360391726 240.724812712,94.5557342225 240.654416599,94.239161011 C240.579076825,93.9003560238 240.293597806,93.6123197664 240.03441341,93.403686498
C239.633061049,93.0806135961 239.094627334,92.791478269 238.632656868,92.5682119849 C238.013185317,92.2688268043 237.308118425,91.9817694744 236.667008661,91.7327374719 C235.947750076,91.4533494232 235.165863796,91.167044152 234.442970798,90.8972629588
C233.746733998,90.637429768 232.99086739,90.3508903356 232.306204331,90.0617884458 C231.74523733,89.8249177425 231.11349698,89.5369918446 230.588806554,89.2263139327 C230.234056873,89.0162607574 229.808111809,88.7260727423 229.55769627,88.3908394197
C229.371511312,88.1415920994 229.277487195,87.8629187232 229.373129144,87.5553649066 C229.478755946,87.2157030075 229.790526429,86.926813256 230.06379069,86.7198903935 C230.487636414,86.3989433004 231.042915096,86.1100274225 231.522337952,85.8844158805
C232.154760514,85.5868042263 232.869929032,85.2998557766 233.5220828,85.0489413674 C234.245912429,84.7704498631 235.025933985,84.4855599815 235.752223909,84.2134668544 C236.441180363,83.9553601263 237.19025132,83.6687557364 237.866151656,83.3779923413
C238.411729755,83.1432918503 239.029235263,82.8551874127 239.535318353,82.5425178283 C239.872651629,82.3341056972 240.277623393,82.0439023634 240.500301296,81.7070433152 C240.672818771,81.4460651411 240.729726593,81.1686412811 240.611122362,80.8715688022
C240.475480926,80.5318225989 240.13876178,80.2423258674 239.850557686,80.0360942891 C239.404989095,79.7172566464 238.833376944,79.4285558434 238.336814604,79.2006197761 C237.692268303,78.9047549122 236.967637051,78.6179058124 236.305159807,78.365145263
C235.575242561,78.0866537586 234.802553374,77.8049646921 234.071354079,77.5296707499 C233.39046013,77.2733165917 232.648866847,76.9866391585 231.982576602,76.6941962369 C231.452889662,76.4617101735 230.850157046,76.1734165554 230.363466193,75.8587217238
C230.043113843,75.6515815483 229.659929057,75.361465827 229.465665787,75.0232472108 C229.30871984,74.7499992575 229.289661187,74.4732545445 229.428711962,74.1877726977 C229.593936779,73.8485535463 229.954413058,73.5586610396 230.2583481,73.3522981847
C230.724866175,73.0355462853 231.312298205,72.7470535002 231.825631746,72.5168236716 C232.481469018,72.2226809935 233.214912252,71.9359221074 233.886974908,71.6813491586 C234.622181618,71.4028576542 235.386795911,71.1243661499 236.122002621,70.8458746455
C236.794065277,70.5913016967 237.527508511,70.3045428106 238.183345783,70.0104001325 C238.696679324,69.7801703038 239.284111354,69.4916775187 239.750629429,69.1749256194 C240.054564471,68.9685627644 240.41504075,68.6786702577 240.580265567,68.3394511063
C240.719316342,68.0539692596 240.700257689,67.7772245466 240.543311742,67.5039765933 C240.349048472,67.1657579771 239.965863686,66.8756422558 239.645511336,66.6685020802 C239.158820483,66.3538072487 238.556087867,66.0655136306 238.026400927,65.8330275672
C237.360110682,65.5405846456 236.618517399,65.2539072123 235.93762345,64.9975530541 C235.197931214,64.7190615498 234.442115676,64.4437676076 233.703817722,64.1620785411 C233.041340478,63.9093179916 232.316709225,63.6224688919 231.672162925,63.326604028
C231.175600585,63.0986679607 230.603988434,62.8099671577 230.158419843,62.491129515 C229.870215749,62.2848979367 229.533496602,61.9954012051 229.397855167,61.6556550019 C229.279250936,61.3585825229 229.336158758,61.081158663 229.508676233,60.8201804888
C229.731354136,60.4833214406 230.1363259,60.1931181069 230.473659176,59.9847059758 C230.979742266,59.6720363914 231.597247774,59.3839319538 232.142825873,59.1492314627 C232.818726209,58.8584680676 233.567797166,58.5718636777 234.25675362,58.3137569497
C235.000122538,58.0352654453 235.746435023,57.7631723182 236.486894729,57.4782824366 C237.139048496,57.2273680274 237.854217015,56.9404195778 238.486639577,56.6428079236 C238.966062433,56.4171963815 239.521341115,56.1282805037 239.945186839,55.8073334105
C240.2184511,55.6004105481 240.530221583,55.3115207966 240.635848385,54.9718588975 C240.731490334,54.6643050808 240.637466217,54.3856317047 240.451281259,54.1363843844 C240.20086572,53.8011510617 239.774920656,53.5109630467 239.420170975,53.3009098714
C238.895480549,52.9902319594 238.263740198,52.7023060615 237.702773198,52.4654353583 C237.018110139,52.1763334684 236.262243531,51.8897940361 235.566006731,51.6299608452 C234.843113733,51.3601796521 234.061227453,51.0738743808 233.341968868,50.7944863322
C232.700859104,50.5454543297 231.995792212,50.2583969997 231.376320661,49.9590118191 C230.914350195,49.735745535 230.37591648,49.446610208 229.974564119,49.1235373061 C229.715379723,48.9149040376 229.429900704,48.6268677803 229.35456093,48.288062793
C229.284164817,47.9714895815 229.414131733,47.6911846315 229.612672294,47.45258828 C229.890113644,47.1191728136 230.336306319,46.8290756315 230.708782416,46.6171137669 C231.251290436,46.3083932549 231.896715855,46.0206349493 232.472533324,45.7816392539
C233.16510772,45.4941830572 233.927079141,45.2077007902 234.629801987,44.9461647408 C235.350323205,44.6780045779 236.129659981,44.3916778131 236.845304653,44.1106902278 C237.474669021,43.8635793624 238.16900785,43.5764032168 238.774706811,43.2752157147
C239.218974074,43.0543011089 239.740048674,42.7649458278 240.118139833,42.4397412016 C240.364114051,42.2281732986 240.62181163,41.9412608932 240.6668067,41.6042666886 C240.710060919,41.2803107191 240.545656416,40.9982083685 240.335433338,40.7687921755
C240.031700189,40.4373285532 239.565916356,40.1473755492 239.175521959,39.9333176625 C238.616012219,39.6265318236 237.957484917,39.3389356811 237.367346556,39.0978431494 C236.667715707,38.8120190378 235.900338265,38.5255864063 235.191934638,38.2623686364
C234.474623568,37.9958411753 233.69855777,37.7094861134 232.98738979,37.4268941233 C232.370451332,37.1817454783 231.687454045,36.8944401772 231.096343453,36.5914196103 C230.66996045,36.3728432201 230.166767885,36.0832729174 229.812702976,35.7559450972
C229.579145421,35.5400245608 229.350844544,35.2545073778 229.33597239,34.9204705842 C229.321291356,34.5907264528 229.518499018,34.3068405907 229.740245397,34.0849960711 C230.069522549,33.7555731872 230.554293613,33.4658002759 230.962689687,33.249521558
C231.538401956,32.9446353969 232.209457549,32.6571902131 232.813312371,32.414047045 C233.519141855,32.1298436064 234.291219471,31.8434533106 235.004488764,31.5785725319"/>
         <line
             style="fill:none;stroke:#0F80FF;stroke-linecap:round;stroke-width:2;marker-start:url(#34F5572E_start_arrow)"
             id="34F5572E"
             x1="235.004489876"
             y1="14.5706985161"
             x2="235.004489876"
             y2="31.5785725319"/>
      </g>
      <line
          style="fill:none;stroke-linecap:round;stroke-width:2.125984251969;marker-end:url(#4217A3ED_end_arrow)"
          id="1BF7523E"
          x1="114.498818898"
          y1="136.062992126"
          x2="227.88464567"
          y2="164.409448819"/>
      <line
          style="fill:none;stroke-linecap:round;stroke-width:2.125984251969;marker-end:url(#4217A3ED_end_arrow)"
          id="8AC5823E"
          x1="1.112992125985"
          y1="164.409448819"
          x2="114.498818898"
          y2="136.062992126"/>
      <text
          id="90B8F23E"
          style="stroke:none"
          font-family="Times New Roman"
          font-size="24"
          font-weight="normal"
          font-style="normal">
         <tspan x="45.798031496" y="140.05511811">e</tspan>
      </text>
      <text
          id="1F04643E"
          style="fill:#0096FF;stroke:none"
          font-family="Cambria Math"
          font-size="24"
          font-weight="normal"
          font-style="normal">
         <tspan x="217.294094488" y="83.9448818896">𝜸</tspan>
      </text>
      <text
          id="4F3D4E9B"
          style="stroke:none"
          font-family="Times New Roman"
          font-size="12"
          font-weight="bold"
          font-style="normal">
         <tspan x="58.553937008" y="127.220472441">_</tspan>
      </text>
      <text
          id="6593E6AB"
          style="stroke:none"
          font-family="Times New Roman"
          font-size="24"
          font-weight="normal"
          font-style="normal">
         <tspan x="170.522440945" y="141.472440945">e</tspan>
      </text>
      <text
          id="8593E6AB"
          style="stroke:none"
          font-family="Times New Roman"
          font-size="12"
          font-weight="bold"
          font-style="normal">
         <tspan x="183.278346457" y="128.637795276">_</tspan>
      </text>
      <text
          id="1D84297C"
          style="fill:#A9A9A9;stroke:none"
          font-family="Helvetica Neue"
          font-size="9"
          font-weight="normal"
          font-style="normal">
         <tspan x="146.427952756" y="174.826771653">J. A. Aguilar 2018</tspan>
      </text>
      <text
          id="84B58B7C"
          style="stroke:none"
          font-family="Helvetica"
          font-size="13"
          font-weight="bold"
          font-style="normal">
         <tspan x="292.544094489" y="89.5354330707">EM </tspan>
         <tspan x="279.537746833" y="105.535433071">shower</tspan>
      </text>
      <line
          style="fill:none;stroke-linecap:round;stroke-width:2.125984251969;marker-end:url(#4217A3ED_end_arrow)"
          id="2E2418ED"
          x1="114.498818898"
          y1="56.6929133862"
          x2="227.88464567"
          y2="28.3464566932"/>
   </g>
</svg>
