<?xml version="1.0" encoding="UTF-8"?>
<!-- Created with EazyDraw for Mac ( http://www.eazydraw.com/ ) -->

<svg
    version="1.1"
    xmlns:dc="http://purl.org/dc/elements/1.1/"
    xmlns:cc="http://creativecommons.org/ns#"
    xmlns:rdf="http://www.w3.org/1999/02/22-rdf-syntax-ns#"
    xmlns:svg="http://www.w3.org/2000/svg"
    xmlns:xlink="http://www.w3.org/1999/xlink"
    xmlns="http://www.w3.org/2000/svg"
    width="335.551181102"
    height="273.118110236"
    viewBox="0, 0, 335.551181102, 273.118110236"
    preserveAspectRatio="none"
    id="svg2">
   <defs
       id="defs_AD4449FB">
      <marker
          orient="auto"
          refX="0.0"
          refY="0.0"
          id="2E2418ED_start_arrow"
          style="overflow:visible"
          markerUnits="userSpaceOnUse">
         <path
             id="2E2418ED_start_arrow_path"
             style="fill:#000000;fill-opacity:1;stroke:#000000;stroke-opacity:1;fill-rule:nonzero;stroke-linecap:round;stroke-linejoin:miter;stroke-width:0.531496062992;stroke-miterlimit:10"
             d="M45.3986244202,-0 L59.494013732,-5.130302149885 L59.494013732,-5.130302149885 C60.7001613163,-1.816438897541 60.7001613163,1.816438897541 59.494013732,5.130302149885 z"/>
      </marker>
      <marker
          orient="auto"
          refX="0.0"
          refY="0.0"
          id="4CC5C51F_end_arrow"
          style="overflow:visible"
          markerUnits="userSpaceOnUse">
         <path
             id="4CC5C51F_end_arrow_path"
             style="fill:#000000;fill-opacity:1;stroke:#000000;stroke-opacity:1;fill-rule:nonzero;stroke-linecap:round;stroke-linejoin:miter;stroke-width:0.531496062992;stroke-miterlimit:10"
             d="M-45.3986244202,0 L-59.494013732,5.130302149885 L-59.494013732,5.130302149885 C-60.7001613163,1.816438897541 -60.7001613163,-1.816438897541 -59.494013732,-5.130302149885 z"/>
      </marker>
      <marker
          orient="auto"
          refX="0.0"
          refY="0.0"
          id="E1FF471F_end_arrow"
          style="overflow:visible"
          markerUnits="userSpaceOnUse">
         <path
             id="E1FF471F_end_arrow_path"
             style="fill:#000000;fill-opacity:1;stroke:#000000;stroke-opacity:1;fill-rule:nonzero;stroke-linecap:round;stroke-linejoin:miter;stroke-width:0.531496062992;stroke-miterlimit:10"
             d="M-38.5777587891,0 L-52.6731481009,5.130302149885 L-52.6731481009,5.130302149885 C-53.8792956851,1.816438897541 -53.8792956851,-1.816438897541 -52.6731481009,-5.130302149885 z"/>
      </marker>
      <marker
          orient="auto"
          refX="0.0"
          refY="0.0"
          id="3F30A71F_end_arrow"
          style="overflow:visible"
          markerUnits="userSpaceOnUse">
         <path
             id="3F30A71F_end_arrow_path"
             style="fill:#000000;fill-opacity:1;stroke:#000000;stroke-opacity:1;fill-rule:nonzero;stroke-linecap:round;stroke-linejoin:miter;stroke-width:0.531496062992;stroke-miterlimit:10"
             d="M-23.1422252655,0 L-37.2376145773,5.130302149885 L-37.2376145773,5.130302149885 C-38.4437621616,1.816438897541 -38.4437621616,-1.816438897541 -37.2376145773,-5.130302149885 z"/>
      </marker>
   </defs>
   <metadata
       id="metadata7">
      <rdf:RDF>
         <cc:Work
             rdf:about="">
            <dc:format>image/svg+xml</dc:format>
            <dc:type rdf:resource="http://purl.org/dc/dcmitype/StillImage"/>
            <dc:title></dc:title>
         </cc:Work>
      </rdf:RDF>
   </metadata>
   <g
       id="layer_Paper"
       style="fill:#000000;fill-opacity:1;stroke:#000000;stroke-opacity:1;fill-rule:nonzero;stroke-linecap:square;stroke-linejoin:miter;stroke-width:1;stroke-miterlimit:10">
      <path
          style="fill:none;stroke:#0F80FF"
          id="1F642BED"
          d="M165.472440945,198.42519685 C166.179035811,198.162794697 166.942594178,197.879551437 167.641984813,197.598425197 C168.242510684,197.357038522 168.907831997,197.072796078 169.481235295,196.771653543 C169.891365324,196.556259602 170.375370645,196.269788809 170.710183176,195.94488189
C170.934146873,195.727544282 171.141732283,195.445994455 171.141732283,195.118110236 C171.141732283,194.790226018 170.934146873,194.508676191 170.710183176,194.291338583 C170.375370645,193.966431663 169.891365324,193.679960871 169.481235295,193.464566929
C168.907831997,193.163424395 168.242510684,192.879181951 167.641984813,192.637795276 C166.942594178,192.356669036 166.179035811,192.073425775 165.472440945,191.811023622 C164.765846079,191.548621469 164.002287712,191.265378209 163.302897076,190.984251969
C162.702371206,190.742865294 162.037049893,190.458622849 161.463646595,190.157480315 C161.053516566,189.942086374 160.569511244,189.655615581 160.234698713,189.330708661 C160.010735017,189.113371054 159.803149606,188.831821226 159.803149606,188.503937008
C159.803149606,188.176052789 160.010735017,187.894502962 160.234698713,187.677165354 C160.569511244,187.352258435 161.053516566,187.065787642 161.463646595,186.850393701 C162.037049893,186.549251166 162.702371206,186.265008722 163.302897076,186.023622047
C164.002287712,185.742495807 164.765846079,185.459252547 165.472440945,185.196850394 C166.179035811,184.93444824 166.942594178,184.65120498 167.641984813,184.37007874 C168.242510684,184.128692065 168.907831997,183.844449621 169.481235295,183.543307087
C169.891365324,183.327913145 170.375370645,183.041442352 170.710183176,182.716535433 C170.934146873,182.499197825 171.141732283,182.217647998 171.141732283,181.88976378 C171.141732283,181.561879561 170.934146873,181.280329734 170.710183176,181.062992126
C170.375370645,180.738085207 169.891365324,180.451614414 169.481235295,180.236220472 C168.907831997,179.935077938 168.242510684,179.650835494 167.641984813,179.409448819 C166.942594178,179.128322579 166.179035811,178.845079319 165.472440945,178.582677165
C164.765846079,178.320275012 164.002287712,178.037031752 163.302897076,177.755905512 C162.702371206,177.514518837 162.037049893,177.230276393 161.463646595,176.929133858 C161.053516566,176.713739917 160.569511244,176.427269124 160.234698713,176.102362205
C160.010735017,175.885024597 159.803149606,175.60347477 159.803149606,175.275590551 C159.803149606,174.947706333 160.010735017,174.666156505 160.234698713,174.448818898 C160.569511244,174.123911978 161.053516566,173.837441186 161.463646595,173.622047244
C162.037049893,173.32090471 162.702371206,173.036662265 163.302897076,172.795275591 C164.002287712,172.51414935 164.765846079,172.23090609 165.472440945,171.968503937 C166.179035811,171.706101784 166.942594178,171.422858524 167.641984813,171.141732283
C168.242510684,170.900345609 168.907831997,170.616103164 169.481235295,170.31496063 C169.891365324,170.099566688 170.375370645,169.813095896 170.710183176,169.488188976 C170.934146873,169.270851369 171.141732283,168.989301541 171.141732283,168.661417323
C171.141732283,168.333533104 170.934146873,168.051983277 170.710183176,167.834645669 C170.375370645,167.50973875 169.891365324,167.223267957 169.481235295,167.007874016 C168.907831997,166.706731481 168.242510684,166.422489037 167.641984813,166.181102362
C166.942594178,165.899976122 166.179035811,165.616732862 165.472440945,165.354330709 C164.765846079,165.091928555 164.002287712,164.808685295 163.302897076,164.527559055 C162.702371206,164.28617238 162.037049893,164.001929936 161.463646595,163.700787402
C161.053516566,163.48539346 160.569511244,163.198922667 160.234698713,162.874015748 C160.010735017,162.65667814 159.803149606,162.375128313 159.803149606,162.047244094 C159.803149606,161.719359876 160.010735017,161.437810049 160.234698713,161.220472441
C160.569511244,160.895565522 161.053516566,160.609094729 161.463646595,160.393700787 C162.037049893,160.092558253 162.702371206,159.808315809 163.302897076,159.566929134 C164.002287712,159.285802894 164.765846079,159.002559634 165.472440945,158.74015748
C166.179035811,158.477755327 166.942594178,158.194512067 167.641984813,157.913385827 C168.242510684,157.671999152 168.907831997,157.387756708 169.481235295,157.086614173 C169.891365324,156.871220232 170.375370645,156.584749439 170.710183176,156.25984252
C170.934146873,156.042504912 171.141732283,155.760955085 171.141732283,155.433070866 C171.141732283,155.105186648 170.934146873,154.82363682 170.710183176,154.606299213 C170.375370645,154.281392293 169.891365324,153.9949215 169.481235295,153.779527559
C168.907831997,153.478385025 168.242510684,153.19414258 167.641984813,152.952755906 C166.942594178,152.671629665 166.179035811,152.388386405 165.472440945,152.125984252 C164.765846079,151.863582099 164.002287712,151.580338839 163.302897076,151.299212598
C162.702371206,151.057825923 162.037049893,150.773583479 161.463646595,150.472440945 C161.053516566,150.257047003 160.569511244,149.970576211 160.234698713,149.645669291 C160.010735017,149.428331684 159.803149606,149.146781856 159.803149606,148.818897638
C159.803149606,148.491013419 160.010735017,148.209463592 160.234698713,147.992125984 C160.569511244,147.667219065 161.053516566,147.380748272 161.463646595,147.165354331 C162.037049893,146.864211796 162.702371206,146.579969352 163.302897076,146.338582677
C164.002287712,146.057456437 164.765846079,145.774213177 165.472440945,145.511811024 C166.179035811,145.24940887 166.942594178,144.96616561 167.641984813,144.68503937 C168.242510684,144.443652695 168.907831997,144.159410251 169.481235295,143.858267717
C169.891365324,143.642873775 170.375370645,143.356402982 170.710183176,143.031496063 C170.934146873,142.814158455 171.141732283,142.532608628 171.141732283,142.204724409 C171.141732283,141.876840191 170.934146873,141.595290364 170.710183176,141.377952756
C170.375370645,141.053045837 169.891365324,140.766575044 169.481235295,140.551181102 C168.907831997,140.250038568 168.242510684,139.965796124 167.641984813,139.724409449 C166.942594178,139.443283209 166.179035811,139.160039949 165.472440945,138.897637795
C164.765846079,138.635235642 164.002287712,138.351992382 163.302897076,138.070866142 C162.702371206,137.829479467 162.037049893,137.545237023 161.463646595,137.244094488 C161.053516566,137.028700547 160.569511244,136.742229754 160.234698713,136.417322835
C160.010735017,136.199985227 159.803149606,135.9184354 159.803149606,135.590551181 C159.803149606,135.262666963 160.010735017,134.981117135 160.234698713,134.763779528 C160.569511244,134.438872608 161.053516566,134.152401815 161.463646595,133.937007874
C162.037049893,133.63586534 162.702371206,133.351622895 163.302897076,133.11023622 C164.002287712,132.82910998 164.765846079,132.54586672 165.472440945,132.283464567 C166.179035811,132.021062414 166.942594178,131.737819153 167.641984813,131.456692913
C168.242510684,131.215306238 168.907831997,130.931063794 169.481235295,130.62992126 C169.891365324,130.414527318 170.375370645,130.128056526 170.710183176,129.803149606 C170.934146873,129.585811998 171.141732283,129.304262171 171.141732283,128.976377953
C171.141732283,128.648493734 170.934146873,128.366943907 170.710183176,128.149606299 C170.375370645,127.82469938 169.891365324,127.538228587 169.481235295,127.322834646 C168.907831997,127.021692111 168.242510684,126.737449667 167.641984813,126.496062992
C166.942594178,126.214936752 166.179035811,125.931693492 165.472440945,125.669291339 C164.765846079,125.406889185 164.002287712,125.123645925 163.302897076,124.842519685 C162.702371206,124.60113301 162.037049893,124.316890566 161.463646595,124.015748031
C161.053516566,123.80035409 160.569511244,123.513883297 160.234698713,123.188976378 C160.010735017,122.97163877 159.803149606,122.690088943 159.803149606,122.362204724 C159.803149606,122.034320506 160.010735017,121.752770679 160.234698713,121.535433071
C160.569511244,121.210526152 161.053516566,120.924055359 161.463646595,120.708661417 C162.037049893,120.407518883 162.702371206,120.123276439 163.302897076,119.881889764 C164.002287712,119.600763524 164.765846079,119.317520263 165.472440945,119.05511811"/>
      <line
          style="fill:none;stroke-linecap:round;stroke-width:2.125984251969"
          id="4217A3ED"
          x1="142.795275591"
          y1="79.3700787402"
          x2="165.472440945"
          y2="119.05511811"/>
      <line
          style="fill:none;stroke-linecap:round;stroke-width:2.125984251969;marker-start:url(#2E2418ED_start_arrow)"
          id="2E2418ED"
          x1="165.472440945"
          y1="119.05511811"
          x2="278.858267717"
          y2="90.7086614173"/>
      <line
          style="fill:none;stroke-linecap:round;stroke-linejoin:round;stroke-width:1.417322834646"
          id="AC2CB8ED"
          x1="52.0866141732"
          y1="226.771653543"
          x2="165.472440945"
          y2="198.42519685"/>
      <line
          style="fill:none;stroke-linecap:round;stroke-linejoin:bevel;stroke-width:1.417322834646"
          id="DF6619ED"
          x1="165.472440945"
          y1="198.42519685"
          x2="278.858267717"
          y2="226.771653543"/>
      <text
          id="2F5BA32E"
          style="stroke:none"
          font-family="Cambria Math"
          font-size="24"
          font-weight="normal"
          font-style="normal">
         <tspan x="11.7322834646" y="68.3543307087">𝝁</tspan>
      </text>
      <text
          id="A323762E"
          style="stroke:none"
          font-family="Cambria Math"
          font-size="24"
          font-weight="normal"
          font-style="normal">
         <tspan x="96.7716535433" y="30">𝝁</tspan>
         <tspan font-family="Helvetica">	</tspan>
      </text>
      <text
          id="1CFBB62E"
          style="stroke:none"
          font-family="Helvetica"
          font-size="24"
          font-weight="normal"
          font-style="normal">
         <tspan x="23.0708661417" y="238.433070866">n</tspan>
      </text>
      <text
          id="416EE72E"
          style="stroke:none"
          font-family="Avenir Next"
          font-size="24"
          font-weight="normal"
          font-style="normal">
         <tspan x="289.527559055" y="239.433070866">n&apos;</tspan>
      </text>
      <text
          id="2B09F92E"
          style="fill:#4C4C4C;stroke:none"
          font-family="Avenir Next"
          font-size="9"
          font-weight="normal"
          font-style="normal">
         <tspan x="193.149606299" y="264.118110236">© J. A. Aguilar 2018</tspan>
      </text>
      <line
          style="fill:none;stroke-linecap:round;stroke-linejoin:round;stroke-width:1.417322834646"
          id="56C61A5E"
          x1="52.0866141732"
          y1="232.440944882"
          x2="165.472440945"
          y2="204.094488189"/>
      <line
          style="fill:none;stroke-linecap:round;stroke-linejoin:bevel;stroke-width:1.417322834646"
          id="76C61A5E"
          x1="165.472440945"
          y1="204.094488189"
          x2="278.858267717"
          y2="232.440944882"/>
      <line
          style="fill:none;stroke-linecap:round;stroke-linejoin:round;stroke-width:1.417322834646"
          id="3DF84A5E"
          x1="52.0866141732"
          y1="238.110236221"
          x2="165.472440945"
          y2="209.763779528"/>
      <line
          style="fill:none;stroke-linecap:round;stroke-linejoin:bevel;stroke-width:1.417322834646"
          id="4DF84A5E"
          x1="165.472440945"
          y1="209.763779528"
          x2="278.858267717"
          y2="238.110236221"/>
      <path
          style="fill:none;stroke:#0000FF;stroke-linecap:round"
          id="5456636E"
          d="M278.858267717,221.102362205 C280.144055802,221.102362205 281.429843887,221.102362205 282.715631972,221.102362205 C283.11023622,221.102362205 283.11023622,221.496966453 283.11023622,221.496966453 C283.11023622,223.727636428 283.11023622,223.727636428 283.11023622,228.188976378
C283.11023622,228.188976378 283.11023622,232.440944882 287.362204724,232.440944882 C283.11023622,232.440944882 283.11023622,236.692913386 283.11023622,236.692913386 C283.11023622,238.923583361 283.11023622,238.923583361 283.11023622,243.38492331
C283.11023622,243.38492331 283.11023622,243.779527559 282.715631972,243.779527559 C281.429843887,243.779527559 280.144055802,243.779527559 278.858267717,243.779527559"/>
      <path
          style="fill:none;stroke:#0000FF;stroke-linecap:round"
          id="FE79F56E"
          d="M49.2519685039,221.102362205 C48.1181102362,221.102362205 46.9842519685,221.102362205 45.8503937008,221.102362205 C45,221.102362205 45,221.952755906 45,221.952755906 C45,224.031496063 45,224.031496063 45,228.188976378
C45,228.188976378 45,232.440944882 40.7480314961,232.440944882 C45,232.440944882 45,236.692913386 45,236.692913386 C45,238.771653543 45,238.771653543 45,242.929133858 C45,242.929133858 45,243.779527559 45.8503937008,243.779527559
C46.9842519685,243.779527559 48.1181102362,243.779527559 49.2519685039,243.779527559"/>
      <line
          style="fill:none;stroke-linecap:round;stroke-width:2.125984251969;marker-end:url(#4CC5C51F_end_arrow)"
          id="4CC5C51F"
          x1="142.795275591"
          y1="79.3700787402"
          x2="216.496062992"
          y2="17.0078740157"/>
      <path
          style="fill:none;stroke:#0F80FF"
          id="8799361F"
          d="M63.4251968504,79.3700776285 C63.6900776291,80.0833469214 63.9764679248,80.8554245375 64.2606713634,81.5612540214 C64.5038145316,82.1651088434 64.7912597153,82.8361644366 65.0961458765,83.4118767054 C65.3124245944,83.8202727798 65.6021975056,84.3050438442 65.9316203896,84.6343209962
C66.1534649091,84.856067375 66.4373507713,85.053275037 66.7670949026,85.0385940031 C67.1011316963,85.0237218491 67.3866488792,84.7954209714 67.6025694157,84.5618634172 C67.9298972359,84.207798508 68.2194675386,83.7046059432 68.4380439287,83.2782229397
C68.7410644957,82.6871123473 69.0283697968,82.0041150611 69.2735184418,81.3871766028 C69.5561104318,80.6760086229 69.8424654938,79.8999428245 70.1089929548,79.1826317548 C70.3722107248,78.4742281278 70.6586433562,77.7068506857 70.9444674679,77.0072198364
C71.1855599995,76.4170814757 71.473156142,75.7585541735 71.7799419809,75.1990444338 C71.9939998677,74.8086500372 72.2839528717,74.3428662037 72.615416494,74.0391330544 C72.844832687,73.8289099767 73.1269350375,73.6645054734 73.4508910071,73.707759693
C73.7878852116,73.7527547623 74.0747976171,74.0104523417 74.2863655201,74.2564265599 C74.6115701463,74.6345177189 74.9009254274,75.155592319 75.1218400332,75.5998595818 C75.4230275352,76.2055585426 75.7102036809,76.8998973722 75.9573145462,77.52926174
C76.2383021316,78.2449064116 76.5246288964,79.0242431875 76.7927890593,79.7447644057 C77.0543251087,80.4474872521 77.3408073756,81.2094586723 77.6282635723,81.9020330689 C77.8672592678,82.4778505377 78.1550175733,83.1232759566 78.4637380854,83.6657839767
C78.67569995,84.038260074 78.965797132,84.4844527487 79.2992125984,84.7618940987 C79.5378089499,84.9604346601 79.8181139,85.090401576 80.1346871115,85.0200054627 C80.4734920987,84.9446656885 80.7615283561,84.6591866695 80.9701616245,84.4000022739
C81.2932345264,83.9986499132 81.5823698535,83.4602161975 81.8056361376,82.9982457319 C82.1050213182,82.3787741809 82.3920786482,81.6737072886 82.6411106507,81.0325975252 C82.9204986993,80.31333894 83.2068039705,79.5314526599 83.4765851637,78.8085596614
C83.7364183546,78.1123228621 84.0229577869,77.3564562537 84.3120596768,76.6717931952 C84.54893038,76.1108261943 84.8368562779,75.479085844 85.1475341898,74.9543954179 C85.3575873651,74.5996457372 85.6477753802,74.173700673 85.9830087029,73.9232851336
C86.2322560231,73.7371001755 86.5109293993,73.6430760591 86.8184832159,73.738718008 C87.1581451151,73.8443448098 87.4470348665,74.1561152929 87.653957729,74.4293795542 C87.9749048222,74.8532252777 88.2638207,75.4085039601 88.489432242,75.8879268163
C88.7870438963,76.5203493776 89.0739923459,77.2355178963 89.3249067551,77.8876716639 C89.6033982594,78.6115012933 89.8882881411,79.3915228485 90.1603812681,80.117812773 C90.4184879962,80.8067692271 90.7050923861,81.5558401842 90.9958557812,82.2317405195
C91.2305562722,82.7773186192 91.5186607098,83.3948241272 91.8313302943,83.9009072171 C92.0397424254,84.2382404932 92.3299457591,84.6432122568 92.6668048073,84.8658901597 C92.9277829814,85.0384076348 93.2052068414,85.095315457 93.5022793204,84.9767112254
C93.8420255236,84.8410697903 94.1315222552,84.5043506436 94.3377538334,84.21614655 C94.6565914761,83.7705779587 94.9452922791,83.1989658077 95.1732283465,82.7024034681 C95.4690932103,82.0578571673 95.7559423101,81.3332259151 96.0087028595,80.6707486711
C96.2871943639,79.9408314245 96.5688834304,79.1681422378 96.8441773726,78.4369429432 C97.1005315308,77.7560489934 97.3872089641,77.0144557108 97.6796518856,76.3481654654 C97.9121379491,75.8184785254 98.2004315671,75.21574591 98.5151263987,74.7290550568
C98.7222665742,74.408702707 99.0123822955,74.0255179207 99.3506009117,73.8312546506 C99.6238488651,73.6743087038 99.9005935781,73.6552500512 100.186075425,73.7943008259 C100.525294576,73.9595256426 100.815187083,74.3200019221 101.021549938,74.6239369641
C101.338301837,75.0904550391 101.626794622,75.677887069 101.857024451,76.1912206103 C102.151167129,76.8470578817 102.437926015,77.5805011156 102.692498964,78.2525637719 C102.970990468,78.9877704819 103.249481973,79.7523847748 103.527973477,80.4875914847
C103.782546426,81.159654141 104.069305312,81.893097375 104.36344799,82.5489346464 C104.593677819,83.0622681876 104.882170604,83.6497002175 105.198922503,84.1162182925 C105.405285358,84.4201533345 105.695177865,84.7806296141 106.034397016,84.9458544308
C106.319878863,85.0849052055 106.596623576,85.0658465528 106.869871529,84.908900606 C107.208090145,84.7146373359 107.498205867,84.3314525496 107.705346042,84.0111001998 C108.020040874,83.5244093466 108.308334492,82.9216767312 108.540820555,82.3919897912
C108.833263477,81.7256995458 109.11994091,80.9841062632 109.376295068,80.3032123134 C109.654786573,79.5635200778 109.930080515,78.8077045395 110.211769581,78.0694065856 C110.464530131,77.4069293415 110.751379231,76.6822980893 111.047244095,76.0377517886
C111.275180162,75.5411894489 111.563880965,74.969577298 111.882718608,74.5240087066 C112.088950186,74.235804613 112.378446917,73.8990854663 112.718193121,73.7634440312 C113.0152656,73.6448397996 113.29268946,73.7017476218 113.553667634,73.874265097
C113.890526682,74.0969429998 114.180730016,74.5019147634 114.389142147,74.8392480396 C114.701811731,75.3453311295 114.989916169,75.9628366374 115.22461666,76.5084147372 C115.515380055,77.1843150724 115.801984445,77.9333860295 116.060091173,78.6223424836
C116.338582677,79.3657114023 116.610675804,80.1120238867 116.895565686,80.8524835927 C117.146480095,81.5046373603 117.433428545,82.2198058791 117.731040199,82.8522284404 C117.956651741,83.3316512965 118.245567619,83.8869299789 118.566514712,84.3107757024
C118.773437574,84.5840399637 119.062327326,84.8958104468 119.401989225,85.0014372486 C119.709543042,85.0970791975 119.988216418,85.0030550811 120.237463738,84.816870123 C120.572697061,84.5664545836 120.862885076,84.1405095194 121.072938251,83.7857598387
C121.383616163,83.2610694126 121.671542061,82.6293290623 121.908412764,82.0683620614 C122.197514654,81.383699003 122.484054086,80.6278323945 122.743887277,79.9315955952 C123.01366847,79.2087025967 123.299973742,78.4268163166 123.57936179,77.7075577314
C123.828393793,77.066447968 124.115451123,76.3613810757 124.414836303,75.7419095247 C124.638102587,75.2799390591 124.927237915,74.7415053434 125.250310816,74.3401529827 C125.458944085,74.0809685871 125.746980342,73.7954895681 126.085785329,73.7201497939
C126.402358541,73.6497536807 126.682663491,73.7797205966 126.921259843,73.9782611579 C127.254675309,74.2557025079 127.544772491,74.7018951827 127.756734356,75.07437128 C128.065454868,75.6168793 128.353213173,76.262304719 128.592208869,76.8381221878
C128.879665065,77.5306965843 129.166147332,78.2926680046 129.427683382,78.9953908509 C129.695843545,79.7159120691 129.982170309,80.495248845 130.263157895,81.2108935166 C130.51026876,81.8402578845 130.797444906,82.534596714 131.098632408,83.1402956748
C131.319547014,83.5845629376 131.608902295,84.1056375377 131.934106921,84.4837286967 C132.145674824,84.7297029149 132.432587229,84.9874004943 132.769581434,85.0323955636 C133.093537403,85.0756497832 133.375639754,84.9112452799 133.605055947,84.7010222023
C133.936519569,84.3972890529 134.226472573,83.9315052194 134.44053046,83.5411108228 C134.747316299,82.9816010832 135.034912441,82.3230737809 135.276004973,81.7329354203 C135.561829085,81.0333045709 135.848261716,80.2659271289 136.111479486,79.5575235018
C136.378006947,78.8402124321 136.664362009,78.0641466337 136.946953999,77.3529786538 C137.192102644,76.7360401955 137.479407945,76.0530429093 137.782428512,75.4619323169 C138.001004902,75.0355493134 138.290575205,74.5323567486 138.617903025,74.1782918395
C138.833823562,73.9447342852 139.119340745,73.7164334075 139.453377538,73.7015612535 C139.78312167,73.6868802196 140.067007532,73.8840878816 140.288852051,74.1058342604 C140.618274935,74.4351114124 140.908047847,74.9198824768 141.124326564,75.3282785512
C141.429212726,75.90399082 141.716657909,76.5750464133 141.959801078,77.1789012353 C142.244004516,77.8847307191 142.530394812,78.6568083352 142.795275591,79.3700776281"/>
      <line
          style="fill:none;stroke-linecap:round;stroke-width:2.125984251969;marker-end:url(#E1FF471F_end_arrow)"
          id="E1FF471F"
          x1="63.4251968504"
          y1="79.3700787406"
          x2="137.125984251"
          y2="17.0078740157"/>
      <line
          style="fill:none;stroke-linecap:round;stroke-width:2.125984251969;marker-end:url(#3F30A71F_end_arrow)"
          id="3F30A71F"
          x1="1.062992125984"
          y1="79.3700787402"
          x2="63.4251968498"
          y2="79.3700787402"/>
      <text
          id="1021C02F"
          style="stroke:none"
          font-family="Avenir Next"
          font-size="24"
          font-weight="normal"
          font-style="normal">
         <tspan x="198.818897638" y="46.0078740157">e</tspan>
         <tspan font-family="Helvetica">-</tspan>
      </text>
      <text
          id="4904412F"
          style="stroke:none"
          font-family="Avenir Next"
          font-size="24"
          font-weight="normal"
          font-style="normal">
         <tspan x="244.173228346" y="120.377952756">e</tspan>
         <tspan font-family="Helvetica" font-size="18">+</tspan>
      </text>
   </g>
</svg>
