<?xml version="1.0" encoding="UTF-8"?>
<!-- Created with EazyDraw for Mac ( http://www.eazydraw.com/ ) -->

<svg
    version="1.1"
    xmlns:dc="http://purl.org/dc/elements/1.1/"
    xmlns:cc="http://creativecommons.org/ns#"
    xmlns:rdf="http://www.w3.org/1999/02/22-rdf-syntax-ns#"
    xmlns:svg="http://www.w3.org/2000/svg"
    xmlns:xlink="http://www.w3.org/1999/xlink"
    xmlns="http://www.w3.org/2000/svg"
    width="594.093515959"
    height="226.771653543"
    viewBox="0, 0, 594.093515959, 226.771653543"
    preserveAspectRatio="none"
    id="svg2">
   <defs
       id="defs_3C820FAD">
      <marker
          orient="auto"
          refX="0.0"
          refY="0.0"
          id="99EA958D_start_arrow"
          style="overflow:visible"
          markerUnits="userSpaceOnUse">
         <path
             id="99EA958D_start_arrow_path"
             style="fill:#0F80FF;fill-opacity:1;stroke:#0F80FF;stroke-opacity:1;fill-rule:nonzero;stroke-linecap:round;stroke-linejoin:miter;stroke-width:0.5;stroke-miterlimit:10"
             d="M-7.213541541513,0 L0.303999424774,-2.736161146605 L0.303999424774,2.736161146605 z"/>
      </marker>
      <marker
          orient="auto"
          refX="0.0"
          refY="0.0"
          id="12FA9C5D_end_arrow"
          style="overflow:visible"
          markerUnits="userSpaceOnUse">
         <path
             id="12FA9C5D_end_arrow_path"
             style="fill:#606060;fill-opacity:1;stroke:#606060;stroke-opacity:1;fill-rule:nonzero;stroke-linecap:round;stroke-linejoin:miter;stroke-width:0.531496062992;stroke-miterlimit:10"
             d="M8.444882115041,0 L0.453795261114,2.908517754266 L0.453795261114,2.908517754266 C-0.230004944149,1.029792130889 -0.230004944149,-1.029792130889 0.453795261114,-2.908517754266 z"/>
      </marker>
      <marker
          orient="auto"
          refX="0.0"
          refY="0.0"
          id="1BF7523E_end_arrow"
          style="overflow:visible"
          markerUnits="userSpaceOnUse">
         <path
             id="1BF7523E_end_arrow_path"
             style="fill:#606060;fill-opacity:1;stroke:#606060;stroke-opacity:1;fill-rule:nonzero;stroke-linecap:round;stroke-linejoin:miter;stroke-width:0.531496062992;stroke-miterlimit:10"
             d="M8.444882115041,0 L0.453795261114,2.908517754266 L0.453795261114,2.908517754266 C-0.230004944148,1.029792130889 -0.230004944148,-1.029792130889 0.453795261114,-2.908517754266 z"/>
      </marker>
      <marker
          orient="auto"
          refX="0.0"
          refY="0.0"
          id="4398B66D_end_arrow"
          style="overflow:visible"
          markerUnits="userSpaceOnUse">
         <path
             id="4398B66D_end_arrow_path"
             style="fill:#000000;fill-opacity:1;stroke:#000000;stroke-opacity:1;fill-rule:nonzero;stroke-linecap:square;stroke-linejoin:miter;stroke-width:0.25;stroke-miterlimit:10"
             d="M5.303819536224,0 L-2.213721430063,2.736161146605 L-2.213721430063,-2.736161146605 z"/>
      </marker>
      <marker
          orient="auto"
          refX="0.0"
          refY="0.0"
          id="F04F786D_end_arrow"
          style="overflow:visible"
          markerUnits="userSpaceOnUse">
         <path
             id="F04F786D_end_arrow_path"
             style="fill:#000000;fill-opacity:1;stroke:#000000;stroke-opacity:1;fill-rule:nonzero;stroke-linecap:square;stroke-linejoin:miter;stroke-width:0.25;stroke-miterlimit:10"
             d="M4.010416616605,0 L-3.507124349682,2.736161146605 L-3.507124349682,-2.736161146605 z"/>
      </marker>
      <marker
          orient="auto"
          refX="0.0"
          refY="0.0"
          id="FA13C86D_end_arrow"
          style="overflow:visible"
          markerUnits="userSpaceOnUse">
         <path
             id="FA13C86D_end_arrow_path"
             style="fill:#000000;fill-opacity:1;stroke:#000000;stroke-opacity:1;fill-rule:nonzero;stroke-linecap:square;stroke-linejoin:miter;stroke-width:0.25;stroke-miterlimit:10"
             d="M5.711805238498,0 L-1.805735727789,2.736161146605 L-1.805735727789,-2.736161146605 z"/>
      </marker>
      <marker
          orient="auto"
          refX="0.0"
          refY="0.0"
          id="F35D597D_start_arrow"
          style="overflow:visible"
          markerUnits="userSpaceOnUse">
         <path
             id="F35D597D_start_arrow_path"
             style="fill:#0F80FF;fill-opacity:1;stroke:#0F80FF;stroke-opacity:1;fill-rule:nonzero;stroke-linecap:round;stroke-linejoin:miter;stroke-width:0.5;stroke-miterlimit:10"
             d="M-7.213541541513,0 L0.303999424775,-2.736161146605 L0.303999424775,2.736161146605 z"/>
      </marker>
      <marker
          orient="auto"
          refX="0.0"
          refY="0.0"
          id="61E0776D_end_arrow"
          style="overflow:visible"
          markerUnits="userSpaceOnUse">
         <path
             id="61E0776D_end_arrow_path"
             style="fill:#000000;fill-opacity:1;stroke:#000000;stroke-opacity:1;fill-rule:nonzero;stroke-linecap:square;stroke-linejoin:miter;stroke-width:0.25;stroke-miterlimit:10"
             d="M5.359251968504,0 L-2.158288997783,2.736161146605 L-2.158288997783,-2.736161146605 z"/>
      </marker>
      <marker
          orient="auto"
          refX="0.0"
          refY="0.0"
          id="4C8D069D_end_arrow"
          style="overflow:visible"
          markerUnits="userSpaceOnUse">
         <path
             id="4C8D069D_end_arrow_path"
             style="fill:#0F80FF;fill-opacity:1;stroke:#0F80FF;stroke-opacity:1;fill-rule:nonzero;stroke-linecap:round;stroke-linejoin:miter;stroke-width:0.531496062992;stroke-miterlimit:10"
             d="M8.444882115041,0 L0.453795261114,2.908517754266 L0.453795261114,2.908517754266 C-0.230004944149,1.029792130889 -0.230004944149,-1.029792130889 0.453795261114,-2.908517754266 z"/>
      </marker>
      <marker
          orient="auto"
          refX="0.0"
          refY="0.0"
          id="4217A3ED_end_arrow"
          style="overflow:visible"
          markerUnits="userSpaceOnUse">
         <path
             id="4217A3ED_end_arrow_path"
             style="fill:#000000;fill-opacity:1;stroke:#000000;stroke-opacity:1;fill-rule:nonzero;stroke-linecap:round;stroke-linejoin:miter;stroke-width:1;stroke-miterlimit:10"
             d="M10.7421878004,0 L-3.353201511419,5.130302149885 L-3.353201511419,5.130302149885 C-4.559349095701,1.816438897541 -4.559349095701,-1.816438897541 -3.353201511419,-5.130302149885 z"/>
      </marker>
   </defs>
   <metadata
       id="metadata7">
      <rdf:RDF>
         <cc:Work
             rdf:about="">
            <dc:format>image/svg+xml</dc:format>
            <dc:type rdf:resource="http://purl.org/dc/dcmitype/StillImage"/>
            <dc:title></dc:title>
         </cc:Work>
      </rdf:RDF>
   </metadata>
   <g
       id="layer_Paper"
       style="fill:#000000;fill-opacity:1;stroke:#000000;stroke-opacity:1;fill-rule:nonzero;stroke-linecap:square;stroke-linejoin:miter;stroke-width:1;stroke-miterlimit:10">
      <circle
          style="fill:#FFFF66;stroke:none"
          id="89862BAD"
          cx="467.906987004"
          cy="102.445759411"
          r="17.1012299383"/>
      <circle
          style="fill:#FFFF66;stroke:none"
          id="96FE55AD"
          cx="300.565796867"
          cy="102.140600017"
          r="30.6841511591"/>
      <path
          style="fill:none;stroke:#0F80FF;stroke-linecap:round;stroke-width:2;marker-start:url(#99EA958D_start_arrow)"
          id="99EA958D"
          d="M310.712569089,51.0236220472 C305.417958987,56.4738362946 303.272375142,55.4233393757 301.489235578,54.8234463333 C300.269628419,54.2786420331 299.543731104,53.9486972585 298.848136214,53.711820031 C298.299637686,53.5250348595 297.679418296,53.3643631814 297.096395272,53.3526347756
C296.628768023,53.3432277335 296.170947875,53.4285721478 295.773187889,53.6866593086 C295.37231319,53.9467674553 295.102145515,54.3371747558 294.912069906,54.7681746474 C294.672827384,55.3106614051 294.54727227,55.9505472895 294.474963618,56.5355850619
C294.383786731,57.2732827117 294.359537984,58.0783121675 294.358060618,58.8209667039 C294.356402393,59.6545373508 294.384069934,60.5429597482 294.407914276,61.3760993245 C294.431558221,62.2022369192 294.455329878,63.0844093402 294.445227181,63.9109456172
C294.43637871,64.6348693067 294.400977733,65.4219277972 294.292646003,66.1386130818 C294.207731898,66.700375457 294.064907867,67.3114478564 293.802254979,67.819828377 C293.588985584,68.2326241639 293.295372805,68.5819524548 292.878505951,68.8000297053
C292.450819343,69.0237671375 291.967150503,69.070559644 291.493030339,69.0333271325 C290.890681428,68.9860248567 290.252960953,68.7977689442 289.689036867,68.5896164894 C288.982930989,68.3289826993 288.246444961,67.9818292015 287.5746133,67.6437440529
C286.834460156,67.271277555 286.036098889,66.839265519 285.305970577,66.4484017063 C284.581292618,66.0604556621 283.805267964,65.6488851831 283.063226841,65.2949544001 C282.419178414,64.9877631182 281.705601639,64.6778076608 281.022485346,64.4682724751
C280.489856351,64.3048969027 279.889453693,64.1751728287 279.328534768,64.2025707864 C278.866808609,64.2251236959 278.437310859,64.3531426742 278.072403914,64.6451004905 C277.69127342,64.9500385807 277.445046699,65.382657851 277.277250359,65.8333220283
C277.062436985,66.4102636485 276.954426426,67.0791699496 276.894770528,67.6890979715 C276.820627537,68.4471435135 276.807244249,69.269656297 276.812687768,70.0308059621 C276.818655747,70.8652892008 276.849466251,71.7675122698 276.872157579,72.6014939862
C276.894378057,73.4181703492 276.912842447,74.291828402 276.892391849,75.1087133237 C276.874801638,75.8113420373 276.826517057,76.5775987489 276.698684792,77.2698542317 C276.599458865,77.8071966013 276.437366287,78.3857879467 276.149496018,78.8559563798
C275.908977078,79.2487875455 275.589297769,79.5531646084 275.158392255,79.7272025029 C274.700188918,79.9122656812 274.190063322,79.9196619137 273.707446318,79.8545930079 C273.085928295,79.7707967524 272.430653482,79.5546586104 271.850016204,79.3244415192
C271.133982723,79.0405411367 270.387257495,78.6767260473 269.702473479,78.324994457 C268.95534129,77.941238431 268.167443693,77.5120412364 267.426163244,77.1172488951 C266.709942572,76.7358029305 265.939745239,76.3337368918 265.202392268,75.9944925425
C264.573846645,75.7053087194 263.87364405,75.4170013817 263.204322632,75.2368379984 C262.686628142,75.0974885198 262.107311669,75.0003391263 261.570127974,75.0677994268 C261.114105265,75.125067414 260.713279195,75.2971603983 260.381573685,75.6196431741
C260.022463629,75.9687685411 259.799136486,76.4416699386 259.651341553,76.9128837126 C259.460204411,77.522285217 259.368833981,78.218514927 259.321063823,78.853103467 C259.262629457,79.6293575298 259.259028066,80.4675926762 259.270371419,81.2455895179
C259.282688093,82.0903426118 259.31500925,82.9809124302 259.335553682,83.8255181875 C259.355139885,84.6307300391 259.367121871,85.4939864154 259.334936945,86.2990082618 C259.307744963,86.979144689 259.245578532,87.7229273423 259.09704777,88.3886787408
C258.982453559,88.9023181744 258.800200948,89.446521057 258.487194919,89.8766487094 C258.21699951,90.2479467231 257.870194751,90.5067278646 257.428349324,90.6383134478 C256.941328533,90.7833526647 256.406093892,90.7531583702 255.913085205,90.6616607749
C255.27383075,90.5430213937 254.602102869,90.3005745043 254.004731226,90.0491331894 C253.280095509,89.7441248082 252.524231491,89.3654246735 251.827553219,89.0017471337 C251.074707998,88.6087495215 250.298535236,88.184431254 249.547490376,87.7879312307
C248.840957004,87.4149302115 248.077741851,87.0242489666 247.346431198,86.7019142194 C246.733998267,86.4319763851 246.048217514,86.1669405987 245.394016961,86.018113331 C244.889967766,85.9034447267 244.333081683,85.8405454859 243.82134376,85.9485938643
C243.371882061,86.0434932367 242.999586462,86.2606977364 242.70063987,86.6101946177 C242.365183669,87.0023746887 242.163776032,87.5135177509 242.034068844,88.0064154265 C241.865699423,88.6462326727 241.790041658,89.3680995722 241.75339412,90.0268746139
C241.709318542,90.8191758829 241.714388541,91.6713374163 241.730557118,92.4644204664 C241.74794638,93.3173791422 241.780526091,94.1942836663 241.797529006,95.0472440919 C241.813313036,95.8390584699 241.817656964,96.6900542636 241.772358689,97.4810154977
C241.734752388,98.1376658214 241.657734204,98.8573181814 241.487379047,99.4945109101 C241.356130107,99.9854315976 241.152810032,100.493254387 240.815198853,100.881658147 C240.51337632,101.228888968 240.1385593,101.442048395 239.688451084,101.533482125
C239.174377454,101.63790961 238.615438913,101.571892827 238.11023622,101.454998284"/>
      <path
          style="fill:none;stroke:#0F80FF;stroke-linecap:round;stroke-width:2;marker-start:url(#99EA958D_start_arrow)"
          id="0011F08D"
          d="M197.326742317,51.0236220472 C192.032132215,56.4738362946 189.886548371,55.4233393757 188.103408806,54.8234463333 C186.883801648,54.2786420331 186.157904333,53.9486972585 185.462309443,53.711820031 C184.913810914,53.5250348595 184.293591524,53.3643631814 183.710568501,53.3526347756
C183.242941251,53.3432277335 182.785121103,53.4285721478 182.387361117,53.6866593086 C181.986486418,53.9467674553 181.716318743,54.3371747558 181.526243134,54.7681746474 C181.287000612,55.3106614051 181.161445499,55.9505472895 181.089136846,56.5355850619
C180.997959959,57.2732827117 180.973711212,58.0783121675 180.972233847,58.8209667039 C180.970575622,59.6545373508 180.998243163,60.5429597482 181.022087504,61.3760993245 C181.045731449,62.2022369192 181.069503107,63.0844093402 181.059400409,63.9109456172
C181.050551938,64.6348693067 181.015150962,65.4219277972 180.906819232,66.1386130818 C180.821905126,66.700375457 180.679081096,67.3114478564 180.416428207,67.819828377 C180.203158813,68.2326241639 179.909546033,68.5819524548 179.492679179,68.8000297053
C179.064992571,69.0237671375 178.581323732,69.070559644 178.107203568,69.0333271325 C177.504854656,68.9860248567 176.867134182,68.7977689442 176.303210096,68.5896164894 C175.597104217,68.3289826993 174.860618189,67.9818292015 174.188786529,67.6437440529
C173.448633384,67.271277555 172.650272117,66.839265519 171.920143806,66.4484017063 C171.195465846,66.0604556621 170.419441192,65.6488851831 169.677400069,65.2949544001 C169.033351642,64.9877631182 168.319774868,64.6778076608 167.636658575,64.4682724751
C167.10402958,64.3048969027 166.503626922,64.1751728287 165.942707996,64.2025707864 C165.480981838,64.2251236959 165.051484088,64.3531426742 164.686577143,64.6451004905 C164.305446648,64.9500385807 164.059219928,65.382657851 163.891423587,65.8333220283
C163.676610213,66.4102636485 163.568599655,67.0791699496 163.508943756,67.6890979715 C163.434800766,68.4471435135 163.421417477,69.269656297 163.426860996,70.0308059621 C163.432828975,70.8652892008 163.463639479,71.7675122698 163.486330808,72.6014939862
C163.508551285,73.4181703492 163.527015676,74.291828402 163.506565077,75.1087133237 C163.488974867,75.8113420373 163.440690285,76.5775987489 163.312858021,77.2698542317 C163.213632094,77.8071966013 163.051539516,78.3857879467 162.763669247,78.8559563798
C162.523150306,79.2487875455 162.203470997,79.5531646084 161.772565483,79.7272025029 C161.314362147,79.9122656812 160.80423655,79.9196619137 160.321619547,79.8545930079 C159.700101523,79.7707967524 159.044826711,79.5546586104 158.464189433,79.3244415192
C157.748155951,79.0405411367 157.001430724,78.6767260473 156.316646707,78.324994457 C155.569514519,77.941238431 154.781616922,77.5120412364 154.040336473,77.1172488951 C153.324115801,76.7358029305 152.553918468,76.3337368918 151.816565497,75.9944925425
C151.188019873,75.7053087194 150.487817279,75.4170013817 149.81849586,75.2368379984 C149.30080137,75.0974885198 148.721484897,75.0003391263 148.184301202,75.0677994268 C147.728278494,75.125067414 147.327452423,75.2971603983 146.995746914,75.6196431741
C146.636636858,75.9687685411 146.413309715,76.4416699386 146.265514782,76.9128837126 C146.074377639,77.522285217 145.983007209,78.218514927 145.935237051,78.853103467 C145.876802685,79.6293575298 145.873201294,80.4675926762 145.884544648,81.2455895179
C145.896861322,82.0903426118 145.929182478,82.9809124302 145.94972691,83.8255181875 C145.969313114,84.6307300391 145.9812951,85.4939864154 145.949110174,86.2990082618 C145.921918191,86.979144689 145.859751761,87.7229273423 145.711220999,88.3886787408
C145.596626787,88.9023181744 145.414374177,89.446521057 145.101368148,89.8766487094 C144.831172739,90.2479467231 144.484367979,90.5067278646 144.042522552,90.6383134478 C143.555501761,90.7833526647 143.02026712,90.7531583702 142.527258434,90.6616607749
C141.888003978,90.5430213937 141.216276097,90.3005745043 140.618904455,90.0491331894 C139.894268737,89.7441248082 139.13840472,89.3654246735 138.441726447,89.0017471337 C137.688881226,88.6087495215 136.912708465,88.184431254 136.161663604,87.7879312307
C135.455130232,87.4149302115 134.691915079,87.0242489666 133.960604426,86.7019142194 C133.348171496,86.4319763851 132.662390743,86.1669405987 132.008190189,86.018113331 C131.504140994,85.9034447267 130.947254912,85.8405454859 130.435516989,85.9485938643
C129.986055289,86.0434932367 129.613759691,86.2606977364 129.314813098,86.6101946177 C128.979356898,87.0023746887 128.777949261,87.5135177509 128.648242072,88.0064154265 C128.479872652,88.6462326727 128.404214886,89.3680995722 128.367567348,90.0268746139
C128.32349177,90.8191758829 128.328561769,91.6713374163 128.344730347,92.4644204664 C128.362119608,93.3173791422 128.39469932,94.1942836663 128.411702235,95.0472440919 C128.427486264,95.8390584699 128.431830192,96.6900542636 128.386531918,97.4810154977
C128.348925616,98.1376658214 128.271907432,98.8573181814 128.101552276,99.4945109101 C127.970303335,99.9854315976 127.76698326,100.493254387 127.429372082,100.881658147 C127.127549548,101.228888968 126.752732528,101.442048395 126.302624312,101.533482125
C125.788550682,101.63790961 125.229612141,101.571892827 124.724409449,101.454998284"/>
      <circle
          style="fill:#FFFF66;stroke:none"
          id="EB874B5D"
          cx="181.510678757"
          cy="102.140600017"
          r="17.1012299383"/>
      <circle
          style="stroke:none"
          id="331CAA4D"
          cx="45.4476866312"
          cy="102.140600017"
          r="17.1012299383"/>
      <text
          id="2F5BA32E"
          style="fill:#FFFFFF;stroke:none"
          font-family="Cambria Math"
          font-size="24"
          font-weight="normal"
          font-style="normal">
         <tspan x="39.0157480315" y="108.039370079">𝝁</tspan>
      </text>
      <g
          id="5064746D">
         <text
             id="90B8F23E"
             style="stroke:none"
             font-family="Times New Roman"
             font-size="24"
             font-weight="normal"
             font-style="normal"
             transform="matrix(0.724638223374,0,0,0.750197889705,54.6387147321,20.3580286419)">
            <tspan x="203.42519685" y="102.496623939">e</tspan>
         </text>
         <text
             id="4F3D4E9B"
             style="stroke:none"
             font-family="Times New Roman"
             font-size="12"
             font-weight="bold"
             font-style="normal"
             transform="matrix(0.724638223374,0,0,0.750197889705,57.1839983789,19.8268131635)">
            <tspan x="212.668613558" y="90.3700787401">_</tspan>
         </text>
      </g>
      <text
          id="1D84297C"
          style="fill:#A9A9A9;stroke:none"
          font-family="Helvetica Neue"
          font-size="9"
          font-weight="normal"
          font-style="normal">
         <tspan x="5" y="139.393700787">J. A. Aguilar 2018</tspan>
      </text>
      <text
          id="84B58B7C"
          style="stroke:none"
          font-family="Helvetica"
          font-size="13"
          font-weight="bold"
          font-style="normal">
         <tspan x="247.497122682" y="13.3737925262">EM </tspan>
         <tspan x="234.490775025" y="29.3737925262">shower</tspan>
      </text>
      <line
          style="fill:none;stroke:#606060;stroke-linecap:round;stroke-width:2.125984251969;marker-end:url(#12FA9C5D_end_arrow)"
          id="12FA9C5D"
          x1="175.748031496"
          y1="102.047244094"
          x2="198.42519685"
          y2="119.05511811"/>
      <text
          id="6158D26D"
          style="stroke:none"
          font-family="Helvetica"
          font-size="13"
          font-weight="bold"
          font-style="normal">
         <tspan x="504.757458785" y="13">hadronic </tspan>
         <tspan x="509.448376754" y="29">shower</tspan>
      </text>
      <text
          id="0689636D"
          style="stroke:none"
          font-family="Helvetica"
          font-size="13"
          font-weight="bold"
          font-style="normal">
         <tspan x="297.268452802" y="200.086614173">Cherenkov photos</tspan>
      </text>
      <line
          style="fill:none;stroke:#606060;stroke-linecap:round;stroke-width:2.125984251969;marker-end:url(#1BF7523E_end_arrow)"
          id="1BF7523E"
          x1="175.748031496"
          y1="102.047244094"
          x2="198.42519685"
          y2="85.0393700787"/>
      <path
          style="fill:none;marker-end:url(#4398B66D_end_arrow)"
          id="4398B66D"
          d="M234.962242254,33.8167505715 C222.595257576,45.281315151 205.489692471,61.1322151201 190.306523306,79.8197204866"/>
      <path
          style="fill:none;marker-end:url(#F04F786D_end_arrow)"
          id="F04F786D"
          d="M527.244094488,34.0157480315 C524.685393329,68.3112374115 510.244304366,88.4889875575 487.559055118,90.7086614175"/>
      <path
          style="fill:none;marker-end:url(#FA13C86D_end_arrow)"
          id="FA13C86D"
          d="M294.803149606,198.42519685 C274.644212079,195.250732614 237.685010759,185.816956348 204.094488189,164.409448819"/>
      <path
          style="fill:none;stroke:#0F80FF;stroke-linecap:round;stroke-width:2;marker-start:url(#F35D597D_start_arrow)"
          id="F35D597D"
          d="M146.30312027,51.0236220472 C141.008510168,56.4738362946 138.862926323,55.4233393757 137.079786759,54.8234463333 C135.8601796,54.2786420331 135.134282285,53.9486972585 134.438687395,53.711820031 C133.890188867,53.5250348595 133.269969477,53.3643631814 132.686946453,53.3526347756
C132.219319204,53.3432277335 131.761499056,53.4285721478 131.36373907,53.6866593086 C130.962864371,53.9467674553 130.692696696,54.3371747558 130.502621087,54.7681746474 C130.263378565,55.3106614051 130.137823451,55.9505472896 130.065514799,56.5355850619
C129.974337912,57.2732827117 129.950089165,58.0783121675 129.948611799,58.8209667039 C129.946953574,59.6545373509 129.974621115,60.5429597482 129.998465457,61.3760993245 C130.022109402,62.2022369192 130.045881059,63.0844093402 130.035778362,63.9109456172
C130.026929891,64.6348693067 129.991528914,65.4219277972 129.883197185,66.1386130818 C129.798283079,66.700375457 129.655459049,67.3114478564 129.39280616,67.819828377 C129.179536765,68.2326241639 128.885923986,68.5819524548 128.469057132,68.8000297053
C128.041370524,69.0237671374 127.557701684,69.070559644 127.08358152,69.0333271325 C126.481232609,68.9860248567 125.843512135,68.7977689442 125.279588048,68.5896164895 C124.57348217,68.3289826994 123.836996142,67.9818292015 123.165164481,67.6437440528
C122.425011337,67.271277555 121.62665007,66.839265519 120.896521758,66.4484017063 C120.171843799,66.0604556621 119.395819145,65.6488851831 118.653778022,65.2949544001 C118.009729595,64.9877631182 117.296152821,64.6778076608 116.613036528,64.4682724751
C116.080407532,64.3048969027 115.480004875,64.1751728288 114.919085949,64.2025707864 C114.457359791,64.2251236959 114.027862041,64.3531426741 113.662955095,64.6451004905 C113.281824601,64.9500385806 113.035597881,65.382657851 112.86780154,65.8333220283
C112.652988166,66.4102636485 112.544977608,67.0791699496 112.485321709,67.6890979715 C112.411178718,68.4471435135 112.39779543,69.269656297 112.403238949,70.0308059621 C112.409206928,70.8652892008 112.440017432,71.7675122698 112.462708761,72.6014939862
C112.484929238,73.4181703492 112.503393628,74.291828402 112.48294303,75.1087133237 C112.465352819,75.8113420373 112.417068238,76.5775987489 112.289235973,77.2698542316 C112.190010046,77.8071966013 112.027917468,78.3857879468 111.740047199,78.8559563798
C111.499528259,79.2487875455 111.17984895,79.5531646084 110.748943436,79.7272025029 C110.290740099,79.9122656812 109.780614503,79.9196619137 109.297997499,79.8545930079 C108.676479476,79.7707967524 108.021204663,79.5546586104 107.440567385,79.3244415192
C106.724533904,79.0405411367 105.977808676,78.6767260474 105.29302466,78.324994457 C104.545892471,77.941238431 103.757994874,77.5120412364 103.016714425,77.1172488951 C102.300493753,76.7358029305 101.53029642,76.3337368918 100.79294345,75.9944925425
C100.164397826,75.7053087194 99.4641952316,75.4170013817 98.7948738127,75.2368379984 C98.2771793231,75.0974885198 97.6978628501,75.0003391263 97.1606791552,75.0677994268 C96.7046564463,75.125067414 96.3038303757,75.2971603983 95.9721248664,75.6196431741
C95.6130148104,75.9687685411 95.3896876674,76.4416699386 95.2418927345,76.9128837127 C95.0507555917,77.522285217 94.9593851618,78.218514927 94.9116150039,78.853103467 C94.8531806377,79.6293575298 94.8495792471,80.4675926762 94.8609226007,81.2455895179
C94.8732392747,82.0903426118 94.9055604311,82.9809124302 94.9261048631,83.8255181875 C94.9456910664,84.6307300391 94.9576730523,85.4939864154 94.9254881267,86.2990082618 C94.8982961438,86.979144689 94.8361297134,87.7229273423 94.6875989514,88.3886787408
C94.5730047401,88.9023181744 94.3907521296,89.446521057 94.0777461003,89.8766487095 C93.8075506914,90.2479467231 93.4607459321,90.5067278646 93.0189005049,90.6383134477 C92.5318797141,90.7833526647 91.9966450727,90.7531583702 91.5036363866,90.6616607749
C90.8643819307,90.5430213937 90.1926540497,90.3005745043 89.5952824073,90.0491331894 C88.8706466899,89.7441248082 88.1147826726,89.3654246735 87.4181043996,89.0017471337 C86.6652591791,88.6087495215 85.8890864174,88.184431254 85.1380415569,87.7879312307
C84.4315081848,87.4149302114 83.6682930322,87.0242489667 82.9369823792,86.7019142194 C82.3245494484,86.4319763851 81.6387686954,86.1669405987 80.9845681419,86.018113331 C80.4805189472,85.9034447267 79.9236328646,85.8405454859 79.4118949413,85.9485938643
C78.9624332419,86.0434932367 78.5901376437,86.2606977364 78.2911910511,86.6101946177 C77.9557348506,87.0023746887 77.7543272134,87.5135177509 77.624620025,88.0064154265 C77.4562506044,88.6462326727 77.3805928392,89.3680995722 77.3439453012,90.0268746139
C77.2998697231,90.8191758829 77.3049397221,91.6713374163 77.3211082997,92.4644204664 C77.3384975611,93.3173791423 77.3710772724,94.1942836663 77.3880801874,95.0472440919 C77.4038642169,95.8390584699 77.4082081449,96.6900542636 77.3629098704,97.4810154977
C77.325303569,98.1376658215 77.2482853852,98.8573181814 77.0779302286,99.4945109101 C76.9466812881,99.9854315976 76.743361213,100.493254387 76.4057500345,100.881658147 C76.1039275011,101.228888968 75.7291104809,101.442048395 75.2790022648,101.533482125
C74.7649286349,101.63790961 74.2059900931,101.571892827 73.7007874015,102.047244094"/>
      <path
          style="fill:none;stroke:#0F80FF;stroke-linecap:round;stroke-width:2;marker-start:url(#99EA958D_start_arrow)"
          id="3059C58D"
          d="M424.098395861,51.0236220472 C418.803785758,56.4738362946 416.658201914,55.4233393757 414.875062349,54.8234463333 C413.655455191,54.2786420331 412.929557876,53.9486972585 412.233962986,53.711820031 C411.685464457,53.5250348595 411.065245067,53.3643631814 410.482222044,53.3526347756
C410.014594794,53.3432277335 409.556774647,53.4285721478 409.15901466,53.6866593086 C408.758139962,53.9467674553 408.487972287,54.3371747558 408.297896677,54.7681746474 C408.058654155,55.3106614051 407.933099042,55.9505472895 407.86079039,56.5355850619
C407.769613503,57.2732827117 407.745364755,58.0783121675 407.74388739,58.8209667039 C407.742229165,59.6545373508 407.769896706,60.5429597482 407.793741047,61.3760993245 C407.817384993,62.2022369192 407.84115665,63.0844093402 407.831053952,63.9109456172
C407.822205481,64.6348693067 407.786804505,65.4219277972 407.678472775,66.1386130818 C407.593558669,66.700375457 407.450734639,67.3114478564 407.18808175,67.819828377 C406.974812356,68.2326241639 406.681199577,68.5819524548 406.264332722,68.8000297053
C405.836646114,69.0237671375 405.352977275,69.070559644 404.878857111,69.0333271325 C404.2765082,68.9860248567 403.638787725,68.7977689442 403.074863639,68.5896164894 C402.36875776,68.3289826993 401.632271733,67.9818292015 400.960440072,67.6437440529
C400.220286927,67.271277555 399.42192566,66.839265519 398.691797349,66.4484017063 C397.96711939,66.0604556621 397.191094736,65.6488851831 396.449053612,65.2949544001 C395.805005186,64.9877631182 395.091428411,64.6778076608 394.408312118,64.4682724751
C393.875683123,64.3048969027 393.275280465,64.1751728287 392.714361539,64.2025707864 C392.252635381,64.2251236959 391.823137631,64.3531426742 391.458230686,64.6451004905 C391.077100191,64.9500385807 390.830873471,65.382657851 390.663077131,65.8333220283
C390.448263757,66.4102636485 390.340253198,67.0791699496 390.2805973,67.6890979715 C390.206454309,68.4471435135 390.19307102,69.269656297 390.198514539,70.0308059621 C390.204482518,70.8652892008 390.235293022,71.7675122698 390.257984351,72.6014939862
C390.280204828,73.4181703492 390.298669219,74.291828402 390.27821862,75.1087133237 C390.26062841,75.8113420373 390.212343829,76.5775987489 390.084511564,77.2698542317 C389.985285637,77.8071966013 389.823193059,78.3857879467 389.53532279,78.8559563798
C389.29480385,79.2487875455 388.97512454,79.5531646084 388.544219026,79.7272025029 C388.08601569,79.9122656812 387.575890093,79.9196619137 387.09327309,79.8545930079 C386.471755066,79.7707967524 385.816480254,79.5546586104 385.235842976,79.3244415192
C384.519809495,79.0405411367 383.773084267,78.6767260473 383.08830025,78.324994457 C382.341168062,77.941238431 381.553270465,77.5120412364 380.811990016,77.1172488951 C380.095769344,76.7358029305 379.325572011,76.3337368918 378.58821904,75.9944925425
C377.959673417,75.7053087194 377.259470822,75.4170013817 376.590149403,75.2368379984 C376.072454914,75.0974885198 375.493138441,75.0003391263 374.955954746,75.0677994268 C374.499932037,75.125067414 374.099105966,75.2971603983 373.767400457,75.6196431741
C373.408290401,75.9687685411 373.184963258,76.4416699386 373.037168325,76.9128837126 C372.846031182,77.522285217 372.754660752,78.218514927 372.706890594,78.853103467 C372.648456228,79.6293575298 372.644854838,80.4675926762 372.656198191,81.2455895179
C372.668514865,82.0903426118 372.700836022,82.9809124302 372.721380454,83.8255181875 C372.740966657,84.6307300391 372.752948643,85.4939864154 372.720763717,86.2990082618 C372.693571734,86.979144689 372.631405304,87.7229273423 372.482874542,88.3886787408
C372.368280331,88.9023181744 372.18602772,89.446521057 371.873021691,89.8766487094 C371.602826282,90.2479467231 371.256021523,90.5067278646 370.814176095,90.6383134478 C370.327155305,90.7833526647 369.791920663,90.7531583702 369.298911977,90.6616607749
C368.659657521,90.5430213937 367.98792964,90.3005745043 367.390557998,90.0491331894 C366.66592228,89.7441248082 365.910058263,89.3654246735 365.21337999,89.0017471337 C364.46053477,88.6087495215 363.684362008,88.184431254 362.933317147,87.7879312307
C362.226783775,87.4149302115 361.463568623,87.0242489666 360.73225797,86.7019142194 C360.119825039,86.4319763851 359.434044286,86.1669405987 358.779843732,86.018113331 C358.275794538,85.9034447267 357.718908455,85.8405454859 357.207170532,85.9485938643
C356.757708832,86.0434932367 356.385413234,86.2606977364 356.086466642,86.6101946177 C355.751010441,87.0023746887 355.549602804,87.5135177509 355.419895616,88.0064154265 C355.251526195,88.6462326727 355.17586843,89.3680995722 355.139220892,90.0268746139
C355.095145313,90.8191758829 355.100215313,91.6713374163 355.11638389,92.4644204664 C355.133773152,93.3173791422 355.166352863,94.1942836663 355.183355778,95.0472440919 C355.199139807,95.8390584699 355.203483735,96.6900542636 355.158185461,97.4810154977
C355.120579159,98.1376658214 355.043560976,98.8573181814 354.873205819,99.4945109101 C354.741956878,99.9854315976 354.538636803,100.493254387 354.201025625,100.881658147 C353.899203092,101.228888968 353.524386071,101.442048395 353.074277855,101.533482125
C352.560204225,101.63790961 352.001265684,101.571892827 351.496062992,101.454998284"/>
      <path
          style="fill:none;stroke:#0F80FF;stroke-linecap:round;stroke-width:2;marker-start:url(#99EA958D_start_arrow)"
          id="4B3FE58D"
          d="M480.791309246,51.0236220472 C475.496699144,56.4738362946 473.3511153,55.4233393757 471.567975735,54.8234463333 C470.348368577,54.2786420331 469.622471262,53.9486972585 468.926876372,53.711820031 C468.378377843,53.5250348595 467.758158453,53.3643631814 467.17513543,53.3526347756
C466.70750818,53.3432277335 466.249688032,53.4285721478 465.851928046,53.6866593086 C465.451053347,53.9467674553 465.180885672,54.3371747558 464.990810063,54.7681746474 C464.751567541,55.3106614051 464.626012428,55.9505472895 464.553703775,56.5355850619
C464.462526888,57.2732827117 464.438278141,58.0783121675 464.436800776,58.8209667039 C464.435142551,59.6545373508 464.462810092,60.5429597482 464.486654433,61.3760993245 C464.510298378,62.2022369192 464.534070036,63.0844093402 464.523967338,63.9109456172
C464.515118867,64.6348693067 464.479717891,65.4219277972 464.371386161,66.1386130818 C464.286472055,66.700375457 464.143648025,67.3114478564 463.880995136,67.819828377 C463.667725742,68.2326241639 463.374112962,68.5819524548 462.957246108,68.8000297053
C462.5295595,69.0237671375 462.045890661,69.070559644 461.571770497,69.0333271325 C460.969421585,68.9860248567 460.331701111,68.7977689442 459.767777025,68.5896164894 C459.061671146,68.3289826993 458.325185118,67.9818292015 457.653353458,67.6437440529
C456.913200313,67.271277555 456.114839046,66.839265519 455.384710735,66.4484017063 C454.660032775,66.0604556621 453.884008121,65.6488851831 453.141966998,65.2949544001 C452.497918571,64.9877631182 451.784341797,64.6778076608 451.101225504,64.4682724751
C450.568596509,64.3048969027 449.968193851,64.1751728287 449.407274925,64.2025707864 C448.945548767,64.2251236959 448.516051017,64.3531426742 448.151144072,64.6451004905 C447.770013577,64.9500385807 447.523786857,65.382657851 447.355990516,65.8333220283
C447.141177142,66.4102636485 447.033166584,67.0791699496 446.973510685,67.6890979715 C446.899367695,68.4471435135 446.885984406,69.269656297 446.891427925,70.0308059621 C446.897395904,70.8652892008 446.928206408,71.7675122698 446.950897737,72.6014939862
C446.973118214,73.4181703492 446.991582605,74.291828402 446.971132006,75.1087133237 C446.953541796,75.8113420373 446.905257214,76.5775987489 446.77742495,77.2698542317 C446.678199023,77.8071966013 446.516106445,78.3857879467 446.228236176,78.8559563798
C445.987717235,79.2487875455 445.668037926,79.5531646084 445.237132412,79.7272025029 C444.778929076,79.9122656812 444.268803479,79.9196619137 443.786186476,79.8545930079 C443.164668452,79.7707967524 442.50939364,79.5546586104 441.928756362,79.3244415192
C441.21272288,79.0405411367 440.465997653,78.6767260473 439.781213636,78.324994457 C439.034081448,77.941238431 438.246183851,77.5120412364 437.504903402,77.1172488951 C436.78868273,76.7358029305 436.018485397,76.3337368918 435.281132426,75.9944925425
C434.652586802,75.7053087194 433.952384208,75.4170013817 433.283062789,75.2368379984 C432.765368299,75.0974885198 432.186051826,75.0003391263 431.648868131,75.0677994268 C431.192845423,75.125067414 430.792019352,75.2971603983 430.460313843,75.6196431741
C430.101203787,75.9687685411 429.877876644,76.4416699386 429.730081711,76.9128837126 C429.538944568,77.522285217 429.447574138,78.218514927 429.39980398,78.853103467 C429.341369614,79.6293575298 429.337768223,80.4675926762 429.349111577,81.2455895179
C429.361428251,82.0903426118 429.393749407,82.9809124302 429.414293839,83.8255181875 C429.433880043,84.6307300391 429.445862029,85.4939864154 429.413677103,86.2990082618 C429.38648512,86.979144689 429.32431869,87.7229273423 429.175787928,88.3886787408
C429.061193716,88.9023181744 428.878941106,89.446521057 428.565935077,89.8766487094 C428.295739668,90.2479467231 427.948934908,90.5067278646 427.507089481,90.6383134478 C427.02006869,90.7833526647 426.484834049,90.7531583702 425.991825363,90.6616607749
C425.352570907,90.5430213937 424.680843026,90.3005745043 424.083471384,90.0491331894 C423.358835666,89.7441248082 422.602971649,89.3654246735 421.906293376,89.0017471337 C421.153448155,88.6087495215 420.377275394,88.184431254 419.626230533,87.7879312307
C418.919697161,87.4149302115 418.156482008,87.0242489666 417.425171355,86.7019142194 C416.812738425,86.4319763851 416.126957672,86.1669405987 415.472757118,86.018113331 C414.968707923,85.9034447267 414.411821841,85.8405454859 413.900083918,85.9485938643
C413.450622218,86.0434932367 413.07832662,86.2606977364 412.779380027,86.6101946177 C412.443923827,87.0023746887 412.24251619,87.5135177509 412.112809001,88.0064154265 C411.944439581,88.6462326727 411.868781815,89.3680995722 411.832134277,90.0268746139
C411.788058699,90.8191758829 411.793128698,91.6713374163 411.809297276,92.4644204664 C411.826686537,93.3173791422 411.859266249,94.1942836663 411.876269164,95.0472440919 C411.892053193,95.8390584699 411.896397121,96.6900542636 411.851098847,97.4810154977
C411.813492545,98.1376658214 411.736474361,98.8573181814 411.566119205,99.4945109101 C411.434870264,99.9854315976 411.231550189,100.493254387 410.893939011,100.881658147 C410.592116477,101.228888968 410.217299457,101.442048395 409.767191241,101.533482125
C409.253117611,101.63790961 408.69417907,101.571892827 408.188976378,101.454998284"/>
      <path
          style="fill:none;stroke:#0F80FF;stroke-linecap:round;stroke-width:2;marker-start:url(#99EA958D_start_arrow)"
          id="20E6268D"
          d="M588.507844679,51.0236220472 C583.213234577,56.4738362946 581.067650733,55.4233393757 579.284511168,54.8234463333 C578.06490401,54.2786420331 577.339006695,53.9486972585 576.643411805,53.711820031 C576.094913276,53.5250348595 575.474693886,53.3643631814 574.891670863,53.3526347756
C574.424043613,53.3432277335 573.966223465,53.4285721478 573.568463479,53.6866593086 C573.16758878,53.9467674553 572.897421105,54.3371747558 572.707345496,54.7681746474 C572.468102974,55.3106614051 572.342547861,55.9505472895 572.270239208,56.5355850619
C572.179062321,57.2732827117 572.154813574,58.0783121675 572.153336209,58.8209667039 C572.151677984,59.6545373508 572.179345525,60.5429597482 572.203189866,61.3760993245 C572.226833812,62.2022369192 572.250605469,63.0844093402 572.240502771,63.9109456172
C572.2316543,64.6348693067 572.196253324,65.4219277972 572.087921594,66.1386130818 C572.003007488,66.700375457 571.860183458,67.3114478564 571.597530569,67.819828377 C571.384261175,68.2326241639 571.090648395,68.5819524548 570.673781541,68.8000297053
C570.246094933,69.0237671375 569.762426094,69.070559644 569.28830593,69.0333271325 C568.685957018,68.9860248567 568.048236544,68.7977689442 567.484312458,68.5896164894 C566.778206579,68.3289826993 566.041720551,67.9818292015 565.369888891,67.6437440529
C564.629735746,67.271277555 563.831374479,66.839265519 563.101246168,66.4484017063 C562.376568208,66.0604556621 561.600543554,65.6488851831 560.858502431,65.2949544001 C560.214454004,64.9877631182 559.50087723,64.6778076608 558.817760937,64.4682724751
C558.285131942,64.3048969027 557.684729284,64.1751728287 557.123810358,64.2025707864 C556.6620842,64.2251236959 556.23258645,64.3531426742 555.867679505,64.6451004905 C555.48654901,64.9500385807 555.24032229,65.382657851 555.07252595,65.8333220283
C554.857712575,66.4102636485 554.749702017,67.0791699496 554.690046119,67.6890979715 C554.615903128,68.4471435135 554.602519839,69.269656297 554.607963358,70.0308059621 C554.613931337,70.8652892008 554.644741841,71.7675122698 554.66743317,72.6014939862
C554.689653647,73.4181703492 554.708118038,74.291828402 554.687667439,75.1087133237 C554.670077229,75.8113420373 554.621792647,76.5775987489 554.493960383,77.2698542317 C554.394734456,77.8071966013 554.232641878,78.3857879467 553.944771609,78.8559563798
C553.704252668,79.2487875455 553.384573359,79.5531646084 552.953667845,79.7272025029 C552.495464509,79.9122656812 551.985338912,79.9196619137 551.502721909,79.8545930079 C550.881203885,79.7707967524 550.225929073,79.5546586104 549.645291795,79.3244415192
C548.929258313,79.0405411367 548.182533086,78.6767260473 547.497749069,78.324994457 C546.750616881,77.941238431 545.962719284,77.5120412364 545.221438835,77.1172488951 C544.505218163,76.7358029305 543.73502083,76.3337368918 542.997667859,75.9944925425
C542.369122235,75.7053087194 541.668919641,75.4170013817 540.999598222,75.2368379984 C540.481903732,75.0974885198 539.902587259,75.0003391263 539.365403564,75.0677994268 C538.909380856,75.125067414 538.508554785,75.2971603983 538.176849276,75.6196431741
C537.81773922,75.9687685411 537.594412077,76.4416699386 537.446617144,76.9128837126 C537.255480001,77.522285217 537.164109571,78.218514927 537.116339413,78.853103467 C537.057905047,79.6293575298 537.054303656,80.4675926762 537.06564701,81.2455895179
C537.077963684,82.0903426118 537.11028484,82.9809124302 537.130829272,83.8255181875 C537.150415476,84.6307300391 537.162397462,85.4939864154 537.130212536,86.2990082618 C537.103020553,86.979144689 537.040854123,87.7229273423 536.892323361,88.3886787408
C536.777729149,88.9023181744 536.595476539,89.446521057 536.28247051,89.8766487094 C536.012275101,90.2479467231 535.665470341,90.5067278646 535.223624914,90.6383134478 C534.736604123,90.7833526647 534.201369482,90.7531583702 533.708360796,90.6616607749
C533.06910634,90.5430213937 532.397378459,90.3005745043 531.800006817,90.0491331894 C531.075371099,89.7441248082 530.319507082,89.3654246735 529.622828809,89.0017471337 C528.869983588,88.6087495215 528.093810827,88.184431254 527.342765966,87.7879312307
C526.636232594,87.4149302115 525.873017441,87.0242489666 525.141706788,86.7019142194 C524.529273858,86.4319763851 523.843493105,86.1669405987 523.189292551,86.018113331 C522.685243356,85.9034447267 522.128357274,85.8405454859 521.616619351,85.9485938643
C521.167157651,86.0434932367 520.794862053,86.2606977364 520.49591546,86.6101946177 C520.16045926,87.0023746887 519.959051623,87.5135177509 519.829344434,88.0064154265 C519.660975014,88.6462326727 519.585317248,89.3680995722 519.54866971,90.0268746139
C519.504594132,90.8191758829 519.509664131,91.6713374163 519.525832709,92.4644204664 C519.54322197,93.3173791422 519.575801682,94.1942836663 519.592804597,95.0472440919 C519.608588626,95.8390584699 519.612932554,96.6900542636 519.56763428,97.4810154977
C519.530027978,98.1376658214 519.453009794,98.8573181814 519.282654638,99.4945109101 C519.151405697,99.9854315976 518.948085622,100.493254387 518.610474444,100.881658147 C518.30865191,101.228888968 517.93383489,101.442048395 517.483726674,101.533482125
C516.969653044,101.63790961 516.410714503,101.571892827 515.905511811,101.454998284"/>
      <path
          style="fill:none;stroke:#0F80FF;stroke-linecap:round;stroke-width:2;marker-start:url(#99EA958D_start_arrow)"
          id="BB06768D"
          d="M146.30312027,153.070866142 C141.008510168,147.620651894 138.862926323,148.671148813 137.079786759,149.271041856 C135.860179601,149.815846156 135.134282285,150.14579093 134.438687395,150.382668158 C133.890188867,150.569453329 133.269969477,150.730125008 132.686946453,150.741853413
C132.219319204,150.751260455 131.761499056,150.665916041 131.36373907,150.40782888 C130.962864371,150.147720734 130.692696696,149.757313433 130.502621087,149.326313541 C130.263378565,148.783826784 130.137823451,148.143940899 130.065514799,147.558903127
C129.974337912,146.821205477 129.950089165,146.016176021 129.948611799,145.273521485 C129.946953574,144.439950838 129.974621115,143.551528441 129.998465457,142.718388864 C130.022109402,141.89225127 130.045881059,141.010078849 130.035778362,140.183542572
C130.026929891,139.459618882 129.991528914,138.672560392 129.883197185,137.955875107 C129.798283079,137.394112732 129.655459049,136.783040332 129.39280616,136.274659812 C129.179536765,135.861864025 128.885923986,135.512535734 128.469057132,135.294458484
C128.041370524,135.070721051 127.557701684,135.023928545 127.08358152,135.061161056 C126.481232609,135.108463332 125.843512135,135.296719245 125.279588048,135.504871699 C124.57348217,135.76550549 123.836996142,136.112658987 123.165164481,136.450744136
C122.425011337,136.823210634 121.62665007,137.25522267 120.896521758,137.646086483 C120.171843799,138.034032527 119.395819145,138.445603006 118.653778022,138.799533789 C118.009729595,139.106725071 117.296152821,139.416680528 116.613036528,139.626215714
C116.080407532,139.789591286 115.480004875,139.91931536 114.919085949,139.891917402 C114.457359791,139.869364493 114.027862041,139.741345515 113.662955095,139.449387698 C113.281824601,139.144449608 113.035597881,138.711830338 112.86780154,138.261166161
C112.652988166,137.68422454 112.544977608,137.015318239 112.485321709,136.405390217 C112.411178718,135.647344675 112.39779543,134.824831892 112.403238949,134.063682227 C112.409206928,133.229198988 112.440017432,132.326975919 112.462708761,131.492994203
C112.484929238,130.67631784 112.503393628,129.802659787 112.48294303,128.985774865 C112.465352819,128.283146152 112.417068238,127.51688944 112.289235973,126.824633957 C112.190010046,126.287291588 112.027917468,125.708700242 111.7400472,125.238531809
C111.499528259,124.845700643 111.17984895,124.54132358 110.748943436,124.367285686 C110.290740099,124.182222508 109.780614503,124.174826275 109.297997499,124.239895181 C108.676479476,124.323691436 108.021204663,124.539829579 107.440567386,124.77004667
C106.724533904,125.053947052 105.977808676,125.417762142 105.29302466,125.769493732 C104.545892471,126.153249758 103.757994874,126.582446952 103.016714425,126.977239294 C102.300493753,127.358685258 101.53029642,127.760751297 100.79294345,128.099995646
C100.164397826,128.389179469 99.4641952316,128.677486807 98.7948738127,128.85765019 C98.2771793231,128.996999669 97.6978628501,129.094149063 97.1606791552,129.026688762 C96.7046564463,128.969420775 96.3038303757,128.797327791 95.9721248663,128.474845015
C95.6130148104,128.125719648 95.3896876674,127.65281825 95.2418927345,127.181604476 C95.0507555917,126.572202972 94.9593851617,125.875973262 94.9116150039,125.241384722 C94.8531806378,124.465130659 94.8495792471,123.626895513 94.8609226007,122.848898671
C94.8732392747,122.004145577 94.9055604312,121.113575759 94.9261048631,120.268970001 C94.9456910664,119.46375815 94.9576730523,118.600501773 94.9254881267,117.795479927 C94.8982961438,117.1153435 94.8361297134,116.371560847 94.6875989514,115.705809448
C94.5730047401,115.192170014 94.3907521296,114.647967132 94.0777461003,114.217839479 C93.8075506914,113.846541466 93.4607459321,113.587760324 93.0189005049,113.456174741 C92.5318797141,113.311135524 91.9966450728,113.341329819 91.5036363866,113.432827414
C90.8643819307,113.551466795 90.1926540497,113.793913685 89.5952824074,114.045354999 C88.8706466899,114.350363381 88.1147826726,114.729063515 87.4181043997,115.092741055 C86.6652591791,115.485738667 85.8890864175,115.910056935 85.1380415569,116.306556958
C84.4315081848,116.679557977 83.6682930322,117.070239222 82.9369823792,117.392573969 C82.3245494484,117.662511804 81.6387686953,117.92754759 80.9845681419,118.076374858 C80.4805189473,118.191043462 79.9236328645,118.253942703 79.4118949414,118.145894325
C78.9624332419,118.050994952 78.5901376437,117.833790453 78.2911910511,117.484293571 C77.9557348507,117.0921135 77.7543272134,116.580970438 77.6246200251,116.088072762 C77.4562506043,115.448255516 77.3805928392,114.726388617 77.3439453012,114.067613575
C77.2998697231,113.275312306 77.3049397221,112.423150773 77.3211082996,111.630067722 C77.3384975612,110.777109047 77.3710772724,109.900204523 77.3880801874,109.047244097 C77.4038642169,108.255429719 77.4082081448,107.404433925 77.3629098704,106.613472691
C77.325303569,105.956822367 77.2482853852,105.237170007 77.0779302287,104.599977279 C76.946681288,104.109056591 76.7433612129,103.601233802 76.4057500345,103.212830042 C76.1039275011,102.865599221 75.7291104809,102.652439793 75.2790022648,102.561006064
C74.7649286349,102.456578579 74.2059900939,102.522595362 73.7007874015,102.639489905"/>
      <path
          style="fill:none;stroke:#0F80FF;stroke-linecap:round;stroke-width:2;marker-start:url(#99EA958D_start_arrow)"
          id="6CA1F68D"
          d="M197.326742317,153.070866142 C192.032132215,147.620651894 189.886548371,148.671148813 188.103408806,149.271041856 C186.883801648,149.815846156 186.157904333,150.14579093 185.462309443,150.382668158 C184.913810914,150.569453329 184.293591524,150.730125008 183.710568501,150.741853413
C183.242941251,150.751260455 182.785121103,150.665916041 182.387361117,150.40782888 C181.986486418,150.147720734 181.716318743,149.757313433 181.526243134,149.326313541 C181.287000612,148.783826784 181.161445499,148.143940899 181.089136846,147.558903127
C180.997959959,146.821205477 180.973711212,146.016176021 180.972233847,145.273521485 C180.970575622,144.439950838 180.998243163,143.551528441 181.022087504,142.718388864 C181.045731449,141.89225127 181.069503107,141.010078849 181.059400409,140.183542572
C181.050551938,139.459618882 181.015150962,138.672560392 180.906819232,137.955875107 C180.821905126,137.394112732 180.679081096,136.783040332 180.416428207,136.274659812 C180.203158813,135.861864025 179.909546033,135.512535734 179.492679179,135.294458484
C179.064992571,135.070721051 178.581323732,135.023928545 178.107203568,135.061161056 C177.504854656,135.108463332 176.867134182,135.296719245 176.303210096,135.504871699 C175.597104217,135.76550549 174.860618189,136.112658987 174.188786529,136.450744136
C173.448633384,136.823210634 172.650272117,137.25522267 171.920143806,137.646086483 C171.195465846,138.034032527 170.419441192,138.445603006 169.677400069,138.799533789 C169.033351642,139.106725071 168.319774868,139.416680528 167.636658575,139.626215714
C167.10402958,139.789591286 166.503626922,139.91931536 165.942707996,139.891917402 C165.480981838,139.869364493 165.051484088,139.741345515 164.686577143,139.449387698 C164.305446648,139.144449608 164.059219928,138.711830338 163.891423587,138.261166161
C163.676610213,137.68422454 163.568599655,137.015318239 163.508943756,136.405390217 C163.434800766,135.647344675 163.421417477,134.824831892 163.426860996,134.063682227 C163.432828975,133.229198988 163.463639479,132.326975919 163.486330808,131.492994203
C163.508551285,130.67631784 163.527015676,129.802659787 163.506565077,128.985774865 C163.488974867,128.283146152 163.440690285,127.51688944 163.312858021,126.824633957 C163.213632094,126.287291588 163.051539516,125.708700242 162.763669247,125.238531809
C162.523150306,124.845700643 162.203470997,124.54132358 161.772565483,124.367285686 C161.314362147,124.182222508 160.80423655,124.174826275 160.321619547,124.239895181 C159.700101523,124.323691436 159.044826711,124.539829579 158.464189433,124.77004667
C157.748155951,125.053947052 157.001430724,125.417762142 156.316646707,125.769493732 C155.569514519,126.153249758 154.781616922,126.582446952 154.040336473,126.977239294 C153.324115801,127.358685258 152.553918468,127.760751297 151.816565497,128.099995646
C151.188019873,128.389179469 150.487817279,128.677486807 149.81849586,128.85765019 C149.30080137,128.996999669 148.721484897,129.094149063 148.184301202,129.026688762 C147.728278494,128.969420775 147.327452423,128.797327791 146.995746914,128.474845015
C146.636636858,128.125719648 146.413309715,127.65281825 146.265514782,127.181604476 C146.074377639,126.572202972 145.983007209,125.875973262 145.935237051,125.241384722 C145.876802685,124.465130659 145.873201294,123.626895513 145.884544648,122.848898671
C145.896861322,122.004145577 145.929182478,121.113575759 145.94972691,120.268970001 C145.969313114,119.46375815 145.9812951,118.600501773 145.949110174,117.795479927 C145.921918191,117.1153435 145.859751761,116.371560847 145.711220999,115.705809448
C145.596626787,115.192170014 145.414374177,114.647967132 145.101368148,114.217839479 C144.831172739,113.846541466 144.484367979,113.587760324 144.042522552,113.456174741 C143.555501761,113.311135524 143.02026712,113.341329819 142.527258434,113.432827414
C141.888003978,113.551466795 141.216276097,113.793913685 140.618904455,114.045354999 C139.894268737,114.350363381 139.13840472,114.729063515 138.441726447,115.092741055 C137.688881226,115.485738667 136.912708465,115.910056935 136.161663604,116.306556958
C135.455130232,116.679557977 134.691915079,117.070239222 133.960604426,117.392573969 C133.348171496,117.662511804 132.662390743,117.92754759 132.008190189,118.076374858 C131.504140994,118.191043462 130.947254912,118.253942703 130.435516989,118.145894325
C129.986055289,118.050994952 129.613759691,117.833790453 129.314813098,117.484293571 C128.979356898,117.0921135 128.777949261,116.580970438 128.648242072,116.088072762 C128.479872652,115.448255516 128.404214886,114.726388617 128.367567348,114.067613575
C128.32349177,113.275312306 128.328561769,112.423150773 128.344730347,111.630067722 C128.362119608,110.777109047 128.39469932,109.900204523 128.411702235,109.047244097 C128.427486264,108.255429719 128.431830192,107.404433925 128.386531918,106.613472691
C128.348925616,105.956822367 128.271907432,105.237170007 128.101552276,104.599977279 C127.970303335,104.109056591 127.76698326,103.601233802 127.429372082,103.212830042 C127.127549548,102.865599221 126.752732528,102.652439793 126.302624312,102.561006064
C125.788550682,102.456578579 125.229612141,102.522595362 124.724409449,102.639489905"/>
      <path
          style="fill:none;stroke:#0F80FF;stroke-linecap:round;stroke-width:2;marker-start:url(#99EA958D_start_arrow)"
          id="E870178D"
          d="M310.712569089,153.070866142 C305.417958987,147.620651894 303.272375142,148.671148813 301.489235578,149.271041856 C300.269628419,149.815846156 299.543731104,150.14579093 298.848136214,150.382668158 C298.299637686,150.569453329 297.679418296,150.730125008 297.096395272,150.741853413
C296.628768023,150.751260455 296.170947875,150.665916041 295.773187889,150.40782888 C295.37231319,150.147720734 295.102145515,149.757313433 294.912069906,149.326313541 C294.672827384,148.783826784 294.54727227,148.143940899 294.474963618,147.558903127
C294.383786731,146.821205477 294.359537984,146.016176021 294.358060618,145.273521485 C294.356402393,144.439950838 294.384069934,143.551528441 294.407914276,142.718388864 C294.431558221,141.89225127 294.455329878,141.010078849 294.445227181,140.183542572
C294.43637871,139.459618882 294.400977733,138.672560392 294.292646003,137.955875107 C294.207731898,137.394112732 294.064907867,136.783040332 293.802254979,136.274659812 C293.588985584,135.861864025 293.295372805,135.512535734 292.878505951,135.294458484
C292.450819343,135.070721051 291.967150503,135.023928545 291.493030339,135.061161056 C290.890681428,135.108463332 290.252960953,135.296719245 289.689036867,135.504871699 C288.982930989,135.76550549 288.246444961,136.112658987 287.5746133,136.450744136
C286.834460156,136.823210634 286.036098889,137.25522267 285.305970577,137.646086483 C284.581292618,138.034032527 283.805267964,138.445603006 283.063226841,138.799533789 C282.419178414,139.106725071 281.705601639,139.416680528 281.022485346,139.626215714
C280.489856351,139.789591286 279.889453693,139.91931536 279.328534768,139.891917402 C278.866808609,139.869364493 278.437310859,139.741345515 278.072403914,139.449387698 C277.69127342,139.144449608 277.445046699,138.711830338 277.277250359,138.261166161
C277.062436985,137.68422454 276.954426426,137.015318239 276.894770528,136.405390217 C276.820627537,135.647344675 276.807244249,134.824831892 276.812687768,134.063682227 C276.818655747,133.229198988 276.849466251,132.326975919 276.872157579,131.492994203
C276.894378057,130.67631784 276.912842447,129.802659787 276.892391849,128.985774865 C276.874801638,128.283146152 276.826517057,127.51688944 276.698684792,126.824633957 C276.599458865,126.287291588 276.437366287,125.708700242 276.149496018,125.238531809
C275.908977078,124.845700643 275.589297769,124.54132358 275.158392255,124.367285686 C274.700188918,124.182222508 274.190063322,124.174826275 273.707446318,124.239895181 C273.085928295,124.323691436 272.430653482,124.539829579 271.850016204,124.77004667
C271.133982723,125.053947052 270.387257495,125.417762142 269.702473479,125.769493732 C268.95534129,126.153249758 268.167443693,126.582446952 267.426163244,126.977239294 C266.709942572,127.358685258 265.939745239,127.760751297 265.202392268,128.099995646
C264.573846645,128.389179469 263.87364405,128.677486807 263.204322632,128.85765019 C262.686628142,128.996999669 262.107311669,129.094149063 261.570127974,129.026688762 C261.114105265,128.969420775 260.713279195,128.797327791 260.381573685,128.474845015
C260.022463629,128.125719648 259.799136486,127.65281825 259.651341553,127.181604476 C259.460204411,126.572202972 259.368833981,125.875973262 259.321063823,125.241384722 C259.262629457,124.465130659 259.259028066,123.626895513 259.270371419,122.848898671
C259.282688093,122.004145577 259.31500925,121.113575759 259.335553682,120.268970001 C259.355139885,119.46375815 259.367121871,118.600501773 259.334936945,117.795479927 C259.307744963,117.1153435 259.245578532,116.371560847 259.09704777,115.705809448
C258.982453559,115.192170014 258.800200948,114.647967132 258.487194919,114.217839479 C258.21699951,113.846541466 257.870194751,113.587760324 257.428349324,113.456174741 C256.941328533,113.311135524 256.406093892,113.341329819 255.913085205,113.432827414
C255.27383075,113.551466795 254.602102869,113.793913685 254.004731226,114.045354999 C253.280095509,114.350363381 252.524231491,114.729063515 251.827553219,115.092741055 C251.074707998,115.485738667 250.298535236,115.910056935 249.547490376,116.306556958
C248.840957004,116.679557977 248.077741851,117.070239222 247.346431198,117.392573969 C246.733998267,117.662511804 246.048217514,117.92754759 245.394016961,118.076374858 C244.889967766,118.191043462 244.333081683,118.253942703 243.82134376,118.145894325
C243.371882061,118.050994952 242.999586462,117.833790453 242.70063987,117.484293571 C242.365183669,117.0921135 242.163776032,116.580970438 242.034068844,116.088072762 C241.865699423,115.448255516 241.790041658,114.726388617 241.75339412,114.067613575
C241.709318542,113.275312306 241.714388541,112.423150773 241.730557118,111.630067722 C241.74794638,110.777109047 241.780526091,109.900204523 241.797529006,109.047244097 C241.813313036,108.255429719 241.817656964,107.404433925 241.772358689,106.613472691
C241.734752388,105.956822367 241.657734204,105.237170007 241.487379047,104.599977279 C241.356130107,104.109056591 241.152810032,103.601233802 240.815198853,103.212830042 C240.51337632,102.865599221 240.1385593,102.652439793 239.688451084,102.561006064
C239.174377454,102.456578579 238.615438913,102.522595362 238.11023622,102.639489905"/>
      <path
          style="fill:none;stroke:#0F80FF;stroke-linecap:round;stroke-width:2;marker-start:url(#99EA958D_start_arrow)"
          id="597A278D"
          d="M424.09839586,153.070866142 C418.803785758,147.620651894 416.658201914,148.671148813 414.875062349,149.271041856 C413.655455191,149.815846156 412.929557876,150.14579093 412.233962986,150.382668158 C411.685464457,150.569453329 411.065245067,150.730125008 410.482222044,150.741853413
C410.014594794,150.751260455 409.556774646,150.665916041 409.15901466,150.40782888 C408.758139961,150.147720734 408.487972286,149.757313433 408.297896677,149.326313542 C408.058654155,148.783826784 407.933099042,148.143940899 407.860790389,147.558903127
C407.769613502,146.821205477 407.745364755,146.016176021 407.74388739,145.273521485 C407.742229165,144.439950838 407.769896706,143.551528441 407.793741047,142.718388864 C407.817384992,141.89225127 407.84115665,141.010078849 407.831053952,140.183542572
C407.822205481,139.459618882 407.786804505,138.672560392 407.678472775,137.955875107 C407.593558669,137.394112732 407.450734639,136.783040333 407.18808175,136.274659812 C406.974812356,135.861864025 406.681199576,135.512535734 406.264332722,135.294458484
C405.836646114,135.070721051 405.352977275,135.023928545 404.878857111,135.061161056 C404.276508199,135.108463332 403.638787725,135.296719245 403.074863639,135.5048717 C402.36875776,135.76550549 401.632271732,136.112658987 400.960440072,136.450744136
C400.220286927,136.823210634 399.42192566,137.25522267 398.691797349,137.646086483 C397.967119389,138.034032527 397.191094735,138.445603006 396.449053612,138.799533789 C395.805005185,139.106725071 395.091428411,139.416680528 394.408312118,139.626215714
C393.875683123,139.789591286 393.275280465,139.91931536 392.714361539,139.891917403 C392.252635381,139.869364493 391.823137631,139.741345515 391.458230686,139.449387698 C391.077100191,139.144449608 390.830873471,138.711830338 390.66307713,138.261166161
C390.448263756,137.68422454 390.340253198,137.015318239 390.280597299,136.405390217 C390.206454309,135.647344675 390.19307102,134.824831892 390.198514539,134.063682227 C390.204482518,133.229198988 390.235293022,132.326975919 390.257984351,131.492994203
C390.280204828,130.67631784 390.298669219,129.802659787 390.27821862,128.985774865 C390.26062841,128.283146152 390.212343828,127.51688944 390.084511564,126.824633957 C389.985285637,126.287291588 389.823193059,125.708700242 389.53532279,125.238531809
C389.294803849,124.845700643 388.97512454,124.541323581 388.544219026,124.367285686 C388.08601569,124.182222508 387.575890093,124.174826275 387.09327309,124.239895181 C386.471755066,124.323691437 385.816480254,124.539829579 385.235842976,124.77004667
C384.519809494,125.053947052 383.773084267,125.417762142 383.08830025,125.769493732 C382.341168062,126.153249758 381.553270465,126.582446953 380.811990016,126.977239294 C380.095769344,127.358685258 379.325572011,127.760751297 378.58821904,128.099995646
C377.959673416,128.38917947 377.259470822,128.677486807 376.590149403,128.857650191 C376.072454913,128.996999669 375.49313844,129.094149063 374.955954745,129.026688762 C374.499932037,128.969420775 374.099105966,128.797327791 373.767400457,128.474845015
C373.408290401,128.125719648 373.184963258,127.65281825 373.037168325,127.181604476 C372.846031182,126.572202972 372.754660752,125.875973262 372.706890594,125.241384722 C372.648456228,124.465130659 372.644854837,123.626895513 372.656198191,122.848898671
C372.668514865,122.004145577 372.700836021,121.113575759 372.721380453,120.268970001 C372.740966657,119.46375815 372.752948643,118.600501774 372.720763717,117.795479927 C372.693571734,117.1153435 372.631405304,116.371560847 372.482874542,115.705809448
C372.36828033,115.192170015 372.18602772,114.647967132 371.873021691,114.21783948 C371.602826282,113.846541466 371.256021522,113.587760324 370.814176095,113.456174741 C370.327155304,113.311135524 369.791920663,113.341329819 369.298911977,113.432827414
C368.659657521,113.551466795 367.98792964,113.793913685 367.390557998,114.045355 C366.66592228,114.350363381 365.910058263,114.729063515 365.21337999,115.092741055 C364.460534769,115.485738667 363.684362008,115.910056935 362.933317147,116.306556958
C362.226783775,116.679557977 361.463568622,117.070239222 360.732257969,117.39257397 C360.119825039,117.662511804 359.434044286,117.92754759 358.779843732,118.076374858 C358.275794537,118.191043462 357.718908455,118.253942703 357.207170532,118.145894325
C356.757708832,118.050994952 356.385413234,117.833790453 356.086466641,117.484293571 C355.751010441,117.0921135 355.549602804,116.580970438 355.419895615,116.088072762 C355.251526195,115.448255516 355.175868429,114.726388617 355.139220891,114.067613575
C355.095145313,113.275312306 355.100215312,112.423150773 355.11638389,111.630067723 C355.133773151,110.777109047 355.166352863,109.900204523 355.183355778,109.047244097 C355.199139807,108.255429719 355.203483735,107.404433925 355.158185461,106.613472691
C355.120579159,105.956822368 355.043560975,105.237170008 354.873205819,104.599977279 C354.741956878,104.109056591 354.538636803,103.601233802 354.201025625,103.212830042 C353.899203091,102.865599221 353.524386071,102.652439794 353.074277855,102.561006064
C352.560204225,102.456578579 352.001265684,102.522595362 351.496062992,102.639489905"/>
      <path
          style="fill:none;stroke:#0F80FF;stroke-linecap:round;stroke-width:2;marker-start:url(#99EA958D_start_arrow)"
          id="0479378D"
          d="M480.791309246,153.070866142 C475.496699144,147.620651894 473.3511153,148.671148813 471.567975735,149.271041856 C470.348368577,149.815846156 469.622471262,150.14579093 468.926876372,150.382668158 C468.378377843,150.569453329 467.758158453,150.730125008 467.17513543,150.741853413
C466.70750818,150.751260455 466.249688032,150.665916041 465.851928046,150.40782888 C465.451053347,150.147720734 465.180885672,149.757313433 464.990810063,149.326313541 C464.751567541,148.783826784 464.626012428,148.143940899 464.553703775,147.558903127
C464.462526888,146.821205477 464.438278141,146.016176021 464.436800776,145.273521485 C464.435142551,144.439950838 464.462810092,143.551528441 464.486654433,142.718388864 C464.510298378,141.89225127 464.534070036,141.010078849 464.523967338,140.183542572
C464.515118867,139.459618882 464.479717891,138.672560392 464.371386161,137.955875107 C464.286472055,137.394112732 464.143648025,136.783040332 463.880995136,136.274659812 C463.667725742,135.861864025 463.374112962,135.512535734 462.957246108,135.294458484
C462.5295595,135.070721051 462.045890661,135.023928545 461.571770497,135.061161056 C460.969421585,135.108463332 460.331701111,135.296719245 459.767777025,135.504871699 C459.061671146,135.76550549 458.325185118,136.112658987 457.653353458,136.450744136
C456.913200313,136.823210634 456.114839046,137.25522267 455.384710735,137.646086483 C454.660032775,138.034032527 453.884008121,138.445603006 453.141966998,138.799533789 C452.497918571,139.106725071 451.784341797,139.416680528 451.101225504,139.626215714
C450.568596509,139.789591286 449.968193851,139.91931536 449.407274925,139.891917402 C448.945548767,139.869364493 448.516051017,139.741345515 448.151144072,139.449387698 C447.770013577,139.144449608 447.523786857,138.711830338 447.355990516,138.261166161
C447.141177142,137.68422454 447.033166584,137.015318239 446.973510685,136.405390217 C446.899367695,135.647344675 446.885984406,134.824831892 446.891427925,134.063682227 C446.897395904,133.229198988 446.928206408,132.326975919 446.950897737,131.492994203
C446.973118214,130.67631784 446.991582605,129.802659787 446.971132006,128.985774865 C446.953541796,128.283146152 446.905257214,127.51688944 446.77742495,126.824633957 C446.678199023,126.287291588 446.516106445,125.708700242 446.228236176,125.238531809
C445.987717235,124.845700643 445.668037926,124.54132358 445.237132412,124.367285686 C444.778929076,124.182222508 444.268803479,124.174826275 443.786186476,124.239895181 C443.164668452,124.323691436 442.50939364,124.539829579 441.928756362,124.77004667
C441.21272288,125.053947052 440.465997653,125.417762142 439.781213636,125.769493732 C439.034081448,126.153249758 438.246183851,126.582446952 437.504903402,126.977239294 C436.78868273,127.358685258 436.018485397,127.760751297 435.281132426,128.099995646
C434.652586802,128.389179469 433.952384208,128.677486807 433.283062789,128.85765019 C432.765368299,128.996999669 432.186051826,129.094149063 431.648868131,129.026688762 C431.192845423,128.969420775 430.792019352,128.797327791 430.460313843,128.474845015
C430.101203787,128.125719648 429.877876644,127.65281825 429.730081711,127.181604476 C429.538944568,126.572202972 429.447574138,125.875973262 429.39980398,125.241384722 C429.341369614,124.465130659 429.337768223,123.626895513 429.349111577,122.848898671
C429.361428251,122.004145577 429.393749407,121.113575759 429.414293839,120.268970001 C429.433880043,119.46375815 429.445862029,118.600501773 429.413677103,117.795479927 C429.38648512,117.1153435 429.32431869,116.371560847 429.175787928,115.705809448
C429.061193716,115.192170014 428.878941106,114.647967132 428.565935077,114.217839479 C428.295739668,113.846541466 427.948934908,113.587760324 427.507089481,113.456174741 C427.02006869,113.311135524 426.484834049,113.341329819 425.991825363,113.432827414
C425.352570907,113.551466795 424.680843026,113.793913685 424.083471384,114.045354999 C423.358835666,114.350363381 422.602971649,114.729063515 421.906293376,115.092741055 C421.153448155,115.485738667 420.377275394,115.910056935 419.626230533,116.306556958
C418.919697161,116.679557977 418.156482008,117.070239222 417.425171355,117.392573969 C416.812738425,117.662511804 416.126957672,117.92754759 415.472757118,118.076374858 C414.968707923,118.191043462 414.411821841,118.253942703 413.900083918,118.145894325
C413.450622218,118.050994952 413.07832662,117.833790453 412.779380027,117.484293571 C412.443923827,117.0921135 412.24251619,116.580970438 412.112809001,116.088072762 C411.944439581,115.448255516 411.868781815,114.726388617 411.832134277,114.067613575
C411.788058699,113.275312306 411.793128698,112.423150773 411.809297276,111.630067722 C411.826686537,110.777109047 411.859266249,109.900204523 411.876269164,109.047244097 C411.892053193,108.255429719 411.896397121,107.404433925 411.851098847,106.613472691
C411.813492545,105.956822367 411.736474361,105.237170007 411.566119205,104.599977279 C411.434870264,104.109056591 411.231550189,103.601233802 410.893939011,103.212830042 C410.592116477,102.865599221 410.217299457,102.652439793 409.767191241,102.561006064
C409.253117611,102.456578579 408.69417907,102.522595362 408.188976378,102.639489905"/>
      <path
          style="fill:none;stroke:#0F80FF;stroke-linecap:round;stroke-width:2;marker-start:url(#99EA958D_start_arrow)"
          id="47F3678D"
          d="M588.507844679,153.070866142 C583.213234577,147.620651894 581.067650733,148.671148813 579.284511168,149.271041856 C578.06490401,149.815846156 577.339006695,150.14579093 576.643411805,150.382668158 C576.094913276,150.569453329 575.474693886,150.730125008 574.891670863,150.741853413
C574.424043613,150.751260455 573.966223465,150.665916041 573.568463479,150.40782888 C573.16758878,150.147720734 572.897421105,149.757313433 572.707345496,149.326313541 C572.468102974,148.783826784 572.342547861,148.143940899 572.270239208,147.558903127
C572.179062321,146.821205477 572.154813574,146.016176021 572.153336209,145.273521485 C572.151677984,144.439950838 572.179345525,143.551528441 572.203189866,142.718388864 C572.226833812,141.89225127 572.250605469,141.010078849 572.240502771,140.183542572
C572.2316543,139.459618882 572.196253324,138.672560392 572.087921594,137.955875107 C572.003007488,137.394112732 571.860183458,136.783040332 571.597530569,136.274659812 C571.384261175,135.861864025 571.090648395,135.512535734 570.673781541,135.294458484
C570.246094933,135.070721051 569.762426094,135.023928545 569.28830593,135.061161056 C568.685957018,135.108463332 568.048236544,135.296719245 567.484312458,135.504871699 C566.778206579,135.76550549 566.041720551,136.112658987 565.369888891,136.450744136
C564.629735746,136.823210634 563.831374479,137.25522267 563.101246168,137.646086483 C562.376568208,138.034032527 561.600543554,138.445603006 560.858502431,138.799533789 C560.214454004,139.106725071 559.50087723,139.416680528 558.817760937,139.626215714
C558.285131942,139.789591286 557.684729284,139.91931536 557.123810358,139.891917402 C556.6620842,139.869364493 556.23258645,139.741345515 555.867679505,139.449387698 C555.48654901,139.144449608 555.24032229,138.711830338 555.07252595,138.261166161
C554.857712575,137.68422454 554.749702017,137.015318239 554.690046119,136.405390217 C554.615903128,135.647344675 554.602519839,134.824831892 554.607963358,134.063682227 C554.613931337,133.229198988 554.644741841,132.326975919 554.66743317,131.492994203
C554.689653647,130.67631784 554.708118038,129.802659787 554.687667439,128.985774865 C554.670077229,128.283146152 554.621792647,127.51688944 554.493960383,126.824633957 C554.394734456,126.287291588 554.232641878,125.708700242 553.944771609,125.238531809
C553.704252668,124.845700643 553.384573359,124.54132358 552.953667845,124.367285686 C552.495464509,124.182222508 551.985338912,124.174826275 551.502721909,124.239895181 C550.881203885,124.323691436 550.225929073,124.539829579 549.645291795,124.77004667
C548.929258313,125.053947052 548.182533086,125.417762142 547.497749069,125.769493732 C546.750616881,126.153249758 545.962719284,126.582446952 545.221438835,126.977239294 C544.505218163,127.358685258 543.73502083,127.760751297 542.997667859,128.099995646
C542.369122235,128.389179469 541.668919641,128.677486807 540.999598222,128.85765019 C540.481903732,128.996999669 539.902587259,129.094149063 539.365403564,129.026688762 C538.909380856,128.969420775 538.508554785,128.797327791 538.176849276,128.474845015
C537.81773922,128.125719648 537.594412077,127.65281825 537.446617144,127.181604476 C537.255480001,126.572202972 537.164109571,125.875973262 537.116339413,125.241384722 C537.057905047,124.465130659 537.054303656,123.626895513 537.06564701,122.848898671
C537.077963684,122.004145577 537.11028484,121.113575759 537.130829272,120.268970001 C537.150415476,119.46375815 537.162397462,118.600501773 537.130212536,117.795479927 C537.103020553,117.1153435 537.040854123,116.371560847 536.892323361,115.705809448
C536.777729149,115.192170014 536.595476539,114.647967132 536.28247051,114.217839479 C536.012275101,113.846541466 535.665470341,113.587760324 535.223624914,113.456174741 C534.736604123,113.311135524 534.201369482,113.341329819 533.708360796,113.432827414
C533.06910634,113.551466795 532.397378459,113.793913685 531.800006817,114.045354999 C531.075371099,114.350363381 530.319507082,114.729063515 529.622828809,115.092741055 C528.869983588,115.485738667 528.093810827,115.910056935 527.342765966,116.306556958
C526.636232594,116.679557977 525.873017441,117.070239222 525.141706788,117.392573969 C524.529273858,117.662511804 523.843493105,117.92754759 523.189292551,118.076374858 C522.685243356,118.191043462 522.128357274,118.253942703 521.616619351,118.145894325
C521.167157651,118.050994952 520.794862053,117.833790453 520.49591546,117.484293571 C520.16045926,117.0921135 519.959051623,116.580970438 519.829344434,116.088072762 C519.660975014,115.448255516 519.585317248,114.726388617 519.54866971,114.067613575
C519.504594132,113.275312306 519.509664131,112.423150773 519.525832709,111.630067722 C519.54322197,110.777109047 519.575801682,109.900204523 519.592804597,109.047244097 C519.608588626,108.255429719 519.612932554,107.404433925 519.56763428,106.613472691
C519.530027978,105.956822367 519.453009794,105.237170007 519.282654638,104.599977279 C519.151405697,104.109056591 518.948085622,103.601233802 518.610474444,103.212830042 C518.30865191,102.865599221 517.93383489,102.652439793 517.483726674,102.561006064
C516.969653044,102.456578579 516.410714503,102.522595362 515.905511811,102.639489905"/>
      <path
          style="fill:none;marker-end:url(#61E0776D_end_arrow)"
          id="61E0776D"
          d="M260.787401575,34.0157480315 C271.338071882,49.0624979165 277.058210147,58.1879782288 289.133858268,73.7007874015"/>
      <path
          style="fill:none;marker-end:url(#FA13C86D_end_arrow)"
          id="1E95FE8D"
          d="M345.826771653,187.086614173 C335.424554882,180.991947209 325.736137856,174.41851519 317.48031496,164.409448819"/>
      <path
          style="fill:none;marker-end:url(#FA13C86D_end_arrow)"
          id="07D2109D"
          d="M396.850393701,187.086614173 C406.67403397,182.551949111 414.06450051,176.362895018 425.196850393,164.409448819"/>
      <path
          style="fill:none;marker-end:url(#FA13C86D_end_arrow)"
          id="4DE8709D"
          d="M419.527559055,192.755905512 C454.201663729,182.551949111 465.088122557,176.362895018 476.220472441,164.409448819"/>
      <path
          style="fill:none;marker-end:url(#FA13C86D_end_arrow)"
          id="1C01C09D"
          d="M419.527559055,198.42519685 C493.274083902,202.292209089 535.908650482,189.852924571 583.937007874,164.409448819"/>
      <g
          id="11D1B3AD">
         <text
             id="5C45929D"
             style="stroke:none"
             font-family="Times New Roman"
             font-size="24"
             font-weight="normal"
             font-style="normal"
             transform="matrix(0.724638223374,0,0,0.750197889705,54.196411829,25.0248783779)">
            <tspan x="201.818935776" y="121.178810933">e</tspan>
         </text>
         <text
             id="6C45929D"
             style="stroke:none"
             font-family="Times New Roman"
             font-size="12"
             font-weight="bold"
             font-style="normal"
             transform="matrix(0.724638223374,0,0,0.750197889705,56.6789162235,25.7473362119)">
            <tspan x="210.834364224" y="114.070931552">+</tspan>
         </text>
      </g>
      <line
          style="fill:none;stroke:#0F80FF;stroke-linecap:round;stroke-width:2.125984251969;stroke-dasharray:4,4;marker-end:url(#4C8D069D_end_arrow)"
          id="4C8D069D"
          x1="301.102128445"
          y1="101.689108368"
          x2="340.157480315"
          y2="130.393700787"/>
      <line
          style="fill:#D0D0D0;stroke-linecap:round;stroke-width:4;marker-end:url(#4217A3ED_end_arrow)"
          id="4217A3ED"
          x1="62.3622047244"
          y1="102.047244094"
          x2="532.913385827"
          y2="102.047244094"/>
   </g>
</svg>
