<?xml version="1.0" encoding="UTF-8"?>
<!-- Created with EazyDraw for Mac ( http://www.eazydraw.com/ ) -->

<svg
    version="1.1"
    xmlns:dc="http://purl.org/dc/elements/1.1/"
    xmlns:cc="http://creativecommons.org/ns#"
    xmlns:rdf="http://www.w3.org/1999/02/22-rdf-syntax-ns#"
    xmlns:svg="http://www.w3.org/2000/svg"
    xmlns:xlink="http://www.w3.org/1999/xlink"
    xmlns="http://www.w3.org/2000/svg"
    width="228.997637796"
    height="165.422440945"
    viewBox="0, 0, 228.997637796, 165.422440945"
    preserveAspectRatio="none"
    id="svg2">
   <defs
       id="defs_60848AAB">
      <marker
          orient="auto"
          refX="0.0"
          refY="0.0"
          id="4217A3ED_end_arrow"
          style="overflow:visible"
          markerUnits="userSpaceOnUse">
         <path
             id="4217A3ED_end_arrow_path"
             style="fill:#000000;fill-opacity:1;stroke:#000000;stroke-opacity:1;fill-rule:nonzero;stroke-linecap:round;stroke-linejoin:miter;stroke-width:0.531496062992;stroke-miterlimit:10"
             d="M-45.3986244202,0 L-59.494013732,5.130302149885 L-59.494013732,5.130302149885 C-60.7001613163,1.816438897541 -60.7001613163,-1.816438897541 -59.494013732,-5.130302149885 z"/>
      </marker>
      <marker
          orient="auto"
          refX="0.0"
          refY="0.0"
          id="AC2CB8ED_end_arrow"
          style="overflow:visible"
          markerUnits="userSpaceOnUse">
         <path
             id="AC2CB8ED_end_arrow_path"
             style="fill:#000000;fill-opacity:1;stroke:#000000;stroke-opacity:1;fill-rule:nonzero;stroke-linecap:round;stroke-linejoin:round;stroke-width:0.531496062992"
             d="M-45.3986244202,0 L-59.494013732,5.130302149885 L-59.494013732,5.130302149885 C-60.7001613163,1.816438897541 -60.7001613163,-1.816438897541 -59.494013732,-5.130302149885 z"/>
      </marker>
      <marker
          orient="auto"
          refX="0.0"
          refY="0.0"
          id="DF6619ED_end_arrow"
          style="overflow:visible"
          markerUnits="userSpaceOnUse">
         <path
             id="DF6619ED_end_arrow_path"
             style="fill:#000000;fill-opacity:1;stroke:#000000;stroke-opacity:1;fill-rule:nonzero;stroke-linecap:round;stroke-linejoin:bevel;stroke-width:0.531496062992"
             d="M-45.3986244202,0 L-59.494013732,5.130302149885 L-59.494013732,5.130302149885 C-60.7001613163,1.816438897541 -60.7001613163,-1.816438897541 -59.494013732,-5.130302149885 z"/>
      </marker>
   </defs>
   <metadata
       id="metadata7">
      <rdf:RDF>
         <cc:Work
             rdf:about="">
            <dc:format>image/svg+xml</dc:format>
            <dc:type rdf:resource="http://purl.org/dc/dcmitype/StillImage"/>
            <dc:title></dc:title>
         </cc:Work>
      </rdf:RDF>
   </metadata>
   <g
       id="layer_Paper"
       style="fill:#000000;fill-opacity:1;stroke:#000000;stroke-opacity:1;fill-rule:nonzero;stroke-linecap:square;stroke-linejoin:miter;stroke-width:1;stroke-miterlimit:10">
      <path
          style="fill:none;stroke:#0F80FF;stroke-width:1.984251968504"
          id="1F642BED"
          d="M114.498818898,136.062992126 C115.212088191,135.798111348 115.984165807,135.511721052 116.689995291,135.227517613 C117.293850113,134.984374445 117.964905706,134.696929261 118.540617975,134.3920431 C118.949014049,134.175764382 119.433785114,133.885991471 119.763062266,133.556568587
C119.984808645,133.334724068 120.182016307,133.050838205 120.167335273,132.721094074 C120.152463119,132.38705728 119.924162241,132.101540097 119.690604687,131.885619561 C119.336539778,131.558291741 118.833347213,131.268721438 118.406964209,131.050145048
C117.815853617,130.747124481 117.132856331,130.45981918 116.515917872,130.214670535 C115.804749893,129.932078545 115.028684094,129.645723483 114.311373025,129.379196022 C113.602969397,129.115978252 112.835591955,128.82954562 112.135961106,128.543721509
C111.545822745,128.302628977 110.887295443,128.015032835 110.327785703,127.708246996 C109.937391307,127.494189109 109.471607473,127.204236105 109.167874324,126.872772483 C108.957651246,126.64335629 108.793246743,126.361253939 108.836500963,126.03729797
C108.881496032,125.700303765 109.139193611,125.41339136 109.38516783,125.201823457 C109.763258989,124.87661883 110.284333589,124.587263549 110.728600851,124.366348944 C111.334299812,124.065161441 112.028638642,123.777985296 112.65800301,123.530874431
C113.373647681,123.249886845 114.152984457,122.96356008 114.873505675,122.695399917 C115.576228522,122.433863868 116.338199942,122.147381601 117.030774339,121.859925404 C117.606591807,121.620929709 118.252017226,121.333171403 118.794525246,121.024450891
C119.167001344,120.812489027 119.613194018,120.522391845 119.890635368,120.188976378 C120.08917593,119.950380027 120.219142846,119.670075077 120.148746732,119.353501865 C120.073406958,119.014696878 119.787927939,118.726660621 119.528743544,118.518027352
C119.127391183,118.19495445 118.588957467,117.905819123 118.126987002,117.682552839 C117.507515451,117.383167659 116.802448558,117.096110329 116.161338795,116.847078326 C115.44208021,116.567690277 114.66019393,116.281385006 113.937300931,116.011603813
C113.241064132,115.751770622 112.485197523,115.46523119 111.800534465,115.1761293 C111.239567464,114.939258597 110.607827114,114.651332699 110.083136688,114.340654787 C109.728387007,114.130601612 109.302441943,113.840413597 109.052026403,113.505180274
C108.865841445,113.255932954 108.771817329,112.977259577 108.867459278,112.669705761 C108.973086079,112.330043862 109.284856563,112.04115411 109.558120824,111.834231248 C109.981966547,111.513284155 110.53724523,111.224368277 111.016668086,110.998756735
C111.649090647,110.70114508 112.364259166,110.414196631 113.016412934,110.163282222 C113.740242563,109.884790717 114.520264118,109.599900836 115.246554043,109.327807709 C115.935510497,109.069700981 116.684581454,108.783096591 117.360481789,108.492333196
C117.906059889,108.257632704 118.523565397,107.969528267 119.029648487,107.656858682 C119.366981763,107.448446551 119.771953527,107.158243218 119.994631429,106.821384169 C120.167148905,106.560405995 120.224056727,106.282982135 120.105452495,105.985909656
C119.96981106,105.646163453 119.633091913,105.356666722 119.34488782,105.150435143 C118.899319228,104.831597501 118.327707077,104.542896698 117.831144738,104.31496063 C117.186598437,104.019095766 116.461967185,103.732246667 115.799489941,103.479486117
C115.069572694,103.200994613 114.296883507,102.919305546 113.565684213,102.644011604 C112.884790263,102.387657446 112.14319698,102.100980013 111.476906735,101.808537091 C110.947219795,101.576051028 110.34448718,101.28775741 109.857796327,100.973062578
C109.537443977,100.765922402 109.15425919,100.475806681 108.95999592,100.137588065 C108.803049973,99.8643401117 108.783991321,99.5875953987 108.923042096,99.3021135519 C109.088266912,98.9628944005 109.448743192,98.6730018938 109.752678234,98.4666390389
C110.219196309,98.1498871395 110.806628339,97.8613943544 111.31996188,97.6311645258 C111.975799151,97.3370218477 112.709242385,97.0502629616 113.381305042,96.7956900128 C114.116511752,96.5171985084 114.881126044,96.238707004 115.616332754,95.9602154997
C116.288395411,95.7056425509 117.021838645,95.4188836647 117.677675916,95.1247409866 C118.191009457,94.894511158 118.778441487,94.6060183729 119.244959562,94.2892664736 C119.548894604,94.0829036186 119.909370884,93.7930111119 120.0745957,93.4537919605
C120.213646475,93.1683101138 120.194587822,92.8915654008 120.037641876,92.6183174475 C119.843378606,92.2800988313 119.460193819,91.98998311 119.139841469,91.7828429344 C118.653150616,91.4681481028 118.050418001,91.1798544848 117.520731061,90.9473684214
C116.854440815,90.6549254998 116.112847533,90.3682480665 115.431953583,90.1118939083 C114.692261347,89.833402404 113.936445809,89.5581084618 113.198147855,89.2764193953 C112.535670611,89.0236588458 111.811039359,88.7368097461 111.166493058,88.4409448822
C110.669930719,88.2130088149 110.098318568,87.9243080119 109.652749976,87.6054703692 C109.364545883,87.3992387909 109.027826736,87.1097420593 108.892185301,86.7699958561 C108.773581069,86.4729233771 108.830488891,86.1954995172 109.003006367,85.934521343
C109.225684269,85.5976622948 109.630656033,85.3074589611 109.967989309,85.09904683 C110.474072399,84.7863772455 111.091577907,84.498272808 111.637156007,84.2635723169 C112.313056342,83.9728089218 113.062127299,83.6862045319 113.751083753,83.4280978039
C114.494452672,83.1496062995 115.240765156,82.8775131724 115.981224862,82.5926232908 C116.63337863,82.3417088816 117.348547149,82.054760432 117.98096971,81.7571487778 C118.460392566,81.5315372357 119.015671249,81.2426213579 119.439516972,80.9216742647
C119.712781233,80.7147514023 120.024551717,80.4258616508 120.130178518,80.0861997517 C120.225820467,79.778645935 120.131796351,79.4999725589 119.945611393,79.2507252386 C119.695195853,78.9154919159 119.269250789,78.6253039009 118.914501108,78.4152507255
C118.389810682,78.1045728136 117.758070332,77.8166469157 117.197103331,77.5797762125 C116.512440273,77.2906743226 115.756573664,77.0041348903 115.060336865,76.7443016994 C114.337443866,76.4745205063 113.555557586,76.188215235 112.836299001,75.9088271864
C112.195189238,75.6597951839 111.490122345,75.3727378539 110.870650794,75.0733526733 C110.408680329,74.8500863892 109.870246613,74.5609510622 109.468894252,74.2378781603 C109.209709857,74.0292448918 108.924230838,73.7412086345 108.848891064,73.4024036472
C108.77849495,73.0858304357 108.908461866,72.8055254857 109.107002428,72.5669291342 C109.384443778,72.2335136678 109.830636452,71.9434164857 110.20311255,71.7314546211 C110.74562057,71.422734109 111.391045989,71.1349758035 111.966863457,70.8959801081
C112.659437854,70.6085239113 113.421409274,70.3220416444 114.124132121,70.060505595 C114.844653339,69.7923454321 115.623990115,69.5060186673 116.339634786,69.2250310819 C116.968999154,68.9779202166 117.663337984,68.690744071 118.269036945,68.3895565689
C118.713304207,68.1686419631 119.234378807,67.879286682 119.612469966,67.5540820558 C119.858444185,67.3425141528 120.116141764,67.0556017474 120.161136833,66.7186075428 C120.204391053,66.3946515733 120.03998655,66.1125492227 119.829763472,65.8831330297
C119.526030323,65.5516694074 119.060246489,65.2617164034 118.669852092,65.0476585167 C118.110342353,64.7408726777 117.451815051,64.4532765352 116.86167669,64.2121840036 C116.162045841,63.926359892 115.394668399,63.6399272605 114.686264771,63.3767094906
C113.968953702,63.1101820295 113.192887903,62.8238269675 112.481719923,62.5412349775 C111.864781465,62.2960863325 111.181784179,62.0087810314 110.590673587,61.7057604645 C110.164290583,61.4871840743 109.661098018,61.1976137716 109.307033109,60.8702859514
C109.073475555,60.654365415 108.845174677,60.368848232 108.830302523,60.0348114383 C108.815621489,59.705067307 109.012829151,59.4211814449 109.23457553,59.1993369253 C109.563852682,58.8699140413 110.048623746,58.5801411301 110.457019821,58.3638624122
C111.03273209,58.0589762511 111.703787683,57.7715310673 112.307642505,57.5283878992 C113.013471989,57.2441844605 113.785549605,56.9577941648 114.498818898,56.6929133861"/>
      <line
          style="fill:none;stroke-linecap:round;stroke-width:2.125984251969;marker-end:url(#4217A3ED_end_arrow)"
          id="4217A3ED"
          x1="1.112992125985"
          y1="28.3464566932"
          x2="114.498818898"
          y2="56.6929133862"/>
      <line
          style="fill:none;stroke-linecap:round;stroke-width:2.125984251969;marker-end:url(#4217A3ED_end_arrow)"
          id="2E2418ED"
          x1="114.498818898"
          y1="56.6929133862"
          x2="227.88464567"
          y2="28.3464566932"/>
      <line
          style="fill:none;stroke-linecap:round;stroke-linejoin:round;stroke-width:2.125984251969;marker-end:url(#AC2CB8ED_end_arrow)"
          id="AC2CB8ED"
          x1="1.112992125985"
          y1="164.409448819"
          x2="114.498818898"
          y2="136.062992126"/>
      <line
          style="fill:none;stroke-linecap:round;stroke-linejoin:bevel;stroke-width:2.125984251969;marker-end:url(#DF6619ED_end_arrow)"
          id="DF6619ED"
          x1="114.498818898"
          y1="136.062992126"
          x2="227.88464567"
          y2="164.409448819"/>
      <text
          id="2F5BA32E"
          style="stroke:none"
          font-family="Cambria Math"
          font-size="24"
          font-weight="normal"
          font-style="normal">
         <tspan x="40.1287401578" y="23">𝝁</tspan>
      </text>
      <text
          id="A323762E"
          style="stroke:none"
          font-family="Cambria Math"
          font-size="24"
          font-weight="normal"
          font-style="normal">
         <tspan x="181.861023622" y="23">𝝁</tspan>
      </text>
      <text
          id="1CFBB62E"
          style="stroke:none"
          font-family="Times New Roman"
          font-size="24"
          font-weight="normal"
          font-style="normal">
         <tspan x="40.1287401578" y="140.05511811">d</tspan>
      </text>
      <text
          id="416EE72E"
          style="stroke:none"
          font-family="Times New Roman"
          font-size="24"
          font-weight="normal"
          font-style="normal">
         <tspan x="176.191732284" y="140.05511811">d</tspan>
      </text>
   </g>
</svg>
