<?xml version="1.0" encoding="UTF-8"?>
<!-- Created with EazyDraw for Mac ( http://www.eazydraw.com/ ) -->

<svg
    version="1.1"
    xmlns:dc="http://purl.org/dc/elements/1.1/"
    xmlns:cc="http://creativecommons.org/ns#"
    xmlns:rdf="http://www.w3.org/1999/02/22-rdf-syntax-ns#"
    xmlns:svg="http://www.w3.org/2000/svg"
    xmlns:xlink="http://www.w3.org/1999/xlink"
    xmlns="http://www.w3.org/2000/svg"
    width="251.787401575"
    height="235.949532338"
    viewBox="0, 0, 251.787401575, 235.949532338"
    preserveAspectRatio="none"
    id="svg2">
   <defs
       id="defs_6A82273E">
      <marker
          orient="auto"
          refX="0.0"
          refY="0.0"
          id="4217A3ED_end_arrow"
          style="overflow:visible"
          markerUnits="userSpaceOnUse">
         <path
             id="4217A3ED_end_arrow_path"
             style="fill:#000000;fill-opacity:1;stroke:#000000;stroke-opacity:1;fill-rule:nonzero;stroke-linecap:round;stroke-linejoin:miter;stroke-width:0.531496062992;stroke-miterlimit:10"
             d="M-45.3986244202,0 L-59.494013732,5.130302149885 L-59.494013732,5.130302149885 C-60.7001613163,1.816438897541 -60.7001613163,-1.816438897541 -59.494013732,-5.130302149885 z"/>
      </marker>
      <marker
          orient="auto"
          refX="0.0"
          refY="0.0"
          id="34F5572E_start_arrow"
          style="overflow:visible"
          markerUnits="userSpaceOnUse">
         <path
             id="34F5572E_start_arrow_path"
             style="fill:#0F80FF;fill-opacity:1;stroke:#0F80FF;stroke-opacity:1;fill-rule:nonzero;stroke-linecap:round;stroke-linejoin:miter;stroke-width:0.25;stroke-miterlimit:10"
             d="M0,0 L7.833574261598,-1.623303510753 L7.833574261598,-1.623303510753 C8.055475246134,-0.552476133392 8.055475246134,0.552476133392 7.833574261598,1.623303510753 z"/>
      </marker>
   </defs>
   <metadata
       id="metadata7">
      <rdf:RDF>
         <cc:Work
             rdf:about="">
            <dc:format>image/svg+xml</dc:format>
            <dc:type rdf:resource="http://purl.org/dc/dcmitype/StillImage"/>
            <dc:title></dc:title>
         </cc:Work>
      </rdf:RDF>
   </metadata>
   <g
       id="layer_Paper"
       style="fill:#000000;fill-opacity:1;stroke:#000000;stroke-opacity:1;fill-rule:nonzero;stroke-linecap:square;stroke-linejoin:miter;stroke-width:1;stroke-miterlimit:10">
      <path
          style="fill:none;stroke:#0F80FF;stroke-linecap:round"
          id="462E442E"
          d="M159.803148495,93.2251228893 C160.516417788,92.9602421106 161.288495404,92.6738518149 161.994324888,92.3896483762 C162.59817971,92.1465052081 163.269235303,91.8590600243 163.844947572,91.5541738632 C164.253343646,91.3378951453 164.738114711,91.0481222341 165.067391863,90.7186993501
C165.289138241,90.4968548305 165.486345903,90.2129689684 165.47166487,89.8832248371 C165.456792716,89.5491880434 165.228491838,89.2636708605 164.994934284,89.047750324 C164.640869375,88.7204225038 164.13767681,88.4308522011 163.711293806,88.212275811
C163.120183214,87.909255244 162.437185928,87.6219499429 161.820247469,87.3768012979 C161.109079489,87.0942093079 160.333013691,86.8078542459 159.615702621,86.5413267848 C158.907298994,86.2781090149 158.139921552,85.9916763834 157.440290703,85.7058522718
C156.850152342,85.4647597402 156.19162504,85.1771635977 155.6321153,84.8703777587 C155.241720904,84.656319872 154.77593707,84.366366868 154.472203921,84.0349032457 C154.261980843,83.8054870527 154.09757634,83.5233847021 154.140830559,83.1994287326
C154.185825629,82.862434528 154.443523208,82.5755221226 154.689497426,82.3639542196 C155.067588585,82.0387495934 155.588663186,81.7493943123 156.032930448,81.5284797065 C156.638629409,81.2272922045 157.332968239,80.9401160588 157.962332607,80.6930051935
C158.677977278,80.4120176081 159.457314054,80.1256908433 160.177835272,79.8575306804 C160.880558119,79.595994631 161.642529539,79.3095123641 162.335103935,79.0220561674 C162.910921404,78.7830604719 163.556346823,78.4953021664 164.098854843,78.1865816543
C164.47133094,77.9746197897 164.917523615,77.6845226077 165.194964965,77.3511071412 C165.393505527,77.1125107898 165.523472442,76.8322058397 165.453076329,76.5156326282 C165.377736555,76.1768276409 165.092257536,75.8887913836 164.83307314,75.6801581151
C164.43172078,75.3570852132 163.893287064,75.0679498862 163.431316598,74.8446836021 C162.811845047,74.5452984215 162.106778155,74.2582410915 161.465668392,74.009209089 C160.746409807,73.7298210404 159.964523526,73.4435157691 159.241630528,73.173734576
C158.545393729,72.9139013851 157.78952712,72.6273619528 157.104864062,72.3382600629 C156.543897061,72.1013893597 155.912156711,71.8134634618 155.387466284,71.5027855499 C155.032716604,71.2927323745 154.60677154,71.0025443595 154.356356,70.6673110368
C154.170171042,70.4180637165 154.076146926,70.1393903404 154.171788875,69.8318365238 C154.277415676,69.4921746246 154.589186159,69.2032848732 154.862450421,68.9963620107 C155.286296144,68.6754149175 155.841574827,68.3864990397 156.320997683,68.1608874976
C156.953420244,67.8632758434 157.668588763,67.5763273938 158.32074253,67.3254129846 C159.04457216,67.0469214802 159.824593715,66.7620315986 160.55088364,66.4899384715 C161.239840094,66.2318317435 161.988911051,65.9452273536 162.664811386,65.6544639585
C163.210389486,65.4197634675 163.827894994,65.1316590299 164.333978084,64.8189894454 C164.67131136,64.6105773143 165.076283123,64.3203739806 165.298961026,63.9835149324 C165.471478501,63.7225367582 165.528386324,63.4451128983 165.409782092,63.1480404193
C165.274140657,62.8082942161 164.93742151,62.5187974845 164.649217417,62.3125659063 C164.203648825,61.9937282635 163.632036674,61.7050274606 163.135474335,61.4770913932 C162.490928034,61.1812265293 161.766296782,60.8943774296 161.103819538,60.6416168802
C160.373902291,60.3631253758 159.601213104,60.0814363092 158.87001381,59.8061423671 C158.18911986,59.5497882089 157.447526577,59.2631107756 156.781236332,58.970667854 C156.251549392,58.7381817906 155.648816777,58.4498881726 155.162125923,58.135193341
C154.841773574,57.9280531654 154.458588787,57.6379374442 154.264325517,57.2997188279 C154.10737957,57.0264708746 154.088320918,56.7497261616 154.227371692,56.4642443149 C154.392596509,56.1250251635 154.753072789,55.8351326568 155.057007831,55.6287698018
C155.523525906,55.3120179025 156.110957935,55.0235251174 156.624291477,54.7932952888 C157.280128748,54.4991526107 158.013571982,54.2123937245 158.685634638,53.9578207757 C159.420841348,53.6793292714 160.185455641,53.400837767 160.920662351,53.1223462627
C161.592725007,52.8677733138 162.326168241,52.5810144277 162.982005513,52.2868717496 C163.495339054,52.056641921 164.082771084,51.7681491359 164.549289159,51.4513972366 C164.853224201,51.2450343816 165.213700481,50.9551418749 165.378925297,50.6159227235
C165.517976072,50.3304408767 165.498917419,50.0536961637 165.341971473,49.7804482104 C165.147708202,49.4422295942 164.764523416,49.1521138729 164.444171066,48.9449736974 C163.957480213,48.6302788658 163.354747598,48.3419852478 162.825060658,48.1094991843
C162.158770412,47.8170562628 161.41717713,47.5303788295 160.73628318,47.2740246713 C159.996590944,46.9955331669 159.240775406,46.7202392248 158.502477452,46.4385501582 C157.840000208,46.1857896088 157.115368956,45.898940509 156.470822655,45.6030756452
C155.974260315,45.3751395778 155.402648164,45.0864387748 154.957079573,44.7676011321 C154.668875479,44.5613695539 154.332156333,44.2718728223 154.196514898,43.9321266191 C154.077910666,43.6350541401 154.134818488,43.3576302801 154.307335963,43.096652106
C154.530013866,42.7597930578 154.93498563,42.4695897241 155.272318906,42.2611775929 C155.778401996,41.9485080085 156.395907504,41.6604035709 156.941485604,41.4257030799 C157.617385939,41.1349396848 158.366456896,40.8483352949 159.05541335,40.5902285668
C159.798782269,40.3117370625 160.545094753,40.0396439354 161.285554459,39.7547540538 C161.937708227,39.5038396446 162.652876746,39.216891195 163.285299307,38.9192795407 C163.764722163,38.6936679987 164.320000845,38.4047521209 164.743846569,38.0838050277
C165.01711083,37.8768821652 165.328881313,37.5879924138 165.434508115,37.2483305146 C165.530150064,36.940776698 165.436125948,36.6621033218 165.249940989,36.4128560016 C164.99952545,36.0776226789 164.573580386,35.7874346638 164.218830705,35.5773814885
C163.694140279,35.2667035766 163.062399929,34.9787776787 162.501432928,34.7419069755 C161.816769869,34.4528050856 161.060903261,34.1662656533 160.364666462,33.9064324624 C159.641773463,33.6366512692 158.859887183,33.350345998 158.140628598,33.0709579493
C157.499518835,32.8219259469 156.794451942,32.5348686169 156.174980391,32.2354834363 C155.713009926,32.0122171522 155.17457621,31.7230818251 154.773223849,31.4000089232 C154.514039454,31.1913756548 154.228560435,30.9033393974 154.15322066,30.5645344102
C154.082824547,30.2479611987 154.212791463,29.9676562486 154.411332024,29.7290598971 C154.688773374,29.3956444307 155.134966049,29.1055472487 155.507442146,28.8935853841 C156.049950166,28.584864872 156.695375585,28.2971065665 157.271193054,28.058110871
C157.963767451,27.7706546743 158.725738871,27.4841724074 159.428461717,27.222636358 C160.148982936,26.9544761951 160.928319712,26.6681494303 161.643964383,26.3871618449 C162.273328751,26.1400509796 162.967667581,25.8528748339 163.573366541,25.5516873319
C164.017633804,25.3307727261 164.538708404,25.041417445 164.916799563,24.7162128188 C165.162773781,24.5046449158 165.420471361,24.2177325103 165.46546643,23.8807383057 C165.50872065,23.5567823362 165.344316146,23.2746799857 165.134093069,23.0452637927
C164.830359919,22.7138001704 164.364576086,22.4238471664 163.974181689,22.2097892796 C163.41467195,21.9030034407 162.756144647,21.6154072982 162.166006287,21.3743147666 C161.466375437,21.0884906549 160.698997995,20.8020580235 159.990594368,20.5388402535
C159.273283299,20.2723127925 158.4972175,19.9859577305 157.78604952,19.7033657405 C157.169111062,19.4582170955 156.486113776,19.1709117944 155.895003183,18.8678912274 C155.46862018,18.6493148373 154.965427615,18.3597445346 154.611362706,18.0324167144
C154.377805152,17.8164961779 154.149504274,17.530978995 154.13463212,17.1969422013 C154.119951086,16.86719807 154.317158748,16.5833122078 154.538905127,16.3614676883 C154.868182279,16.0320448043 155.352953343,15.7422718931 155.761349418,15.5259931752
C156.337061687,15.221107014 157.00811728,14.9336618303 157.611972102,14.6905186621 C158.317801586,14.4063152235 159.089879202,14.1199249278 159.803148495,13.8550441491"/>
      <path
          style="fill:none;stroke:#0F80FF"
          id="1F642BED"
          d="M114.448818898,183.933784307 C115.162088191,183.668903528 115.934165807,183.382513232 116.639995291,183.098309794 C117.243850113,182.855166626 117.914905706,182.567721442 118.490617975,182.262835281 C118.899014049,182.046556563 119.383785114,181.756783652 119.713062266,181.427360768
C119.934808645,181.205516248 120.132016307,180.921630386 120.117335273,180.591886255 C120.102463119,180.257849461 119.874162241,179.972332278 119.640604687,179.756411742 C119.286539778,179.429083921 118.783347213,179.139513619 118.356964209,178.920937229
C117.765853617,178.617916662 117.082856331,178.330611361 116.465917872,178.085462716 C115.754749893,177.802870725 114.978684094,177.516515664 114.261373025,177.249988202 C113.552969397,176.986770433 112.785591955,176.700337801 112.085961106,176.414513689
C111.495822745,176.173421158 110.837295443,175.885825015 110.277785703,175.579039176 C109.887391307,175.36498129 109.421607473,175.075028286 109.117874324,174.743564663 C108.907651246,174.51414847 108.743246743,174.23204612 108.786500963,173.90809015
C108.831496032,173.571095946 109.089193611,173.28418354 109.33516783,173.072615637 C109.713258989,172.747411011 110.234333589,172.45805573 110.678600851,172.237141124 C111.284299812,171.935953622 111.978638642,171.648777476 112.60800301,171.401666611
C113.323647681,171.120679026 114.102984457,170.834352261 114.823505675,170.566192098 C115.526228522,170.304656049 116.288199942,170.018173782 116.980774339,169.730717585 C117.556591807,169.491721889 118.202017226,169.203963584 118.744525246,168.895243072
C119.117001344,168.683281207 119.563194018,168.393184025 119.840635368,168.059768559 C120.03917593,167.821172207 120.169142846,167.540867257 120.098746732,167.224294046 C120.023406958,166.885489059 119.737927939,166.597452801 119.478743544,166.388819533
C119.077391183,166.065746631 118.538957467,165.776611304 118.076987002,165.55334502 C117.457515451,165.253959839 116.752448558,164.966902509 116.111338795,164.717870507 C115.39208021,164.438482458 114.61019393,164.152177187 113.887300931,163.882395994
C113.191064132,163.622562803 112.435197523,163.33602337 111.750534465,163.046921481 C111.189567464,162.810050777 110.557827114,162.522124879 110.033136688,162.211446967 C109.678387007,162.001393792 109.252441943,161.711205777 109.002026403,161.375972454
C108.815841445,161.126725134 108.721817329,160.848051758 108.817459278,160.540497941 C108.923086079,160.200836042 109.234856563,159.911946291 109.508120824,159.705023428 C109.931966547,159.384076335 110.48724523,159.095160457 110.966668086,158.869548915
C111.599090647,158.571937261 112.314259166,158.284988811 112.966412934,158.034074402 C113.690242563,157.755582898 114.470264118,157.470693016 115.196554043,157.198599889 C115.885510497,156.940493161 116.634581454,156.653888771 117.310481789,156.363125376
C117.856059889,156.128424885 118.473565397,155.840320447 118.979648487,155.527650863 C119.316981763,155.319238732 119.721953527,155.029035398 119.944631429,154.69217635 C120.117148905,154.431198176 120.174056727,154.153774316 120.055452495,153.856701837
C119.91981106,153.516955634 119.583091913,153.227458902 119.29488782,153.021227324 C118.849319228,152.702389681 118.277707077,152.413688878 117.781144738,152.185752811 C117.136598437,151.889887947 116.411967185,151.603038847 115.749489941,151.350278298
C115.019572694,151.071786793 114.246883507,150.790097727 113.515684213,150.514803785 C112.834790263,150.258449627 112.09319698,149.971772193 111.426906735,149.679329272 C110.897219795,149.446843208 110.29448718,149.15854959 109.807796327,148.843854759
C109.487443977,148.636714583 109.10425919,148.346598862 108.90999592,148.008380246 C108.753049973,147.735132292 108.733991321,147.458387579 108.873042096,147.172905733 C109.038266912,146.833686581 109.398743192,146.543794074 109.702678234,146.337431219
C110.169196309,146.02067932 110.756628339,145.732186535 111.26996188,145.501956706 C111.925799151,145.207814028 112.659242385,144.921055142 113.331305042,144.666482193 C114.066511752,144.387990689 114.831126044,144.109499185 115.566332754,143.83100768
C116.238395411,143.576434731 116.971838645,143.289675845 117.627675916,142.995533167 C118.141009457,142.765303339 118.728441487,142.476810553 119.194959562,142.160058654 C119.498894604,141.953695799 119.859370884,141.663803293 120.0245957,141.324584141
C120.163646475,141.039102294 120.144587822,140.762357581 119.987641876,140.489109628 C119.793378606,140.150891012 119.410193819,139.860775291 119.089841469,139.653635115 C118.603150616,139.338940283 118.000418001,139.050646665 117.470731061,138.818160602
C116.804440815,138.52571768 116.062847533,138.239040247 115.381953583,137.982686089 C114.642261347,137.704194585 113.886445809,137.428900642 113.148147855,137.147211576 C112.485670611,136.894451026 111.761039359,136.607601927 111.116493058,136.311737063
C110.619930719,136.083800995 110.048318568,135.795100192 109.602749976,135.47626255 C109.314545883,135.270030971 108.977826736,134.98053424 108.842185301,134.640788037 C108.723581069,134.343715558 108.780488891,134.066291698 108.953006367,133.805313524
C109.175684269,133.468454475 109.580656033,133.178251142 109.917989309,132.969839011 C110.424072399,132.657169426 111.041577907,132.369064989 111.587156007,132.134364498 C112.263056342,131.843601102 113.012127299,131.556996713 113.701083753,131.298889984
C114.444452672,131.02039848 115.190765156,130.748305353 115.931224862,130.463415471 C116.58337863,130.212501062 117.298547149,129.925552613 117.93096971,129.627940958 C118.410392566,129.402329416 118.965671249,129.113413538 119.389516972,128.792466445
C119.662781233,128.585543583 119.974551717,128.296653831 120.080178518,127.956991932 C120.175820467,127.649438116 120.081796351,127.370764739 119.895611393,127.121517419 C119.645195853,126.786284097 119.219250789,126.496096081 118.864501108,126.286042906
C118.339810682,125.975364994 117.708070332,125.687439096 117.147103331,125.450568393 C116.462440273,125.161466503 115.706573664,124.874927071 115.010336865,124.61509388 C114.287443866,124.345312687 113.505557586,124.059007416 112.786299001,123.779619367
C112.145189238,123.530587364 111.440122345,123.243530035 110.820650794,122.944144854 C110.358680329,122.72087857 109.820246613,122.431743243 109.418894252,122.108670341 C109.159709857,121.900037072 108.874230838,121.612000815 108.798891064,121.273195828
C108.72849495,120.956622616 108.858461866,120.676317666 109.057002428,120.437721315 C109.334443778,120.104305848 109.780636452,119.814208666 110.15311255,119.602246802 C110.69562057,119.29352629 111.341045989,119.005767984 111.916863457,118.766772289
C112.609437854,118.479316092 113.371409274,118.192833825 114.074132121,117.931297776 C114.794653339,117.663137613 115.573990115,117.376810848 116.289634786,117.095823263 C116.918999154,116.848712397 117.613337984,116.561536252 118.219036945,116.260348749
C118.663304207,116.039434144 119.184378807,115.750078863 119.562469966,115.424874236 C119.808444185,115.213306333 120.066141764,114.926393928 120.111136833,114.589399723 C120.154391053,114.265443754 119.98998655,113.983341403 119.779763472,113.75392521
C119.476030323,113.422461588 119.010246489,113.132508584 118.619852092,112.918450697 C118.060342353,112.611664858 117.401815051,112.324068716 116.81167669,112.082976184 C116.112045841,111.797152073 115.344668399,111.510719441 114.636264771,111.247501671
C113.918953702,110.98097421 113.142887903,110.694619148 112.431719923,110.412027158 C111.814781465,110.166878513 111.131784179,109.879573212 110.540673587,109.576552645 C110.114290583,109.357976255 109.611098018,109.068405952 109.257033109,108.741078132
C109.023475555,108.525157596 108.795174677,108.239640413 108.780302523,107.905603619 C108.765621489,107.575859488 108.962829151,107.291973625 109.18457553,107.070129106 C109.513852682,106.740706222 109.998623746,106.450933311 110.407019821,106.234654593
C110.98273209,105.929768432 111.653787683,105.642323248 112.257642505,105.39918008 C112.963471989,105.114976641 113.735549605,104.828586345 114.448818898,104.563705567"/>
      <line
          style="fill:none;stroke-linecap:round;stroke-width:2.125984251969;marker-end:url(#4217A3ED_end_arrow)"
          id="4217A3ED"
          x1="1.062992125984"
          y1="76.2172488738"
          x2="114.448818898"
          y2="104.563705567"/>
      <line
          style="fill:none;stroke-linecap:round;stroke-width:2.125984251969;marker-end:url(#4217A3ED_end_arrow)"
          id="2E2418ED"
          x1="114.448818898"
          y1="104.563705567"
          x2="227.83464567"
          y2="76.2172488738"/>
      <text
          id="2F5BA32E"
          style="stroke:none"
          font-family="Cambria Math"
          font-size="24"
          font-weight="normal"
          font-style="normal">
         <tspan x="40.078740158" y="72.201500842">ğ</tspan>
         <tspan font-family="Helvetica">-</tspan>
      </text>
      <text
          id="A323762E"
          style="stroke:none"
          font-family="Cambria Math"
          font-size="24"
          font-weight="normal"
          font-style="normal">
         <tspan x="181.811023622" y="72.201500842">ğ</tspan>
         <tspan font-family="Helvetica">-</tspan>
      </text>
      <text
          id="416EE72E"
          style="stroke:none"
          font-family="Avenir Next"
          font-size="24"
          font-weight="normal"
          font-style="normal">
         <tspan x="187.480314961" y="194.925910291">e</tspan>
         <tspan font-size="22">-</tspan>
      </text>
      <text
          id="2B09F92E"
          style="fill:#4C4C4C;stroke:none"
          font-family="Avenir Next"
          font-size="9"
          font-weight="normal"
          font-style="normal">
         <tspan x="130.787401575" y="226.949532338">Â© J. A. Aguilar 2018</tspan>
      </text>
      <line
          style="fill:none;stroke:#0F80FF;stroke-linecap:round;marker-start:url(#34F5572E_start_arrow)"
          id="34F5572E"
          x1="159.803149607"
          y1="2.516461471921"
          x2="159.803149607"
          y2="13.8550441491"/>
      <line
          style="fill:none;stroke-linecap:round;stroke-width:2.125984251969;marker-end:url(#4217A3ED_end_arrow)"
          id="1BF7523E"
          x1="114.448818898"
          y1="183.933784307"
          x2="227.83464567"
          y2="212.280241"/>
      <line
          style="fill:none;stroke-linecap:round;stroke-width:2.125984251969;marker-end:url(#4217A3ED_end_arrow)"
          id="8AC5823E"
          x1="1.062992126334"
          y1="212.280241"
          x2="114.448818898"
          y2="183.933784307"/>
      <text
          id="90B8F23E"
          style="stroke:none"
          font-family="Avenir Next"
          font-size="24"
          font-weight="normal"
          font-style="normal">
         <tspan x="40.0787401578" y="189.256618952">e</tspan>
         <tspan font-size="22">-</tspan>
      </text>
      <text
          id="1F04643E"
          style="fill:#0F80FF;stroke:none"
          font-family="Cambria Math"
          font-size="24"
          font-weight="normal"
          font-style="normal">
         <tspan x="130.787401575" y="53.8629181648">ğœ¸</tspan>
      </text>
   </g>
</svg>
