<?xml version="1.0" encoding="UTF-8"?>
<!-- Created with EazyDraw for Mac ( http://www.eazydraw.com/ ) -->

<svg
    version="1.1"
    xmlns:dc="http://purl.org/dc/elements/1.1/"
    xmlns:cc="http://creativecommons.org/ns#"
    xmlns:rdf="http://www.w3.org/1999/02/22-rdf-syntax-ns#"
    xmlns:svg="http://www.w3.org/2000/svg"
    xmlns:xlink="http://www.w3.org/1999/xlink"
    xmlns="http://www.w3.org/2000/svg"
    width="501.123620936"
    height="165.422440945"
    viewBox="0, 0, 501.123620936, 165.422440945"
    preserveAspectRatio="none"
    id="svg2">
   <defs
       id="defs_B1732BBB">
      <marker
          orient="auto"
          refX="0.0"
          refY="0.0"
          id="4217A3ED_end_arrow"
          style="overflow:visible"
          markerUnits="userSpaceOnUse">
         <path
             id="4217A3ED_end_arrow_path"
             style="fill:#000000;fill-opacity:1;stroke:#000000;stroke-opacity:1;fill-rule:nonzero;stroke-linecap:round;stroke-linejoin:miter;stroke-width:0.531496062992;stroke-miterlimit:10"
             d="M-45.3986244202,0 L-59.494013732,5.130302149885 L-59.494013732,5.130302149885 C-60.7001613163,1.816438897541 -60.7001613163,-1.816438897541 -59.494013732,-5.130302149885 z"/>
      </marker>
      <marker
          orient="auto"
          refX="0.0"
          refY="0.0"
          id="AC2CB8ED_end_arrow"
          style="overflow:visible"
          markerUnits="userSpaceOnUse">
         <path
             id="AC2CB8ED_end_arrow_path"
             style="fill:#000000;fill-opacity:1;stroke:#000000;stroke-opacity:1;fill-rule:nonzero;stroke-linecap:round;stroke-linejoin:round;stroke-width:0.531496062992"
             d="M-45.3986244202,0 L-59.494013732,5.130302149885 L-59.494013732,5.130302149885 C-60.7001613163,1.816438897541 -60.7001613163,-1.816438897541 -59.494013732,-5.130302149885 z"/>
      </marker>
      <marker
          orient="auto"
          refX="0.0"
          refY="0.0"
          id="DF6619ED_end_arrow"
          style="overflow:visible"
          markerUnits="userSpaceOnUse">
         <path
             id="DF6619ED_end_arrow_path"
             style="fill:#000000;fill-opacity:1;stroke:#000000;stroke-opacity:1;fill-rule:nonzero;stroke-linecap:round;stroke-linejoin:bevel;stroke-width:0.531496062992"
             d="M-45.3986244202,0 L-59.494013732,5.130302149885 L-59.494013732,5.130302149885 C-60.7001613163,1.816438897541 -60.7001613163,-1.816438897541 -59.494013732,-5.130302149885 z"/>
      </marker>
   </defs>
   <metadata
       id="metadata7">
      <rdf:RDF>
         <cc:Work
             rdf:about="">
            <dc:format>image/svg+xml</dc:format>
            <dc:type rdf:resource="http://purl.org/dc/dcmitype/StillImage"/>
            <dc:title></dc:title>
         </cc:Work>
      </rdf:RDF>
   </metadata>
   <g
       id="layer_Paper"
       style="fill:#000000;fill-opacity:1;stroke:#000000;stroke-opacity:1;fill-rule:nonzero;stroke-linecap:square;stroke-linejoin:miter;stroke-width:1;stroke-miterlimit:10">
      <path
          style="fill:none;stroke:#0F80FF;stroke-width:1.984251968504"
          id="1F642BED"
          d="M114.498818898,136.062992127 C115.212088191,135.798111348 115.984165807,135.511721052 116.689995291,135.227517614 C117.293850113,134.984374445 117.964905706,134.696929262 118.540617975,134.3920431 C118.949014049,134.175764383 119.433785114,133.885991471 119.763062266,133.556568587
C119.984808645,133.334724068 120.182016307,133.050838206 120.167335273,132.721094074 C120.152463119,132.387057281 119.924162241,132.101540098 119.690604687,131.885619561 C119.336539778,131.558291741 118.833347213,131.268721438 118.406964209,131.050145048
C117.815853617,130.747124481 117.132856331,130.45981918 116.515917872,130.214670535 C115.804749893,129.932078545 115.028684094,129.645723483 114.311373025,129.379196022 C113.602969397,129.115978252 112.835591955,128.829545621 112.135961106,128.543721509
C111.545822745,128.302628977 110.887295443,128.015032835 110.327785703,127.708246996 C109.937391307,127.494189109 109.471607473,127.204236105 109.167874324,126.872772483 C108.957651246,126.64335629 108.793246743,126.361253939 108.836500963,126.03729797
C108.881496032,125.700303765 109.139193611,125.41339136 109.38516783,125.201823457 C109.763258989,124.876618831 110.284333589,124.58726355 110.728600851,124.366348944 C111.334299812,124.065161442 112.028638642,123.777985296 112.65800301,123.530874431
C113.373647681,123.249886845 114.152984457,122.963560081 114.873505675,122.695399918 C115.576228522,122.433863868 116.338199942,122.147381601 117.030774339,121.859925405 C117.606591807,121.620929709 118.252017226,121.333171404 118.794525246,121.024450892
C119.167001344,120.812489027 119.613194018,120.522391845 119.890635368,120.188976379 C120.08917593,119.950380027 120.219142846,119.670075077 120.148746732,119.353501866 C120.073406958,119.014696878 119.787927939,118.726660621 119.528743544,118.518027352
C119.127391183,118.194954451 118.588957467,117.905819124 118.126987002,117.682552839 C117.507515451,117.383167659 116.802448558,117.096110329 116.161338795,116.847078326 C115.44208021,116.567690278 114.66019393,116.281385006 113.937300931,116.011603813
C113.241064132,115.751770622 112.485197523,115.46523119 111.800534465,115.1761293 C111.239567464,114.939258597 110.607827114,114.651332699 110.083136688,114.340654787 C109.728387007,114.130601612 109.302441943,113.840413597 109.052026403,113.505180274
C108.865841445,113.255932954 108.771817329,112.977259578 108.867459278,112.669705761 C108.973086079,112.330043862 109.284856563,112.04115411 109.558120824,111.834231248 C109.981966547,111.513284155 110.53724523,111.224368277 111.016668086,110.998756735
C111.649090647,110.701145081 112.364259166,110.414196631 113.016412934,110.163282222 C113.740242563,109.884790718 114.520264118,109.599900836 115.246554043,109.327807709 C115.935510497,109.069700981 116.684581454,108.783096591 117.360481789,108.492333196
C117.906059889,108.257632705 118.523565397,107.969528267 119.029648487,107.656858683 C119.366981763,107.448446552 119.771953527,107.158243218 119.994631429,106.82138417 C120.167148905,106.560405996 120.224056727,106.282982136 120.105452495,105.985909657
C119.96981106,105.646163453 119.633091913,105.356666722 119.34488782,105.150435144 C118.899319228,104.831597501 118.327707077,104.542896698 117.831144738,104.314960631 C117.186598437,104.019095767 116.461967185,103.732246667 115.799489941,103.479486117
C115.069572694,103.200994613 114.296883507,102.919305547 113.565684213,102.644011604 C112.884790263,102.387657446 112.14319698,102.100980013 111.476906735,101.808537091 C110.947219795,101.576051028 110.34448718,101.28775741 109.857796327,100.973062578
C109.537443977,100.765922403 109.15425919,100.475806681 108.95999592,100.137588065 C108.803049973,99.8643401119 108.783991321,99.5875953989 108.923042096,99.3021135522 C109.088266912,98.9628944008 109.448743192,98.6730018941 109.752678234,98.4666390391
C110.219196309,98.1498871398 110.806628339,97.8613943547 111.31996188,97.6311645261 C111.975799151,97.337021848 112.709242385,97.0502629619 113.381305042,96.795690013 C114.116511752,96.5171985087 114.881126044,96.2387070043 115.616332754,95.9602155
C116.288395411,95.7056425511 117.021838645,95.418883665 117.677675916,95.1247409869 C118.191009457,94.8945111583 118.778441487,94.6060183732 119.244959562,94.2892664739 C119.548894604,94.0829036189 119.909370884,93.7930111122 120.0745957,93.4537919608
C120.213646475,93.1683101141 120.194587822,92.8915654011 120.037641876,92.6183174478 C119.843378606,92.2800988315 119.460193819,91.9899831103 119.139841469,91.7828429347 C118.653150616,91.4681481031 118.050418001,91.1798544851 117.520731061,90.9473684216
C116.854440815,90.6549255001 116.112847533,90.3682480668 115.431953583,90.1118939086 C114.692261347,89.8334024042 113.936445809,89.5581084621 113.198147855,89.2764193955 C112.535670611,89.0236588461 111.811039359,88.7368097463 111.166493058,88.4409448825
C110.669930719,88.2130088151 110.098318568,87.9243080121 109.652749976,87.6054703694 C109.364545883,87.3992387912 109.027826736,87.1097420596 108.892185301,86.7699958564 C108.773581069,86.4729233774 108.830488891,86.1954995175 109.003006367,85.9345213433
C109.225684269,85.5976622951 109.630656033,85.3074589614 109.967989309,85.0990468303 C110.474072399,84.7863772458 111.091577907,84.4982728082 111.637156007,84.2635723172 C112.313056342,83.9728089221 113.062127299,83.6862045322 113.751083753,83.4280978042
C114.494452672,83.1496062998 115.240765156,82.8775131727 115.981224862,82.5926232911 C116.63337863,82.3417088819 117.348547149,82.0547604323 117.98096971,81.757148778 C118.460392566,81.531537236 119.015671249,81.2426213582 119.439516972,80.921674265
C119.712781233,80.7147514025 120.024551717,80.4258616511 120.130178518,80.0861997519 C120.225820467,79.7786459353 120.131796351,79.4999725591 119.945611393,79.2507252389 C119.695195853,78.9154919162 119.269250789,78.6253039011 118.914501108,78.4152507258
C118.389810682,78.1045728139 117.758070332,77.816646916 117.197103331,77.5797762128 C116.512440273,77.2906743229 115.756573664,77.0041348906 115.060336865,76.7443016997 C114.337443866,76.4745205065 113.555557586,76.1882152353 112.836299001,75.9088271867
C112.195189238,75.6597951842 111.490122345,75.3727378542 110.870650794,75.0733526736 C110.408680329,74.8500863895 109.870246613,74.5609510624 109.468894252,74.2378781605 C109.209709857,74.0292448921 108.924230838,73.7412086347 108.848891064,73.4024036475
C108.77849495,73.085830436 108.908461866,72.8055254859 109.107002428,72.5669291344 C109.384443778,72.233513668 109.830636452,71.943416486 110.20311255,71.7314546214 C110.74562057,71.4227341093 111.391045989,71.1349758038 111.966863457,70.8959801083
C112.659437854,70.6085239116 113.421409274,70.3220416447 114.124132121,70.0605055953 C114.844653339,69.7923454324 115.623990115,69.5060186676 116.339634786,69.2250310822 C116.968999154,68.9779202169 117.663337984,68.6907440712 118.269036945,68.3895565692
C118.713304207,68.1686419634 119.234378807,67.8792866823 119.612469966,67.5540820561 C119.858444185,67.3425141531 120.116141764,67.0556017477 120.161136833,66.7186075431 C120.204391053,66.3946515736 120.03998655,66.112549223 119.829763472,65.88313303
C119.526030323,65.5516694077 119.060246489,65.2617164037 118.669852092,65.0476585169 C118.110342353,64.740872678 117.451815051,64.4532765355 116.86167669,64.2121840039 C116.162045841,63.9263598922 115.394668399,63.6399272608 114.686264771,63.3767094908
C113.968953702,63.1101820298 113.192887903,62.8238269678 112.481719923,62.5412349778 C111.864781465,62.2960863328 111.181784179,62.0087810317 110.590673587,61.7057604647 C110.164290583,61.4871840746 109.661098018,61.1976137719 109.307033109,60.8702859517
C109.073475555,60.6543654152 108.845174677,60.3688482323 108.830302523,60.0348114386 C108.815621489,59.7050673073 109.012829151,59.4211814451 109.23457553,59.1993369256 C109.563852682,58.8699140416 110.048623746,58.5801411304 110.457019821,58.3638624125
C111.03273209,58.0589762514 111.703787683,57.7715310676 112.307642505,57.5283878995 C113.013471989,57.2441844608 113.785549605,56.9577941651 114.498818898,56.6929133864"/>
      <line
          style="fill:none;stroke-linecap:round;stroke-width:2.125984251969;marker-end:url(#4217A3ED_end_arrow)"
          id="4217A3ED"
          x1="1.112992125985"
          y1="28.3464566935"
          x2="114.498818898"
          y2="56.6929133865"/>
      <line
          style="fill:none;stroke-linecap:round;stroke-width:2.125984251969;marker-end:url(#4217A3ED_end_arrow)"
          id="2E2418ED"
          x1="114.498818898"
          y1="56.6929133865"
          x2="227.88464567"
          y2="28.3464566935"/>
      <line
          style="fill:none;stroke-linecap:round;stroke-linejoin:round;stroke-width:2.125984251969;marker-end:url(#AC2CB8ED_end_arrow)"
          id="AC2CB8ED"
          x1="1.112992125985"
          y1="164.40944882"
          x2="114.498818898"
          y2="136.062992126"/>
      <line
          style="fill:none;stroke-linecap:round;stroke-linejoin:bevel;stroke-width:2.125984251969;marker-end:url(#DF6619ED_end_arrow)"
          id="DF6619ED"
          x1="114.498818898"
          y1="136.062992126"
          x2="227.88464567"
          y2="164.40944882"/>
      <text
          id="A323762E"
          style="fill:#0F80FF;stroke:none"
          font-family="Cambria Math"
          font-size="24"
          font-weight="normal"
          font-style="normal">
         <tspan x="125.168110237" y="99.7007874015">Z</tspan>
         <tspan>0</tspan>
      </text>
      <text
          id="1CFBB62E"
          style="stroke:none"
          font-family="Cambria Math"
          font-size="24"
          font-weight="normal"
          font-style="normal">
         <tspan x="40.128740158" y="142.055118111">d</tspan>
      </text>
      <text
          id="416EE72E"
          style="stroke:none"
          font-family="Cambria Math"
          font-size="24"
          font-weight="normal"
          font-style="normal">
         <tspan x="176.191732284" y="142.055118111">d</tspan>
      </text>
      <path
          style="fill:none;stroke:#0F80FF;stroke-width:1.984251968504"
          id="16F825AC"
          d="M386.624802038,136.062992127 C387.338071331,135.798111348 388.110148947,135.511721052 388.815978431,135.227517614 C389.419833253,134.984374445 390.090888846,134.696929262 390.666601115,134.3920431 C391.074997189,134.175764383 391.559768254,133.885991471 391.889045406,133.556568587
C392.110791785,133.334724068 392.307999447,133.050838206 392.293318413,132.721094074 C392.278446259,132.387057281 392.050145381,132.101540098 391.816587827,131.885619561 C391.462522918,131.558291741 390.959330353,131.268721438 390.532947349,131.050145048
C389.941836757,130.747124481 389.258839471,130.45981918 388.641901012,130.214670535 C387.930733033,129.932078545 387.154667234,129.645723483 386.437356165,129.379196022 C385.728952537,129.115978252 384.961575095,128.829545621 384.261944246,128.543721509
C383.671805885,128.302628977 383.013278583,128.015032835 382.453768843,127.708246996 C382.063374447,127.494189109 381.597590613,127.204236105 381.293857464,126.872772483 C381.083634386,126.64335629 380.919229883,126.361253939 380.962484103,126.03729797
C381.007479172,125.700303765 381.265176751,125.41339136 381.51115097,125.201823457 C381.889242129,124.876618831 382.410316729,124.58726355 382.854583991,124.366348944 C383.460282952,124.065161442 384.154621782,123.777985296 384.78398615,123.530874431
C385.499630821,123.249886845 386.278967597,122.963560081 386.999488815,122.695399918 C387.702211662,122.433863868 388.464183082,122.147381601 389.156757479,121.859925405 C389.732574947,121.620929709 390.378000366,121.333171404 390.920508386,121.024450892
C391.292984484,120.812489027 391.739177158,120.522391845 392.016618508,120.188976379 C392.21515907,119.950380027 392.345125986,119.670075077 392.274729872,119.353501866 C392.199390098,119.014696878 391.913911079,118.726660621 391.654726684,118.518027352
C391.253374323,118.194954451 390.714940607,117.905819124 390.252970142,117.682552839 C389.633498591,117.383167659 388.928431698,117.096110329 388.287321935,116.847078326 C387.56806335,116.567690278 386.78617707,116.281385006 386.063284071,116.011603813
C385.367047272,115.751770622 384.611180663,115.46523119 383.926517605,115.1761293 C383.365550604,114.939258597 382.733810254,114.651332699 382.209119828,114.340654787 C381.854370147,114.130601612 381.428425083,113.840413597 381.178009543,113.505180274
C380.991824585,113.255932954 380.897800469,112.977259578 380.993442418,112.669705761 C381.099069219,112.330043862 381.410839703,112.04115411 381.684103964,111.834231248 C382.107949687,111.513284155 382.66322837,111.224368277 383.142651226,110.998756735
C383.775073787,110.701145081 384.490242306,110.414196631 385.142396074,110.163282222 C385.866225703,109.884790718 386.646247258,109.599900836 387.372537183,109.327807709 C388.061493637,109.069700981 388.810564594,108.783096591 389.486464929,108.492333196
C390.032043029,108.257632705 390.649548537,107.969528267 391.155631627,107.656858683 C391.492964903,107.448446552 391.897936667,107.158243218 392.120614569,106.82138417 C392.293132045,106.560405996 392.350039867,106.282982136 392.231435635,105.985909657
C392.0957942,105.646163453 391.759075053,105.356666722 391.47087096,105.150435144 C391.025302368,104.831597501 390.453690217,104.542896698 389.957127878,104.314960631 C389.312581577,104.019095767 388.587950325,103.732246667 387.925473081,103.479486117
C387.195555834,103.200994613 386.422866647,102.919305547 385.691667353,102.644011604 C385.010773403,102.387657446 384.26918012,102.100980013 383.602889875,101.808537091 C383.073202935,101.576051028 382.47047032,101.28775741 381.983779467,100.973062578
C381.663427117,100.765922403 381.28024233,100.475806681 381.08597906,100.137588065 C380.929033113,99.8643401119 380.909974461,99.5875953989 381.049025236,99.3021135522 C381.214250052,98.9628944008 381.574726332,98.6730018941 381.878661374,98.4666390391
C382.345179449,98.1498871398 382.932611479,97.8613943547 383.44594502,97.6311645261 C384.101782291,97.337021848 384.835225525,97.0502629619 385.507288182,96.795690013 C386.242494892,96.5171985087 387.007109184,96.2387070043 387.742315894,95.9602155
C388.414378551,95.7056425511 389.147821785,95.418883665 389.803659056,95.1247409869 C390.316992597,94.8945111583 390.904424627,94.6060183732 391.370942702,94.2892664739 C391.674877744,94.0829036189 392.035354024,93.7930111122 392.20057884,93.4537919608
C392.339629615,93.1683101141 392.320570962,92.8915654011 392.163625016,92.6183174478 C391.969361746,92.2800988315 391.586176959,91.9899831103 391.265824609,91.7828429347 C390.779133756,91.4681481031 390.176401141,91.1798544851 389.646714201,90.9473684216
C388.980423955,90.6549255001 388.238830673,90.3682480668 387.557936723,90.1118939086 C386.818244487,89.8334024042 386.062428949,89.5581084621 385.324130995,89.2764193955 C384.661653751,89.0236588461 383.937022499,88.7368097463 383.292476198,88.4409448825
C382.795913859,88.2130088151 382.224301708,87.9243080121 381.778733116,87.6054703694 C381.490529023,87.3992387912 381.153809876,87.1097420596 381.018168441,86.7699958564 C380.899564209,86.4729233774 380.956472031,86.1954995175 381.128989507,85.9345213433
C381.351667409,85.5976622951 381.756639173,85.3074589614 382.093972449,85.0990468303 C382.600055539,84.7863772458 383.217561047,84.4982728082 383.763139147,84.2635723172 C384.439039482,83.9728089221 385.188110439,83.6862045322 385.877066893,83.4280978042
C386.620435812,83.1496062998 387.366748296,82.8775131727 388.107208002,82.5926232911 C388.75936177,82.3417088819 389.474530289,82.0547604323 390.10695285,81.757148778 C390.586375706,81.531537236 391.141654389,81.2426213582 391.565500112,80.921674265
C391.838764373,80.7147514025 392.150534857,80.4258616511 392.256161658,80.0861997519 C392.351803607,79.7786459353 392.257779491,79.4999725591 392.071594533,79.2507252389 C391.821178993,78.9154919162 391.395233929,78.6253039011 391.040484248,78.4152507258
C390.515793822,78.1045728139 389.884053472,77.816646916 389.323086471,77.5797762128 C388.638423413,77.2906743229 387.882556804,77.0041348906 387.186320005,76.7443016997 C386.463427006,76.4745205065 385.681540726,76.1882152353 384.962282141,75.9088271867
C384.321172378,75.6597951842 383.616105485,75.3727378542 382.996633934,75.0733526736 C382.534663469,74.8500863895 381.996229753,74.5609510624 381.594877392,74.2378781605 C381.335692997,74.0292448921 381.050213978,73.7412086347 380.974874204,73.4024036475
C380.90447809,73.085830436 381.034445006,72.8055254859 381.232985568,72.5669291344 C381.510426918,72.233513668 381.956619592,71.943416486 382.32909569,71.7314546214 C382.87160371,71.4227341093 383.517029129,71.1349758038 384.092846597,70.8959801083
C384.785420994,70.6085239116 385.547392414,70.3220416447 386.250115261,70.0605055953 C386.970636479,69.7923454324 387.749973255,69.5060186676 388.465617926,69.2250310822 C389.094982294,68.9779202169 389.789321124,68.6907440712 390.395020085,68.3895565692
C390.839287347,68.1686419634 391.360361947,67.8792866823 391.738453106,67.5540820561 C391.984427325,67.3425141531 392.242124904,67.0556017477 392.287119973,66.7186075431 C392.330374193,66.3946515736 392.16596969,66.112549223 391.955746612,65.88313303
C391.652013463,65.5516694077 391.186229629,65.2617164037 390.795835232,65.0476585169 C390.236325493,64.740872678 389.577798191,64.4532765355 388.98765983,64.2121840039 C388.288028981,63.9263598922 387.520651539,63.6399272608 386.812247911,63.3767094908
C386.094936842,63.1101820298 385.318871043,62.8238269678 384.607703063,62.5412349778 C383.990764605,62.2960863328 383.307767319,62.0087810317 382.716656727,61.7057604647 C382.290273723,61.4871840746 381.787081158,61.1976137719 381.433016249,60.8702859517
C381.199458695,60.6543654152 380.971157817,60.3688482323 380.956285663,60.0348114386 C380.941604629,59.7050673073 381.138812291,59.4211814451 381.36055867,59.1993369256 C381.689835822,58.8699140416 382.174606886,58.5801411304 382.583002961,58.3638624125
C383.15871523,58.0589762514 383.829770823,57.7715310676 384.433625645,57.5283878995 C385.139455129,57.2441844608 385.911532745,56.9577941651 386.624802038,56.6929133864"/>
      <line
          style="fill:none;stroke-linecap:round;stroke-width:2.125984251969;marker-end:url(#4217A3ED_end_arrow)"
          id="36F825AC"
          x1="273.238975266"
          y1="28.3464566935"
          x2="386.624802038"
          y2="56.6929133865"/>
      <line
          style="fill:none;stroke-linecap:round;stroke-width:2.125984251969;marker-end:url(#4217A3ED_end_arrow)"
          id="46F825AC"
          x1="386.624802038"
          y1="56.6929133865"
          x2="500.01062881"
          y2="28.3464566935"/>
      <line
          style="fill:none;stroke-linecap:round;stroke-linejoin:round;stroke-width:2.125984251969;marker-end:url(#AC2CB8ED_end_arrow)"
          id="56F825AC"
          x1="273.238975266"
          y1="164.40944882"
          x2="386.624802038"
          y2="136.062992126"/>
      <line
          style="fill:none;stroke-linecap:round;stroke-linejoin:bevel;stroke-width:2.125984251969;marker-end:url(#DF6619ED_end_arrow)"
          id="66F825AC"
          x1="386.624802038"
          y1="136.062992126"
          x2="500.01062881"
          y2="164.40944882"/>
      <text
          id="76F825AC"
          style="stroke:none"
          font-family="Cambria Math"
          font-size="24"
          font-weight="normal"
          font-style="normal">
         <tspan x="312.254723298" y="23">ğ‚</tspan>
      </text>
      <text
          id="86F825AC"
          style="fill:#0F80FF;stroke:none"
          font-family="Cambria Math"
          font-size="24"
          font-weight="normal"
          font-style="normal">
         <tspan x="397.294093377" y="96.7007874015">W</tspan>
      </text>
      <text
          id="96F825AC"
          style="stroke:none"
          font-family="Cambria Math"
          font-size="24"
          font-weight="normal"
          font-style="normal">
         <tspan x="312.254723298" y="142.055118111">d</tspan>
      </text>
      <text
          id="A6F825AC"
          style="stroke:none"
          font-family="Cambria Math"
          font-size="24"
          font-weight="normal"
          font-style="normal">
         <tspan x="448.317715424" y="142.055118111">u</tspan>
      </text>
      <text
          id="B6F825AC"
          style="stroke:none"
          font-family="Cambria Math"
          font-size="24"
          font-weight="normal"
          font-style="normal">
         <tspan x="436.979132747" y="23">ğ</tspan>
      </text>
      <text
          id="8CCC79BB"
          style="stroke:none"
          font-family="Cambria Math"
          font-size="15"
          font-weight="normal"
          font-style="normal">
         <tspan x="323.593307087" y="25.3385826774">ğ</tspan>
      </text>
      <text
          id="28925ABB"
          style="stroke:none"
          font-family="Cambria Math"
          font-size="24"
          font-weight="normal"
          font-style="normal">
         <tspan x="34.4594488192" y="28.6692913389">ğ‚</tspan>
      </text>
      <text
          id="48925ABB"
          style="stroke:none"
          font-family="Cambria Math"
          font-size="15"
          font-weight="normal"
          font-style="normal">
         <tspan x="45.7980326082" y="31.0078740163">ğ</tspan>
      </text>
      <text
          id="75C18ABB"
          style="stroke:none"
          font-family="Cambria Math"
          font-size="24"
          font-weight="normal"
          font-style="normal">
         <tspan x="176.191732284" y="28.6692913389">ğ‚</tspan>
      </text>
      <text
          id="A5C18ABB"
          style="stroke:none"
          font-family="Cambria Math"
          font-size="15"
          font-weight="normal"
          font-style="normal">
         <tspan x="187.530316073" y="31.0078740163">ğ</tspan>
      </text>
   </g>
</svg>
