<?xml version="1.0" encoding="UTF-8"?>
<!-- Created with EazyDraw for Mac ( http://www.eazydraw.com/ ) -->

<svg
    version="1.1"
    xmlns:dc="http://purl.org/dc/elements/1.1/"
    xmlns:cc="http://creativecommons.org/ns#"
    xmlns:rdf="http://www.w3.org/1999/02/22-rdf-syntax-ns#"
    xmlns:svg="http://www.w3.org/2000/svg"
    xmlns:xlink="http://www.w3.org/1999/xlink"
    xmlns="http://www.w3.org/2000/svg"
    width="535.251968504"
    height="188.078740158"
    viewBox="0, 0, 535.251968504, 188.078740158"
    preserveAspectRatio="none"
    id="svg2">
   <defs
       id="defs_F29259DC">
      <marker
          orient="auto"
          refX="0.0"
          refY="0.0"
          id="4217A3ED_end_arrow"
          style="overflow:visible"
          markerUnits="userSpaceOnUse">
         <path
             id="4217A3ED_end_arrow_path"
             style="fill:#000000;fill-opacity:1;stroke:#000000;stroke-opacity:1;fill-rule:nonzero;stroke-linecap:round;stroke-linejoin:miter;stroke-width:0.531496062992;stroke-miterlimit:10"
             d="M-45.3986244202,0 L-59.494013732,5.130302149885 L-59.494013732,5.130302149885 C-60.7001613163,1.816438897541 -60.7001613163,-1.816438897541 -59.494013732,-5.130302149885 z"/>
      </marker>
      <marker
          orient="auto"
          refX="0.0"
          refY="0.0"
          id="AC2CB8ED_end_arrow"
          style="overflow:visible"
          markerUnits="userSpaceOnUse">
         <path
             id="AC2CB8ED_end_arrow_path"
             style="fill:#000000;fill-opacity:1;stroke:#000000;stroke-opacity:1;fill-rule:nonzero;stroke-linecap:round;stroke-linejoin:round;stroke-width:0.531496062992"
             d="M-45.3986244202,0 L-59.494013732,5.130302149885 L-59.494013732,5.130302149885 C-60.7001613163,1.816438897541 -60.7001613163,-1.816438897541 -59.494013732,-5.130302149885 z"/>
      </marker>
      <marker
          orient="auto"
          refX="0.0"
          refY="0.0"
          id="DF6619ED_end_arrow"
          style="overflow:visible"
          markerUnits="userSpaceOnUse">
         <path
             id="DF6619ED_end_arrow_path"
             style="fill:#000000;fill-opacity:1;stroke:#000000;stroke-opacity:1;fill-rule:nonzero;stroke-linecap:round;stroke-linejoin:bevel;stroke-width:0.531496062992"
             d="M-45.3986244202,0 L-59.494013732,5.130302149885 L-59.494013732,5.130302149885 C-60.7001613163,1.816438897541 -60.7001613163,-1.816438897541 -59.494013732,-5.130302149885 z"/>
      </marker>
   </defs>
   <metadata
       id="metadata7">
      <rdf:RDF>
         <cc:Work
             rdf:about="">
            <dc:format>image/svg+xml</dc:format>
            <dc:type rdf:resource="http://purl.org/dc/dcmitype/StillImage"/>
            <dc:title></dc:title>
         </cc:Work>
      </rdf:RDF>
   </metadata>
   <g
       id="layer_Paper"
       style="fill:#000000;fill-opacity:1;stroke:#000000;stroke-opacity:1;fill-rule:nonzero;stroke-linecap:square;stroke-linejoin:miter;stroke-width:1;stroke-miterlimit:10">
      <path
          style="fill:none;stroke:#0F80FF;stroke-width:1.984251968504"
          id="1F642BED"
          d="M114.448818898,136.062992127 C115.162088191,135.798111348 115.934165807,135.511721052 116.639995291,135.227517614 C117.243850113,134.984374445 117.914905706,134.696929262 118.490617975,134.3920431 C118.899014049,134.175764383 119.383785114,133.885991471 119.713062266,133.556568587
C119.934808645,133.334724068 120.132016307,133.050838206 120.117335273,132.721094074 C120.102463119,132.387057281 119.874162241,132.101540098 119.640604687,131.885619561 C119.286539778,131.558291741 118.783347213,131.268721438 118.356964209,131.050145048
C117.765853617,130.747124481 117.082856331,130.45981918 116.465917872,130.214670535 C115.754749893,129.932078545 114.978684094,129.645723483 114.261373025,129.379196022 C113.552969397,129.115978252 112.785591955,128.829545621 112.085961106,128.543721509
C111.495822745,128.302628977 110.837295443,128.015032835 110.277785703,127.708246996 C109.887391307,127.494189109 109.421607473,127.204236105 109.117874324,126.872772483 C108.907651246,126.64335629 108.743246743,126.361253939 108.786500963,126.03729797
C108.831496032,125.700303765 109.089193611,125.41339136 109.33516783,125.201823457 C109.713258989,124.876618831 110.234333589,124.58726355 110.678600851,124.366348944 C111.284299812,124.065161442 111.978638642,123.777985296 112.60800301,123.530874431
C113.323647681,123.249886845 114.102984457,122.963560081 114.823505675,122.695399918 C115.526228522,122.433863868 116.288199942,122.147381601 116.980774339,121.859925405 C117.556591807,121.620929709 118.202017226,121.333171404 118.744525246,121.024450892
C119.117001344,120.812489027 119.563194018,120.522391845 119.840635368,120.188976379 C120.03917593,119.950380027 120.169142846,119.670075077 120.098746732,119.353501866 C120.023406958,119.014696878 119.737927939,118.726660621 119.478743544,118.518027352
C119.077391183,118.194954451 118.538957467,117.905819123 118.076987002,117.682552839 C117.457515451,117.383167659 116.752448558,117.096110329 116.111338795,116.847078326 C115.39208021,116.567690278 114.61019393,116.281385006 113.887300931,116.011603813
C113.191064132,115.751770622 112.435197523,115.46523119 111.750534465,115.1761293 C111.189567464,114.939258597 110.557827114,114.651332699 110.033136688,114.340654787 C109.678387007,114.130601612 109.252441943,113.840413597 109.002026403,113.505180274
C108.815841445,113.255932954 108.721817329,112.977259578 108.817459278,112.669705761 C108.923086079,112.330043862 109.234856563,112.04115411 109.508120824,111.834231248 C109.931966547,111.513284155 110.48724523,111.224368277 110.966668086,110.998756735
C111.599090647,110.701145081 112.314259166,110.414196631 112.966412934,110.163282222 C113.690242563,109.884790718 114.470264118,109.599900836 115.196554043,109.327807709 C115.885510497,109.069700981 116.634581454,108.783096591 117.310481789,108.492333196
C117.856059889,108.257632705 118.473565397,107.969528267 118.979648487,107.656858683 C119.316981763,107.448446552 119.721953527,107.158243218 119.944631429,106.82138417 C120.117148905,106.560405996 120.174056727,106.282982136 120.055452495,105.985909657
C119.91981106,105.646163453 119.583091913,105.356666722 119.29488782,105.150435144 C118.849319228,104.831597501 118.277707077,104.542896698 117.781144738,104.314960631 C117.136598437,104.019095767 116.411967185,103.732246667 115.749489941,103.479486117
C115.019572694,103.200994613 114.246883507,102.919305547 113.515684213,102.644011604 C112.834790263,102.387657446 112.09319698,102.100980013 111.426906735,101.808537091 C110.897219795,101.576051028 110.29448718,101.28775741 109.807796327,100.973062578
C109.487443977,100.765922403 109.10425919,100.475806681 108.90999592,100.137588065 C108.753049973,99.8643401119 108.733991321,99.5875953989 108.873042096,99.3021135522 C109.038266912,98.9628944008 109.398743192,98.6730018941 109.702678234,98.4666390391
C110.169196309,98.1498871398 110.756628339,97.8613943547 111.26996188,97.6311645261 C111.925799151,97.337021848 112.659242385,97.0502629619 113.331305042,96.795690013 C114.066511752,96.5171985087 114.831126044,96.2387070043 115.566332754,95.9602155
C116.238395411,95.7056425511 116.971838645,95.418883665 117.627675916,95.1247409869 C118.141009457,94.8945111583 118.728441487,94.6060183732 119.194959562,94.2892664739 C119.498894604,94.0829036189 119.859370884,93.7930111122 120.0245957,93.4537919608
C120.163646475,93.1683101141 120.144587822,92.8915654011 119.987641876,92.6183174477 C119.793378606,92.2800988315 119.410193819,91.9899831103 119.089841469,91.7828429347 C118.603150616,91.4681481031 118.000418001,91.1798544851 117.470731061,90.9473684216
C116.804440815,90.6549255001 116.062847533,90.3682480668 115.381953583,90.1118939086 C114.642261347,89.8334024042 113.886445809,89.5581084621 113.148147855,89.2764193955 C112.485670611,89.0236588461 111.761039359,88.7368097463 111.116493058,88.4409448825
C110.619930719,88.2130088151 110.048318568,87.9243080121 109.602749976,87.6054703694 C109.314545883,87.3992387912 108.977826736,87.1097420596 108.842185301,86.7699958564 C108.723581069,86.4729233774 108.780488891,86.1954995174 108.953006367,85.9345213433
C109.175684269,85.5976622951 109.580656033,85.3074589614 109.917989309,85.0990468303 C110.424072399,84.7863772458 111.041577907,84.4982728082 111.587156007,84.2635723172 C112.263056342,83.9728089221 113.012127299,83.6862045322 113.701083753,83.4280978041
C114.444452672,83.1496062998 115.190765156,82.8775131727 115.931224862,82.5926232911 C116.58337863,82.3417088819 117.298547149,82.0547604323 117.93096971,81.757148778 C118.410392566,81.531537236 118.965671249,81.2426213582 119.389516972,80.921674265
C119.662781233,80.7147514025 119.974551717,80.4258616511 120.080178518,80.0861997519 C120.175820467,79.7786459353 120.081796351,79.4999725591 119.895611393,79.2507252389 C119.645195853,78.9154919162 119.219250789,78.6253039011 118.864501108,78.4152507258
C118.339810682,78.1045728139 117.708070332,77.816646916 117.147103331,77.5797762128 C116.462440273,77.2906743229 115.706573664,77.0041348906 115.010336865,76.7443016997 C114.287443866,76.4745205065 113.505557586,76.1882152353 112.786299001,75.9088271867
C112.145189238,75.6597951842 111.440122345,75.3727378542 110.820650794,75.0733526736 C110.358680329,74.8500863895 109.820246613,74.5609510624 109.418894252,74.2378781605 C109.159709857,74.0292448921 108.874230838,73.7412086347 108.798891064,73.4024036475
C108.72849495,73.085830436 108.858461866,72.8055254859 109.057002428,72.5669291344 C109.334443778,72.233513668 109.780636452,71.943416486 110.15311255,71.7314546214 C110.69562057,71.4227341093 111.341045989,71.1349758038 111.916863457,70.8959801083
C112.609437854,70.6085239116 113.371409274,70.3220416447 114.074132121,70.0605055953 C114.794653339,69.7923454324 115.573990115,69.5060186676 116.289634786,69.2250310822 C116.918999154,68.9779202169 117.613337984,68.6907440712 118.219036945,68.3895565692
C118.663304207,68.1686419634 119.184378807,67.8792866823 119.562469966,67.5540820561 C119.808444185,67.3425141531 120.066141764,67.0556017477 120.111136833,66.7186075431 C120.154391053,66.3946515735 119.98998655,66.112549223 119.779763472,65.88313303
C119.476030323,65.5516694077 119.010246489,65.2617164037 118.619852092,65.0476585169 C118.060342353,64.740872678 117.401815051,64.4532765355 116.81167669,64.2121840039 C116.112045841,63.9263598922 115.344668399,63.6399272608 114.636264771,63.3767094908
C113.918953702,63.1101820298 113.142887903,62.8238269678 112.431719923,62.5412349778 C111.814781465,62.2960863328 111.131784179,62.0087810317 110.540673587,61.7057604647 C110.114290583,61.4871840746 109.611098018,61.1976137719 109.257033109,60.8702859517
C109.023475555,60.6543654152 108.795174677,60.3688482323 108.780302523,60.0348114386 C108.765621489,59.7050673073 108.962829151,59.4211814451 109.18457553,59.1993369256 C109.513852682,58.8699140416 109.998623746,58.5801411304 110.407019821,58.3638624125
C110.98273209,58.0589762513 111.653787683,57.7715310676 112.257642505,57.5283878994 C112.963471989,57.2441844608 113.735549605,56.9577941651 114.448818898,56.6929133864"/>
      <line
          style="fill:none;stroke-linecap:round;stroke-width:2.125984251969;marker-end:url(#4217A3ED_end_arrow)"
          id="4217A3ED"
          x1="1.062992125984"
          y1="28.3464566935"
          x2="114.448818898"
          y2="56.6929133865"/>
      <line
          style="fill:none;stroke-linecap:round;stroke-width:2.125984251969;marker-end:url(#4217A3ED_end_arrow)"
          id="2E2418ED"
          x1="114.448818898"
          y1="56.6929133865"
          x2="227.83464567"
          y2="28.3464566935"/>
      <line
          style="fill:none;stroke-linecap:round;stroke-linejoin:round;stroke-width:2.125984251969;marker-end:url(#AC2CB8ED_end_arrow)"
          id="AC2CB8ED"
          x1="1.062992125984"
          y1="164.409448819"
          x2="114.448818898"
          y2="136.062992126"/>
      <line
          style="fill:none;stroke-linecap:round;stroke-linejoin:bevel;stroke-width:2.125984251969;marker-end:url(#DF6619ED_end_arrow)"
          id="DF6619ED"
          x1="114.448818898"
          y1="136.062992126"
          x2="227.83464567"
          y2="164.409448819"/>
      <text
          id="2F5BA32E"
          style="stroke:none"
          font-family="Cambria Math"
          font-size="24"
          font-weight="normal"
          font-style="normal">
         <tspan x="40.0787401578" y="23.0000000003">ğ‚</tspan>
         <tspan font-size="12">ğ</tspan>
      </text>
      <text
          id="A323762E"
          style="fill:#0F80FF;stroke:none"
          font-family="Cambria Math"
          font-size="24"
          font-weight="normal"
          font-style="normal">
         <tspan x="125.118110237" y="99.7007874018">Z</tspan>
         <tspan>0</tspan>
      </text>
      <text
          id="1CFBB62E"
          style="stroke:none"
          font-family="Cambria Math"
          font-size="24"
          font-weight="normal"
          font-style="normal">
         <tspan x="40.0787401578" y="142.055118111">d</tspan>
      </text>
      <text
          id="416EE72E"
          style="stroke:none"
          font-family="Cambria Math"
          font-size="24"
          font-weight="normal"
          font-style="normal">
         <tspan x="176.141732284" y="142.055118111">d</tspan>
      </text>
      <text
          id="2B09F92E"
          style="fill:#4C4C4C;stroke:none"
          font-family="Avenir Next"
          font-size="9"
          font-weight="normal"
          font-style="normal">
         <tspan x="414.251968504" y="179.078740158">Â© J. A. Aguilar 2018</tspan>
      </text>
      <text
          id="6AD3B4AC"
          style="stroke:none"
          font-family="Cambria Math"
          font-size="24"
          font-weight="normal"
          font-style="normal">
         <tspan x="164.803149607" y="23.0000000003">ğ‚</tspan>
         <tspan font-size="12">ğ</tspan>
      </text>
      <path
          style="fill:none;stroke:#0F80FF;stroke-width:1.984251968504"
          id="16F825AC"
          d="M386.574802038,136.062992126 C387.288071331,135.798111348 388.060148947,135.511721052 388.765978431,135.227517613 C389.369833253,134.984374445 390.040888846,134.696929261 390.616601115,134.3920431 C391.02499719,134.175764382 391.509768254,133.885991471 391.839045406,133.556568587
C392.060791785,133.334724068 392.257999447,133.050838205 392.243318413,132.721094074 C392.228446259,132.38705728 392.000145381,132.101540097 391.766587827,131.885619561 C391.412522918,131.558291741 390.909330353,131.268721438 390.48294735,131.050145048
C389.891836757,130.747124481 389.208839471,130.45981918 388.591901013,130.214670535 C387.880733033,129.932078545 387.104667234,129.645723483 386.387356165,129.379196022 C385.678952538,129.115978252 384.911575096,128.82954562 384.211944246,128.543721509
C383.621805886,128.302628977 382.963278583,128.015032835 382.403768844,127.708246996 C382.013374447,127.494189109 381.547590614,127.204236105 381.243857464,126.872772483 C381.033634387,126.64335629 380.869229883,126.361253939 380.912484103,126.03729797
C380.957479172,125.700303765 381.215176752,125.41339136 381.46115097,125.201823457 C381.839242129,124.87661883 382.360316729,124.587263549 382.804583992,124.366348944 C383.410282952,124.065161441 384.104621782,123.777985296 384.73398615,123.53087443
C385.449630821,123.249886845 386.228967597,122.96356008 386.949488816,122.695399917 C387.652211662,122.433863868 388.414183082,122.147381601 389.106757479,121.859925404 C389.682574947,121.620929709 390.328000366,121.333171403 390.870508386,121.024450891
C391.242984484,120.812489027 391.689177159,120.522391845 391.966618509,120.188976378 C392.16515907,119.950380027 392.295125986,119.670075077 392.224729873,119.353501865 C392.149390098,119.014696878 391.863911079,118.726660621 391.604726684,118.518027352
C391.203374323,118.19495445 390.664940607,117.905819123 390.202970142,117.682552839 C389.583498591,117.383167658 388.878431698,117.096110329 388.237321935,116.847078326 C387.51806335,116.567690277 386.73617707,116.281385006 386.013284071,116.011603813
C385.317047272,115.751770622 384.561180663,115.46523119 383.876517605,115.1761293 C383.315550604,114.939258597 382.683810254,114.651332699 382.159119828,114.340654787 C381.804370147,114.130601612 381.378425083,113.840413596 381.128009543,113.505180274
C380.941824585,113.255932954 380.847800469,112.977259577 380.943442418,112.669705761 C381.04906922,112.330043862 381.360839703,112.04115411 381.634103964,111.834231248 C382.057949688,111.513284155 382.61322837,111.224368277 383.092651226,110.998756735
C383.725073787,110.70114508 384.440242306,110.414196631 385.092396074,110.163282222 C385.816225703,109.884790717 386.596247258,109.599900836 387.322537183,109.327807709 C388.011493637,109.06970098 388.760564594,108.783096591 389.436464929,108.492333195
C389.982043029,108.257632704 390.599548537,107.969528267 391.105631627,107.656858682 C391.442964903,107.448446551 391.847936667,107.158243218 392.070614569,106.821384169 C392.243132045,106.560405995 392.300039867,106.282982135 392.181435635,105.985909656
C392.0457942,105.646163453 391.709075053,105.356666722 391.42087096,105.150435143 C390.975302368,104.831597501 390.403690218,104.542896698 389.907127878,104.31496063 C389.262581577,104.019095766 388.537950325,103.732246667 387.875473081,103.479486117
C387.145555834,103.200994613 386.372866648,102.919305546 385.641667353,102.644011604 C384.960773403,102.387657446 384.219180121,102.100980013 383.552889875,101.808537091 C383.023202935,101.576051028 382.42047032,101.28775741 381.933779467,100.973062578
C381.613427117,100.765922402 381.230242331,100.475806681 381.03597906,100.137588065 C380.879033114,99.8643401116 380.859974461,99.5875953986 380.999025236,99.3021135519 C381.164250052,98.9628944005 381.524726332,98.6730018938 381.828661374,98.4666390388
C382.295179449,98.1498871395 382.882611479,97.8613943544 383.39594502,97.6311645258 C384.051782291,97.3370218477 384.785225525,97.0502629616 385.457288182,96.7956900127 C386.192494892,96.5171985084 386.957109185,96.238707004 387.692315895,95.9602154997
C388.364378551,95.7056425508 389.097821785,95.4188836647 389.753659056,95.1247409866 C390.266992597,94.894511158 390.854424627,94.6060183729 391.320942702,94.2892664736 C391.624877744,94.0829036186 391.985354024,93.7930111119 392.150578841,93.4537919605
C392.289629615,93.1683101138 392.270570963,92.8915654008 392.113625016,92.6183174475 C391.919361746,92.2800988312 391.536176959,91.98998311 391.21582461,91.7828429344 C390.729133756,91.4681481028 390.126401141,91.1798544848 389.596714201,90.9473684213
C388.930423956,90.6549254998 388.188830673,90.3682480665 387.507936723,90.1118939083 C386.768244488,89.8334024039 386.012428949,89.5581084618 385.274130995,89.2764193952 C384.611653751,89.0236588458 383.887022499,88.736809746 383.242476198,88.4409448822
C382.745913859,88.2130088148 382.174301708,87.9243080118 381.728733116,87.6054703691 C381.440529023,87.3992387909 381.103809876,87.1097420593 380.968168441,86.7699958561 C380.849564209,86.4729233771 380.906472032,86.1954995172 381.078989507,85.934521343
C381.30166741,85.5976622948 381.706639173,85.3074589611 382.043972449,85.09904683 C382.550055539,84.7863772455 383.167561047,84.4982728079 383.713139147,84.2635723169 C384.389039482,83.9728089218 385.138110439,83.6862045319 385.827066893,83.4280978039
C386.570435812,83.1496062995 387.316748297,82.8775131724 388.057208003,82.5926232908 C388.70936177,82.3417088816 389.424530289,82.054760432 390.05695285,81.7571487777 C390.536375706,81.5315372357 391.091654389,81.2426213579 391.515500112,80.9216742647
C391.788764374,80.7147514022 392.100534857,80.4258616508 392.206161658,80.0861997516 C392.301803607,79.778645935 392.207779491,79.4999725588 392.021594533,79.2507252386 C391.771178993,78.9154919159 391.345233929,78.6253039008 390.990484249,78.4152507255
C390.465793822,78.1045728136 389.834053472,77.8166469157 389.273086471,77.5797762125 C388.588423413,77.2906743226 387.832556804,77.0041348903 387.136320005,76.7443016994 C386.413427007,76.4745205062 385.631540726,76.188215235 384.912282141,75.9088271864
C384.271172378,75.6597951839 383.566105486,75.3727378539 382.946633935,75.0733526733 C382.484663469,74.8500863892 381.946229753,74.5609510621 381.544877393,74.2378781602 C381.285692997,74.0292448918 381.000213978,73.7412086344 380.924874204,73.4024036472
C380.85447809,73.0858304357 380.984445006,72.8055254856 381.182985568,72.5669291341 C381.460426918,72.2335136677 381.906619592,71.9434164857 382.27909569,71.7314546211 C382.82160371,71.422734109 383.467029129,71.1349758035 384.042846598,70.895980108
C384.735420994,70.6085239113 385.497392414,70.3220416444 386.200115261,70.060505595 C386.920636479,69.7923454321 387.699973255,69.5060186673 388.415617926,69.2250310819 C389.044982294,68.9779202166 389.739321124,68.6907440709 390.345020085,68.3895565689
C390.789287347,68.1686419631 391.310361948,67.879286682 391.688453107,67.5540820558 C391.934427325,67.3425141528 392.192124904,67.0556017474 392.237119973,66.7186075428 C392.280374193,66.3946515733 392.11596969,66.1125492227 391.905746612,65.8831330297
C391.602013463,65.5516694074 391.136229629,65.2617164034 390.745835233,65.0476585166 C390.186325493,64.7408726777 389.527798191,64.4532765352 388.93765983,64.2121840036 C388.238028981,63.9263598919 387.470651539,63.6399272605 386.762247912,63.3767094905
C386.044936842,63.1101820295 385.268871044,62.8238269675 384.557703064,62.5412349775 C383.940764605,62.2960863325 383.257767319,62.0087810314 382.666656727,61.7057604644 C382.240273723,61.4871840743 381.737081158,61.1976137716 381.383016249,60.8702859514
C381.149458695,60.6543654149 380.921157817,60.368848232 380.906285663,60.0348114383 C380.891604629,59.705067307 381.088812291,59.4211814448 381.31055867,59.1993369253 C381.639835822,58.8699140413 382.124606887,58.5801411301 382.533002961,58.3638624122
C383.10871523,58.0589762511 383.779770823,57.7715310673 384.383625645,57.5283878992 C385.089455129,57.2441844605 385.861532745,56.9577941648 386.574802038,56.6929133861"/>
      <line
          style="fill:none;stroke-linecap:round;stroke-width:2.125984251969;marker-end:url(#4217A3ED_end_arrow)"
          id="36F825AC"
          x1="273.188975266"
          y1="28.3464566932"
          x2="386.574802038"
          y2="56.6929133862"/>
      <line
          style="fill:none;stroke-linecap:round;stroke-width:2.125984251969;marker-end:url(#4217A3ED_end_arrow)"
          id="46F825AC"
          x1="386.574802038"
          y1="56.6929133862"
          x2="499.96062881"
          y2="28.3464566932"/>
      <line
          style="fill:none;stroke-linecap:round;stroke-linejoin:round;stroke-width:2.125984251969;marker-end:url(#AC2CB8ED_end_arrow)"
          id="56F825AC"
          x1="273.188975266"
          y1="164.409448819"
          x2="386.574802038"
          y2="136.062992126"/>
      <line
          style="fill:none;stroke-linecap:round;stroke-linejoin:bevel;stroke-width:2.125984251969;marker-end:url(#DF6619ED_end_arrow)"
          id="66F825AC"
          x1="386.574802038"
          y1="136.062992126"
          x2="499.96062881"
          y2="164.409448819"/>
      <text
          id="76F825AC"
          style="stroke:none"
          font-family="Cambria Math"
          font-size="24"
          font-weight="normal"
          font-style="normal">
         <tspan x="312.204723298" y="23">ğ‚</tspan>
         <tspan font-size="12">ğ</tspan>
      </text>
      <text
          id="86F825AC"
          style="fill:#0F80FF;stroke:none"
          font-family="Cambria Math"
          font-size="24"
          font-weight="normal"
          font-style="normal">
         <tspan x="397.244093377" y="96.7007874012">W</tspan>
      </text>
      <text
          id="96F825AC"
          style="stroke:none"
          font-family="Cambria Math"
          font-size="24"
          font-weight="normal"
          font-style="normal">
         <tspan x="312.204723298" y="142.05511811">d</tspan>
      </text>
      <text
          id="A6F825AC"
          style="stroke:none"
          font-family="Cambria Math"
          font-size="24"
          font-weight="normal"
          font-style="normal">
         <tspan x="448.267715424" y="142.05511811">u</tspan>
      </text>
      <text
          id="B6F825AC"
          style="stroke:none"
          font-family="Cambria Math"
          font-size="24"
          font-weight="normal"
          font-style="normal">
         <tspan x="436.929132747" y="23">ğ</tspan>
      </text>
   </g>
</svg>
