<?xml version="1.0" encoding="UTF-8"?>
<!-- Created with EazyDraw for Mac ( http://www.eazydraw.com/ ) -->

<svg
    version="1.1"
    xmlns:dc="http://purl.org/dc/elements/1.1/"
    xmlns:cc="http://creativecommons.org/ns#"
    xmlns:rdf="http://www.w3.org/1999/02/22-rdf-syntax-ns#"
    xmlns:svg="http://www.w3.org/2000/svg"
    xmlns:xlink="http://www.w3.org/1999/xlink"
    xmlns="http://www.w3.org/2000/svg"
    width="361.351190395"
    height="293.131822479"
    viewBox="0, 0, 361.351190395, 293.131822479"
    preserveAspectRatio="none"
    id="svg2">
   <defs
       id="defs_25EE02ED"/>
   <metadata
       id="metadata7">
      <rdf:RDF>
         <cc:Work
             rdf:about="">
            <dc:format>image/svg+xml</dc:format>
            <dc:type rdf:resource="http://purl.org/dc/dcmitype/StillImage"/>
            <dc:title></dc:title>
         </cc:Work>
      </rdf:RDF>
   </metadata>
   <g
       id="layer_Paper"
       style="fill:#000000;fill-opacity:1;stroke:#000000;stroke-opacity:1;fill-rule:nonzero;stroke-linecap:square;stroke-linejoin:miter;stroke-width:1;stroke-miterlimit:10">
      <circle
          style="fill:none;stroke:#191919;stroke-width:2"
          id="DF656659"
          cx="137.062992125"
          cy="137.062992125"
          r="136.062992125"/>
      <circle
          style="fill:none;stroke:#191919;stroke-width:2"
          id="973C5459"
          cx="137.062992125"
          cy="137.062992125"
          r="96.3779527565"/>
      <path
          id="C8781BDA_join"
          d=""/>
      <circle
          style="fill:none;stroke:#191919;stroke-width:2;stroke-dasharray:10,10"
          id="3290180B"
          cx="137.062992126"
          cy="137.062992126"
          r="56.692913386"/>
      <text
          id="11D1838A"
          style="fill:#A9A9A9;stroke:none"
          font-family="Helvetica Neue"
          font-size="9"
          font-weight="normal"
          font-style="normal">
         <tspan x="221.784261261" y="259.612137439">J. A. Aguilar 2018</tspan>
      </text>
      <g
          id="D8EB4BFC">
         <line
             style="fill:none;stroke:#FFFF0A;stroke-linecap:round;stroke-width:2"
             id="21810AFC"
             x1="164.904701436"
             y1="54.240863844"
             x2="144.949525261"
             y2="74.196040019"/>
         <line
             style="fill:none;stroke:#FFFF66;stroke-linecap:round;stroke-width:2"
             id="41810AFC"
             x1="144.949525261"
             y1="54.240863844"
             x2="164.904701436"
             y2="74.196040019"/>
         <g
             id="71810AFC">
            <line
                style="fill:none;stroke:#FD8008;stroke-linecap:round;stroke-width:2"
                id="51810AFC"
                x1="150.223633218"
                y1="56.071785373"
                x2="159.63059348"
                y2="72.365118491"/>
            <line
                style="fill:none;stroke:#FD8008;stroke-linecap:round;stroke-width:2"
                id="61810AFC"
                x1="163.073779909"
                y1="59.514971801"
                x2="146.780446789"
                y2="68.921932063"/>
         </g>
         <g
             id="A1810AFC">
            <line
                style="fill:none;stroke:#FD8008;stroke-linecap:round;stroke-width:2"
                id="81810AFC"
                x1="159.63059348"
                y1="56.071785373"
                x2="150.223633218"
                y2="72.365118491"/>
            <line
                style="fill:none;stroke:#FD8008;stroke-linecap:round;stroke-width:2"
                id="91810AFC"
                x1="163.073779909"
                y1="68.921932063"
                x2="146.780446789"
                y2="59.514971801"/>
         </g>
         <line
             style="fill:none;stroke:#FECC66;stroke-linecap:round;stroke-width:2"
             id="C1810AFC"
             x1="154.927113349"
             y1="74.196040019"
             x2="154.927113349"
             y2="54.240863844"/>
         <line
             style="fill:none;stroke:#FECC66;stroke-linecap:round;stroke-width:2"
             id="D1810AFC"
             x1="144.949525261"
             y1="64.218451932"
             x2="164.904701436"
             y2="64.218451932"/>
         <circle
             style="fill:#FECC66;stroke:none"
             id="E1810AFC"
             cx="154.92711335"
             cy="64.2184519322"
             r="3.32586319617"/>
         <line
             style="fill:none;stroke:#FECC66;stroke-linecap:round;stroke-width:2"
             id="F1810AFC"
             x1="154.927113349"
             y1="53.132242946"
             x2="154.927113349"
             y2="52.023622047"/>
         <line
             style="fill:none;stroke:#FECC66;stroke-linecap:round;stroke-width:2"
             id="02810AFC"
             x1="142.732283465"
             y1="64.218451932"
             x2="143.840904363"
             y2="64.218451932"/>
         <line
             style="fill:none;stroke:#FECC66;stroke-linecap:round;stroke-width:2"
             id="12810AFC"
             x1="166.013322335"
             y1="64.218451932"
             x2="167.121943234"
             y2="64.218451932"/>
         <line
             style="fill:none;stroke:#FECC66;stroke-linecap:round;stroke-width:2"
             id="22810AFC"
             x1="154.927113349"
             y1="75.304660918"
             x2="154.927113349"
             y2="76.413281817"/>
         <line
             style="fill:none;stroke:#FFFF66;stroke-linecap:round;stroke-width:2"
             id="32810AFC"
             x1="142.732283465"
             y1="52.023622047"
             x2="143.840904363"
             y2="53.132242946"/>
         <line
             style="fill:none;stroke:#FFFF66;stroke-linecap:round;stroke-width:2"
             id="42810AFC"
             x1="167.121943233"
             y1="52.023622047"
             x2="166.013322335"
             y2="53.132242946"/>
         <line
             style="fill:none;stroke:#FFFF66;stroke-linecap:round;stroke-width:2"
             id="52810AFC"
             x1="143.840904362"
             y1="75.304660918"
             x2="142.732283465"
             y2="76.413281817"/>
         <line
             style="fill:none;stroke:#FFFF66;stroke-linecap:round;stroke-width:2"
             id="62810AFC"
             x1="166.013322335"
             y1="75.304660918"
             x2="167.121943233"
             y2="76.413281817"/>
      </g>
      <g
          id="0DF35DFC">
         <line
             style="fill:none;stroke:#FFFF0A;stroke-linecap:round;stroke-width:2"
             id="CBF35DFC"
             x1="40.1802919877"
             y1="82.587320537"
             x2="20.2251158127"
             y2="102.542496712"/>
         <line
             style="fill:none;stroke:#FFFF66;stroke-linecap:round;stroke-width:2"
             id="DBF35DFC"
             x1="20.2251158127"
             y1="82.587320537"
             x2="40.1802919877"
             y2="102.542496712"/>
         <g
             id="1CF35DFC">
            <line
                style="fill:none;stroke:#FD8008;stroke-linecap:round;stroke-width:2"
                id="FBF35DFC"
                x1="25.4992237697"
                y1="84.418242065"
                x2="34.9061840317"
                y2="100.711575184"/>
            <line
                style="fill:none;stroke:#FD8008;stroke-linecap:round;stroke-width:2"
                id="0CF35DFC"
                x1="38.3493704597"
                y1="87.861428493"
                x2="22.0560373407"
                y2="97.268388755"/>
         </g>
         <g
             id="4CF35DFC">
            <line
                style="fill:none;stroke:#FD8008;stroke-linecap:round;stroke-width:2"
                id="2CF35DFC"
                x1="34.9061840317"
                y1="84.418242065"
                x2="25.4992237697"
                y2="100.711575184"/>
            <line
                style="fill:none;stroke:#FD8008;stroke-linecap:round;stroke-width:2"
                id="3CF35DFC"
                x1="38.3493704597"
                y1="97.268388755"
                x2="22.0560373407"
                y2="87.861428493"/>
         </g>
         <line
             style="fill:none;stroke:#FECC66;stroke-linecap:round;stroke-width:2"
             id="5CF35DFC"
             x1="30.2027039007"
             y1="102.542496712"
             x2="30.2027039007"
             y2="82.587320537"/>
         <line
             style="fill:none;stroke:#FECC66;stroke-linecap:round;stroke-width:2"
             id="6CF35DFC"
             x1="20.2251158127"
             y1="92.564908624"
             x2="40.1802919877"
             y2="92.564908624"/>
         <circle
             style="fill:#FECC66;stroke:none"
             id="7CF35DFC"
             cx="30.2027039009"
             cy="92.5649086242"
             r="3.32586319617"/>
         <line
             style="fill:none;stroke:#FECC66;stroke-linecap:round;stroke-width:2"
             id="8CF35DFC"
             x1="30.2027039007"
             y1="81.478699638"
             x2="30.2027039007"
             y2="80.37007874"/>
         <line
             style="fill:none;stroke:#FECC66;stroke-linecap:round;stroke-width:2"
             id="9CF35DFC"
             x1="18.0078740157"
             y1="92.564908624"
             x2="19.1164949147"
             y2="92.564908624"/>
         <line
             style="fill:none;stroke:#FECC66;stroke-linecap:round;stroke-width:2"
             id="ACF35DFC"
             x1="41.2889128867"
             y1="92.564908624"
             x2="42.3975337857"
             y2="92.564908624"/>
         <line
             style="fill:none;stroke:#FECC66;stroke-linecap:round;stroke-width:2"
             id="BCF35DFC"
             x1="30.2027039007"
             y1="103.65111761"
             x2="30.2027039007"
             y2="104.759738509"/>
         <line
             style="fill:none;stroke:#FFFF66;stroke-linecap:round;stroke-width:2"
             id="CCF35DFC"
             x1="18.0078740157"
             y1="80.37007874"
             x2="19.1164949147"
             y2="81.478699638"/>
         <line
             style="fill:none;stroke:#FFFF66;stroke-linecap:round;stroke-width:2"
             id="DCF35DFC"
             x1="42.3975337847"
             y1="80.37007874"
             x2="41.2889128867"
             y2="81.478699638"/>
         <line
             style="fill:none;stroke:#FFFF66;stroke-linecap:round;stroke-width:2"
             id="ECF35DFC"
             x1="19.1164949137"
             y1="103.65111761"
             x2="18.0078740157"
             y2="104.759738509"/>
         <line
             style="fill:none;stroke:#FFFF66;stroke-linecap:round;stroke-width:2"
             id="FCF35DFC"
             x1="41.2889128867"
             y1="103.65111761"
             x2="42.3975337847"
             y2="104.759738509"/>
      </g>
      <g
          id="07B9DDFC">
         <line
             style="fill:none;stroke:#FFFF0A;stroke-linecap:round;stroke-width:2"
             id="C5B9DDFC"
             x1="164.904701436"
             y1="241.327478017"
             x2="144.949525261"
             y2="261.282654192"/>
         <line
             style="fill:none;stroke:#FFFF66;stroke-linecap:round;stroke-width:2"
             id="E5B9DDFC"
             x1="144.949525261"
             y1="241.327478017"
             x2="164.904701436"
             y2="261.282654192"/>
         <g
             id="16B9DDFC">
            <line
                style="fill:none;stroke:#FD8008;stroke-linecap:round;stroke-width:2"
                id="F5B9DDFC"
                x1="150.223633218"
                y1="243.158399545"
                x2="159.63059348"
                y2="259.451732664"/>
            <line
                style="fill:none;stroke:#FD8008;stroke-linecap:round;stroke-width:2"
                id="06B9DDFC"
                x1="163.073779909"
                y1="246.601585973"
                x2="146.780446789"
                y2="256.008546235"/>
         </g>
         <g
             id="46B9DDFC">
            <line
                style="fill:none;stroke:#FD8008;stroke-linecap:round;stroke-width:2"
                id="26B9DDFC"
                x1="159.63059348"
                y1="243.158399545"
                x2="150.223633218"
                y2="259.451732664"/>
            <line
                style="fill:none;stroke:#FD8008;stroke-linecap:round;stroke-width:2"
                id="36B9DDFC"
                x1="163.073779909"
                y1="256.008546235"
                x2="146.780446789"
                y2="246.601585973"/>
         </g>
         <line
             style="fill:none;stroke:#FECC66;stroke-linecap:round;stroke-width:2"
             id="56B9DDFC"
             x1="154.927113349"
             y1="261.282654192"
             x2="154.927113349"
             y2="241.327478017"/>
         <line
             style="fill:none;stroke:#FECC66;stroke-linecap:round;stroke-width:2"
             id="66B9DDFC"
             x1="144.949525261"
             y1="251.305066104"
             x2="164.904701436"
             y2="251.305066104"/>
         <circle
             style="fill:#FECC66;stroke:none"
             id="76B9DDFC"
             cx="154.92711335"
             cy="251.305066104"
             r="3.32586319617"/>
         <line
             style="fill:none;stroke:#FECC66;stroke-linecap:round;stroke-width:2"
             id="86B9DDFC"
             x1="154.927113349"
             y1="240.218857118"
             x2="154.927113349"
             y2="239.11023622"/>
         <line
             style="fill:none;stroke:#FECC66;stroke-linecap:round;stroke-width:2"
             id="96B9DDFC"
             x1="142.732283465"
             y1="251.305066104"
             x2="143.840904363"
             y2="251.305066104"/>
         <line
             style="fill:none;stroke:#FECC66;stroke-linecap:round;stroke-width:2"
             id="A6B9DDFC"
             x1="166.013322335"
             y1="251.305066104"
             x2="167.121943234"
             y2="251.305066104"/>
         <line
             style="fill:none;stroke:#FECC66;stroke-linecap:round;stroke-width:2"
             id="B6B9DDFC"
             x1="154.927113349"
             y1="262.39127509"
             x2="154.927113349"
             y2="263.499895989"/>
         <line
             style="fill:none;stroke:#FFFF66;stroke-linecap:round;stroke-width:2"
             id="C6B9DDFC"
             x1="142.732283465"
             y1="239.11023622"
             x2="143.840904363"
             y2="240.218857118"/>
         <line
             style="fill:none;stroke:#FFFF66;stroke-linecap:round;stroke-width:2"
             id="D6B9DDFC"
             x1="167.121943233"
             y1="239.11023622"
             x2="166.013322335"
             y2="240.218857118"/>
         <line
             style="fill:none;stroke:#FFFF66;stroke-linecap:round;stroke-width:2"
             id="E6B9DDFC"
             x1="143.840904362"
             y1="262.39127509"
             x2="142.732283465"
             y2="263.499895989"/>
         <line
             style="fill:none;stroke:#FFFF66;stroke-linecap:round;stroke-width:2"
             id="F6B9DDFC"
             x1="166.013322335"
             y1="262.39127509"
             x2="167.121943233"
             y2="263.499895989"/>
      </g>
      <g
          id="19820EFC">
         <line
             style="fill:none;stroke:#FFFF0A;stroke-linecap:round;stroke-width:2"
             id="C7820EFC"
             x1="261.282654192"
             y1="127.941651246"
             x2="241.327478017"
             y2="147.896827421"/>
         <line
             style="fill:none;stroke:#FFFF66;stroke-linecap:round;stroke-width:2"
             id="E7820EFC"
             x1="241.327478017"
             y1="127.941651246"
             x2="261.282654192"
             y2="147.896827421"/>
         <g
             id="18820EFC">
            <line
                style="fill:none;stroke:#FD8008;stroke-linecap:round;stroke-width:2"
                id="F7820EFC"
                x1="246.601585975"
                y1="129.772572774"
                x2="256.008546237"
                y2="146.065905893"/>
            <line
                style="fill:none;stroke:#FD8008;stroke-linecap:round;stroke-width:2"
                id="08820EFC"
                x1="259.451732665"
                y1="133.215759202"
                x2="243.158399545"
                y2="142.622719464"/>
         </g>
         <g
             id="48820EFC">
            <line
                style="fill:none;stroke:#FD8008;stroke-linecap:round;stroke-width:2"
                id="28820EFC"
                x1="256.008546237"
                y1="129.772572774"
                x2="246.601585975"
                y2="146.065905893"/>
            <line
                style="fill:none;stroke:#FD8008;stroke-linecap:round;stroke-width:2"
                id="38820EFC"
                x1="259.451732665"
                y1="142.622719464"
                x2="243.158399545"
                y2="133.215759202"/>
         </g>
         <line
             style="fill:none;stroke:#FECC66;stroke-linecap:round;stroke-width:2"
             id="58820EFC"
             x1="251.305066106"
             y1="147.896827421"
             x2="251.305066106"
             y2="127.941651246"/>
         <line
             style="fill:none;stroke:#FECC66;stroke-linecap:round;stroke-width:2"
             id="68820EFC"
             x1="241.327478017"
             y1="137.919239333"
             x2="261.282654192"
             y2="137.919239333"/>
         <circle
             style="fill:#FECC66;stroke:none"
             id="78820EFC"
             cx="251.305066106"
             cy="137.919239333"
             r="3.32586319617"/>
         <line
             style="fill:none;stroke:#FECC66;stroke-linecap:round;stroke-width:2"
             id="88820EFC"
             x1="251.305066106"
             y1="126.833030347"
             x2="251.305066106"
             y2="125.724409449"/>
         <line
             style="fill:none;stroke:#FECC66;stroke-linecap:round;stroke-width:2"
             id="98820EFC"
             x1="239.110236221"
             y1="137.919239333"
             x2="240.218857119"
             y2="137.919239333"/>
         <line
             style="fill:none;stroke:#FECC66;stroke-linecap:round;stroke-width:2"
             id="A8820EFC"
             x1="262.391275092"
             y1="137.919239333"
             x2="263.499895991"
             y2="137.919239333"/>
         <line
             style="fill:none;stroke:#FECC66;stroke-linecap:round;stroke-width:2"
             id="C8820EFC"
             x1="251.305066106"
             y1="149.005448319"
             x2="251.305066106"
             y2="150.114069218"/>
         <line
             style="fill:none;stroke:#FFFF66;stroke-linecap:round;stroke-width:2"
             id="D8820EFC"
             x1="239.110236221"
             y1="125.724409449"
             x2="240.218857119"
             y2="126.833030347"/>
         <line
             style="fill:none;stroke:#FFFF66;stroke-linecap:round;stroke-width:2"
             id="E8820EFC"
             x1="263.49989599"
             y1="125.724409449"
             x2="262.391275092"
             y2="126.833030347"/>
         <line
             style="fill:none;stroke:#FFFF66;stroke-linecap:round;stroke-width:2"
             id="F8820EFC"
             x1="240.218857118"
             y1="149.005448319"
             x2="239.110236221"
             y2="150.114069218"/>
         <line
             style="fill:none;stroke:#FFFF66;stroke-linecap:round;stroke-width:2"
             id="09820EFC"
             x1="262.391275092"
             y1="149.005448319"
             x2="263.49989599"
             y2="150.114069218"/>
      </g>
      <g
          id="B3373EFC">
         <line
             style="fill:none;stroke:#FFFF0A;stroke-linecap:round;stroke-width:2"
             id="72373EFC"
             x1="102.542496712"
             y1="190.30385597"
             x2="82.5873205375"
             y2="210.259032145"/>
         <line
             style="fill:none;stroke:#FFFF66;stroke-linecap:round;stroke-width:2"
             id="92373EFC"
             x1="82.5873205375"
             y1="190.30385597"
             x2="102.542496712"
             y2="210.259032145"/>
         <g
             id="C2373EFC">
            <line
                style="fill:none;stroke:#FD8008;stroke-linecap:round;stroke-width:2"
                id="A2373EFC"
                x1="87.8614284945"
                y1="192.134777498"
                x2="97.2683887565"
                y2="208.428110617"/>
            <line
                style="fill:none;stroke:#FD8008;stroke-linecap:round;stroke-width:2"
                id="B2373EFC"
                x1="100.711575184"
                y1="195.577963926"
                x2="84.4182420655"
                y2="204.984924188"/>
         </g>
         <g
             id="F2373EFC">
            <line
                style="fill:none;stroke:#FD8008;stroke-linecap:round;stroke-width:2"
                id="D2373EFC"
                x1="97.2683887565"
                y1="192.134777498"
                x2="87.8614284945"
                y2="208.428110617"/>
            <line
                style="fill:none;stroke:#FD8008;stroke-linecap:round;stroke-width:2"
                id="E2373EFC"
                x1="100.711575184"
                y1="204.984924188"
                x2="84.4182420655"
                y2="195.577963926"/>
         </g>
         <line
             style="fill:none;stroke:#FECC66;stroke-linecap:round;stroke-width:2"
             id="03373EFC"
             x1="92.5649086255"
             y1="210.259032145"
             x2="92.5649086255"
             y2="190.30385597"/>
         <line
             style="fill:none;stroke:#FECC66;stroke-linecap:round;stroke-width:2"
             id="13373EFC"
             x1="82.5873205375"
             y1="200.281444057"
             x2="102.542496712"
             y2="200.281444057"/>
         <circle
             style="fill:#FECC66;stroke:none"
             id="23373EFC"
             cx="92.5649086257"
             cy="200.281444057"
             r="3.32586319617"/>
         <line
             style="fill:none;stroke:#FECC66;stroke-linecap:round;stroke-width:2"
             id="33373EFC"
             x1="92.5649086255"
             y1="189.195235071"
             x2="92.5649086255"
             y2="188.086614173"/>
         <line
             style="fill:none;stroke:#FECC66;stroke-linecap:round;stroke-width:2"
             id="43373EFC"
             x1="80.3700787405"
             y1="200.281444057"
             x2="81.4786996395"
             y2="200.281444057"/>
         <line
             style="fill:none;stroke:#FECC66;stroke-linecap:round;stroke-width:2"
             id="53373EFC"
             x1="103.651117611"
             y1="200.281444057"
             x2="104.759738511"
             y2="200.281444057"/>
         <line
             style="fill:none;stroke:#FECC66;stroke-linecap:round;stroke-width:2"
             id="63373EFC"
             x1="92.5649086255"
             y1="211.367653043"
             x2="92.5649086255"
             y2="212.476273942"/>
         <line
             style="fill:none;stroke:#FFFF66;stroke-linecap:round;stroke-width:2"
             id="73373EFC"
             x1="80.3700787405"
             y1="188.086614173"
             x2="81.4786996395"
             y2="189.195235071"/>
         <line
             style="fill:none;stroke:#FFFF66;stroke-linecap:round;stroke-width:2"
             id="83373EFC"
             x1="104.759738509"
             y1="188.086614173"
             x2="103.651117611"
             y2="189.195235071"/>
         <line
             style="fill:none;stroke:#FFFF66;stroke-linecap:round;stroke-width:2"
             id="93373EFC"
             x1="81.4786996385"
             y1="211.367653043"
             x2="80.3700787405"
             y2="212.476273942"/>
         <line
             style="fill:none;stroke:#FFFF66;stroke-linecap:round;stroke-width:2"
             id="A3373EFC"
             x1="103.651117611"
             y1="211.367653043"
             x2="104.759738509"
             y2="212.476273942"/>
      </g>
      <g
          id="DB37FCCD">
         <g
             id="46F1ACBD">
            <circle
                style="fill:#21FFFF;stroke:#191919;stroke-width:4"
                id="4FC0570D"
                cx="136.737196412"
                cy="134.548394405"
                r="22.1736947654"/>
            <path
                style="fill:#408002;stroke:none"
                id="702F104D"
                d="M121.97678356,118.900826164 C122.519075559,117.904676407 124.308242558,122.104775245 122.216761122,124.606056699 C121.475636963,125.503774501 118.414075294,126.574164282 118.158675911,127.569489059 C117.237021724,127.627611198 116.413677867,127.470145302 116.19001938,127.125741434
C117.469897817,124.38410301 119.386288183,120.808309021 121.97678356,118.900826164 z"/>
            <path
                style="fill:#BCFFFF;stroke:none;fill-rule:evenodd"
                id="ECFE3FAD"
                d="M156.977883697,125.565916526 C156.260091474,124.513642513 155.444402761,123.528153882 154.543128683,122.627875535 C152.649808341,120.732461132 150.379622308,119.215571321 147.903945407,118.191715097 C145.429401805,117.165122852 142.751534794,116.632461985 140.072494763,116.633942709
C137.393454732,116.632461985 134.715587721,117.165122852 132.241044119,118.191715097 C129.765367218,119.215571321 127.495181185,120.732461132 125.601860843,122.627875535 C123.706446439,124.521195878 122.189556628,126.791381911 121.165700404,129.267058812
C120.139108159,131.741602414 119.606447292,134.419469425 119.607928017,137.098509456 C119.606447292,139.777549487 120.139108159,142.455416498 121.165700404,144.9299601 C122.189556628,147.405637 123.706446439,149.675823034 125.601860843,151.569143376
C127.495181185,153.46455778 129.765367218,154.981447591 132.241044119,156.005303815 C132.671932427,156.184062676 133.108985644,156.347845193 133.551136476,156.496439068 C134.617452249,156.646085646 135.677241264,156.722668346 136.737199748,156.7220825
C139.639982826,156.723686888 142.541494917,156.146540249 145.222702816,155.034210996 C147.905138662,153.924846267 150.364921839,152.281271693 152.416364963,150.227559621 C154.470077036,148.176116497 156.113651609,145.716333319 157.223016338,143.033897474
C158.335345592,140.352689574 158.912492231,137.451177483 158.910887842,134.548394406 C158.912492231,131.645611328 158.335345592,128.744099238 157.223016338,126.062891338 C157.152730312,125.892940238 157.080299909,125.72388289 157.005756683,125.555766519
z"/>
            <path
                style="fill:#408002;stroke:none"
                id="A0CD287D"
                d="M143.175426178,113.343216504 C142.778207889,116.650454109 141.061094516,116.097215316 138.112272372,117.846819852 C136.651522611,117.823981744 135.764080083,118.230887071 134.778570043,118.795342197 C132.11256782,121.842821797 134.82818966,123.489610475 137.677126926,123.453589153
C139.023676862,123.207587835 139.498997181,121.868288331 140.595697403,120.917625437 C141.774226827,120.497062966 142.566656322,119.09228455 145.784880368,120.642616 C146.714475456,120.820698075 151.286164656,126.438635329 143.694660544,126.021674204
C141.864293008,126.161106037 140.320815367,124.562891149 135.513506209,125.519124395 C131.998262604,125.981914995 134.03546012,125.449831145 130.312165923,127.622507422 C127.847822422,128.364899032 128.802032403,133.260815441 129.995217338,134.291981199
C131.574290747,135.821244193 135.103508304,137.322495618 137.062992125,137.062992125 C141.08207679,136.892010665 136.948639688,137.905784741 139.688643461,141.228054313 C140.604925581,142.973072953 138.443047766,141.311944326 140.810596397,146.848893525
C143.606787284,151.176749828 142.163522622,148.973392513 145.724034032,149.022247551 C151.677295547,147.599333975 147.603249943,143.561359761 149.155296704,140.320244526 C149.460259736,137.056371607 150.349459201,137.839149925 152.70382661,136.00390719
C154.464007599,134.766848807 154.648912841,133.613291954 154.372859628,132.955059327 C152.851808549,132.894824485 147.345821839,133.131519207 148.793865974,130.747159142 C150.157441124,129.157373624 149.56068179,129.892964298 154.381851691,129.450873693
C156.037718658,129.082373836 156.035643487,127.436449187 157.757365034,127.827511756 C154.40825025,117.802282131 148.154742364,114.947691387 143.175426178,113.343216504 z"/>
            <path
                style="fill:#408002;stroke:none"
                id="03FBF37D"
                d="M114.563508319,134.548394406 C116.46353754,134.425648506 118.840837485,134.72196085 120.36606458,135.088135478 C121.81116294,135.160057476 121.870573406,136.519022317 123.034996036,136.818860655 C123.594771974,136.947198098 124.571471086,138.131455721 124.938590461,138.751161772
C125.957310337,139.811414641 127.977134207,139.517239478 128.834789927,140.752745833 C131.375550652,143.475724029 130.569732733,144.22833236 128.954959266,147.348551424 C127.753165793,148.416963443 131.390540092,149.656403591 125.281761703,153.256724923
C123.805349631,152.385295841 121.532735359,150.907529488 120.214407017,149.234077181 C119.427962247,145.047592392 118.97416258,141.415345942 117.988651549,139.669378501 C117.331913386,138.760363927 115.713790192,139.130850426 115.316526885,139.45668274
C114.618025992,137.161876154 114.604011493,136.001158699 114.563508319,134.548394406 z"/>
            <path
                style="fill:#80FF08;stroke:none;fill-rule:evenodd"
                id="F94D61BD"
                d="M119.690593486,134.98346588 C119.616758116,135.689275705 119.579662756,136.39892642 119.580055031,137.108659462 C119.578574306,139.787699493 120.111235173,142.465566504 121.137827418,144.940110107 C122.161683642,147.415787007 123.678573453,149.68597304 125.573987857,151.579293383
C125.877984176,151.88362593 126.191696217,152.178199988 126.514414597,152.462541565 C130.797783947,149.443374921 127.857064599,148.324595881 128.954959266,147.348551423 C130.569732732,144.22833236 131.375550652,143.475724029 128.834789926,140.752745832
C127.977134207,139.517239478 125.957310337,139.81141464 124.938590461,138.751161772 C124.571471086,138.13145572 123.594771974,136.947198097 123.034996036,136.818860654 C121.870573406,136.519022317 121.81116294,135.160057476 120.366064579,135.088135477
C120.206512668,135.049830452 120.037636553,135.012289928 119.860957972,134.975913638 C119.80416981,134.978431052 119.747381648,134.980948466 119.690593486,134.98346588 z"/>
            <path
                style="fill:#80FF08;stroke:none;fill-rule:evenodd"
                id="09D333BD"
                d="M156.784946586,125.288018505 C156.75584125,125.245350462 156.726574954,125.202792226 156.697148521,125.160345025 C156.000863878,124.155964589 155.214920415,123.213751002 154.350191572,122.349977514 C152.456871229,120.454563111 150.186685196,118.937673299 147.711008296,117.913817076
C145.58968636,117.033762811 143.318943875,116.516694285 141.026133789,116.387943573 C140.252022613,116.823129392 139.278469312,117.154888174 138.112272372,117.846819852 C136.651522611,117.823981744 135.764080083,118.230887071 134.778570043,118.795342197
C132.11256782,121.842821797 134.82818966,123.489610475 137.677126926,123.453589153 C139.023676862,123.207587835 139.498997181,121.868288331 140.595697403,120.917625437 C141.774226827,120.497062966 142.566656322,119.09228455 145.784880368,120.642616
C146.714475456,120.820698075 151.286164656,126.438635329 143.694660544,126.021674204 C141.864293008,126.161106037 140.320815367,124.562891149 135.513506209,125.519124395 C131.998262604,125.981914995 134.03546012,125.449831145 130.312165923,127.622507422
C127.847822422,128.364899033 128.802032403,133.260815441 129.995217338,134.291981199 C131.574290747,135.821244193 135.103508304,137.322495618 137.062992125,137.062992125 C141.08207679,136.892010665 136.948639688,137.905784741 139.688643461,141.228054313
C140.604925581,142.973072953 138.443047766,141.311944326 140.810596397,146.848893525 C143.606787284,151.176749828 142.163522622,148.973392513 145.724034032,149.022247551 C151.677295547,147.599333975 147.603249943,143.561359761 149.155296704,140.320244526
C149.460259736,137.056371607 150.349459201,137.839149926 152.70382661,136.00390719 C154.464007599,134.766848807 154.648912841,133.613291954 154.372859628,132.955059327 C152.851808549,132.894824485 147.345821839,133.131519207 148.793865974,130.747159143
C150.157441124,129.157373624 149.56068179,129.892964298 154.381851691,129.450873693 C155.994491869,129.09199361 156.034621973,127.521513128 157.625991273,127.800990973 C157.668647896,127.808482371 157.712419096,127.817302977 157.757365034,127.827511756
C157.625466866,127.432688195 157.489063925,127.048986441 157.348411456,126.676044844 C157.1435292,126.132797249 156.929630097,125.612381059 156.707503055,125.11367849 C156.733317565,125.171791828 156.759132076,125.229905167 156.784946586,125.288018505
z"/>
            <circle
                style="fill:none;stroke:#191919;stroke-width:4"
                id="B3A57BBD"
                cx="136.737199748"
                cy="134.548394405"
                r="22.1736947653"/>
         </g>
         <circle
             style="fill:none;stroke:#808080;stroke-linecap:round;stroke-width:3.945012019231;stroke-dasharray:1,9"
             id="5A3E1DBD"
             cx="136.737196412"
             cy="134.548394406"
             r="30.8537958881"/>
         <circle
             style="fill:#B3B3B3;stroke:none"
             id="4C0636CD"
             cx="167.590983017"
             cy="129.314953509"
             r="5.233442471805"/>
         <path
             style="fill:#E6E6E6;stroke:none;fill-rule:evenodd"
             id="F13F5BCD"
             d="M172.824423914,129.314953509 C172.824802583,128.629837726 172.68858425,127.945021922 172.426051947,127.312202383 C172.395563881,127.238482462 172.363366298,127.165475049 172.32950543,127.093249335 C171.964221686,126.747143532 171.544758786,126.500482015 171.099277608,126.316246068
C170.46645807,126.053713765 169.781642266,125.917495432 169.096526483,125.917874101 C168.4114107,125.917495432 167.726594896,126.053713765 167.093775357,126.316246068 C166.460665998,126.578078684 165.880107192,126.965995676 165.395924935,127.450713451
C164.911207161,127.934895707 164.523290169,128.515454513 164.261457553,129.148563872 C163.99892525,129.781383411 163.862706917,130.466199215 163.863085586,131.151314998 C163.862706917,131.836430781 163.99892525,132.521246585 164.261457553,133.154066123
C164.291945619,133.227786044 164.324143202,133.300793457 164.35800407,133.373019172 C164.723287814,133.719124974 165.142750714,133.965786492 165.588231892,134.150022438 C166.221051431,134.412554741 166.905867235,134.548773074 167.590983017,134.548394406
C168.2760988,134.548773074 168.960914604,134.412554741 169.593734143,134.150022438 C170.226843502,133.888189823 170.807402308,133.500272831 171.291584565,133.015555056 C171.776302339,132.531372799 172.164219331,131.950813993 172.426051947,131.317704634
C172.68858425,130.684885095 172.824802583,130.000069291 172.824423914,129.314953509 z"/>
      </g>
   </g>
</svg>
