<?xml version="1.0" encoding="UTF-8"?>
<!-- Created with EazyDraw for Mac ( http://www.eazydraw.com/ ) -->

<svg
    version="1.1"
    xmlns:dc="http://purl.org/dc/elements/1.1/"
    xmlns:cc="http://creativecommons.org/ns#"
    xmlns:rdf="http://www.w3.org/1999/02/22-rdf-syntax-ns#"
    xmlns:svg="http://www.w3.org/2000/svg"
    xmlns:xlink="http://www.w3.org/1999/xlink"
    xmlns="http://www.w3.org/2000/svg"
    width="515.404863795"
    height="330.392586479"
    viewBox="0, 0, 515.404863795, 330.392586479"
    preserveAspectRatio="none"
    id="svg2">
   <defs
       id="defs_EFEB1C8C">
      <marker
          orient="auto"
          refX="0.0"
          refY="0.0"
          id="75EE977B_end_arrow"
          style="overflow:visible"
          markerUnits="userSpaceOnUse">
         <path
             id="75EE977B_end_arrow_path"
             style="fill:#2C93D2;fill-opacity:1;stroke:#2C93D2;stroke-opacity:1;fill-rule:nonzero;stroke-linecap:square;stroke-linejoin:miter;stroke-width:0.5;stroke-miterlimit:10"
             d="M0,0 L-7.517540966287,2.736161146605 L-7.517540966287,-2.736161146605 z"/>
      </marker>
      <marker
          orient="auto"
          refX="0.0"
          refY="0.0"
          id="A971FB7B_start_arrow"
          style="overflow:visible"
          markerUnits="userSpaceOnUse">
         <path
             id="A971FB7B_start_arrow_path"
             style="fill:#000000;fill-opacity:1;stroke:#000000;stroke-opacity:1;fill-rule:nonzero;stroke-linecap:square;stroke-linejoin:miter;stroke-width:0.5;stroke-miterlimit:10"
             d="M0,0 L7.517540966287,-2.736161146605 L7.517540966287,2.736161146605 z"/>
      </marker>
   </defs>
   <metadata
       id="metadata7">
      <rdf:RDF>
         <cc:Work
             rdf:about="">
            <dc:format>image/svg+xml</dc:format>
            <dc:type rdf:resource="http://purl.org/dc/dcmitype/StillImage"/>
            <dc:title></dc:title>
         </cc:Work>
      </rdf:RDF>
   </metadata>
   <g
       id="layer_Paper"
       style="fill:#000000;fill-opacity:1;stroke:#000000;stroke-opacity:1;fill-rule:nonzero;stroke-linecap:square;stroke-linejoin:miter;stroke-width:1;stroke-miterlimit:10">
      <g
          id="1DF5117B"
          transform="matrix(0.864158655877,-0.503219452597,0.503219452597,0.864158655877,8.778780780994,159.647940997)">
         <circle
             style="fill:#21FFFF;stroke:#191919;stroke-width:4"
             id="8CF5117B"
             cx="300.094461909"
             cy="63.5636291144"
             r="35.1861521073"/>
         <path
             style="fill:#408002;stroke:none"
             id="ACF5117B"
             d="M276.672021079,38.7334129851 C277.532552718,37.1526808621 280.371677788,43.8175734701 277.052827517,47.7867115591 C275.876780686,49.2112477371 271.018566503,50.9097870371 270.613288075,52.4892100471 C269.150768641,52.5814406891 267.84425215,52.3315672151 267.489341503,51.7850527451
C269.520306169,47.4345061571 272.561314602,41.7602866101 276.672021079,38.7334129851 z"/>
         <path
             style="fill:#BCFFFF;stroke:none;fill-rule:evenodd"
             id="BCF5117B"
             d="M332.213231558,49.3098573026 C331.074208819,47.6400648604 329.779839833,46.0762502598 328.349660409,44.6476509026 C325.345260454,41.639928005 321.74283425,39.232863771 317.814326539,37.6081658676 C313.887617192,35.9791263299 309.638265752,35.1338777751 305.387052914,35.1362274506
C301.135840076,35.1338777751 296.886488635,35.9791263299 292.959779288,37.6081658676 C289.031271577,39.232863771 285.428845373,41.639928005 282.424445418,44.6476509026 C279.416722521,47.652050857 277.009658287,51.2544770609 275.384960383,55.1829847721
C273.755920846,59.1096941196 272.910672291,63.3590455597 272.913021967,67.6102583976 C272.910672291,71.8614712356 273.755920846,76.1108226757 275.384960383,80.0375320231 C277.009658287,83.9660397345 279.416722521,87.5684659382 282.424445418,90.5728658927
C285.428845373,93.5805887902 289.031271577,95.9876530243 292.959779288,97.6123509277 C293.643530889,97.8960129697 294.337065223,98.1559099218 295.038688668,98.3917049011 C296.730763161,98.6291703545 298.412480722,98.7506949878 300.094467204,98.7497653419
C304.700724871,98.7523112533 309.304965684,97.8364708132 313.559618586,96.0713802033 C317.816220045,94.3109938241 321.719506932,91.7029009086 324.974822733,88.4439846448 C328.233738997,85.1886688434 330.841831913,81.2853819567 332.602218292,77.028780498
C334.367308902,72.7741275956 335.283149342,68.1698867827 335.28060343,63.5636291151 C335.283149342,58.9573714475 334.367308902,54.3531306346 332.602218292,50.0984777321 C332.490685484,49.8287922142 332.375749889,49.5605249399 332.257461578,49.2937508468
z"/>
         <path
             style="fill:#408002;stroke:none"
             id="CCF5117B"
             d="M310.310914339,29.9143653931 C309.680591734,35.1624284305 306.955804373,34.2845259615 302.276489988,37.0608716585 C299.958511135,37.0246311937 298.550280193,37.6703255955 296.986431619,38.5660266113 C292.755907719,43.4018947767 297.065170102,46.0150879677 301.585982983,45.9579278264
C303.722744775,45.5675626398 304.477002948,43.4423061377 306.217292757,41.933754473 C308.087432569,41.2663883444 309.344892854,39.0372271642 314.451705452,41.4973579903 C315.926825841,41.779946079 323.181373587,50.6947240222 311.134857159,50.0330726596
C308.230353354,50.2543289263 305.781098439,47.7182146585 298.152659084,49.2356055901 C292.57452342,49.9699810821 295.807233694,49.1256481611 289.898954644,52.5733418033 C285.988431244,53.75139988 287.502611575,61.5204449288 289.396007365,63.1567419085
C291.901747133,65.5834404256 297.50205725,67.9656890133 300.611448181,67.5538980117 C306.989099923,67.2825774744 300.429988948,68.891276605 304.777941603,74.1631929971 C306.231936417,76.9322616026 302.801378225,74.2963131808 306.558303474,83.0825758884
C310.995416194,89.9501993886 308.705183428,86.4538197918 314.355151939,86.5313450113 C323.802036452,84.2734061997 317.337170391,77.8657797304 319.800023143,72.7226424357 C320.283951246,67.5433922954 321.694970169,68.7855376906 325.430978903,65.8732977133
C328.224107759,63.9102817015 328.517523136,62.0797694114 328.079470345,61.0352583315 C325.665802838,60.9396751641 316.928672702,61.3152722536 319.226489735,57.5316699192 C321.390267849,55.008931726 320.443305163,56.1761977917 328.093739326,55.4746699196
C330.721338327,54.8899189246 330.718045359,52.2780968093 333.450145163,52.8986512601 C328.135629665,36.9901973399 318.212301644,32.4604132836 310.310914339,29.9143653931 z"/>
         <path
             style="fill:#408002;stroke:none"
             id="DCF5117B"
             d="M264.908325683,63.563629116 C267.923371567,63.3688507851 271.695770609,63.8390516126 274.116064793,64.4201128367 C276.409207348,64.5342416743 276.503482362,66.6907039559 278.351236922,67.1664999783 C279.239512807,67.3701512039 280.789379832,69.2493807607 281.37194022,70.2327562574
C282.988487551,71.9152098801 286.193628598,71.4484004213 287.554592586,73.4089536103 C291.586378035,77.7298893676 290.307672437,78.9241597635 287.745282323,83.875453954 C285.838226145,85.570854859 291.610163905,87.537650355 281.916498708,93.250790916
C279.573666246,91.86797078 275.96738681,89.5229892882 273.875408226,86.8674851332 C272.627444752,80.2241958674 271.90733645,74.4603951935 270.343486303,71.6898209895 C269.3013467,70.2473586213 266.733641099,70.8352621022 266.103247058,71.3523064549
C264.994836609,67.7108113273 264.972597816,65.868936294 264.908325683,63.563629116 z"/>
         <path
             style="fill:#80FF08;stroke:none;fill-rule:evenodd"
             id="ECF5117B"
             d="M273.044198994,64.2540187368 C272.927033939,65.3740273049 272.868169469,66.5001307593 272.868791947,67.6263648522 C272.866442271,71.8775776902 273.711690826,76.1269291303 275.340730363,80.0536384777 C276.965428267,83.982146189 279.372492501,87.5845723928 282.380215398,90.5889723472
C282.86260948,91.071899969 283.360420875,91.539342413 283.872523907,91.9905475268 C290.669553649,87.1996075453 286.003097119,85.4242821435 287.745282323,83.8754539516 C290.307672437,78.9241597612 291.586378035,77.7298893653 287.554592586,73.408953608
C286.193628598,71.448400419 282.988487551,71.9152098777 281.37194022,70.2327562551 C280.789379832,69.2493807584 279.239512807,67.3701512016 278.351236922,67.166499976 C276.503482362,66.6907039536 276.409207348,64.534241672 274.116064793,64.4201128344
C273.862881142,64.3593288177 273.594901455,64.2997579424 273.314540489,64.2420345241 C273.224426657,64.2460292617 273.134312825,64.2500239992 273.044198994,64.2540187368 z"/>
         <path
             style="fill:#80FF08;stroke:none;fill-rule:evenodd"
             id="FCF5117B"
             d="M331.907070875,48.8688770927 C331.860885309,48.8011696568 331.814444326,48.7336364669 331.76774923,48.6662794722 C330.662855619,47.0724865629 329.415687642,45.5773426111 328.043499725,44.2066706926 C325.03909977,41.198947795 321.436673567,38.791883561 317.508165855,37.1671856575
C314.14196343,35.7706787208 310.538654226,34.9501727442 306.900327228,34.7458657261 C305.671935218,35.4364367958 304.127060096,35.9628855145 302.276489988,37.0608716583 C299.958511135,37.0246311935 298.550280193,37.6703255953 296.986431619,38.5660266111
C292.755907719,43.4018947766 297.065170102,46.0150879676 301.585982983,45.9579278263 C303.722744775,45.5675626397 304.477002948,43.4423061375 306.217292757,41.9337544728 C308.087432569,41.2663883442 309.344892854,39.0372271641 314.451705452,41.4973579901
C315.926825841,41.7799460788 323.181373587,50.6947240221 311.134857159,50.0330726595 C308.230353354,50.2543289262 305.781098439,47.7182146583 298.152659084,49.2356055899 C292.57452342,49.9699810819 295.807233694,49.125648161 289.898954644,52.5733418032
C285.988431244,53.7513998799 287.502611575,61.5204449286 289.396007365,63.1567419084 C291.901747133,65.5834404254 297.50205725,67.9656890131 300.611448181,67.5538980115 C306.989099923,67.2825774742 300.429988948,68.8912766048 304.777941603,74.163192997
C306.231936417,76.9322616025 302.801378225,74.2963131806 306.558303474,83.0825758883 C310.995416194,89.9501993885 308.705183428,86.4538197917 314.355151939,86.5313450112 C323.802036452,84.2734061996 317.337170391,77.8657797303 319.800023143,72.7226424355
C320.283951246,67.5433922953 321.694970169,68.7855376905 325.430978903,65.8732977132 C328.224107759,63.9102817013 328.517523136,62.0797694112 328.079470345,61.0352583314 C325.665802838,60.939675164 316.928672702,61.3152722535 319.226489735,57.5316699191
C321.390267849,55.0089317259 320.443305163,56.1761977916 328.093739326,55.4746699194 C330.652744249,54.905183984 330.716424378,52.4130798318 333.241675781,52.8565669715 C333.309365096,52.8684546358 333.378823068,52.8824515429 333.450145163,52.8986512599
C333.24084363,52.2721287106 333.024393735,51.6632547086 332.801200511,51.0714553753 C332.476084773,50.2094073579 332.136660725,49.3835891675 331.784180238,48.5922270602 C331.825143783,48.6844437377 331.866107329,48.7766604152 331.907070875,48.8688770927
z"/>
         <circle
             style="fill:none;stroke:#191919;stroke-width:4"
             id="0DF5117B"
             cx="300.094467202"
             cy="63.5636291143"
             r="35.1861521073"/>
      </g>
      <path
          style="fill:#7F7F7F;fill-opacity:0.74064;stroke:none"
          id="0B44928C"
          d="M300.496332727,63.7782172556 C290.590895464,63.2181195027 280.685458201,62.6580217498 270.780020938,62.0979239969 C270.338701877,69.9027370722 272.985640549,77.5678603743 278.148972107,83.4372621226 C285.598092313,76.8842471669 293.04721252,70.3312322112 300.496332727,63.7782172556
z"/>
      <path
          id="C8781BDA_join"
          d=""/>
      <text
          id="11D1838A"
          style="fill:#A9A9A9;stroke:none"
          font-family="Helvetica Neue"
          font-size="9"
          font-weight="normal"
          font-style="normal">
         <tspan x="375.837934661" y="296.872901439">J. A. Aguilar 2019</tspan>
      </text>
      <g
          id="46F1ACBD">
         <circle
             style="fill:#21FFFF;stroke:#191919;stroke-width:4"
             id="4FC0570D"
             cx="427.309131186"
             cy="247.917598242"
             r="35.1861521073"/>
         <path
             style="fill:#408002;stroke:none"
             id="702F104D"
             d="M403.886690356,223.087382113 C404.747221995,221.50664999 407.586347065,228.171542598 404.267496794,232.140680687 C403.091449963,233.565216864 398.23323578,235.263756164 397.827957352,236.843179174 C396.365437918,236.935409817 395.058921427,236.685536343 394.70401078,236.139021872
C396.734975446,231.788475285 399.775983879,226.114255737 403.886690356,223.087382113 z"/>
         <path
             style="fill:#BCFFFF;stroke:none;fill-rule:evenodd"
             id="ECFE3FAD"
             d="M459.427900836,233.663826431 C458.288878096,231.994033989 456.994509111,230.430219388 455.564329686,229.001620031 C452.559929731,225.993897133 448.957503528,223.586832899 445.028995816,221.962134996 C441.102286469,220.333095458 436.852935029,219.487846903 432.601722191,219.490196579
C428.350509353,219.487846903 424.101157913,220.333095458 420.174448565,221.962134996 C416.245940854,223.586832899 412.64351465,225.993897133 409.639114696,229.001620031 C406.631391798,232.006019985 404.224327564,235.608446189 402.599629661,239.5369539
C400.970590123,243.463663248 400.125341568,247.713014688 400.127691244,251.964227526 C400.125341568,256.215440364 400.970590123,260.464791804 402.599629661,264.391501151 C404.224327564,268.320008863 406.631391798,271.922435066 409.639114696,274.926835021
C412.64351465,277.934557918 416.245940854,280.341622152 420.174448565,281.966320056 C420.858200166,282.249982098 421.551734501,282.50987905 422.253357945,282.745674029 C423.945432439,282.983139483 425.62715,283.104664116 427.309136481,283.10373447
C431.915394148,283.106280381 436.519634961,282.190439941 440.774287864,280.425349331 C445.030889323,278.664962952 448.934176209,276.056870037 452.189492011,272.797953773 C455.448408275,269.542637972 458.05650119,265.639351085 459.816887569,261.382749626
C461.581978179,257.128096724 462.497818619,252.523855911 462.495272708,247.917598243 C462.497818619,243.311340576 461.581978179,238.707099763 459.816887569,234.45244686 C459.705354761,234.182761342 459.590419166,233.914494068 459.472130856,233.647719975
z"/>
         <path
             style="fill:#408002;stroke:none"
             id="A0CD287D"
             d="M437.525583616,214.26833452 C436.895261011,219.516397558 434.17047365,218.638495089 429.491159265,221.414840786 C427.173180412,221.378600321 425.764949471,222.024294723 424.201100896,222.919995739 C419.970576997,227.755863904 424.279839379,230.369057095 428.80065226,230.311896954
C430.937414052,229.921531767 431.691672225,227.796275265 433.431962034,226.2877236 C435.302101846,225.620357472 436.559562131,223.391196291 441.666374729,225.851327118 C443.141495118,226.133915206 450.396042864,235.048693149 438.349526436,234.387041787
C435.445022631,234.608298054 432.995767716,232.072183786 425.367328361,233.589574717 C419.789192697,234.323950209 423.021902971,233.479617288 417.113623921,236.927310931 C413.203100521,238.105369007 414.717280852,245.874414056 416.610676642,247.510711036
C419.116416411,249.937409553 424.716726527,252.319658141 427.826117458,251.907867139 C434.203769201,251.636546602 427.644658225,253.245245732 431.99261088,258.517162124 C433.446605694,261.28623073 430.016047502,258.650282308 433.772972751,267.436545016
C438.210085471,274.304168516 435.919852706,270.807788919 441.569821216,270.885314139 C451.016705729,268.627375327 444.551839668,262.219748858 447.014692421,257.076611563 C447.498620523,251.897361423 448.909639447,253.139506818 452.64564818,250.227266841
C455.438777036,248.264250829 455.732192413,246.433738539 455.294139622,245.389227459 C452.880472115,245.293644291 444.143341979,245.669241381 446.441159012,241.885639046 C448.604937126,239.362900853 447.65797444,240.530166919 455.308408603,239.828639047
C457.936007605,239.243888052 457.932714637,236.632065937 460.664814441,237.252620387 C455.350298942,221.344166467 445.426970922,216.814382411 437.525583616,214.26833452 z"/>
         <path
             style="fill:#408002;stroke:none"
             id="03FBF37D"
             d="M392.122994959,247.917598243 C395.138040843,247.722819912 398.910439886,248.19302074 401.330734069,248.774081964 C403.623876625,248.888210802 403.718151638,251.044673083 405.565906198,251.520469106 C406.454182083,251.724120331 408.004049108,253.603349888 408.586609496,254.586725385
C410.203156828,256.269179007 413.408297874,255.802369549 414.769261862,257.762922738 C418.801047312,262.083858495 417.522341714,263.278128891 414.959951599,268.229423081 C413.052895422,269.924823986 418.824833182,271.891619482 409.131167984,277.604760043
C406.788335522,276.221939907 403.182056087,273.876958416 401.090077503,271.221454261 C399.842114029,264.578164995 399.122005726,258.814364321 397.558155579,256.043790117 C396.516015976,254.601327749 393.948310376,255.18923123 393.317916335,255.706275582
C392.209505886,252.064780455 392.187267092,250.222905421 392.122994959,247.917598243 z"/>
         <path
             style="fill:#80FF08;stroke:none;fill-rule:evenodd"
             id="F94D61BD"
             d="M400.25886827,248.607987865 C400.141703216,249.727996433 400.082838746,250.854099887 400.083461223,251.98033398 C400.081111548,256.231546818 400.926360102,260.480898258 402.55539964,264.407607606 C404.180097544,268.336115317 406.587161778,271.938541521 409.594884675,274.942941475
C410.077278757,275.425869097 410.575090152,275.893311541 411.087193184,276.344516655 C417.884222925,271.553576673 413.217766396,269.778251272 414.959951599,268.22942308 C417.522341714,263.278128889 418.801047312,262.083858493 414.769261863,257.762922736
C413.408297875,255.802369547 410.203156828,256.269179006 408.586609496,254.586725383 C408.004049109,253.603349886 406.454182084,251.72412033 405.565906198,251.520469104 C403.718151639,251.044673082 403.623876625,248.8882108 401.330734069,248.774081963
C401.077550418,248.713297946 400.809570732,248.653727071 400.529209766,248.596003652 C400.439095934,248.59999839 400.348982102,248.603993127 400.25886827,248.607987865 z"/>
         <path
             style="fill:#80FF08;stroke:none;fill-rule:evenodd"
             id="09D333BD"
             d="M459.121740152,233.222846221 C459.075554586,233.155138785 459.029113604,233.087605595 458.982418508,233.0202486 C457.877524897,231.426455691 456.630356919,229.931311739 455.258169002,228.560639821 C452.253769048,225.552916923 448.651342844,223.145852689 444.722835133,221.521154785
C441.356632707,220.124647849 437.753323504,219.304141872 434.114996505,219.099834854 C432.886604496,219.790405924 431.341729374,220.316854642 429.491159265,221.414840786 C427.173180412,221.378600322 425.764949471,222.024294723 424.201100896,222.919995739
C419.970576997,227.755863905 424.279839379,230.369057096 428.80065226,230.311896954 C430.937414052,229.921531768 431.691672225,227.796275266 433.431962034,226.287723601 C435.302101846,225.620357472 436.559562131,223.391196292 441.666374729,225.851327118
C443.141495118,226.133915207 450.396042864,235.04869315 438.349526436,234.387041787 C435.445022631,234.608298054 432.995767716,232.072183786 425.367328361,233.589574718 C419.789192697,234.32395021 423.021902971,233.479617289 417.113623921,236.927310931
C413.203100521,238.105369008 414.717280852,245.874414057 416.610676642,247.510711036 C419.116416411,249.937409553 424.716726527,252.319658141 427.826117458,251.907867139 C434.203769201,251.636546602 427.644658225,253.245245733 431.99261088,258.517162125
C433.446605694,261.28623073 430.016047502,258.650282309 433.772972751,267.436545016 C438.210085471,274.304168516 435.919852706,270.80778892 441.569821216,270.885314139 C451.016705729,268.627375328 444.551839668,262.219748858 447.014692421,257.076611564
C447.498620523,251.897361423 448.909639447,253.139506818 452.64564818,250.227266841 C455.438777036,248.264250829 455.732192413,246.433738539 455.294139622,245.389227459 C452.880472115,245.293644292 444.143341979,245.669241381 446.441159012,241.885639047
C448.604937126,239.362900854 447.65797444,240.53016692 455.308408603,239.828639047 C457.867413527,239.259153112 457.931093656,236.76704896 460.456345058,237.210536099 C460.524034374,237.222423764 460.593492345,237.236420671 460.664814441,237.252620388
C460.455512907,236.626097839 460.239063013,236.017223837 460.015869788,235.425424503 C459.69075405,234.563376486 459.351330002,233.737558295 458.998849515,232.946196188 C459.039813061,233.038412866 459.080776606,233.130629543 459.121740152,233.222846221
z"/>
         <circle
             style="fill:none;stroke:#191919;stroke-width:4"
             id="B3A57BBD"
             cx="427.30913648"
             cy="247.917598242"
             r="35.1861521072"/>
      </g>
      <g
          id="BC3EDE7C">
         <circle
             style="fill:none;stroke:#FDAA21;stroke-width:4"
             id="8EC9656B"
             cx="66.8076153791"
             cy="247.478038386"
             r="34.36388816"/>
         <path
             style="fill:none;stroke:#FDAA21;stroke-linecap:round;stroke-linejoin:round;stroke-width:4"
             id="1B41666B"
             d="M108.640026093,236.271343674 L131.582144087,230.124021685 M108.640026093,258.684733098 L131.582144087,264.832055087 M97.4333313811,278.095297724 L114.228127386,294.890093728 M78.0227667552,289.301992436
L84.1700887443,312.244110429 M55.6093773314,289.301992436 L49.4620553424,312.244110429 M36.1988127055,278.095297724 L19.4040167009,294.890093728 M24.9921179936,258.684733098 L2.05,264.832055087 M24.9921179936,236.271343674
L2.05,230.124021685 M36.1988127055,216.860779048 L19.4040167009,200.065983044 M55.6093773314,205.654084336 L49.4620553424,182.711966343 M78.0227667552,205.654084336 L84.1700887443,182.711966343 M97.4333313811,216.860779048
L114.228127386,200.065983044"/>
         <circle
             style="fill:#FFFF0A;stroke:none"
             id="B37B9B6B"
             cx="66.7429398176"
             cy="247.478038386"
             r="26.9291338583"/>
      </g>
      <g
          id="7391F07B">
         <circle
             style="fill:#21FFFF;stroke:#191919;stroke-width:4"
             id="F291F07B"
             cx="390.43741558"
             cy="139.572618344"
             r="35.1861521073"/>
         <path
             style="fill:#408002;stroke:none"
             id="0391F07B"
             d="M367.01497475,114.742402215 C367.875506389,113.161670092 370.714631459,119.8265627 367.395781188,123.795700789 C366.219734357,125.220236967 361.361520174,126.918776267 360.956241746,128.498199277 C359.493722312,128.590429919 358.187205821,128.340556445 357.832295174,127.794041975
C359.86325984,123.443495387 362.904268273,117.76927584 367.01497475,114.742402215 z"/>
         <path
             style="fill:#BCFFFF;stroke:none;fill-rule:evenodd"
             id="1391F07B"
             d="M422.556185229,125.318846533 C421.41716249,123.64905409 420.122793504,122.08523949 418.692614079,120.656640133 C415.688214125,117.648917235 412.085787921,115.241853001 408.15728021,113.617155098 C404.230570862,111.98811556 399.981219422,111.142867005 395.730006584,111.145216681
C391.478793746,111.142867005 387.229442306,111.98811556 383.302732959,113.617155098 C379.374225247,115.241853001 375.771799044,117.648917235 372.767399089,120.656640133 C369.759676192,123.661040087 367.352611958,127.263466291 365.727914054,131.191974002
C364.098874516,135.11868335 363.253625962,139.36803479 363.255975637,143.619247628 C363.253625962,147.870460466 364.098874516,152.119811906 365.727914054,156.046521253 C367.352611958,159.975028964 369.759676192,163.577455168 372.767399089,166.581855123
C375.771799044,169.58957802 379.374225247,171.996642254 383.302732959,173.621340158 C383.98648456,173.9050022 384.680018894,174.164899152 385.381642338,174.400694131 C387.073716832,174.638159584 388.755434393,174.759684218 390.437420874,174.758754572
C395.043678542,174.761300483 399.647919355,173.845460043 403.902572257,172.080369433 C408.159173716,170.319983054 412.062460603,167.711890139 415.317776404,164.452973875 C418.576692668,161.197658073 421.184785583,157.294371187 422.945171962,153.037769728
C424.710262572,148.783116826 425.626103012,144.178876013 425.623557101,139.572618345 C425.626103012,134.966360677 424.710262572,130.362119865 422.945171962,126.107466962 C422.833639155,125.837781444 422.71870356,125.56951417 422.600415249,125.302740077
z"/>
         <path
             style="fill:#408002;stroke:none"
             id="2391F07B"
             d="M400.653868009,105.923354623 C400.023545404,111.17141766 397.298758044,110.293515191 392.619443658,113.069860888 C390.301464806,113.033620424 388.893233864,113.679314825 387.329385289,114.575015841 C383.09886139,119.410884007 387.408123773,122.024077198 391.928936653,121.966917056
C394.065698445,121.57655187 394.819956619,119.451295368 396.560246427,117.942743703 C398.430386239,117.275377574 399.687846525,115.046216394 404.794659122,117.50634722 C406.269779511,117.788935309 413.524327257,126.703713252 401.47781083,126.04206189
C398.573307024,126.263318156 396.124052109,123.727203888 388.495612754,125.24459482 C382.917477091,125.978970312 386.150187364,125.134637391 380.241908315,128.582331033 C376.331384915,129.76038911 377.845565246,137.529434159 379.738961035,139.165731138
C382.244700804,141.592429656 387.84501092,143.974678243 390.954401851,143.562887242 C397.332053594,143.291566704 390.772942619,144.900265835 395.120895274,150.172182227 C396.574890088,152.941250833 393.144331896,150.305302411 396.901257145,159.091565118
C401.338369864,165.959188619 399.048137099,162.462809022 404.69810561,162.540334241 C414.144990123,160.28239543 407.680124061,153.87476896 410.142976814,148.731631666 C410.626904916,143.552381525 412.03792384,144.794526921 415.773932573,141.882286943
C418.567061429,139.919270931 418.860476807,138.088758641 418.422424015,137.044247561 C416.008756508,136.948664394 407.271626373,137.324261484 409.569443406,133.540659149 C411.733221519,131.017920956 410.786258834,132.185187022 418.436692997,131.48365915
C421.064291998,130.898908155 421.06099903,128.287086039 423.793098834,128.90764049 C418.478583336,112.99918657 408.555255315,108.469402514 400.653868009,105.923354623 z"/>
         <path
             style="fill:#408002;stroke:none"
             id="3391F07B"
             d="M355.251279354,139.572618346 C358.266325237,139.377840015 362.03872428,139.848040843 364.459018463,140.429102067 C366.752161019,140.543230904 366.846436033,142.699693186 368.694190592,143.175489208 C369.582466478,143.379140434 371.132333503,145.258369991 371.71489389,146.241745487
C373.331441222,147.92419911 376.536582269,147.457389651 377.897546256,149.41794284 C381.929331706,153.738878598 380.650626108,154.933148993 378.088235993,159.884443184 C376.181179816,161.579844089 381.953117576,163.546639585 372.259452379,169.259780146
C369.916619916,167.87696001 366.310340481,165.531978518 364.218361897,162.876474363 C362.970398423,156.233185097 362.25029012,150.469384423 360.686439973,147.698810219 C359.644300371,146.256347851 357.07659477,146.844251332 356.446200729,147.361295685
C355.33779028,143.719800557 355.315551487,141.877925524 355.251279354,139.572618346 z"/>
         <path
             style="fill:#80FF08;stroke:none;fill-rule:evenodd"
             id="4391F07B"
             d="M363.387152664,140.263007967 C363.26998761,141.383016535 363.21112314,142.509119989 363.211745617,143.635354082 C363.209395942,147.88656692 364.054644496,152.13591836 365.683684034,156.062627708 C367.308381938,159.991135419 369.715446172,163.593561623 372.723169069,166.597961577
C373.205563151,167.080889199 373.703374545,167.548331643 374.215477578,167.999536757 C381.012507319,163.208596775 376.34605079,161.433271373 378.088235993,159.884443182 C380.650626108,154.933148991 381.929331706,153.738878595 377.897546257,149.417942838
C376.536582269,147.457389649 373.331441222,147.924199108 371.71489389,146.241745485 C371.132333503,145.258369988 369.582466478,143.379140432 368.694190592,143.175489206 C366.846436033,142.699693184 366.752161019,140.543230902 364.459018463,140.429102064
C364.205834812,140.368318048 363.937855126,140.308747172 363.65749416,140.251023754 C363.567380328,140.255018492 363.477266496,140.259013229 363.387152664,140.263007967 z"/>
         <path
             style="fill:#80FF08;stroke:none;fill-rule:evenodd"
             id="5391F07B"
             d="M422.250024545,124.877866323 C422.203838979,124.810158887 422.157397997,124.742625697 422.110702901,124.675268702 C421.00580929,123.081475793 419.758641312,121.586331841 418.386453396,120.215659923 C415.382053441,117.207937025 411.779627237,114.800872791 407.851119526,113.176174887
C404.484917101,111.779667951 400.881607897,110.959161974 397.243280898,110.754854956 C396.014888889,111.445426026 394.470013767,111.971874744 392.619443658,113.069860888 C390.301464806,113.033620424 388.893233864,113.679314825 387.329385289,114.575015841
C383.09886139,119.410884007 387.408123773,122.024077198 391.928936653,121.966917056 C394.065698445,121.57655187 394.819956619,119.451295367 396.560246427,117.942743703 C398.430386239,117.275377574 399.687846525,115.046216394 404.794659122,117.50634722
C406.269779511,117.788935309 413.524327257,126.703713252 401.47781083,126.042061889 C398.573307024,126.263318156 396.124052109,123.727203888 388.495612754,125.24459482 C382.917477091,125.978970312 386.150187364,125.134637391 380.241908315,128.582331033
C376.331384915,129.76038911 377.845565246,137.529434159 379.738961035,139.165731138 C382.244700804,141.592429655 387.84501092,143.974678243 390.954401851,143.562887241 C397.332053594,143.291566704 390.772942619,144.900265835 395.120895274,150.172182227
C396.574890088,152.941250832 393.144331896,150.305302411 396.901257145,159.091565118 C401.338369864,165.959188618 399.048137099,162.462809022 404.69810561,162.540334241 C414.144990123,160.28239543 407.680124061,153.87476896 410.142976814,148.731631666
C410.626904916,143.552381525 412.03792384,144.79452692 415.773932573,141.882286943 C418.567061429,139.919270931 418.860476807,138.088758641 418.422424015,137.044247561 C416.008756508,136.948664394 407.271626373,137.324261483 409.569443406,133.540659149
C411.733221519,131.017920956 410.786258834,132.185187022 418.436692997,131.483659149 C420.99569792,130.914173214 421.059378049,128.422069062 423.584629452,128.865556201 C423.652318767,128.877443866 423.721776739,128.891440773 423.793098834,128.90764049
C423.583797301,128.281117941 423.367347406,127.672243939 423.144154181,127.080444605 C422.819038444,126.218396588 422.479614395,125.392578397 422.127133908,124.60121629 C422.168097454,124.693432968 422.209061,124.785649645 422.250024545,124.877866323
z"/>
         <circle
             style="fill:none;stroke:#191919;stroke-width:4"
             id="6391F07B"
             cx="390.437420873"
             cy="139.572618344"
             r="35.1861521073"/>
      </g>
      <path
          style="fill:none;stroke:#2C93D2;stroke-width:2;marker-end:url(#75EE977B_end_arrow)"
          id="75EE977B"
          d="M476.559335945,284.061277167 C492.688159803,257.004398419 485.327348498,221.073254313 459.895356178,202.717545671"/>
      <path
          style="fill:none;stroke:#2C93D2;stroke-width:2;marker-end:url(#75EE977B_end_arrow)"
          id="1FD47A7B"
          d="M441.197230323,175.845529494 C457.326054181,148.788650746 449.965242876,112.85750664 424.533250556,94.5017979984"/>
      <path
          style="fill:none;stroke:#2C93D2;stroke-width:2;marker-end:url(#75EE977B_end_arrow)"
          id="38FDAA7B"
          d="M357.036294006,82.0609562315 C367.256814695,51.0060432704 351.403032891,16.7399901232 321.625881253,5.525584398043 C317.244614658,3.875550782168 312.69638474,2.788612727961 308.081806108,2.288815159962"/>
      <line
          style="fill:none;stroke-width:2;marker-start:url(#A971FB7B_start_arrow)"
          id="A971FB7B"
          x1="136.916499042"
          y1="247.917598242"
          x2="389.000259557"
          y2="247.917598242"/>
      <line
          style="fill:none;stroke-width:2;marker-start:url(#A971FB7B_start_arrow)"
          id="67E7CF7B"
          x1="119.431569177"
          y1="139.258619216"
          x2="352.129456064"
          y2="139.308263976"/>
      <line
          style="fill:none;stroke-width:2;marker-start:url(#A971FB7B_start_arrow)"
          id="4D8C508B"
          x1="132.631478287"
          y1="208.215751616"
          x2="270.992251361"
          y2="89.1646912752"/>
      <line
          style="fill:none;stroke:#2C93D2;stroke-linecap:round;stroke-width:2"
          id="870CA78B"
          x1="270.992251361"
          y1="89.1646912752"
          x2="300.488314368"
          y2="63.7830064148"/>
      <path
          style="fill:none;stroke:#7F7F7F;stroke-linecap:round;stroke-dasharray:4,4"
          id="ED09B17B"
          d="M427.30913648,247.917598242 C429.092074056,176.803853826 382.200256383,108.968629519 299.733530545,63.362588987"/>
      <line
          style="fill:none;stroke:#2C93D2;stroke-linecap:round;stroke-width:2"
          id="4390DB7C"
          x1="352.129456064"
          y1="139.308263976"
          x2="390.438332986"
          y2="139.308263976"/>
      <line
          style="fill:none;stroke:#2C93D2;stroke-linecap:round;stroke-width:2"
          id="E0FD8D7C"
          x1="389.000259557"
          y1="247.917598242"
          x2="427.30913648"
          y2="247.917598242"/>
   </g>
</svg>
