<?xml version="1.0" encoding="UTF-8"?>
<!-- Created with EazyDraw for Mac ( http://www.eazydraw.com/ ) -->

<svg
    version="1.1"
    xmlns:dc="http://purl.org/dc/elements/1.1/"
    xmlns:cc="http://creativecommons.org/ns#"
    xmlns:rdf="http://www.w3.org/1999/02/22-rdf-syntax-ns#"
    xmlns:svg="http://www.w3.org/2000/svg"
    xmlns:xlink="http://www.w3.org/1999/xlink"
    xmlns="http://www.w3.org/2000/svg"
    width="174.963386253"
    height="76.665467049"
    viewBox="0, 0, 174.963386253, 76.665467049"
    preserveAspectRatio="none"
    id="svg2">
   <defs
       id="defs_AA806EFB">
      <marker
          orient="auto"
          refX="0.0"
          refY="0.0"
          id="86F96C7C_end_arrow"
          style="overflow:visible"
          markerUnits="userSpaceOnUse">
         <path
             id="86F96C7C_end_arrow_path"
             style="fill:#191919;fill-opacity:1;stroke:#191919;stroke-opacity:1;fill-rule:nonzero;stroke-linecap:square;stroke-linejoin:miter;stroke-width:0.25;stroke-miterlimit:10"
             d="M5.529514034902,0 L-1.988026931385,2.736161146605 L-1.988026931385,-2.736161146605 z"/>
      </marker>
      <marker
          orient="auto"
          refX="0.0"
          refY="0.0"
          id="5B24B96A_start_arrow"
          style="overflow:visible"
          markerUnits="userSpaceOnUse">
         <path
             id="5B24B96A_start_arrow_path"
             style="fill:#FFFFFF;fill-opacity:1;stroke:#FFFFFF;stroke-opacity:1;fill-rule:nonzero;stroke-linecap:round;stroke-linejoin:bevel;stroke-width:0.75"
             d="M0,0 L7.517540966287,-2.736161146605 L7.517540966287,2.736161146605 z"/>
      </marker>
      <marker
          orient="auto"
          refX="0.0"
          refY="0.0"
          id="1FC4676C_start_arrow"
          style="overflow:visible"
          markerUnits="userSpaceOnUse">
         <path
             id="1FC4676C_start_arrow_path"
             style="fill:#0F80FF;fill-opacity:1;stroke:#0F80FF;stroke-opacity:1;fill-rule:nonzero;stroke-linecap:round;stroke-linejoin:bevel;stroke-width:0.49355844351"
             d="M0,0 L7.517540966287,-2.736161146605 L7.517540966287,2.736161146605 z"/>
      </marker>
   </defs>
   <metadata
       id="metadata7">
      <rdf:RDF>
         <cc:Work
             rdf:about="">
            <dc:format>image/svg+xml</dc:format>
            <dc:type rdf:resource="http://purl.org/dc/dcmitype/StillImage"/>
            <dc:title></dc:title>
         </cc:Work>
      </rdf:RDF>
   </metadata>
   <g
       id="layer_Paper"
       style="fill:#000000;fill-opacity:1;stroke:#000000;stroke-opacity:1;fill-rule:nonzero;stroke-linecap:square;stroke-linejoin:miter;stroke-width:1;stroke-miterlimit:10">
      <path
          id="C8781BDA_join"
          d=""/>
      <line
          style="fill:none;stroke:#191919;marker-end:url(#86F96C7C_end_arrow)"
          id="86F96C7C"
          x1="9.003937434027"
          y1="45.4843646864"
          x2="167.744094915"
          y2="45.4843646864"/>
      <line
          style="fill:none;stroke:#191919;marker-end:url(#86F96C7C_end_arrow)"
          id="A232CB7C"
          x1="9.003937434027"
          y1="17.1379079934"
          x2="167.744094915"
          y2="17.1379079934"/>
      <line
          style="fill:none;stroke:#191919"
          id="2960766C"
          x1="8.531886717027"
          y1="31.3111363404"
          x2="162.074803576"
          y2="31.3111363404"/>
      <path
          style="fill:none;stroke:#FFFFFF;stroke-linecap:round;stroke-linejoin:bevel;stroke-width:3;marker-start:url(#5B24B96A_start_arrow)"
          id="5B24B96A"
          d="M173.413386253,38.5268535776 C172.72004003,35.2879179308 172.00555419,31.7607625003 171.334277427,28.5171812192 C170.694198123,25.4243447547 169.978682274,22.0266678377 169.255168601,18.9524356459 C168.68389376,16.5250710064 167.962081148,13.6719996635 167.176059775,11.3042192986
C166.723379547,9.940582898782 165.979778774,7.907726481725 165.096950949,6.749263304678 C164.594304756,6.089681572375 163.879679374,5.480052233843 163.017842123,5.988379233729 C162.087199608,6.537288807272 161.328001742,8.203959252185 160.938733297,9.138634377012
C160.121386258,11.1011719429 159.394181017,13.6610559616 158.859624471,15.7153401328 C158.114298995,18.5796027462 157.397234569,21.8120152694 156.780515645,24.7066247094 C156.089368901,27.9505658509 155.37490942,31.4814730363 154.701406819,34.7291166175
C154.063795598,37.8036912196 153.348146876,41.1859951778 152.622297993,44.2407859683 C152.054698492,46.6295720758 151.332408023,49.451883855 150.543189167,51.7781964661 C150.097419054,53.0921547278 149.35219983,55.0864891574 148.464080341,56.1816652318
C147.923570878,56.8481893193 147.21783447,57.3325893803 146.384971515,56.7736880566 C145.459222884,56.1524548362 144.701623255,54.4415037464 144.305862689,53.4631781228 C143.492309239,51.4520626774 142.765842295,48.8579526658 142.226753863,46.7594803433
C141.483954051,43.8680347943 140.767104578,40.6143478482 140.147645037,37.6940051133 C139.454608762,34.4267966532 138.748345742,30.9319083475 138.068536211,27.6615386687 C137.433420821,24.6061797465 136.717630256,21.2400143127 135.989427385,18.2056455498
C135.425593157,15.8561890452 134.702798531,13.0651316527 133.910318559,10.7811804922 C133.471596285,9.516769676518 132.724695119,7.561273908227 131.831209734,6.530448935904 C131.248971177,5.858713221773 130.551027146,5.506573081936 129.752100908,6.10745541072
C128.831475563,6.799869145344 128.075584358,8.553802561689 127.672992082,9.577280404112 C126.863146257,11.636086063 126.137377948,14.2640524799 125.593883256,16.4060672766 C124.853579965,19.3237417748 124.136933694,22.5979961228 123.51477443,25.5431598084
C122.821738154,28.8238395131 122.119886825,32.2998301698 121.435665604,35.5827529452 C120.803075465,38.6179475702 120.087133769,41.9672160968 119.356556778,44.9801856554 C118.79658224,47.2895743376 118.073255599,50.0488993726 117.277447952,52.2895977429
C116.845888082,53.5047098362 116.097247985,55.4209965378 115.198339126,56.3863854651 C114.571542854,57.0595373354 113.879459255,57.2734630309 113.1192303,56.6402296186 C112.203961923,55.8778559763 111.449886499,54.0822590568 111.040121474,53.0120745199
C110.233900722,50.9064653783 109.508793671,48.2450308559 108.961012648,46.0601369933 C108.223178355,43.117191641 107.506724024,39.823086478 106.881903822,36.8540208407 C106.188867546,33.5608011546 105.491424401,30.1045602567 104.802794996,26.8101508794
C104.172761262,23.7960637286 103.45665881,20.4644429219 102.72368617,17.4738461598 C102.167670431,15.2052500653 101.443782253,12.4781181057 100.644577344,10.2815619129 C100.220262374,9.115363277584 99.4698363283,7.238728295136 98.5654685179,6.339880950668
C97.8929039457,5.671421864982 97.2039801727,5.599673874184 96.4863596919,6.255258225747 C95.5765263094,7.086439252664 94.8242817547,8.922885032773 94.407250866,10.0407135313 C93.6045759903,12.1922396539 92.8800949759,14.8867354505 92.32814204,17.1138283153
C91.592750791,20.0810823997 90.8764775918,23.3943126335 90.249033214,26.3863548142 C89.5559969387,29.6911796591 88.8629606634,33.1268256738 88.169924388,36.4316505187 C87.5424800102,39.4236926994 86.8262068111,42.7369229332 86.0908155621,45.7041770176
C85.5388626262,47.9312698824 84.8143816118,50.625765679 84.0117067361,52.7772918016 C83.5946758473,53.8951203001 82.8424312926,55.7315660802 81.9325979101,56.5627471071 C81.2149774294,57.2183314587 80.5260536563,57.1465834679 79.8534890841,56.4781243822
C78.9491212737,55.5792770378 78.198695228,53.7026420553 77.7743802582,52.53644342 C76.9751753487,50.3398872272 76.2512871713,47.6127552676 75.6952714322,45.3441591731 C74.9622987919,42.353562411 74.2461963399,39.0219416043 73.6161626062,36.0078544535
C72.9231263309,32.6923625668 72.2344969262,29.2781450635 71.5370537802,25.9639844921 C70.912233578,22.9949188549 70.1957792468,19.7008136919 69.4579449543,16.7578683396 C68.9101639307,14.572974477 68.1850568803,11.9115399546 67.3788361283,9.805930812962
C66.9690711035,8.735746276063 66.2149956789,6.940149356617 65.2997273023,6.177775714296 C64.5394983475,5.544542302017 63.8474147477,5.758467997508 63.2206184763,6.43161986781 C62.3217096167,7.397008795113 61.5730695198,9.313295496678 61.1415096504,10.52840759
C60.3457020031,12.7691059603 59.6223753622,15.5284309953 59.0624008244,17.8378196775 C58.3318238327,20.8507892361 57.6158821368,24.2000577627 56.9832919984,27.2352523877 C56.2902557231,30.5604701713 55.6060345019,33.9524373124 54.9041831724,37.2748455245
C54.2820239083,40.2200092101 53.5653776372,43.4942635581 52.8250743465,46.4119380563 C52.2815796544,48.553952853 51.5558113453,51.1819192699 50.7459655205,53.2407249288 C50.3433732438,54.2642027712 49.5874820386,56.0181361876 48.6668566945,56.7105499222
C47.8679304557,57.311432251 47.1699864248,56.9592921111 46.5877478685,56.287556397 C45.6942624828,55.2567314247 44.9473613166,53.3012356564 44.5086390426,52.0368248407 C43.7161590713,49.7528736802 42.993364445,46.9618162877 42.4295302166,44.6123597831
C41.7013273463,41.5779910202 40.9855367806,38.2118255864 40.3504213906,35.1564666642 C39.6573851153,31.8224668896 38.9775755849,28.453564049 38.2713125646,25.1240002196 C37.6518530241,22.2036574847 36.9350035507,18.9499705386 36.1922037387,16.0585249896
C35.6531153068,13.9600526671 34.9266483628,11.3659426555 34.1130949127,9.354827210063 C33.717334347,8.376501586533 32.9597347179,6.665550496701 32.0339860867,6.044317276341 C31.201123132,5.485415952547 30.4953867237,5.969816013577 29.9548772607,6.636340101049
C29.0667577719,7.731516175496 28.3215385481,9.725850605055 27.8757684348,11.0398088668 C27.0865495787,13.3661214779 26.3642591097,16.1884332571 25.7966596088,18.5772193646 C25.0708107257,21.6320101551 24.3551620043,25.0143141133 23.7175507828,28.0888887154
C23.044048182,31.3365322966 22.3295887009,34.867439482 21.6384419568,38.1113806235 C21.021723033,41.0059900635 20.3046586067,44.2384025867 19.5593331309,47.1026652001 C19.0247765855,49.1569493713 18.2975713436,51.71683339 17.4802243049,53.6793709559
C17.0909558605,54.6140460807 16.3317579943,56.2807165256 15.4011154789,56.8296260992 C14.5392782281,57.3379530991 13.8246528463,56.7283237605 13.3220066529,56.0687420282 C12.439178828,54.9102788512 11.6955780547,52.8774224341 11.242897827,51.5137860343
C10.4568764543,49.1460056694 9.735063841993,46.2929343265 9.163789000977,43.865569687 C8.440275327761,40.7913374952 7.724759479321,37.3936605782 7.084680175002,34.3008241137 C6.41340341213,31.0572428326 5.698917571877,27.5300874021 5.005571349027,24.2911517553"/>
      <line
          style="fill:none;stroke:#191919;marker-end:url(#86F96C7C_end_arrow)"
          id="33CA866C"
          x1="9.003937434027"
          y1="2.964679647448"
          x2="167.744094915"
          y2="2.964679647448"/>
      <line
          style="fill:none;stroke:#191919"
          id="25F8A66C"
          x1="9.003937434027"
          y1="59.6575930334"
          x2="159.240157907"
          y2="59.6575930334"/>
      <path
          style="fill:none;stroke:#0F80FF;stroke-linecap:round;stroke-linejoin:bevel;stroke-width:1.974233774038;marker-start:url(#1FC4676C_start_arrow)"
          id="1FC4676C"
          d="M173.413386253,38.5268539216 C172.72004003,35.2879182748 172.00555419,31.7607628443 171.334277427,28.5171815632 C170.694198123,25.4243450987 169.978682274,22.0266681817 169.255168601,18.9524359899 C168.68389376,16.5250713504 167.962081148,13.6720000075 167.176059775,11.3042196426
C166.723379547,9.940583242782 165.979778774,7.907726825725 165.096950949,6.749263648678 C164.594304756,6.089681916375 163.879679374,5.480052577843 163.017842123,5.988379577729 C162.087199608,6.537289151272 161.328001742,8.203959596185 160.938733297,9.138634721012
C160.121386258,11.1011722869 159.394181017,13.6610563056 158.859624471,15.7153404768 C158.114298995,18.5796030902 157.397234569,21.8120156134 156.780515645,24.7066250534 C156.089368901,27.9505661949 155.37490942,31.4814733803 154.701406819,34.7291169615
C154.063795598,37.8036915636 153.348146876,41.1859955218 152.622297993,44.2407863123 C152.054698492,46.6295724198 151.332408023,49.451884199 150.543189167,51.7781968101 C150.097419054,53.0921550718 149.35219983,55.0864895014 148.464080341,56.1816655758
C147.923570878,56.8481896633 147.21783447,57.3325897243 146.384971515,56.7736884006 C145.459222884,56.1524551802 144.701623255,54.4415040904 144.305862689,53.4631784668 C143.492309239,51.4520630214 142.765842295,48.8579530098 142.226753863,46.7594806873
C141.483954051,43.8680351383 140.767104578,40.6143481922 140.147645037,37.6940054573 C139.454608762,34.4267969972 138.748345742,30.9319086915 138.068536211,27.6615390127 C137.433420821,24.6061800905 136.717630256,21.2400146567 135.989427385,18.2056458938
C135.425593157,15.8561893892 134.702798531,13.0651319967 133.910318559,10.7811808362 C133.471596285,9.516770020518 132.724695119,7.561274252227 131.831209734,6.530449279904 C131.248971177,5.858713565773 130.551027146,5.506573425936 129.752100908,6.10745575472
C128.831475563,6.799869489344 128.075584358,8.553802905689 127.672992082,9.577280748112 C126.863146257,11.636086407 126.137377948,14.2640528239 125.593883256,16.4060676206 C124.853579965,19.3237421188 124.136933694,22.5979964668 123.51477443,25.5431601524
C122.821738154,28.8238398571 122.119886825,32.2998305138 121.435665604,35.5827532892 C120.803075465,38.6179479142 120.087133769,41.9672164408 119.356556778,44.9801859994 C118.79658224,47.2895746816 118.073255599,50.0488997166 117.277447952,52.2895980869
C116.845888082,53.5047101802 116.097247985,55.4209968818 115.198339126,56.3863858091 C114.571542854,57.0595376794 113.879459255,57.2734633749 113.1192303,56.6402299626 C112.203961923,55.8778563203 111.449886499,54.0822594008 111.040121474,53.0120748639
C110.233900722,50.9064657223 109.508793671,48.2450311999 108.961012648,46.0601373373 C108.223178355,43.117191985 107.506724024,39.823086822 106.881903822,36.8540211847 C106.188867546,33.5608014986 105.491424401,30.1045606007 104.802794996,26.8101512234
C104.172761262,23.7960640726 103.45665881,20.4644432659 102.72368617,17.4738465038 C102.167670431,15.2052504093 101.443782253,12.4781184497 100.644577344,10.2815622569 C100.220262374,9.115363621584 99.4698363283,7.238728639136 98.5654685179,6.339881294668
C97.8929039457,5.671422208982 97.2039801727,5.599674218184 96.4863596919,6.255258569747 C95.5765263094,7.086439596664 94.8242817547,8.922885376773 94.407250866,10.0407138753 C93.6045759903,12.1922399979 92.8800949759,14.8867357945 92.32814204,17.1138286593
C91.592750791,20.0810827437 90.8764775918,23.3943129775 90.249033214,26.3863551582 C89.5559969387,29.6911800031 88.8629606634,33.1268260178 88.169924388,36.4316508627 C87.5424800102,39.4236930434 86.8262068111,42.7369232772 86.0908155621,45.7041773616
C85.5388626262,47.9312702264 84.8143816118,50.625766023 84.0117067361,52.7772921456 C83.5946758473,53.8951206441 82.8424312926,55.7315664242 81.9325979101,56.5627474511 C81.2149774294,57.2183318027 80.5260536563,57.1465838119 79.8534890841,56.4781247262
C78.9491212737,55.5792773818 78.198695228,53.7026423993 77.7743802582,52.536443764 C76.9751753487,50.3398875712 76.2512871713,47.6127556116 75.6952714322,45.3441595171 C74.9622987919,42.353562755 74.2461963399,39.0219419483 73.6161626062,36.0078547975
C72.9231263309,32.6923629108 72.2344969262,29.2781454075 71.5370537802,25.9639848361 C70.912233578,22.9949191989 70.1957792468,19.7008140359 69.4579449543,16.7578686836 C68.9101639307,14.572974821 68.1850568803,11.9115402986 67.3788361283,9.805931156962
C66.9690711035,8.735746620063 66.2149956789,6.940149700617 65.2997273023,6.177776058296 C64.5394983475,5.544542646017 63.8474147477,5.758468341508 63.2206184763,6.43162021181 C62.3217096167,7.397009139113 61.5730695198,9.313295840678 61.1415096504,10.528407934
C60.3457020031,12.7691063043 59.6223753622,15.5284313393 59.0624008244,17.8378200215 C58.3318238327,20.8507895801 57.6158821368,24.2000581067 56.9832919984,27.2352527317 C56.2902557231,30.5604705153 55.6060345019,33.9524376564 54.9041831724,37.2748458685
C54.2820239083,40.2200095541 53.5653776372,43.4942639021 52.8250743465,46.4119384003 C52.2815796544,48.553953197 51.5558113453,51.1819196139 50.7459655205,53.2407252728 C50.3433732438,54.2642031152 49.5874820386,56.0181365316 48.6668566945,56.7105502662
C47.8679304557,57.311432595 47.1699864248,56.9592924551 46.5877478685,56.287556741 C45.6942624828,55.2567317687 44.9473613166,53.3012360004 44.5086390426,52.0368251847 C43.7161590713,49.7528740242 42.993364445,46.9618166317 42.4295302166,44.6123601271
C41.7013273463,41.5779913642 40.9855367806,38.2118259304 40.3504213906,35.1564670082 C39.6573851153,31.8224672336 38.9775755849,28.453564393 38.2713125646,25.1240005636 C37.6518530241,22.2036578287 36.9350035507,18.9499708826 36.1922037387,16.0585253336
C35.6531153068,13.9600530111 34.9266483628,11.3659429995 34.1130949127,9.354827554063 C33.717334347,8.376501930533 32.9597347179,6.665550840701 32.0339860867,6.044317620341 C31.201123132,5.485416296547 30.4953867237,5.969816357577 29.9548772607,6.636340445049
C29.0667577719,7.731516519496 28.3215385481,9.725850949055 27.8757684348,11.0398092108 C27.0865495787,13.3661218219 26.3642591097,16.1884336011 25.7966596088,18.5772197086 C25.0708107257,21.6320104991 24.3551620043,25.0143144573 23.7175507828,28.0888890594
C23.044048182,31.3365326406 22.3295887009,34.867439826 21.6384419568,38.1113809675 C21.021723033,41.0059904075 20.3046586067,44.2384029307 19.5593331309,47.1026655441 C19.0247765855,49.1569497153 18.2975713436,51.716833734 17.4802243049,53.6793712999
C17.0909558605,54.6140464247 16.3317579943,56.2807168696 15.4011154789,56.8296264432 C14.5392782281,57.3379534431 13.8246528463,56.7283241045 13.3220066529,56.0687423722 C12.439178828,54.9102791952 11.6955780547,52.8774227781 11.242897827,51.5137863783
C10.4568764543,49.1460060134 9.735063841993,46.2929346705 9.163789000977,43.865570031 C8.440275327761,40.7913378392 7.724759479321,37.3936609222 7.084680175002,34.3008244577 C6.41340341213,31.0572431766 5.698917571877,27.5300877461 5.005571349027,24.2911520993"/>
      <line
          style="fill:none;stroke:#191919;marker-end:url(#86F96C7C_end_arrow)"
          id="81837C6C"
          x1="162.074803576"
          y1="31.3111363404"
          x2="167.744094915"
          y2="31.3111363404"/>
      <line
          style="fill:none;stroke:#191919;marker-end:url(#86F96C7C_end_arrow)"
          id="8905BE6C"
          x1="156.405512238"
          y1="59.6575930334"
          x2="167.744094915"
          y2="59.6575930324"/>
      <line
          style="fill:none;stroke:#191919;marker-end:url(#86F96C7C_end_arrow)"
          id="C6165F6C"
          x1="125.224409875"
          y1="31.3111363404"
          x2="136.562992552"
          y2="31.3111363404"/>
      <line
          style="fill:none;stroke:#191919;marker-end:url(#86F96C7C_end_arrow)"
          id="13B7BF6C"
          x1="125.224409875"
          y1="59.6575930334"
          x2="136.562992552"
          y2="59.6575930334"/>
      <line
          style="fill:none;stroke:#191919;marker-end:url(#86F96C7C_end_arrow)"
          id="8204107C"
          x1="125.224409875"
          y1="2.964679647448"
          x2="136.562992552"
          y2="2.964679647448"/>
      <line
          style="fill:none;stroke:#191919;marker-end:url(#86F96C7C_end_arrow)"
          id="CCD6717C"
          x1="91.208661844"
          y1="31.3111363404"
          x2="102.547244521"
          y2="31.3111363404"/>
      <line
          style="fill:none;stroke:#191919;marker-end:url(#86F96C7C_end_arrow)"
          id="ECD6717C"
          x1="91.208661844"
          y1="59.6575930324"
          x2="102.547244521"
          y2="59.6575930324"/>
      <line
          style="fill:none;stroke:#191919;marker-end:url(#86F96C7C_end_arrow)"
          id="0DD6717C"
          x1="91.208661844"
          y1="2.964679647448"
          x2="102.547244521"
          y2="2.964679647448"/>
      <line
          style="fill:none;stroke:#191919;marker-end:url(#86F96C7C_end_arrow)"
          id="C203227C"
          x1="60.027559482"
          y1="31.3111363404"
          x2="68.53149649"
          y2="31.3111363404"/>
      <line
          style="fill:none;stroke:#191919;marker-end:url(#86F96C7C_end_arrow)"
          id="D203227C"
          x1="57.192913813"
          y1="59.6575930324"
          x2="68.53149649"
          y2="59.6575930324"/>
      <line
          style="fill:none;stroke:#191919;marker-end:url(#86F96C7C_end_arrow)"
          id="F203227C"
          x1="57.192913813"
          y1="2.964679647448"
          x2="68.53149649"
          y2="2.964679647448"/>
      <line
          style="fill:none;stroke:#191919;marker-end:url(#86F96C7C_end_arrow)"
          id="A8A7627C"
          x1="28.84645712"
          y1="31.3111363404"
          x2="40.185039797"
          y2="31.3111363404"/>
      <line
          style="fill:none;stroke:#191919;marker-end:url(#86F96C7C_end_arrow)"
          id="E8A7627C"
          x1="28.84645712"
          y1="59.6575930324"
          x2="40.185039797"
          y2="59.6575930324"/>
      <line
          style="fill:none;stroke:#191919;marker-end:url(#86F96C7C_end_arrow)"
          id="09A7627C"
          x1="28.84645712"
          y1="2.964679647448"
          x2="40.185039797"
          y2="2.964679647448"/>
      <circle
          style="fill:#0F80FF;stroke:#074080"
          id="F4E2757C"
          cx="3.334646095737"
          cy="17.1379079937"
          r="2.834646095737"/>
      <line
          style="fill:none;stroke:#191919;marker-end:url(#86F96C7C_end_arrow)"
          id="B232CB7C"
          x1="130.893701214"
          y1="17.1379079934"
          x2="136.562992552"
          y2="17.1379079934"/>
      <line
          style="fill:none;stroke:#191919;marker-end:url(#86F96C7C_end_arrow)"
          id="C232CB7C"
          x1="96.877953182"
          y1="17.1379079934"
          x2="102.547244521"
          y2="17.1379079934"/>
      <line
          style="fill:none;stroke:#191919;marker-end:url(#86F96C7C_end_arrow)"
          id="D232CB7C"
          x1="62.862205151"
          y1="17.1379079934"
          x2="68.53149649"
          y2="17.1379079934"/>
      <line
          style="fill:none;stroke:#191919;marker-end:url(#86F96C7C_end_arrow)"
          id="E232CB7C"
          x1="28.84645712"
          y1="17.1379079934"
          x2="40.185039797"
          y2="17.1379079934"/>
      <line
          style="fill:none;stroke:#191919;marker-end:url(#86F96C7C_end_arrow)"
          id="A6F96C7C"
          x1="125.224409875"
          y1="45.4843646864"
          x2="136.562992552"
          y2="45.4843646864"/>
      <line
          style="fill:none;stroke:#191919;marker-end:url(#86F96C7C_end_arrow)"
          id="B6F96C7C"
          x1="91.208661844"
          y1="45.4843646864"
          x2="102.547244521"
          y2="45.4843646864"/>
      <line
          style="fill:none;stroke:#191919;marker-end:url(#86F96C7C_end_arrow)"
          id="C6F96C7C"
          x1="57.192913813"
          y1="45.4843646864"
          x2="68.53149649"
          y2="45.4843646864"/>
      <line
          style="fill:none;stroke:#191919;marker-end:url(#86F96C7C_end_arrow)"
          id="D6F96C7C"
          x1="28.84645712"
          y1="45.4843646864"
          x2="40.185039797"
          y2="45.4843646864"/>
      <line
          style="fill:none;stroke:#191919;marker-end:url(#86F96C7C_end_arrow)"
          id="39D7408C"
          x1="162.074803576"
          y1="17.1379079934"
          x2="167.744094915"
          y2="17.1379079934"/>
      <path
          style="fill:none;stroke:#191919;stroke-linecap:round;stroke-width:0.657902644231"
          id="03D1328C"
          d="M98.0239356833,29.934993279 C97.801054717,26.7719647032 95.8255636011,24.0001654258 92.9083829807,22.7573931521"/>
      <text
          id="DE49B38C"
          style="stroke:none"
          font-family="Cambria Math"
          font-size="12"
          font-weight="normal"
          font-style="normal"
          transform="matrix(0.663491299642,-0,0,0.663491299642,31.1985961463,5.319260103679)">
         <tspan x="97.7125988515" y="26.8071993325">α</tspan>
      </text>
      <line
          style="fill:none;stroke:#191919;marker-end:url(#86F96C7C_end_arrow)"
          id="492EC78C"
          x1="156.405512238"
          y1="45.4843646864"
          x2="167.744094915"
          y2="45.4843646864"/>
      <line
          style="fill:none;stroke:#191919"
          id="91020D8C"
          x1="99.712598852"
          y1="45.4843646864"
          x2="113.885827198"
          y2="45.4843646864"/>
      <line
          style="fill:none;stroke:#191919"
          id="62DA5D8C"
          x1="122.389764206"
          y1="45.4843646864"
          x2="150.736220899"
          y2="45.4843646864"/>
      <line
          style="fill:none;stroke:#191919"
          id="19E8FF8C"
          x1="65.696850821"
          y1="45.4843646864"
          x2="79.870079167"
          y2="45.4843646864"/>
      <line
          style="fill:none;stroke:#191919"
          id="47E3619C"
          x1="9.003937434027"
          y1="45.4843646864"
          x2="17.507874442"
          y2="45.4843646864"/>
      <text
          id="80E8755C"
          style="fill:#A9A9A9;stroke:none"
          font-family="Helvetica Neue"
          font-size="5"
          font-weight="normal"
          font-style="normal"
          transform="matrix(1,-0,0,1,-0,0)">
         <tspan x="5.500000426128" y="70.3268843718">J. A. Aguilar 2018</tspan>
      </text>
   </g>
</svg>
