<?xml version="1.0" encoding="UTF-8"?>
<!-- Created with EazyDraw for Mac ( http://www.eazydraw.com/ ) -->

<svg
    version="1.1"
    xmlns:dc="http://purl.org/dc/elements/1.1/"
    xmlns:cc="http://creativecommons.org/ns#"
    xmlns:rdf="http://www.w3.org/1999/02/22-rdf-syntax-ns#"
    xmlns:svg="http://www.w3.org/2000/svg"
    xmlns:xlink="http://www.w3.org/1999/xlink"
    xmlns="http://www.w3.org/2000/svg"
    width="71.9961757103"
    height="266.172047244"
    viewBox="0, 0, 71.9961757103, 266.172047244"
    preserveAspectRatio="none"
    id="svg2">
   <defs
       id="defs_20B3D85C">
      <marker
          orient="auto"
          refX="0.0"
          refY="0.0"
          id="86F96C7C_end_arrow"
          style="overflow:visible"
          markerUnits="userSpaceOnUse">
         <path
             id="86F96C7C_end_arrow_path"
             style="fill:#191919;fill-opacity:1;stroke:#191919;stroke-opacity:1;fill-rule:nonzero;stroke-linecap:square;stroke-linejoin:miter;stroke-width:0.25;stroke-miterlimit:10"
             d="M5.529514034902,0 L-1.988026931385,2.736161146605 L-1.988026931385,-2.736161146605 z"/>
      </marker>
      <marker
          orient="auto"
          refX="0.0"
          refY="0.0"
          id="5B24B96A_start_arrow"
          style="overflow:visible"
          markerUnits="userSpaceOnUse">
         <path
             id="5B24B96A_start_arrow_path"
             style="fill:#FFFFFF;fill-opacity:1;stroke:#FFFFFF;stroke-opacity:1;fill-rule:nonzero;stroke-linecap:round;stroke-linejoin:bevel;stroke-width:0.75"
             d="M0,0 L7.517540966287,-2.736161146605 L7.517540966287,2.736161146605 z"/>
      </marker>
      <marker
          orient="auto"
          refX="0.0"
          refY="0.0"
          id="1FC4676C_start_arrow"
          style="overflow:visible"
          markerUnits="userSpaceOnUse">
         <path
             id="1FC4676C_start_arrow_path"
             style="fill:#0F80FF;fill-opacity:1;stroke:#0F80FF;stroke-opacity:1;fill-rule:nonzero;stroke-linecap:round;stroke-linejoin:bevel;stroke-width:0.49355844351"
             d="M0,0 L7.517540966287,-2.736161146605 L7.517540966287,2.736161146605 z"/>
      </marker>
   </defs>
   <metadata
       id="metadata7">
      <rdf:RDF>
         <cc:Work
             rdf:about="">
            <dc:format>image/svg+xml</dc:format>
            <dc:type rdf:resource="http://purl.org/dc/dcmitype/StillImage"/>
            <dc:title></dc:title>
         </cc:Work>
      </rdf:RDF>
   </metadata>
   <g
       id="layer_Paper"
       style="fill:#000000;fill-opacity:1;stroke:#000000;stroke-opacity:1;fill-rule:nonzero;stroke-linecap:square;stroke-linejoin:miter;stroke-width:1;stroke-miterlimit:10">
      <line
          style="fill:none;stroke:#191919;marker-end:url(#86F96C7C_end_arrow)"
          id="86F96C7C"
          x1="45.4843646864"
          y1="165.959448819"
          x2="45.4843646864"
          y2="7.219291338"/>
      <line
          style="fill:none;stroke:#191919;marker-end:url(#86F96C7C_end_arrow)"
          id="A232CB7C"
          x1="17.1379079934"
          y1="165.959448819"
          x2="17.1379079934"
          y2="7.219291338"/>
      <line
          style="fill:none;stroke:#191919"
          id="2960766C"
          x1="31.3111363404"
          y1="166.431499536"
          x2="31.3111363404"
          y2="12.888582677"/>
      <path
          style="fill:none;stroke:#FFFFFF;stroke-linecap:round;stroke-linejoin:bevel;stroke-width:3;marker-start:url(#5B24B96A_start_arrow)"
          id="5B24B96A"
          d="M38.5268535776,1.55 C35.2879179308,2.24334622285 31.7607625003,2.957832063104 28.5171812192,3.629108825975 C25.4243447547,4.269188130294 22.0266678377,4.984703978734 18.9524356459,5.708217651951 C16.5250710064,6.279492492967 13.6719996635,7.00130510523 11.3042192986,7.787326477926
C9.940582898782,8.240006705684 7.907726481726,8.983607478935 6.749263304678,9.866435303901 C6.089681572375,10.3690814973 5.480052233843,11.083706879 5.988379233729,11.9455441299 C6.537288807272,12.8761866453 8.203959252185,13.6353845114 9.138634377012,14.0246529559
C11.1011719429,14.8419999945 13.6610559616,15.5692052365 15.7153401328,16.1037617818 C18.5796027462,16.8490872577 21.8120152694,17.5661516839 24.7066247094,18.1828706078 C27.9505658509,18.8740173519 31.4814730363,19.588476833 34.7291166175,20.2619794338
C37.8036912196,20.8995906553 41.1859951777,21.6152393767 44.2407859683,22.3410882598 C46.6295720758,22.9086877606 49.451883855,23.6309782296 51.7781964661,24.4201970857 C53.0921547278,24.865967199 55.0864891574,25.6111864228 56.1816652318,26.4993059117
C56.8481893193,27.0398153747 57.3325893803,27.7455517829 56.7736880566,28.5784147377 C56.1524548362,29.5041633689 54.4415037464,30.2617629979 53.4631781228,30.6575235637 C51.4520626774,31.4710770138 48.8579526658,32.1975439578 46.7594803433,32.7366323896
C43.8680347943,33.4794322017 40.6143478482,34.196281675 37.6940051133,34.8157412156 C34.4267966532,35.5087774909 30.9319083475,36.2150405112 27.6615386687,36.8948500416 C24.6061797465,37.5299654316 21.2400143127,38.2457559972 18.2056455498,38.9739588676
C15.8561890452,39.537793096 13.0651316527,40.2605877223 10.7811804922,41.0530676935 C9.516769676519,41.4917899675 7.561273908227,42.2386911338 6.530448935904,43.1321765195 C5.858713221773,43.7144150758 5.506573081936,44.4123591067 6.10745541072,45.2112853455
C6.799869145344,46.1319106895 8.553802561689,46.8878018947 9.577280404112,47.2903941715 C11.636086063,48.1002399963 14.2640524799,48.8260083054 16.4060672766,49.3695029974 C19.3237417748,50.1098062882 22.5979961228,50.8264525593 25.5431598084,51.4486118234
C28.8238395131,52.1416480987 32.2998301698,52.8434994282 35.5827529452,53.5277206494 C38.6179475702,54.1603107877 41.9672160968,54.8762524837 44.9801856554,55.6068294754 C47.2895743376,56.1668040132 50.0488993726,56.890130654 52.2895977429,57.6859383013
C53.5047098362,58.1174981708 55.4209965378,58.8661382677 56.3863854651,59.7650471273 C57.0595373354,60.3918433987 57.2734630309,61.0839269985 56.6402296186,61.8441559533 C55.8778559763,62.7594243299 54.0822590568,63.5134997545 53.0120745199,63.9232647793
C50.9064653783,64.7294855313 48.2450308559,65.4545925817 46.0601369933,66.0023736052 C43.117191641,66.7402078977 39.823086478,67.4566622289 36.8540208407,68.0814824312 C33.5608011546,68.7745187065 30.1045602567,69.4719618525 26.8101508794,70.1605912572
C23.7960637286,70.7906249909 20.4644429219,71.5067274428 17.4738461598,72.2397000832 C15.2052500653,72.7957158223 12.4781181057,73.5196039997 10.2815619129,74.3188089091 C9.115363277584,74.743123879 7.238728295136,75.4935499247 6.339880950668,76.3979177351
C5.671421864982,77.0704823073 5.599673874184,77.7594060804 6.255258225747,78.4770265611 C7.086439252664,79.3868599436 8.922885032773,80.1391044983 10.0407135313,80.5561353871 C12.1922396539,81.3588102628 14.8867354505,82.0832912771 17.1138283153,82.635244213
C20.0810823997,83.370635462 23.3943126335,84.0869086612 26.3863548142,84.714353039 C29.6911796591,85.4073893143 33.1268256738,86.1004255897 36.4316505187,86.793461865 C39.4236926994,87.4209062428 42.7369229332,88.137179442 45.7041770176,88.872570691
C47.9312698824,89.4245236269 50.625765679,90.1490046412 52.7772918016,90.9516795169 C53.8951203001,91.3687104057 55.7315660802,92.1209549604 56.5627471071,93.0307883429 C57.2183314587,93.7484088236 57.1465834679,94.4373325967 56.4781243822,95.1098971689
C55.5792770378,96.0142649793 53.7026420553,96.764691025 52.53644342,97.1890059949 C50.3398872272,97.9882109043 47.6127552676,98.7120990817 45.3441591731,99.2681148208 C42.353562411,100.001087461 39.0219416043,100.717189913 36.0078544535,101.347223647
C32.6923625668,102.040259922 29.2781450635,102.728889327 25.9639844921,103.426332473 C22.9949188549,104.051152675 19.7008136919,104.767607006 16.7578683396,105.505441299 C14.572974477,106.053222322 11.9115399546,106.778329373 9.805930812962,107.584550125
C8.735746276064,107.99431515 6.940149356617,108.748390574 6.177775714296,109.663658951 C5.544542302017,110.423887905 5.758467997508,111.115971505 6.43161986781,111.742767777 C7.397008795113,112.641676636 9.313295496678,113.390316733 10.52840759,113.821876603
C12.7691059603,114.61768425 15.5284309953,115.341010891 17.8378196775,115.900985429 C20.8507892361,116.63156242 24.2000577627,117.347504116 27.2352523877,117.980094255 C30.5604701713,118.67313053 33.9524373124,119.357351751 37.2748455245,120.059203081
C40.2200092101,120.681362345 43.4942635581,121.398008616 46.4119380563,122.138311907 C48.553952853,122.681806599 51.1819192699,123.407574908 53.2407249288,124.217420733 C54.2642027712,124.620013009 56.0181361876,125.375904214 56.7105499222,126.296529559
C57.311432251,127.095455797 56.9592921111,127.793399828 56.287556397,128.375638384 C55.2567314247,129.26912377 53.3012356564,130.016024936 52.0368248407,130.45474721 C49.7528736802,131.247227182 46.9618162877,131.970021808 44.6123597831,132.533856036
C41.5779910202,133.262058907 38.2118255864,133.977849472 35.1564666642,134.612964862 C31.8224668896,135.306001138 28.453564049,135.985810668 25.1240002196,136.692073688 C22.2036574847,137.311533229 18.9499705386,138.028382702 16.0585249896,138.771182514
C13.9600526671,139.310270946 11.3659426555,140.03673789 9.354827210063,140.85029134 C8.376501586533,141.246051906 6.665550496701,142.003651535 6.044317276341,142.929400166 C5.485415952547,143.762263121 5.969816013577,144.467999529 6.636340101049,145.008508992
C7.731516175496,145.896628481 9.725850605055,146.641847705 11.0398088668,147.087617818 C13.3661214779,147.876836674 16.1884332571,148.599127143 18.5772193646,149.166726644 C21.6320101551,149.892575527 25.0143141133,150.608224249 28.0888887154,151.24583547
C31.3365322966,151.919338071 34.867439482,152.633797552 38.1113806235,153.324944296 C41.0059900635,153.94166322 44.2384025867,154.658727646 47.1026652001,155.404053122 C49.1569493713,155.938609668 51.71683339,156.665814909 53.6793709559,157.483161948
C54.6140460807,157.872430393 56.2807165256,158.631628259 56.8296260992,159.562270774 C57.3379530991,160.424108025 56.7283237605,161.138733407 56.0687420282,161.6413796 C54.9102788512,162.524207425 52.8774224341,163.267808198 51.5137860343,163.720488426
C49.1460056694,164.506509799 46.2929343265,165.228322411 43.865569687,165.799597252 C40.7913374952,166.523110925 37.3936605782,167.238626774 34.3008241137,167.878706078 C31.0572428326,168.549982841 27.5300874021,169.264468681 24.2911517553,169.957814904"/>
      <path
          id="C8781BDA_join"
          d=""/>
      <line
          style="fill:none;stroke:#191919;marker-end:url(#86F96C7C_end_arrow)"
          id="33CA866C"
          x1="2.964679647448"
          y1="165.959448819"
          x2="2.964679647448"
          y2="7.219291338"/>
      <line
          style="fill:none;stroke:#191919"
          id="25F8A66C"
          x1="59.6575930334"
          y1="165.959448819"
          x2="59.6575930334"
          y2="15.723228346"/>
      <path
          style="fill:none;stroke:#0F80FF;stroke-linecap:round;stroke-linejoin:bevel;stroke-width:1.974233774038;marker-start:url(#1FC4676C_start_arrow)"
          id="1FC4676C"
          d="M38.5268539216,1.55 C35.2879182748,2.24334622285 31.7607628443,2.957832063104 28.5171815632,3.629108825975 C25.4243450987,4.269188130294 22.0266681817,4.984703978734 18.9524359899,5.708217651951 C16.5250713504,6.279492492967 13.6720000075,7.00130510523 11.3042196426,7.787326477926
C9.940583242782,8.240006705684 7.907726825726,8.983607478935 6.749263648678,9.866435303901 C6.089681916375,10.3690814973 5.480052577843,11.083706879 5.988379577729,11.9455441299 C6.537289151272,12.8761866453 8.203959596185,13.6353845114 9.138634721012,14.0246529559
C11.1011722869,14.8419999945 13.6610563056,15.5692052365 15.7153404768,16.1037617818 C18.5796030902,16.8490872577 21.8120156134,17.5661516839 24.7066250534,18.1828706078 C27.9505661949,18.8740173519 31.4814733803,19.588476833 34.7291169615,20.2619794338
C37.8036915636,20.8995906553 41.1859955217,21.6152393767 44.2407863123,22.3410882598 C46.6295724198,22.9086877606 49.451884199,23.6309782296 51.7781968101,24.4201970857 C53.0921550718,24.865967199 55.0864895014,25.6111864228 56.1816655758,26.4993059117
C56.8481896633,27.0398153747 57.3325897243,27.7455517829 56.7736884006,28.5784147377 C56.1524551802,29.5041633689 54.4415040904,30.2617629979 53.4631784668,30.6575235637 C51.4520630214,31.4710770138 48.8579530098,32.1975439578 46.7594806873,32.7366323896
C43.8680351383,33.4794322017 40.6143481922,34.196281675 37.6940054573,34.8157412156 C34.4267969972,35.5087774909 30.9319086915,36.2150405112 27.6615390127,36.8948500416 C24.6061800905,37.5299654316 21.2400146567,38.2457559972 18.2056458938,38.9739588676
C15.8561893892,39.537793096 13.0651319967,40.2605877223 10.7811808362,41.0530676935 C9.516770020519,41.4917899675 7.561274252227,42.2386911338 6.530449279904,43.1321765195 C5.858713565773,43.7144150758 5.506573425936,44.4123591067 6.10745575472,45.2112853455
C6.799869489344,46.1319106895 8.553802905689,46.8878018947 9.577280748112,47.2903941715 C11.636086407,48.1002399963 14.2640528239,48.8260083054 16.4060676206,49.3695029974 C19.3237421188,50.1098062882 22.5979964668,50.8264525593 25.5431601524,51.4486118234
C28.8238398571,52.1416480987 32.2998305138,52.8434994282 35.5827532892,53.5277206494 C38.6179479142,54.1603107877 41.9672164408,54.8762524837 44.9801859994,55.6068294754 C47.2895746816,56.1668040132 50.0488997166,56.890130654 52.2895980869,57.6859383013
C53.5047101802,58.1174981708 55.4209968818,58.8661382677 56.3863858091,59.7650471273 C57.0595376794,60.3918433987 57.2734633749,61.0839269985 56.6402299626,61.8441559533 C55.8778563203,62.7594243299 54.0822594008,63.5134997545 53.0120748639,63.9232647793
C50.9064657223,64.7294855313 48.2450311999,65.4545925817 46.0601373373,66.0023736052 C43.117191985,66.7402078977 39.823086822,67.4566622289 36.8540211847,68.0814824312 C33.5608014986,68.7745187065 30.1045606007,69.4719618525 26.8101512234,70.1605912572
C23.7960640726,70.7906249909 20.4644432659,71.5067274428 17.4738465038,72.2397000832 C15.2052504093,72.7957158223 12.4781184497,73.5196039997 10.2815622569,74.3188089091 C9.115363621584,74.743123879 7.238728639136,75.4935499247 6.339881294668,76.3979177351
C5.671422208982,77.0704823073 5.599674218184,77.7594060804 6.255258569747,78.4770265611 C7.086439596664,79.3868599436 8.922885376773,80.1391044983 10.0407138753,80.5561353871 C12.1922399979,81.3588102628 14.8867357945,82.0832912771 17.1138286593,82.635244213
C20.0810827437,83.370635462 23.3943129775,84.0869086612 26.3863551582,84.714353039 C29.6911800031,85.4073893143 33.1268260178,86.1004255897 36.4316508627,86.793461865 C39.4236930434,87.4209062428 42.7369232772,88.137179442 45.7041773616,88.872570691
C47.9312702264,89.4245236269 50.625766023,90.1490046412 52.7772921456,90.9516795169 C53.8951206441,91.3687104057 55.7315664242,92.1209549604 56.5627474511,93.0307883429 C57.2183318027,93.7484088236 57.1465838119,94.4373325967 56.4781247262,95.1098971689
C55.5792773818,96.0142649793 53.7026423993,96.764691025 52.536443764,97.1890059949 C50.3398875712,97.9882109043 47.6127556116,98.7120990817 45.3441595171,99.2681148208 C42.353562755,100.001087461 39.0219419483,100.717189913 36.0078547975,101.347223647
C32.6923629108,102.040259922 29.2781454075,102.728889327 25.9639848361,103.426332473 C22.9949191989,104.051152675 19.7008140359,104.767607006 16.7578686836,105.505441299 C14.572974821,106.053222322 11.9115402986,106.778329373 9.805931156962,107.584550125
C8.735746620064,107.99431515 6.940149700617,108.748390574 6.177776058296,109.663658951 C5.544542646017,110.423887905 5.758468341508,111.115971505 6.43162021181,111.742767777 C7.397009139113,112.641676636 9.313295840678,113.390316733 10.528407934,113.821876603
C12.7691063043,114.61768425 15.5284313393,115.341010891 17.8378200215,115.900985429 C20.8507895801,116.63156242 24.2000581067,117.347504116 27.2352527317,117.980094255 C30.5604705153,118.67313053 33.9524376564,119.357351751 37.2748458685,120.059203081
C40.2200095541,120.681362345 43.4942639021,121.398008616 46.4119384003,122.138311907 C48.553953197,122.681806599 51.1819196139,123.407574908 53.2407252728,124.217420733 C54.2642031152,124.620013009 56.0181365316,125.375904214 56.7105502662,126.296529559
C57.311432595,127.095455797 56.9592924551,127.793399828 56.287556741,128.375638384 C55.2567317687,129.26912377 53.3012360004,130.016024936 52.0368251847,130.45474721 C49.7528740242,131.247227182 46.9618166317,131.970021808 44.6123601271,132.533856036
C41.5779913642,133.262058907 38.2118259304,133.977849472 35.1564670082,134.612964862 C31.8224672336,135.306001138 28.453564393,135.985810668 25.1240005636,136.692073688 C22.2036578287,137.311533229 18.9499708826,138.028382702 16.0585253336,138.771182514
C13.9600530111,139.310270946 11.3659429995,140.03673789 9.354827554063,140.85029134 C8.376501930533,141.246051906 6.665550840701,142.003651535 6.044317620341,142.929400166 C5.485416296547,143.762263121 5.969816357577,144.467999529 6.636340445049,145.008508992
C7.731516519496,145.896628481 9.725850949055,146.641847705 11.0398092108,147.087617818 C13.3661218219,147.876836674 16.1884336011,148.599127143 18.5772197086,149.166726644 C21.6320104991,149.892575527 25.0143144573,150.608224249 28.0888890594,151.24583547
C31.3365326406,151.919338071 34.867439826,152.633797552 38.1113809675,153.324944296 C41.0059904075,153.94166322 44.2384029307,154.658727646 47.1026655441,155.404053122 C49.1569497153,155.938609668 51.716833734,156.665814909 53.6793712999,157.483161948
C54.6140464247,157.872430393 56.2807168696,158.631628259 56.8296264432,159.562270774 C57.3379534431,160.424108025 56.7283241045,161.138733407 56.0687423722,161.6413796 C54.9102791952,162.524207425 52.8774227781,163.267808198 51.5137863783,163.720488426
C49.1460060134,164.506509799 46.2929346705,165.228322411 43.865570031,165.799597252 C40.7913378392,166.523110925 37.3936609222,167.238626774 34.3008244577,167.878706078 C31.0572431766,168.549982841 27.5300877461,169.264468681 24.2911520993,169.957814904"/>
      <line
          style="fill:none;stroke:#191919;marker-end:url(#86F96C7C_end_arrow)"
          id="81837C6C"
          x1="31.3111363404"
          y1="12.888582677"
          x2="31.3111363404"
          y2="7.219291338"/>
      <line
          style="fill:none;stroke:#191919;marker-end:url(#86F96C7C_end_arrow)"
          id="8905BE6C"
          x1="59.6575930334"
          y1="18.557874015"
          x2="59.6575930324"
          y2="7.219291338"/>
      <line
          style="fill:none;stroke:#191919;marker-end:url(#86F96C7C_end_arrow)"
          id="C6165F6C"
          x1="31.3111363404"
          y1="49.738976378"
          x2="31.3111363404"
          y2="38.400393701"/>
      <line
          style="fill:none;stroke:#191919;marker-end:url(#86F96C7C_end_arrow)"
          id="13B7BF6C"
          x1="59.6575930334"
          y1="49.738976378"
          x2="59.6575930334"
          y2="38.400393701"/>
      <line
          style="fill:none;stroke:#191919;marker-end:url(#86F96C7C_end_arrow)"
          id="8204107C"
          x1="2.964679647448"
          y1="49.738976378"
          x2="2.964679647448"
          y2="38.400393701"/>
      <line
          style="fill:none;stroke:#191919;marker-end:url(#86F96C7C_end_arrow)"
          id="CCD6717C"
          x1="31.3111363404"
          y1="83.754724409"
          x2="31.3111363404"
          y2="72.416141732"/>
      <line
          style="fill:none;stroke:#191919;marker-end:url(#86F96C7C_end_arrow)"
          id="ECD6717C"
          x1="59.6575930324"
          y1="83.754724409"
          x2="59.6575930324"
          y2="72.416141732"/>
      <line
          style="fill:none;stroke:#191919;marker-end:url(#86F96C7C_end_arrow)"
          id="0DD6717C"
          x1="2.964679647448"
          y1="83.754724409"
          x2="2.964679647448"
          y2="72.416141732"/>
      <line
          style="fill:none;stroke:#191919;marker-end:url(#86F96C7C_end_arrow)"
          id="C203227C"
          x1="31.3111363404"
          y1="114.935826771"
          x2="31.3111363404"
          y2="106.431889763"/>
      <line
          style="fill:none;stroke:#191919;marker-end:url(#86F96C7C_end_arrow)"
          id="D203227C"
          x1="59.6575930324"
          y1="117.77047244"
          x2="59.6575930324"
          y2="106.431889763"/>
      <line
          style="fill:none;stroke:#191919;marker-end:url(#86F96C7C_end_arrow)"
          id="F203227C"
          x1="2.964679647448"
          y1="117.77047244"
          x2="2.964679647448"
          y2="106.431889763"/>
      <line
          style="fill:none;stroke:#191919;marker-end:url(#86F96C7C_end_arrow)"
          id="A8A7627C"
          x1="31.3111363404"
          y1="146.116929133"
          x2="31.3111363404"
          y2="134.778346456"/>
      <line
          style="fill:none;stroke:#191919;marker-end:url(#86F96C7C_end_arrow)"
          id="E8A7627C"
          x1="59.6575930324"
          y1="146.116929133"
          x2="59.6575930324"
          y2="134.778346456"/>
      <line
          style="fill:none;stroke:#191919;marker-end:url(#86F96C7C_end_arrow)"
          id="09A7627C"
          x1="2.964679647448"
          y1="146.116929133"
          x2="2.964679647448"
          y2="134.778346456"/>
      <circle
          style="fill:#0F80FF;stroke:#074080"
          id="F4E2757C"
          cx="17.1379079937"
          cy="171.628740157"
          r="2.83464566929"/>
      <line
          style="fill:none;stroke:#191919;marker-end:url(#86F96C7C_end_arrow)"
          id="B232CB7C"
          x1="17.1379079934"
          y1="44.069685039"
          x2="17.1379079934"
          y2="38.400393701"/>
      <line
          style="fill:none;stroke:#191919;marker-end:url(#86F96C7C_end_arrow)"
          id="C232CB7C"
          x1="17.1379079934"
          y1="78.085433071"
          x2="17.1379079934"
          y2="72.416141732"/>
      <line
          style="fill:none;stroke:#191919;marker-end:url(#86F96C7C_end_arrow)"
          id="D232CB7C"
          x1="17.1379079934"
          y1="112.101181102"
          x2="17.1379079934"
          y2="106.431889763"/>
      <line
          style="fill:none;stroke:#191919;marker-end:url(#86F96C7C_end_arrow)"
          id="E232CB7C"
          x1="17.1379079934"
          y1="146.116929133"
          x2="17.1379079934"
          y2="134.778346456"/>
      <line
          style="fill:none;stroke:#191919;marker-end:url(#86F96C7C_end_arrow)"
          id="A6F96C7C"
          x1="45.4843646864"
          y1="49.738976378"
          x2="45.4843646864"
          y2="38.400393701"/>
      <line
          style="fill:none;stroke:#191919;marker-end:url(#86F96C7C_end_arrow)"
          id="B6F96C7C"
          x1="45.4843646864"
          y1="83.754724409"
          x2="45.4843646864"
          y2="72.416141732"/>
      <line
          style="fill:none;stroke:#191919;marker-end:url(#86F96C7C_end_arrow)"
          id="C6F96C7C"
          x1="45.4843646864"
          y1="117.77047244"
          x2="45.4843646864"
          y2="106.431889763"/>
      <line
          style="fill:none;stroke:#191919;marker-end:url(#86F96C7C_end_arrow)"
          id="D6F96C7C"
          x1="45.4843646864"
          y1="146.116929133"
          x2="45.4843646864"
          y2="134.778346456"/>
      <line
          style="fill:none;stroke:#191919;marker-end:url(#86F96C7C_end_arrow)"
          id="39D7408C"
          x1="17.1379079934"
          y1="12.888582677"
          x2="17.1379079934"
          y2="7.219291338"/>
      <path
          style="fill:none;stroke:#191919;stroke-linecap:round;stroke-width:0.657902644231"
          id="03D1328C"
          d="M29.934993279,76.9394505697 C26.7719647032,77.162331536 24.0001654258,79.137822652 22.7573931521,82.0550032723"/>
      <text
          id="DE49B38C"
          style="stroke:none"
          font-family="Cambria Math"
          font-size="12"
          font-weight="normal"
          font-style="normal"
          transform="matrix(0.663491299642,0,0,0.663491299642,5.689387717507,24.0743553457)">
         <tspan x="21.9071043674" y="82.541553963">θ</tspan>
      </text>
      <line
          style="fill:none;stroke:#191919;marker-end:url(#86F96C7C_end_arrow)"
          id="492EC78C"
          x1="45.4843646864"
          y1="18.557874015"
          x2="45.4843646864"
          y2="7.219291338"/>
      <line
          style="fill:none;stroke:#191919"
          id="91020D8C"
          x1="45.4843646864"
          y1="75.250787401"
          x2="45.4843646864"
          y2="61.077559055"/>
      <line
          style="fill:none;stroke:#191919"
          id="62DA5D8C"
          x1="45.4843646864"
          y1="52.573622047"
          x2="45.4843646864"
          y2="24.227165354"/>
      <line
          style="fill:none;stroke:#191919"
          id="19E8FF8C"
          x1="45.4843646864"
          y1="109.266535432"
          x2="45.4843646864"
          y2="95.093307086"/>
      <line
          style="fill:none;stroke:#191919"
          id="47E3619C"
          x1="45.4843646864"
          y1="165.959448819"
          x2="45.4843646864"
          y2="157.455511811"/>
      <text
          id="80E8755C"
          style="fill:#A9A9A9;stroke:none"
          font-family="Helvetica Neue"
          font-size="5"
          font-weight="normal"
          font-style="normal"
          transform="matrix(0,1,-1,0,242.624915867,143.152249486)">
         <tspan x="-17.5471313764" y="176.628740157">J. A. Aguilar 2018</tspan>
      </text>
   </g>
</svg>
