<?xml version="1.0" encoding="UTF-8"?>
<!-- Created with EazyDraw for Mac ( http://www.eazydraw.com/ ) -->

<svg
    version="1.1"
    xmlns:dc="http://purl.org/dc/elements/1.1/"
    xmlns:cc="http://creativecommons.org/ns#"
    xmlns:rdf="http://www.w3.org/1999/02/22-rdf-syntax-ns#"
    xmlns:svg="http://www.w3.org/2000/svg"
    xmlns:xlink="http://www.w3.org/1999/xlink"
    xmlns="http://www.w3.org/2000/svg"
    width="765.775485275"
    height="255.721476653"
    viewBox="0, 0, 765.775485275, 255.721476653"
    preserveAspectRatio="none"
    id="svg2">
   <defs
       id="defs_6C6D9E72">
      <marker
          orient="auto"
          refX="0.0"
          refY="0.0"
          id="583FA61A_start_arrow"
          style="overflow:visible"
          markerUnits="userSpaceOnUse">
         <path
             id="583FA61A_start_arrow_path"
             style="fill:#000000;fill-opacity:1;stroke:#000000;stroke-opacity:1;fill-rule:nonzero;stroke-linecap:square;stroke-linejoin:miter;stroke-width:0.5;stroke-miterlimit:10"
             d="M-8.503937007874,0 L4.814541082046,-4.847529590457 C0.375010880567,-3.231363224999 0.375010880567,3.231363224999 4.814541082046,4.847529590457 z"/>
      </marker>
      <marker
          orient="auto"
          refX="0.0"
          refY="0.0"
          id="583FA61A_end_arrow"
          style="overflow:visible"
          markerUnits="userSpaceOnUse">
         <path
             id="583FA61A_end_arrow_path"
             style="fill:#000000;fill-opacity:1;stroke:#000000;stroke-opacity:1;fill-rule:nonzero;stroke-linecap:square;stroke-linejoin:miter;stroke-width:0.5;stroke-miterlimit:10"
             d="M8.503937007874,0 L-4.814541082046,4.847529590457 C-0.375010880567,3.231363224999 -0.375010880567,-3.231363224999 -4.814541082046,-4.847529590457 z"/>
      </marker>
      <marker
          orient="auto"
          refX="0.0"
          refY="0.0"
          id="4B6B9F2A_end_arrow"
          style="overflow:visible"
          markerUnits="userSpaceOnUse">
         <path
             id="4B6B9F2A_end_arrow_path"
             style="fill:#000000;fill-opacity:1;stroke:#000000;stroke-opacity:1;fill-rule:nonzero;stroke-linecap:square;stroke-linejoin:miter;stroke-width:0.25;stroke-miterlimit:10"
             d="M0,0 L-7.517540966287,2.736161146605 L-7.517540966287,-2.736161146605 z"/>
      </marker>
      <marker
          orient="auto"
          refX="0.0"
          refY="0.0"
          id="9719A2DE_end_arrow"
          style="overflow:visible"
          markerUnits="userSpaceOnUse">
         <path
             id="9719A2DE_end_arrow_path"
             style="fill:#000000;fill-opacity:1;stroke:#000000;stroke-opacity:1;fill-rule:nonzero;stroke-linecap:square;stroke-linejoin:miter;stroke-width:0.25;stroke-miterlimit:10"
             d="M5.669291338583,0 L-1.848249627704,2.736161146605 L-1.848249627704,-2.736161146605 z"/>
      </marker>
      <marker
          orient="auto"
          refX="0.0"
          refY="0.0"
          id="1E758672_start_arrow"
          style="overflow:visible"
          markerUnits="userSpaceOnUse">
         <path
             id="1E758672_start_arrow_path"
             style="fill:#000000;fill-opacity:1;stroke:#000000;stroke-opacity:1;fill-rule:nonzero;stroke-linecap:square;stroke-linejoin:miter;stroke-width:0.25;stroke-miterlimit:10"
             d="M-6.716364913099,0 L0.801176053188,-2.736161146605 L0.801176053188,2.736161146605 z"/>
      </marker>
      <marker
          orient="auto"
          refX="0.0"
          refY="0.0"
          id="1E758672_end_arrow"
          style="overflow:visible"
          markerUnits="userSpaceOnUse">
         <path
             id="1E758672_end_arrow_path"
             style="fill:#000000;fill-opacity:1;stroke:#000000;stroke-opacity:1;fill-rule:nonzero;stroke-linecap:square;stroke-linejoin:miter;stroke-width:0.25;stroke-miterlimit:10"
             d="M6.716364913099,0 L-0.801176053188,2.736161146605 L-0.801176053188,-2.736161146605 z"/>
      </marker>
   </defs>
   <metadata
       id="metadata7">
      <rdf:RDF>
         <cc:Work
             rdf:about="">
            <dc:format>image/svg+xml</dc:format>
            <dc:type rdf:resource="http://purl.org/dc/dcmitype/StillImage"/>
            <dc:title></dc:title>
         </cc:Work>
      </rdf:RDF>
   </metadata>
   <g
       id="layer_Paper"
       style="fill:#000000;fill-opacity:1;stroke:#000000;stroke-opacity:1;fill-rule:nonzero;stroke-linecap:square;stroke-linejoin:miter;stroke-width:1;stroke-miterlimit:10">
      <path
          style="fill:#EBFFED;stroke-linecap:butt;stroke-dasharray:1,1.714120388031"
          id="8189D3CE"
          d="M28.3074677225,176.760110042 C22.4865308764,205.064171812 61.586130093,207.165395581 39.586272643,178.966617939 C39.482296034,178.833343743 39.5197743291,178.975887696 39.586272643,178.966617939 C91.1193029972,171.782997109 145.428084888,184.812407823 132.787718615,211.502134956
C119.098852578,240.405735643 75.1521752533,209.100575561 39.586272643,178.966617939 C39.4896445085,178.884747723 39.5049681452,178.783942554 39.6372322653,178.745621624 C71.5793655323,169.49101632 38.5894014488,146.697239102 28.1688250563,176.665303464"/>
      <polyline
          style="fill:none;stroke-width:2;marker-start:url(#583FA61A_start_arrow);marker-end:url(#583FA61A_end_arrow)"
          id="583FA61A"
          points="514.846070581,9.284888107915 514.846070581,207.710084959 727.444495778,207.710084959"/>
      <polyline
          style="fill:none;stroke-width:2;marker-start:url(#583FA61A_start_arrow);marker-end:url(#583FA61A_end_arrow)"
          id="C953902A"
          points="203.035046959,9.284888107915 203.035046959,207.710084959 500.672842235,207.710084959"/>
      <text
          id="203AB72A"
          style="stroke:none"
          font-family="Cambria Math"
          font-size="18"
          font-weight="normal"
          font-style="normal">
         <tspan x="212.425346027" y="28.641742867">E(t)</tspan>
      </text>
      <text
          id="25330A2A"
          style="stroke:none"
          font-family="Cambria Math"
          font-size="18"
          font-weight="normal"
          font-style="normal">
         <tspan x="528.066326599" y="29.126964236">P(ω)</tspan>
      </text>
      <text
          id="E24F5B2A"
          style="stroke:none"
          font-family="Cambria Math"
          font-size="18"
          font-weight="normal"
          font-style="normal">
         <tspan x="704.098039085" y="224.710084959">ω</tspan>
      </text>
      <text
          id="F6FEEB2A"
          style="stroke:none"
          font-family="Cambria Math"
          font-size="18"
          font-weight="normal"
          font-style="normal">
         <tspan x="593.816324888" y="223.540707057">ω</tspan>
      </text>
      <text
          id="91FE2C2A"
          style="stroke:none"
          font-family="Cambria Math"
          font-size="18"
          font-weight="normal"
          font-style="normal">
         <tspan x="475.646604738" y="228.227736607">t</tspan>
      </text>
      <text
          id="16E15C2A"
          style="stroke:none"
          font-family="Cambria Math"
          font-size="12"
          font-weight="normal"
          font-style="normal">
         <tspan x="609.124006771" y="229.872281746">gyr</tspan>
      </text>
      <text
          id="4B45613A"
          style="stroke:none"
          font-family="Cambria Math"
          font-size="18"
          font-weight="normal"
          font-style="normal">
         <tspan x="51.7031574801" y="143.965965781">a</tspan>
      </text>
      <circle
          id="8D1AFC6A"
          cx="89.5966747966"
          cy="108.434036487"
          r="4.056657447382"/>
      <g
          id="DA749FF9_arrowsAlong">
         <path
             style="fill:none;stroke-width:3"
             id="DA749FF9"
             d="M174.688590266,108.497486533 C174.694743334,97.3648845346 172.481300698,86.2371569575 168.215353661,75.954328505 C163.960776011,65.6667906979 157.657424679,56.2331587714 149.781135438,48.3655712825 C141.913547949,40.489282041 132.479916023,34.1859307097 122.192378215,29.9313530596
C111.909549763,25.665406022 100.781822186,23.4519633861 89.6492201876,23.4581164543 C78.5166181894,23.4519633861 67.3888906123,25.665406022 57.1060621598,29.9313530596 C46.8185243528,34.1859307097 37.3848924262,40.489282041 29.5173049373,48.3655712825
C21.6410156958,56.2331587714 15.3376643645,65.6667906979 11.0830867145,75.954328505 C6.817139676779,86.2371569575 4.603697040874,97.3648845346 4.609850109136,108.497486533 C4.603697040874,119.630088531 6.817139676779,130.757816108 11.0830867145,141.040644561
C15.3376643645,151.328182368 21.6410156958,160.761814294 29.5173049373,168.629401783 C37.3848924262,176.505691025 46.8185243528,182.809042356 57.1060621598,187.063620006 C67.3888906123,191.329567044 78.5166181894,193.54300968 89.6492201876,193.536856611
C100.781822186,193.54300968 111.909549763,191.329567044 122.192378215,187.063620006 C132.479916023,182.809042356 141.913547949,176.505691025 149.781135438,168.629401783 C157.657424679,160.761814294 163.960776011,151.328182368 168.215353661,141.040644561
C172.481300698,130.757816108 174.694743334,119.630088531 174.688590266,108.497486533 z"/>
         <path
             id="DA749FF9_endVertex_0"
             style="stroke-width:0.75"
             d="M167.629066828,74.5411166493 L175.840501744,83.4923876875 L168.165624801,86.676396709 z"/>
         <path
             id="DA749FF9_endVertex_1"
             style="stroke-width:0.75"
             d="M148.698664269,47.2842960315 L159.710544046,52.4118120352 L153.838349825,58.2905010531 z"/>
         <path
             id="DA749FF9_endVertex_2"
             style="stroke-width:0.75"
             d="M120.778519134,29.3466287687 L132.914384898,29.8697719073 L129.738861737,37.548163809 z"/>
         <path
             id="DA749FF9_endVertex_3"
             style="stroke-width:0.75"
             d="M88.1192204213,23.4589620961 L99.531496622,19.2980885691 L99.5360891368,27.6072177923 z"/>
         <path
             id="DA749FF9_endVertex_4"
             style="stroke-width:0.75"
             d="M55.6928503041,30.5176398928 L64.6441213423,22.3062049763 L67.8281303639,29.9810819193 z"/>
         <path
             id="DA749FF9_endVertex_5"
             style="stroke-width:0.75"
             d="M28.4360296863,49.4480424515 L33.5635456901,38.4361626746 L39.4422347079,44.3083568958 z"/>
         <path
             id="DA749FF9_endVertex_6"
             style="stroke-width:0.75"
             d="M10.4983624235,77.3681875869 L11.0215055621,65.2323218228 L18.6998974638,68.4078449835 z"/>
         <path
             id="DA749FF9_endVertex_7"
             style="stroke-width:0.75"
             d="M4.610695750882,110.027486299 L0.449822223926,98.6152100984 L8.758951447165,98.6106175836 z"/>
         <path
             id="DA749FF9_endVertex_8"
             style="stroke-width:0.75"
             d="M11.6693735476,142.453856416 L3.457938631139,133.502585378 L11.1328155742,130.318576357 z"/>
         <path
             id="DA749FF9_endVertex_9"
             style="stroke-width:0.75"
             d="M30.5997761063,169.710677034 L19.5878963294,164.58316103 L25.4600905506,158.704472013 z"/>
         <path
             id="DA749FF9_endVertex_10"
             style="stroke-width:0.75"
             d="M58.5199212418,187.648344297 L46.3840554776,187.125201158 L49.5595786383,179.446809257 z"/>
         <path
             id="DA749FF9_endVertex_11"
             style="stroke-width:0.75"
             d="M91.1792199539,193.53601097 L79.7669437532,197.696884497 L79.7623512385,189.387755273 z"/>
         <path
             id="DA749FF9_endVertex_12"
             style="stroke-width:0.75"
             d="M123.605590071,186.477333173 L114.654319033,194.688768089 L111.470310011,187.013891146 z"/>
         <path
             id="DA749FF9_endVertex_13"
             style="stroke-width:0.75"
             d="M150.862410689,167.546930614 L145.734894685,178.558810391 L139.856205667,172.68661617 z"/>
         <path
             id="DA749FF9_endVertex_14"
             style="stroke-width:0.75"
             d="M168.800077952,139.626785479 L168.276934813,151.762651243 L160.598542911,148.587128082 z"/>
         <path
             id="DA749FF9_endVertex_15"
             style="stroke-width:0.75"
             d="M174.687744624,106.967486767 L178.848618151,118.379762967 L170.539488928,118.384355482 z"/>
         <path
             id="DA749FF9_endVertex_17"
             style="stroke-width:0.75"
             d="M174.687744624,106.967486767 L178.848618151,118.379762967 L170.539488928,118.384355482 z"/>
         <path
             id="DA749FF9_endClosed"
             style="stroke-width:0.75"
             d="M174.687744624,106.967486767 L178.848618151,118.379762967 L170.539488928,118.384355482 z"/>
      </g>
      <line
          style="fill:none;marker-end:url(#4B6B9F2A_end_arrow)"
          id="4B6B9F2A"
          x1="48.5703660193"
          y1="180.783820288"
          x2="78.8582165362"
          y2="127.020041195"/>
      <circle
          id="A8A06E2A"
          cx="47.3326051476"
          cy="180.963836306"
          r="8.3360015067"/>
      <text
          id="5A4CC67A"
          style="fill:#A9A9A9;stroke:none"
          font-family="Helvetica Neue"
          font-size="9"
          font-weight="normal"
          font-style="normal">
         <tspan x="211.504737198" y="222.201791614">J. A. Aguilar 2018</tspan>
      </text>
      <path
          style="fill:#808080"
          id="D565B1CE"
          d="M717.515126515,205.715444748 C712.535032235,204.831566429 707.470515169,203.759949337 702.574843675,202.488659437 C697.515990352,201.174995082 692.52151925,199.624241285 687.634560835,197.767512871 C682.488437851,195.812318668 677.507229882,193.535410522 672.694277995,190.859949229
C667.408770215,187.921799876 662.446209939,184.56971318 657.753995154,180.753413707 C652.288288948,176.308013683 647.345034238,171.358636954 642.813712314,165.966425769 C637.169461075,159.249843902 632.239730674,151.933505525 627.873429474,144.331414265
C622.094350868,134.269560777 617.170951077,123.472355466 612.933146634,112.676981007 C607.070748031,97.7431186747 602.14952138,81.8554083899 598.49301034,69.4830673392 C592.311857489,44.453286701 585.804626335,33.722369045 577.564408355,35.6143220561
C550.932037008,35.6143220561 529.711209055,191.736762384 527.450782221,205.73813934"/>
      <line
          style="fill:none;stroke-linecap:butt;stroke-width:1.5;stroke-dasharray:5.118827342987,4"
          id="E565B1CE"
          x1="577.771255754"
          y1="35.7764954054"
          x2="579.831879818"
          y2="207.820756014"/>
      <text
          id="F565B1CE"
          style="stroke:none"
          font-family="Cambria Math"
          font-size="18"
          font-weight="normal"
          font-style="normal">
         <tspan x="616.663660415" y="106.654452312">e</tspan>
      </text>
      <text
          id="0665B1CE"
          style="stroke:none"
          font-family="Cambria Math"
          font-size="10"
          font-weight="normal"
          font-style="normal">
         <tspan x="624.877032248" y="97.8289611256">-(ω/ω   )</tspan>
      </text>
      <text
          id="1665B1CE"
          style="stroke:none"
          font-family="Cambria Math"
          font-size="5"
          font-weight="normal"
          font-style="normal">
         <tspan x="651.359727794" y="99.8172153896">gyr</tspan>
      </text>
      <text
          id="2665B1CE"
          style="stroke:none"
          font-family="Cambria Math"
          font-size="18"
          font-weight="normal"
          font-style="normal">
         <tspan x="524.163991647" y="81.0635580546">ω</tspan>
      </text>
      <text
          id="3665B1CE"
          style="stroke:none"
          font-family="Cambria Math"
          font-size="10"
          font-weight="normal"
          font-style="normal">
         <tspan x="534.04975998" y="69.1348444256">1/3 </tspan>
      </text>
      <path
          style="fill:none;stroke:#0F80FF;stroke-width:2"
          id="51A4F9CE"
          d="M274.040743887,193.447398773 C273.390369028,193.452142046 272.740001855,193.450256841 272.08961931,193.450256841 C267.009679983,193.450256841 265.108597496,193.664510114 263.02290241,188.480312238 C258.28756223,176.710163917 254.912338762,128.325724975 253.956185511,115.976487773
C253.888993756,115.108669867 248.536287463,34.4120295466 244.889468611,34.4120295466 C241.242649759,34.4120295466 235.889943466,115.108669867 235.822751711,115.976487773 C234.86659846,128.325724975 231.491374992,176.710163917 226.756034812,188.480312238
C224.670339726,193.664510114 222.769257239,193.450256841 217.689317912,193.450256841"/>
      <path
          style="fill:none;stroke:#0F80FF;stroke-width:2"
          id="36CFFECE"
          d="M368.343609202,193.754401318 C367.693234343,193.759144591 367.04286717,193.757259386 366.392484625,193.757259386 C361.312545298,193.757259386 359.411462811,193.971512659 357.325767725,188.787314783 C352.590427545,177.017166462 349.215204077,128.63272752 348.259050826,116.283490318
C348.191859071,115.415672412 342.839152778,34.7190320916 339.192333926,34.7190320916 C335.545515074,34.7190320916 330.192808781,115.415672412 330.125617026,116.283490318 C329.169463775,128.63272752 325.794240307,177.017166462 321.058900127,188.787314783
C318.973205041,193.971512659 317.072122554,193.757259386 311.992183227,193.757259386"/>
      <path
          style="fill:none;stroke:#0F80FF;stroke-width:2"
          id="A5A62FCE"
          d="M462.646474517,194.061403863 C461.996099658,194.066147136 461.345732485,194.064261931 460.69534994,194.064261931 C455.615410613,194.064261931 453.714328126,194.278515204 451.62863304,189.094317328 C446.89329286,177.324169007 443.518069392,128.939730065 442.561916141,116.590492863
C442.494724386,115.722674957 437.142018093,35.0260346366 433.495199241,35.0260346366 C429.848380389,35.0260346366 424.495674096,115.722674957 424.428482341,116.590492863 C423.47232909,128.939730065 420.097105622,177.324169007 415.361765442,189.094317328
C413.276070356,194.278515204 411.374987869,194.064261931 406.295048542,194.064261931"/>
      <line
          style="fill:none;stroke:#0F80FF;stroke-width:2"
          id="4AB1EFCE"
          x1="274.040743887"
          y1="193.447398773"
          x2="311.992183227"
          y2="193.757259386"/>
      <line
          style="fill:none;stroke:#0F80FF;stroke-width:2"
          id="F7E330DE"
          x1="368.343609201"
          y1="193.754401318"
          x2="406.295048541"
          y2="194.064261931"/>
      <text
          id="51AF41DE"
          style="stroke:none"
          font-family="Cambria Math"
          font-size="18"
          font-weight="normal"
          font-style="normal">
         <tspan x="275.660726616" y="125.973748683">2Δt</tspan>
      </text>
      <text
          id="1E9D02DE"
          style="stroke:none"
          font-family="Cambria Math"
          font-size="12"
          font-weight="normal"
          font-style="normal">
         <tspan x="304.374172512" y="128.043302867">syn</tspan>
      </text>
      <line
          style="fill:none;marker-end:url(#9719A2DE_end_arrow)"
          id="9719A2DE"
          x1="296.203769825"
          y1="108.497486533"
          x2="324.550226518"
          y2="108.497486533"/>
      <line
          style="fill:none;marker-end:url(#9719A2DE_end_arrow)"
          id="5F2986DE"
          x1="378.611318597"
          y1="108.620367336"
          x2="354.108412976"
          y2="108.620367336"/>
      <line
          style="fill:none;marker-start:url(#1E758672_start_arrow);marker-end:url(#1E758672_end_arrow)"
          id="1E758672"
          x1="350.436621763"
          y1="51.8045731472"
          x2="424.137409164"
          y2="51.8045731472"/>
      <text
          id="B2FB3972"
          style="stroke:none"
          font-family="Cambria Math"
          font-size="18"
          font-weight="normal"
          font-style="normal">
         <tspan x="371.194296552" y="43.2532023713">Δt</tspan>
      </text>
      <text
          id="2F4A7A72"
          style="stroke:none"
          font-family="Cambria Math"
          font-size="12"
          font-weight="normal"
          font-style="normal">
         <tspan x="389.452369794" y="45.7966991315">gyr</tspan>
      </text>
   </g>
</svg>
